STARTFONT 2.1
FONT -Misc-Termsynu-Medium-R-Normal--12-87-100-100-C-70-ISO10646-1
SIZE 8 100 100
FONTBOUNDINGBOX 7 12 0 -2

STARTPROPERTIES 24
FONTNAME_REGISTRY ""
FOUNDRY "Misc"
FAMILY_NAME "Termsynu"
WEIGHT_NAME "Medium"
SLANT "R"
SETWIDTH_NAME "Normal"
ADD_STYLE_NAME ""
PIXEL_SIZE 12
POINT_SIZE 87
RESOLUTION_X 100
RESOLUTION_Y 100
SPACING "C"
AVERAGE_WIDTH 70
CHARSET_REGISTRY "ISO10646"
CHARSET_ENCODING "1"
COPYRIGHT "GPLv2"
CAP_HEIGHT 7
X_HEIGHT 5
WEIGHT 10
QUAD_WIDTH 7
_GBDFED_INFO "Edited with gbdfed 1.6."
DEFAULT_CHAR 0
FONT_DESCENT 2
FONT_ASCENT 10
ENDPROPERTIES

CHARS 382

STARTCHAR char0
ENCODING 0
SWIDTH 420 0
DWIDTH 7 0
BBX 7 12 0 -2
BITMAP
00
00
00
7C
7C
7C
7C
7C
7C
7C
00
00
ENDCHAR

STARTCHAR spacehackarabic
ENCODING 32
SWIDTH 420 0
DWIDTH 7 0
BBX 7 12 0 -2
BITMAP
00
00
00
00
00
00
00
00
00
00
00
00
ENDCHAR

STARTCHAR exclam
ENCODING 33
SWIDTH 420 0
DWIDTH 7 0
BBX 7 12 0 -2
BITMAP
00
00
10
10
10
10
10
00
10
10
00
00
ENDCHAR

STARTCHAR quotedbl
ENCODING 34
SWIDTH 420 0
DWIDTH 7 0
BBX 7 12 0 -2
BITMAP
00
00
28
28
28
00
00
00
00
00
00
00
ENDCHAR

STARTCHAR numbersign
ENCODING 35
SWIDTH 420 0
DWIDTH 7 0
BBX 7 12 0 -2
BITMAP
00
00
00
28
28
7C
28
7C
28
28
00
00
ENDCHAR

STARTCHAR dollar
ENCODING 36
SWIDTH 420 0
DWIDTH 7 0
BBX 7 12 0 -2
BITMAP
00
00
10
38
54
50
38
14
54
38
10
00
ENDCHAR

STARTCHAR percent
ENCODING 37
SWIDTH 420 0
DWIDTH 7 0
BBX 7 12 0 -2
BITMAP
00
00
40
A4
A8
50
28
54
94
08
00
00
ENDCHAR

STARTCHAR ampersand
ENCODING 38
SWIDTH 420 0
DWIDTH 7 0
BBX 7 12 0 -2
BITMAP
00
00
20
50
50
20
54
48
48
34
00
00
ENDCHAR

STARTCHAR quotesingle
ENCODING 39
SWIDTH 420 0
DWIDTH 7 0
BBX 7 12 0 -2
BITMAP
00
00
10
10
10
00
00
00
00
00
00
00
ENDCHAR

STARTCHAR parenleft
ENCODING 40
SWIDTH 420 0
DWIDTH 7 0
BBX 7 12 0 -2
BITMAP
00
00
04
08
10
10
10
10
10
08
04
00
ENDCHAR

STARTCHAR parenright
ENCODING 41
SWIDTH 420 0
DWIDTH 7 0
BBX 7 12 0 -2
BITMAP
00
00
40
20
10
10
10
10
10
20
40
00
ENDCHAR

STARTCHAR asterisk
ENCODING 42
SWIDTH 420 0
DWIDTH 7 0
BBX 7 12 0 -2
BITMAP
00
00
00
00
10
54
38
54
10
00
00
00
ENDCHAR

STARTCHAR plus
ENCODING 43
SWIDTH 420 0
DWIDTH 7 0
BBX 7 12 0 -2
BITMAP
00
00
00
00
10
10
7C
10
10
00
00
00
ENDCHAR

STARTCHAR comma
ENCODING 44
SWIDTH 420 0
DWIDTH 7 0
BBX 7 12 0 -2
BITMAP
00
00
00
00
00
00
00
00
10
10
20
00
ENDCHAR

STARTCHAR hyphen
ENCODING 45
SWIDTH 420 0
DWIDTH 7 0
BBX 7 12 0 -2
BITMAP
00
00
00
00
00
00
7C
00
00
00
00
00
ENDCHAR

STARTCHAR period
ENCODING 46
SWIDTH 420 0
DWIDTH 7 0
BBX 7 12 0 -2
BITMAP
00
00
00
00
00
00
00
00
10
10
00
00
ENDCHAR

STARTCHAR slash
ENCODING 47
SWIDTH 420 0
DWIDTH 7 0
BBX 7 12 0 -2
BITMAP
00
00
00
04
04
08
08
10
10
20
20
00
ENDCHAR

STARTCHAR zero
ENCODING 48
SWIDTH 420 0
DWIDTH 7 0
BBX 7 12 0 -2
BITMAP
00
00
00
38
44
4C
54
64
44
38
00
00
ENDCHAR

STARTCHAR one
ENCODING 49
SWIDTH 420 0
DWIDTH 7 0
BBX 7 12 0 -2
BITMAP
00
00
00
10
30
50
10
10
10
7C
00
00
ENDCHAR

STARTCHAR two
ENCODING 50
SWIDTH 420 0
DWIDTH 7 0
BBX 7 12 0 -2
BITMAP
00
00
00
38
44
04
08
10
20
7C
00
00
ENDCHAR

STARTCHAR three
ENCODING 51
SWIDTH 420 0
DWIDTH 7 0
BBX 7 12 0 -2
BITMAP
00
00
00
38
44
04
18
04
44
38
00
00
ENDCHAR

STARTCHAR four
ENCODING 52
SWIDTH 420 0
DWIDTH 7 0
BBX 7 12 0 -2
BITMAP
00
00
00
08
18
28
48
7C
08
08
00
00
ENDCHAR

STARTCHAR five
ENCODING 53
SWIDTH 420 0
DWIDTH 7 0
BBX 7 12 0 -2
BITMAP
00
00
00
7C
40
78
04
04
44
38
00
00
ENDCHAR

STARTCHAR six
ENCODING 54
SWIDTH 420 0
DWIDTH 7 0
BBX 7 12 0 -2
BITMAP
00
00
00
18
20
40
78
44
44
38
00
00
ENDCHAR

STARTCHAR seven
ENCODING 55
SWIDTH 420 0
DWIDTH 7 0
BBX 7 12 0 -2
BITMAP
00
00
00
7C
04
08
08
10
10
10
00
00
ENDCHAR

STARTCHAR eight
ENCODING 56
SWIDTH 420 0
DWIDTH 7 0
BBX 7 12 0 -2
BITMAP
00
00
00
38
44
44
38
44
44
38
00
00
ENDCHAR

STARTCHAR nine
ENCODING 57
SWIDTH 420 0
DWIDTH 7 0
BBX 7 12 0 -2
BITMAP
00
00
00
38
44
44
3C
04
08
30
00
00
ENDCHAR

STARTCHAR colon
ENCODING 58
SWIDTH 420 0
DWIDTH 7 0
BBX 7 12 0 -2
BITMAP
00
00
00
00
00
10
10
00
10
10
00
00
ENDCHAR

STARTCHAR semicolon
ENCODING 59
SWIDTH 420 0
DWIDTH 7 0
BBX 7 12 0 -2
BITMAP
00
00
00
00
00
10
10
00
10
10
20
00
ENDCHAR

STARTCHAR less
ENCODING 60
SWIDTH 420 0
DWIDTH 7 0
BBX 7 12 0 -2
BITMAP
00
00
00
04
08
10
20
10
08
04
00
00
ENDCHAR

STARTCHAR equal
ENCODING 61
SWIDTH 420 0
DWIDTH 7 0
BBX 7 12 0 -2
BITMAP
00
00
00
00
00
7C
00
7C
00
00
00
00
ENDCHAR

STARTCHAR greater
ENCODING 62
SWIDTH 420 0
DWIDTH 7 0
BBX 7 12 0 -2
BITMAP
00
00
00
40
20
10
08
10
20
40
00
00
ENDCHAR

STARTCHAR question
ENCODING 63
SWIDTH 420 0
DWIDTH 7 0
BBX 7 12 0 -2
BITMAP
00
00
38
44
04
08
10
00
10
10
00
00
ENDCHAR

STARTCHAR at
ENCODING 64
SWIDTH 420 0
DWIDTH 7 0
BBX 7 12 0 -2
BITMAP
00
00
38
44
4C
54
54
54
4C
40
3C
00
ENDCHAR

STARTCHAR A
ENCODING 65
SWIDTH 420 0
DWIDTH 7 0
BBX 7 12 0 -2
BITMAP
00
00
00
38
44
44
7C
44
44
44
00
00
ENDCHAR

STARTCHAR B
ENCODING 66
SWIDTH 420 0
DWIDTH 7 0
BBX 7 12 0 -2
BITMAP
00
00
00
78
44
44
78
44
44
78
00
00
ENDCHAR

STARTCHAR C
ENCODING 67
SWIDTH 420 0
DWIDTH 7 0
BBX 7 12 0 -2
BITMAP
00
00
00
38
44
40
40
40
44
38
00
00
ENDCHAR

STARTCHAR D
ENCODING 68
SWIDTH 420 0
DWIDTH 7 0
BBX 7 12 0 -2
BITMAP
00
00
00
78
44
44
44
44
44
78
00
00
ENDCHAR

STARTCHAR E
ENCODING 69
SWIDTH 420 0
DWIDTH 7 0
BBX 7 12 0 -2
BITMAP
00
00
00
7C
40
40
78
40
40
7C
00
00
ENDCHAR

STARTCHAR F
ENCODING 70
SWIDTH 420 0
DWIDTH 7 0
BBX 7 12 0 -2
BITMAP
00
00
00
7C
40
40
78
40
40
40
00
00
ENDCHAR

STARTCHAR G
ENCODING 71
SWIDTH 420 0
DWIDTH 7 0
BBX 7 12 0 -2
BITMAP
00
00
00
38
44
40
5C
44
44
38
00
00
ENDCHAR

STARTCHAR H
ENCODING 72
SWIDTH 420 0
DWIDTH 7 0
BBX 7 12 0 -2
BITMAP
00
00
00
44
44
44
7C
44
44
44
00
00
ENDCHAR

STARTCHAR I
ENCODING 73
SWIDTH 420 0
DWIDTH 7 0
BBX 7 12 0 -2
BITMAP
00
00
00
7C
10
10
10
10
10
7C
00
00
ENDCHAR

STARTCHAR J
ENCODING 74
SWIDTH 420 0
DWIDTH 7 0
BBX 7 12 0 -2
BITMAP
00
00
00
04
04
04
04
44
44
38
00
00
ENDCHAR

STARTCHAR K
ENCODING 75
SWIDTH 420 0
DWIDTH 7 0
BBX 7 12 0 -2
BITMAP
00
00
00
44
48
50
60
50
48
44
00
00
ENDCHAR

STARTCHAR L
ENCODING 76
SWIDTH 420 0
DWIDTH 7 0
BBX 7 12 0 -2
BITMAP
00
00
00
40
40
40
40
40
40
7C
00
00
ENDCHAR

STARTCHAR M
ENCODING 77
SWIDTH 420 0
DWIDTH 7 0
BBX 7 12 0 -2
BITMAP
00
00
00
44
6C
54
54
44
44
44
00
00
ENDCHAR

STARTCHAR N
ENCODING 78
SWIDTH 420 0
DWIDTH 7 0
BBX 7 12 0 -2
BITMAP
00
00
00
44
64
54
4C
44
44
44
00
00
ENDCHAR

STARTCHAR O
ENCODING 79
SWIDTH 420 0
DWIDTH 7 0
BBX 7 12 0 -2
BITMAP
00
00
00
38
44
44
44
44
44
38
00
00
ENDCHAR

STARTCHAR P
ENCODING 80
SWIDTH 420 0
DWIDTH 7 0
BBX 7 12 0 -2
BITMAP
00
00
00
78
44
44
78
40
40
40
00
00
ENDCHAR

STARTCHAR Q
ENCODING 81
SWIDTH 420 0
DWIDTH 7 0
BBX 7 12 0 -2
BITMAP
00
00
00
38
44
44
44
44
54
38
04
00
ENDCHAR

STARTCHAR R
ENCODING 82
SWIDTH 420 0
DWIDTH 7 0
BBX 7 12 0 -2
BITMAP
00
00
00
78
44
44
78
50
48
44
00
00
ENDCHAR

STARTCHAR S
ENCODING 83
SWIDTH 420 0
DWIDTH 7 0
BBX 7 12 0 -2
BITMAP
00
00
00
38
44
40
38
04
44
38
00
00
ENDCHAR

STARTCHAR T
ENCODING 84
SWIDTH 420 0
DWIDTH 7 0
BBX 7 12 0 -2
BITMAP
00
00
00
7C
10
10
10
10
10
10
00
00
ENDCHAR

STARTCHAR U
ENCODING 85
SWIDTH 420 0
DWIDTH 7 0
BBX 7 12 0 -2
BITMAP
00
00
00
44
44
44
44
44
44
38
00
00
ENDCHAR

STARTCHAR V
ENCODING 86
SWIDTH 420 0
DWIDTH 7 0
BBX 7 12 0 -2
BITMAP
00
00
00
44
44
28
28
28
10
10
00
00
ENDCHAR

STARTCHAR W
ENCODING 87
SWIDTH 420 0
DWIDTH 7 0
BBX 7 12 0 -2
BITMAP
00
00
00
44
44
44
54
54
6C
44
00
00
ENDCHAR

STARTCHAR X
ENCODING 88
SWIDTH 420 0
DWIDTH 7 0
BBX 7 12 0 -2
BITMAP
00
00
00
44
44
28
10
28
44
44
00
00
ENDCHAR

STARTCHAR Y
ENCODING 89
SWIDTH 420 0
DWIDTH 7 0
BBX 7 12 0 -2
BITMAP
00
00
00
44
44
28
38
10
10
10
00
00
ENDCHAR

STARTCHAR Z
ENCODING 90
SWIDTH 420 0
DWIDTH 7 0
BBX 7 12 0 -2
BITMAP
00
00
00
7C
04
08
10
20
40
7C
00
00
ENDCHAR

STARTCHAR bracketleft
ENCODING 91
SWIDTH 420 0
DWIDTH 7 0
BBX 7 12 0 -2
BITMAP
00
00
1C
10
10
10
10
10
10
10
1C
00
ENDCHAR

STARTCHAR backslash
ENCODING 92
SWIDTH 420 0
DWIDTH 7 0
BBX 7 12 0 -2
BITMAP
00
00
00
40
40
20
20
10
10
08
08
00
ENDCHAR

STARTCHAR bracketright
ENCODING 93
SWIDTH 420 0
DWIDTH 7 0
BBX 7 12 0 -2
BITMAP
00
00
70
10
10
10
10
10
10
10
70
00
ENDCHAR

STARTCHAR asciicircum
ENCODING 94
SWIDTH 420 0
DWIDTH 7 0
BBX 7 12 0 -2
BITMAP
00
00
10
28
44
00
00
00
00
00
00
00
ENDCHAR

STARTCHAR underscore
ENCODING 95
SWIDTH 420 0
DWIDTH 7 0
BBX 7 12 0 -2
BITMAP
00
00
00
00
00
00
00
00
00
00
FE
00
ENDCHAR

STARTCHAR grave
ENCODING 96
SWIDTH 420 0
DWIDTH 7 0
BBX 7 12 0 -2
BITMAP
00
00
20
10
08
00
00
00
00
00
00
00
ENDCHAR

STARTCHAR a
ENCODING 97
SWIDTH 420 0
DWIDTH 7 0
BBX 7 12 0 -2
BITMAP
00
00
00
00
00
38
04
3C
44
3C
00
00
ENDCHAR

STARTCHAR b
ENCODING 98
SWIDTH 420 0
DWIDTH 7 0
BBX 7 12 0 -2
BITMAP
00
00
00
40
40
78
44
44
44
78
00
00
ENDCHAR

STARTCHAR c
ENCODING 99
SWIDTH 420 0
DWIDTH 7 0
BBX 7 12 0 -2
BITMAP
00
00
00
00
00
3C
40
40
40
3C
00
00
ENDCHAR

STARTCHAR d
ENCODING 100
SWIDTH 420 0
DWIDTH 7 0
BBX 7 12 0 -2
BITMAP
00
00
00
04
04
3C
44
44
44
3C
00
00
ENDCHAR

STARTCHAR e
ENCODING 101
SWIDTH 420 0
DWIDTH 7 0
BBX 7 12 0 -2
BITMAP
00
00
00
00
00
38
44
7C
40
3C
00
00
ENDCHAR

STARTCHAR f
ENCODING 102
SWIDTH 420 0
DWIDTH 7 0
BBX 7 12 0 -2
BITMAP
00
00
00
1C
20
78
20
20
20
20
00
00
ENDCHAR

STARTCHAR g
ENCODING 103
SWIDTH 420 0
DWIDTH 7 0
BBX 7 12 0 -2
BITMAP
00
00
00
00
00
3C
44
44
44
3C
04
38
ENDCHAR

STARTCHAR h
ENCODING 104
SWIDTH 420 0
DWIDTH 7 0
BBX 7 12 0 -2
BITMAP
00
00
00
40
40
78
44
44
44
44
00
00
ENDCHAR

STARTCHAR i
ENCODING 105
SWIDTH 420 0
DWIDTH 7 0
BBX 7 12 0 -2
BITMAP
00
00
10
10
00
70
10
10
10
7C
00
00
ENDCHAR

STARTCHAR j
ENCODING 106
SWIDTH 420 0
DWIDTH 7 0
BBX 7 12 0 -2
BITMAP
00
00
04
04
00
0C
04
04
04
44
44
38
ENDCHAR

STARTCHAR k
ENCODING 107
SWIDTH 420 0
DWIDTH 7 0
BBX 7 12 0 -2
BITMAP
00
00
00
40
40
48
50
70
48
44
00
00
ENDCHAR

STARTCHAR l
ENCODING 108
SWIDTH 420 0
DWIDTH 7 0
BBX 7 12 0 -2
BITMAP
00
00
00
70
10
10
10
10
10
7C
00
00
ENDCHAR

STARTCHAR m
ENCODING 109
SWIDTH 420 0
DWIDTH 7 0
BBX 7 12 0 -2
BITMAP
00
00
00
00
00
78
54
54
54
54
00
00
ENDCHAR

STARTCHAR n
ENCODING 110
SWIDTH 420 0
DWIDTH 7 0
BBX 7 12 0 -2
BITMAP
00
00
00
00
00
78
44
44
44
44
00
00
ENDCHAR

STARTCHAR o
ENCODING 111
SWIDTH 420 0
DWIDTH 7 0
BBX 7 12 0 -2
BITMAP
00
00
00
00
00
38
44
44
44
38
00
00
ENDCHAR

STARTCHAR p
ENCODING 112
SWIDTH 420 0
DWIDTH 7 0
BBX 7 12 0 -2
BITMAP
00
00
00
00
00
78
44
44
44
78
40
40
ENDCHAR

STARTCHAR q
ENCODING 113
SWIDTH 420 0
DWIDTH 7 0
BBX 7 12 0 -2
BITMAP
00
00
00
00
00
3C
44
44
44
3C
04
04
ENDCHAR

STARTCHAR r
ENCODING 114
SWIDTH 420 0
DWIDTH 7 0
BBX 7 12 0 -2
BITMAP
00
00
00
00
00
5C
60
40
40
40
00
00
ENDCHAR

STARTCHAR s
ENCODING 115
SWIDTH 420 0
DWIDTH 7 0
BBX 7 12 0 -2
BITMAP
00
00
00
00
00
3C
40
38
04
78
00
00
ENDCHAR

STARTCHAR t
ENCODING 116
SWIDTH 420 0
DWIDTH 7 0
BBX 7 12 0 -2
BITMAP
00
00
00
20
20
78
20
20
20
1C
00
00
ENDCHAR

STARTCHAR u
ENCODING 117
SWIDTH 420 0
DWIDTH 7 0
BBX 7 12 0 -2
BITMAP
00
00
00
00
00
44
44
44
44
3C
00
00
ENDCHAR

STARTCHAR v
ENCODING 118
SWIDTH 420 0
DWIDTH 7 0
BBX 7 12 0 -2
BITMAP
00
00
00
00
00
44
44
28
28
10
00
00
ENDCHAR

STARTCHAR w
ENCODING 119
SWIDTH 420 0
DWIDTH 7 0
BBX 7 12 0 -2
BITMAP
00
00
00
00
00
44
54
54
54
38
00
00
ENDCHAR

STARTCHAR x
ENCODING 120
SWIDTH 420 0
DWIDTH 7 0
BBX 7 12 0 -2
BITMAP
00
00
00
00
00
44
28
10
28
44
00
00
ENDCHAR

STARTCHAR y
ENCODING 121
SWIDTH 420 0
DWIDTH 7 0
BBX 7 12 0 -2
BITMAP
00
00
00
00
00
44
44
44
44
3C
04
38
ENDCHAR

STARTCHAR z
ENCODING 122
SWIDTH 420 0
DWIDTH 7 0
BBX 7 12 0 -2
BITMAP
00
00
00
00
00
7C
08
10
20
7C
00
00
ENDCHAR

STARTCHAR braceleft
ENCODING 123
SWIDTH 420 0
DWIDTH 7 0
BBX 7 12 0 -2
BITMAP
00
00
0C
10
10
10
20
10
10
10
0C
00
ENDCHAR

STARTCHAR bar
ENCODING 124
SWIDTH 420 0
DWIDTH 7 0
BBX 7 12 0 -2
BITMAP
00
00
10
10
10
10
10
10
10
10
10
00
ENDCHAR

STARTCHAR braceright
ENCODING 125
SWIDTH 420 0
DWIDTH 7 0
BBX 7 12 0 -2
BITMAP
00
00
60
10
10
10
08
10
10
10
60
00
ENDCHAR

STARTCHAR asciitilde
ENCODING 126
SWIDTH 420 0
DWIDTH 7 0
BBX 7 12 0 -2
BITMAP
00
00
24
54
48
00
00
00
00
00
00
00
ENDCHAR

STARTCHAR nonbreakingspace
ENCODING 160
SWIDTH 420 0
DWIDTH 7 0
BBX 7 12 0 -2
BITMAP
00
00
00
00
00
00
00
00
00
00
00
00
ENDCHAR

STARTCHAR exclamdown
ENCODING 161
SWIDTH 420 0
DWIDTH 7 0
BBX 7 12 0 -2
BITMAP
00
00
10
10
00
10
10
10
10
10
00
00
ENDCHAR

STARTCHAR cent
ENCODING 162
SWIDTH 420 0
DWIDTH 7 0
BBX 7 12 0 -2
BITMAP
00
00
00
00
10
3C
50
50
50
3C
10
00
ENDCHAR

STARTCHAR sterling
ENCODING 163
SWIDTH 420 0
DWIDTH 7 0
BBX 7 12 0 -2
BITMAP
00
00
00
18
24
20
78
20
24
7C
00
00
ENDCHAR

STARTCHAR currency
ENCODING 164
SWIDTH 420 0
DWIDTH 7 0
BBX 7 12 0 -2
BITMAP
00
00
00
44
38
44
44
44
38
44
00
00
ENDCHAR

STARTCHAR yen
ENCODING 165
SWIDTH 420 0
DWIDTH 7 0
BBX 7 12 0 -2
BITMAP
00
00
00
44
28
10
38
10
38
10
00
00
ENDCHAR

STARTCHAR brokenbar
ENCODING 166
SWIDTH 420 0
DWIDTH 7 0
BBX 7 12 0 -2
BITMAP
00
00
00
10
10
10
00
10
10
10
00
00
ENDCHAR

STARTCHAR section
ENCODING 167
SWIDTH 420 0
DWIDTH 7 0
BBX 7 12 0 -2
BITMAP
00
00
38
44
30
48
24
18
44
38
00
00
ENDCHAR

STARTCHAR dieresis
ENCODING 168
SWIDTH 420 0
DWIDTH 7 0
BBX 7 12 0 -2
BITMAP
28
28
00
00
00
00
00
00
00
00
00
00
ENDCHAR

STARTCHAR copyright
ENCODING 169
SWIDTH 420 0
DWIDTH 7 0
BBX 7 12 0 -2
BITMAP
00
00
00
7C
82
BA
A2
BA
82
7C
00
00
ENDCHAR

STARTCHAR ordfeminine
ENCODING 170
SWIDTH 420 0
DWIDTH 7 0
BBX 7 12 0 -2
BITMAP
00
00
38
04
3C
44
3C
00
7C
00
00
00
ENDCHAR

STARTCHAR guillemotleft
ENCODING 171
SWIDTH 420 0
DWIDTH 7 0
BBX 7 12 0 -2
BITMAP
00
00
00
14
28
50
A0
50
28
14
00
00
ENDCHAR

STARTCHAR logicalnot
ENCODING 172
SWIDTH 420 0
DWIDTH 7 0
BBX 7 12 0 -2
BITMAP
00
00
00
00
00
00
7C
04
04
00
00
00
ENDCHAR

STARTCHAR softhyphen
ENCODING 173
SWIDTH 420 0
DWIDTH 7 0
BBX 7 12 0 -2
BITMAP
00
00
00
00
00
00
38
00
00
00
00
00
ENDCHAR

STARTCHAR registered
ENCODING 174
SWIDTH 420 0
DWIDTH 7 0
BBX 7 12 0 -2
BITMAP
00
00
00
7C
82
BA
A2
A2
82
7C
00
00
ENDCHAR

STARTCHAR macron
ENCODING 175
SWIDTH 420 0
DWIDTH 7 0
BBX 7 12 0 -2
BITMAP
00
38
00
00
00
00
00
00
00
00
00
00
ENDCHAR

STARTCHAR degree
ENCODING 176
SWIDTH 420 0
DWIDTH 7 0
BBX 7 12 0 -2
BITMAP
00
00
20
50
50
20
00
00
00
00
00
00
ENDCHAR

STARTCHAR plusminus
ENCODING 177
SWIDTH 420 0
DWIDTH 7 0
BBX 7 12 0 -2
BITMAP
00
00
00
10
10
7C
10
10
00
7C
00
00
ENDCHAR

STARTCHAR twosuperior
ENCODING 178
SWIDTH 420 0
DWIDTH 7 0
BBX 7 12 0 -2
BITMAP
00
00
30
48
10
20
78
00
00
00
00
00
ENDCHAR

STARTCHAR threesuperior
ENCODING 179
SWIDTH 420 0
DWIDTH 7 0
BBX 7 12 0 -2
BITMAP
00
00
70
08
30
08
70
00
00
00
00
00
ENDCHAR

STARTCHAR acute
ENCODING 180
SWIDTH 420 0
DWIDTH 7 0
BBX 7 12 0 -2
BITMAP
08
10
00
00
00
00
00
00
00
00
00
00
ENDCHAR

STARTCHAR mu1
ENCODING 181
SWIDTH 420 0
DWIDTH 7 0
BBX 7 12 0 -2
BITMAP
00
00
00
00
00
44
44
44
4C
74
40
40
ENDCHAR

STARTCHAR paragraph
ENCODING 182
SWIDTH 420 0
DWIDTH 7 0
BBX 7 12 0 -2
BITMAP
00
00
00
3C
54
54
34
14
14
14
00
00
ENDCHAR

STARTCHAR middot
ENCODING 183
SWIDTH 420 0
DWIDTH 7 0
BBX 7 12 0 -2
BITMAP
00
00
00
00
00
10
10
00
00
00
00
00
ENDCHAR

STARTCHAR cedilla
ENCODING 184
SWIDTH 420 0
DWIDTH 7 0
BBX 7 12 0 -2
BITMAP
00
00
00
00
00
00
00
00
00
10
10
20
ENDCHAR

STARTCHAR onesuperior
ENCODING 185
SWIDTH 420 0
DWIDTH 7 0
BBX 7 12 0 -2
BITMAP
00
00
20
60
20
20
70
00
00
00
00
00
ENDCHAR

STARTCHAR ordmasculine
ENCODING 186
SWIDTH 420 0
DWIDTH 7 0
BBX 7 12 0 -2
BITMAP
00
00
38
44
44
44
38
00
7C
00
00
00
ENDCHAR

STARTCHAR guillemotright
ENCODING 187
SWIDTH 420 0
DWIDTH 7 0
BBX 7 12 0 -2
BITMAP
00
00
00
50
28
14
0A
14
28
50
00
00
ENDCHAR

STARTCHAR onequarter
ENCODING 188
SWIDTH 420 0
DWIDTH 7 0
BBX 7 12 0 -2
BITMAP
40
C0
40
48
50
28
58
A8
7C
08
08
00
ENDCHAR

STARTCHAR onehalf
ENCODING 189
SWIDTH 420 0
DWIDTH 7 0
BBX 7 12 0 -2
BITMAP
40
C0
40
48
50
20
58
A4
08
10
3C
00
ENDCHAR

STARTCHAR threequarters
ENCODING 190
SWIDTH 420 0
DWIDTH 7 0
BBX 7 12 0 -2
BITMAP
C0
20
40
28
D0
28
58
A8
7C
08
08
00
ENDCHAR

STARTCHAR questiondown
ENCODING 191
SWIDTH 420 0
DWIDTH 7 0
BBX 7 12 0 -2
BITMAP
00
00
10
10
00
10
20
40
44
38
00
00
ENDCHAR

STARTCHAR Agrave
ENCODING 192
SWIDTH 420 0
DWIDTH 7 0
BBX 7 12 0 -2
BITMAP
20
10
00
38
44
44
7C
44
44
44
00
00
ENDCHAR

STARTCHAR Aacute
ENCODING 193
SWIDTH 420 0
DWIDTH 7 0
BBX 7 12 0 -2
BITMAP
08
10
00
38
44
44
7C
44
44
44
00
00
ENDCHAR

STARTCHAR Acircumflex
ENCODING 194
SWIDTH 420 0
DWIDTH 7 0
BBX 7 12 0 -2
BITMAP
10
28
00
38
44
44
7C
44
44
44
00
00
ENDCHAR

STARTCHAR Atilde
ENCODING 195
SWIDTH 420 0
DWIDTH 7 0
BBX 7 12 0 -2
BITMAP
14
28
00
38
44
44
7C
44
44
44
00
00
ENDCHAR

STARTCHAR Adieresis
ENCODING 196
SWIDTH 420 0
DWIDTH 7 0
BBX 7 12 0 -2
BITMAP
28
28
00
38
44
44
7C
44
44
44
00
00
ENDCHAR

STARTCHAR Aring
ENCODING 197
SWIDTH 420 0
DWIDTH 7 0
BBX 7 12 0 -2
BITMAP
10
28
10
38
44
44
7C
44
44
44
00
00
ENDCHAR

STARTCHAR AE
ENCODING 198
SWIDTH 420 0
DWIDTH 7 0
BBX 7 12 0 -2
BITMAP
00
00
00
3C
50
50
78
50
50
5C
00
00
ENDCHAR

STARTCHAR Ccedilla
ENCODING 199
SWIDTH 420 0
DWIDTH 7 0
BBX 7 12 0 -2
BITMAP
00
00
00
38
44
40
40
40
44
38
10
20
ENDCHAR

STARTCHAR Egrave
ENCODING 200
SWIDTH 420 0
DWIDTH 7 0
BBX 7 12 0 -2
BITMAP
20
10
00
7C
40
40
78
40
40
7C
00
00
ENDCHAR

STARTCHAR Eacute
ENCODING 201
SWIDTH 420 0
DWIDTH 7 0
BBX 7 12 0 -2
BITMAP
08
10
00
7C
40
40
78
40
40
7C
00
00
ENDCHAR

STARTCHAR Ecircumflex
ENCODING 202
SWIDTH 420 0
DWIDTH 7 0
BBX 7 12 0 -2
BITMAP
10
28
00
7C
40
40
78
40
40
7C
00
00
ENDCHAR

STARTCHAR Edieresis
ENCODING 203
SWIDTH 420 0
DWIDTH 7 0
BBX 7 12 0 -2
BITMAP
28
28
00
7C
40
40
78
40
40
7C
00
00
ENDCHAR

STARTCHAR Igrave
ENCODING 204
SWIDTH 420 0
DWIDTH 7 0
BBX 7 12 0 -2
BITMAP
20
10
00
7C
10
10
10
10
10
7C
00
00
ENDCHAR

STARTCHAR Iacute
ENCODING 205
SWIDTH 420 0
DWIDTH 7 0
BBX 7 12 0 -2
BITMAP
08
10
00
7C
10
10
10
10
10
7C
00
00
ENDCHAR

STARTCHAR Icircumflex
ENCODING 206
SWIDTH 420 0
DWIDTH 7 0
BBX 7 12 0 -2
BITMAP
10
28
00
7C
10
10
10
10
10
7C
00
00
ENDCHAR

STARTCHAR Idieresis
ENCODING 207
SWIDTH 420 0
DWIDTH 7 0
BBX 7 12 0 -2
BITMAP
28
28
00
7C
10
10
10
10
10
7C
00
00
ENDCHAR

STARTCHAR Eth
ENCODING 208
SWIDTH 420 0
DWIDTH 7 0
BBX 7 12 0 -2
BITMAP
00
00
00
78
44
44
F4
44
44
78
00
00
ENDCHAR

STARTCHAR Ntilde
ENCODING 209
SWIDTH 420 0
DWIDTH 7 0
BBX 7 12 0 -2
BITMAP
14
28
00
44
64
54
4C
44
44
44
00
00
ENDCHAR

STARTCHAR Ograve
ENCODING 210
SWIDTH 420 0
DWIDTH 7 0
BBX 7 12 0 -2
BITMAP
20
10
00
38
44
44
44
44
44
38
00
00
ENDCHAR

STARTCHAR Oacute
ENCODING 211
SWIDTH 420 0
DWIDTH 7 0
BBX 7 12 0 -2
BITMAP
08
10
00
38
44
44
44
44
44
38
00
00
ENDCHAR

STARTCHAR Ocircumflex
ENCODING 212
SWIDTH 420 0
DWIDTH 7 0
BBX 7 12 0 -2
BITMAP
10
28
00
38
44
44
44
44
44
38
00
00
ENDCHAR

STARTCHAR Otilde
ENCODING 213
SWIDTH 420 0
DWIDTH 7 0
BBX 7 12 0 -2
BITMAP
14
28
00
38
44
44
44
44
44
38
00
00
ENDCHAR

STARTCHAR Odieresis
ENCODING 214
SWIDTH 420 0
DWIDTH 7 0
BBX 7 12 0 -2
BITMAP
28
28
00
38
44
44
44
44
44
38
00
00
ENDCHAR

STARTCHAR multiply
ENCODING 215
SWIDTH 420 0
DWIDTH 7 0
BBX 7 12 0 -2
BITMAP
00
00
00
00
44
28
10
28
44
00
00
00
ENDCHAR

STARTCHAR Oslash
ENCODING 216
SWIDTH 420 0
DWIDTH 7 0
BBX 7 12 0 -2
BITMAP
00
00
00
3A
44
4C
54
64
44
B8
00
00
ENDCHAR

STARTCHAR Ugrave
ENCODING 217
SWIDTH 420 0
DWIDTH 7 0
BBX 7 12 0 -2
BITMAP
20
10
00
44
44
44
44
44
44
38
00
00
ENDCHAR

STARTCHAR Uacute
ENCODING 218
SWIDTH 420 0
DWIDTH 7 0
BBX 7 12 0 -2
BITMAP
08
10
00
44
44
44
44
44
44
38
00
00
ENDCHAR

STARTCHAR Ucircumflex
ENCODING 219
SWIDTH 420 0
DWIDTH 7 0
BBX 7 12 0 -2
BITMAP
10
28
00
44
44
44
44
44
44
38
00
00
ENDCHAR

STARTCHAR Udieresis
ENCODING 220
SWIDTH 420 0
DWIDTH 7 0
BBX 7 12 0 -2
BITMAP
28
28
00
44
44
44
44
44
44
38
00
00
ENDCHAR

STARTCHAR Yacute
ENCODING 221
SWIDTH 420 0
DWIDTH 7 0
BBX 7 12 0 -2
BITMAP
08
10
00
44
44
28
38
10
10
10
00
00
ENDCHAR

STARTCHAR Thorn
ENCODING 222
SWIDTH 420 0
DWIDTH 7 0
BBX 7 12 0 -2
BITMAP
00
00
00
40
78
44
44
44
78
40
00
00
ENDCHAR

STARTCHAR germandbls
ENCODING 223
SWIDTH 420 0
DWIDTH 7 0
BBX 7 12 0 -2
BITMAP
00
00
00
30
48
50
78
44
64
58
00
00
ENDCHAR

STARTCHAR agrave
ENCODING 224
SWIDTH 420 0
DWIDTH 7 0
BBX 7 12 0 -2
BITMAP
00
00
20
10
00
38
04
3C
44
3C
00
00
ENDCHAR

STARTCHAR aacute
ENCODING 225
SWIDTH 420 0
DWIDTH 7 0
BBX 7 12 0 -2
BITMAP
00
00
08
10
00
38
04
3C
44
3C
00
00
ENDCHAR

STARTCHAR acircumflex
ENCODING 226
SWIDTH 420 0
DWIDTH 7 0
BBX 7 12 0 -2
BITMAP
00
00
10
28
00
38
04
3C
44
3C
00
00
ENDCHAR

STARTCHAR atilde
ENCODING 227
SWIDTH 420 0
DWIDTH 7 0
BBX 7 12 0 -2
BITMAP
00
00
14
28
00
38
04
3C
44
3C
00
00
ENDCHAR

STARTCHAR adieresis
ENCODING 228
SWIDTH 420 0
DWIDTH 7 0
BBX 7 12 0 -2
BITMAP
00
00
28
28
00
38
04
3C
44
3C
00
00
ENDCHAR

STARTCHAR aring
ENCODING 229
SWIDTH 420 0
DWIDTH 7 0
BBX 7 12 0 -2
BITMAP
00
10
28
10
00
38
04
3C
44
3C
00
00
ENDCHAR

STARTCHAR ae
ENCODING 230
SWIDTH 420 0
DWIDTH 7 0
BBX 7 12 0 -2
BITMAP
00
00
00
00
00
38
14
3C
50
3C
00
00
ENDCHAR

STARTCHAR ccedilla
ENCODING 231
SWIDTH 420 0
DWIDTH 7 0
BBX 7 12 0 -2
BITMAP
00
00
00
00
00
3C
40
40
40
3C
10
20
ENDCHAR

STARTCHAR egrave
ENCODING 232
SWIDTH 420 0
DWIDTH 7 0
BBX 7 12 0 -2
BITMAP
00
00
20
10
00
38
44
7C
40
3C
00
00
ENDCHAR

STARTCHAR eacute
ENCODING 233
SWIDTH 420 0
DWIDTH 7 0
BBX 7 12 0 -2
BITMAP
00
00
08
10
00
38
44
7C
40
3C
00
00
ENDCHAR

STARTCHAR ecircumflex
ENCODING 234
SWIDTH 420 0
DWIDTH 7 0
BBX 7 12 0 -2
BITMAP
00
00
10
28
00
38
44
7C
40
3C
00
00
ENDCHAR

STARTCHAR edieresis
ENCODING 235
SWIDTH 420 0
DWIDTH 7 0
BBX 7 12 0 -2
BITMAP
00
00
28
28
00
38
44
7C
40
3C
00
00
ENDCHAR

STARTCHAR igrave
ENCODING 236
SWIDTH 420 0
DWIDTH 7 0
BBX 7 12 0 -2
BITMAP
00
00
20
10
00
70
10
10
10
7C
00
00
ENDCHAR

STARTCHAR iacute
ENCODING 237
SWIDTH 420 0
DWIDTH 7 0
BBX 7 12 0 -2
BITMAP
00
00
08
10
00
70
10
10
10
7C
00
00
ENDCHAR

STARTCHAR icircumflex
ENCODING 238
SWIDTH 420 0
DWIDTH 7 0
BBX 7 12 0 -2
BITMAP
00
00
10
28
00
70
10
10
10
7C
00
00
ENDCHAR

STARTCHAR idieresis
ENCODING 239
SWIDTH 420 0
DWIDTH 7 0
BBX 7 12 0 -2
BITMAP
00
00
28
28
00
70
10
10
10
7C
00
00
ENDCHAR

STARTCHAR eth
ENCODING 240
SWIDTH 420 0
DWIDTH 7 0
BBX 7 12 0 -2
BITMAP
00
50
20
50
00
38
44
44
44
38
00
00
ENDCHAR

STARTCHAR ntilde
ENCODING 241
SWIDTH 420 0
DWIDTH 7 0
BBX 7 12 0 -2
BITMAP
00
00
14
28
00
78
44
44
44
44
00
00
ENDCHAR

STARTCHAR ograve
ENCODING 242
SWIDTH 420 0
DWIDTH 7 0
BBX 7 12 0 -2
BITMAP
00
00
20
10
00
38
44
44
44
38
00
00
ENDCHAR

STARTCHAR oacute
ENCODING 243
SWIDTH 420 0
DWIDTH 7 0
BBX 7 12 0 -2
BITMAP
00
00
08
10
00
38
44
44
44
38
00
00
ENDCHAR

STARTCHAR ocircumflex
ENCODING 244
SWIDTH 420 0
DWIDTH 7 0
BBX 7 12 0 -2
BITMAP
00
00
10
28
00
38
44
44
44
38
00
00
ENDCHAR

STARTCHAR otilde
ENCODING 245
SWIDTH 420 0
DWIDTH 7 0
BBX 7 12 0 -2
BITMAP
00
00
14
28
00
38
44
44
44
38
00
00
ENDCHAR

STARTCHAR odieresis
ENCODING 246
SWIDTH 420 0
DWIDTH 7 0
BBX 7 12 0 -2
BITMAP
00
00
28
28
00
38
44
44
44
38
00
00
ENDCHAR

STARTCHAR divide
ENCODING 247
SWIDTH 420 0
DWIDTH 7 0
BBX 7 12 0 -2
BITMAP
00
00
00
10
10
00
7C
00
10
10
00
00
ENDCHAR

STARTCHAR oslash
ENCODING 248
SWIDTH 420 0
DWIDTH 7 0
BBX 7 12 0 -2
BITMAP
00
00
00
00
00
3A
4C
54
64
B8
00
00
ENDCHAR

STARTCHAR ugrave
ENCODING 249
SWIDTH 420 0
DWIDTH 7 0
BBX 7 12 0 -2
BITMAP
00
00
20
10
00
44
44
44
44
3C
00
00
ENDCHAR

STARTCHAR uacute
ENCODING 250
SWIDTH 420 0
DWIDTH 7 0
BBX 7 12 0 -2
BITMAP
00
00
08
10
00
44
44
44
44
3C
00
00
ENDCHAR

STARTCHAR ucircumflex
ENCODING 251
SWIDTH 420 0
DWIDTH 7 0
BBX 7 12 0 -2
BITMAP
00
00
10
28
00
44
44
44
44
3C
00
00
ENDCHAR

STARTCHAR udieresis
ENCODING 252
SWIDTH 420 0
DWIDTH 7 0
BBX 7 12 0 -2
BITMAP
00
00
28
28
00
44
44
44
44
3C
00
00
ENDCHAR

STARTCHAR yacute
ENCODING 253
SWIDTH 420 0
DWIDTH 7 0
BBX 7 12 0 -2
BITMAP
00
00
08
10
00
44
44
44
44
3C
04
38
ENDCHAR

STARTCHAR thorn
ENCODING 254
SWIDTH 420 0
DWIDTH 7 0
BBX 7 12 0 -2
BITMAP
00
00
00
40
40
78
44
44
44
78
40
40
ENDCHAR

STARTCHAR ydieresis
ENCODING 255
SWIDTH 420 0
DWIDTH 7 0
BBX 7 12 0 -2
BITMAP
00
00
28
28
00
44
44
44
44
3C
04
38
ENDCHAR

STARTCHAR Amacron
ENCODING 256
SWIDTH 420 0
DWIDTH 7 0
BBX 7 12 0 -2
BITMAP
00
38
00
38
44
44
7C
44
44
44
00
00
ENDCHAR

STARTCHAR amacron
ENCODING 257
SWIDTH 420 0
DWIDTH 7 0
BBX 7 12 0 -2
BITMAP
00
00
00
38
00
38
04
3C
44
3C
00
00
ENDCHAR

STARTCHAR Abreve
ENCODING 258
SWIDTH 420 0
DWIDTH 7 0
BBX 7 12 0 -2
BITMAP
28
10
00
38
44
44
7C
44
44
44
00
00
ENDCHAR

STARTCHAR abreve
ENCODING 259
SWIDTH 420 0
DWIDTH 7 0
BBX 7 12 0 -2
BITMAP
00
00
28
10
00
38
04
3C
44
3C
00
00
ENDCHAR

STARTCHAR Aogonek
ENCODING 260
SWIDTH 420 0
DWIDTH 7 0
BBX 7 12 0 -2
BITMAP
00
00
00
38
44
44
7C
44
44
44
08
06
ENDCHAR

STARTCHAR aogonek
ENCODING 261
SWIDTH 420 0
DWIDTH 7 0
BBX 7 12 0 -2
BITMAP
00
00
00
00
00
38
04
3C
44
3C
08
06
ENDCHAR

STARTCHAR Cacute
ENCODING 262
SWIDTH 420 0
DWIDTH 7 0
BBX 7 12 0 -2
BITMAP
08
10
00
38
44
40
40
40
44
38
00
00
ENDCHAR

STARTCHAR cacute
ENCODING 263
SWIDTH 420 0
DWIDTH 7 0
BBX 7 12 0 -2
BITMAP
00
00
08
10
00
3C
40
40
40
3C
00
00
ENDCHAR

STARTCHAR Ccircumflex
ENCODING 264
SWIDTH 420 0
DWIDTH 7 0
BBX 7 12 0 -2
BITMAP
10
28
00
38
44
40
40
40
44
38
00
00
ENDCHAR

STARTCHAR ccircumflex
ENCODING 265
SWIDTH 420 0
DWIDTH 7 0
BBX 7 12 0 -2
BITMAP
00
00
10
28
00
3C
40
40
40
3C
00
00
ENDCHAR

STARTCHAR Cdot
ENCODING 266
SWIDTH 420 0
DWIDTH 7 0
BBX 7 12 0 -2
BITMAP
10
10
00
38
44
40
40
40
44
38
00
00
ENDCHAR

STARTCHAR cdot
ENCODING 267
SWIDTH 420 0
DWIDTH 7 0
BBX 7 12 0 -2
BITMAP
00
00
10
10
00
3C
40
40
40
3C
00
00
ENDCHAR

STARTCHAR Ccaron
ENCODING 268
SWIDTH 420 0
DWIDTH 7 0
BBX 7 12 0 -2
BITMAP
28
10
00
38
44
40
40
40
44
38
00
00
ENDCHAR

STARTCHAR ccaron
ENCODING 269
SWIDTH 420 0
DWIDTH 7 0
BBX 7 12 0 -2
BITMAP
00
00
28
10
00
3C
40
40
40
3C
00
00
ENDCHAR

STARTCHAR Dcaron
ENCODING 270
SWIDTH 420 0
DWIDTH 7 0
BBX 7 12 0 -2
BITMAP
28
10
00
78
44
44
44
44
44
78
00
00
ENDCHAR

STARTCHAR dcaron
ENCODING 271
SWIDTH 420 0
DWIDTH 7 0
BBX 7 12 0 -2
BITMAP
28
10
00
04
04
3C
44
44
44
3C
00
00
ENDCHAR

STARTCHAR Dcroat
ENCODING 272
SWIDTH 420 0
DWIDTH 7 0
BBX 7 12 0 -2
BITMAP
00
00
00
78
44
44
F4
44
44
78
00
00
ENDCHAR

STARTCHAR dcroat
ENCODING 273
SWIDTH 420 0
DWIDTH 7 0
BBX 7 12 0 -2
BITMAP
00
00
00
1E
04
3C
44
44
44
3C
00
00
ENDCHAR

STARTCHAR Emacron
ENCODING 274
SWIDTH 420 0
DWIDTH 7 0
BBX 7 12 0 -2
BITMAP
00
38
00
7C
40
40
78
40
40
7C
00
00
ENDCHAR

STARTCHAR emacron
ENCODING 275
SWIDTH 420 0
DWIDTH 7 0
BBX 7 12 0 -2
BITMAP
00
00
00
38
00
38
44
7C
40
3C
00
00
ENDCHAR

STARTCHAR Ebreve
ENCODING 276
SWIDTH 420 0
DWIDTH 7 0
BBX 7 12 0 -2
BITMAP
28
10
00
7C
40
40
78
40
40
7C
00
00
ENDCHAR

STARTCHAR ebreve
ENCODING 277
SWIDTH 420 0
DWIDTH 7 0
BBX 7 12 0 -2
BITMAP
00
00
28
10
00
38
44
7C
40
3C
00
00
ENDCHAR

STARTCHAR Edot
ENCODING 278
SWIDTH 420 0
DWIDTH 7 0
BBX 7 12 0 -2
BITMAP
10
10
00
7C
40
40
78
40
40
7C
00
00
ENDCHAR

STARTCHAR edot
ENCODING 279
SWIDTH 420 0
DWIDTH 7 0
BBX 7 12 0 -2
BITMAP
00
00
10
10
00
38
44
7C
40
3C
00
00
ENDCHAR

STARTCHAR Eogonek
ENCODING 280
SWIDTH 420 0
DWIDTH 7 0
BBX 7 12 0 -2
BITMAP
00
00
00
7C
40
40
78
40
40
7C
08
06
ENDCHAR

STARTCHAR eogonek
ENCODING 281
SWIDTH 420 0
DWIDTH 7 0
BBX 7 12 0 -2
BITMAP
00
00
00
00
00
38
44
7C
40
3C
08
06
ENDCHAR

STARTCHAR Ecaron
ENCODING 282
SWIDTH 420 0
DWIDTH 7 0
BBX 7 12 0 -2
BITMAP
28
10
00
7C
40
40
78
40
40
7C
00
00
ENDCHAR

STARTCHAR ecaron
ENCODING 283
SWIDTH 420 0
DWIDTH 7 0
BBX 7 12 0 -2
BITMAP
00
00
28
10
00
38
44
7C
40
3C
00
00
ENDCHAR

STARTCHAR Gcircumflex
ENCODING 284
SWIDTH 420 0
DWIDTH 7 0
BBX 7 12 0 -2
BITMAP
10
28
00
38
44
40
5C
44
44
38
00
00
ENDCHAR

STARTCHAR gcircumflex
ENCODING 285
SWIDTH 420 0
DWIDTH 7 0
BBX 7 12 0 -2
BITMAP
00
00
10
28
00
3C
44
44
44
3C
04
38
ENDCHAR

STARTCHAR Gbreve
ENCODING 286
SWIDTH 420 0
DWIDTH 7 0
BBX 7 12 0 -2
BITMAP
28
10
00
38
44
40
5C
44
44
38
00
00
ENDCHAR

STARTCHAR gbreve
ENCODING 287
SWIDTH 420 0
DWIDTH 7 0
BBX 7 12 0 -2
BITMAP
00
00
28
10
00
3C
44
44
44
3C
04
38
ENDCHAR

STARTCHAR Gdot
ENCODING 288
SWIDTH 420 0
DWIDTH 7 0
BBX 7 12 0 -2
BITMAP
10
10
00
38
44
40
5C
44
44
38
00
00
ENDCHAR

STARTCHAR gdot
ENCODING 289
SWIDTH 420 0
DWIDTH 7 0
BBX 7 12 0 -2
BITMAP
00
00
10
10
00
3C
44
44
44
3C
04
38
ENDCHAR

STARTCHAR Gcedilla
ENCODING 290
SWIDTH 420 0
DWIDTH 7 0
BBX 7 12 0 -2
BITMAP
00
00
00
38
44
40
5C
44
44
38
10
20
ENDCHAR

STARTCHAR gcedilla
ENCODING 291
SWIDTH 420 0
DWIDTH 7 0
BBX 7 12 0 -2
BITMAP
00
00
00
08
10
3C
44
44
44
3C
04
38
ENDCHAR

STARTCHAR Hcircumflex
ENCODING 292
SWIDTH 420 0
DWIDTH 7 0
BBX 7 12 0 -2
BITMAP
10
28
00
44
44
44
7C
44
44
44
00
00
ENDCHAR

STARTCHAR hcircumflex
ENCODING 293
SWIDTH 420 0
DWIDTH 7 0
BBX 7 12 0 -2
BITMAP
10
28
00
40
40
78
44
44
44
44
00
00
ENDCHAR

STARTCHAR Hbar
ENCODING 294
SWIDTH 420 0
DWIDTH 7 0
BBX 7 12 0 -2
BITMAP
00
00
00
44
FE
44
7C
44
44
44
00
00
ENDCHAR

STARTCHAR hbar
ENCODING 295
SWIDTH 420 0
DWIDTH 7 0
BBX 7 12 0 -2
BITMAP
00
00
00
F0
40
78
44
44
44
44
00
00
ENDCHAR

STARTCHAR Itilde
ENCODING 296
SWIDTH 420 0
DWIDTH 7 0
BBX 7 12 0 -2
BITMAP
14
28
00
7C
10
10
10
10
10
7C
00
00
ENDCHAR

STARTCHAR itilde
ENCODING 297
SWIDTH 420 0
DWIDTH 7 0
BBX 7 12 0 -2
BITMAP
00
00
14
28
00
70
10
10
10
7C
00
00
ENDCHAR

STARTCHAR Imacron
ENCODING 298
SWIDTH 420 0
DWIDTH 7 0
BBX 7 12 0 -2
BITMAP
00
38
00
7C
10
10
10
10
10
7C
00
00
ENDCHAR

STARTCHAR imacron
ENCODING 299
SWIDTH 420 0
DWIDTH 7 0
BBX 7 12 0 -2
BITMAP
00
00
00
38
00
70
10
10
10
7C
00
00
ENDCHAR

STARTCHAR Ibreve
ENCODING 300
SWIDTH 420 0
DWIDTH 7 0
BBX 7 12 0 -2
BITMAP
28
10
00
7C
10
10
10
10
10
7C
00
00
ENDCHAR

STARTCHAR ibreve
ENCODING 301
SWIDTH 420 0
DWIDTH 7 0
BBX 7 12 0 -2
BITMAP
00
00
28
10
00
70
10
10
10
7C
00
00
ENDCHAR

STARTCHAR Iogonek
ENCODING 302
SWIDTH 420 0
DWIDTH 7 0
BBX 7 12 0 -2
BITMAP
00
00
00
7C
10
10
10
10
10
7C
08
06
ENDCHAR

STARTCHAR iogonek
ENCODING 303
SWIDTH 420 0
DWIDTH 7 0
BBX 7 12 0 -2
BITMAP
00
00
10
10
00
70
10
10
10
7C
08
06
ENDCHAR

STARTCHAR Idot
ENCODING 304
SWIDTH 420 0
DWIDTH 7 0
BBX 7 12 0 -2
BITMAP
10
10
00
7C
10
10
10
10
10
7C
00
00
ENDCHAR

STARTCHAR dotlessi
ENCODING 305
SWIDTH 420 0
DWIDTH 7 0
BBX 7 12 0 -2
BITMAP
00
00
00
00
00
70
10
10
10
7C
00
00
ENDCHAR

STARTCHAR IJ
ENCODING 306
SWIDTH 420 0
DWIDTH 7 0
BBX 7 12 0 -2
BITMAP
00
00
00
74
24
24
24
24
34
78
00
00
ENDCHAR

STARTCHAR ij
ENCODING 307
SWIDTH 420 0
DWIDTH 7 0
BBX 7 12 0 -2
BITMAP
00
00
24
24
00
6C
24
24
24
74
14
08
ENDCHAR

STARTCHAR Jcircumflex
ENCODING 308
SWIDTH 420 0
DWIDTH 7 0
BBX 7 12 0 -2
BITMAP
08
14
00
04
04
04
04
44
44
38
00
00
ENDCHAR

STARTCHAR jcircumflex
ENCODING 309
SWIDTH 420 0
DWIDTH 7 0
BBX 7 12 0 -2
BITMAP
00
00
08
14
00
0C
04
04
04
44
44
38
ENDCHAR

STARTCHAR Kcommaaccent
ENCODING 310
SWIDTH 420 0
DWIDTH 7 0
BBX 7 12 0 -2
BITMAP
00
00
00
44
48
50
60
50
48
64
20
40
ENDCHAR

STARTCHAR kcommaaccent
ENCODING 311
SWIDTH 420 0
DWIDTH 7 0
BBX 7 12 0 -2
BITMAP
00
00
00
40
40
48
50
70
48
64
20
40
ENDCHAR

STARTCHAR kgreenlandic
ENCODING 312
SWIDTH 420 0
DWIDTH 7 0
BBX 7 12 0 -2
BITMAP
00
00
00
00
00
48
50
60
50
48
00
00
ENDCHAR

STARTCHAR Lacute
ENCODING 313
SWIDTH 420 0
DWIDTH 7 0
BBX 7 12 0 -2
BITMAP
10
20
00
40
40
40
40
40
40
7C
00
00
ENDCHAR

STARTCHAR lacute
ENCODING 314
SWIDTH 420 0
DWIDTH 7 0
BBX 7 12 0 -2
BITMAP
08
10
00
70
10
10
10
10
10
7C
00
00
ENDCHAR

STARTCHAR Lcedilla
ENCODING 315
SWIDTH 420 0
DWIDTH 7 0
BBX 7 12 0 -2
BITMAP
00
00
00
40
40
40
40
40
40
7C
10
20
ENDCHAR

STARTCHAR lcedilla
ENCODING 316
SWIDTH 420 0
DWIDTH 7 0
BBX 7 12 0 -2
BITMAP
00
00
00
70
10
10
10
10
10
7C
10
20
ENDCHAR

STARTCHAR Lcaron
ENCODING 317
SWIDTH 420 0
DWIDTH 7 0
BBX 7 12 0 -2
BITMAP
50
20
00
40
40
40
40
40
40
7C
00
00
ENDCHAR

STARTCHAR lcaron
ENCODING 318
SWIDTH 420 0
DWIDTH 7 0
BBX 7 12 0 -2
BITMAP
28
10
00
70
10
10
10
10
10
7C
00
00
ENDCHAR

STARTCHAR Ldot
ENCODING 319
SWIDTH 420 0
DWIDTH 7 0
BBX 7 12 0 -2
BITMAP
00
00
00
40
40
50
50
40
40
7C
00
00
ENDCHAR

STARTCHAR ldot
ENCODING 320
SWIDTH 420 0
DWIDTH 7 0
BBX 7 12 0 -2
BITMAP
00
00
00
70
10
14
14
10
10
7C
00
00
ENDCHAR

STARTCHAR Lslash
ENCODING 321
SWIDTH 420 0
DWIDTH 7 0
BBX 7 12 0 -2
BITMAP
00
00
00
40
40
60
C0
40
40
7C
00
00
ENDCHAR

STARTCHAR lslash
ENCODING 322
SWIDTH 420 0
DWIDTH 7 0
BBX 7 12 0 -2
BITMAP
00
00
00
70
10
18
30
10
10
7C
00
00
ENDCHAR

STARTCHAR Nacute
ENCODING 323
SWIDTH 420 0
DWIDTH 7 0
BBX 7 12 0 -2
BITMAP
08
10
00
44
64
54
4C
44
44
44
00
00
ENDCHAR

STARTCHAR nacute
ENCODING 324
SWIDTH 420 0
DWIDTH 7 0
BBX 7 12 0 -2
BITMAP
00
00
08
10
00
78
44
44
44
44
00
00
ENDCHAR

STARTCHAR Ncedilla
ENCODING 325
SWIDTH 420 0
DWIDTH 7 0
BBX 7 12 0 -2
BITMAP
00
00
00
44
64
54
4C
44
44
64
20
40
ENDCHAR

STARTCHAR ncedilla
ENCODING 326
SWIDTH 420 0
DWIDTH 7 0
BBX 7 12 0 -2
BITMAP
00
00
00
00
00
78
44
44
44
64
20
40
ENDCHAR

STARTCHAR Ncaron
ENCODING 327
SWIDTH 420 0
DWIDTH 7 0
BBX 7 12 0 -2
BITMAP
28
10
00
44
64
54
4C
44
44
44
00
00
ENDCHAR

STARTCHAR ncaron
ENCODING 328
SWIDTH 420 0
DWIDTH 7 0
BBX 7 12 0 -2
BITMAP
00
00
28
10
00
78
44
44
44
44
00
00
ENDCHAR

STARTCHAR napostrophe
ENCODING 329
SWIDTH 420 0
DWIDTH 7 0
BBX 7 12 0 -2
BITMAP
00
00
20
40
00
78
44
44
44
44
00
00
ENDCHAR

STARTCHAR Eng
ENCODING 330
SWIDTH 420 0
DWIDTH 7 0
BBX 7 12 0 -2
BITMAP
00
00
00
44
64
54
4C
44
44
44
04
18
ENDCHAR

STARTCHAR eng
ENCODING 331
SWIDTH 420 0
DWIDTH 7 0
BBX 7 12 0 -2
BITMAP
00
00
00
00
00
78
44
44
44
44
04
18
ENDCHAR

STARTCHAR Omacron
ENCODING 332
SWIDTH 420 0
DWIDTH 7 0
BBX 7 12 0 -2
BITMAP
00
38
00
38
44
44
44
44
44
38
00
00
ENDCHAR

STARTCHAR omacron
ENCODING 333
SWIDTH 420 0
DWIDTH 7 0
BBX 7 12 0 -2
BITMAP
00
00
00
38
00
38
44
44
44
38
00
00
ENDCHAR

STARTCHAR Obreve
ENCODING 334
SWIDTH 420 0
DWIDTH 7 0
BBX 7 12 0 -2
BITMAP
28
10
00
38
44
44
44
44
44
38
00
00
ENDCHAR

STARTCHAR obreve
ENCODING 335
SWIDTH 420 0
DWIDTH 7 0
BBX 7 12 0 -2
BITMAP
00
00
28
10
00
38
44
44
44
38
00
00
ENDCHAR

STARTCHAR Odblacute
ENCODING 336
SWIDTH 420 0
DWIDTH 7 0
BBX 7 12 0 -2
BITMAP
14
28
00
38
44
44
44
44
44
38
00
00
ENDCHAR

STARTCHAR odblacute
ENCODING 337
SWIDTH 420 0
DWIDTH 7 0
BBX 7 12 0 -2
BITMAP
00
00
14
28
00
38
44
44
44
38
00
00
ENDCHAR

STARTCHAR OE
ENCODING 338
SWIDTH 420 0
DWIDTH 7 0
BBX 7 12 0 -2
BITMAP
00
00
00
3C
50
50
58
50
50
3C
00
00
ENDCHAR

STARTCHAR oe
ENCODING 339
SWIDTH 420 0
DWIDTH 7 0
BBX 7 12 0 -2
BITMAP
00
00
00
00
00
38
54
5C
50
3C
00
00
ENDCHAR

STARTCHAR Racute
ENCODING 340
SWIDTH 420 0
DWIDTH 7 0
BBX 7 12 0 -2
BITMAP
08
10
00
78
44
44
78
50
48
44
00
00
ENDCHAR

STARTCHAR racute
ENCODING 341
SWIDTH 420 0
DWIDTH 7 0
BBX 7 12 0 -2
BITMAP
00
00
08
10
00
5C
60
40
40
40
00
00
ENDCHAR

STARTCHAR Rcedilla
ENCODING 342
SWIDTH 420 0
DWIDTH 7 0
BBX 7 12 0 -2
BITMAP
00
00
00
78
44
44
78
50
48
64
20
40
ENDCHAR

STARTCHAR rcedilla
ENCODING 343
SWIDTH 420 0
DWIDTH 7 0
BBX 7 12 0 -2
BITMAP
00
00
00
00
00
5C
60
40
40
60
20
40
ENDCHAR

STARTCHAR Rcaron
ENCODING 344
SWIDTH 420 0
DWIDTH 7 0
BBX 7 12 0 -2
BITMAP
28
10
00
78
44
44
78
50
48
44
00
00
ENDCHAR

STARTCHAR rcaron
ENCODING 345
SWIDTH 420 0
DWIDTH 7 0
BBX 7 12 0 -2
BITMAP
00
00
28
10
00
5C
60
40
40
40
00
00
ENDCHAR

STARTCHAR Sacute
ENCODING 346
SWIDTH 420 0
DWIDTH 7 0
BBX 7 12 0 -2
BITMAP
08
10
00
38
44
40
38
04
44
38
00
00
ENDCHAR

STARTCHAR sacute
ENCODING 347
SWIDTH 420 0
DWIDTH 7 0
BBX 7 12 0 -2
BITMAP
00
00
08
10
00
3C
40
38
04
78
00
00
ENDCHAR

STARTCHAR Scircumflex
ENCODING 348
SWIDTH 420 0
DWIDTH 7 0
BBX 7 12 0 -2
BITMAP
10
28
00
38
44
40
38
04
44
38
00
00
ENDCHAR

STARTCHAR scircumflex
ENCODING 349
SWIDTH 420 0
DWIDTH 7 0
BBX 7 12 0 -2
BITMAP
00
00
10
28
00
3C
40
38
04
78
00
00
ENDCHAR

STARTCHAR Scedilla
ENCODING 350
SWIDTH 420 0
DWIDTH 7 0
BBX 7 12 0 -2
BITMAP
00
00
00
38
44
40
38
04
44
38
10
20
ENDCHAR

STARTCHAR scedilla
ENCODING 351
SWIDTH 420 0
DWIDTH 7 0
BBX 7 12 0 -2
BITMAP
00
00
00
00
00
3C
40
38
04
78
10
20
ENDCHAR

STARTCHAR Scaron
ENCODING 352
SWIDTH 420 0
DWIDTH 7 0
BBX 7 12 0 -2
BITMAP
28
10
00
38
44
40
38
04
44
38
00
00
ENDCHAR

STARTCHAR scaron
ENCODING 353
SWIDTH 420 0
DWIDTH 7 0
BBX 7 12 0 -2
BITMAP
00
00
28
10
00
3C
40
38
04
78
00
00
ENDCHAR

STARTCHAR Tcedilla
ENCODING 354
SWIDTH 420 0
DWIDTH 7 0
BBX 7 12 0 -2
BITMAP
00
00
00
7C
10
10
10
10
10
18
08
10
ENDCHAR

STARTCHAR tcedilla
ENCODING 355
SWIDTH 420 0
DWIDTH 7 0
BBX 7 12 0 -2
BITMAP
00
00
00
20
20
78
20
20
20
1C
10
20
ENDCHAR

STARTCHAR Tcaron
ENCODING 356
SWIDTH 420 0
DWIDTH 7 0
BBX 7 12 0 -2
BITMAP
28
10
00
7C
10
10
10
10
10
10
00
00
ENDCHAR

STARTCHAR tcaron
ENCODING 357
SWIDTH 420 0
DWIDTH 7 0
BBX 7 12 0 -2
BITMAP
50
20
00
20
20
78
20
20
20
1C
00
00
ENDCHAR

STARTCHAR Tbar
ENCODING 358
SWIDTH 420 0
DWIDTH 7 0
BBX 7 12 0 -2
BITMAP
00
00
00
7C
10
38
10
10
10
10
00
00
ENDCHAR

STARTCHAR tbar
ENCODING 359
SWIDTH 420 0
DWIDTH 7 0
BBX 7 12 0 -2
BITMAP
00
00
00
20
20
78
20
70
20
1C
00
00
ENDCHAR

STARTCHAR Utilde
ENCODING 360
SWIDTH 420 0
DWIDTH 7 0
BBX 7 12 0 -2
BITMAP
14
28
00
44
44
44
44
44
44
38
00
00
ENDCHAR

STARTCHAR utilde
ENCODING 361
SWIDTH 420 0
DWIDTH 7 0
BBX 7 12 0 -2
BITMAP
00
00
14
28
00
44
44
44
44
3C
00
00
ENDCHAR

STARTCHAR Umacron
ENCODING 362
SWIDTH 420 0
DWIDTH 7 0
BBX 7 12 0 -2
BITMAP
00
38
00
44
44
44
44
44
44
38
00
00
ENDCHAR

STARTCHAR umacron
ENCODING 363
SWIDTH 420 0
DWIDTH 7 0
BBX 7 12 0 -2
BITMAP
00
00
00
38
00
44
44
44
44
3C
00
00
ENDCHAR

STARTCHAR Ubreve
ENCODING 364
SWIDTH 420 0
DWIDTH 7 0
BBX 7 12 0 -2
BITMAP
28
10
00
44
44
44
44
44
44
38
00
00
ENDCHAR

STARTCHAR ubreve
ENCODING 365
SWIDTH 420 0
DWIDTH 7 0
BBX 7 12 0 -2
BITMAP
00
00
28
10
00
44
44
44
44
3C
00
00
ENDCHAR

STARTCHAR Uring
ENCODING 366
SWIDTH 420 0
DWIDTH 7 0
BBX 7 12 0 -2
BITMAP
10
28
10
44
44
44
44
44
44
38
00
00
ENDCHAR

STARTCHAR uring
ENCODING 367
SWIDTH 420 0
DWIDTH 7 0
BBX 7 12 0 -2
BITMAP
00
10
28
10
00
44
44
44
44
3C
00
00
ENDCHAR

STARTCHAR Udblacute
ENCODING 368
SWIDTH 420 0
DWIDTH 7 0
BBX 7 12 0 -2
BITMAP
14
28
00
44
44
44
44
44
44
38
00
00
ENDCHAR

STARTCHAR udblacute
ENCODING 369
SWIDTH 420 0
DWIDTH 7 0
BBX 7 12 0 -2
BITMAP
00
00
14
28
00
44
44
44
44
3C
00
00
ENDCHAR

STARTCHAR Uogonek
ENCODING 370
SWIDTH 420 0
DWIDTH 7 0
BBX 7 12 0 -2
BITMAP
00
00
00
44
44
44
44
44
44
38
10
0C
ENDCHAR

STARTCHAR uogonek
ENCODING 371
SWIDTH 420 0
DWIDTH 7 0
BBX 7 12 0 -2
BITMAP
00
00
00
00
00
44
44
44
44
3C
08
06
ENDCHAR

STARTCHAR Wcircumflex
ENCODING 372
SWIDTH 420 0
DWIDTH 7 0
BBX 7 12 0 -2
BITMAP
10
28
00
44
44
44
54
54
6C
44
00
00
ENDCHAR

STARTCHAR wcircumflex
ENCODING 373
SWIDTH 420 0
DWIDTH 7 0
BBX 7 12 0 -2
BITMAP
00
00
10
28
00
44
54
54
54
38
00
00
ENDCHAR

STARTCHAR Ycircumflex
ENCODING 374
SWIDTH 420 0
DWIDTH 7 0
BBX 7 12 0 -2
BITMAP
10
28
00
44
44
28
38
10
10
10
00
00
ENDCHAR

STARTCHAR ycircumflex
ENCODING 375
SWIDTH 420 0
DWIDTH 7 0
BBX 7 12 0 -2
BITMAP
00
00
10
28
00
44
44
44
44
3C
04
38
ENDCHAR

STARTCHAR Ydieresis
ENCODING 376
SWIDTH 420 0
DWIDTH 7 0
BBX 7 12 0 -2
BITMAP
28
28
00
44
44
28
38
10
10
10
00
00
ENDCHAR

STARTCHAR Zacute
ENCODING 377
SWIDTH 420 0
DWIDTH 7 0
BBX 7 12 0 -2
BITMAP
08
10
00
7C
04
08
10
20
40
7C
00
00
ENDCHAR

STARTCHAR zacute
ENCODING 378
SWIDTH 420 0
DWIDTH 7 0
BBX 7 12 0 -2
BITMAP
00
00
08
10
00
7C
08
10
20
7C
00
00
ENDCHAR

STARTCHAR Zdotaccent
ENCODING 379
SWIDTH 420 0
DWIDTH 7 0
BBX 7 12 0 -2
BITMAP
10
10
00
7C
04
08
10
20
40
7C
00
00
ENDCHAR

STARTCHAR zdotaccent
ENCODING 380
SWIDTH 420 0
DWIDTH 7 0
BBX 7 12 0 -2
BITMAP
00
00
10
10
00
7C
08
10
20
7C
00
00
ENDCHAR

STARTCHAR Zcaron
ENCODING 381
SWIDTH 420 0
DWIDTH 7 0
BBX 7 12 0 -2
BITMAP
28
10
00
7C
04
08
10
20
40
7C
00
00
ENDCHAR

STARTCHAR zcaron
ENCODING 382
SWIDTH 420 0
DWIDTH 7 0
BBX 7 12 0 -2
BITMAP
00
00
28
10
00
7C
08
10
20
7C
00
00
ENDCHAR

STARTCHAR slong
ENCODING 383
SWIDTH 420 0
DWIDTH 7 0
BBX 7 12 0 -2
BITMAP
00
00
00
1C
20
60
20
20
20
20
00
00
ENDCHAR

STARTCHAR florin
ENCODING 402
SWIDTH 420 0
DWIDTH 7 0
BBX 7 12 0 -2
BITMAP
00
00
00
08
14
10
38
10
10
50
20
00
ENDCHAR

STARTCHAR circumflex
ENCODING 710
SWIDTH 420 0
DWIDTH 7 0
BBX 7 12 0 -2
BITMAP
10
28
00
00
00
00
00
00
00
00
00
00
ENDCHAR

STARTCHAR caron
ENCODING 711
SWIDTH 420 0
DWIDTH 7 0
BBX 7 12 0 -2
BITMAP
28
10
00
00
00
00
00
00
00
00
00
00
ENDCHAR

STARTCHAR breve
ENCODING 728
SWIDTH 420 0
DWIDTH 7 0
BBX 7 12 0 -2
BITMAP
28
10
00
00
00
00
00
00
00
00
00
00
ENDCHAR

STARTCHAR dotaccent
ENCODING 729
SWIDTH 420 0
DWIDTH 7 0
BBX 7 12 0 -2
BITMAP
10
10
00
00
00
00
00
00
00
00
00
00
ENDCHAR

STARTCHAR tilde
ENCODING 732
SWIDTH 420 0
DWIDTH 7 0
BBX 7 12 0 -2
BITMAP
14
28
00
00
00
00
00
00
00
00
00
00
ENDCHAR

STARTCHAR hungarumlaut
ENCODING 733
SWIDTH 420 0
DWIDTH 7 0
BBX 7 12 0 -2
BITMAP
14
28
00
00
00
00
00
00
00
00
00
00
ENDCHAR

STARTCHAR pi
ENCODING 960
SWIDTH 420 0
DWIDTH 7 0
BBX 7 12 0 -2
BITMAP
00
00
00
00
00
7C
28
28
28
28
00
00
ENDCHAR

STARTCHAR endash
ENCODING 8211
SWIDTH 420 0
DWIDTH 7 0
BBX 7 12 0 -2
BITMAP
00
00
00
00
00
00
7C
00
00
00
00
00
ENDCHAR

STARTCHAR emdash
ENCODING 8212
SWIDTH 420 0
DWIDTH 7 0
BBX 7 12 0 -2
BITMAP
00
00
00
00
00
00
7C
00
00
00
00
00
ENDCHAR

STARTCHAR quoteleft
ENCODING 8216
SWIDTH 420 0
DWIDTH 7 0
BBX 7 12 0 -2
BITMAP
00
00
08
10
10
00
00
00
00
00
00
00
ENDCHAR

STARTCHAR quoteright
ENCODING 8217
SWIDTH 420 0
DWIDTH 7 0
BBX 7 12 0 -2
BITMAP
00
00
10
10
20
00
00
00
00
00
00
00
ENDCHAR

STARTCHAR quotesinglbase
ENCODING 8218
SWIDTH 420 0
DWIDTH 7 0
BBX 7 12 0 -2
BITMAP
00
00
00
00
00
00
00
00
10
10
20
00
ENDCHAR

STARTCHAR quotedblleft
ENCODING 8220
SWIDTH 420 0
DWIDTH 7 0
BBX 7 12 0 -2
BITMAP
00
00
14
28
28
00
00
00
00
00
00
00
ENDCHAR

STARTCHAR quotedblright
ENCODING 8221
SWIDTH 420 0
DWIDTH 7 0
BBX 7 12 0 -2
BITMAP
00
00
28
28
50
00
00
00
00
00
00
00
ENDCHAR

STARTCHAR quotedblbase
ENCODING 8222
SWIDTH 420 0
DWIDTH 7 0
BBX 7 12 0 -2
BITMAP
00
00
00
00
00
00
00
00
28
28
50
00
ENDCHAR

STARTCHAR dagger
ENCODING 8224
SWIDTH 420 0
DWIDTH 7 0
BBX 7 12 0 -2
BITMAP
00
00
00
10
38
10
10
10
10
10
00
00
ENDCHAR

STARTCHAR daggerdbl
ENCODING 8225
SWIDTH 420 0
DWIDTH 7 0
BBX 7 12 0 -2
BITMAP
00
00
00
10
38
10
10
10
38
10
00
00
ENDCHAR

STARTCHAR bullet
ENCODING 8226
SWIDTH 420 0
DWIDTH 7 0
BBX 7 12 0 -2
BITMAP
00
00
00
00
00
30
78
78
30
00
00
00
ENDCHAR

STARTCHAR ellipsis
ENCODING 8230
SWIDTH 420 0
DWIDTH 7 0
BBX 7 12 0 -2
BITMAP
00
00
00
00
00
00
00
00
54
54
00
00
ENDCHAR

STARTCHAR perthousand
ENCODING 8240
SWIDTH 420 0
DWIDTH 7 0
BBX 7 12 0 -2
BITMAP
00
00
40
A8
50
20
40
A8
54
28
00
00
ENDCHAR

STARTCHAR guilsinglleft
ENCODING 8249
SWIDTH 420 0
DWIDTH 7 0
BBX 7 12 0 -2
BITMAP
00
00
00
04
08
10
20
10
08
04
00
00
ENDCHAR

STARTCHAR guilsinglright
ENCODING 8250
SWIDTH 420 0
DWIDTH 7 0
BBX 7 12 0 -2
BITMAP
00
00
00
40
20
10
08
10
20
40
00
00
ENDCHAR

STARTCHAR Euro
ENCODING 8364
SWIDTH 420 0
DWIDTH 7 0
BBX 7 12 0 -2
BITMAP
00
00
00
18
24
70
20
70
24
18
00
00
ENDCHAR

STARTCHAR trademark
ENCODING 8482
SWIDTH 420 0
DWIDTH 7 0
BBX 7 12 0 -2
BITMAP
00
00
00
00
F4
5C
54
54
00
00
00
00
ENDCHAR

STARTCHAR arrowleft
ENCODING 8592
SWIDTH 420 0
DWIDTH 7 0
BBX 7 12 0 -2
BITMAP
00
00
00
00
0C
3C
FC
FC
3C
0C
00
00
ENDCHAR

STARTCHAR arrowup
ENCODING 8593
SWIDTH 420 0
DWIDTH 7 0
BBX 7 12 0 -2
BITMAP
00
00
00
10
38
7C
10
10
10
10
00
00
ENDCHAR

STARTCHAR arrowright
ENCODING 8594
SWIDTH 420 0
DWIDTH 7 0
BBX 7 12 0 -2
BITMAP
00
00
00
00
C0
F0
FC
FC
F0
C0
00
00
ENDCHAR

STARTCHAR arrowdown
ENCODING 8595
SWIDTH 420 0
DWIDTH 7 0
BBX 7 12 0 -2
BITMAP
00
00
00
10
10
10
10
7C
38
10
00
00
ENDCHAR

STARTCHAR notequal
ENCODING 8800
SWIDTH 420 0
DWIDTH 7 0
BBX 7 12 0 -2
BITMAP
00
00
00
00
08
7C
10
7C
20
00
00
00
ENDCHAR

STARTCHAR lessequal
ENCODING 8804
SWIDTH 420 0
DWIDTH 7 0
BBX 7 12 0 -2
BITMAP
00
00
00
08
10
20
10
08
00
7C
00
00
ENDCHAR

STARTCHAR greaterequal
ENCODING 8805
SWIDTH 420 0
DWIDTH 7 0
BBX 7 12 0 -2
BITMAP
00
00
00
20
10
08
10
20
00
7C
00
00
ENDCHAR

STARTCHAR house
ENCODING 8962
SWIDTH 420 0
DWIDTH 7 0
BBX 7 12 0 -2
BITMAP
00
00
00
00
10
28
44
44
44
7C
00
00
ENDCHAR

STARTCHAR uni23BA
ENCODING 9146
SWIDTH 420 0
DWIDTH 7 0
BBX 7 12 0 -2
BITMAP
FE
00
00
00
00
00
00
00
00
00
00
00
ENDCHAR

STARTCHAR uni23BB
ENCODING 9147
SWIDTH 420 0
DWIDTH 7 0
BBX 7 12 0 -2
BITMAP
00
00
FE
00
00
00
00
00
00
00
00
00
ENDCHAR

STARTCHAR uni23BC
ENCODING 9148
SWIDTH 420 0
DWIDTH 7 0
BBX 7 12 0 -2
BITMAP
00
00
00
00
00
00
00
00
00
FE
00
00
ENDCHAR

STARTCHAR uni23BD
ENCODING 9149
SWIDTH 420 0
DWIDTH 7 0
BBX 7 12 0 -2
BITMAP
00
00
00
00
00
00
00
00
00
00
00
FE
ENDCHAR

STARTCHAR uni2409
ENCODING 9225
SWIDTH 420 0
DWIDTH 7 0
BBX 7 12 0 -2
BITMAP
90
90
F0
90
90
00
7C
10
10
10
10
00
ENDCHAR

STARTCHAR uni240A
ENCODING 9226
SWIDTH 420 0
DWIDTH 7 0
BBX 7 12 0 -2
BITMAP
80
80
80
80
F0
00
3C
20
38
20
20
00
ENDCHAR

STARTCHAR uni240B
ENCODING 9227
SWIDTH 420 0
DWIDTH 7 0
BBX 7 12 0 -2
BITMAP
88
88
88
50
20
00
7C
10
10
10
10
00
ENDCHAR

STARTCHAR uni240C
ENCODING 9228
SWIDTH 420 0
DWIDTH 7 0
BBX 7 12 0 -2
BITMAP
F0
80
E0
80
80
00
3C
20
38
20
20
00
ENDCHAR

STARTCHAR uni240D
ENCODING 9229
SWIDTH 420 0
DWIDTH 7 0
BBX 7 12 0 -2
BITMAP
70
80
80
80
70
00
38
24
38
28
24
00
ENDCHAR

STARTCHAR uni2424
ENCODING 9252
SWIDTH 420 0
DWIDTH 7 0
BBX 7 12 0 -2
BITMAP
90
D0
B0
90
90
00
20
20
20
20
3C
00
ENDCHAR

STARTCHAR SF100000
ENCODING 9472
SWIDTH 420 0
DWIDTH 7 0
BBX 7 12 0 -2
BITMAP
00
00
00
00
00
00
FE
00
00
00
00
00
ENDCHAR

STARTCHAR SF110000
ENCODING 9474
SWIDTH 420 0
DWIDTH 7 0
BBX 7 12 0 -2
BITMAP
10
10
10
10
10
10
10
10
10
10
10
10
ENDCHAR

STARTCHAR SF010000
ENCODING 9484
SWIDTH 420 0
DWIDTH 7 0
BBX 7 12 0 -2
BITMAP
00
00
00
00
00
00
1E
10
10
10
10
10
ENDCHAR

STARTCHAR SF030000
ENCODING 9488
SWIDTH 420 0
DWIDTH 7 0
BBX 7 12 0 -2
BITMAP
00
00
00
00
00
00
F0
10
10
10
10
10
ENDCHAR

STARTCHAR SF020000
ENCODING 9492
SWIDTH 420 0
DWIDTH 7 0
BBX 7 12 0 -2
BITMAP
10
10
10
10
10
10
1E
00
00
00
00
00
ENDCHAR

STARTCHAR SF040000
ENCODING 9496
SWIDTH 420 0
DWIDTH 7 0
BBX 7 12 0 -2
BITMAP
10
10
10
10
10
10
F0
00
00
00
00
00
ENDCHAR

STARTCHAR SF080000
ENCODING 9500
SWIDTH 420 0
DWIDTH 7 0
BBX 7 12 0 -2
BITMAP
10
10
10
10
10
10
1E
10
10
10
10
10
ENDCHAR

STARTCHAR SF090000
ENCODING 9508
SWIDTH 420 0
DWIDTH 7 0
BBX 7 12 0 -2
BITMAP
10
10
10
10
10
10
F0
10
10
10
10
10
ENDCHAR

STARTCHAR SF060000
ENCODING 9516
SWIDTH 420 0
DWIDTH 7 0
BBX 7 12 0 -2
BITMAP
00
00
00
00
00
00
FE
10
10
10
10
10
ENDCHAR

STARTCHAR SF070000
ENCODING 9524
SWIDTH 420 0
DWIDTH 7 0
BBX 7 12 0 -2
BITMAP
10
10
10
10
10
10
FE
00
00
00
00
00
ENDCHAR

STARTCHAR SF050000
ENCODING 9532
SWIDTH 420 0
DWIDTH 7 0
BBX 7 12 0 -2
BITMAP
10
10
10
10
10
10
FE
10
10
10
10
10
ENDCHAR

STARTCHAR SF540000
ENCODING 9578
SWIDTH 420 0
DWIDTH 7 0
BBX 7 12 0 -2
BITMAP
10
10
10
10
10
FE
10
FE
10
10
10
10
ENDCHAR

STARTCHAR SF440000
ENCODING 9580
SWIDTH 420 0
DWIDTH 7 0
BBX 7 12 0 -2
BITMAP
28
28
28
28
28
EE
00
EE
28
28
28
28
ENDCHAR

STARTCHAR block
ENCODING 9608
SWIDTH 420 0
DWIDTH 7 0
BBX 7 12 0 -2
BITMAP
FE
FE
FE
FE
FE
FE
FE
FE
FE
FE
FE
FE
ENDCHAR

STARTCHAR shadelight
ENCODING 9617
SWIDTH 420 0
DWIDTH 7 0
BBX 7 12 0 -2
BITMAP
28
92
28
92
28
92
28
92
28
92
28
92
ENDCHAR

STARTCHAR shademedium
ENCODING 9618
SWIDTH 420 0
DWIDTH 7 0
BBX 7 12 0 -2
BITMAP
54
AA
54
AA
54
AA
54
AA
54
AA
54
AA
ENDCHAR

STARTCHAR filledbox
ENCODING 9632
SWIDTH 420 0
DWIDTH 7 0
BBX 7 12 0 -2
BITMAP
00
00
00
00
7C
7C
7C
7C
7C
00
00
00
ENDCHAR

STARTCHAR blackdiamond
ENCODING 9670
SWIDTH 420 0
DWIDTH 7 0
BBX 7 12 0 -2
BITMAP
00
00
00
00
10
38
7C
38
10
00
00
00
ENDCHAR

STARTCHAR uniFFFD
ENCODING 65533
SWIDTH 420 0
DWIDTH 7 0
BBX 7 12 0 -2
BITMAP
00
00
00
54
00
44
00
44
00
54
00
00
ENDCHAR

ENDFONT
