STARTFONT 2.1
FONT -Misc-Termsynu-Medium-R-Normal--13-120-75-75-C-60-ISO10646-1
SIZE 12 75 75
FONTBOUNDINGBOX 6 13 0 -2

STARTPROPERTIES 24
FONTNAME_REGISTRY ""
FOUNDRY "Misc"
FAMILY_NAME "Termsynu"
WEIGHT_NAME "Medium"
SLANT "R"
SETWIDTH_NAME "Normal"
ADD_STYLE_NAME ""
PIXEL_SIZE 13
POINT_SIZE 120
RESOLUTION_X 75
RESOLUTION_Y 75
SPACING "C"
AVERAGE_WIDTH 60
CHARSET_REGISTRY "ISO10646"
CHARSET_ENCODING "1"
COPYRIGHT "GPLv2"
CAP_HEIGHT 8
X_HEIGHT 6
_GBDFED_INFO "Edited with gbdfed 1.6."
WEIGHT 10
QUAD_WIDTH 6
DEFAULT_CHAR 0
FONT_DESCENT 2
FONT_ASCENT 11
ENDPROPERTIES

CHARS 382

STARTCHAR char0
ENCODING 0
SWIDTH 443 0
DWIDTH 6 0
BBX 6 13 0 -2
BITMAP
00
00
00
F8
F8
F8
F8
F8
F8
F8
F8
00
00
ENDCHAR

STARTCHAR spacehackarabic
ENCODING 32
SWIDTH 443 0
DWIDTH 6 0
BBX 6 13 0 -2
BITMAP
00
00
00
00
00
00
00
00
00
00
00
00
00
ENDCHAR

STARTCHAR exclam
ENCODING 33
SWIDTH 443 0
DWIDTH 6 0
BBX 6 13 0 -2
BITMAP
00
00
00
20
20
20
20
20
00
20
20
00
00
ENDCHAR

STARTCHAR quotedbl
ENCODING 34
SWIDTH 443 0
DWIDTH 6 0
BBX 6 13 0 -2
BITMAP
00
00
50
50
50
00
00
00
00
00
00
00
00
ENDCHAR

STARTCHAR numbersign
ENCODING 35
SWIDTH 443 0
DWIDTH 6 0
BBX 6 13 0 -2
BITMAP
00
00
00
50
50
F8
50
50
F8
50
50
00
00
ENDCHAR

STARTCHAR dollar
ENCODING 36
SWIDTH 443 0
DWIDTH 6 0
BBX 6 13 0 -2
BITMAP
00
00
00
20
70
A8
A0
70
28
A8
70
20
00
ENDCHAR

STARTCHAR percent
ENCODING 37
SWIDTH 443 0
DWIDTH 6 0
BBX 6 13 0 -2
BITMAP
00
00
40
A0
A8
50
20
50
A8
28
10
00
00
ENDCHAR

STARTCHAR ampersand
ENCODING 38
SWIDTH 443 0
DWIDTH 6 0
BBX 6 13 0 -2
BITMAP
00
00
00
40
A0
A0
40
A8
90
90
68
00
00
ENDCHAR

STARTCHAR quotesingle
ENCODING 39
SWIDTH 443 0
DWIDTH 6 0
BBX 6 13 0 -2
BITMAP
00
00
20
20
20
00
00
00
00
00
00
00
00
ENDCHAR

STARTCHAR parenleft
ENCODING 40
SWIDTH 443 0
DWIDTH 6 0
BBX 6 13 0 -2
BITMAP
00
00
10
20
40
40
40
40
40
40
20
10
00
ENDCHAR

STARTCHAR parenright
ENCODING 41
SWIDTH 443 0
DWIDTH 6 0
BBX 6 13 0 -2
BITMAP
00
00
40
20
10
10
10
10
10
10
20
40
00
ENDCHAR

STARTCHAR asterisk
ENCODING 42
SWIDTH 443 0
DWIDTH 6 0
BBX 6 13 0 -2
BITMAP
00
00
00
00
00
50
20
F8
20
50
00
00
00
ENDCHAR

STARTCHAR plus
ENCODING 43
SWIDTH 443 0
DWIDTH 6 0
BBX 6 13 0 -2
BITMAP
00
00
00
00
00
20
20
F8
20
20
00
00
00
ENDCHAR

STARTCHAR comma
ENCODING 44
SWIDTH 443 0
DWIDTH 6 0
BBX 6 13 0 -2
BITMAP
00
00
00
00
00
00
00
00
00
20
20
40
00
ENDCHAR

STARTCHAR hyphen
ENCODING 45
SWIDTH 443 0
DWIDTH 6 0
BBX 6 13 0 -2
BITMAP
00
00
00
00
00
00
00
F8
00
00
00
00
00
ENDCHAR

STARTCHAR period
ENCODING 46
SWIDTH 443 0
DWIDTH 6 0
BBX 6 13 0 -2
BITMAP
00
00
00
00
00
00
00
00
00
20
20
00
00
ENDCHAR

STARTCHAR slash
ENCODING 47
SWIDTH 443 0
DWIDTH 6 0
BBX 6 13 0 -2
BITMAP
00
00
08
08
10
10
20
20
40
40
80
80
00
ENDCHAR

STARTCHAR zero
ENCODING 48
SWIDTH 443 0
DWIDTH 6 0
BBX 6 13 0 -2
BITMAP
00
00
00
70
88
98
A8
C8
88
88
70
00
00
ENDCHAR

STARTCHAR one
ENCODING 49
SWIDTH 443 0
DWIDTH 6 0
BBX 6 13 0 -2
BITMAP
00
00
00
20
60
20
20
20
20
20
70
00
00
ENDCHAR

STARTCHAR two
ENCODING 50
SWIDTH 443 0
DWIDTH 6 0
BBX 6 13 0 -2
BITMAP
00
00
00
70
88
08
10
20
40
80
F8
00
00
ENDCHAR

STARTCHAR three
ENCODING 51
SWIDTH 443 0
DWIDTH 6 0
BBX 6 13 0 -2
BITMAP
00
00
00
70
88
08
30
08
08
88
70
00
00
ENDCHAR

STARTCHAR four
ENCODING 52
SWIDTH 443 0
DWIDTH 6 0
BBX 6 13 0 -2
BITMAP
00
00
00
10
30
50
90
F8
10
10
10
00
00
ENDCHAR

STARTCHAR five
ENCODING 53
SWIDTH 443 0
DWIDTH 6 0
BBX 6 13 0 -2
BITMAP
00
00
00
F8
80
80
F0
08
08
88
70
00
00
ENDCHAR

STARTCHAR six
ENCODING 54
SWIDTH 443 0
DWIDTH 6 0
BBX 6 13 0 -2
BITMAP
00
00
00
30
40
80
F0
88
88
88
70
00
00
ENDCHAR

STARTCHAR seven
ENCODING 55
SWIDTH 443 0
DWIDTH 6 0
BBX 6 13 0 -2
BITMAP
00
00
00
F8
08
08
10
10
20
20
20
00
00
ENDCHAR

STARTCHAR eight
ENCODING 56
SWIDTH 443 0
DWIDTH 6 0
BBX 6 13 0 -2
BITMAP
00
00
00
70
88
88
70
88
88
88
70
00
00
ENDCHAR

STARTCHAR nine
ENCODING 57
SWIDTH 443 0
DWIDTH 6 0
BBX 6 13 0 -2
BITMAP
00
00
00
70
88
88
88
78
08
10
60
00
00
ENDCHAR

STARTCHAR colon
ENCODING 58
SWIDTH 443 0
DWIDTH 6 0
BBX 6 13 0 -2
BITMAP
00
00
00
00
00
20
20
00
00
20
20
00
00
ENDCHAR

STARTCHAR semicolon
ENCODING 59
SWIDTH 443 0
DWIDTH 6 0
BBX 6 13 0 -2
BITMAP
00
00
00
00
00
20
20
00
00
20
20
40
00
ENDCHAR

STARTCHAR less
ENCODING 60
SWIDTH 443 0
DWIDTH 6 0
BBX 6 13 0 -2
BITMAP
00
00
00
00
10
20
40
80
40
20
10
00
00
ENDCHAR

STARTCHAR equal
ENCODING 61
SWIDTH 443 0
DWIDTH 6 0
BBX 6 13 0 -2
BITMAP
00
00
00
00
00
00
F8
00
F8
00
00
00
00
ENDCHAR

STARTCHAR greater
ENCODING 62
SWIDTH 443 0
DWIDTH 6 0
BBX 6 13 0 -2
BITMAP
00
00
00
00
40
20
10
08
10
20
40
00
00
ENDCHAR

STARTCHAR question
ENCODING 63
SWIDTH 443 0
DWIDTH 6 0
BBX 6 13 0 -2
BITMAP
00
00
00
70
88
08
10
20
00
20
20
00
00
ENDCHAR

STARTCHAR at
ENCODING 64
SWIDTH 443 0
DWIDTH 6 0
BBX 6 13 0 -2
BITMAP
00
00
00
70
88
98
A8
A8
A8
98
80
78
00
ENDCHAR

STARTCHAR A
ENCODING 65
SWIDTH 443 0
DWIDTH 6 0
BBX 6 13 0 -2
BITMAP
00
00
00
70
88
88
88
F8
88
88
88
00
00
ENDCHAR

STARTCHAR B
ENCODING 66
SWIDTH 443 0
DWIDTH 6 0
BBX 6 13 0 -2
BITMAP
00
00
00
F0
88
88
F0
88
88
88
F0
00
00
ENDCHAR

STARTCHAR C
ENCODING 67
SWIDTH 443 0
DWIDTH 6 0
BBX 6 13 0 -2
BITMAP
00
00
00
70
88
80
80
80
80
88
70
00
00
ENDCHAR

STARTCHAR D
ENCODING 68
SWIDTH 443 0
DWIDTH 6 0
BBX 6 13 0 -2
BITMAP
00
00
00
E0
90
88
88
88
88
90
E0
00
00
ENDCHAR

STARTCHAR E
ENCODING 69
SWIDTH 443 0
DWIDTH 6 0
BBX 6 13 0 -2
BITMAP
00
00
00
F8
80
80
F0
80
80
80
F8
00
00
ENDCHAR

STARTCHAR F
ENCODING 70
SWIDTH 443 0
DWIDTH 6 0
BBX 6 13 0 -2
BITMAP
00
00
00
F8
80
80
F0
80
80
80
80
00
00
ENDCHAR

STARTCHAR G
ENCODING 71
SWIDTH 443 0
DWIDTH 6 0
BBX 6 13 0 -2
BITMAP
00
00
00
70
88
80
B8
88
88
88
70
00
00
ENDCHAR

STARTCHAR H
ENCODING 72
SWIDTH 443 0
DWIDTH 6 0
BBX 6 13 0 -2
BITMAP
00
00
00
88
88
88
F8
88
88
88
88
00
00
ENDCHAR

STARTCHAR I
ENCODING 73
SWIDTH 443 0
DWIDTH 6 0
BBX 6 13 0 -2
BITMAP
00
00
00
70
20
20
20
20
20
20
70
00
00
ENDCHAR

STARTCHAR J
ENCODING 74
SWIDTH 443 0
DWIDTH 6 0
BBX 6 13 0 -2
BITMAP
00
00
00
08
08
08
08
08
88
88
70
00
00
ENDCHAR

STARTCHAR K
ENCODING 75
SWIDTH 443 0
DWIDTH 6 0
BBX 6 13 0 -2
BITMAP
00
00
00
88
90
A0
C0
C0
A0
90
88
00
00
ENDCHAR

STARTCHAR L
ENCODING 76
SWIDTH 443 0
DWIDTH 6 0
BBX 6 13 0 -2
BITMAP
00
00
00
80
80
80
80
80
80
80
F8
00
00
ENDCHAR

STARTCHAR M
ENCODING 77
SWIDTH 443 0
DWIDTH 6 0
BBX 6 13 0 -2
BITMAP
00
00
00
88
D8
A8
A8
88
88
88
88
00
00
ENDCHAR

STARTCHAR N
ENCODING 78
SWIDTH 443 0
DWIDTH 6 0
BBX 6 13 0 -2
BITMAP
00
00
00
88
C8
A8
98
88
88
88
88
00
00
ENDCHAR

STARTCHAR O
ENCODING 79
SWIDTH 443 0
DWIDTH 6 0
BBX 6 13 0 -2
BITMAP
00
00
00
70
88
88
88
88
88
88
70
00
00
ENDCHAR

STARTCHAR P
ENCODING 80
SWIDTH 443 0
DWIDTH 6 0
BBX 6 13 0 -2
BITMAP
00
00
00
F0
88
88
88
F0
80
80
80
00
00
ENDCHAR

STARTCHAR Q
ENCODING 81
SWIDTH 443 0
DWIDTH 6 0
BBX 6 13 0 -2
BITMAP
00
00
00
70
88
88
88
88
88
A8
70
08
00
ENDCHAR

STARTCHAR R
ENCODING 82
SWIDTH 443 0
DWIDTH 6 0
BBX 6 13 0 -2
BITMAP
00
00
00
F0
88
88
88
F0
A0
90
88
00
00
ENDCHAR

STARTCHAR S
ENCODING 83
SWIDTH 443 0
DWIDTH 6 0
BBX 6 13 0 -2
BITMAP
00
00
00
70
88
80
70
08
08
88
70
00
00
ENDCHAR

STARTCHAR T
ENCODING 84
SWIDTH 443 0
DWIDTH 6 0
BBX 6 13 0 -2
BITMAP
00
00
00
F8
20
20
20
20
20
20
20
00
00
ENDCHAR

STARTCHAR U
ENCODING 85
SWIDTH 443 0
DWIDTH 6 0
BBX 6 13 0 -2
BITMAP
00
00
00
88
88
88
88
88
88
88
70
00
00
ENDCHAR

STARTCHAR V
ENCODING 86
SWIDTH 443 0
DWIDTH 6 0
BBX 6 13 0 -2
BITMAP
00
00
00
88
88
88
50
50
50
20
20
00
00
ENDCHAR

STARTCHAR W
ENCODING 87
SWIDTH 443 0
DWIDTH 6 0
BBX 6 13 0 -2
BITMAP
00
00
00
88
88
88
A8
A8
A8
D8
88
00
00
ENDCHAR

STARTCHAR X
ENCODING 88
SWIDTH 443 0
DWIDTH 6 0
BBX 6 13 0 -2
BITMAP
00
00
00
88
88
50
20
20
50
88
88
00
00
ENDCHAR

STARTCHAR Y
ENCODING 89
SWIDTH 443 0
DWIDTH 6 0
BBX 6 13 0 -2
BITMAP
00
00
00
88
88
50
50
20
20
20
20
00
00
ENDCHAR

STARTCHAR Z
ENCODING 90
SWIDTH 443 0
DWIDTH 6 0
BBX 6 13 0 -2
BITMAP
00
00
00
F8
08
10
20
40
80
80
F8
00
00
ENDCHAR

STARTCHAR bracketleft
ENCODING 91
SWIDTH 443 0
DWIDTH 6 0
BBX 6 13 0 -2
BITMAP
00
00
70
40
40
40
40
40
40
40
40
70
00
ENDCHAR

STARTCHAR backslash
ENCODING 92
SWIDTH 443 0
DWIDTH 6 0
BBX 6 13 0 -2
BITMAP
00
00
80
80
40
40
20
20
10
10
08
08
00
ENDCHAR

STARTCHAR bracketright
ENCODING 93
SWIDTH 443 0
DWIDTH 6 0
BBX 6 13 0 -2
BITMAP
00
00
70
10
10
10
10
10
10
10
10
70
00
ENDCHAR

STARTCHAR asciicircum
ENCODING 94
SWIDTH 443 0
DWIDTH 6 0
BBX 6 13 0 -2
BITMAP
00
00
20
50
88
00
00
00
00
00
00
00
00
ENDCHAR

STARTCHAR underscore
ENCODING 95
SWIDTH 443 0
DWIDTH 6 0
BBX 6 13 0 -2
BITMAP
00
00
00
00
00
00
00
00
00
00
00
F8
00
ENDCHAR

STARTCHAR grave
ENCODING 96
SWIDTH 443 0
DWIDTH 6 0
BBX 6 13 0 -2
BITMAP
00
00
40
20
10
00
00
00
00
00
00
00
00
ENDCHAR

STARTCHAR a
ENCODING 97
SWIDTH 443 0
DWIDTH 6 0
BBX 6 13 0 -2
BITMAP
00
00
00
00
00
70
08
78
88
88
78
00
00
ENDCHAR

STARTCHAR b
ENCODING 98
SWIDTH 443 0
DWIDTH 6 0
BBX 6 13 0 -2
BITMAP
00
00
00
80
80
F0
88
88
88
88
F0
00
00
ENDCHAR

STARTCHAR c
ENCODING 99
SWIDTH 443 0
DWIDTH 6 0
BBX 6 13 0 -2
BITMAP
00
00
00
00
00
70
88
80
80
88
70
00
00
ENDCHAR

STARTCHAR d
ENCODING 100
SWIDTH 443 0
DWIDTH 6 0
BBX 6 13 0 -2
BITMAP
00
00
00
08
08
78
88
88
88
88
78
00
00
ENDCHAR

STARTCHAR e
ENCODING 101
SWIDTH 443 0
DWIDTH 6 0
BBX 6 13 0 -2
BITMAP
00
00
00
00
00
70
88
F8
80
80
78
00
00
ENDCHAR

STARTCHAR f
ENCODING 102
SWIDTH 443 0
DWIDTH 6 0
BBX 6 13 0 -2
BITMAP
00
00
00
38
40
F0
40
40
40
40
40
00
00
ENDCHAR

STARTCHAR g
ENCODING 103
SWIDTH 443 0
DWIDTH 6 0
BBX 6 13 0 -2
BITMAP
00
00
00
00
00
78
88
88
88
88
78
08
70
ENDCHAR

STARTCHAR h
ENCODING 104
SWIDTH 443 0
DWIDTH 6 0
BBX 6 13 0 -2
BITMAP
00
00
00
80
80
F0
88
88
88
88
88
00
00
ENDCHAR

STARTCHAR i
ENCODING 105
SWIDTH 443 0
DWIDTH 6 0
BBX 6 13 0 -2
BITMAP
00
00
20
20
00
60
20
20
20
20
70
00
00
ENDCHAR

STARTCHAR j
ENCODING 106
SWIDTH 443 0
DWIDTH 6 0
BBX 6 13 0 -2
BITMAP
00
00
10
10
00
30
10
10
10
10
90
90
60
ENDCHAR

STARTCHAR k
ENCODING 107
SWIDTH 443 0
DWIDTH 6 0
BBX 6 13 0 -2
BITMAP
00
00
00
80
80
90
A0
C0
A0
90
88
00
00
ENDCHAR

STARTCHAR l
ENCODING 108
SWIDTH 443 0
DWIDTH 6 0
BBX 6 13 0 -2
BITMAP
00
00
00
60
20
20
20
20
20
20
70
00
00
ENDCHAR

STARTCHAR m
ENCODING 109
SWIDTH 443 0
DWIDTH 6 0
BBX 6 13 0 -2
BITMAP
00
00
00
00
00
F0
A8
A8
A8
A8
A8
00
00
ENDCHAR

STARTCHAR n
ENCODING 110
SWIDTH 443 0
DWIDTH 6 0
BBX 6 13 0 -2
BITMAP
00
00
00
00
00
F0
88
88
88
88
88
00
00
ENDCHAR

STARTCHAR o
ENCODING 111
SWIDTH 443 0
DWIDTH 6 0
BBX 6 13 0 -2
BITMAP
00
00
00
00
00
70
88
88
88
88
70
00
00
ENDCHAR

STARTCHAR p
ENCODING 112
SWIDTH 443 0
DWIDTH 6 0
BBX 6 13 0 -2
BITMAP
00
00
00
00
00
F0
88
88
88
88
F0
80
80
ENDCHAR

STARTCHAR q
ENCODING 113
SWIDTH 443 0
DWIDTH 6 0
BBX 6 13 0 -2
BITMAP
00
00
00
00
00
78
88
88
88
88
78
08
08
ENDCHAR

STARTCHAR r
ENCODING 114
SWIDTH 443 0
DWIDTH 6 0
BBX 6 13 0 -2
BITMAP
00
00
00
00
00
B8
C0
80
80
80
80
00
00
ENDCHAR

STARTCHAR s
ENCODING 115
SWIDTH 443 0
DWIDTH 6 0
BBX 6 13 0 -2
BITMAP
00
00
00
00
00
78
80
70
08
08
F0
00
00
ENDCHAR

STARTCHAR t
ENCODING 116
SWIDTH 443 0
DWIDTH 6 0
BBX 6 13 0 -2
BITMAP
00
00
00
40
40
F0
40
40
40
40
38
00
00
ENDCHAR

STARTCHAR u
ENCODING 117
SWIDTH 443 0
DWIDTH 6 0
BBX 6 13 0 -2
BITMAP
00
00
00
00
00
88
88
88
88
88
78
00
00
ENDCHAR

STARTCHAR v
ENCODING 118
SWIDTH 443 0
DWIDTH 6 0
BBX 6 13 0 -2
BITMAP
00
00
00
00
00
88
88
88
50
50
20
00
00
ENDCHAR

STARTCHAR w
ENCODING 119
SWIDTH 443 0
DWIDTH 6 0
BBX 6 13 0 -2
BITMAP
00
00
00
00
00
88
A8
A8
A8
A8
70
00
00
ENDCHAR

STARTCHAR x
ENCODING 120
SWIDTH 443 0
DWIDTH 6 0
BBX 6 13 0 -2
BITMAP
00
00
00
00
00
88
50
20
20
50
88
00
00
ENDCHAR

STARTCHAR y
ENCODING 121
SWIDTH 443 0
DWIDTH 6 0
BBX 6 13 0 -2
BITMAP
00
00
00
00
00
88
88
88
88
88
78
08
70
ENDCHAR

STARTCHAR z
ENCODING 122
SWIDTH 443 0
DWIDTH 6 0
BBX 6 13 0 -2
BITMAP
00
00
00
00
00
F8
10
20
40
80
F8
00
00
ENDCHAR

STARTCHAR braceleft
ENCODING 123
SWIDTH 443 0
DWIDTH 6 0
BBX 6 13 0 -2
BITMAP
00
00
30
40
40
40
80
40
40
40
40
30
00
ENDCHAR

STARTCHAR bar
ENCODING 124
SWIDTH 443 0
DWIDTH 6 0
BBX 6 13 0 -2
BITMAP
00
00
20
20
20
20
20
20
20
20
20
20
00
ENDCHAR

STARTCHAR braceright
ENCODING 125
SWIDTH 443 0
DWIDTH 6 0
BBX 6 13 0 -2
BITMAP
00
00
60
10
10
10
08
10
10
10
10
60
00
ENDCHAR

STARTCHAR asciitilde
ENCODING 126
SWIDTH 443 0
DWIDTH 6 0
BBX 6 13 0 -2
BITMAP
00
00
48
A8
90
00
00
00
00
00
00
00
00
ENDCHAR

STARTCHAR nonbreakingspace
ENCODING 160
SWIDTH 443 0
DWIDTH 6 0
BBX 6 13 0 -2
BITMAP
00
00
00
00
00
00
00
00
00
00
00
00
00
ENDCHAR

STARTCHAR exclamdown
ENCODING 161
SWIDTH 443 0
DWIDTH 6 0
BBX 6 13 0 -2
BITMAP
00
00
00
20
20
00
20
20
20
20
20
00
00
ENDCHAR

STARTCHAR cent
ENCODING 162
SWIDTH 443 0
DWIDTH 6 0
BBX 6 13 0 -2
BITMAP
00
00
00
00
20
70
A8
A0
A0
A8
70
20
00
ENDCHAR

STARTCHAR sterling
ENCODING 163
SWIDTH 443 0
DWIDTH 6 0
BBX 6 13 0 -2
BITMAP
00
00
00
30
48
40
F0
40
40
48
F8
00
00
ENDCHAR

STARTCHAR currency
ENCODING 164
SWIDTH 443 0
DWIDTH 6 0
BBX 6 13 0 -2
BITMAP
00
00
00
00
88
70
88
88
88
70
88
00
00
ENDCHAR

STARTCHAR yen
ENCODING 165
SWIDTH 443 0
DWIDTH 6 0
BBX 6 13 0 -2
BITMAP
00
00
00
88
88
50
20
70
20
70
20
00
00
ENDCHAR

STARTCHAR brokenbar
ENCODING 166
SWIDTH 443 0
DWIDTH 6 0
BBX 6 13 0 -2
BITMAP
00
00
00
20
20
20
00
00
20
20
20
00
00
ENDCHAR

STARTCHAR section
ENCODING 167
SWIDTH 443 0
DWIDTH 6 0
BBX 6 13 0 -2
BITMAP
00
00
00
70
88
60
90
48
30
88
70
00
00
ENDCHAR

STARTCHAR dieresis
ENCODING 168
SWIDTH 443 0
DWIDTH 6 0
BBX 6 13 0 -2
BITMAP
50
50
00
00
00
00
00
00
00
00
00
00
00
ENDCHAR

STARTCHAR copyright
ENCODING 169
SWIDTH 443 0
DWIDTH 6 0
BBX 6 13 0 -2
BITMAP
00
00
00
78
84
B4
A4
A4
B4
84
78
00
00
ENDCHAR

STARTCHAR ordfeminine
ENCODING 170
SWIDTH 443 0
DWIDTH 6 0
BBX 6 13 0 -2
BITMAP
00
00
60
10
70
90
70
00
F0
00
00
00
00
ENDCHAR

STARTCHAR guillemotleft
ENCODING 171
SWIDTH 443 0
DWIDTH 6 0
BBX 6 13 0 -2
BITMAP
00
00
00
00
14
28
50
A0
50
28
14
00
00
ENDCHAR

STARTCHAR logicalnot
ENCODING 172
SWIDTH 443 0
DWIDTH 6 0
BBX 6 13 0 -2
BITMAP
00
00
00
00
00
00
00
F8
08
08
00
00
00
ENDCHAR

STARTCHAR softhyphen
ENCODING 173
SWIDTH 443 0
DWIDTH 6 0
BBX 6 13 0 -2
BITMAP
00
00
00
00
00
00
00
70
00
00
00
00
00
ENDCHAR

STARTCHAR registered
ENCODING 174
SWIDTH 443 0
DWIDTH 6 0
BBX 6 13 0 -2
BITMAP
00
00
00
78
84
B4
A4
A4
A4
84
78
00
00
ENDCHAR

STARTCHAR macron
ENCODING 175
SWIDTH 443 0
DWIDTH 6 0
BBX 6 13 0 -2
BITMAP
00
70
00
00
00
00
00
00
00
00
00
00
00
ENDCHAR

STARTCHAR degree
ENCODING 176
SWIDTH 443 0
DWIDTH 6 0
BBX 6 13 0 -2
BITMAP
00
00
20
50
50
20
00
00
00
00
00
00
00
ENDCHAR

STARTCHAR plusminus
ENCODING 177
SWIDTH 443 0
DWIDTH 6 0
BBX 6 13 0 -2
BITMAP
00
00
00
00
20
20
F8
20
20
00
F8
00
00
ENDCHAR

STARTCHAR twosuperior
ENCODING 178
SWIDTH 443 0
DWIDTH 6 0
BBX 6 13 0 -2
BITMAP
00
00
60
90
20
40
F0
00
00
00
00
00
00
ENDCHAR

STARTCHAR threesuperior
ENCODING 179
SWIDTH 443 0
DWIDTH 6 0
BBX 6 13 0 -2
BITMAP
00
00
E0
10
60
10
E0
00
00
00
00
00
00
ENDCHAR

STARTCHAR acute
ENCODING 180
SWIDTH 443 0
DWIDTH 6 0
BBX 6 13 0 -2
BITMAP
10
20
00
00
00
00
00
00
00
00
00
00
00
ENDCHAR

STARTCHAR mu1
ENCODING 181
SWIDTH 443 0
DWIDTH 6 0
BBX 6 13 0 -2
BITMAP
00
00
00
00
00
88
88
88
88
98
E8
80
80
ENDCHAR

STARTCHAR paragraph
ENCODING 182
SWIDTH 443 0
DWIDTH 6 0
BBX 6 13 0 -2
BITMAP
00
00
00
78
A8
A8
A8
68
28
28
28
00
00
ENDCHAR

STARTCHAR middot
ENCODING 183
SWIDTH 443 0
DWIDTH 6 0
BBX 6 13 0 -2
BITMAP
00
00
00
00
00
00
20
20
00
00
00
00
00
ENDCHAR

STARTCHAR cedilla
ENCODING 184
SWIDTH 443 0
DWIDTH 6 0
BBX 6 13 0 -2
BITMAP
00
00
00
00
00
00
00
00
00
00
20
20
40
ENDCHAR

STARTCHAR onesuperior
ENCODING 185
SWIDTH 443 0
DWIDTH 6 0
BBX 6 13 0 -2
BITMAP
00
00
20
60
20
20
70
00
00
00
00
00
00
ENDCHAR

STARTCHAR ordmasculine
ENCODING 186
SWIDTH 443 0
DWIDTH 6 0
BBX 6 13 0 -2
BITMAP
00
00
60
90
90
90
60
00
F0
00
00
00
00
ENDCHAR

STARTCHAR guillemotright
ENCODING 187
SWIDTH 443 0
DWIDTH 6 0
BBX 6 13 0 -2
BITMAP
00
00
00
00
A0
50
28
14
28
50
A0
00
00
ENDCHAR

STARTCHAR onequarter
ENCODING 188
SWIDTH 443 0
DWIDTH 6 0
BBX 6 13 0 -2
BITMAP
40
C0
40
48
50
20
50
B0
50
F8
10
10
00
ENDCHAR

STARTCHAR onehalf
ENCODING 189
SWIDTH 443 0
DWIDTH 6 0
BBX 6 13 0 -2
BITMAP
40
C0
40
48
50
20
40
B0
48
10
20
78
00
ENDCHAR

STARTCHAR threequarters
ENCODING 190
SWIDTH 443 0
DWIDTH 6 0
BBX 6 13 0 -2
BITMAP
C0
20
C0
28
D0
20
50
B0
50
F8
10
10
00
ENDCHAR

STARTCHAR questiondown
ENCODING 191
SWIDTH 443 0
DWIDTH 6 0
BBX 6 13 0 -2
BITMAP
00
00
00
20
20
00
20
40
80
88
70
00
00
ENDCHAR

STARTCHAR Agrave
ENCODING 192
SWIDTH 443 0
DWIDTH 6 0
BBX 6 13 0 -2
BITMAP
40
20
00
70
88
88
88
F8
88
88
88
00
00
ENDCHAR

STARTCHAR Aacute
ENCODING 193
SWIDTH 443 0
DWIDTH 6 0
BBX 6 13 0 -2
BITMAP
10
20
00
70
88
88
88
F8
88
88
88
00
00
ENDCHAR

STARTCHAR Acircumflex
ENCODING 194
SWIDTH 443 0
DWIDTH 6 0
BBX 6 13 0 -2
BITMAP
20
50
00
70
88
88
88
F8
88
88
88
00
00
ENDCHAR

STARTCHAR Atilde
ENCODING 195
SWIDTH 443 0
DWIDTH 6 0
BBX 6 13 0 -2
BITMAP
28
50
00
70
88
88
88
F8
88
88
88
00
00
ENDCHAR

STARTCHAR Adieresis
ENCODING 196
SWIDTH 443 0
DWIDTH 6 0
BBX 6 13 0 -2
BITMAP
50
50
00
70
88
88
88
F8
88
88
88
00
00
ENDCHAR

STARTCHAR Aring
ENCODING 197
SWIDTH 443 0
DWIDTH 6 0
BBX 6 13 0 -2
BITMAP
20
50
20
70
88
88
88
F8
88
88
88
00
00
ENDCHAR

STARTCHAR AE
ENCODING 198
SWIDTH 443 0
DWIDTH 6 0
BBX 6 13 0 -2
BITMAP
00
00
00
78
A0
A0
F0
A0
A0
A0
B8
00
00
ENDCHAR

STARTCHAR Ccedilla
ENCODING 199
SWIDTH 443 0
DWIDTH 6 0
BBX 6 13 0 -2
BITMAP
00
00
00
70
88
80
80
80
80
88
70
20
40
ENDCHAR

STARTCHAR Egrave
ENCODING 200
SWIDTH 443 0
DWIDTH 6 0
BBX 6 13 0 -2
BITMAP
40
20
00
F8
80
80
F0
80
80
80
F8
00
00
ENDCHAR

STARTCHAR Eacute
ENCODING 201
SWIDTH 443 0
DWIDTH 6 0
BBX 6 13 0 -2
BITMAP
10
20
00
F8
80
80
F0
80
80
80
F8
00
00
ENDCHAR

STARTCHAR Ecircumflex
ENCODING 202
SWIDTH 443 0
DWIDTH 6 0
BBX 6 13 0 -2
BITMAP
20
50
00
F8
80
80
F0
80
80
80
F8
00
00
ENDCHAR

STARTCHAR Edieresis
ENCODING 203
SWIDTH 443 0
DWIDTH 6 0
BBX 6 13 0 -2
BITMAP
50
50
00
F8
80
80
F0
80
80
80
F8
00
00
ENDCHAR

STARTCHAR Igrave
ENCODING 204
SWIDTH 443 0
DWIDTH 6 0
BBX 6 13 0 -2
BITMAP
40
20
00
70
20
20
20
20
20
20
70
00
00
ENDCHAR

STARTCHAR Iacute
ENCODING 205
SWIDTH 443 0
DWIDTH 6 0
BBX 6 13 0 -2
BITMAP
10
20
00
70
20
20
20
20
20
20
70
00
00
ENDCHAR

STARTCHAR Icircumflex
ENCODING 206
SWIDTH 443 0
DWIDTH 6 0
BBX 6 13 0 -2
BITMAP
20
50
00
70
20
20
20
20
20
20
70
00
00
ENDCHAR

STARTCHAR Idieresis
ENCODING 207
SWIDTH 443 0
DWIDTH 6 0
BBX 6 13 0 -2
BITMAP
50
50
00
70
20
20
20
20
20
20
70
00
00
ENDCHAR

STARTCHAR Eth
ENCODING 208
SWIDTH 443 0
DWIDTH 6 0
BBX 6 13 0 -2
BITMAP
00
00
00
E0
90
88
E8
88
88
90
E0
00
00
ENDCHAR

STARTCHAR Ntilde
ENCODING 209
SWIDTH 443 0
DWIDTH 6 0
BBX 6 13 0 -2
BITMAP
28
50
00
88
C8
A8
98
88
88
88
88
00
00
ENDCHAR

STARTCHAR Ograve
ENCODING 210
SWIDTH 443 0
DWIDTH 6 0
BBX 6 13 0 -2
BITMAP
40
20
00
70
88
88
88
88
88
88
70
00
00
ENDCHAR

STARTCHAR Oacute
ENCODING 211
SWIDTH 443 0
DWIDTH 6 0
BBX 6 13 0 -2
BITMAP
10
20
00
70
88
88
88
88
88
88
70
00
00
ENDCHAR

STARTCHAR Ocircumflex
ENCODING 212
SWIDTH 443 0
DWIDTH 6 0
BBX 6 13 0 -2
BITMAP
20
50
00
70
88
88
88
88
88
88
70
00
00
ENDCHAR

STARTCHAR Otilde
ENCODING 213
SWIDTH 443 0
DWIDTH 6 0
BBX 6 13 0 -2
BITMAP
28
50
00
70
88
88
88
88
88
88
70
00
00
ENDCHAR

STARTCHAR Odieresis
ENCODING 214
SWIDTH 443 0
DWIDTH 6 0
BBX 6 13 0 -2
BITMAP
50
50
00
70
88
88
88
88
88
88
70
00
00
ENDCHAR

STARTCHAR multiply
ENCODING 215
SWIDTH 443 0
DWIDTH 6 0
BBX 6 13 0 -2
BITMAP
00
00
00
00
00
88
50
20
50
88
00
00
00
ENDCHAR

STARTCHAR Oslash
ENCODING 216
SWIDTH 443 0
DWIDTH 6 0
BBX 6 13 0 -2
BITMAP
00
00
00
74
88
98
A8
C8
88
88
70
00
00
ENDCHAR

STARTCHAR Ugrave
ENCODING 217
SWIDTH 443 0
DWIDTH 6 0
BBX 6 13 0 -2
BITMAP
40
20
00
88
88
88
88
88
88
88
70
00
00
ENDCHAR

STARTCHAR Uacute
ENCODING 218
SWIDTH 443 0
DWIDTH 6 0
BBX 6 13 0 -2
BITMAP
10
20
00
88
88
88
88
88
88
88
70
00
00
ENDCHAR

STARTCHAR Ucircumflex
ENCODING 219
SWIDTH 443 0
DWIDTH 6 0
BBX 6 13 0 -2
BITMAP
20
50
00
88
88
88
88
88
88
88
70
00
00
ENDCHAR

STARTCHAR Udieresis
ENCODING 220
SWIDTH 443 0
DWIDTH 6 0
BBX 6 13 0 -2
BITMAP
50
50
00
88
88
88
88
88
88
88
70
00
00
ENDCHAR

STARTCHAR Yacute
ENCODING 221
SWIDTH 443 0
DWIDTH 6 0
BBX 6 13 0 -2
BITMAP
10
20
00
88
88
50
50
20
20
20
20
00
00
ENDCHAR

STARTCHAR Thorn
ENCODING 222
SWIDTH 443 0
DWIDTH 6 0
BBX 6 13 0 -2
BITMAP
00
00
00
80
F0
88
88
88
88
F0
80
00
00
ENDCHAR

STARTCHAR germandbls
ENCODING 223
SWIDTH 443 0
DWIDTH 6 0
BBX 6 13 0 -2
BITMAP
00
00
00
60
90
A0
F0
88
88
C8
B0
00
00
ENDCHAR

STARTCHAR agrave
ENCODING 224
SWIDTH 443 0
DWIDTH 6 0
BBX 6 13 0 -2
BITMAP
00
00
40
20
00
70
08
78
88
88
78
00
00
ENDCHAR

STARTCHAR aacute
ENCODING 225
SWIDTH 443 0
DWIDTH 6 0
BBX 6 13 0 -2
BITMAP
00
00
10
20
00
70
08
78
88
88
78
00
00
ENDCHAR

STARTCHAR acircumflex
ENCODING 226
SWIDTH 443 0
DWIDTH 6 0
BBX 6 13 0 -2
BITMAP
00
00
20
50
00
70
08
78
88
88
78
00
00
ENDCHAR

STARTCHAR atilde
ENCODING 227
SWIDTH 443 0
DWIDTH 6 0
BBX 6 13 0 -2
BITMAP
00
00
28
50
00
70
08
78
88
88
78
00
00
ENDCHAR

STARTCHAR adieresis
ENCODING 228
SWIDTH 443 0
DWIDTH 6 0
BBX 6 13 0 -2
BITMAP
00
00
50
50
00
70
08
78
88
88
78
00
00
ENDCHAR

STARTCHAR aring
ENCODING 229
SWIDTH 443 0
DWIDTH 6 0
BBX 6 13 0 -2
BITMAP
00
20
50
20
00
70
08
78
88
88
78
00
00
ENDCHAR

STARTCHAR ae
ENCODING 230
SWIDTH 443 0
DWIDTH 6 0
BBX 6 13 0 -2
BITMAP
00
00
00
00
00
70
28
78
A0
A0
78
00
00
ENDCHAR

STARTCHAR ccedilla
ENCODING 231
SWIDTH 443 0
DWIDTH 6 0
BBX 6 13 0 -2
BITMAP
00
00
00
00
00
70
88
80
80
88
70
20
40
ENDCHAR

STARTCHAR egrave
ENCODING 232
SWIDTH 443 0
DWIDTH 6 0
BBX 6 13 0 -2
BITMAP
00
00
40
20
00
70
88
F8
80
80
78
00
00
ENDCHAR

STARTCHAR eacute
ENCODING 233
SWIDTH 443 0
DWIDTH 6 0
BBX 6 13 0 -2
BITMAP
00
00
10
20
00
70
88
F8
80
80
78
00
00
ENDCHAR

STARTCHAR ecircumflex
ENCODING 234
SWIDTH 443 0
DWIDTH 6 0
BBX 6 13 0 -2
BITMAP
00
00
20
50
00
70
88
F8
80
80
78
00
00
ENDCHAR

STARTCHAR edieresis
ENCODING 235
SWIDTH 443 0
DWIDTH 6 0
BBX 6 13 0 -2
BITMAP
00
00
50
50
00
70
88
F8
80
80
78
00
00
ENDCHAR

STARTCHAR igrave
ENCODING 236
SWIDTH 443 0
DWIDTH 6 0
BBX 6 13 0 -2
BITMAP
00
00
40
20
00
60
20
20
20
20
70
00
00
ENDCHAR

STARTCHAR iacute
ENCODING 237
SWIDTH 443 0
DWIDTH 6 0
BBX 6 13 0 -2
BITMAP
00
00
10
20
00
60
20
20
20
20
70
00
00
ENDCHAR

STARTCHAR icircumflex
ENCODING 238
SWIDTH 443 0
DWIDTH 6 0
BBX 6 13 0 -2
BITMAP
00
00
20
50
00
60
20
20
20
20
70
00
00
ENDCHAR

STARTCHAR idieresis
ENCODING 239
SWIDTH 443 0
DWIDTH 6 0
BBX 6 13 0 -2
BITMAP
00
00
50
50
00
60
20
20
20
20
70
00
00
ENDCHAR

STARTCHAR eth
ENCODING 240
SWIDTH 443 0
DWIDTH 6 0
BBX 6 13 0 -2
BITMAP
00
A0
40
A0
00
70
88
88
88
88
70
00
00
ENDCHAR

STARTCHAR ntilde
ENCODING 241
SWIDTH 443 0
DWIDTH 6 0
BBX 6 13 0 -2
BITMAP
00
00
28
50
00
F0
88
88
88
88
88
00
00
ENDCHAR

STARTCHAR ograve
ENCODING 242
SWIDTH 443 0
DWIDTH 6 0
BBX 6 13 0 -2
BITMAP
00
00
40
20
00
70
88
88
88
88
70
00
00
ENDCHAR

STARTCHAR oacute
ENCODING 243
SWIDTH 443 0
DWIDTH 6 0
BBX 6 13 0 -2
BITMAP
00
00
10
20
00
70
88
88
88
88
70
00
00
ENDCHAR

STARTCHAR ocircumflex
ENCODING 244
SWIDTH 443 0
DWIDTH 6 0
BBX 6 13 0 -2
BITMAP
00
00
20
50
00
70
88
88
88
88
70
00
00
ENDCHAR

STARTCHAR otilde
ENCODING 245
SWIDTH 443 0
DWIDTH 6 0
BBX 6 13 0 -2
BITMAP
00
00
28
50
00
70
88
88
88
88
70
00
00
ENDCHAR

STARTCHAR odieresis
ENCODING 246
SWIDTH 443 0
DWIDTH 6 0
BBX 6 13 0 -2
BITMAP
00
00
50
50
00
70
88
88
88
88
70
00
00
ENDCHAR

STARTCHAR divide
ENCODING 247
SWIDTH 443 0
DWIDTH 6 0
BBX 6 13 0 -2
BITMAP
00
00
00
00
20
20
00
F8
00
20
20
00
00
ENDCHAR

STARTCHAR oslash
ENCODING 248
SWIDTH 443 0
DWIDTH 6 0
BBX 6 13 0 -2
BITMAP
00
00
00
00
00
74
88
98
A8
C8
70
00
00
ENDCHAR

STARTCHAR ugrave
ENCODING 249
SWIDTH 443 0
DWIDTH 6 0
BBX 6 13 0 -2
BITMAP
00
00
40
20
00
88
88
88
88
88
78
00
00
ENDCHAR

STARTCHAR uacute
ENCODING 250
SWIDTH 443 0
DWIDTH 6 0
BBX 6 13 0 -2
BITMAP
00
00
10
20
00
88
88
88
88
88
78
00
00
ENDCHAR

STARTCHAR ucircumflex
ENCODING 251
SWIDTH 443 0
DWIDTH 6 0
BBX 6 13 0 -2
BITMAP
00
00
20
50
00
88
88
88
88
88
78
00
00
ENDCHAR

STARTCHAR udieresis
ENCODING 252
SWIDTH 443 0
DWIDTH 6 0
BBX 6 13 0 -2
BITMAP
00
00
50
50
00
88
88
88
88
88
78
00
00
ENDCHAR

STARTCHAR yacute
ENCODING 253
SWIDTH 443 0
DWIDTH 6 0
BBX 6 13 0 -2
BITMAP
00
00
10
20
00
88
88
88
88
88
78
08
70
ENDCHAR

STARTCHAR thorn
ENCODING 254
SWIDTH 443 0
DWIDTH 6 0
BBX 6 13 0 -2
BITMAP
00
00
00
80
80
F0
88
88
88
88
F0
80
80
ENDCHAR

STARTCHAR ydieresis
ENCODING 255
SWIDTH 443 0
DWIDTH 6 0
BBX 6 13 0 -2
BITMAP
00
00
50
50
00
88
88
88
88
88
78
08
70
ENDCHAR

STARTCHAR Amacron
ENCODING 256
SWIDTH 443 0
DWIDTH 6 0
BBX 6 13 0 -2
BITMAP
00
70
00
70
88
88
88
F8
88
88
88
00
00
ENDCHAR

STARTCHAR amacron
ENCODING 257
SWIDTH 443 0
DWIDTH 6 0
BBX 6 13 0 -2
BITMAP
00
00
00
70
00
70
08
78
88
88
78
00
00
ENDCHAR

STARTCHAR Abreve
ENCODING 258
SWIDTH 443 0
DWIDTH 6 0
BBX 6 13 0 -2
BITMAP
50
20
00
70
88
88
88
F8
88
88
88
00
00
ENDCHAR

STARTCHAR abreve
ENCODING 259
SWIDTH 443 0
DWIDTH 6 0
BBX 6 13 0 -2
BITMAP
00
00
50
20
00
70
08
78
88
88
78
00
00
ENDCHAR

STARTCHAR Aogonek
ENCODING 260
SWIDTH 443 0
DWIDTH 6 0
BBX 6 13 0 -2
BITMAP
00
00
00
70
88
88
88
F8
88
88
88
10
0C
ENDCHAR

STARTCHAR aogonek
ENCODING 261
SWIDTH 443 0
DWIDTH 6 0
BBX 6 13 0 -2
BITMAP
00
00
00
00
00
70
08
78
88
88
78
10
0C
ENDCHAR

STARTCHAR Cacute
ENCODING 262
SWIDTH 443 0
DWIDTH 6 0
BBX 6 13 0 -2
BITMAP
10
20
00
70
88
80
80
80
80
88
70
00
00
ENDCHAR

STARTCHAR cacute
ENCODING 263
SWIDTH 443 0
DWIDTH 6 0
BBX 6 13 0 -2
BITMAP
00
00
10
20
00
70
88
80
80
88
70
00
00
ENDCHAR

STARTCHAR Ccircumflex
ENCODING 264
SWIDTH 443 0
DWIDTH 6 0
BBX 6 13 0 -2
BITMAP
20
50
00
70
88
80
80
80
80
88
70
00
00
ENDCHAR

STARTCHAR ccircumflex
ENCODING 265
SWIDTH 443 0
DWIDTH 6 0
BBX 6 13 0 -2
BITMAP
00
00
20
50
00
70
88
80
80
88
70
00
00
ENDCHAR

STARTCHAR Cdot
ENCODING 266
SWIDTH 443 0
DWIDTH 6 0
BBX 6 13 0 -2
BITMAP
20
20
00
70
88
80
80
80
80
88
70
00
00
ENDCHAR

STARTCHAR cdot
ENCODING 267
SWIDTH 443 0
DWIDTH 6 0
BBX 6 13 0 -2
BITMAP
00
00
20
20
00
70
88
80
80
88
70
00
00
ENDCHAR

STARTCHAR Ccaron
ENCODING 268
SWIDTH 443 0
DWIDTH 6 0
BBX 6 13 0 -2
BITMAP
50
20
00
70
88
80
80
80
80
88
70
00
00
ENDCHAR

STARTCHAR ccaron
ENCODING 269
SWIDTH 443 0
DWIDTH 6 0
BBX 6 13 0 -2
BITMAP
00
00
50
20
00
70
88
80
80
88
70
00
00
ENDCHAR

STARTCHAR Dcaron
ENCODING 270
SWIDTH 443 0
DWIDTH 6 0
BBX 6 13 0 -2
BITMAP
50
20
00
E0
90
88
88
88
88
90
E0
00
00
ENDCHAR

STARTCHAR dcaron
ENCODING 271
SWIDTH 443 0
DWIDTH 6 0
BBX 6 13 0 -2
BITMAP
50
20
00
08
08
78
88
88
88
88
78
00
00
ENDCHAR

STARTCHAR Dcroat
ENCODING 272
SWIDTH 443 0
DWIDTH 6 0
BBX 6 13 0 -2
BITMAP
00
00
00
E0
90
88
E8
88
88
90
E0
00
00
ENDCHAR

STARTCHAR dcroat
ENCODING 273
SWIDTH 443 0
DWIDTH 6 0
BBX 6 13 0 -2
BITMAP
00
00
00
38
08
78
88
88
88
88
78
00
00
ENDCHAR

STARTCHAR Emacron
ENCODING 274
SWIDTH 443 0
DWIDTH 6 0
BBX 6 13 0 -2
BITMAP
00
70
00
F8
80
80
F0
80
80
80
F8
00
00
ENDCHAR

STARTCHAR emacron
ENCODING 275
SWIDTH 443 0
DWIDTH 6 0
BBX 6 13 0 -2
BITMAP
00
00
00
70
00
70
88
F8
80
80
78
00
00
ENDCHAR

STARTCHAR Ebreve
ENCODING 276
SWIDTH 443 0
DWIDTH 6 0
BBX 6 13 0 -2
BITMAP
50
20
00
F8
80
80
F0
80
80
80
F8
00
00
ENDCHAR

STARTCHAR ebreve
ENCODING 277
SWIDTH 443 0
DWIDTH 6 0
BBX 6 13 0 -2
BITMAP
00
00
50
20
00
70
88
F8
80
80
78
00
00
ENDCHAR

STARTCHAR Edot
ENCODING 278
SWIDTH 443 0
DWIDTH 6 0
BBX 6 13 0 -2
BITMAP
20
20
00
F8
80
80
F0
80
80
80
F8
00
00
ENDCHAR

STARTCHAR edot
ENCODING 279
SWIDTH 443 0
DWIDTH 6 0
BBX 6 13 0 -2
BITMAP
00
00
20
20
00
70
88
F8
80
80
78
00
00
ENDCHAR

STARTCHAR Eogonek
ENCODING 280
SWIDTH 443 0
DWIDTH 6 0
BBX 6 13 0 -2
BITMAP
00
00
00
F8
80
80
F0
80
80
80
F8
10
0C
ENDCHAR

STARTCHAR eogonek
ENCODING 281
SWIDTH 443 0
DWIDTH 6 0
BBX 6 13 0 -2
BITMAP
00
00
00
00
00
70
88
F8
80
80
78
10
0C
ENDCHAR

STARTCHAR Ecaron
ENCODING 282
SWIDTH 443 0
DWIDTH 6 0
BBX 6 13 0 -2
BITMAP
50
20
00
F8
80
80
F0
80
80
80
F8
00
00
ENDCHAR

STARTCHAR ecaron
ENCODING 283
SWIDTH 443 0
DWIDTH 6 0
BBX 6 13 0 -2
BITMAP
00
00
50
20
00
70
88
F8
80
80
78
00
00
ENDCHAR

STARTCHAR Gcircumflex
ENCODING 284
SWIDTH 443 0
DWIDTH 6 0
BBX 6 13 0 -2
BITMAP
20
50
00
70
88
80
B8
88
88
88
70
00
00
ENDCHAR

STARTCHAR gcircumflex
ENCODING 285
SWIDTH 443 0
DWIDTH 6 0
BBX 6 13 0 -2
BITMAP
00
00
20
50
00
78
88
88
88
88
78
08
70
ENDCHAR

STARTCHAR Gbreve
ENCODING 286
SWIDTH 443 0
DWIDTH 6 0
BBX 6 13 0 -2
BITMAP
50
20
00
70
88
80
B8
88
88
88
70
00
00
ENDCHAR

STARTCHAR gbreve
ENCODING 287
SWIDTH 443 0
DWIDTH 6 0
BBX 6 13 0 -2
BITMAP
00
00
50
20
00
78
88
88
88
88
78
08
70
ENDCHAR

STARTCHAR Gdot
ENCODING 288
SWIDTH 443 0
DWIDTH 6 0
BBX 6 13 0 -2
BITMAP
20
20
00
70
88
80
B8
88
88
88
70
00
00
ENDCHAR

STARTCHAR gdot
ENCODING 289
SWIDTH 443 0
DWIDTH 6 0
BBX 6 13 0 -2
BITMAP
00
00
20
20
00
78
88
88
88
88
78
08
70
ENDCHAR

STARTCHAR Gcedilla
ENCODING 290
SWIDTH 443 0
DWIDTH 6 0
BBX 6 13 0 -2
BITMAP
00
00
00
70
88
80
B8
88
88
88
70
20
40
ENDCHAR

STARTCHAR gcedilla
ENCODING 291
SWIDTH 443 0
DWIDTH 6 0
BBX 6 13 0 -2
BITMAP
00
00
00
10
20
78
88
88
88
88
78
08
70
ENDCHAR

STARTCHAR Hcircumflex
ENCODING 292
SWIDTH 443 0
DWIDTH 6 0
BBX 6 13 0 -2
BITMAP
20
50
00
88
88
88
F8
88
88
88
88
00
00
ENDCHAR

STARTCHAR hcircumflex
ENCODING 293
SWIDTH 443 0
DWIDTH 6 0
BBX 6 13 0 -2
BITMAP
20
50
00
80
80
F0
88
88
88
88
88
00
00
ENDCHAR

STARTCHAR Hbar
ENCODING 294
SWIDTH 443 0
DWIDTH 6 0
BBX 6 13 0 -2
BITMAP
00
00
00
88
F8
88
F8
88
88
88
88
00
00
ENDCHAR

STARTCHAR hbar
ENCODING 295
SWIDTH 443 0
DWIDTH 6 0
BBX 6 13 0 -2
BITMAP
00
00
00
E0
80
F0
88
88
88
88
88
00
00
ENDCHAR

STARTCHAR Itilde
ENCODING 296
SWIDTH 443 0
DWIDTH 6 0
BBX 6 13 0 -2
BITMAP
28
50
00
70
20
20
20
20
20
20
70
00
00
ENDCHAR

STARTCHAR itilde
ENCODING 297
SWIDTH 443 0
DWIDTH 6 0
BBX 6 13 0 -2
BITMAP
00
00
28
50
00
60
20
20
20
20
70
00
00
ENDCHAR

STARTCHAR Imacron
ENCODING 298
SWIDTH 443 0
DWIDTH 6 0
BBX 6 13 0 -2
BITMAP
00
70
00
70
20
20
20
20
20
20
70
00
00
ENDCHAR

STARTCHAR imacron
ENCODING 299
SWIDTH 443 0
DWIDTH 6 0
BBX 6 13 0 -2
BITMAP
00
00
00
70
00
60
20
20
20
20
70
00
00
ENDCHAR

STARTCHAR Ibreve
ENCODING 300
SWIDTH 443 0
DWIDTH 6 0
BBX 6 13 0 -2
BITMAP
50
20
00
70
20
20
20
20
20
20
70
00
00
ENDCHAR

STARTCHAR ibreve
ENCODING 301
SWIDTH 443 0
DWIDTH 6 0
BBX 6 13 0 -2
BITMAP
00
00
50
20
00
60
20
20
20
20
70
00
00
ENDCHAR

STARTCHAR Iogonek
ENCODING 302
SWIDTH 443 0
DWIDTH 6 0
BBX 6 13 0 -2
BITMAP
00
00
00
70
20
20
20
20
20
20
70
20
18
ENDCHAR

STARTCHAR iogonek
ENCODING 303
SWIDTH 443 0
DWIDTH 6 0
BBX 6 13 0 -2
BITMAP
00
00
20
20
00
60
20
20
20
20
70
20
18
ENDCHAR

STARTCHAR Idot
ENCODING 304
SWIDTH 443 0
DWIDTH 6 0
BBX 6 13 0 -2
BITMAP
20
20
00
70
20
20
20
20
20
20
70
00
00
ENDCHAR

STARTCHAR dotlessi
ENCODING 305
SWIDTH 443 0
DWIDTH 6 0
BBX 6 13 0 -2
BITMAP
00
00
00
00
00
60
20
20
20
20
70
00
00
ENDCHAR

STARTCHAR IJ
ENCODING 306
SWIDTH 443 0
DWIDTH 6 0
BBX 6 13 0 -2
BITMAP
00
00
00
E8
48
48
48
48
48
48
E8
48
30
ENDCHAR

STARTCHAR ij
ENCODING 307
SWIDTH 443 0
DWIDTH 6 0
BBX 6 13 0 -2
BITMAP
00
00
48
48
00
D8
48
48
48
48
E8
48
30
ENDCHAR

STARTCHAR Jcircumflex
ENCODING 308
SWIDTH 443 0
DWIDTH 6 0
BBX 6 13 0 -2
BITMAP
10
28
00
08
08
08
08
08
88
88
70
00
00
ENDCHAR

STARTCHAR jcircumflex
ENCODING 309
SWIDTH 443 0
DWIDTH 6 0
BBX 6 13 0 -2
BITMAP
00
00
10
28
00
30
10
10
10
10
90
90
60
ENDCHAR

STARTCHAR Kcommaaccent
ENCODING 310
SWIDTH 443 0
DWIDTH 6 0
BBX 6 13 0 -2
BITMAP
00
00
00
88
90
A0
C0
C0
A0
90
C8
40
80
ENDCHAR

STARTCHAR kcommaaccent
ENCODING 311
SWIDTH 443 0
DWIDTH 6 0
BBX 6 13 0 -2
BITMAP
00
00
00
80
80
90
A0
C0
A0
90
C8
40
80
ENDCHAR

STARTCHAR kgreenlandic
ENCODING 312
SWIDTH 443 0
DWIDTH 6 0
BBX 6 13 0 -2
BITMAP
00
00
00
00
00
90
A0
C0
C0
A0
90
00
00
ENDCHAR

STARTCHAR Lacute
ENCODING 313
SWIDTH 443 0
DWIDTH 6 0
BBX 6 13 0 -2
BITMAP
20
40
00
80
80
80
80
80
80
80
F8
00
00
ENDCHAR

STARTCHAR lacute
ENCODING 314
SWIDTH 443 0
DWIDTH 6 0
BBX 6 13 0 -2
BITMAP
10
20
00
60
20
20
20
20
20
20
70
00
00
ENDCHAR

STARTCHAR Lcedilla
ENCODING 315
SWIDTH 443 0
DWIDTH 6 0
BBX 6 13 0 -2
BITMAP
00
00
00
80
80
80
80
80
80
80
F8
20
40
ENDCHAR

STARTCHAR lcedilla
ENCODING 316
SWIDTH 443 0
DWIDTH 6 0
BBX 6 13 0 -2
BITMAP
00
00
00
60
20
20
20
20
20
20
70
20
40
ENDCHAR

STARTCHAR Lcaron
ENCODING 317
SWIDTH 443 0
DWIDTH 6 0
BBX 6 13 0 -2
BITMAP
A0
40
00
80
80
80
80
80
80
80
F8
00
00
ENDCHAR

STARTCHAR lcaron
ENCODING 318
SWIDTH 443 0
DWIDTH 6 0
BBX 6 13 0 -2
BITMAP
50
20
00
60
20
20
20
20
20
20
70
00
00
ENDCHAR

STARTCHAR Ldot
ENCODING 319
SWIDTH 443 0
DWIDTH 6 0
BBX 6 13 0 -2
BITMAP
00
00
00
80
80
A0
A0
80
80
80
F8
00
00
ENDCHAR

STARTCHAR ldot
ENCODING 320
SWIDTH 443 0
DWIDTH 6 0
BBX 6 13 0 -2
BITMAP
00
00
00
60
20
28
28
20
20
20
70
00
00
ENDCHAR

STARTCHAR Lslash
ENCODING 321
SWIDTH 443 0
DWIDTH 6 0
BBX 6 13 0 -2
BITMAP
00
00
00
40
40
60
C0
40
40
40
78
00
00
ENDCHAR

STARTCHAR lslash
ENCODING 322
SWIDTH 443 0
DWIDTH 6 0
BBX 6 13 0 -2
BITMAP
00
00
00
60
20
30
60
20
20
20
70
00
00
ENDCHAR

STARTCHAR Nacute
ENCODING 323
SWIDTH 443 0
DWIDTH 6 0
BBX 6 13 0 -2
BITMAP
10
20
00
88
C8
A8
98
88
88
88
88
00
00
ENDCHAR

STARTCHAR nacute
ENCODING 324
SWIDTH 443 0
DWIDTH 6 0
BBX 6 13 0 -2
BITMAP
00
00
10
20
00
F0
88
88
88
88
88
00
00
ENDCHAR

STARTCHAR Ncedilla
ENCODING 325
SWIDTH 443 0
DWIDTH 6 0
BBX 6 13 0 -2
BITMAP
00
00
00
88
C8
A8
98
88
88
88
C8
40
80
ENDCHAR

STARTCHAR ncedilla
ENCODING 326
SWIDTH 443 0
DWIDTH 6 0
BBX 6 13 0 -2
BITMAP
00
00
00
00
00
F0
88
88
88
88
C8
40
80
ENDCHAR

STARTCHAR Ncaron
ENCODING 327
SWIDTH 443 0
DWIDTH 6 0
BBX 6 13 0 -2
BITMAP
50
20
00
88
C8
A8
98
88
88
88
88
00
00
ENDCHAR

STARTCHAR ncaron
ENCODING 328
SWIDTH 443 0
DWIDTH 6 0
BBX 6 13 0 -2
BITMAP
00
00
50
20
00
F0
88
88
88
88
88
00
00
ENDCHAR

STARTCHAR napostrophe
ENCODING 329
SWIDTH 443 0
DWIDTH 6 0
BBX 6 13 0 -2
BITMAP
00
00
40
80
00
F0
88
88
88
88
88
00
00
ENDCHAR

STARTCHAR Eng
ENCODING 330
SWIDTH 443 0
DWIDTH 6 0
BBX 6 13 0 -2
BITMAP
00
00
00
88
C8
A8
98
88
88
88
88
08
30
ENDCHAR

STARTCHAR eng
ENCODING 331
SWIDTH 443 0
DWIDTH 6 0
BBX 6 13 0 -2
BITMAP
00
00
00
00
00
F0
88
88
88
88
88
08
30
ENDCHAR

STARTCHAR Omacron
ENCODING 332
SWIDTH 443 0
DWIDTH 6 0
BBX 6 13 0 -2
BITMAP
00
70
00
70
88
88
88
88
88
88
70
00
00
ENDCHAR

STARTCHAR omacron
ENCODING 333
SWIDTH 443 0
DWIDTH 6 0
BBX 6 13 0 -2
BITMAP
00
00
00
70
00
70
88
88
88
88
70
00
00
ENDCHAR

STARTCHAR Obreve
ENCODING 334
SWIDTH 443 0
DWIDTH 6 0
BBX 6 13 0 -2
BITMAP
50
20
00
70
88
88
88
88
88
88
70
00
00
ENDCHAR

STARTCHAR obreve
ENCODING 335
SWIDTH 443 0
DWIDTH 6 0
BBX 6 13 0 -2
BITMAP
00
00
50
20
00
70
88
88
88
88
70
00
00
ENDCHAR

STARTCHAR Odblacute
ENCODING 336
SWIDTH 443 0
DWIDTH 6 0
BBX 6 13 0 -2
BITMAP
28
50
00
70
88
88
88
88
88
88
70
00
00
ENDCHAR

STARTCHAR odblacute
ENCODING 337
SWIDTH 443 0
DWIDTH 6 0
BBX 6 13 0 -2
BITMAP
00
00
28
50
00
70
88
88
88
88
70
00
00
ENDCHAR

STARTCHAR OE
ENCODING 338
SWIDTH 443 0
DWIDTH 6 0
BBX 6 13 0 -2
BITMAP
00
00
00
78
A0
A0
B0
A0
A0
A0
78
00
00
ENDCHAR

STARTCHAR oe
ENCODING 339
SWIDTH 443 0
DWIDTH 6 0
BBX 6 13 0 -2
BITMAP
00
00
00
00
00
70
A8
B8
A0
A0
78
00
00
ENDCHAR

STARTCHAR Racute
ENCODING 340
SWIDTH 443 0
DWIDTH 6 0
BBX 6 13 0 -2
BITMAP
10
20
00
F0
88
88
88
F0
A0
90
88
00
00
ENDCHAR

STARTCHAR racute
ENCODING 341
SWIDTH 443 0
DWIDTH 6 0
BBX 6 13 0 -2
BITMAP
00
00
10
20
00
B8
C0
80
80
80
80
00
00
ENDCHAR

STARTCHAR Rcedilla
ENCODING 342
SWIDTH 443 0
DWIDTH 6 0
BBX 6 13 0 -2
BITMAP
00
00
00
F0
88
88
88
F0
A0
90
C8
40
80
ENDCHAR

STARTCHAR rcedilla
ENCODING 343
SWIDTH 443 0
DWIDTH 6 0
BBX 6 13 0 -2
BITMAP
00
00
00
00
00
B8
C0
80
80
80
C0
40
80
ENDCHAR

STARTCHAR Rcaron
ENCODING 344
SWIDTH 443 0
DWIDTH 6 0
BBX 6 13 0 -2
BITMAP
50
20
00
F0
88
88
88
F0
A0
90
88
00
00
ENDCHAR

STARTCHAR rcaron
ENCODING 345
SWIDTH 443 0
DWIDTH 6 0
BBX 6 13 0 -2
BITMAP
00
00
50
20
00
B8
C0
80
80
80
80
00
00
ENDCHAR

STARTCHAR Sacute
ENCODING 346
SWIDTH 443 0
DWIDTH 6 0
BBX 6 13 0 -2
BITMAP
10
20
00
70
88
80
70
08
08
88
70
00
00
ENDCHAR

STARTCHAR sacute
ENCODING 347
SWIDTH 443 0
DWIDTH 6 0
BBX 6 13 0 -2
BITMAP
00
00
10
20
00
78
80
70
08
08
F0
00
00
ENDCHAR

STARTCHAR Scircumflex
ENCODING 348
SWIDTH 443 0
DWIDTH 6 0
BBX 6 13 0 -2
BITMAP
20
50
00
70
88
80
70
08
08
88
70
00
00
ENDCHAR

STARTCHAR scircumflex
ENCODING 349
SWIDTH 443 0
DWIDTH 6 0
BBX 6 13 0 -2
BITMAP
00
00
20
50
00
78
80
70
08
08
F0
00
00
ENDCHAR

STARTCHAR Scedilla
ENCODING 350
SWIDTH 443 0
DWIDTH 6 0
BBX 6 13 0 -2
BITMAP
00
00
00
70
88
80
70
08
08
88
70
20
40
ENDCHAR

STARTCHAR scedilla
ENCODING 351
SWIDTH 443 0
DWIDTH 6 0
BBX 6 13 0 -2
BITMAP
00
00
00
00
00
78
80
70
08
08
F0
20
40
ENDCHAR

STARTCHAR Scaron
ENCODING 352
SWIDTH 443 0
DWIDTH 6 0
BBX 6 13 0 -2
BITMAP
50
20
00
70
88
80
70
08
08
88
70
00
00
ENDCHAR

STARTCHAR scaron
ENCODING 353
SWIDTH 443 0
DWIDTH 6 0
BBX 6 13 0 -2
BITMAP
00
00
50
20
00
78
80
70
08
08
F0
00
00
ENDCHAR

STARTCHAR Tcedilla
ENCODING 354
SWIDTH 443 0
DWIDTH 6 0
BBX 6 13 0 -2
BITMAP
00
00
00
F8
20
20
20
20
20
20
30
10
20
ENDCHAR

STARTCHAR tcedilla
ENCODING 355
SWIDTH 443 0
DWIDTH 6 0
BBX 6 13 0 -2
BITMAP
00
00
00
40
40
F0
40
40
40
40
38
20
40
ENDCHAR

STARTCHAR Tcaron
ENCODING 356
SWIDTH 443 0
DWIDTH 6 0
BBX 6 13 0 -2
BITMAP
50
20
00
F8
20
20
20
20
20
20
20
00
00
ENDCHAR

STARTCHAR tcaron
ENCODING 357
SWIDTH 443 0
DWIDTH 6 0
BBX 6 13 0 -2
BITMAP
A0
40
00
40
40
F0
40
40
40
40
38
00
00
ENDCHAR

STARTCHAR Tbar
ENCODING 358
SWIDTH 443 0
DWIDTH 6 0
BBX 6 13 0 -2
BITMAP
00
00
00
F8
20
20
70
20
20
20
20
00
00
ENDCHAR

STARTCHAR tbar
ENCODING 359
SWIDTH 443 0
DWIDTH 6 0
BBX 6 13 0 -2
BITMAP
00
00
00
40
40
F0
40
E0
40
40
38
00
00
ENDCHAR

STARTCHAR Utilde
ENCODING 360
SWIDTH 443 0
DWIDTH 6 0
BBX 6 13 0 -2
BITMAP
28
50
00
88
88
88
88
88
88
88
70
00
00
ENDCHAR

STARTCHAR utilde
ENCODING 361
SWIDTH 443 0
DWIDTH 6 0
BBX 6 13 0 -2
BITMAP
00
00
28
50
00
88
88
88
88
88
78
00
00
ENDCHAR

STARTCHAR Umacron
ENCODING 362
SWIDTH 443 0
DWIDTH 6 0
BBX 6 13 0 -2
BITMAP
00
70
00
88
88
88
88
88
88
88
70
00
00
ENDCHAR

STARTCHAR umacron
ENCODING 363
SWIDTH 443 0
DWIDTH 6 0
BBX 6 13 0 -2
BITMAP
00
00
00
70
00
88
88
88
88
88
78
00
00
ENDCHAR

STARTCHAR Ubreve
ENCODING 364
SWIDTH 443 0
DWIDTH 6 0
BBX 6 13 0 -2
BITMAP
50
20
00
88
88
88
88
88
88
88
70
00
00
ENDCHAR

STARTCHAR ubreve
ENCODING 365
SWIDTH 443 0
DWIDTH 6 0
BBX 6 13 0 -2
BITMAP
00
00
50
20
00
88
88
88
88
88
78
00
00
ENDCHAR

STARTCHAR Uring
ENCODING 366
SWIDTH 443 0
DWIDTH 6 0
BBX 6 13 0 -2
BITMAP
20
50
20
88
88
88
88
88
88
88
70
00
00
ENDCHAR

STARTCHAR uring
ENCODING 367
SWIDTH 443 0
DWIDTH 6 0
BBX 6 13 0 -2
BITMAP
00
20
50
20
00
88
88
88
88
88
78
00
00
ENDCHAR

STARTCHAR Udblacute
ENCODING 368
SWIDTH 443 0
DWIDTH 6 0
BBX 6 13 0 -2
BITMAP
28
50
00
88
88
88
88
88
88
88
70
00
00
ENDCHAR

STARTCHAR udblacute
ENCODING 369
SWIDTH 443 0
DWIDTH 6 0
BBX 6 13 0 -2
BITMAP
00
00
28
50
00
88
88
88
88
88
78
00
00
ENDCHAR

STARTCHAR Uogonek
ENCODING 370
SWIDTH 443 0
DWIDTH 6 0
BBX 6 13 0 -2
BITMAP
00
00
00
88
88
88
88
88
88
88
70
20
18
ENDCHAR

STARTCHAR uogonek
ENCODING 371
SWIDTH 443 0
DWIDTH 6 0
BBX 6 13 0 -2
BITMAP
00
00
00
00
00
88
88
88
88
88
78
10
0C
ENDCHAR

STARTCHAR Wcircumflex
ENCODING 372
SWIDTH 443 0
DWIDTH 6 0
BBX 6 13 0 -2
BITMAP
20
50
00
88
88
88
A8
A8
A8
D8
88
00
00
ENDCHAR

STARTCHAR wcircumflex
ENCODING 373
SWIDTH 443 0
DWIDTH 6 0
BBX 6 13 0 -2
BITMAP
00
00
20
50
00
88
A8
A8
A8
A8
70
00
00
ENDCHAR

STARTCHAR Ycircumflex
ENCODING 374
SWIDTH 443 0
DWIDTH 6 0
BBX 6 13 0 -2
BITMAP
20
50
00
88
88
50
50
20
20
20
20
00
00
ENDCHAR

STARTCHAR ycircumflex
ENCODING 375
SWIDTH 443 0
DWIDTH 6 0
BBX 6 13 0 -2
BITMAP
00
00
20
50
00
88
88
88
88
88
78
08
70
ENDCHAR

STARTCHAR Ydieresis
ENCODING 376
SWIDTH 443 0
DWIDTH 6 0
BBX 6 13 0 -2
BITMAP
50
50
00
88
88
50
50
20
20
20
20
00
00
ENDCHAR

STARTCHAR Zacute
ENCODING 377
SWIDTH 443 0
DWIDTH 6 0
BBX 6 13 0 -2
BITMAP
10
20
00
F8
08
10
20
40
80
80
F8
00
00
ENDCHAR

STARTCHAR zacute
ENCODING 378
SWIDTH 443 0
DWIDTH 6 0
BBX 6 13 0 -2
BITMAP
00
00
10
20
00
F8
10
20
40
80
F8
00
00
ENDCHAR

STARTCHAR Zdotaccent
ENCODING 379
SWIDTH 443 0
DWIDTH 6 0
BBX 6 13 0 -2
BITMAP
20
20
00
F8
08
10
20
40
80
80
F8
00
00
ENDCHAR

STARTCHAR zdotaccent
ENCODING 380
SWIDTH 443 0
DWIDTH 6 0
BBX 6 13 0 -2
BITMAP
00
00
20
20
00
F8
10
20
40
80
F8
00
00
ENDCHAR

STARTCHAR Zcaron
ENCODING 381
SWIDTH 443 0
DWIDTH 6 0
BBX 6 13 0 -2
BITMAP
50
20
00
F8
08
10
20
40
80
80
F8
00
00
ENDCHAR

STARTCHAR zcaron
ENCODING 382
SWIDTH 443 0
DWIDTH 6 0
BBX 6 13 0 -2
BITMAP
00
00
50
20
00
F8
10
20
40
80
F8
00
00
ENDCHAR

STARTCHAR slong
ENCODING 383
SWIDTH 443 0
DWIDTH 6 0
BBX 6 13 0 -2
BITMAP
00
00
00
38
40
C0
40
40
40
40
40
00
00
ENDCHAR

STARTCHAR florin
ENCODING 402
SWIDTH 443 0
DWIDTH 6 0
BBX 6 13 0 -2
BITMAP
00
00
00
10
28
20
70
20
20
20
A0
40
00
ENDCHAR

STARTCHAR circumflex
ENCODING 710
SWIDTH 443 0
DWIDTH 6 0
BBX 6 13 0 -2
BITMAP
20
50
00
00
00
00
00
00
00
00
00
00
00
ENDCHAR

STARTCHAR caron
ENCODING 711
SWIDTH 443 0
DWIDTH 6 0
BBX 6 13 0 -2
BITMAP
50
20
00
00
00
00
00
00
00
00
00
00
00
ENDCHAR

STARTCHAR breve
ENCODING 728
SWIDTH 443 0
DWIDTH 6 0
BBX 6 13 0 -2
BITMAP
50
20
00
00
00
00
00
00
00
00
00
00
00
ENDCHAR

STARTCHAR dotaccent
ENCODING 729
SWIDTH 443 0
DWIDTH 6 0
BBX 6 13 0 -2
BITMAP
20
20
00
00
00
00
00
00
00
00
00
00
00
ENDCHAR

STARTCHAR tilde
ENCODING 732
SWIDTH 443 0
DWIDTH 6 0
BBX 6 13 0 -2
BITMAP
28
50
00
00
00
00
00
00
00
00
00
00
00
ENDCHAR

STARTCHAR hungarumlaut
ENCODING 733
SWIDTH 443 0
DWIDTH 6 0
BBX 6 13 0 -2
BITMAP
28
50
00
00
00
00
00
00
00
00
00
00
00
ENDCHAR

STARTCHAR pi
ENCODING 960
SWIDTH 443 0
DWIDTH 6 0
BBX 6 13 0 -2
BITMAP
00
00
00
00
00
F8
50
50
50
50
50
00
00
ENDCHAR

STARTCHAR endash
ENCODING 8211
SWIDTH 443 0
DWIDTH 6 0
BBX 6 13 0 -2
BITMAP
00
00
00
00
00
00
00
F8
00
00
00
00
00
ENDCHAR

STARTCHAR emdash
ENCODING 8212
SWIDTH 443 0
DWIDTH 6 0
BBX 6 13 0 -2
BITMAP
00
00
00
00
00
00
00
F8
00
00
00
00
00
ENDCHAR

STARTCHAR quoteleft
ENCODING 8216
SWIDTH 443 0
DWIDTH 6 0
BBX 6 13 0 -2
BITMAP
00
00
10
20
20
00
00
00
00
00
00
00
00
ENDCHAR

STARTCHAR quoteright
ENCODING 8217
SWIDTH 443 0
DWIDTH 6 0
BBX 6 13 0 -2
BITMAP
00
00
20
20
40
00
00
00
00
00
00
00
00
ENDCHAR

STARTCHAR quotesinglbase
ENCODING 8218
SWIDTH 443 0
DWIDTH 6 0
BBX 6 13 0 -2
BITMAP
00
00
00
00
00
00
00
00
00
20
20
40
00
ENDCHAR

STARTCHAR quotedblleft
ENCODING 8220
SWIDTH 443 0
DWIDTH 6 0
BBX 6 13 0 -2
BITMAP
00
00
50
A0
A0
00
00
00
00
00
00
00
00
ENDCHAR

STARTCHAR quotedblright
ENCODING 8221
SWIDTH 443 0
DWIDTH 6 0
BBX 6 13 0 -2
BITMAP
00
00
28
28
50
00
00
00
00
00
00
00
00
ENDCHAR

STARTCHAR quotedblbase
ENCODING 8222
SWIDTH 443 0
DWIDTH 6 0
BBX 6 13 0 -2
BITMAP
00
00
00
00
00
00
00
00
00
50
50
A0
00
ENDCHAR

STARTCHAR dagger
ENCODING 8224
SWIDTH 443 0
DWIDTH 6 0
BBX 6 13 0 -2
BITMAP
00
00
00
20
70
20
20
20
20
20
20
00
00
ENDCHAR

STARTCHAR daggerdbl
ENCODING 8225
SWIDTH 443 0
DWIDTH 6 0
BBX 6 13 0 -2
BITMAP
00
00
00
20
70
20
20
20
20
70
20
00
00
ENDCHAR

STARTCHAR bullet
ENCODING 8226
SWIDTH 443 0
DWIDTH 6 0
BBX 6 13 0 -2
BITMAP
00
00
00
00
00
00
30
78
78
30
00
00
00
ENDCHAR

STARTCHAR ellipsis
ENCODING 8230
SWIDTH 443 0
DWIDTH 6 0
BBX 6 13 0 -2
BITMAP
00
00
00
00
00
00
00
00
00
A8
A8
00
00
ENDCHAR

STARTCHAR perthousand
ENCODING 8240
SWIDTH 443 0
DWIDTH 6 0
BBX 6 13 0 -2
BITMAP
00
00
00
40
A8
50
20
40
A8
54
28
00
00
ENDCHAR

STARTCHAR guilsinglleft
ENCODING 8249
SWIDTH 443 0
DWIDTH 6 0
BBX 6 13 0 -2
BITMAP
00
00
00
00
10
20
40
80
40
20
10
00
00
ENDCHAR

STARTCHAR guilsinglright
ENCODING 8250
SWIDTH 443 0
DWIDTH 6 0
BBX 6 13 0 -2
BITMAP
00
00
00
00
40
20
10
08
10
20
40
00
00
ENDCHAR

STARTCHAR Euro
ENCODING 8364
SWIDTH 443 0
DWIDTH 6 0
BBX 6 13 0 -2
BITMAP
00
00
00
00
30
48
E0
40
E0
48
30
00
00
ENDCHAR

STARTCHAR trademark
ENCODING 8482
SWIDTH 443 0
DWIDTH 6 0
BBX 6 13 0 -2
BITMAP
00
00
00
00
F4
5C
54
54
00
00
00
00
00
ENDCHAR

STARTCHAR arrowleft
ENCODING 8592
SWIDTH 443 0
DWIDTH 6 0
BBX 6 13 0 -2
BITMAP
00
00
00
00
0C
3C
FC
FC
3C
0C
00
00
00
ENDCHAR

STARTCHAR arrowup
ENCODING 8593
SWIDTH 443 0
DWIDTH 6 0
BBX 6 13 0 -2
BITMAP
00
00
00
20
70
F8
20
20
20
20
20
00
00
ENDCHAR

STARTCHAR arrowright
ENCODING 8594
SWIDTH 443 0
DWIDTH 6 0
BBX 6 13 0 -2
BITMAP
00
00
00
00
C0
F0
FC
FC
F0
C0
00
00
00
ENDCHAR

STARTCHAR arrowdown
ENCODING 8595
SWIDTH 443 0
DWIDTH 6 0
BBX 6 13 0 -2
BITMAP
00
00
00
20
20
20
20
20
F8
70
20
00
00
ENDCHAR

STARTCHAR notequal
ENCODING 8800
SWIDTH 443 0
DWIDTH 6 0
BBX 6 13 0 -2
BITMAP
00
00
00
00
00
10
F8
20
F8
40
00
00
00
ENDCHAR

STARTCHAR lessequal
ENCODING 8804
SWIDTH 443 0
DWIDTH 6 0
BBX 6 13 0 -2
BITMAP
00
00
10
20
40
80
40
20
10
00
F8
00
00
ENDCHAR

STARTCHAR greaterequal
ENCODING 8805
SWIDTH 443 0
DWIDTH 6 0
BBX 6 13 0 -2
BITMAP
00
00
40
20
10
08
10
20
40
00
F8
00
00
ENDCHAR

STARTCHAR house
ENCODING 8962
SWIDTH 443 0
DWIDTH 6 0
BBX 6 13 0 -2
BITMAP
00
00
00
00
20
50
88
88
88
88
F8
00
00
ENDCHAR

STARTCHAR uni23BA
ENCODING 9146
SWIDTH 443 0
DWIDTH 6 0
BBX 6 13 0 -2
BITMAP
FC
00
00
00
00
00
00
00
00
00
00
00
00
ENDCHAR

STARTCHAR uni23BB
ENCODING 9147
SWIDTH 443 0
DWIDTH 6 0
BBX 6 13 0 -2
BITMAP
00
00
00
FC
00
00
00
00
00
00
00
00
00
ENDCHAR

STARTCHAR uni23BC
ENCODING 9148
SWIDTH 443 0
DWIDTH 6 0
BBX 6 13 0 -2
BITMAP
00
00
00
00
00
00
00
00
00
00
FC
00
00
ENDCHAR

STARTCHAR uni23BD
ENCODING 9149
SWIDTH 443 0
DWIDTH 6 0
BBX 6 13 0 -2
BITMAP
00
00
00
00
00
00
00
00
00
00
00
00
FC
ENDCHAR

STARTCHAR uni2409
ENCODING 9225
SWIDTH 443 0
DWIDTH 6 0
BBX 6 13 0 -2
BITMAP
00
90
90
F0
90
90
00
F8
20
20
20
20
00
ENDCHAR

STARTCHAR uni240A
ENCODING 9226
SWIDTH 443 0
DWIDTH 6 0
BBX 6 13 0 -2
BITMAP
00
80
80
80
80
F0
00
78
40
70
40
40
00
ENDCHAR

STARTCHAR uni240B
ENCODING 9227
SWIDTH 443 0
DWIDTH 6 0
BBX 6 13 0 -2
BITMAP
00
88
88
50
50
20
00
F8
20
20
20
20
00
ENDCHAR

STARTCHAR uni240C
ENCODING 9228
SWIDTH 443 0
DWIDTH 6 0
BBX 6 13 0 -2
BITMAP
00
F0
80
E0
80
80
00
78
40
70
40
40
00
ENDCHAR

STARTCHAR uni240D
ENCODING 9229
SWIDTH 443 0
DWIDTH 6 0
BBX 6 13 0 -2
BITMAP
00
60
90
80
90
60
00
70
48
70
50
48
00
ENDCHAR

STARTCHAR uni2424
ENCODING 9252
SWIDTH 443 0
DWIDTH 6 0
BBX 6 13 0 -2
BITMAP
00
90
D0
B0
90
90
00
40
40
40
40
78
00
ENDCHAR

STARTCHAR SF100000
ENCODING 9472
SWIDTH 443 0
DWIDTH 6 0
BBX 6 13 0 -2
BITMAP
00
00
00
00
00
00
00
FC
00
00
00
00
00
ENDCHAR

STARTCHAR SF110000
ENCODING 9474
SWIDTH 443 0
DWIDTH 6 0
BBX 6 13 0 -2
BITMAP
20
20
20
20
20
20
20
20
20
20
20
20
20
ENDCHAR

STARTCHAR SF010000
ENCODING 9484
SWIDTH 443 0
DWIDTH 6 0
BBX 6 13 0 -2
BITMAP
00
00
00
00
00
00
00
3C
20
20
20
20
20
ENDCHAR

STARTCHAR SF030000
ENCODING 9488
SWIDTH 443 0
DWIDTH 6 0
BBX 6 13 0 -2
BITMAP
00
00
00
00
00
00
00
E0
20
20
20
20
20
ENDCHAR

STARTCHAR SF020000
ENCODING 9492
SWIDTH 443 0
DWIDTH 6 0
BBX 6 13 0 -2
BITMAP
20
20
20
20
20
20
20
3C
00
00
00
00
00
ENDCHAR

STARTCHAR SF040000
ENCODING 9496
SWIDTH 443 0
DWIDTH 6 0
BBX 6 13 0 -2
BITMAP
20
20
20
20
20
20
20
E0
00
00
00
00
00
ENDCHAR

STARTCHAR SF080000
ENCODING 9500
SWIDTH 443 0
DWIDTH 6 0
BBX 6 13 0 -2
BITMAP
20
20
20
20
20
20
20
3C
20
20
20
20
20
ENDCHAR

STARTCHAR SF090000
ENCODING 9508
SWIDTH 443 0
DWIDTH 6 0
BBX 6 13 0 -2
BITMAP
20
20
20
20
20
20
20
E0
20
20
20
20
20
ENDCHAR

STARTCHAR SF060000
ENCODING 9516
SWIDTH 443 0
DWIDTH 6 0
BBX 6 13 0 -2
BITMAP
00
00
00
00
00
00
00
FC
20
20
20
20
20
ENDCHAR

STARTCHAR SF070000
ENCODING 9524
SWIDTH 443 0
DWIDTH 6 0
BBX 6 13 0 -2
BITMAP
20
20
20
20
20
20
20
FC
00
00
00
00
00
ENDCHAR

STARTCHAR SF050000
ENCODING 9532
SWIDTH 443 0
DWIDTH 6 0
BBX 6 13 0 -2
BITMAP
20
20
20
20
20
20
20
FC
20
20
20
20
20
ENDCHAR

STARTCHAR SF540000
ENCODING 9578
SWIDTH 443 0
DWIDTH 6 0
BBX 6 13 0 -2
BITMAP
20
20
20
20
20
20
FC
20
FC
20
20
20
20
ENDCHAR

STARTCHAR SF440000
ENCODING 9580
SWIDTH 443 0
DWIDTH 6 0
BBX 6 13 0 -2
BITMAP
50
50
50
50
50
50
DC
00
DC
50
50
50
50
ENDCHAR

STARTCHAR block
ENCODING 9608
SWIDTH 443 0
DWIDTH 6 0
BBX 6 13 0 -2
BITMAP
FC
FC
FC
FC
FC
FC
FC
FC
FC
FC
FC
FC
FC
ENDCHAR

STARTCHAR shadelight
ENCODING 9617
SWIDTH 443 0
DWIDTH 6 0
BBX 6 13 0 -2
BITMAP
94
20
94
20
94
20
94
20
94
20
94
20
94
ENDCHAR

STARTCHAR shademedium
ENCODING 9618
SWIDTH 443 0
DWIDTH 6 0
BBX 6 13 0 -2
BITMAP
54
A8
54
A8
54
A8
54
A8
54
A8
54
A8
54
ENDCHAR

STARTCHAR filledbox
ENCODING 9632
SWIDTH 443 0
DWIDTH 6 0
BBX 6 13 0 -2
BITMAP
00
00
00
00
00
78
78
78
78
78
00
00
00
ENDCHAR

STARTCHAR blackdiamond
ENCODING 9670
SWIDTH 443 0
DWIDTH 6 0
BBX 6 13 0 -2
BITMAP
00
00
00
00
00
20
70
F8
70
20
00
00
00
ENDCHAR

STARTCHAR uniFFFD
ENCODING 65533
SWIDTH 443 0
DWIDTH 6 0
BBX 6 13 0 -2
BITMAP
00
00
00
00
A8
00
88
00
88
00
A8
00
00
ENDCHAR

ENDFONT
