STARTFONT 2.1
FONT -SGI-Haebfix-Medium-R-Normal--15-150-72-72-M-90-ISO8859-1
SIZE 15 72 72
FONTBOUNDINGBOX 12 15 -2 -5

STARTPROPERTIES 25
_DEC_DEVICE_FONTNAMES "FM=Haebfix"
FONTNAME_REGISTRY ""
FOUNDRY "SGI"
FAMILY_NAME "Haebfix"
WEIGHT_NAME "Medium"
SLANT "R"
SETWIDTH_NAME "Normal"
ADD_STYLE_NAME ""
PIXEL_SIZE 15
POINT_SIZE 150
RESOLUTION_X 72
RESOLUTION_Y 72
SPACING "M"
AVERAGE_WIDTH 90
CHARSET_REGISTRY "ISO8859"
CHARSET_ENCODING "1"
CHARSET_COLLECTIONS "ASCII ISO8859-1"
FULL_NAME "Haebfix"
CAP_HEIGHT 10
X_HEIGHT 7
WEIGHT 10
QUAD_WIDTH 9
DEFAULT_CHAR 0
FONT_DESCENT 5
FONT_ASCENT 10
ENDPROPERTIES

CHARS 190

STARTCHAR space
ENCODING 32
SWIDTH 600 0
DWIDTH 9 0
BBX 1 1 0 0
BITMAP
00
ENDCHAR

STARTCHAR exclam
ENCODING 33
SWIDTH 600 0
DWIDTH 9 0
BBX 1 9 4 0
BITMAP
80
80
80
80
80
80
80
00
80
ENDCHAR

STARTCHAR quotedbl
ENCODING 34
SWIDTH 600 0
DWIDTH 9 0
BBX 4 2 1 7
BITMAP
D0
50
ENDCHAR

STARTCHAR numbersign
ENCODING 35
SWIDTH 600 0
DWIDTH 9 0
BBX 6 7 1 0
BITMAP
48
48
FC
48
FC
58
48
ENDCHAR

STARTCHAR dollar
ENCODING 36
SWIDTH 600 0
DWIDTH 9 0
BBX 7 12 1 -2
BITMAP
50
7C
EA
A8
68
3C
2A
2A
6E
3C
24
24
ENDCHAR

STARTCHAR percent
ENCODING 37
SWIDTH 600 0
DWIDTH 9 0
BBX 8 10 1 -1
BITMAP
21
62
A2
E4
0B
1F
15
26
60
40
ENDCHAR

STARTCHAR ampersand
ENCODING 38
SWIDTH 600 0
DWIDTH 9 0
BBX 8 10 1 0
BITMAP
38
28
38
30
30
38
4D
46
8F
B8
ENDCHAR

STARTCHAR quoteright
ENCODING 39
SWIDTH 600 0
DWIDTH 9 0
BBX 2 2 3 7
BITMAP
40
80
ENDCHAR

STARTCHAR parenleft
ENCODING 40
SWIDTH 600 0
DWIDTH 9 0
BBX 3 10 4 -1
BITMAP
40
40
80
80
80
80
80
40
60
20
ENDCHAR

STARTCHAR parenright
ENCODING 41
SWIDTH 600 0
DWIDTH 9 0
BBX 3 11 3 -2
BITMAP
80
40
40
20
20
20
20
40
40
40
80
ENDCHAR

STARTCHAR asterisk
ENCODING 42
SWIDTH 600 0
DWIDTH 9 0
BBX 7 6 2 3
BITMAP
08
58
70
FE
30
58
ENDCHAR

STARTCHAR plus
ENCODING 43
SWIDTH 600 0
DWIDTH 9 0
BBX 7 6 1 1
BITMAP
10
10
FE
10
10
10
ENDCHAR

STARTCHAR comma
ENCODING 44
SWIDTH 600 0
DWIDTH 9 0
BBX 2 3 4 -1
BITMAP
40
C0
80
ENDCHAR

STARTCHAR minus
ENCODING 45
SWIDTH 600 0
DWIDTH 9 0
BBX 6 1 2 4
BITMAP
FC
ENDCHAR

STARTCHAR period
ENCODING 46
SWIDTH 600 0
DWIDTH 9 0
BBX 1 2 4 0
BITMAP
80
80
ENDCHAR

STARTCHAR slash
ENCODING 47
SWIDTH 600 0
DWIDTH 9 0
BBX 5 10 2 -1
BITMAP
08
08
10
10
20
20
40
40
80
80
ENDCHAR

STARTCHAR zero
ENCODING 48
SWIDTH 600 0
DWIDTH 9 0
BBX 7 9 1 0
BITMAP
1C
22
42
82
82
82
82
44
38
ENDCHAR

STARTCHAR one
ENCODING 49
SWIDTH 600 0
DWIDTH 9 0
BBX 2 9 4 0
BITMAP
40
C0
40
40
40
40
40
40
40
ENDCHAR

STARTCHAR two
ENCODING 50
SWIDTH 600 0
DWIDTH 9 0
BBX 7 9 1 0
BITMAP
3E
42
02
04
08
10
20
40
FE
ENDCHAR

STARTCHAR three
ENCODING 51
SWIDTH 600 0
DWIDTH 9 0
BBX 7 10 1 0
BITMAP
FE
84
08
10
3C
02
02
02
C4
38
ENDCHAR

STARTCHAR four
ENCODING 52
SWIDTH 600 0
DWIDTH 9 0
BBX 8 10 1 0
BITMAP
02
06
0A
12
22
42
FF
02
02
02
ENDCHAR

STARTCHAR five
ENCODING 53
SWIDTH 600 0
DWIDTH 9 0
BBX 8 9 1 0
BITMAP
3F
20
40
7C
02
01
02
86
78
ENDCHAR

STARTCHAR six
ENCODING 54
SWIDTH 600 0
DWIDTH 9 0
BBX 6 10 2 0
BITMAP
08
10
20
60
78
44
84
8C
98
60
ENDCHAR

STARTCHAR seven
ENCODING 55
SWIDTH 600 0
DWIDTH 9 0
BBX 7 9 1 0
BITMAP
FE
02
04
1C
08
08
10
10
10
ENDCHAR

STARTCHAR eight
ENCODING 56
SWIDTH 600 0
DWIDTH 9 0
BBX 6 9 2 0
BITMAP
30
44
84
D8
38
44
84
88
F0
ENDCHAR

STARTCHAR nine
ENCODING 57
SWIDTH 600 0
DWIDTH 9 0
BBX 7 10 1 0
BITMAP
0E
32
42
82
86
DA
62
02
02
02
ENDCHAR

STARTCHAR colon
ENCODING 58
SWIDTH 600 0
DWIDTH 9 0
BBX 1 6 4 0
BITMAP
80
80
00
00
80
80
ENDCHAR

STARTCHAR semicolon
ENCODING 59
SWIDTH 600 0
DWIDTH 9 0
BBX 2 8 3 -2
BITMAP
40
40
00
00
40
40
40
80
ENDCHAR

STARTCHAR less
ENCODING 60
SWIDTH 600 0
DWIDTH 9 0
BBX 7 11 1 -2
BITMAP
02
04
08
10
60
C0
20
10
08
04
02
ENDCHAR

STARTCHAR equal
ENCODING 61
SWIDTH 600 0
DWIDTH 9 0
BBX 7 3 1 4
BITMAP
FC
00
7E
ENDCHAR

STARTCHAR greater
ENCODING 62
SWIDTH 600 0
DWIDTH 9 0
BBX 5 10 2 -1
BITMAP
80
40
20
10
08
18
10
20
40
80
ENDCHAR

STARTCHAR question
ENCODING 63
SWIDTH 600 0
DWIDTH 9 0
BBX 7 10 1 0
BITMAP
78
84
02
04
18
10
10
10
00
10
ENDCHAR

STARTCHAR at
ENCODING 64
SWIDTH 600 0
DWIDTH 9 0
BBX 9 11 1 -2
BITMAP
1E00
2100
4180
9E80
A480
A480
A700
9A00
4000
6600
1800
ENDCHAR

STARTCHAR A
ENCODING 65
SWIDTH 600 0
DWIDTH 9 0
BBX 10 10 0 0
BITMAP
0400
0C00
0A00
1200
7F00
2100
2080
4080
4040
8040
ENDCHAR

STARTCHAR B
ENCODING 66
SWIDTH 600 0
DWIDTH 9 0
BBX 7 10 2 0
BITMAP
E0
90
88
90
F8
84
82
82
84
F8
ENDCHAR

STARTCHAR C
ENCODING 67
SWIDTH 600 0
DWIDTH 9 0
BBX 7 9 1 0
BITMAP
3C
40
80
80
80
80
82
46
38
ENDCHAR

STARTCHAR D
ENCODING 68
SWIDTH 600 0
DWIDTH 9 0
BBX 7 10 1 0
BITMAP
C0
B0
8C
82
82
82
86
8C
B0
C0
ENDCHAR

STARTCHAR E
ENCODING 69
SWIDTH 600 0
DWIDTH 9 0
BBX 7 9 2 0
BITMAP
FE
80
80
F0
80
80
80
80
FC
ENDCHAR

STARTCHAR F
ENCODING 70
SWIDTH 600 0
DWIDTH 9 0
BBX 6 10 2 0
BITMAP
FC
80
80
80
80
F0
80
80
80
80
ENDCHAR

STARTCHAR G
ENCODING 71
SWIDTH 600 0
DWIDTH 9 0
BBX 9 9 0 0
BITMAP
3E00
6100
4000
8000
8000
C780
4100
4100
3E00
ENDCHAR

STARTCHAR H
ENCODING 72
SWIDTH 600 0
DWIDTH 9 0
BBX 6 10 2 0
BITMAP
84
84
84
84
FC
84
84
84
84
88
ENDCHAR

STARTCHAR I
ENCODING 73
SWIDTH 600 0
DWIDTH 9 0
BBX 1 9 4 0
BITMAP
80
80
80
80
80
80
80
80
80
ENDCHAR

STARTCHAR J
ENCODING 74
SWIDTH 600 0
DWIDTH 9 0
BBX 7 11 2 -1
BITMAP
0E
38
08
08
08
08
08
88
48
28
10
ENDCHAR

STARTCHAR K
ENCODING 75
SWIDTH 600 0
DWIDTH 9 0
BBX 6 10 2 0
BITMAP
84
84
88
90
A0
E0
D0
88
84
84
ENDCHAR

STARTCHAR L
ENCODING 76
SWIDTH 600 0
DWIDTH 9 0
BBX 6 10 2 0
BITMAP
80
80
80
80
80
80
80
80
84
FC
ENDCHAR

STARTCHAR M
ENCODING 77
SWIDTH 600 0
DWIDTH 9 0
BBX 7 9 1 0
BITMAP
C6
C6
AA
AA
AA
92
82
82
82
ENDCHAR

STARTCHAR N
ENCODING 78
SWIDTH 600 0
DWIDTH 9 0
BBX 6 9 2 0
BITMAP
84
C4
C4
A4
A4
94
8C
8C
84
ENDCHAR

STARTCHAR O
ENCODING 79
SWIDTH 600 0
DWIDTH 9 0
BBX 7 9 1 0
BITMAP
18
64
42
82
82
82
82
44
38
ENDCHAR

STARTCHAR P
ENCODING 80
SWIDTH 600 0
DWIDTH 9 0
BBX 6 10 2 0
BITMAP
80
F0
4C
44
44
5C
60
40
40
40
ENDCHAR

STARTCHAR Q
ENCODING 81
SWIDTH 600 0
DWIDTH 9 0
BBX 9 9 0 0
BITMAP
3E00
4200
4100
8100
8100
8500
4200
6700
1880
ENDCHAR

STARTCHAR R
ENCODING 82
SWIDTH 600 0
DWIDTH 9 0
BBX 7 10 1 0
BITMAP
F8
46
42
42
4C
70
48
44
42
42
ENDCHAR

STARTCHAR S
ENCODING 83
SWIDTH 600 0
DWIDTH 9 0
BBX 7 10 1 0
BITMAP
1C
22
40
40
38
0C
02
82
44
38
ENDCHAR

STARTCHAR T
ENCODING 84
SWIDTH 600 0
DWIDTH 9 0
BBX 9 9 0 0
BITMAP
FF80
0800
0800
0800
0800
0800
0800
0800
0800
ENDCHAR

STARTCHAR U
ENCODING 85
SWIDTH 600 0
DWIDTH 9 0
BBX 6 9 2 0
BITMAP
84
84
84
84
84
84
88
98
60
ENDCHAR

STARTCHAR V
ENCODING 86
SWIDTH 600 0
DWIDTH 9 0
BBX 9 10 0 0
BITMAP
0080
8100
4100
4200
2200
2600
1400
1400
1800
0800
ENDCHAR

STARTCHAR W
ENCODING 87
SWIDTH 600 0
DWIDTH 9 0
BBX 12 9 -2 0
BITMAP
8010
4020
2020
2220
1340
1540
1540
0C80
0880
ENDCHAR

STARTCHAR X
ENCODING 88
SWIDTH 600 0
DWIDTH 9 0
BBX 8 10 1 0
BITMAP
02
84
44
28
18
18
24
42
43
81
ENDCHAR

STARTCHAR Y
ENCODING 89
SWIDTH 600 0
DWIDTH 9 0
BBX 8 11 1 -1
BITMAP
01
82
42
24
28
18
10
10
10
10
10
ENDCHAR

STARTCHAR Z
ENCODING 90
SWIDTH 600 0
DWIDTH 9 0
BBX 8 9 1 0
BITMAP
FF
02
04
08
18
10
20
40
FF
ENDCHAR

STARTCHAR bracketleft
ENCODING 91
SWIDTH 600 0
DWIDTH 9 0
BBX 3 11 4 -1
BITMAP
80
80
80
80
80
80
80
80
80
80
E0
ENDCHAR

STARTCHAR backslash
ENCODING 92
SWIDTH 600 0
DWIDTH 9 0
BBX 7 11 2 -1
BITMAP
80
80
40
20
20
10
18
08
04
04
02
ENDCHAR

STARTCHAR bracketright
ENCODING 93
SWIDTH 600 0
DWIDTH 9 0
BBX 3 11 3 -1
BITMAP
20
20
20
20
20
20
20
20
20
20
E0
ENDCHAR

STARTCHAR asciicircum
ENCODING 94
SWIDTH 600 0
DWIDTH 9 0
BBX 7 4 1 6
BITMAP
10
28
44
82
ENDCHAR

STARTCHAR underscore
ENCODING 95
SWIDTH 600 0
DWIDTH 9 0
BBX 8 1 1 0
BITMAP
FF
ENDCHAR

STARTCHAR quoteleft
ENCODING 96
SWIDTH 600 0
DWIDTH 9 0
BBX 2 2 3 8
BITMAP
80
40
ENDCHAR

STARTCHAR a
ENCODING 97
SWIDTH 600 0
DWIDTH 9 0
BBX 7 8 1 0
BITMAP
60
18
04
3C
46
82
42
3E
ENDCHAR

STARTCHAR b
ENCODING 98
SWIDTH 600 0
DWIDTH 9 0
BBX 5 10 2 0
BITMAP
80
80
80
80
F0
88
88
88
98
F0
ENDCHAR

STARTCHAR c
ENCODING 99
SWIDTH 600 0
DWIDTH 9 0
BBX 7 7 1 0
BITMAP
38
44
40
80
80
40
3E
ENDCHAR

STARTCHAR d
ENCODING 100
SWIDTH 600 0
DWIDTH 9 0
BBX 7 10 1 0
BITMAP
02
02
02
02
3A
46
82
82
42
3E
ENDCHAR

STARTCHAR e
ENCODING 101
SWIDTH 600 0
DWIDTH 9 0
BBX 6 7 2 0
BITMAP
70
88
98
E0
84
CC
78
ENDCHAR

STARTCHAR f
ENCODING 102
SWIDTH 600 0
DWIDTH 9 0
BBX 6 10 1 0
BITMAP
0C
10
20
20
20
F8
20
20
20
20
ENDCHAR

STARTCHAR g
ENCODING 103
SWIDTH 600 0
DWIDTH 9 0
BBX 6 11 2 -5
BITMAP
1C
64
44
84
9C
F4
04
04
84
48
38
ENDCHAR

STARTCHAR h
ENCODING 104
SWIDTH 600 0
DWIDTH 9 0
BBX 5 9 2 0
BITMAP
80
80
80
90
E8
88
88
88
88
ENDCHAR

STARTCHAR i
ENCODING 105
SWIDTH 600 0
DWIDTH 9 0
BBX 2 10 4 0
BITMAP
80
C0
40
00
80
80
80
80
80
80
ENDCHAR

STARTCHAR j
ENCODING 106
SWIDTH 600 0
DWIDTH 9 0
BBX 5 13 2 -4
BITMAP
10
08
00
10
10
10
10
10
10
90
50
30
10
ENDCHAR

STARTCHAR k
ENCODING 107
SWIDTH 600 0
DWIDTH 9 0
BBX 5 10 2 0
BITMAP
80
80
80
88
90
A0
E0
90
88
88
ENDCHAR

STARTCHAR l
ENCODING 108
SWIDTH 600 0
DWIDTH 9 0
BBX 1 10 4 0
BITMAP
80
80
80
80
80
80
80
80
80
80
ENDCHAR

STARTCHAR m
ENCODING 109
SWIDTH 600 0
DWIDTH 9 0
BBX 8 7 1 0
BITMAP
90
BB
CD
89
89
89
89
ENDCHAR

STARTCHAR n
ENCODING 110
SWIDTH 600 0
DWIDTH 9 0
BBX 5 7 3 0
BITMAP
B8
C8
88
88
88
88
88
ENDCHAR

STARTCHAR o
ENCODING 111
SWIDTH 600 0
DWIDTH 9 0
BBX 6 7 2 0
BITMAP
38
44
84
84
84
98
60
ENDCHAR

STARTCHAR p
ENCODING 112
SWIDTH 600 0
DWIDTH 9 0
BBX 6 10 2 -4
BITMAP
F0
88
84
84
8C
F0
80
80
80
80
ENDCHAR

STARTCHAR q
ENCODING 113
SWIDTH 600 0
DWIDTH 9 0
BBX 7 11 2 -5
BITMAP
08
38
C8
88
88
F8
08
08
0A
0C
08
ENDCHAR

STARTCHAR r
ENCODING 114
SWIDTH 600 0
DWIDTH 9 0
BBX 5 7 3 0
BITMAP
88
B0
C0
80
80
80
80
ENDCHAR

STARTCHAR s
ENCODING 115
SWIDTH 600 0
DWIDTH 9 0
BBX 5 7 2 0
BITMAP
70
80
80
70
08
88
70
ENDCHAR

STARTCHAR t
ENCODING 116
SWIDTH 600 0
DWIDTH 9 0
BBX 6 9 1 0
BITMAP
20
20
F8
20
20
20
24
28
10
ENDCHAR

STARTCHAR u
ENCODING 117
SWIDTH 600 0
DWIDTH 9 0
BBX 7 7 2 0
BITMAP
88
88
88
88
88
98
66
ENDCHAR

STARTCHAR v
ENCODING 118
SWIDTH 600 0
DWIDTH 9 0
BBX 7 6 1 1
BITMAP
82
42
44
24
28
18
ENDCHAR

STARTCHAR w
ENCODING 119
SWIDTH 600 0
DWIDTH 9 0
BBX 9 6 1 0
BITMAP
8080
4080
4900
5500
3600
2200
ENDCHAR

STARTCHAR x
ENCODING 120
SWIDTH 600 0
DWIDTH 9 0
BBX 6 7 2 0
BITMAP
80
44
28
10
30
48
84
ENDCHAR

STARTCHAR y
ENCODING 121
SWIDTH 600 0
DWIDTH 9 0
BBX 6 9 2 -4
BITMAP
84
48
28
30
10
10
20
20
40
ENDCHAR

STARTCHAR z
ENCODING 122
SWIDTH 600 0
DWIDTH 9 0
BBX 6 6 2 0
BITMAP
FC
08
10
20
40
FC
ENDCHAR

STARTCHAR braceleft
ENCODING 123
SWIDTH 600 0
DWIDTH 9 0
BBX 3 11 3 -2
BITMAP
60
40
40
40
C0
80
40
40
40
40
20
ENDCHAR

STARTCHAR bar
ENCODING 124
SWIDTH 600 0
DWIDTH 9 0
BBX 1 11 4 -2
BITMAP
80
80
80
80
80
80
80
80
80
80
80
ENDCHAR

STARTCHAR braceright
ENCODING 125
SWIDTH 600 0
DWIDTH 9 0
BBX 3 11 4 -2
BITMAP
C0
40
40
40
40
60
40
40
40
40
C0
ENDCHAR

STARTCHAR asciitilde
ENCODING 126
SWIDTH 600 0
DWIDTH 9 0
BBX 7 2 1 4
BITMAP
F2
8E
ENDCHAR

STARTCHAR exclamdown
ENCODING 161
SWIDTH 600 0
DWIDTH 9 0
BBX 1 9 4 -2
BITMAP
80
00
80
80
80
80
80
80
80
ENDCHAR

STARTCHAR cent
ENCODING 162
SWIDTH 600 0
DWIDTH 9 0
BBX 5 9 2 0
BITMAP
20
20
70
88
80
88
70
20
20
ENDCHAR

STARTCHAR sterling
ENCODING 163
SWIDTH 600 0
DWIDTH 9 0
BBX 9 9 -1 0
BITMAP
1E00
2100
2000
2000
F800
2000
2000
2180
7F00
ENDCHAR

STARTCHAR currency
ENCODING 164
SWIDTH 600 0
DWIDTH 9 0
BBX 6 6 1 2
BITMAP
C4
7C
48
48
FC
84
ENDCHAR

STARTCHAR yen
ENCODING 165
SWIDTH 600 0
DWIDTH 9 0
BBX 7 9 1 0
BITMAP
82
C6
6C
28
7C
10
7C
10
38
ENDCHAR

STARTCHAR brokenbar
ENCODING 166
SWIDTH 600 0
DWIDTH 9 0
BBX 1 11 4 -2
BITMAP
80
80
80
80
80
00
80
80
80
80
80
ENDCHAR

STARTCHAR section
ENCODING 167
SWIDTH 600 0
DWIDTH 9 0
BBX 6 11 2 -2
BITMAP
78
84
80
70
88
84
44
38
04
84
78
ENDCHAR

STARTCHAR dieresis
ENCODING 168
SWIDTH 600 0
DWIDTH 9 0
BBX 4 2 2 7
BITMAP
90
90
ENDCHAR

STARTCHAR copyright
ENCODING 169
SWIDTH 600 0
DWIDTH 9 0
BBX 8 8 0 0
BITMAP
3C
42
99
A1
A1
99
42
3C
ENDCHAR

STARTCHAR ordfeminine
ENCODING 170
SWIDTH 600 0
DWIDTH 9 0
BBX 4 6 2 3
BITMAP
E0
20
E0
B0
00
F0
ENDCHAR

STARTCHAR guillemotleft
ENCODING 171
SWIDTH 600 0
DWIDTH 9 0
BBX 7 7 0 0
BITMAP
12
24
48
90
48
24
12
ENDCHAR

STARTCHAR logicalnot
ENCODING 172
SWIDTH 600 0
DWIDTH 9 0
BBX 6 3 1 3
BITMAP
FC
04
04
ENDCHAR

STARTCHAR hyphen
ENCODING 173
SWIDTH 600 0
DWIDTH 9 0
BBX 6 1 1 4
BITMAP
FC
ENDCHAR

STARTCHAR registered
ENCODING 174
SWIDTH 600 0
DWIDTH 9 0
BBX 8 8 0 0
BITMAP
3C
42
99
95
99
95
42
3C
ENDCHAR

STARTCHAR macron
ENCODING 175
SWIDTH 600 0
DWIDTH 9 0
BBX 4 1 2 7
BITMAP
F0
ENDCHAR

STARTCHAR degree
ENCODING 176
SWIDTH 600 0
DWIDTH 9 0
BBX 4 4 2 4
BITMAP
60
90
90
60
ENDCHAR

STARTCHAR plusminus
ENCODING 177
SWIDTH 600 0
DWIDTH 9 0
BBX 7 7 1 0
BITMAP
10
10
FE
10
10
00
FE
ENDCHAR

STARTCHAR twosuperior
ENCODING 178
SWIDTH 600 0
DWIDTH 9 0
BBX 3 5 3 3
BITMAP
C0
20
40
80
E0
ENDCHAR

STARTCHAR threesuperior
ENCODING 179
SWIDTH 600 0
DWIDTH 9 0
BBX 3 5 3 3
BITMAP
C0
20
40
20
C0
ENDCHAR

STARTCHAR acute
ENCODING 180
SWIDTH 600 0
DWIDTH 9 0
BBX 3 3 3 6
BITMAP
20
40
80
ENDCHAR

STARTCHAR mu
ENCODING 181
SWIDTH 600 0
DWIDTH 9 0
BBX 7 10 2 -3
BITMAP
88
88
88
88
88
98
E6
80
80
80
ENDCHAR

STARTCHAR paragraph
ENCODING 182
SWIDTH 600 0
DWIDTH 9 0
BBX 8 10 0 -1
BITMAP
3F
52
92
92
52
32
12
12
12
33
ENDCHAR

STARTCHAR periodcentered
ENCODING 183
SWIDTH 600 0
DWIDTH 9 0
BBX 1 2 4 3
BITMAP
80
80
ENDCHAR

STARTCHAR cedilla
ENCODING 184
SWIDTH 600 0
DWIDTH 9 0
BBX 3 3 3 -3
BITMAP
60
20
E0
ENDCHAR

STARTCHAR onesuperior
ENCODING 185
SWIDTH 600 0
DWIDTH 9 0
BBX 3 5 3 3
BITMAP
C0
40
40
40
E0
ENDCHAR

STARTCHAR ordmasculine
ENCODING 186
SWIDTH 600 0
DWIDTH 9 0
BBX 4 6 2 3
BITMAP
60
90
90
60
00
F0
ENDCHAR

STARTCHAR guillemotright
ENCODING 187
SWIDTH 600 0
DWIDTH 9 0
BBX 7 7 1 0
BITMAP
90
48
24
12
24
48
90
ENDCHAR

STARTCHAR onequarter
ENCODING 188
SWIDTH 600 0
DWIDTH 9 0
BBX 8 9 0 0
BITMAP
C0
41
42
44
EA
16
2A
4F
82
ENDCHAR

STARTCHAR onehalf
ENCODING 189
SWIDTH 600 0
DWIDTH 9 0
BBX 8 10 0 -1
BITMAP
C0
41
42
44
E8
16
21
42
84
07
ENDCHAR

STARTCHAR threequarters
ENCODING 190
SWIDTH 600 0
DWIDTH 9 0
BBX 8 8 0 0
BITMAP
C1
22
44
2A
D6
2A
4F
82
ENDCHAR

STARTCHAR questiondown
ENCODING 191
SWIDTH 600 0
DWIDTH 9 0
BBX 7 10 1 -3
BITMAP
10
00
10
10
10
30
40
80
42
3C
ENDCHAR

STARTCHAR Agrave
ENCODING 192
SWIDTH 600 0
DWIDTH 9 0
BBX 8 10 0 0
BITMAP
10
08
00
08
14
24
42
7E
41
81
ENDCHAR

STARTCHAR Aacute
ENCODING 193
SWIDTH 600 0
DWIDTH 9 0
BBX 8 10 0 0
BITMAP
04
08
00
08
14
24
42
7E
41
81
ENDCHAR

STARTCHAR Acircumflex
ENCODING 194
SWIDTH 600 0
DWIDTH 9 0
BBX 8 10 0 0
BITMAP
18
24
00
08
14
24
42
7E
41
81
ENDCHAR

STARTCHAR Atilde
ENCODING 195
SWIDTH 600 0
DWIDTH 9 0
BBX 8 10 0 0
BITMAP
12
2C
00
08
14
24
42
7E
41
81
ENDCHAR

STARTCHAR Adieresis
ENCODING 196
SWIDTH 600 0
DWIDTH 9 0
BBX 8 9 0 0
BITMAP
36
00
08
14
24
42
7E
41
81
ENDCHAR

STARTCHAR Aring
ENCODING 197
SWIDTH 600 0
DWIDTH 9 0
BBX 8 10 0 0
BITMAP
08
14
08
08
14
24
42
7E
41
81
ENDCHAR

STARTCHAR AE
ENCODING 198
SWIDTH 600 0
DWIDTH 9 0
BBX 9 9 0 0
BITMAP
1F80
2800
4800
4800
8F00
F800
8800
8800
8F80
ENDCHAR

STARTCHAR Ccedilla
ENCODING 199
SWIDTH 600 0
DWIDTH 9 0
BBX 7 12 1 -3
BITMAP
3C
40
80
80
80
80
82
46
38
18
08
38
ENDCHAR

STARTCHAR Egrave
ENCODING 200
SWIDTH 600 0
DWIDTH 9 0
BBX 6 10 2 0
BITMAP
20
10
00
FC
80
80
F0
80
80
FC
ENDCHAR

STARTCHAR Eacute
ENCODING 201
SWIDTH 600 0
DWIDTH 9 0
BBX 6 10 2 0
BITMAP
10
20
00
FC
80
80
F0
80
80
FC
ENDCHAR

STARTCHAR Ecircumflex
ENCODING 202
SWIDTH 600 0
DWIDTH 9 0
BBX 6 10 2 0
BITMAP
30
48
00
FC
80
80
F0
80
80
FC
ENDCHAR

STARTCHAR Edieresis
ENCODING 203
SWIDTH 600 0
DWIDTH 9 0
BBX 6 9 2 0
BITMAP
6C
00
FC
80
80
F0
80
80
FC
ENDCHAR

STARTCHAR Igrave
ENCODING 204
SWIDTH 600 0
DWIDTH 9 0
BBX 2 10 3 0
BITMAP
80
40
00
40
40
40
40
40
40
40
ENDCHAR

STARTCHAR Iacute
ENCODING 205
SWIDTH 600 0
DWIDTH 9 0
BBX 2 10 4 0
BITMAP
40
80
00
80
80
80
80
80
80
80
ENDCHAR

STARTCHAR Icircumflex
ENCODING 206
SWIDTH 600 0
DWIDTH 9 0
BBX 3 10 3 0
BITMAP
40
A0
00
40
40
40
40
40
40
40
ENDCHAR

STARTCHAR Idieresis
ENCODING 207
SWIDTH 600 0
DWIDTH 9 0
BBX 5 9 2 0
BITMAP
D8
00
20
20
20
20
20
20
20
ENDCHAR

STARTCHAR Eth
ENCODING 208
SWIDTH 600 0
DWIDTH 9 0
BBX 9 8 -1 0
BITMAP
3C00
2300
2080
2080
F880
2100
2200
3C00
ENDCHAR

STARTCHAR Ntilde
ENCODING 209
SWIDTH 600 0
DWIDTH 9 0
BBX 6 10 2 0
BITMAP
28
50
00
84
C4
A4
94
8C
8C
84
ENDCHAR

STARTCHAR Ograve
ENCODING 210
SWIDTH 600 0
DWIDTH 9 0
BBX 7 10 1 0
BITMAP
20
10
00
3C
42
82
82
82
44
38
ENDCHAR

STARTCHAR Oacute
ENCODING 211
SWIDTH 600 0
DWIDTH 9 0
BBX 7 10 1 0
BITMAP
08
10
00
3C
42
82
82
82
44
38
ENDCHAR

STARTCHAR Ocircumflex
ENCODING 212
SWIDTH 600 0
DWIDTH 9 0
BBX 7 10 1 0
BITMAP
18
24
00
3C
42
82
82
82
44
38
ENDCHAR

STARTCHAR Otilde
ENCODING 213
SWIDTH 600 0
DWIDTH 9 0
BBX 7 10 1 0
BITMAP
24
58
00
3C
42
82
82
82
44
38
ENDCHAR

STARTCHAR Odieresis
ENCODING 214
SWIDTH 600 0
DWIDTH 9 0
BBX 7 9 1 0
BITMAP
36
00
3C
42
82
82
82
44
38
ENDCHAR

STARTCHAR multiply
ENCODING 215
SWIDTH 600 0
DWIDTH 9 0
BBX 6 6 1 1
BITMAP
84
48
30
30
48
84
ENDCHAR

STARTCHAR Oslash
ENCODING 216
SWIDTH 600 0
DWIDTH 9 0
BBX 9 9 0 0
BITMAP
0C80
3300
2300
4500
4900
5100
6100
6200
9C00
ENDCHAR

STARTCHAR Ugrave
ENCODING 217
SWIDTH 600 0
DWIDTH 9 0
BBX 6 10 2 0
BITMAP
20
10
00
84
84
84
84
88
98
60
ENDCHAR

STARTCHAR Uacute
ENCODING 218
SWIDTH 600 0
DWIDTH 9 0
BBX 6 10 2 0
BITMAP
08
10
00
84
84
84
84
88
98
60
ENDCHAR

STARTCHAR Ucircumflex
ENCODING 219
SWIDTH 600 0
DWIDTH 9 0
BBX 6 10 2 0
BITMAP
30
48
00
84
84
84
84
88
98
60
ENDCHAR

STARTCHAR Udieresis
ENCODING 220
SWIDTH 600 0
DWIDTH 9 0
BBX 6 9 2 0
BITMAP
6C
00
84
84
84
84
88
98
60
ENDCHAR

STARTCHAR Yacute
ENCODING 221
SWIDTH 600 0
DWIDTH 9 0
BBX 7 10 1 0
BITMAP
08
10
82
44
44
28
10
10
10
10
ENDCHAR

STARTCHAR Thorn
ENCODING 222
SWIDTH 600 0
DWIDTH 9 0
BBX 6 9 0 0
BITMAP
E0
40
78
44
44
44
78
40
E0
ENDCHAR

STARTCHAR germandbls
ENCODING 223
SWIDTH 600 0
DWIDTH 9 0
BBX 6 9 1 0
BITMAP
70
88
88
90
88
84
84
A4
98
ENDCHAR

STARTCHAR agrave
ENCODING 224
SWIDTH 600 0
DWIDTH 9 0
BBX 7 10 1 0
BITMAP
10
08
60
18
04
3C
46
82
42
3E
ENDCHAR

STARTCHAR aacute
ENCODING 225
SWIDTH 600 0
DWIDTH 9 0
BBX 7 10 1 0
BITMAP
04
08
60
18
04
3C
46
82
42
3E
ENDCHAR

STARTCHAR acircumflex
ENCODING 226
SWIDTH 600 0
DWIDTH 9 0
BBX 7 10 1 0
BITMAP
18
24
60
18
04
3C
46
82
42
3E
ENDCHAR

STARTCHAR atilde
ENCODING 227
SWIDTH 600 0
DWIDTH 9 0
BBX 7 10 1 0
BITMAP
12
2C
60
18
04
3C
46
82
42
3E
ENDCHAR

STARTCHAR adieresis
ENCODING 228
SWIDTH 600 0
DWIDTH 9 0
BBX 7 10 1 0
BITMAP
36
00
60
18
04
3C
46
82
42
3E
ENDCHAR

STARTCHAR aring
ENCODING 229
SWIDTH 600 0
DWIDTH 9 0
BBX 7 10 1 0
BITMAP
08
14
68
18
04
3C
46
82
42
3E
ENDCHAR

STARTCHAR ae
ENCODING 230
SWIDTH 600 0
DWIDTH 9 0
BBX 9 7 0 0
BITMAP
7700
8880
0880
7F80
8800
8880
7700
ENDCHAR

STARTCHAR ccedilla
ENCODING 231
SWIDTH 600 0
DWIDTH 9 0
BBX 7 10 1 -3
BITMAP
38
44
40
80
80
40
3E
18
08
38
ENDCHAR

STARTCHAR egrave
ENCODING 232
SWIDTH 600 0
DWIDTH 9 0
BBX 6 10 2 0
BITMAP
40
20
00
70
88
98
E0
84
84
78
ENDCHAR

STARTCHAR eacute
ENCODING 233
SWIDTH 600 0
DWIDTH 9 0
BBX 6 10 2 0
BITMAP
10
20
00
70
88
98
E0
84
84
78
ENDCHAR

STARTCHAR ecircumflex
ENCODING 234
SWIDTH 600 0
DWIDTH 9 0
BBX 6 10 2 0
BITMAP
30
48
00
70
88
98
E0
84
84
78
ENDCHAR

STARTCHAR edieresis
ENCODING 235
SWIDTH 600 0
DWIDTH 9 0
BBX 6 9 2 0
BITMAP
D8
00
70
88
98
E0
84
84
78
ENDCHAR

STARTCHAR igrave
ENCODING 236
SWIDTH 600 0
DWIDTH 9 0
BBX 2 9 3 0
BITMAP
80
40
00
40
40
40
40
40
40
ENDCHAR

STARTCHAR iacute
ENCODING 237
SWIDTH 600 0
DWIDTH 9 0
BBX 2 9 4 0
BITMAP
40
80
00
80
80
80
80
80
80
ENDCHAR

STARTCHAR icircumflex
ENCODING 238
SWIDTH 600 0
DWIDTH 9 0
BBX 3 9 3 0
BITMAP
40
A0
00
40
40
40
40
40
40
ENDCHAR

STARTCHAR idieresis
ENCODING 239
SWIDTH 600 0
DWIDTH 9 0
BBX 5 8 2 0
BITMAP
D8
00
20
20
20
20
20
20
ENDCHAR

STARTCHAR eth
ENCODING 240
SWIDTH 600 0
DWIDTH 9 0
BBX 6 10 2 0
BITMAP
CC
78
C4
3C
44
84
84
84
98
60
ENDCHAR

STARTCHAR ntilde
ENCODING 241
SWIDTH 600 0
DWIDTH 9 0
BBX 5 10 3 0
BITMAP
48
B0
00
B8
C8
88
88
88
88
88
ENDCHAR

STARTCHAR ograve
ENCODING 242
SWIDTH 600 0
DWIDTH 9 0
BBX 6 10 2 0
BITMAP
20
10
00
38
44
84
84
84
98
60
ENDCHAR

STARTCHAR oacute
ENCODING 243
SWIDTH 600 0
DWIDTH 9 0
BBX 6 10 2 0
BITMAP
08
10
00
38
44
84
84
84
98
60
ENDCHAR

STARTCHAR ocircumflex
ENCODING 244
SWIDTH 600 0
DWIDTH 9 0
BBX 6 10 2 0
BITMAP
30
48
00
38
44
84
84
84
98
60
ENDCHAR

STARTCHAR otilde
ENCODING 245
SWIDTH 600 0
DWIDTH 9 0
BBX 6 10 2 0
BITMAP
24
58
00
38
44
84
84
84
98
60
ENDCHAR

STARTCHAR odieresis
ENCODING 246
SWIDTH 600 0
DWIDTH 9 0
BBX 6 9 2 0
BITMAP
6C
00
38
44
84
84
84
98
60
ENDCHAR

STARTCHAR divide
ENCODING 247
SWIDTH 600 0
DWIDTH 9 0
BBX 6 7 2 1
BITMAP
30
00
00
FC
00
00
30
ENDCHAR

STARTCHAR oslash
ENCODING 248
SWIDTH 600 0
DWIDTH 9 0
BBX 8 8 1 0
BITMAP
01
1E
26
4A
52
62
4C
B0
ENDCHAR

STARTCHAR ugrave
ENCODING 249
SWIDTH 600 0
DWIDTH 9 0
BBX 7 10 2 0
BITMAP
40
20
00
88
88
88
88
88
98
66
ENDCHAR

STARTCHAR uacute
ENCODING 250
SWIDTH 600 0
DWIDTH 9 0
BBX 7 10 2 0
BITMAP
10
20
00
88
88
88
88
88
98
66
ENDCHAR

STARTCHAR ucircumflex
ENCODING 251
SWIDTH 600 0
DWIDTH 9 0
BBX 7 10 2 0
BITMAP
30
48
00
88
88
88
88
88
98
66
ENDCHAR

STARTCHAR udieresis
ENCODING 252
SWIDTH 600 0
DWIDTH 9 0
BBX 7 9 2 0
BITMAP
D8
00
88
88
88
88
88
98
66
ENDCHAR

STARTCHAR yacute
ENCODING 253
SWIDTH 600 0
DWIDTH 9 0
BBX 6 12 2 -4
BITMAP
08
10
00
84
48
28
30
10
10
20
20
40
ENDCHAR

STARTCHAR thorn
ENCODING 254
SWIDTH 600 0
DWIDTH 9 0
BBX 8 12 0 -3
BITMAP
C0
40
5C
62
41
41
41
62
5C
40
40
E0
ENDCHAR

STARTCHAR ydieresis
ENCODING 255
SWIDTH 600 0
DWIDTH 9 0
BBX 6 11 2 -4
BITMAP
6C
00
84
48
28
30
10
10
20
20
40
ENDCHAR

ENDFONT
