STARTFONT 2.1
FONT -SGI-Haeberli-Medium-R-Normal--24-240-72-72-P-126-ISO8859-1
SIZE 24 72 72
FONTBOUNDINGBOX 18 24 0 -8

STARTPROPERTIES 25
_DEC_DEVICE_FONTNAMES "FM=Haeberli"
FONTNAME_REGISTRY ""
FOUNDRY "SGI"
FAMILY_NAME "Haeberli"
WEIGHT_NAME "Medium"
SLANT "R"
SETWIDTH_NAME "Normal"
ADD_STYLE_NAME ""
PIXEL_SIZE 24
POINT_SIZE 240
RESOLUTION_X 72
RESOLUTION_Y 72
SPACING "P"
AVERAGE_WIDTH 126
CHARSET_REGISTRY "ISO8859"
CHARSET_ENCODING "1"
CHARSET_COLLECTIONS "ASCII ISO8859-1"
FULL_NAME "Haeberli"
CAP_HEIGHT 16
X_HEIGHT 11
WEIGHT 10
QUAD_WIDTH 13
DEFAULT_CHAR 0
FONT_DESCENT 8
FONT_ASCENT 16
ENDPROPERTIES

CHARS 190

STARTCHAR space
ENCODING 32
SWIDTH 432 0
DWIDTH 10 0
BBX 1 1 0 0
BITMAP
00
ENDCHAR

STARTCHAR exclam
ENCODING 33
SWIDTH 250 0
DWIDTH 6 0
BBX 3 15 3 0
BITMAP
60
60
60
60
60
60
40
C0
C0
C0
C0
C0
00
C0
C0
ENDCHAR

STARTCHAR quotedbl
ENCODING 34
SWIDTH 393 0
DWIDTH 9 0
BBX 7 5 2 10
BITMAP
C8
CC
6C
66
04
ENDCHAR

STARTCHAR numbersign
ENCODING 35
SWIDTH 595 0
DWIDTH 14 0
BBX 12 13 2 2
BITMAP
0400
0C00
FD80
7D80
1F80
DBC0
FBE0
7F00
37E0
66F0
6C00
6C00
0800
ENDCHAR

STARTCHAR dollar
ENCODING 36
SWIDTH 612 0
DWIDTH 15 0
BBX 12 19 2 -4
BITMAP
6600
3F00
3FC0
F3F0
DB20
DB00
FB00
3F00
1FC0
19E0
0DB0
0DB0
6DF0
7FE0
1FC0
0D80
0980
1980
0100
ENDCHAR

STARTCHAR percent
ENCODING 37
SWIDTH 655 0
DWIDTH 16 0
BBX 13 16 2 -2
BITMAP
0018
3038
7070
D860
D8C0
F1C0
E180
4320
0778
06D8
0DB0
19F0
39E0
30C0
6000
6000
ENDCHAR

STARTCHAR ampersand
ENCODING 38
SWIDTH 666 0
DWIDTH 16 0
BBX 13 17 2 -1
BITMAP
1E00
1F00
3300
3600
1E00
1C00
1C00
1E00
1F00
3318
71B8
60F0
C0F0
C3F0
CF18
FE00
7800
ENDCHAR

STARTCHAR quoteright
ENCODING 39
SWIDTH 241 0
DWIDTH 6 0
BBX 3 4 2 10
BITMAP
60
C0
C0
80
ENDCHAR

STARTCHAR parenleft
ENCODING 40
SWIDTH 334 0
DWIDTH 8 0
BBX 5 17 2 -3
BITMAP
30
30
60
60
C0
C0
C0
C0
C0
C0
C0
C0
60
70
30
18
18
ENDCHAR

STARTCHAR parenright
ENCODING 41
SWIDTH 299 0
DWIDTH 7 0
BBX 4 18 2 -3
BITMAP
C0
E0
60
70
30
30
30
10
10
10
30
30
30
30
60
60
60
C0
ENDCHAR

STARTCHAR asterisk
ENCODING 42
SWIDTH 596 0
DWIDTH 14 0
BBX 12 10 2 3
BITMAP
2180
3380
3B00
1E00
0FF0
FFC0
FE00
1B00
3380
2000
ENDCHAR

STARTCHAR plus
ENCODING 43
SWIDTH 530 0
DWIDTH 13 0
BBX 10 10 2 2
BITMAP
0C00
0C00
0C00
7FC0
FFC0
0C00
0C00
0C00
0C00
0800
ENDCHAR

STARTCHAR comma
ENCODING 44
SWIDTH 238 0
DWIDTH 6 0
BBX 3 5 2 -2
BITMAP
60
60
60
C0
C0
ENDCHAR

STARTCHAR minus
ENCODING 45
SWIDTH 545 0
DWIDTH 13 0
BBX 10 3 2 6
BITMAP
1000
FFC0
03C0
ENDCHAR

STARTCHAR period
ENCODING 46
SWIDTH 219 0
DWIDTH 5 0
BBX 3 2 2 0
BITMAP
E0
E0
ENDCHAR

STARTCHAR slash
ENCODING 47
SWIDTH 512 0
DWIDTH 12 0
BBX 9 17 2 -2
BITMAP
0080
0180
0180
0180
0300
0300
0600
0600
0C00
0C00
1800
1800
3000
6000
6000
C000
8000
ENDCHAR

STARTCHAR zero
ENCODING 48
SWIDTH 596 0
DWIDTH 14 0
BBX 12 15 2 0
BITMAP
0780
1FC0
3860
7060
6030
C030
C030
C030
C060
C060
C060
60C0
3180
3F80
0E00
ENDCHAR

STARTCHAR one
ENCODING 49
SWIDTH 291 0
DWIDTH 7 0
BBX 4 15 2 0
BITMAP
30
70
F0
B0
30
30
30
30
30
30
30
30
30
30
20
ENDCHAR

STARTCHAR two
ENCODING 50
SWIDTH 588 0
DWIDTH 14 0
BBX 11 15 2 0
BITMAP
0780
7FC0
7060
0060
00E0
00C0
0180
0300
0700
0C00
1800
7000
67C0
FFE0
FC00
ENDCHAR

STARTCHAR three
ENCODING 51
SWIDTH 594 0
DWIDTH 14 0
BBX 12 16 2 0
BITMAP
77C0
FFE0
C1C0
4380
0700
0E00
1E00
1FC0
11E0
0070
0030
0070
8060
C0E0
7FC0
3F00
ENDCHAR

STARTCHAR four
ENCODING 52
SWIDTH 681 0
DWIDTH 16 0
BBX 13 17 2 -1
BITMAP
0060
00E0
00F0
01B0
0330
0630
0C30
1830
3030
60F8
FFF8
FE30
0030
0030
0030
0020
0020
ENDCHAR

STARTCHAR five
ENCODING 53
SWIDTH 616 0
DWIDTH 15 0
BBX 12 15 2 0
BITMAP
3FE0
3FF0
3000
3000
3000
3F00
3FC0
00E0
0030
0030
0030
8060
C1E0
7F80
3E00
ENDCHAR

STARTCHAR six
ENCODING 54
SWIDTH 498 0
DWIDTH 12 0
BBX 9 16 2 0
BITMAP
0200
0700
0600
0C00
1800
1800
3000
7F00
7F80
E180
C180
C180
C180
C700
FE00
7800
ENDCHAR

STARTCHAR seven
ENCODING 55
SWIDTH 554 0
DWIDTH 13 0
BBX 10 14 2 0
BITMAP
3FC0
FFC0
00C0
00C0
0180
0180
0F80
03C0
0300
0600
0600
0C00
0C00
1800
ENDCHAR

STARTCHAR eight
ENCODING 56
SWIDTH 541 0
DWIDTH 13 0
BBX 10 16 2 0
BITMAP
0200
0F00
1D80
30C0
60C0
61C0
6380
3F00
1F80
38C0
6040
C0C0
C0C0
C380
7F00
3C00
ENDCHAR

STARTCHAR nine
ENCODING 57
SWIDTH 565 0
DWIDTH 14 0
BBX 11 17 2 -1
BITMAP
01C0
0FC0
1E60
7060
6060
C060
C0E0
C1E0
C7E0
FF60
3860
0060
0060
0060
0060
00E0
0040
ENDCHAR

STARTCHAR colon
ENCODING 58
SWIDTH 271 0
DWIDTH 6 0
BBX 3 9 2 0
BITMAP
60
E0
00
00
00
00
60
60
60
ENDCHAR

STARTCHAR semicolon
ENCODING 59
SWIDTH 271 0
DWIDTH 6 0
BBX 4 13 1 -3
BITMAP
20
30
30
00
00
00
00
30
30
30
30
60
E0
ENDCHAR

STARTCHAR less
ENCODING 60
SWIDTH 587 0
DWIDTH 14 0
BBX 11 18 2 -3
BITMAP
0060
00E0
01C0
0380
0E00
1C00
3800
7000
E000
F000
1C00
0E00
0700
0380
0180
00C0
0060
0020
ENDCHAR

STARTCHAR equal
ENCODING 61
SWIDTH 562 0
DWIDTH 13 0
BBX 11 6 2 5
BITMAP
0080
FFC0
FF00
0000
7FE0
FFE0
ENDCHAR

STARTCHAR greater
ENCODING 62
SWIDTH 522 0
DWIDTH 13 0
BBX 10 17 2 -3
BITMAP
C000
E000
7000
3800
0C00
0600
0300
0180
01C0
0380
0700
0600
0C00
1800
3000
7000
6000
ENDCHAR

STARTCHAR question
ENCODING 63
SWIDTH 582 0
DWIDTH 14 0
BBX 11 16 2 0
BITMAP
1F00
7FC0
E1E0
C060
0060
00E0
01C0
0780
0600
0C00
0600
0600
0400
0000
0600
0600
ENDCHAR

STARTCHAR at
ENCODING 64
SWIDTH 721 0
DWIDTH 17 0
BBX 15 18 2 -4
BITMAP
03E0
0FF0
1C38
300C
61CC
C7EC
CE66
CC6C
98CC
D8CC
D9F8
CFF0
C700
6000
7060
3CE0
0FC0
0300
ENDCHAR

STARTCHAR A
ENCODING 65
SWIDTH 790 0
DWIDTH 19 0
BBX 16 17 2 -1
BITMAP
0080
01C0
01C0
0360
0360
0630
0630
3FF8
7FF8
180C
300C
3006
6006
6002
C003
8001
0001
ENDCHAR

STARTCHAR B
ENCODING 66
SWIDTH 606 0
DWIDTH 15 0
BBX 12 16 2 0
BITMAP
F800
FE00
C300
C300
4300
6700
6E00
7FC0
73E0
6070
6030
6030
4070
C0E0
FFC0
FF00
ENDCHAR

STARTCHAR C
ENCODING 67
SWIDTH 609 0
DWIDTH 15 0
BBX 12 15 2 0
BITMAP
0F80
1FC0
3040
6000
C000
C000
C000
8000
C000
C000
C000
6030
70E0
1FC0
0F00
ENDCHAR

STARTCHAR D
ENCODING 68
SWIDTH 600 0
DWIDTH 14 0
BBX 12 17 2 -1
BITMAP
4000
F000
FC00
CF00
C3C0
C0E0
C070
C030
C030
C060
C0C0
C1C0
C780
CE00
FC00
F000
4000
ENDCHAR

STARTCHAR E
ENCODING 69
SWIDTH 623 0
DWIDTH 15 0
BBX 12 15 2 0
BITMAP
7FF0
7FF0
6000
6000
6000
7F00
7F00
6000
6000
4000
4000
C000
C000
FFC0
F800
ENDCHAR

STARTCHAR F
ENCODING 70
SWIDTH 518 0
DWIDTH 12 0
BBX 10 17 2 -1
BITMAP
7F80
FFC0
C000
6000
6000
6000
6000
7F00
7F00
6000
6000
4000
C000
C000
C000
C000
8000
ENDCHAR

STARTCHAR G
ENCODING 71
SWIDTH 699 0
DWIDTH 17 0
BBX 14 15 2 0
BITMAP
0FC0
3FE0
7030
E000
C000
C000
C000
C078
C3FC
C030
C030
6030
6070
3FE0
1F80
ENDCHAR

STARTCHAR H
ENCODING 72
SWIDTH 518 0
DWIDTH 12 0
BBX 10 16 2 0
BITMAP
00C0
C0C0
C0C0
C0C0
40C0
60C0
60C0
7FC0
FFC0
60C0
40C0
C0C0
C180
C180
C180
C180
ENDCHAR

STARTCHAR I
ENCODING 73
SWIDTH 194 0
DWIDTH 5 0
BBX 2 15 2 0
BITMAP
C0
C0
C0
C0
C0
C0
C0
C0
C0
C0
C0
C0
C0
C0
C0
ENDCHAR

STARTCHAR J
ENCODING 74
SWIDTH 570 0
DWIDTH 14 0
BBX 11 17 2 -1
BITMAP
01C0
3FE0
1F00
0300
0300
0300
0100
0180
0180
0180
0180
8180
C300
E300
7300
3F00
1E00
ENDCHAR

STARTCHAR K
ENCODING 75
SWIDTH 554 0
DWIDTH 13 0
BBX 11 16 2 0
BITMAP
8000
80C0
C180
C300
C700
C600
CC00
D800
F800
FC00
CC00
C600
C300
C180
C0C0
C060
ENDCHAR

STARTCHAR L
ENCODING 76
SWIDTH 571 0
DWIDTH 14 0
BBX 11 16 2 0
BITMAP
8000
C000
C000
C000
C000
C000
C000
C000
C000
C000
C000
C000
C040
C060
FFC0
FFC0
ENDCHAR

STARTCHAR M
ENCODING 77
SWIDTH 589 0
DWIDTH 14 0
BBX 11 16 2 -1
BITMAP
4060
E0E0
F0E0
F1E0
D1A0
D9A0
DB20
CF20
CF20
C620
C020
C020
C020
C020
C020
0020
ENDCHAR

STARTCHAR N
ENCODING 78
SWIDTH 492 0
DWIDTH 12 0
BBX 9 15 2 0
BITMAP
8080
C180
E180
E180
F180
F180
D980
D980
CD80
C580
C780
C380
C380
C180
C180
ENDCHAR

STARTCHAR O
ENCODING 79
SWIDTH 590 0
DWIDTH 14 0
BBX 11 15 2 0
BITMAP
0600
1F80
39C0
30E0
6060
C060
C060
C020
C020
C060
C060
6040
39C0
1F80
0600
ENDCHAR

STARTCHAR P
ENCODING 80
SWIDTH 556 0
DWIDTH 13 0
BBX 11 16 2 -1
BITMAP
F800
FE00
EF80
61C0
60C0
6060
60C0
6380
7F00
3C00
6000
6000
6000
6000
6000
4000
ENDCHAR

STARTCHAR Q
ENCODING 81
SWIDTH 675 0
DWIDTH 16 0
BBX 13 15 2 0
BITMAP
0FC0
3FE0
7060
6030
C030
C030
C018
C018
C018
C1F0
C0F0
6070
31F8
1F98
0E08
ENDCHAR

STARTCHAR R
ENCODING 82
SWIDTH 565 0
DWIDTH 14 0
BBX 11 17 2 -1
BITMAP
F000
FF00
CF80
C0C0
C060
C060
C0C0
C3C0
FF00
FC00
C600
C300
C180
C1C0
C0C0
C060
8000
ENDCHAR

STARTCHAR S
ENCODING 83
SWIDTH 545 0
DWIDTH 13 0
BBX 10 16 2 0
BITMAP
0600
1FC0
39C0
7040
6000
6000
7000
3E00
0F80
0180
00C0
00C0
C0C0
C1C0
7F80
3E00
ENDCHAR

STARTCHAR T
ENCODING 84
SWIDTH 736 0
DWIDTH 18 0
BBX 15 15 2 0
BITMAP
FFFE
FFF0
0100
0180
0180
0180
0180
0180
0180
0180
0180
0180
0180
0180
0180
ENDCHAR

STARTCHAR U
ENCODING 85
SWIDTH 561 0
DWIDTH 13 0
BBX 11 16 2 0
BITMAP
0080
C0C0
C0C0
C0C0
C060
C060
C060
C060
C060
C0C0
C0C0
C1C0
C180
C300
7E00
3C00
ENDCHAR

STARTCHAR V
ENCODING 86
SWIDTH 748 0
DWIDTH 18 0
BBX 15 16 2 0
BITMAP
0006
C006
C00C
600C
7018
3018
1830
1830
0C30
0C60
0C60
06C0
06C0
0380
0380
0300
ENDCHAR

STARTCHAR W
ENCODING 87
SWIDTH 869 0
DWIDTH 21 0
BBX 18 15 0 0
BITMAP
8000C0
C000C0
E000C0
6001C0
300180
300180
186380
18F300
0CF700
0CF600
0D9E00
079E00
071C00
070C00
020800
ENDCHAR

STARTCHAR X
ENCODING 88
SWIDTH 658 0
DWIDTH 16 0
BBX 13 16 2 0
BITMAP
0020
C020
C060
60C0
30C0
1980
0D80
0700
0700
0F80
0CC0
18E0
3060
3030
6018
4008
ENDCHAR

STARTCHAR Y
ENCODING 89
SWIDTH 669 0
DWIDTH 16 0
BBX 13 17 2 -1
BITMAP
8018
C010
6030
3060
30C0
18C0
0D80
0F00
0700
0600
0600
0600
0600
0600
0600
0600
0200
ENDCHAR

STARTCHAR Z
ENCODING 90
SWIDTH 686 0
DWIDTH 16 0
BBX 14 15 2 0
BITMAP
FFF8
FFF8
0030
0060
00C0
01C0
0380
0300
0600
0C00
1800
3800
7000
7FFC
FFF0
ENDCHAR

STARTCHAR bracketleft
ENCODING 91
SWIDTH 330 0
DWIDTH 8 0
BBX 4 16 2 -2
BITMAP
F0
C0
C0
C0
C0
C0
C0
C0
C0
C0
C0
C0
C0
C0
C0
F0
ENDCHAR

STARTCHAR backslash
ENCODING 92
SWIDTH 602 0
DWIDTH 14 0
BBX 12 17 2 -1
BITMAP
C000
E000
6000
3000
3800
1800
0C00
0C00
0600
0300
0300
0180
00C0
00C0
0060
0060
0030
ENDCHAR

STARTCHAR bracketright
ENCODING 93
SWIDTH 349 0
DWIDTH 8 0
BBX 5 18 3 -3
BITMAP
F0
10
30
30
30
30
30
30
30
30
30
30
30
30
18
18
18
F0
ENDCHAR

STARTCHAR asciicircum
ENCODING 94
SWIDTH 573 0
DWIDTH 14 0
BBX 11 7 2 9
BITMAP
0400
0E00
1F00
3B80
31C0
60E0
C060
ENDCHAR

STARTCHAR underscore
ENCODING 95
SWIDTH 725 0
DWIDTH 17 0
BBX 14 2 2 -1
BITMAP
FFFC
FFFC
ENDCHAR

STARTCHAR quoteleft
ENCODING 96
SWIDTH 284 0
DWIDTH 7 0
BBX 4 4 2 11
BITMAP
C0
60
30
30
ENDCHAR

STARTCHAR a
ENCODING 97
SWIDTH 564 0
DWIDTH 14 0
BBX 11 12 2 0
BITMAP
7800
7E00
0700
0180
0080
3FC0
73C0
C0C0
C040
C060
71E0
7FE0
ENDCHAR

STARTCHAR b
ENCODING 98
SWIDTH 494 0
DWIDTH 12 0
BBX 9 15 2 0
BITMAP
C000
C000
C000
C000
C000
7800
7E00
6700
6180
6180
6180
6180
4300
FE00
FC00
ENDCHAR

STARTCHAR c
ENCODING 99
SWIDTH 530 0
DWIDTH 13 0
BBX 10 11 2 0
BITMAP
3F00
7F80
6080
C000
C000
C000
C000
C000
E000
7FC0
1FC0
ENDCHAR

STARTCHAR d
ENCODING 100
SWIDTH 586 0
DWIDTH 14 0
BBX 11 15 2 0
BITMAP
0060
0060
0060
0060
0060
0060
1F60
7FE0
E0E0
C060
C060
C060
E060
7FE0
1FE0
ENDCHAR

STARTCHAR e
ENCODING 101
SWIDTH 545 0
DWIDTH 13 0
BBX 10 11 2 0
BITMAP
1E00
7F80
E180
C780
DF00
FC00
E000
C0C0
60C0
7F80
1F00
ENDCHAR

STARTCHAR f
ENCODING 102
SWIDTH 537 0
DWIDTH 13 0
BBX 10 16 2 0
BITMAP
0180
07C0
0E00
0C00
1800
1800
1800
1800
FF00
7C00
1800
1800
1800
1800
1000
3000
ENDCHAR

STARTCHAR g
ENCODING 103
SWIDTH 565 0
DWIDTH 14 0
BBX 11 18 2 -8
BITMAP
01C0
07E0
1E60
3860
7060
E060
C060
C3E0
FFE0
7C60
00C0
00C0
00C0
00C0
61C0
7180
3F80
1F00
ENDCHAR

STARTCHAR h
ENCODING 104
SWIDTH 479 0
DWIDTH 11 0
BBX 9 15 2 0
BITMAP
8000
C000
C000
C000
C000
C000
FE00
FF00
C180
C180
C180
C180
C300
C300
8300
ENDCHAR

STARTCHAR i
ENCODING 105
SWIDTH 280 0
DWIDTH 7 0
BBX 2 15 3 0
BITMAP
80
C0
C0
00
00
80
C0
C0
C0
C0
C0
C0
C0
C0
C0
ENDCHAR

STARTCHAR j
ENCODING 106
SWIDTH 464 0
DWIDTH 11 0
BBX 7 20 2 -6
BITMAP
02
06
06
00
00
06
06
06
06
06
06
06
06
06
06
C6
EC
7C
3C
1C
ENDCHAR

STARTCHAR k
ENCODING 107
SWIDTH 483 0
DWIDTH 12 0
BBX 9 16 2 0
BITMAP
8000
C000
C000
C000
C000
C200
C300
C600
CC00
DC00
7C00
7E00
6600
6300
4180
4180
ENDCHAR

STARTCHAR l
ENCODING 108
SWIDTH 189 0
DWIDTH 5 0
BBX 2 15 2 0
BITMAP
C0
C0
C0
C0
C0
C0
C0
C0
C0
C0
C0
C0
C0
C0
80
ENDCHAR

STARTCHAR m
ENCODING 109
SWIDTH 688 0
DWIDTH 17 0
BBX 14 12 2 -1
BITMAP
6610
6F38
7F78
73D8
618C
618C
618C
C18C
C18C
C18C
C188
8100
ENDCHAR

STARTCHAR n
ENCODING 110
SWIDTH 498 0
DWIDTH 12 0
BBX 9 12 2 0
BITMAP
0200
CF00
DF00
FB00
E180
C180
C180
C180
C180
C180
C180
C180
ENDCHAR

STARTCHAR o
ENCODING 111
SWIDTH 553 0
DWIDTH 13 0
BBX 11 11 2 0
BITMAP
0F00
1F80
38C0
60C0
C060
C0C0
C0C0
C1C0
C380
FF00
7C00
ENDCHAR

STARTCHAR p
ENCODING 112
SWIDTH 530 0
DWIDTH 13 0
BBX 10 17 2 -7
BITMAP
7000
FC00
CF00
C380
C0C0
C0C0
C0C0
C380
FF00
F800
C000
C000
C000
C000
C000
C000
8000
ENDCHAR

STARTCHAR q
ENCODING 113
SWIDTH 607 0
DWIDTH 15 0
BBX 12 18 2 -8
BITMAP
0080
0FC0
1F80
7980
6180
C180
C180
C780
FF80
7D80
0180
0180
0100
0370
03E0
03C0
0380
0100
ENDCHAR

STARTCHAR r
ENCODING 114
SWIDTH 450 0
DWIDTH 11 0
BBX 8 11 2 0
BITMAP
C3
DF
FC
F0
C0
C0
C0
C0
C0
C0
C0
ENDCHAR

STARTCHAR s
ENCODING 115
SWIDTH 493 0
DWIDTH 12 0
BBX 9 12 2 0
BITMAP
1E00
7F00
6300
6000
6000
7E00
1F00
0180
C180
E180
7F00
1E00
ENDCHAR

STARTCHAR t
ENCODING 116
SWIDTH 531 0
DWIDTH 13 0
BBX 10 13 2 0
BITMAP
1000
3000
FF00
FF00
1000
1000
1800
1800
18C0
19C0
1B80
1F00
1E00
ENDCHAR

STARTCHAR u
ENCODING 117
SWIDTH 573 0
DWIDTH 14 0
BBX 11 13 2 -1
BITMAP
8100
C100
C100
C180
C180
C180
C180
C180
C380
CF80
FD80
70E0
0040
ENDCHAR

STARTCHAR v
ENCODING 118
SWIDTH 599 0
DWIDTH 14 0
BBX 11 11 2 0
BITMAP
8020
C060
C060
60C0
60C0
3180
3180
1B00
1F00
0E00
0C00
ENDCHAR

STARTCHAR w
ENCODING 119
SWIDTH 698 0
DWIDTH 17 0
BBX 14 10 2 0
BITMAP
8000
C00C
C00C
6018
6718
67B0
3FB0
3CE0
38E0
3040
ENDCHAR

STARTCHAR x
ENCODING 120
SWIDTH 548 0
DWIDTH 13 0
BBX 11 11 2 0
BITMAP
4060
60C0
31C0
1B80
0F00
0600
0F00
1B00
3180
61C0
C0C0
ENDCHAR

STARTCHAR y
ENCODING 121
SWIDTH 626 0
DWIDTH 15 0
BBX 12 18 2 -7
BITMAP
0010
8030
C030
6070
7060
3060
18C0
0CC0
0780
0780
0300
0300
0600
0600
0C00
0C00
0C00
0800
ENDCHAR

STARTCHAR z
ENCODING 122
SWIDTH 595 0
DWIDTH 14 0
BBX 11 10 2 0
BITMAP
FFE0
FFE0
00C0
0180
0300
0600
0C00
1800
7FE0
3FE0
ENDCHAR

STARTCHAR braceleft
ENCODING 123
SWIDTH 377 0
DWIDTH 9 0
BBX 6 19 2 -4
BITMAP
04
1C
30
30
30
30
30
70
E0
E0
70
30
30
20
30
30
38
1C
04
ENDCHAR

STARTCHAR bar
ENCODING 124
SWIDTH 212 0
DWIDTH 5 0
BBX 2 17 2 -3
BITMAP
80
C0
C0
C0
C0
C0
C0
C0
C0
C0
C0
C0
40
40
40
40
40
ENDCHAR

STARTCHAR braceright
ENCODING 125
SWIDTH 348 0
DWIDTH 8 0
BBX 5 18 2 -2
BITMAP
70
30
30
30
30
30
30
18
18
30
30
30
18
18
18
38
F0
C0
ENDCHAR

STARTCHAR asciitilde
ENCODING 126
SWIDTH 622 0
DWIDTH 15 0
BBX 12 4 2 5
BITMAP
7830
FE30
C7E0
81C0
ENDCHAR

STARTCHAR exclamdown
ENCODING 161
SWIDTH 250 0
DWIDTH 6 0
BBX 3 15 5 -4
BITMAP
C0
C0
00
C0
C0
C0
C0
C0
40
60
60
60
60
60
60
ENDCHAR

STARTCHAR cent
ENCODING 162
SWIDTH 530 0
DWIDTH 13 0
BBX 10 13 2 0
BITMAP
0C00
0C00
3F00
7F80
6080
C000
C000
C000
E000
7FC0
3F80
0C00
0C00
ENDCHAR

STARTCHAR sterling
ENCODING 163
SWIDTH 571 0
DWIDTH 14 0
BBX 13 16 2 0
BITMAP
0FC0
1FE0
3830
3000
3000
3000
3000
FF00
FF00
3000
3000
3000
3000
3018
FFF0
FFE0
ENDCHAR

STARTCHAR currency
ENCODING 164
SWIDTH 750 0
DWIDTH 18 0
BBX 7 9 4 5
BITMAP
82
C6
7C
6C
44
6C
7C
C6
82
ENDCHAR

STARTCHAR yen
ENCODING 165
SWIDTH 750 0
DWIDTH 18 0
BBX 14 15 2 0
BITMAP
C00C
6018
3030
1860
0CC0
0780
0300
3FF0
0300
0300
3FF0
0300
0300
0300
0FC0
ENDCHAR

STARTCHAR brokenbar
ENCODING 166
SWIDTH 212 0
DWIDTH 5 0
BBX 2 17 5 -3
BITMAP
80
C0
C0
C0
C0
C0
C0
00
00
C0
C0
C0
C0
C0
40
40
40
ENDCHAR

STARTCHAR section
ENCODING 167
SWIDTH 750 0
DWIDTH 18 0
BBX 11 21 3 -5
BITMAP
1E00
7F80
E1C0
C000
C000
6000
7C00
FF00
C380
C0C0
C060
6060
3860
1FE0
07C0
00C0
0060
0060
70E0
3FC0
0F00
ENDCHAR

STARTCHAR dieresis
ENCODING 168
SWIDTH 750 0
DWIDTH 18 0
BBX 6 2 6 12
BITMAP
CC
CC
ENDCHAR

STARTCHAR copyright
ENCODING 169
SWIDTH 750 0
DWIDTH 18 0
BBX 13 13 2 -1
BITMAP
1FC0
7FF0
6030
CF18
DD98
D818
D818
D818
DD98
CF18
6030
7FF0
1FC0
ENDCHAR

STARTCHAR ordfeminine
ENCODING 170
SWIDTH 564 0
DWIDTH 14 0
BBX 7 9 4 6
BITMAP
78
0C
06
7E
C6
C6
7E
00
FE
ENDCHAR

STARTCHAR guillemotleft
ENCODING 171
SWIDTH 750 0
DWIDTH 18 0
BBX 9 10 4 1
BITMAP
0880
1980
3300
6600
CC00
CC00
6600
3300
1980
0880
ENDCHAR

STARTCHAR logicalnot
ENCODING 172
SWIDTH 750 0
DWIDTH 18 0
BBX 12 5 3 4
BITMAP
FFF0
7FF0
0030
0030
0030
ENDCHAR

STARTCHAR hyphen
ENCODING 173
SWIDTH 545 0
DWIDTH 13 0
BBX 8 2 4 6
BITMAP
FF
0F
ENDCHAR

STARTCHAR registered
ENCODING 174
SWIDTH 750 0
DWIDTH 18 0
BBX 13 13 2 -1
BITMAP
1FC0
7FF0
6030
CF18
CF98
CD98
CF18
CF18
CD98
CD98
6030
7FF0
1FC0
ENDCHAR

STARTCHAR macron
ENCODING 175
SWIDTH 750 0
DWIDTH 18 0
BBX 6 2 6 12
BITMAP
FC
F8
ENDCHAR

STARTCHAR degree
ENCODING 176
SWIDTH 750 0
DWIDTH 18 0
BBX 6 5 6 8
BITMAP
78
CC
CC
EC
78
ENDCHAR

STARTCHAR plusminus
ENCODING 177
SWIDTH 530 0
DWIDTH 13 0
BBX 10 12 2 0
BITMAP
0C00
0C00
0C00
7FC0
FFC0
0C00
0C00
0C00
0C00
0000
F800
FFC0
ENDCHAR

STARTCHAR twosuperior
ENCODING 178
SWIDTH 750 0
DWIDTH 18 0
BBX 4 7 6 7
BITMAP
60
F0
30
60
C0
F0
F0
ENDCHAR

STARTCHAR threesuperior
ENCODING 179
SWIDTH 750 0
DWIDTH 18 0
BBX 4 7 6 7
BITMAP
60
F0
30
60
30
F0
60
ENDCHAR

STARTCHAR acute
ENCODING 180
SWIDTH 750 0
DWIDTH 18 0
BBX 4 3 7 11
BITMAP
30
60
C0
ENDCHAR

STARTCHAR mu
ENCODING 181
SWIDTH 573 0
DWIDTH 14 0
BBX 11 15 2 -3
BITMAP
8100
C100
C100
C180
C180
C180
C180
C180
C380
CF80
FD80
F0E0
C040
C000
C000
ENDCHAR

STARTCHAR paragraph
ENCODING 182
SWIDTH 750 0
DWIDTH 18 0
BBX 13 17 1 -2
BITMAP
3FF8
7FF8
EC60
CC60
CC60
CC60
CC60
CC60
6C60
3C60
0C60
0C60
0C60
0C60
0C60
0C60
0C60
ENDCHAR

STARTCHAR periodcentered
ENCODING 183
SWIDTH 750 0
DWIDTH 18 0
BBX 2 2 8 5
BITMAP
C0
C0
ENDCHAR

STARTCHAR cedilla
ENCODING 184
SWIDTH 750 0
DWIDTH 18 0
BBX 3 3 7 -3
BITMAP
60
20
E0
ENDCHAR

STARTCHAR onesuperior
ENCODING 185
SWIDTH 750 0
DWIDTH 18 0
BBX 4 7 6 7
BITMAP
60
E0
E0
60
60
60
F0
ENDCHAR

STARTCHAR ordmasculine
ENCODING 186
SWIDTH 564 0
DWIDTH 14 0
BBX 7 8 4 6
BITMAP
7C
C6
C6
C6
C6
7C
00
FE
ENDCHAR

STARTCHAR guillemotright
ENCODING 187
SWIDTH 750 0
DWIDTH 18 0
BBX 9 10 4 1
BITMAP
8800
CC00
6600
3300
1980
1980
3300
6600
CC00
8800
ENDCHAR

STARTCHAR onequarter
ENCODING 188
SWIDTH 750 0
DWIDTH 18 0
BBX 12 15 3 0
BITMAP
3000
7000
7010
3030
3060
30C0
7980
0300
0660
0CE0
19E0
3360
63F0
C060
8060
ENDCHAR

STARTCHAR onehalf
ENCODING 189
SWIDTH 750 0
DWIDTH 18 0
BBX 12 16 3 -1
BITMAP
3000
7000
7010
3030
3060
30C0
7980
0300
0600
0CC0
19E0
3060
60C0
C180
81E0
01E0
ENDCHAR

STARTCHAR threequarters
ENCODING 190
SWIDTH 750 0
DWIDTH 18 0
BBX 12 14 3 0
BITMAP
3000
7810
1830
3060
18C0
7980
3300
0660
0CE0
19E0
3360
63F0
C060
8060
ENDCHAR

STARTCHAR questiondown
ENCODING 191
SWIDTH 582 0
DWIDTH 14 0
BBX 11 16 3 -5
BITMAP
0C00
0C00
0000
0400
0C00
0C00
0600
0C00
3C00
7000
E000
C000
C060
F0E0
7FC0
1F00
ENDCHAR

STARTCHAR Agrave
ENCODING 192
SWIDTH 790 0
DWIDTH 19 0
BBX 14 16 2 0
BITMAP
0C00
0600
0300
0000
0100
0380
06C0
06C0
0C60
0C60
1FF0
3FF0
3018
6018
600C
C00C
ENDCHAR

STARTCHAR Aacute
ENCODING 193
SWIDTH 790 0
DWIDTH 19 0
BBX 14 16 2 0
BITMAP
00C0
0180
0300
0000
0100
0380
06C0
06C0
0C60
0C60
1FF0
3FF0
3018
6018
600C
C00C
ENDCHAR

STARTCHAR Acircumflex
ENCODING 194
SWIDTH 790 0
DWIDTH 19 0
BBX 14 16 2 0
BITMAP
0180
03C0
0660
0000
0100
0380
06C0
06C0
0C60
0C60
1FF0
3FF0
3018
6018
600C
C00C
ENDCHAR

STARTCHAR Atilde
ENCODING 195
SWIDTH 790 0
DWIDTH 19 0
BBX 14 15 2 0
BITMAP
0760
0DC0
0000
0100
0380
06C0
06C0
0C60
0C60
1FF0
3FF0
3018
6018
600C
C00C
ENDCHAR

STARTCHAR Adieresis
ENCODING 196
SWIDTH 790 0
DWIDTH 19 0
BBX 14 15 2 0
BITMAP
0660
0660
0000
0100
0380
06C0
06C0
0C60
0C60
1FF0
3FF0
3018
6018
600C
C00C
ENDCHAR

STARTCHAR Aring
ENCODING 197
SWIDTH 790 0
DWIDTH 19 0
BBX 14 15 2 0
BITMAP
0380
06C0
0380
0100
0380
06C0
06C0
0C60
0C60
1FF0
3FF0
3018
6018
600C
C00C
ENDCHAR

STARTCHAR AE
ENCODING 198
SWIDTH 623 0
DWIDTH 15 0
BBX 15 15 1 0
BITMAP
07FE
0FFE
1D80
1980
3980
31F8
71F8
7180
7F80
FF80
C180
C180
C180
C1FE
C1E0
ENDCHAR

STARTCHAR Ccedilla
ENCODING 199
SWIDTH 609 0
DWIDTH 15 0
BBX 12 18 2 -3
BITMAP
0F80
1FC0
3040
6000
C000
C000
C000
8000
C000
C000
C000
6030
70E0
1FC0
0F00
0600
0200
0E00
ENDCHAR

STARTCHAR Egrave
ENCODING 200
SWIDTH 623 0
DWIDTH 15 0
BBX 10 17 4 -1
BITMAP
1800
0C00
0600
0000
7FC0
7FC0
6000
6000
6000
7F00
7F00
4000
4000
C000
C000
FFC0
F800
ENDCHAR

STARTCHAR Eacute
ENCODING 201
SWIDTH 623 0
DWIDTH 15 0
BBX 10 17 4 -1
BITMAP
0180
0300
0600
0000
7FC0
7FC0
6000
6000
6000
7F00
7F00
4000
4000
C000
C000
FFC0
F800
ENDCHAR

STARTCHAR Ecircumflex
ENCODING 202
SWIDTH 623 0
DWIDTH 15 0
BBX 10 17 4 -1
BITMAP
0600
0F00
1980
0000
7FC0
7FC0
6000
6000
6000
7F00
7F00
4000
4000
C000
C000
FFC0
F800
ENDCHAR

STARTCHAR Edieresis
ENCODING 203
SWIDTH 623 0
DWIDTH 15 0
BBX 10 16 4 -1
BITMAP
1980
1980
0000
7FC0
7FC0
6000
6000
6000
7F00
7F00
4000
4000
C000
C000
FFC0
F800
ENDCHAR

STARTCHAR Igrave
ENCODING 204
SWIDTH 194 0
DWIDTH 5 0
BBX 4 16 3 0
BITMAP
C0
60
30
00
30
30
30
30
30
30
30
30
30
30
30
30
ENDCHAR

STARTCHAR Iacute
ENCODING 205
SWIDTH 194 0
DWIDTH 5 0
BBX 4 16 5 0
BITMAP
30
60
C0
00
C0
C0
C0
C0
C0
C0
C0
C0
C0
C0
C0
C0
ENDCHAR

STARTCHAR Icircumflex
ENCODING 206
SWIDTH 194 0
DWIDTH 5 0
BBX 6 16 3 0
BITMAP
30
78
CC
00
30
30
30
30
30
30
30
30
30
30
30
30
ENDCHAR

STARTCHAR Idieresis
ENCODING 207
SWIDTH 194 0
DWIDTH 5 0
BBX 6 15 3 0
BITMAP
CC
CC
00
30
30
30
30
30
30
30
30
30
30
30
30
ENDCHAR

STARTCHAR Eth
ENCODING 208
SWIDTH 600 0
DWIDTH 14 0
BBX 14 17 0 -1
BITMAP
1000
3C00
3F00
33C0
30F0
3038
301C
FE0C
FE0C
3018
3030
3070
31E0
3380
3F00
3C00
1000
ENDCHAR

STARTCHAR Ntilde
ENCODING 209
SWIDTH 492 0
DWIDTH 12 0
BBX 9 15 2 0
BITMAP
3B00
6E00
0000
C180
E180
E180
F180
F180
D980
D980
CD80
C580
C780
C380
C180
ENDCHAR

STARTCHAR Ograve
ENCODING 210
SWIDTH 590 0
DWIDTH 14 0
BBX 11 16 2 0
BITMAP
1800
0C00
0600
0000
0F00
3FC0
70E0
C060
C020
C020
C060
C060
6040
39C0
1F80
0600
ENDCHAR

STARTCHAR Oacute
ENCODING 211
SWIDTH 590 0
DWIDTH 14 0
BBX 11 16 2 0
BITMAP
0180
0300
0600
0000
0F00
3FC0
70E0
C060
C020
C020
C060
C060
6040
39C0
1F80
0600
ENDCHAR

STARTCHAR Ocircumflex
ENCODING 212
SWIDTH 590 0
DWIDTH 14 0
BBX 11 16 2 0
BITMAP
0600
0F00
1980
0000
0F00
3FC0
70E0
C060
C020
C020
C060
C060
6040
39C0
1F80
0600
ENDCHAR

STARTCHAR Otilde
ENCODING 213
SWIDTH 590 0
DWIDTH 14 0
BBX 11 15 2 0
BITMAP
1D80
3700
0000
0F00
3FC0
70E0
C060
C020
C020
C060
C060
6040
39C0
1F80
0600
ENDCHAR

STARTCHAR Odieresis
ENCODING 214
SWIDTH 590 0
DWIDTH 14 0
BBX 11 15 2 0
BITMAP
1980
1980
0000
0F00
3FC0
70E0
C060
C020
C020
C060
C060
6040
39C0
1F80
0600
ENDCHAR

STARTCHAR multiply
ENCODING 215
SWIDTH 750 0
DWIDTH 18 0
BBX 10 9 4 1
BITMAP
C0C0
6180
3300
1E00
0C00
1E00
3300
6180
C0C0
ENDCHAR

STARTCHAR Oslash
ENCODING 216
SWIDTH 590 0
DWIDTH 14 0
BBX 13 14 1 0
BITMAP
0788
1CD8
1870
3060
60F0
61B0
6330
6630
6C30
7830
3020
7CE0
CFC0
8300
ENDCHAR

STARTCHAR Ugrave
ENCODING 217
SWIDTH 561 0
DWIDTH 13 0
BBX 11 16 2 0
BITMAP
1800
0C00
0600
0000
C060
C060
C060
C060
C060
C0C0
C0C0
C1C0
C180
C300
7E00
3C00
ENDCHAR

STARTCHAR Uacute
ENCODING 218
SWIDTH 561 0
DWIDTH 13 0
BBX 11 16 2 0
BITMAP
0300
0600
0C00
0000
C060
C060
C060
C060
C060
C0C0
C0C0
C1C0
C180
C300
7E00
3C00
ENDCHAR

STARTCHAR Ucircumflex
ENCODING 219
SWIDTH 561 0
DWIDTH 13 0
BBX 11 16 2 0
BITMAP
0600
0F00
1980
0000
C060
C060
C060
C060
C060
C0C0
C0C0
C1C0
C180
C300
7E00
3C00
ENDCHAR

STARTCHAR Udieresis
ENCODING 220
SWIDTH 561 0
DWIDTH 13 0
BBX 11 15 2 0
BITMAP
1980
1980
0000
C060
C060
C060
C060
C060
C0C0
C0C0
C1C0
C180
C300
7E00
3C00
ENDCHAR

STARTCHAR Yacute
ENCODING 221
SWIDTH 669 0
DWIDTH 16 0
BBX 11 16 3 0
BITMAP
0300
0600
0C00
0000
C060
60C0
6180
3180
1B00
1E00
0E00
0C00
0C00
0C00
0C00
0C00
ENDCHAR

STARTCHAR Thorn
ENCODING 222
SWIDTH 750 0
DWIDTH 18 0
BBX 9 14 5 0
BITMAP
C000
C000
C000
FE00
FF00
C380
C180
C180
C380
FF00
FE00
C000
C000
C000
ENDCHAR

STARTCHAR germandbls
ENCODING 223
SWIDTH 750 0
DWIDTH 18 0
BBX 10 15 5 0
BITMAP
3E00
7F00
E300
C300
CE00
CE00
C300
C180
C0C0
C0C0
C0C0
C0C0
C1C0
CF80
CF00
ENDCHAR

STARTCHAR agrave
ENCODING 224
SWIDTH 564 0
DWIDTH 14 0
BBX 11 15 2 0
BITMAP
1800
0C00
0600
0000
7800
7E00
0700
0180
3FC0
71C0
C060
C060
C060
71E0
7FE0
ENDCHAR

STARTCHAR aacute
ENCODING 225
SWIDTH 564 0
DWIDTH 14 0
BBX 11 15 2 0
BITMAP
0180
0300
0600
0000
7800
7E00
0700
0180
3FC0
71C0
C060
C060
C060
71E0
7FE0
ENDCHAR

STARTCHAR acircumflex
ENCODING 226
SWIDTH 564 0
DWIDTH 14 0
BBX 11 15 2 0
BITMAP
0600
0F00
1980
0000
7800
7E00
0700
0180
3FC0
71C0
C060
C060
C060
71E0
7FE0
ENDCHAR

STARTCHAR atilde
ENCODING 227
SWIDTH 564 0
DWIDTH 14 0
BBX 11 14 2 0
BITMAP
1D80
3700
0000
7800
7E00
0700
0180
3FC0
71C0
C060
C060
C060
71E0
7FE0
ENDCHAR

STARTCHAR adieresis
ENCODING 228
SWIDTH 564 0
DWIDTH 14 0
BBX 11 14 2 0
BITMAP
3300
3300
0000
7800
7E00
0700
0180
3FC0
71C0
C060
C060
C060
71E0
7FE0
ENDCHAR

STARTCHAR aring
ENCODING 229
SWIDTH 564 0
DWIDTH 14 0
BBX 11 15 2 0
BITMAP
0E00
1B00
0E00
0000
7800
7E00
0700
0180
3FC0
71C0
C060
C060
C060
71E0
7FE0
ENDCHAR

STARTCHAR ae
ENCODING 230
SWIDTH 564 0
DWIDTH 14 0
BBX 15 11 2 0
BITMAP
7C78
0ECC
0786
0386
3BFE
7FFE
E780
C380
C3C0
E7E6
7E7C
ENDCHAR

STARTCHAR ccedilla
ENCODING 231
SWIDTH 530 0
DWIDTH 13 0
BBX 10 14 2 -3
BITMAP
3F00
7F80
6080
C000
C000
C000
C000
C000
E000
7FC0
1FC0
0600
0200
0E00
ENDCHAR

STARTCHAR egrave
ENCODING 232
SWIDTH 545 0
DWIDTH 13 0
BBX 10 15 2 0
BITMAP
3000
1800
0C00
0000
1E00
7F80
E180
C780
DF00
FC00
E000
C0C0
60C0
7F80
1F00
ENDCHAR

STARTCHAR eacute
ENCODING 233
SWIDTH 545 0
DWIDTH 13 0
BBX 10 15 2 0
BITMAP
0300
0600
0C00
0000
1E00
7F80
E180
C780
DF00
FC00
E000
C0C0
60C0
7F80
1F00
ENDCHAR

STARTCHAR ecircumflex
ENCODING 234
SWIDTH 545 0
DWIDTH 13 0
BBX 10 15 2 0
BITMAP
0C00
1E00
3300
0000
1E00
7F80
E180
C780
DF00
FC00
E000
C0C0
60C0
7F80
1F00
ENDCHAR

STARTCHAR edieresis
ENCODING 235
SWIDTH 545 0
DWIDTH 13 0
BBX 10 14 2 0
BITMAP
3300
3300
0000
1E00
7F80
E180
C780
DF00
FC00
E000
C0C0
60C0
7F80
1F00
ENDCHAR

STARTCHAR igrave
ENCODING 236
SWIDTH 280 0
DWIDTH 7 0
BBX 4 14 4 0
BITMAP
C0
60
30
00
20
30
30
30
30
30
30
30
30
30
ENDCHAR

STARTCHAR iacute
ENCODING 237
SWIDTH 280 0
DWIDTH 7 0
BBX 4 14 6 0
BITMAP
30
60
C0
00
80
C0
C0
C0
C0
C0
C0
C0
C0
C0
ENDCHAR

STARTCHAR icircumflex
ENCODING 238
SWIDTH 280 0
DWIDTH 7 0
BBX 6 14 4 0
BITMAP
30
78
CC
00
20
30
30
30
30
30
30
30
30
30
ENDCHAR

STARTCHAR idieresis
ENCODING 239
SWIDTH 280 0
DWIDTH 7 0
BBX 6 13 4 0
BITMAP
CC
CC
00
20
30
30
30
30
30
30
30
30
30
ENDCHAR

STARTCHAR eth
ENCODING 240
SWIDTH 553 0
DWIDTH 13 0
BBX 11 16 2 0
BITMAP
E180
FF00
3E00
7700
C380
0FC0
1FC0
38C0
60C0
C060
C0C0
C0C0
C1C0
C380
FF00
7C00
ENDCHAR

STARTCHAR ntilde
ENCODING 241
SWIDTH 498 0
DWIDTH 12 0
BBX 9 15 2 0
BITMAP
3B00
6E00
0000
0200
CF00
DF00
FB00
E180
C180
C180
C180
C180
C180
C180
C180
ENDCHAR

STARTCHAR ograve
ENCODING 242
SWIDTH 553 0
DWIDTH 13 0
BBX 11 15 2 0
BITMAP
1800
0C00
0600
0000
0F00
1F80
38C0
60C0
C060
C0C0
C0C0
C1C0
C380
FF00
7C00
ENDCHAR

STARTCHAR oacute
ENCODING 243
SWIDTH 553 0
DWIDTH 13 0
BBX 11 15 2 0
BITMAP
0180
0300
0600
0000
0F00
1F80
38C0
60C0
C060
C0C0
C0C0
C1C0
C380
FF00
7C00
ENDCHAR

STARTCHAR ocircumflex
ENCODING 244
SWIDTH 553 0
DWIDTH 13 0
BBX 11 15 2 0
BITMAP
0600
0F00
1980
0000
0F00
1F80
38C0
60C0
C060
C0C0
C0C0
C1C0
C380
FF00
7C00
ENDCHAR

STARTCHAR otilde
ENCODING 245
SWIDTH 553 0
DWIDTH 13 0
BBX 11 14 2 0
BITMAP
1D80
3700
0000
0F00
1F80
38C0
60C0
C060
C0C0
C0C0
C1C0
C380
FF00
7C00
ENDCHAR

STARTCHAR odieresis
ENCODING 246
SWIDTH 553 0
DWIDTH 13 0
BBX 11 14 2 0
BITMAP
1980
1980
0000
0F00
1F80
38C0
60C0
C060
C0C0
C0C0
C1C0
C380
FF00
7C00
ENDCHAR

STARTCHAR divide
ENCODING 247
SWIDTH 545 0
DWIDTH 13 0
BBX 10 10 2 2
BITMAP
0C00
0C00
0000
0000
FFC0
FFC0
0000
0000
0C00
0C00
ENDCHAR

STARTCHAR oslash
ENCODING 248
SWIDTH 553 0
DWIDTH 13 0
BBX 12 11 1 0
BITMAP
07B0
0FE0
1CE0
31E0
6330
6660
6C60
78E0
71C0
7F80
DE00
ENDCHAR

STARTCHAR ugrave
ENCODING 249
SWIDTH 573 0
DWIDTH 14 0
BBX 11 16 2 -1
BITMAP
6000
3000
1800
0000
C100
C100
C180
C180
C180
C180
C180
C380
CF80
FD80
70E0
0040
ENDCHAR

STARTCHAR uacute
ENCODING 250
SWIDTH 573 0
DWIDTH 14 0
BBX 11 16 2 -1
BITMAP
0600
0C00
1800
0000
C100
C100
C180
C180
C180
C180
C180
C380
CF80
FD80
70E0
0040
ENDCHAR

STARTCHAR ucircumflex
ENCODING 251
SWIDTH 573 0
DWIDTH 14 0
BBX 11 16 2 -1
BITMAP
0C00
1E00
3300
0000
C100
C100
C180
C180
C180
C180
C180
C380
CF80
FD80
70E0
0040
ENDCHAR

STARTCHAR udieresis
ENCODING 252
SWIDTH 573 0
DWIDTH 14 0
BBX 11 15 2 -1
BITMAP
3300
3300
0000
C100
C100
C180
C180
C180
C180
C180
C380
CF80
FD80
70E0
0040
ENDCHAR

STARTCHAR yacute
ENCODING 253
SWIDTH 626 0
DWIDTH 15 0
BBX 12 21 2 -7
BITMAP
0180
0300
0600
0000
8030
C030
6070
7060
3060
18C0
0CC0
0780
0780
0300
0300
0600
0600
0C00
0C00
0C00
0800
ENDCHAR

STARTCHAR thorn
ENCODING 254
SWIDTH 750 0
DWIDTH 18 0
BBX 11 19 5 -4
BITMAP
C000
C000
C000
C000
C000
DF80
FFC0
E0E0
C060
C060
C060
C060
E0E0
FFC0
DF80
C000
C000
C000
C000
ENDCHAR

STARTCHAR ydieresis
ENCODING 255
SWIDTH 626 0
DWIDTH 15 0
BBX 12 20 2 -7
BITMAP
1980
1980
0000
8030
C030
6070
7060
3060
18C0
0CC0
0780
0780
0300
0300
0600
0600
0C00
0C00
0C00
0800
ENDCHAR

ENDFONT
