STARTFONT 2.1
FONT -SGI-Haeberli-Medium-R-Normal--36-360-72-72-P-190-ISO8859-1
SIZE 36 72 72
FONTBOUNDINGBOX 26 36 0 -11

STARTPROPERTIES 25
_DEC_DEVICE_FONTNAMES "FM=Haeberli"
FONTNAME_REGISTRY ""
FOUNDRY "SGI"
FAMILY_NAME "Haeberli"
WEIGHT_NAME "Medium"
SLANT "R"
SETWIDTH_NAME "Normal"
ADD_STYLE_NAME ""
PIXEL_SIZE 36
POINT_SIZE 360
RESOLUTION_X 72
RESOLUTION_Y 72
SPACING "P"
AVERAGE_WIDTH 190
CHARSET_REGISTRY "ISO8859"
CHARSET_ENCODING "1"
CHARSET_COLLECTIONS "ASCII ISO8859-1"
FULL_NAME "Haeberli"
CAP_HEIGHT 23
X_HEIGHT 16
WEIGHT 10
QUAD_WIDTH 19
DEFAULT_CHAR 0
FONT_DESCENT 11
FONT_ASCENT 28
ENDPROPERTIES

CHARS 190

STARTCHAR space
ENCODING 32
SWIDTH 432 0
DWIDTH 16 0
BBX 1 1 0 0
BITMAP
00
ENDCHAR

STARTCHAR exclam
ENCODING 33
SWIDTH 250 0
DWIDTH 9 0
BBX 5 24 4 -1
BITMAP
38
38
30
30
30
70
70
70
70
70
70
70
70
60
60
60
60
60
00
00
40
E0
E0
80
ENDCHAR

STARTCHAR quotedbl
ENCODING 34
SWIDTH 393 0
DWIDTH 14 0
BBX 10 8 2 15
BITMAP
E100
E380
7380
7180
39C0
39C0
18C0
00C0
ENDCHAR

STARTCHAR numbersign
ENCODING 35
SWIDTH 595 0
DWIDTH 21 0
BBX 17 19 3 3
BITMAP
018000
038000
438800
FB1C00
FF1800
1FF800
07F800
0EFC00
EE7F00
FC7F00
7FE300
1FF800
19FF00
39FF80
398380
338000
738000
270000
020000
ENDCHAR

STARTCHAR dollar
ENCODING 36
SWIDTH 612 0
DWIDTH 22 0
BBX 18 29 2 -4
BITMAP
00C000
18E000
1CE000
1CF000
0FFE00
1FFF80
7E37C0
7630C0
E73800
F73800
7F3800
3FB800
0FF800
03FE00
03BF80
039F80
039DC0
039CC0
039CC0
339DC0
3F9FC0
1FFF80
0FFF00
07FC00
039C00
039C00
038C00
038C00
030C00
ENDCHAR

STARTCHAR percent
ENCODING 37
SWIDTH 655 0
DWIDTH 24 0
BBX 20 25 2 -2
BITMAP
000020
000070
0C0070
1E00E0
3E01C0
7703C0
770380
E60700
EE0F00
FE0E00
7C1C00
383800
0079E0
0073F0
00E7F0
01EE70
01CEE0
039CE0
071DC0
0F0F80
0E0F00
1C0000
3C0000
380000
300000
ENDCHAR

STARTCHAR ampersand
ENCODING 38
SWIDTH 666 0
DWIDTH 24 0
BBX 19 25 3 -1
BITMAP
07C000
0FE000
0EE000
1CE000
1CE000
1CE000
0DC000
0FC000
0F8000
078000
078000
078000
0FC000
1CE000
1C7060
3838E0
381DC0
700F80
700700
E01FC0
E03DC0
C0F8E0
C3E060
FFC000
7F0000
ENDCHAR

STARTCHAR quoteright
ENCODING 39
SWIDTH 241 0
DWIDTH 9 0
BBX 5 7 3 16
BITMAP
38
70
70
60
E0
C0
C0
ENDCHAR

STARTCHAR parenleft
ENCODING 40
SWIDTH 334 0
DWIDTH 12 0
BBX 8 27 2 -4
BITMAP
04
0E
0C
1C
1C
38
38
70
70
70
70
60
60
E0
E0
60
70
70
70
38
3C
1C
0E
0E
07
03
03
ENDCHAR

STARTCHAR parenright
ENCODING 41
SWIDTH 299 0
DWIDTH 11 0
BBX 6 29 3 -6
BITMAP
C0
C0
E0
60
70
30
38
38
1C
1C
1C
0C
0C
0C
0C
0C
0C
1C
1C
1C
18
38
38
30
70
70
60
E0
40
ENDCHAR

STARTCHAR asterisk
ENCODING 42
SWIDTH 596 0
DWIDTH 21 0
BBX 17 15 3 5
BITMAP
001000
303800
383800
1C7000
1EF000
0EE000
07C300
03FF80
FFFF00
FFE000
07E000
0EE000
0E7000
1C3000
183000
ENDCHAR

STARTCHAR plus
ENCODING 43
SWIDTH 530 0
DWIDTH 19 0
BBX 14 15 3 3
BITMAP
0300
0300
0300
0300
0300
03FC
FFFC
FFFC
0300
0300
0300
0300
0300
0300
0300
ENDCHAR

STARTCHAR comma
ENCODING 44
SWIDTH 238 0
DWIDTH 9 0
BBX 5 9 2 -4
BITMAP
18
18
38
38
38
70
70
E0
40
ENDCHAR

STARTCHAR minus
ENCODING 45
SWIDTH 545 0
DWIDTH 20 0
BBX 15 3 3 9
BITMAP
FFFE
FFFE
003E
ENDCHAR

STARTCHAR period
ENCODING 46
SWIDTH 219 0
DWIDTH 8 0
BBX 4 4 3 0
BITMAP
20
F0
F0
F0
ENDCHAR

STARTCHAR slash
ENCODING 47
SWIDTH 512 0
DWIDTH 18 0
BBX 14 25 3 -2
BITMAP
000C
001C
0018
0038
0030
0070
0060
00E0
00E0
01C0
01C0
0380
0380
0700
0700
0E00
0E00
1C00
1800
3800
7000
7000
E000
C000
8000
ENDCHAR

STARTCHAR zero
ENCODING 48
SWIDTH 596 0
DWIDTH 21 0
BBX 18 23 2 0
BITMAP
001000
00FC00
01FE00
07CF00
0F0380
1E0380
1C01C0
3801C0
3801C0
7001C0
7001C0
6001C0
E001C0
6001C0
700180
700380
700380
380700
1C0E00
1E0E00
0FFC00
07F800
03F000
ENDCHAR

STARTCHAR one
ENCODING 49
SWIDTH 291 0
DWIDTH 10 0
BBX 7 22 2 0
BITMAP
04
1E
3E
7E
EE
4E
0E
0E
0E
0E
0E
0E
0C
0C
0C
0C
0C
0C
0C
0C
1C
08
ENDCHAR

STARTCHAR two
ENCODING 50
SWIDTH 588 0
DWIDTH 21 0
BBX 17 22 2 0
BITMAP
00FE00
0FFF00
3FFF80
3E0380
300380
000380
000700
000700
000E00
001E00
003C00
007800
00F000
01E000
03C000
078000
0E0000
3C0000
380000
7FFF80
FFFF80
7E0000
ENDCHAR

STARTCHAR three
ENCODING 51
SWIDTH 594 0
DWIDTH 21 0
BBX 18 24 2 0
BITMAP
200000
7FFF00
7FFF00
7FFF00
700E00
201C00
003800
007000
00E000
01C000
03F800
07FF00
07FF80
000380
0001C0
0001C0
0001C0
0001C0
000180
600380
F00700
7E3E00
3FFC00
0FF000
ENDCHAR

STARTCHAR four
ENCODING 52
SWIDTH 681 0
DWIDTH 25 0
BBX 21 25 2 -1
BITMAP
000180
0003C0
0003C0
0007C0
000FC0
001DC0
0039C0
0071C0
00F1C0
01E1C0
03C1C0
0781C0
0F00C0
1E00C0
3C03F8
7FFFF8
7FFFE0
FFE0C0
6000C0
0000C0
0001C0
0001C0
0001C0
0001C0
0001C0
ENDCHAR

STARTCHAR five
ENCODING 53
SWIDTH 616 0
DWIDTH 22 0
BBX 19 23 2 0
BITMAP
040000
0FFFC0
0FFFE0
0E03C0
0C0000
0C0000
0C0000
0C0000
0C0000
0FFC00
0FFF00
0C1F80
0003C0
0001C0
0000E0
0000C0
0000C0
0001C0
E00380
F01F80
7FFE00
3FFC00
07E000
ENDCHAR

STARTCHAR six
ENCODING 54
SWIDTH 498 0
DWIDTH 18 0
BBX 14 23 3 0
BITMAP
0060
00E0
01C0
01C0
0380
0700
0E00
0E00
1C00
3F80
3FE0
3FF0
7078
701C
E01C
E01C
E01C
C038
C038
C0F0
EFE0
FFC0
7F00
ENDCHAR

STARTCHAR seven
ENCODING 55
SWIDTH 554 0
DWIDTH 20 0
BBX 17 21 2 0
BITMAP
07FF00
FFFF80
7FE300
000700
000600
000E00
000E00
001C00
003C00
00FC00
00FE00
003000
007000
007000
00E000
00E000
00C000
01C000
018000
038000
030000
ENDCHAR

STARTCHAR eight
ENCODING 56
SWIDTH 541 0
DWIDTH 19 0
BBX 15 23 3 0
BITMAP
00E0
03F0
07F8
1E0C
1C0E
380E
300E
701C
7078
3FF0
3FF0
0FF8
0FFC
1E1E
380E
7006
E006
C00E
C01C
E078
FBF0
7FE0
1F00
ENDCHAR

STARTCHAR nine
ENCODING 57
SWIDTH 565 0
DWIDTH 20 0
BBX 17 25 2 -2
BITMAP
003F00
01FF00
03FB00
0FC300
1E0380
3C0380
700380
700380
600380
E00780
600F80
603F80
70FB80
3FF380
1FC380
000380
000380
000380
000380
000380
000380
000380
000300
000300
000100
ENDCHAR

STARTCHAR colon
ENCODING 58
SWIDTH 271 0
DWIDTH 10 0
BBX 3 14 4 0
BITMAP
40
E0
E0
E0
00
00
00
00
00
00
60
E0
E0
60
ENDCHAR

STARTCHAR semicolon
ENCODING 59
SWIDTH 271 0
DWIDTH 10 0
BBX 6 19 2 -5
BITMAP
18
38
38
30
00
00
00
00
00
00
38
3C
3C
1C
38
38
70
E0
C0
ENDCHAR

STARTCHAR less
ENCODING 60
SWIDTH 587 0
DWIDTH 21 0
BBX 18 27 2 -5
BITMAP
000180
0003C0
000780
000F00
001E00
007800
00F000
01E000
03C000
078000
1E0000
3C0000
F80000
FC0000
1E0000
0F0000
07C000
01E000
00F000
007800
003800
001C00
000E00
000700
000380
0001C0
000180
ENDCHAR

STARTCHAR equal
ENCODING 61
SWIDTH 562 0
DWIDTH 20 0
BBX 16 8 3 7
BITMAP
1FFC
FFFC
FFC0
0000
0000
3FFF
FFFF
7FFE
ENDCHAR

STARTCHAR greater
ENCODING 62
SWIDTH 522 0
DWIDTH 19 0
BBX 14 26 3 -4
BITMAP
C000
E000
F000
7800
3E00
0F00
0780
03C0
01E0
00F0
0078
003C
001C
003C
0070
00E0
01E0
01C0
0380
0700
0F00
1E00
1C00
3800
7000
6000
ENDCHAR

STARTCHAR question
ENCODING 63
SWIDTH 582 0
DWIDTH 21 0
BBX 18 23 2 0
BITMAP
0FF800
1FFE00
3E3F00
780780
E003C0
4001C0
0003C0
000380
000F00
003E00
007C00
00F000
00E000
00C000
00E000
00E000
00E000
006000
000000
000000
004000
00E000
006000
ENDCHAR

STARTCHAR at
ENCODING 64
SWIDTH 721 0
DWIDTH 26 0
BBX 23 26 2 -5
BITMAP
000C00
007FC0
01FFE0
07E1F0
0F8078
1E0038
3C001C
383F9C
70FFCC
70F1CE
61C38C
E3830C
E3871C
E3071C
E30738
E38738
639FF0
71FFE0
71F8C0
787000
380000
1C0100
1E0380
0F8F80
03FF00
01FC00
ENDCHAR

STARTCHAR A
ENCODING 65
SWIDTH 790 0
DWIDTH 28 0
BBX 24 23 1 0
BITMAP
001C00
001C00
003E00
003E00
007700
006700
00E380
01C380
01C1C0
0381C0
1FFFE0
3FFFE0
1FFFE0
0E0070
0C0030
1C0038
180018
38001C
30000C
70000E
600006
E00007
C00003
ENDCHAR

STARTCHAR B
ENCODING 66
SWIDTH 606 0
DWIDTH 22 0
BBX 17 25 3 -1
BITMAP
F80000
FF8000
FFC000
E3E000
E07000
E03000
607000
607000
61E000
73C000
7FE000
7FFC00
7FFF00
700700
700380
700180
700180
600180
600380
600380
E00F00
E07E00
FFFC00
FFE000
080000
ENDCHAR

STARTCHAR C
ENCODING 67
SWIDTH 609 0
DWIDTH 22 0
BBX 18 22 2 0
BITMAP
01FC00
07FE00
0F0700
1C0000
3C0000
380000
300000
700000
600000
600000
E00000
600000
600000
600000
700000
700000
3800C0
3C01C0
1C0780
0F9F00
07FE00
01F800
ENDCHAR

STARTCHAR D
ENCODING 68
SWIDTH 600 0
DWIDTH 22 0
BBX 18 24 2 -1
BITMAP
780000
7E0000
7F8000
77E000
71F800
707E00
601F00
600780
6003C0
6001C0
6001C0
6001C0
6001C0
600380
600780
600F00
601E00
603C00
60F800
63E000
E7C000
FF0000
FC0000
700000
ENDCHAR

STARTCHAR E
ENCODING 69
SWIDTH 623 0
DWIDTH 22 0
BBX 18 22 3 0
BITMAP
7FFFC0
7FFFC0
7FFE00
700000
700000
700000
700000
700000
7FF000
7FF000
7FF000
700000
600000
600000
600000
600000
600000
E00000
E00000
FFFC00
FFFC00
F80000
ENDCHAR

STARTCHAR F
ENCODING 70
SWIDTH 518 0
DWIDTH 19 0
BBX 14 23 3 0
BITMAP
7FFC
FFFC
E038
6000
6000
7000
7000
7000
7000
7000
7FF0
7FF0
7FE0
7000
7000
7000
6000
6000
E000
E000
E000
E000
C000
ENDCHAR

STARTCHAR G
ENCODING 71
SWIDTH 699 0
DWIDTH 25 0
BBX 22 23 2 0
BITMAP
003800
01FF00
07FF80
0F83C0
1E01E0
380040
700000
700000
600000
E00000
E00000
E00000
E01FF8
603FFC
701FE8
7000E0
7000E0
3800E0
3800E0
1C03C0
1E1F80
0FFF00
07F800
ENDCHAR

STARTCHAR H
ENCODING 72
SWIDTH 518 0
DWIDTH 19 0
BBX 15 25 3 -1
BITMAP
000C
400C
E00E
E00E
E00E
E00E
600E
600E
600E
600E
700E
7FFE
FFFC
7FFC
600C
600C
601C
E01C
E01C
E01C
E018
E018
C038
C038
0038
ENDCHAR

STARTCHAR I
ENCODING 73
SWIDTH 194 0
DWIDTH 7 0
BBX 4 23 2 0
BITMAP
40
E0
E0
60
60
60
60
60
60
60
60
70
70
70
70
70
70
60
60
60
60
60
60
ENDCHAR

STARTCHAR J
ENCODING 74
SWIDTH 570 0
DWIDTH 21 0
BBX 16 25 3 -2
BITMAP
1FFF
3FFF
1FFE
0070
0070
0070
0030
0030
0030
0030
0030
0030
0030
0038
0038
0038
0030
C030
E070
F070
7870
3C60
1FE0
0FC0
07C0
ENDCHAR

STARTCHAR K
ENCODING 75
SWIDTH 554 0
DWIDTH 20 0
BBX 17 24 2 -1
BITMAP
600600
E00600
E00E00
E01C00
603800
607000
607000
60E000
61C000
638000
670000
7F0000
7F0000
7F8000
79C000
70E000
707000
707000
703800
701C00
700E00
600700
600380
600100
ENDCHAR

STARTCHAR L
ENCODING 76
SWIDTH 571 0
DWIDTH 21 0
BBX 17 24 2 -1
BITMAP
600000
E00000
600000
700000
700000
700000
700000
700000
700000
700000
700000
700000
700000
700000
700000
700000
700000
700000
700180
700380
718300
7FFF00
7FFE00
300000
ENDCHAR

STARTCHAR M
ENCODING 77
SWIDTH 589 0
DWIDTH 21 0
BBX 18 24 2 -1
BITMAP
000180
300380
380780
780780
7C0780
7C0FC0
7E0FC0
760DC0
671DC0
6319C0
63B9C0
63B9C0
61B1C0
61F1C0
60E1C0
E0E1C0
E001C0
6001C0
6001C0
6001C0
6001C0
6001C0
6000C0
0000C0
ENDCHAR

STARTCHAR N
ENCODING 78
SWIDTH 492 0
DWIDTH 18 0
BBX 14 23 2 -1
BITMAP
E00C
E00C
F00C
F80C
F80C
FC0C
7C0C
6E0C
660C
670C
638C
638C
61CC
61CC
60EC
60EC
607C
703C
703C
701C
701C
601C
2000
ENDCHAR

STARTCHAR O
ENCODING 79
SWIDTH 590 0
DWIDTH 21 0
BBX 18 22 2 0
BITMAP
002000
01FC00
03FE00
0F0F00
1E0700
1C0380
380380
300180
700180
7001C0
6001C0
6001C0
E001C0
6001C0
700180
700380
380380
3C0700
1E0E00
0FFE00
07F800
00C000
ENDCHAR

STARTCHAR P
ENCODING 80
SWIDTH 556 0
DWIDTH 20 0
BBX 17 24 2 -1
BITMAP
600000
FE0000
7FC000
7FF000
30FC00
383E00
380F00
380700
380380
180300
180700
1C1E00
1C7C00
1FF800
1FE000
1E0000
1C0000
1C0000
1C0000
180000
180000
380000
380000
380000
ENDCHAR

STARTCHAR Q
ENCODING 81
SWIDTH 675 0
DWIDTH 24 0
BBX 21 23 2 0
BITMAP
007800
01FE00
07FF00
0F8780
1E01C0
3C01C0
3800C0
7000E0
7000E0
E00060
E00070
E00070
E00070
E00870
601C60
700EE0
7007C0
3803C0
3C07E0
1E0FE0
0FFE70
07F838
01E018
ENDCHAR

STARTCHAR R
ENCODING 82
SWIDTH 565 0
DWIDTH 20 0
BBX 17 24 2 -1
BITMAP
7F0000
FFF000
7FFC00
603E00
600F00
700380
700380
700380
700700
700F00
703E00
73FC00
7FF000
7FC000
70E000
707000
707800
703800
701C00
600E00
600700
600700
600300
600000
ENDCHAR

STARTCHAR S
ENCODING 83
SWIDTH 545 0
DWIDTH 20 0
BBX 15 23 3 0
BITMAP
03F0
07FC
0FFE
3C0E
3806
7000
7000
7000
7000
3E00
1FC0
0FF0
01F8
003C
001C
000E
000E
C00E
C01E
E03C
7FF8
7FF0
1FC0
ENDCHAR

STARTCHAR T
ENCODING 84
SWIDTH 736 0
DWIDTH 26 0
BBX 22 24 3 -1
BITMAP
FFFFF8
FFFFFC
FFFFF8
003000
003000
003000
003000
003000
003000
003800
003800
003800
003800
003800
003800
003800
003800
003800
003800
003800
003800
003800
003800
001000
ENDCHAR

STARTCHAR U
ENCODING 85
SWIDTH 561 0
DWIDTH 20 0
BBX 17 23 2 0
BITMAP
000600
700600
700700
700700
700700
700300
700380
700380
600380
600380
600380
600300
600300
600700
E00700
E00E00
E00E00
601E00
603C00
707800
7DF000
3FE000
0F8000
ENDCHAR

STARTCHAR V
ENCODING 86
SWIDTH 748 0
DWIDTH 27 0
BBX 24 25 1 0
BITMAP
000003
000007
40000E
E0000E
70001C
78001C
380018
1C0038
1C0030
0E0070
060070
0700E0
0300E0
0381C0
0381C0
01C380
01C380
00C300
00E700
006600
007E00
007E00
003C00
003C00
003800
ENDCHAR

STARTCHAR W
ENCODING 87
SWIDTH 869 0
DWIDTH 31 0
BBX 26 22 0 0
BITMAP
000000C0
C00000C0
E00001C0
700001C0
70000180
38000180
38000380
1C000380
1C030700
0E070700
0E078700
070F8F00
070F8E00
039DCE00
039DCC00
0198FC00
01F8FC00
01F8F800
00F07800
00F07800
00E07000
00403000
ENDCHAR

STARTCHAR X
ENCODING 88
SWIDTH 658 0
DWIDTH 24 0
BBX 19 23 3 0
BITMAP
800180
C00380
E00300
700700
380E00
1C0C00
0E1C00
0F1800
07B800
03F000
01F000
00E000
01F000
01B800
039C00
070E00
0E0600
0E0700
1C0380
3801C0
3000E0
700060
600020
ENDCHAR

STARTCHAR Y
ENCODING 89
SWIDTH 669 0
DWIDTH 24 0
BBX 21 25 2 -1
BITMAP
000038
E00070
700060
3800E0
3C01C0
1C0180
0E0380
070700
030E00
038E00
019C00
01F800
00F800
00F000
007000
007000
007000
007000
007000
007000
006000
006000
006000
006000
006000
ENDCHAR

STARTCHAR Z
ENCODING 90
SWIDTH 686 0
DWIDTH 25 0
BBX 20 22 3 0
BITMAP
FFFFE0
FFFFE0
FFFFC0
0003C0
000780
000700
000E00
001C00
003C00
007800
007000
00E000
01C000
038000
078000
070000
0E0000
1C0000
380000
7FFFF0
FFFFF0
FFFC00
ENDCHAR

STARTCHAR bracketleft
ENCODING 91
SWIDTH 330 0
DWIDTH 12 0
BBX 8 28 2 -3
BITMAP
7E
FC
E0
E0
E0
E0
E0
60
60
60
60
60
60
60
60
60
60
60
60
60
60
60
60
60
60
60
7F
7F
ENDCHAR

STARTCHAR backslash
ENCODING 92
SWIDTH 602 0
DWIDTH 22 0
BBX 17 27 3 -2
BITMAP
800000
C00000
E00000
700000
700000
380000
380000
1C0000
0E0000
0E0000
070000
038000
038000
01C000
00E000
00E000
007000
003000
003800
001C00
001C00
000E00
000700
000700
000380
000180
000180
ENDCHAR

STARTCHAR bracketright
ENCODING 93
SWIDTH 349 0
DWIDTH 13 0
BBX 9 29 2 -6
BITMAP
FF80
0380
0380
0380
0380
0380
0380
0380
0380
0300
0300
0300
0300
0300
0300
0300
0300
0380
0380
0380
0380
0380
0380
0380
0380
0380
0F80
7F80
7C00
ENDCHAR

STARTCHAR asciicircum
ENCODING 94
SWIDTH 573 0
DWIDTH 21 0
BBX 16 11 3 13
BITMAP
0100
0380
03C0
07E0
0EF0
1E78
1C3C
381E
700E
E007
E003
ENDCHAR

STARTCHAR underscore
ENCODING 95
SWIDTH 725 0
DWIDTH 26 0
BBX 22 3 2 -2
BITMAP
7FFFFC
FFFFFC
7FFF80
ENDCHAR

STARTCHAR quoteleft
ENCODING 96
SWIDTH 284 0
DWIDTH 10 0
BBX 7 7 2 16
BITMAP
40
E0
70
38
1C
0C
06
ENDCHAR

STARTCHAR a
ENCODING 97
SWIDTH 564 0
DWIDTH 20 0
BBX 16 19 3 -1
BITMAP
0C00
7F80
7FC0
01F0
0078
0038
001C
078C
1FFE
7FFE
F01E
E00E
C006
C006
E007
F007
7FFF
3FFE
07E0
ENDCHAR

STARTCHAR b
ENCODING 98
SWIDTH 494 0
DWIDTH 18 0
BBX 14 24 2 -1
BITMAP
6000
E000
6000
7000
7000
7000
7000
3000
3C00
3FC0
3FF0
39F8
3838
381C
381C
380C
380C
381C
303C
3078
71F0
7FE0
7F80
2000
ENDCHAR

STARTCHAR c
ENCODING 99
SWIDTH 530 0
DWIDTH 19 0
BBX 16 17 2 0
BITMAP
01E0
0FF8
1FFC
1C0C
380C
7000
7000
6000
6000
E000
6000
6000
7000
7800
3E00
1FFF
03FE
ENDCHAR

STARTCHAR d
ENCODING 100
SWIDTH 586 0
DWIDTH 21 0
BBX 18 23 2 0
BITMAP
000100
000380
000380
000380
000380
000380
000380
000380
000380
000180
07F180
1FFD80
3FBF80
780780
600180
E00180
600180
600180
700180
380180
3E0180
1FFFC0
07FF80
ENDCHAR

STARTCHAR e
ENCODING 101
SWIDTH 545 0
DWIDTH 20 0
BBX 16 16 2 0
BITMAP
07E0
1FF8
3FFC
781E
703E
E0FC
E3F0
6FC0
7F00
7C00
7003
7007
380E
3F3E
1FFC
07F0
ENDCHAR

STARTCHAR f
ENCODING 102
SWIDTH 537 0
DWIDTH 19 0
BBX 15 24 3 -1
BITMAP
007C
01FE
03FC
0380
0700
0700
0600
0600
0E00
0E00
0E00
FFE0
FFE0
3F00
0E00
0E00
0E00
0E00
0E00
0C00
0C00
0C00
1C00
0C00
ENDCHAR

STARTCHAR g
ENCODING 103
SWIDTH 565 0
DWIDTH 20 0
BBX 16 25 3 -10
BITMAP
0006
003E
01FF
03F7
0F87
1E07
3C07
7807
F007
E007
E007
C03F
FFFF
FFFF
3F86
0006
0006
0006
000E
000E
000C
600C
701C
3FF8
1FF0
ENDCHAR

STARTCHAR h
ENCODING 104
SWIDTH 479 0
DWIDTH 17 0
BBX 14 23 2 -1
BITMAP
6000
E000
E000
E000
E000
E000
6000
6000
6000
7FE0
7FF8
7FF8
601C
601C
601C
601C
601C
6018
6038
6038
6038
4030
0020
ENDCHAR

STARTCHAR i
ENCODING 105
SWIDTH 280 0
DWIDTH 10 0
BBX 3 20 4 0
BITMAP
40
E0
E0
E0
00
00
C0
E0
E0
E0
E0
E0
E0
E0
E0
E0
E0
E0
E0
C0
ENDCHAR

STARTCHAR j
ENCODING 106
SWIDTH 464 0
DWIDTH 17 0
BBX 10 31 3 -10
BITMAP
0180
01C0
01C0
00C0
0000
0000
0080
0180
01C0
01C0
01C0
01C0
01C0
01C0
01C0
00C0
00C0
00C0
01C0
01C0
01C0
01C0
81C0
C1C0
E180
7180
3B80
1F80
0F00
0700
0200
ENDCHAR

STARTCHAR k
ENCODING 107
SWIDTH 483 0
DWIDTH 17 0
BBX 14 24 2 0
BITMAP
4000
E000
6000
6000
6000
6000
7000
7000
7010
7038
7070
70E0
71E0
71C0
3380
3F00
3FC0
3DC0
38E0
3870
3078
3038
301C
300C
ENDCHAR

STARTCHAR l
ENCODING 108
SWIDTH 189 0
DWIDTH 7 0
BBX 3 22 2 0
BITMAP
60
60
60
60
60
60
60
60
60
60
60
60
60
60
60
60
60
60
60
E0
60
60
ENDCHAR

STARTCHAR m
ENCODING 109
SWIDTH 688 0
DWIDTH 25 0
BBX 20 17 3 -1
BITMAP
70E000
71E1C0
77F3E0
7F77E0
7E7F70
7C3C70
703870
703870
703870
603830
603830
E03830
E03830
E03830
C03830
C03820
C03000
ENDCHAR

STARTCHAR n
ENCODING 110
SWIDTH 498 0
DWIDTH 18 0
BBX 15 18 2 -1
BITMAP
4060
61F0
E3F8
6FB8
7E18
7C1C
701C
701C
700C
700E
700E
700E
700E
700E
700E
600E
600E
0004
ENDCHAR

STARTCHAR o
ENCODING 111
SWIDTH 553 0
DWIDTH 20 0
BBX 16 16 2 0
BITMAP
01F0
03FC
0FFE
1E0F
1C07
3803
7003
7003
6007
E007
E007
E00E
703C
7FF8
3FF0
1FC0
ENDCHAR

STARTCHAR p
ENCODING 112
SWIDTH 530 0
DWIDTH 19 0
BBX 16 24 2 -10
BITMAP
3F00
7FC0
77F0
7078
701C
700E
7006
7007
7007
700E
703E
7FFC
7FF0
7E00
7000
7000
6000
6000
6000
6000
6000
6000
6000
E000
ENDCHAR

STARTCHAR q
ENCODING 113
SWIDTH 607 0
DWIDTH 22 0
BBX 18 25 2 -11
BITMAP
003C00
00FE00
03FC00
0FDC00
1E1C00
3C1C00
701C00
701C00
601C00
601C00
E07C00
7FFC00
3FFC00
1F9C00
001C00
001800
001800
001800
0018C0
0019C0
003BC0
003F80
003F00
003E00
003C00
ENDCHAR

STARTCHAR r
ENCODING 114
SWIDTH 450 0
DWIDTH 16 0
BBX 13 17 2 0
BITMAP
4000
E078
61F8
67E0
7F80
7E00
7800
7000
7000
7000
7000
7000
7000
7000
6000
6000
6000
ENDCHAR

STARTCHAR s
ENCODING 115
SWIDTH 493 0
DWIDTH 18 0
BBX 14 18 2 0
BITMAP
01E0
0FF0
1FF8
3C38
3810
3800
3800
3E00
1FE0
0FF8
00FC
001C
E00C
F00C
781C
3E78
1FF0
07E0
ENDCHAR

STARTCHAR t
ENCODING 116
SWIDTH 531 0
DWIDTH 19 0
BBX 15 21 2 -1
BITMAP
0400
0600
0600
0600
7FF0
FFF8
7FF0
0600
0600
0600
0600
0600
0700
0706
070E
071E
073C
0778
03F0
03E0
0180
ENDCHAR

STARTCHAR u
ENCODING 117
SWIDTH 573 0
DWIDTH 21 0
BBX 17 18 2 -1
BITMAP
601800
E01800
E01800
E01800
E01800
E01800
601C00
601C00
601C00
601C00
601C00
703C00
707C00
71FC00
7FCC00
7F8F00
3E0780
000380
ENDCHAR

STARTCHAR v
ENCODING 118
SWIDTH 599 0
DWIDTH 22 0
BBX 18 16 2 0
BITMAP
0000C0
E001C0
E00180
700380
780300
380700
1C0E00
1C0E00
0E1C00
0E1C00
073800
073800
03F000
03E000
01E000
01C000
ENDCHAR

STARTCHAR w
ENCODING 119
SWIDTH 698 0
DWIDTH 25 0
BBX 22 15 2 -1
BITMAP
E00008
60001C
700038
700038
380030
383070
187870
1CF8E0
1CFCE0
1DCFC0
0F8FC0
0F8780
0F0300
0E0000
040000
ENDCHAR

STARTCHAR x
ENCODING 120
SWIDTH 548 0
DWIDTH 20 0
BBX 16 16 3 0
BITMAP
6007
700F
380E
1C1C
1E38
0F70
07E0
03E0
03C0
07E0
0F70
1E70
3C38
781C
F01C
C00C
ENDCHAR

STARTCHAR y
ENCODING 121
SWIDTH 626 0
DWIDTH 23 0
BBX 19 25 2 -10
BITMAP
400060
E000E0
7000E0
7801C0
3801C0
1C0380
0E0380
070700
078700
038600
01CE00
00EC00
007C00
003C00
003800
003800
007000
007000
00E000
00E000
00C000
01C000
018000
038000
038000
ENDCHAR

STARTCHAR z
ENCODING 122
SWIDTH 595 0
DWIDTH 21 0
BBX 18 15 2 0
BITMAP
7FFE00
FFFF80
1FFF80
000700
000E00
001C00
003800
007000
00E000
01C000
038000
070000
0FFE00
1FFFC0
1FFFC0
ENDCHAR

STARTCHAR braceleft
ENCODING 123
SWIDTH 377 0
DWIDTH 14 0
BBX 10 27 2 -4
BITMAP
0380
0780
0F00
0E00
0C00
0C00
1C00
0C00
0C00
0C00
0C00
3C00
7800
F800
3C00
1C00
0C00
0C00
0C00
1C00
1C00
1C00
1C00
0E00
0F00
07C0
01C0
ENDCHAR

STARTCHAR bar
ENCODING 124
SWIDTH 212 0
DWIDTH 8 0
BBX 4 26 2 -4
BITMAP
60
E0
E0
60
60
60
60
70
70
70
70
70
70
70
70
70
70
30
30
30
30
30
30
30
30
30
ENDCHAR

STARTCHAR braceright
ENCODING 125
SWIDTH 348 0
DWIDTH 13 0
BBX 9 28 2 -6
BITMAP
F800
7C00
1C00
0E00
0E00
0E00
0E00
0E00
0E00
0E00
0E00
0F00
0780
0380
0700
0E00
0E00
0E00
0600
0600
0600
0700
0700
0700
0700
3E00
7C00
7000
ENDCHAR

STARTCHAR asciitilde
ENCODING 126
SWIDTH 622 0
DWIDTH 22 0
BBX 18 7 3 6
BITMAP
3C00C0
7F01C0
FFC180
E1F780
C0FF00
C03E00
001800
ENDCHAR

STARTCHAR exclamdown
ENCODING 161
SWIDTH 250 0
DWIDTH 9 0
BBX 5 24 4 -7
BITMAP
80
E0
E0
40
00
00
60
60
60
60
60
70
70
70
70
70
70
70
70
30
30
30
38
38
ENDCHAR

STARTCHAR cent
ENCODING 162
SWIDTH 530 0
DWIDTH 19 0
BBX 13 20 3 0
BITMAP
0180
0180
0180
03C0
1FF0
3FF8
7818
7018
E000
E000
E000
E000
E000
F000
7C00
3FF8
1FF8
0180
0180
0180
ENDCHAR

STARTCHAR sterling
ENCODING 163
SWIDTH 571 0
DWIDTH 21 0
BBX 19 24 3 -1
BITMAP
01FE00
07FF00
0F0380
1C0180
1C0180
1C0000
1C0000
1C0000
1C0000
1C0000
1C0000
FFE000
FFF000
1C0000
1C0000
1C0000
1C0000
1C0000
1C0000
1C00E0
1F01C0
FFFF80
FFFF00
600000
ENDCHAR

STARTCHAR currency
ENCODING 164
SWIDTH 722 0
DWIDTH 26 0
BBX 14 14 6 6
BITMAP
C00C
E01C
77B8
3FF0
1C60
3830
3830
3030
3830
1860
3FF0
7FB8
E01C
C00C
ENDCHAR

STARTCHAR yen
ENCODING 165
SWIDTH 722 0
DWIDTH 26 0
BBX 17 22 4 0
BITMAP
C00180
E00380
F00780
780F00
3C0E00
1E1C00
0F3800
07F000
03E000
7FFF00
7FFE00
01C000
01C000
01C000
3FFE00
7FFF00
01C000
01C000
01C000
01C000
07F000
07F000
ENDCHAR

STARTCHAR brokenbar
ENCODING 166
SWIDTH 212 0
DWIDTH 8 0
BBX 4 26 6 -4
BITMAP
60
E0
E0
60
60
60
60
70
70
70
70
70
00
00
70
70
70
30
30
30
30
30
30
30
30
30
ENDCHAR

STARTCHAR section
ENCODING 167
SWIDTH 722 0
DWIDTH 26 0
BBX 14 28 5 -5
BITMAP
3FE0
7FF8
F03C
E00C
E000
7000
3800
7E00
FF80
E7C0
E1E0
E0F0
E078
F038
701C
781C
3C1C
1E1C
0F9C
07FC
01F8
0078
001C
001C
C01C
F03C
7FF8
1FF0
ENDCHAR

STARTCHAR dieresis
ENCODING 168
SWIDTH 722 0
DWIDTH 26 0
BBX 9 3 8 19
BITMAP
E380
E380
E380
ENDCHAR

STARTCHAR copyright
ENCODING 169
SWIDTH 722 0
DWIDTH 26 0
BBX 20 20 2 -1
BITMAP
01F800
0FFF00
1F9F80
3C03C0
7801E0
71F8E0
E3FC70
E78070
C70030
C70030
C70030
C70030
E78070
E3FC70
71F8E0
7801E0
3C03C0
1F9F80
0FFE00
01F800
ENDCHAR

STARTCHAR ordfeminine
ENCODING 170
SWIDTH 722 0
DWIDTH 26 0
BBX 9 12 8 10
BITMAP
7E00
7F00
0380
0180
7F80
FF80
C180
FF80
7F00
0000
FF80
FF00
ENDCHAR

STARTCHAR guillemotleft
ENCODING 171
SWIDTH 722 0
DWIDTH 26 0
BBX 16 16 4 0
BITMAP
0187
038E
071C
0E38
1C70
38E0
71C0
E380
E380
71C0
38E0
1C70
0E38
071C
038E
0187
ENDCHAR

STARTCHAR logicalnot
ENCODING 172
SWIDTH 722 0
DWIDTH 26 0
BBX 16 7 5 7
BITMAP
FFFE
FFFF
FE07
0007
0007
0007
0007
ENDCHAR

STARTCHAR hyphen
ENCODING 173
SWIDTH 545 0
DWIDTH 20 0
BBX 12 3 6 9
BITMAP
FFF0
FFF0
F800
ENDCHAR

STARTCHAR registered
ENCODING 174
SWIDTH 722 0
DWIDTH 26 0
BBX 20 20 2 -1
BITMAP
01F800
0FFF00
1F9F80
3C03C0
7801E0
73F0E0
E3F870
E31C70
C30C30
C31C30
C3F830
C3F030
E33870
E31C70
730CE0
7801E0
3C03C0
1F9F80
0FFE00
01F800
ENDCHAR

STARTCHAR macron
ENCODING 175
SWIDTH 722 0
DWIDTH 26 0
BBX 8 2 9 19
BITMAP
FF
FE
ENDCHAR

STARTCHAR degree
ENCODING 176
SWIDTH 722 0
DWIDTH 26 0
BBX 9 8 8 10
BITMAP
3E00
7F00
E380
C180
C180
E380
7F00
3E00
ENDCHAR

STARTCHAR plusminus
ENCODING 177
SWIDTH 530 0
DWIDTH 19 0
BBX 14 19 3 0
BITMAP
0300
0300
0300
0300
0300
03FC
FFFC
FFFC
0300
0300
0300
0300
0300
0300
0300
0000
0000
FFF0
FFFC
ENDCHAR

STARTCHAR twosuperior
ENCODING 178
SWIDTH 722 0
DWIDTH 26 0
BBX 7 10 9 12
BITMAP
7C
FE
C6
06
0E
1C
38
70
FE
FE
ENDCHAR

STARTCHAR threesuperior
ENCODING 179
SWIDTH 722 0
DWIDTH 26 0
BBX 7 10 9 12
BITMAP
7C
FE
C6
06
1C
1C
06
C6
FE
7C
ENDCHAR

STARTCHAR acute
ENCODING 180
SWIDTH 722 0
DWIDTH 26 0
BBX 4 6 11 17
BITMAP
30
30
70
60
E0
C0
ENDCHAR

STARTCHAR mu
ENCODING 181
SWIDTH 573 0
DWIDTH 21 0
BBX 17 22 2 -5
BITMAP
601800
E01800
E01800
E01800
E01800
E01800
601C00
601C00
601C00
601C00
601C00
703C00
707C00
71FC00
7FCC00
7F8F00
7E0780
600380
600000
600000
600000
600000
ENDCHAR

STARTCHAR paragraph
ENCODING 182
SWIDTH 722 0
DWIDTH 26 0
BBX 19 26 2 -3
BITMAP
0FFFE0
1FFFE0
3F9F80
738300
E38300
C38300
C38300
C38300
C38300
E38300
738300
3F8300
1F8300
038380
038380
030380
030380
030380
030380
030380
030380
030380
030380
038380
038380
038380
ENDCHAR

STARTCHAR periodcentered
ENCODING 183
SWIDTH 722 0
DWIDTH 26 0
BBX 2 2 12 7
BITMAP
C0
C0
ENDCHAR

STARTCHAR cedilla
ENCODING 184
SWIDTH 722 0
DWIDTH 26 0
BBX 5 5 10 -5
BITMAP
70
38
18
F8
70
ENDCHAR

STARTCHAR onesuperior
ENCODING 185
SWIDTH 722 0
DWIDTH 26 0
BBX 6 10 10 12
BITMAP
30
70
F0
F0
30
30
30
30
FC
FC
ENDCHAR

STARTCHAR ordmasculine
ENCODING 186
SWIDTH 722 0
DWIDTH 26 0
BBX 9 12 8 10
BITMAP
3E00
7F00
E380
C180
C180
C180
E380
7F00
3E00
0000
FF80
FF00
ENDCHAR

STARTCHAR guillemotright
ENCODING 187
SWIDTH 722 0
DWIDTH 26 0
BBX 16 16 5 0
BITMAP
E180
71C0
38E0
1C70
0E38
071C
038E
01C7
01C7
038E
071C
0E38
1C70
38E0
71C0
E180
ENDCHAR

STARTCHAR onequarter
ENCODING 188
SWIDTH 722 0
DWIDTH 26 0
BBX 16 21 5 1
BITMAP
3000
7000
F000
F001
3003
3007
300E
301C
FC38
FC70
00E0
01C6
038E
071E
0E3E
1C76
387F
707F
E006
C006
8006
ENDCHAR

STARTCHAR onehalf
ENCODING 189
SWIDTH 722 0
DWIDTH 26 0
BBX 16 24 5 -2
BITMAP
3000
7000
F000
F001
3003
3007
300E
301C
FC38
FC70
00E0
01C0
0380
0700
0E3E
1C7F
3863
7003
E007
C00E
801C
0038
007F
007F
ENDCHAR

STARTCHAR threequarters
ENCODING 190
SWIDTH 722 0
DWIDTH 26 0
BBX 17 20 4 1
BITMAP
7C0000
FE0000
C60080
060180
1C0380
1C0700
060E00
C61C00
FE3800
7C7000
00E300
01C700
038F00
071F00
0E3B00
1C3F80
383F80
700300
600300
400300
ENDCHAR

STARTCHAR questiondown
ENCODING 191
SWIDTH 582 0
DWIDTH 21 0
BBX 18 23 4 -7
BITMAP
018000
01C000
008000
000000
000000
018000
01C000
01C000
01C000
00C000
01C000
03C000
0F8000
1F0000
3C0000
700000
F00000
E00080
F001C0
780780
3F1F00
1FFE00
07FC00
ENDCHAR

STARTCHAR Agrave
ENCODING 192
SWIDTH 790 0
DWIDTH 28 0
BBX 22 25 2 0
BITMAP
00C000
00E000
006000
007000
003000
000000
003800
007C00
007C00
00EE00
00CE00
01C700
038700
038380
070380
3FFFC0
7FFFC0
3FFFC0
1C00E0
180060
380070
300030
700038
600018
E0001C
ENDCHAR

STARTCHAR Aacute
ENCODING 193
SWIDTH 790 0
DWIDTH 28 0
BBX 22 25 2 0
BITMAP
000C00
001C00
001800
003800
003000
000000
003800
007C00
007C00
00EE00
00CE00
01C700
038700
038380
070380
3FFFC0
7FFFC0
3FFFC0
1C00E0
180060
380070
300030
700038
600018
E0001C
ENDCHAR

STARTCHAR Acircumflex
ENCODING 194
SWIDTH 790 0
DWIDTH 28 0
BBX 22 25 2 0
BITMAP
003000
007800
00FC00
01CE00
018600
000000
003800
007C00
007C00
00EE00
00CE00
01C700
038700
038380
070380
3FFFC0
7FFFC0
3FFFC0
1C00E0
180060
380070
300030
700038
600018
E0001C
ENDCHAR

STARTCHAR Atilde
ENCODING 195
SWIDTH 790 0
DWIDTH 28 0
BBX 22 25 2 0
BITMAP
00F0C0
01F8C0
0399C0
031F80
030F00
000000
003800
007C00
007C00
00EE00
00CE00
01C700
038700
038380
070380
3FFFC0
7FFFC0
3FFFC0
1C00E0
180060
380070
300030
700038
600018
E0001C
ENDCHAR

STARTCHAR Adieresis
ENCODING 196
SWIDTH 790 0
DWIDTH 28 0
BBX 22 24 2 0
BITMAP
01C700
01C700
01C700
000000
000000
003800
007C00
007C00
00EE00
00CE00
01C700
038700
038380
070380
3FFFC0
7FFFC0
3FFFC0
1C00E0
180060
380070
300030
700038
600018
E0001C
ENDCHAR

STARTCHAR Aring
ENCODING 197
SWIDTH 790 0
DWIDTH 28 0
BBX 22 25 2 0
BITMAP
007C00
00FE00
00C600
00C600
00FE00
007C00
003800
007C00
007C00
00EE00
00CE00
01C700
038700
038380
070380
3FFFC0
7FFFC0
3FFFC0
1C00E0
180060
380070
300030
700038
600018
E0001C
ENDCHAR

STARTCHAR AE
ENCODING 198
SWIDTH 623 0
DWIDTH 22 0
BBX 24 22 1 0
BITMAP
007FFF
00FFFF
01FFFF
03DC00
079C00
0F1C00
0E1C00
1C1C00
1C1FF8
3C1FF8
381FF8
781C00
7FF800
FFF800
FFF800
E01800
E01800
E03800
E03800
E03FFF
E03FFF
C03E00
ENDCHAR

STARTCHAR Ccedilla
ENCODING 199
SWIDTH 609 0
DWIDTH 22 0
BBX 18 27 2 -5
BITMAP
01FC00
07FE00
0F0700
1C0000
3C0000
380000
300000
700000
600000
600000
E00000
600000
600000
600000
700000
700000
3800C0
3C01C0
1C0780
0F9F00
07FE00
01F800
00E000
007000
003000
01F000
00E000
ENDCHAR

STARTCHAR Egrave
ENCODING 200
SWIDTH 623 0
DWIDTH 22 0
BBX 15 26 3 -1
BITMAP
0300
0380
0180
01C0
00C0
0000
7FFE
7FFE
7FFE
7000
7000
7000
7000
7000
7FF0
7FF0
7FF0
7000
6000
6000
6000
E000
E000
FFFC
FFFC
F800
ENDCHAR

STARTCHAR Eacute
ENCODING 201
SWIDTH 623 0
DWIDTH 22 0
BBX 15 26 3 -1
BITMAP
0060
00E0
00C0
01C0
0180
0000
7FFE
7FFE
7FFE
7000
7000
7000
7000
7000
7FF0
7FF0
7FF0
7000
6000
6000
6000
E000
E000
FFFC
FFFC
F800
ENDCHAR

STARTCHAR Ecircumflex
ENCODING 202
SWIDTH 623 0
DWIDTH 22 0
BBX 15 26 3 -1
BITMAP
0180
03C0
07E0
0E70
0C30
0000
7FFE
7FFE
7FFE
7000
7000
7000
7000
7000
7FF0
7FF0
7FF0
7000
6000
6000
6000
E000
E000
FFFC
FFFC
F800
ENDCHAR

STARTCHAR Edieresis
ENCODING 203
SWIDTH 623 0
DWIDTH 22 0
BBX 15 25 3 -1
BITMAP
0E38
0E38
0E38
0000
0000
7FFE
7FFE
7FFE
7000
7000
7000
7000
7000
7FF0
7FF0
7FF0
7000
6000
6000
6000
E000
E000
FFFC
FFFC
F800
ENDCHAR

STARTCHAR Igrave
ENCODING 204
SWIDTH 194 0
DWIDTH 7 0
BBX 5 25 5 0
BITMAP
C0
E0
60
70
30
00
30
30
30
30
30
30
30
38
38
38
38
38
38
30
30
30
30
30
30
ENDCHAR

STARTCHAR Iacute
ENCODING 205
SWIDTH 194 0
DWIDTH 7 0
BBX 4 25 7 0
BITMAP
30
70
60
E0
C0
00
C0
C0
C0
C0
C0
C0
C0
E0
E0
E0
E0
E0
E0
C0
C0
C0
C0
C0
C0
ENDCHAR

STARTCHAR Icircumflex
ENCODING 206
SWIDTH 194 0
DWIDTH 7 0
BBX 8 25 4 0
BITMAP
18
3C
7E
E7
C3
00
18
18
18
18
18
18
18
1C
1C
1C
1C
1C
1C
18
18
18
18
18
18
ENDCHAR

STARTCHAR Idieresis
ENCODING 207
SWIDTH 194 0
DWIDTH 7 0
BBX 8 24 4 0
BITMAP
E7
E7
E7
00
00
18
18
18
18
18
18
18
1C
1C
1C
1C
1C
1C
18
18
18
18
18
18
ENDCHAR

STARTCHAR Eth
ENCODING 208
SWIDTH 600 0
DWIDTH 22 0
BBX 21 24 1 -1
BITMAP
0F0000
0FC000
0FF000
0EFC00
0E3F00
0E0FC0
0C03E0
0C00F0
0C0078
0C0038
0CE038
FFF038
FFF038
0C0070
0C00F0
0C01E0
0C03C0
0C0780
0C1F00
0C7C00
1CF800
1FE000
1F8000
0E0000
ENDCHAR

STARTCHAR Ntilde
ENCODING 209
SWIDTH 492 0
DWIDTH 18 0
BBX 14 26 2 -1
BITMAP
1E18
3F18
7338
63F0
61E0
0000
E00C
F00C
F80C
F80C
FC0C
7C0C
6E0C
660C
670C
638C
638C
61CC
61CC
60EC
60EC
607C
703C
703C
701C
2000
ENDCHAR

STARTCHAR Ograve
ENCODING 210
SWIDTH 590 0
DWIDTH 21 0
BBX 18 26 2 -1
BITMAP
030000
038000
018000
01C000
00C000
000000
01E000
07FC00
0F3E00
1C0700
380380
300180
700180
7001C0
6001C0
6001C0
E001C0
6001C0
700180
700380
380380
3C0700
1E0E00
0FFE00
07F800
00C000
ENDCHAR

STARTCHAR Oacute
ENCODING 211
SWIDTH 590 0
DWIDTH 21 0
BBX 18 26 2 -1
BITMAP
003000
007000
006000
00E000
00C000
000000
01E000
07FC00
0F3E00
1C0700
380380
300180
700180
7001C0
6001C0
6001C0
E001C0
6001C0
700180
700380
380380
3C0700
1E0E00
0FFE00
07F800
00C000
ENDCHAR

STARTCHAR Ocircumflex
ENCODING 212
SWIDTH 590 0
DWIDTH 21 0
BBX 18 26 2 -1
BITMAP
00C000
01E000
03F000
073800
061800
000000
01E000
07FC00
0F3E00
1C0700
380380
300180
700180
7001C0
6001C0
6001C0
E001C0
6001C0
700180
700380
380380
3C0700
1E0E00
0FFE00
07F800
00C000
ENDCHAR

STARTCHAR Otilde
ENCODING 213
SWIDTH 590 0
DWIDTH 21 0
BBX 18 26 2 -1
BITMAP
078600
0FC600
1CCE00
18FC00
187800
000000
01E000
07FC00
0F3E00
1C0700
380380
300180
700180
7001C0
6001C0
6001C0
E001C0
6001C0
700180
700380
380380
3C0700
1E0E00
0FFE00
07F800
00C000
ENDCHAR

STARTCHAR Odieresis
ENCODING 214
SWIDTH 590 0
DWIDTH 21 0
BBX 18 25 2 -1
BITMAP
071C00
071C00
071C00
000000
000000
01E000
07FC00
0F3E00
1C0700
380380
300180
700180
7001C0
6001C0
6001C0
E001C0
6001C0
700180
700380
380380
3C0700
1E0E00
0FFE00
07F800
00C000
ENDCHAR

STARTCHAR multiply
ENCODING 215
SWIDTH 722 0
DWIDTH 26 0
BBX 15 13 5 2
BITMAP
E00E
701C
3838
1C70
0EE0
07C0
0380
07C0
0EE0
1C70
3838
701C
E00E
ENDCHAR

STARTCHAR Oslash
ENCODING 216
SWIDTH 590 0
DWIDTH 21 0
BBX 19 20 2 -1
BITMAP
01E060
07FCE0
0F3FC0
1C0780
380780
300F80
701D80
7039C0
6071C0
60E1C0
E1C1C0
6381C0
770180
7E0380
3C0380
3C0700
7E0E00
EFFE00
C7F800
00C000
ENDCHAR

STARTCHAR Ugrave
ENCODING 217
SWIDTH 561 0
DWIDTH 20 0
BBX 17 25 2 0
BITMAP
030000
038000
018000
01C000
00C000
000000
700700
700300
700380
700380
600380
600380
600380
600300
600300
600700
E00700
E00E00
E00E00
601E00
603C00
707800
7DF000
3FE000
0F8000
ENDCHAR

STARTCHAR Uacute
ENCODING 218
SWIDTH 561 0
DWIDTH 20 0
BBX 17 25 2 0
BITMAP
003000
007000
006000
00E000
00C000
000000
700700
700300
700380
700380
600380
600380
600380
600300
600300
600700
E00700
E00E00
E00E00
601E00
603C00
707800
7DF000
3FE000
0F8000
ENDCHAR

STARTCHAR Ucircumflex
ENCODING 219
SWIDTH 561 0
DWIDTH 20 0
BBX 17 25 2 0
BITMAP
00C000
01E000
03F000
073800
061800
000000
700300
700300
700380
700380
600380
600380
600380
600300
600300
600700
E00700
E00E00
E00E00
601E00
603C00
707800
7DF000
3FE000
0F8000
ENDCHAR

STARTCHAR Udieresis
ENCODING 220
SWIDTH 561 0
DWIDTH 20 0
BBX 17 24 2 0
BITMAP
0E3800
0E3800
0E3800
000000
000000
700300
700300
700380
700380
600380
600380
600380
600300
600300
600700
E00700
E00E00
E00E00
601E00
603C00
707800
7DF000
3FE000
0F8000
ENDCHAR

STARTCHAR Yacute
ENCODING 221
SWIDTH 669 0
DWIDTH 24 0
BBX 18 25 3 0
BITMAP
003000
007000
006000
00E000
00C000
000000
E000C0
7001C0
780380
380300
1C0700
0E0E00
061C00
071C00
033800
03F000
01F000
01E000
00E000
00E000
00E000
00E000
00E000
00E000
00C000
ENDCHAR

STARTCHAR Thorn
ENCODING 222
SWIDTH 722 0
DWIDTH 26 0
BBX 13 22 9 0
BITMAP
E000
E000
E000
E000
E000
CFC0
DFE0
F870
F038
E018
E018
E018
E018
F038
F870
FFE0
EFC0
E000
E000
E000
E000
E000
ENDCHAR

STARTCHAR germandbls
ENCODING 223
SWIDTH 722 0
DWIDTH 26 0
BBX 15 23 6 0
BITMAP
1FC0
7FE0
7070
E038
E038
E038
E038
E070
E0E0
E3C0
E3F0
E078
E03C
E01C
E01E
E00E
E00E
E00E
E00E
E01C
E61C
E7F8
C3F0
ENDCHAR

STARTCHAR agrave
ENCODING 224
SWIDTH 564 0
DWIDTH 20 0
BBX 16 25 3 -1
BITMAP
0600
0700
0300
0380
0180
0000
0C00
7F80
7FC0
01F0
0078
0038
001C
078C
1FFE
7FFE
F01E
E00E
C006
C006
E007
F007
7FFF
3FFE
07E0
ENDCHAR

STARTCHAR aacute
ENCODING 225
SWIDTH 564 0
DWIDTH 20 0
BBX 16 26 3 -1
BITMAP
0060
00E0
00C0
00C0
01C0
0180
0000
0C00
7F80
7FC0
01F0
0078
0038
001C
078C
1FFE
7FFE
F01E
E00E
C006
C006
E007
F007
7FFF
3FFE
07E0
ENDCHAR

STARTCHAR acircumflex
ENCODING 226
SWIDTH 564 0
DWIDTH 20 0
BBX 16 25 3 -1
BITMAP
0180
03C0
07E0
0E70
0C30
0000
0C00
7F80
7FC0
01F0
0078
0038
001C
078C
1FFE
7FFE
F01E
E00E
C006
C006
E007
F007
7FFF
3FFE
07E0
ENDCHAR

STARTCHAR atilde
ENCODING 227
SWIDTH 564 0
DWIDTH 20 0
BBX 16 25 3 -1
BITMAP
0F0C
1F8C
399C
31F8
30F0
0000
0C00
7F80
7FC0
01F0
0078
0038
001C
078C
1FFE
7FFE
F01E
E00E
C006
C006
E007
F007
7FFF
3FFE
07E0
ENDCHAR

STARTCHAR adieresis
ENCODING 228
SWIDTH 564 0
DWIDTH 20 0
BBX 16 24 3 -1
BITMAP
1C70
1C70
1C70
0000
0000
0C00
7F80
7FC0
01F0
0078
0038
001C
078C
1FFE
7FFE
F01E
E00E
C006
C006
E007
F007
7FFF
3FFE
07E0
ENDCHAR

STARTCHAR aring
ENCODING 229
SWIDTH 564 0
DWIDTH 20 0
BBX 16 25 3 -1
BITMAP
07C0
0FE0
0C60
0C60
0FE0
07C0
0000
7F80
7FC0
01F0
0078
0038
001C
078C
1FFE
7FFE
F01E
E00E
C006
C006
E007
F007
7FFF
3FFE
07E0
ENDCHAR

STARTCHAR ae
ENCODING 230
SWIDTH 722 0
DWIDTH 26 0
BBX 24 16 1 0
BITMAP
7E03F8
3F8FFC
03DE0E
00FC07
007803
003803
003FFF
3FFFFF
7FF800
E07800
C03800
C03800
C03C00
E07F00
7FEFFE
3FC3FC
ENDCHAR

STARTCHAR ccedilla
ENCODING 231
SWIDTH 530 0
DWIDTH 19 0
BBX 16 22 2 -5
BITMAP
01E0
0FF8
1FFC
1C0C
380C
7000
7000
6000
6000
E000
6000
6000
7000
7800
3E00
1FFF
03FE
00E0
0070
0030
01F0
00E0
ENDCHAR

STARTCHAR egrave
ENCODING 232
SWIDTH 545 0
DWIDTH 20 0
BBX 16 22 2 0
BITMAP
0300
0380
0180
01C0
00C0
0000
07E0
1FF8
3FFC
781E
703E
E0FC
E3F0
EFC0
FF00
FC00
7003
7007
380E
3F3E
1FFC
07F0
ENDCHAR

STARTCHAR eacute
ENCODING 233
SWIDTH 545 0
DWIDTH 20 0
BBX 16 22 2 0
BITMAP
0030
0070
0060
00E0
00C0
0000
07E0
1FF8
3FFC
781E
703E
E0FC
E3F0
EFC0
FF00
FC00
7003
7007
380E
3F3E
1FFC
07F0
ENDCHAR

STARTCHAR ecircumflex
ENCODING 234
SWIDTH 545 0
DWIDTH 20 0
BBX 16 22 2 0
BITMAP
00C0
01E0
03F0
0738
0618
0000
07E0
1FF8
3FFC
781E
703E
E0FC
E3F0
EFC0
FF00
FC00
7003
7007
380E
3F3E
1FFC
07F0
ENDCHAR

STARTCHAR edieresis
ENCODING 235
SWIDTH 545 0
DWIDTH 20 0
BBX 16 21 2 0
BITMAP
0E38
0E38
0E38
0000
0000
07E0
1FF8
3FFC
781E
703E
E0FC
E3F0
EFC0
FF00
FC00
7003
7007
380E
3F3E
1FFC
07F0
ENDCHAR

STARTCHAR igrave
ENCODING 236
SWIDTH 280 0
DWIDTH 10 0
BBX 5 21 7 0
BITMAP
C0
E0
60
70
30
00
00
30
38
38
38
38
38
38
38
38
38
38
38
38
30
ENDCHAR

STARTCHAR iacute
ENCODING 237
SWIDTH 280 0
DWIDTH 10 0
BBX 4 21 9 0
BITMAP
30
70
60
E0
C0
00
00
C0
E0
E0
E0
E0
E0
E0
E0
E0
E0
E0
E0
E0
C0
ENDCHAR

STARTCHAR icircumflex
ENCODING 238
SWIDTH 280 0
DWIDTH 10 0
BBX 8 21 6 0
BITMAP
18
3C
7E
E7
C3
00
00
18
1C
1C
1C
1C
1C
1C
1C
1C
1C
1C
1C
1C
18
ENDCHAR

STARTCHAR idieresis
ENCODING 239
SWIDTH 280 0
DWIDTH 10 0
BBX 9 19 6 0
BITMAP
E380
E380
E380
0000
0000
1800
1C00
1C00
1C00
1C00
1C00
1C00
1C00
1C00
1C00
1C00
1C00
1C00
1800
ENDCHAR

STARTCHAR eth
ENCODING 240
SWIDTH 553 0
DWIDTH 20 0
BBX 16 25 2 0
BITMAP
3C1E
3F7E
0FF0
07F0
3F38
3C1C
000E
000E
0007
01F7
03FF
0FFF
1E0F
1C07
3803
7003
7003
6007
E007
E006
E00E
703C
7FF8
3FF0
1FC0
ENDCHAR

STARTCHAR ntilde
ENCODING 241
SWIDTH 498 0
DWIDTH 18 0
BBX 15 24 2 -1
BITMAP
0F0C
1F8C
399C
31F8
30F0
0000
4060
61F0
E3F8
6FB8
7E18
7C1C
701C
701C
700C
700E
700E
700E
700E
700E
700E
600E
600E
0004
ENDCHAR

STARTCHAR ograve
ENCODING 242
SWIDTH 553 0
DWIDTH 20 0
BBX 16 22 2 0
BITMAP
0180
01C0
00C0
00E0
0060
0000
01F0
03FC
0FFE
1E0F
1C07
3803
7003
7003
6007
E007
E007
E00E
703C
7FF8
3FF0
1FC0
ENDCHAR

STARTCHAR oacute
ENCODING 243
SWIDTH 553 0
DWIDTH 20 0
BBX 16 22 2 0
BITMAP
0018
0038
0030
0070
0060
0000
01F0
03FC
0FFE
1E0F
1C07
3803
7003
7003
6007
E007
E007
E00E
703C
7FF8
3FF0
1FC0
ENDCHAR

STARTCHAR ocircumflex
ENCODING 244
SWIDTH 553 0
DWIDTH 20 0
BBX 16 22 2 0
BITMAP
0060
00F0
01F8
039C
030C
0000
01F0
03FC
0FFE
1E0F
1C07
3803
7003
7003
6007
E007
E007
E00E
703C
7FF8
3FF0
1FC0
ENDCHAR

STARTCHAR otilde
ENCODING 245
SWIDTH 553 0
DWIDTH 20 0
BBX 16 22 2 0
BITMAP
0786
0FC6
1CCE
18FC
1878
0000
01F0
03FC
0FFE
1E0F
1C07
3803
7003
7003
6007
E007
E007
E00E
703C
7FF8
3FF0
1FC0
ENDCHAR

STARTCHAR odieresis
ENCODING 246
SWIDTH 553 0
DWIDTH 20 0
BBX 16 21 2 0
BITMAP
071C
071C
071C
0000
0000
01F0
03FC
0FFE
1E0F
1C07
3803
7003
7003
6007
E007
E007
E00E
703C
7FF8
3FF0
1FC0
ENDCHAR

STARTCHAR divide
ENCODING 247
SWIDTH 545 0
DWIDTH 20 0
BBX 15 16 4 1
BITMAP
0380
0380
0380
0000
0000
0000
0000
FFFE
FFFE
003E
0000
0000
0000
0380
0380
0380
ENDCHAR

STARTCHAR oslash
ENCODING 248
SWIDTH 553 0
DWIDTH 20 0
BBX 17 16 2 0
BITMAP
01F380
03FF80
0FFF00
1E1F00
1C3F00
387B00
70F300
71E300
63C700
E78700
EF0700
FE0E00
7C3C00
7FF800
FFF000
EFC000
ENDCHAR

STARTCHAR ugrave
ENCODING 249
SWIDTH 573 0
DWIDTH 21 0
BBX 17 24 2 -1
BITMAP
0C0000
0E0000
060000
070000
030000
000000
601800
E01800
E01800
E01800
E01800
E01800
601C00
601C00
601C00
601C00
601C00
703C00
707C00
71FC00
7FCC00
7F8F00
3E0780
000380
ENDCHAR

STARTCHAR uacute
ENCODING 250
SWIDTH 573 0
DWIDTH 21 0
BBX 17 24 2 -1
BITMAP
00C000
01C000
018000
038000
030000
000000
601800
E01800
E01800
E01800
E01800
E01800
601C00
601C00
601C00
601C00
601C00
703C00
707C00
71FC00
7FCC00
7F8F00
3E0780
000380
ENDCHAR

STARTCHAR ucircumflex
ENCODING 251
SWIDTH 573 0
DWIDTH 21 0
BBX 17 24 2 -1
BITMAP
030000
078000
0FC000
1CE000
186000
000000
601800
E01800
E01800
E01800
E01800
E01800
601C00
601C00
601C00
601C00
601C00
703C00
707C00
71FC00
7FCC00
7F8F00
3E0780
000380
ENDCHAR

STARTCHAR udieresis
ENCODING 252
SWIDTH 573 0
DWIDTH 21 0
BBX 17 23 2 -1
BITMAP
38E000
38E000
38E000
000000
000000
601800
E01800
E01800
E01800
E01800
E01800
601C00
601C00
601C00
601C00
601C00
703C00
707C00
71FC00
7FCC00
7F8F00
3E0780
000380
ENDCHAR

STARTCHAR yacute
ENCODING 253
SWIDTH 626 0
DWIDTH 23 0
BBX 19 31 2 -10
BITMAP
001800
003800
003000
007000
006000
000000
400060
E000E0
7000E0
7801C0
3801C0
1C0380
0E0380
070700
078700
038600
01CE00
00EC00
007C00
003C00
003800
003800
007000
007000
00E000
00E000
00C000
01C000
018000
038000
038000
ENDCHAR

STARTCHAR thorn
ENCODING 254
SWIDTH 722 0
DWIDTH 26 0
BBX 17 28 5 -6
BITMAP
C00000
C00000
C00000
C00000
E00000
E00000
E3E000
EFF800
FFFC00
F81E00
F00F00
E00780
E00380
E00380
E00380
E00380
E00380
F00780
F80F00
FFFE00
EFFC00
E3F000
E00000
E00000
E00000
E00000
E00000
C00000
ENDCHAR

STARTCHAR ydieresis
ENCODING 255
SWIDTH 626 0
DWIDTH 23 0
BBX 19 30 2 -10
BITMAP
038E00
038E00
038E00
000000
000000
400060
E000E0
7000E0
7801C0
3801C0
1C0380
0E0380
070700
078700
038600
01CE00
00EC00
007C00
003C00
003800
003800
007000
007000
00E000
00E000
00C000
01C000
018000
038000
038000
ENDCHAR

ENDFONT
