STARTFONT 2.1
FONT -SGI-Rock-Medium-R-Normal--18-180-72-72-P-99-ISO8859-1
SIZE 18 72 72
FONTBOUNDINGBOX 14 18 0 -5

STARTPROPERTIES 25
_DEC_DEVICE_FONTNAMES "FM=Rock"
FONTNAME_REGISTRY ""
FOUNDRY "SGI"
FAMILY_NAME "Rock"
WEIGHT_NAME "Medium"
SLANT "R"
SETWIDTH_NAME "Normal"
ADD_STYLE_NAME ""
PIXEL_SIZE 18
POINT_SIZE 180
RESOLUTION_X 72
RESOLUTION_Y 72
SPACING "P"
AVERAGE_WIDTH 99
CHARSET_REGISTRY "ISO8859"
CHARSET_ENCODING "1"
CHARSET_COLLECTIONS "ASCII ISO8859-1"
FULL_NAME "Rock"
CAP_HEIGHT 13
X_HEIGHT 9
WEIGHT 10
QUAD_WIDTH 10
DEFAULT_CHAR 0
FONT_DESCENT 5
FONT_ASCENT 13
ENDPROPERTIES

CHARS 190

STARTCHAR space
ENCODING 32
SWIDTH 400 0
DWIDTH 7 0
BBX 1 1 0 0
BITMAP
00
ENDCHAR

STARTCHAR exclam
ENCODING 33
SWIDTH 258 0
DWIDTH 5 0
BBX 2 14 2 -1
BITMAP
C0
C0
C0
C0
C0
C0
C0
C0
C0
C0
00
C0
C0
40
ENDCHAR

STARTCHAR quotedbl
ENCODING 34
SWIDTH 455 0
DWIDTH 8 0
BBX 6 5 2 8
BITMAP
60
EC
FC
D8
58
ENDCHAR

STARTCHAR numbersign
ENCODING 35
SWIDTH 539 0
DWIDTH 10 0
BBX 8 11 1 1
BITMAP
02
1B
1F
FF
FF
76
7F
FF
7C
6C
24
ENDCHAR

STARTCHAR dollar
ENCODING 36
SWIDTH 562 0
DWIDTH 10 0
BBX 8 15 2 -2
BITMAP
3C
3C
7C
E0
E0
E0
7C
3E
0F
07
3F
FC
F8
18
18
ENDCHAR

STARTCHAR percent
ENCODING 37
SWIDTH 908 0
DWIDTH 16 0
BBX 13 14 1 -1
BITMAP
0020
3070
F870
FEE0
CEC0
FDC0
FFB0
3378
07E8
0EC8
0ED8
1CF8
1870
0800
ENDCHAR

STARTCHAR ampersand
ENCODING 38
SWIDTH 656 0
DWIDTH 12 0
BBX 10 13 1 -1
BITMAP
1C00
3C00
3000
3000
3000
3800
7C00
6E80
E7C0
E3C0
7FC0
3EC0
1C00
ENDCHAR

STARTCHAR quoteright
ENCODING 39
SWIDTH 291 0
DWIDTH 5 0
BBX 3 5 2 8
BITMAP
E0
E0
C0
C0
C0
ENDCHAR

STARTCHAR parenleft
ENCODING 40
SWIDTH 420 0
DWIDTH 8 0
BBX 6 15 1 -2
BITMAP
18
38
30
70
60
E0
E0
E0
E0
60
70
30
38
1C
08
ENDCHAR

STARTCHAR parenright
ENCODING 41
SWIDTH 416 0
DWIDTH 7 0
BBX 6 15 1 -2
BITMAP
70
30
38
38
18
1C
0C
0C
1C
1C
18
38
70
E0
60
ENDCHAR

STARTCHAR asterisk
ENCODING 42
SWIDTH 586 0
DWIDTH 11 0
BBX 9 9 1 1
BITMAP
1C00
5E00
7F00
FE00
3F00
7F80
3D80
0C00
0C00
ENDCHAR

STARTCHAR plus
ENCODING 43
SWIDTH 630 0
DWIDTH 11 0
BBX 10 8 1 1
BITMAP
0C00
0C00
0C00
FFC0
FFC0
0C00
0C00
0C00
ENDCHAR

STARTCHAR comma
ENCODING 44
SWIDTH 338 0
DWIDTH 6 0
BBX 5 6 1 -3
BITMAP
10
38
38
30
F0
60
ENDCHAR

STARTCHAR minus
ENCODING 45
SWIDTH 608 0
DWIDTH 11 0
BBX 9 2 1 4
BITMAP
FF80
FF80
ENDCHAR

STARTCHAR period
ENCODING 46
SWIDTH 237 0
DWIDTH 4 0
BBX 3 4 1 -1
BITMAP
40
E0
E0
40
ENDCHAR

STARTCHAR slash
ENCODING 47
SWIDTH 862 0
DWIDTH 16 0
BBX 13 15 1 -2
BITMAP
0018
0038
0070
0070
00E0
01C0
0380
0700
0600
0E00
1C00
3800
7000
E000
6000
ENDCHAR

STARTCHAR zero
ENCODING 48
SWIDTH 657 0
DWIDTH 12 0
BBX 10 12 1 0
BITMAP
1F00
3F80
73C0
60C0
E0C0
E0C0
E0C0
E1C0
61C0
7F80
3F00
0E00
ENDCHAR

STARTCHAR one
ENCODING 49
SWIDTH 373 0
DWIDTH 7 0
BBX 4 13 2 -1
BITMAP
30
70
F0
F0
F0
30
30
30
30
30
30
30
30
ENDCHAR

STARTCHAR two
ENCODING 50
SWIDTH 568 0
DWIDTH 10 0
BBX 8 12 2 0
BITMAP
E0
F0
7C
1C
0E
06
06
0E
3C
78
FF
FF
ENDCHAR

STARTCHAR three
ENCODING 51
SWIDTH 464 0
DWIDTH 8 0
BBX 6 15 2 -2
BITMAP
80
E0
F0
38
1C
1C
78
F0
F8
3C
1C
3C
F0
E0
80
ENDCHAR

STARTCHAR four
ENCODING 52
SWIDTH 707 0
DWIDTH 13 0
BBX 11 13 1 0
BITMAP
0180
0380
0780
0F80
0F80
1D80
3980
7180
7FE0
FFE0
7F80
0180
0180
ENDCHAR

STARTCHAR five
ENCODING 53
SWIDTH 563 0
DWIDTH 10 0
BBX 9 13 1 -1
BITMAP
FF80
FF80
E000
F800
FE00
0E00
0700
0700
0E00
1C00
3C00
7800
6000
ENDCHAR

STARTCHAR six
ENCODING 54
SWIDTH 541 0
DWIDTH 10 0
BBX 8 14 1 -1
BITMAP
0C
0E
1C
1C
18
3C
3E
7F
67
63
E3
67
7E
3C
ENDCHAR

STARTCHAR seven
ENCODING 55
SWIDTH 554 0
DWIDTH 10 0
BBX 9 12 1 0
BITMAP
FF80
FF80
0300
0700
0600
0E00
0C00
1C00
1C00
3800
3800
3000
ENDCHAR

STARTCHAR eight
ENCODING 56
SWIDTH 526 0
DWIDTH 9 0
BBX 8 12 1 0
BITMAP
3C
7E
66
E7
7E
7E
7F
E3
E3
E7
7E
3C
ENDCHAR

STARTCHAR nine
ENCODING 57
SWIDTH 518 0
DWIDTH 9 0
BBX 8 13 1 -1
BITMAP
3E
7E
E7
E7
E7
76
3E
1E
1C
1C
38
70
20
ENDCHAR

STARTCHAR colon
ENCODING 58
SWIDTH 243 0
DWIDTH 4 0
BBX 3 8 1 -1
BITMAP
E0
E0
60
00
00
E0
E0
60
ENDCHAR

STARTCHAR semicolon
ENCODING 59
SWIDTH 338 0
DWIDTH 6 0
BBX 5 11 1 -3
BITMAP
30
38
38
00
00
38
38
38
70
F0
40
ENDCHAR

STARTCHAR less
ENCODING 60
SWIDTH 494 0
DWIDTH 9 0
BBX 7 11 1 1
BITMAP
0C
1C
1C
38
70
E0
70
38
1C
0E
06
ENDCHAR

STARTCHAR equal
ENCODING 61
SWIDTH 562 0
DWIDTH 10 0
BBX 8 5 2 3
BITMAP
FF
FF
00
FF
FF
ENDCHAR

STARTCHAR greater
ENCODING 62
SWIDTH 476 0
DWIDTH 9 0
BBX 6 10 2 1
BITMAP
C0
E0
70
38
1C
1C
38
70
E0
C0
ENDCHAR

STARTCHAR question
ENCODING 63
SWIDTH 444 0
DWIDTH 8 0
BBX 6 13 2 -1
BITMAP
E0
F0
78
18
1C
1C
38
70
60
00
60
60
60
ENDCHAR

STARTCHAR at
ENCODING 64
SWIDTH 763 0
DWIDTH 14 0
BBX 12 14 1 -1
BITMAP
0F00
3FC0
39C0
72E0
6760
6F60
FFE0
79E0
7EC0
6E30
7070
3FE0
1FC0
0780
ENDCHAR

STARTCHAR A
ENCODING 65
SWIDTH 803 0
DWIDTH 14 0
BBX 13 13 1 -1
BITMAP
0600
0700
0F80
0F80
0D80
1DC0
19C0
3FE0
3FE0
7070
7030
E038
6010
ENDCHAR

STARTCHAR B
ENCODING 66
SWIDTH 596 0
DWIDTH 11 0
BBX 9 13 1 -1
BITMAP
FE00
7F00
6780
6380
7F00
7E00
7F00
6780
6180
6380
7F00
7E00
7800
ENDCHAR

STARTCHAR C
ENCODING 67
SWIDTH 598 0
DWIDTH 11 0
BBX 9 13 1 -1
BITMAP
0780
0F80
1E00
3800
7000
6000
E000
E000
6000
7800
3F80
0F80
0380
ENDCHAR

STARTCHAR D
ENCODING 68
SWIDTH 635 0
DWIDTH 11 0
BBX 9 12 2 0
BITMAP
E000
FC00
FE00
CF00
C380
C180
C180
C380
C700
DF00
FC00
F000
ENDCHAR

STARTCHAR E
ENCODING 69
SWIDTH 474 0
DWIDTH 9 0
BBX 6 13 2 0
BITMAP
60
FC
FC
C0
C0
C0
F8
F8
E0
E0
F0
FC
FC
ENDCHAR

STARTCHAR F
ENCODING 70
SWIDTH 431 0
DWIDTH 8 0
BBX 6 12 2 0
BITMAP
F8
FC
C0
C0
C0
F8
F8
C0
C0
C0
C0
C0
ENDCHAR

STARTCHAR G
ENCODING 71
SWIDTH 627 0
DWIDTH 11 0
BBX 10 12 1 0
BITMAP
0100
0780
0F00
1C00
3800
7000
60C0
E0C0
E0C0
70C0
3FC0
1FC0
ENDCHAR

STARTCHAR H
ENCODING 72
SWIDTH 729 0
DWIDTH 13 0
BBX 12 13 1 -1
BITMAP
E060
E060
E060
E060
E060
FFE0
7FE0
6060
6070
6070
E070
E070
E070
ENDCHAR

STARTCHAR I
ENCODING 73
SWIDTH 242 0
DWIDTH 4 0
BBX 2 13 2 -1
BITMAP
C0
C0
C0
C0
C0
C0
C0
C0
C0
C0
C0
C0
C0
ENDCHAR

STARTCHAR J
ENCODING 74
SWIDTH 380 0
DWIDTH 7 0
BBX 5 15 1 -3
BITMAP
18
18
18
18
18
18
18
18
18
18
38
30
70
E0
60
ENDCHAR

STARTCHAR K
ENCODING 75
SWIDTH 620 0
DWIDTH 11 0
BBX 9 13 2 -1
BITMAP
C600
CE00
DC00
F800
F000
F000
F000
F800
DC00
CE00
C700
C380
C100
ENDCHAR

STARTCHAR L
ENCODING 76
SWIDTH 474 0
DWIDTH 9 0
BBX 6 11 2 0
BITMAP
C0
C0
C0
C0
C0
C0
C0
C0
C0
FC
FC
ENDCHAR

STARTCHAR M
ENCODING 77
SWIDTH 906 0
DWIDTH 16 0
BBX 13 13 1 0
BITMAP
0860
1CE0
1DE0
1FE0
3F60
3F70
3730
7630
7030
6038
6018
E018
6008
ENDCHAR

STARTCHAR N
ENCODING 78
SWIDTH 781 0
DWIDTH 14 0
BBX 13 13 1 -1
BITMAP
E030
F030
F830
FC30
6E30
6730
67B0
63B8
61F8
60F8
6078
6038
6000
ENDCHAR

STARTCHAR O
ENCODING 79
SWIDTH 804 0
DWIDTH 14 0
BBX 13 12 1 0
BITMAP
0FC0
1FE0
3CF0
7070
6030
E038
E018
6018
7038
3C70
1FE0
0FC0
ENDCHAR

STARTCHAR P
ENCODING 80
SWIDTH 583 0
DWIDTH 10 0
BBX 9 12 1 0
BITMAP
7000
FE00
7F00
6780
6180
6380
6F00
7E00
7800
6000
6000
6000
ENDCHAR

STARTCHAR Q
ENCODING 81
SWIDTH 794 0
DWIDTH 14 0
BBX 13 14 1 -2
BITMAP
0780
1FE0
3FF0
7030
6038
E038
E038
E038
6070
70F0
3FE0
1FF0
07F8
0030
ENDCHAR

STARTCHAR R
ENCODING 82
SWIDTH 655 0
DWIDTH 12 0
BBX 10 14 1 -1
BITMAP
F000
FE00
FF00
6380
6180
6380
6F00
7E00
7E00
6F00
6780
63C0
60C0
2000
ENDCHAR

STARTCHAR S
ENCODING 83
SWIDTH 509 0
DWIDTH 9 0
BBX 8 14 1 -1
BITMAP
04
1C
3C
70
60
E0
7C
3E
0F
07
1E
7C
70
60
ENDCHAR

STARTCHAR T
ENCODING 84
SWIDTH 674 0
DWIDTH 12 0
BBX 11 12 1 0
BITMAP
FFE0
FFE0
7FE0
0E00
0E00
0E00
0E00
0E00
0E00
0E00
0E00
0E00
ENDCHAR

STARTCHAR U
ENCODING 85
SWIDTH 765 0
DWIDTH 14 0
BBX 13 13 1 0
BITMAP
0030
E030
E030
E030
6038
6030
6030
6070
7070
3060
3DE0
1FC0
0F80
ENDCHAR

STARTCHAR V
ENCODING 86
SWIDTH 861 0
DWIDTH 15 0
BBX 13 12 1 0
BITMAP
E008
6018
7018
3838
3830
1C70
0C60
0EE0
06C0
07C0
03C0
0380
ENDCHAR

STARTCHAR W
ENCODING 87
SWIDTH 940 0
DWIDTH 17 0
BBX 13 12 1 0
BITMAP
E008
6018
7018
7038
3030
3B30
1B30
1B70
1FF0
0FE0
0E60
0E60
ENDCHAR

STARTCHAR X
ENCODING 88
SWIDTH 789 0
DWIDTH 14 0
BBX 12 13 2 -1
BITMAP
0020
C070
E0E0
71C0
39C0
1F80
0F00
0F00
0F80
1DC0
38E0
7070
6020
ENDCHAR

STARTCHAR Y
ENCODING 89
SWIDTH 753 0
DWIDTH 14 0
BBX 12 13 1 -1
BITMAP
7030
F8F0
3DE0
0FC0
0780
0700
0300
0300
0300
0300
0300
0300
0300
ENDCHAR

STARTCHAR Z
ENCODING 90
SWIDTH 625 0
DWIDTH 11 0
BBX 10 13 1 -1
BITMAP
FF80
7FC0
0380
0300
0700
0E00
0C00
1C00
3800
3000
7000
FFC0
7FC0
ENDCHAR

STARTCHAR bracketleft
ENCODING 91
SWIDTH 393 0
DWIDTH 7 0
BBX 5 15 2 -2
BITMAP
F0
C0
C0
C0
C0
C0
C0
C0
C0
C0
C0
C0
C0
F8
F8
ENDCHAR

STARTCHAR backslash
ENCODING 92
SWIDTH 860 0
DWIDTH 15 0
BBX 12 15 2 -2
BITMAP
E000
6000
7000
3800
1C00
0E00
0E00
0700
0380
01C0
00E0
00F0
0070
0030
0010
ENDCHAR

STARTCHAR bracketright
ENCODING 93
SWIDTH 365 0
DWIDTH 7 0
BBX 4 15 2 -2
BITMAP
F0
30
30
30
30
30
30
30
30
30
30
30
30
F0
F0
ENDCHAR

STARTCHAR asciicircum
ENCODING 94
SWIDTH 566 0
DWIDTH 10 0
BBX 8 6 2 6
BITMAP
18
3C
3C
7E
E7
C6
ENDCHAR

STARTCHAR underscore
ENCODING 95
SWIDTH 812 0
DWIDTH 15 0
BBX 12 3 2 -1
BITMAP
FFF0
FFF0
FFF0
ENDCHAR

STARTCHAR quoteleft
ENCODING 96
SWIDTH 321 0
DWIDTH 6 0
BBX 3 4 2 9
BITMAP
C0
E0
60
60
ENDCHAR

STARTCHAR a
ENCODING 97
SWIDTH 561 0
DWIDTH 10 0
BBX 9 8 1 0
BITMAP
1C00
7C00
7C00
EC00
EE00
FF00
7F80
1B80
ENDCHAR

STARTCHAR b
ENCODING 98
SWIDTH 575 0
DWIDTH 10 0
BBX 9 11 1 0
BITMAP
E000
E000
E000
F800
FE00
FF00
E380
E380
FF00
FF00
FC00
ENDCHAR

STARTCHAR c
ENCODING 99
SWIDTH 474 0
DWIDTH 9 0
BBX 7 10 1 -1
BITMAP
04
1C
3C
70
E0
E0
F0
7C
1E
06
ENDCHAR

STARTCHAR d
ENCODING 100
SWIDTH 536 0
DWIDTH 10 0
BBX 8 12 1 0
BITMAP
03
03
03
03
07
1F
7F
F3
E3
7F
3F
0F
ENDCHAR

STARTCHAR e
ENCODING 101
SWIDTH 537 0
DWIDTH 10 0
BBX 8 8 1 0
BITMAP
1C
7E
7E
E6
EC
7F
3F
1E
ENDCHAR

STARTCHAR f
ENCODING 102
SWIDTH 484 0
DWIDTH 9 0
BBX 6 13 2 0
BITMAP
0C
0C
1C
38
30
FC
FC
30
30
30
30
30
30
ENDCHAR

STARTCHAR g
ENCODING 103
SWIDTH 527 0
DWIDTH 9 0
BBX 7 13 2 -5
BITMAP
1E
7E
FE
C6
E6
FE
3E
06
06
0E
1C
38
30
ENDCHAR

STARTCHAR h
ENCODING 104
SWIDTH 549 0
DWIDTH 10 0
BBX 9 12 1 0
BITMAP
6000
E000
6000
6000
7000
7C00
7E00
6700
6300
6300
6380
6300
ENDCHAR

STARTCHAR i
ENCODING 105
SWIDTH 248 0
DWIDTH 4 0
BBX 2 10 2 0
BITMAP
C0
C0
00
C0
C0
C0
C0
C0
C0
C0
ENDCHAR

STARTCHAR j
ENCODING 106
SWIDTH 316 0
DWIDTH 6 0
BBX 4 14 1 -4
BITMAP
70
30
00
20
30
30
30
30
30
30
30
70
E0
60
ENDCHAR

STARTCHAR k
ENCODING 107
SWIDTH 484 0
DWIDTH 9 0
BBX 7 12 1 0
BITMAP
60
E0
60
64
6E
7E
7C
78
7C
6E
6E
64
ENDCHAR

STARTCHAR l
ENCODING 108
SWIDTH 260 0
DWIDTH 5 0
BBX 2 12 2 0
BITMAP
C0
C0
C0
C0
C0
C0
C0
C0
C0
C0
C0
C0
ENDCHAR

STARTCHAR m
ENCODING 109
SWIDTH 705 0
DWIDTH 13 0
BBX 11 8 1 0
BITMAP
7D00
FFC0
7FC0
66E0
66E0
6660
6660
7660
ENDCHAR

STARTCHAR n
ENCODING 110
SWIDTH 501 0
DWIDTH 9 0
BBX 8 8 1 0
BITMAP
6C
FE
7E
76
66
67
67
67
ENDCHAR

STARTCHAR o
ENCODING 111
SWIDTH 546 0
DWIDTH 10 0
BBX 9 8 1 0
BITMAP
1E00
3F00
7380
6300
E300
7700
7E00
1C00
ENDCHAR

STARTCHAR p
ENCODING 112
SWIDTH 574 0
DWIDTH 10 0
BBX 9 12 1 -4
BITMAP
6000
FE00
FF80
6780
6380
6F00
7E00
7800
6000
6000
6000
6000
ENDCHAR

STARTCHAR q
ENCODING 113
SWIDTH 614 0
DWIDTH 11 0
BBX 9 12 1 -4
BITMAP
0F80
3F80
7980
E180
E180
FF80
3F80
0180
0180
0180
0180
0180
ENDCHAR

STARTCHAR r
ENCODING 114
SWIDTH 414 0
DWIDTH 7 0
BBX 5 9 2 0
BITMAP
08
D8
F8
F0
E0
C0
C0
C0
C0
ENDCHAR

STARTCHAR s
ENCODING 115
SWIDTH 390 0
DWIDTH 7 0
BBX 6 10 1 -1
BITMAP
10
38
70
E0
78
38
1C
38
30
20
ENDCHAR

STARTCHAR t
ENCODING 116
SWIDTH 497 0
DWIDTH 9 0
BBX 8 12 1 -2
BITMAP
18
18
FE
FF
3F
18
18
18
1C
0C
0E
06
ENDCHAR

STARTCHAR u
ENCODING 117
SWIDTH 563 0
DWIDTH 10 0
BBX 9 8 1 0
BITMAP
E380
E300
6300
6300
6300
6700
7F00
3C00
ENDCHAR

STARTCHAR v
ENCODING 118
SWIDTH 553 0
DWIDTH 10 0
BBX 8 9 2 0
BITMAP
42
C7
E6
6E
7E
3C
3C
1C
1C
ENDCHAR

STARTCHAR w
ENCODING 119
SWIDTH 782 0
DWIDTH 14 0
BBX 12 9 1 0
BITMAP
0020
E630
E770
7F70
3FE0
3DE0
1DC0
1DC0
1000
ENDCHAR

STARTCHAR x
ENCODING 120
SWIDTH 615 0
DWIDTH 11 0
BBX 9 9 2 0
BITMAP
8200
E700
FE00
7E00
1C00
3E00
3F00
7380
6100
ENDCHAR

STARTCHAR y
ENCODING 121
SWIDTH 559 0
DWIDTH 10 0
BBX 8 10 1 -2
BITMAP
C3
E7
7E
3C
1C
1C
1C
1C
1C
1C
ENDCHAR

STARTCHAR z
ENCODING 122
SWIDTH 524 0
DWIDTH 9 0
BBX 7 8 2 0
BITMAP
FE
FE
FE
38
70
FE
FE
FE
ENDCHAR

STARTCHAR braceleft
ENCODING 123
SWIDTH 408 0
DWIDTH 7 0
BBX 6 15 1 -2
BITMAP
18
38
30
30
30
30
70
E0
70
30
38
38
18
1C
08
ENDCHAR

STARTCHAR bar
ENCODING 124
SWIDTH 250 0
DWIDTH 4 0
BBX 3 15 1 -2
BITMAP
E0
E0
E0
E0
E0
60
60
60
60
60
60
60
60
60
60
ENDCHAR

STARTCHAR braceright
ENCODING 125
SWIDTH 408 0
DWIDTH 7 0
BBX 6 15 1 -2
BITMAP
60
70
30
30
30
30
38
1C
38
38
70
70
60
E0
40
ENDCHAR

STARTCHAR asciitilde
ENCODING 126
SWIDTH 613 0
DWIDTH 11 0
BBX 9 3 1 5
BITMAP
7D80
FF80
6700
ENDCHAR

STARTCHAR exclamdown
ENCODING 161
SWIDTH 258 0
DWIDTH 5 0
BBX 2 14 2 -5
BITMAP
40
C0
C0
00
C0
C0
C0
C0
C0
C0
C0
C0
C0
C0
ENDCHAR

STARTCHAR cent
ENCODING 162
SWIDTH 474 0
DWIDTH 9 0
BBX 10 11 1 0
BITMAP
0600
0600
1F80
3F00
7000
E000
E000
FFC0
3F80
0C00
0C00
ENDCHAR

STARTCHAR sterling
ENCODING 163
SWIDTH 722 0
DWIDTH 13 0
BBX 11 12 2 0
BITMAP
1F00
3F80
3180
3000
2000
3C00
FE00
F000
3000
3820
7FE0
DFC0
ENDCHAR

STARTCHAR currency
ENCODING 164
SWIDTH 722 0
DWIDTH 13 0
BBX 7 8 3 3
BITMAP
86
FC
6C
64
7C
3E
66
40
ENDCHAR

STARTCHAR yen
ENCODING 165
SWIDTH 722 0
DWIDTH 13 0
BBX 9 12 2 0
BITMAP
C180
E380
7300
3B00
1E00
3F80
7F80
0C00
3F00
7F80
0C00
1E00
ENDCHAR

STARTCHAR brokenbar
ENCODING 166
SWIDTH 250 0
DWIDTH 4 0
BBX 3 15 1 -2
BITMAP
E0
E0
E0
E0
E0
60
60
00
60
60
60
60
60
60
60
ENDCHAR

STARTCHAR section
ENCODING 167
SWIDTH 722 0
DWIDTH 13 0
BBX 10 16 2 -4
BITMAP
3F00
7F80
E180
E000
7800
FE00
CF80
C1C0
E0C0
78C0
3F80
0FC0
00C0
61C0
7F80
3F00
ENDCHAR

STARTCHAR dieresis
ENCODING 168
SWIDTH 722 0
DWIDTH 13 0
BBX 5 5 5 7
BITMAP
88
D8
D8
D8
C8
ENDCHAR

STARTCHAR copyright
ENCODING 169
SWIDTH 722 0
DWIDTH 13 0
BBX 11 12 2 -1
BITMAP
1F00
3FC0
70E0
E660
CF60
D860
D860
DF60
CEE0
E1C0
7F80
3F00
ENDCHAR

STARTCHAR ordfeminine
ENCODING 170
SWIDTH 722 0
DWIDTH 13 0
BBX 7 9 5 3
BITMAP
3A
7E
EE
C6
CE
FE
76
FE
FE
ENDCHAR

STARTCHAR guillemotleft
ENCODING 171
SWIDTH 722 0
DWIDTH 13 0
BBX 11 12 1 -1
BITMAP
0C60
0C60
3DC0
71C0
7380
E700
E700
E380
71C0
38C0
1CE0
0C60
ENDCHAR

STARTCHAR logicalnot
ENCODING 172
SWIDTH 722 0
DWIDTH 13 0
BBX 9 5 3 3
BITMAP
7F00
FF80
0180
0180
0100
ENDCHAR

STARTCHAR hyphen
ENCODING 173
SWIDTH 722 0
DWIDTH 13 0
BBX 8 2 4 4
BITMAP
7F
FE
ENDCHAR

STARTCHAR registered
ENCODING 174
SWIDTH 722 0
DWIDTH 13 0
BBX 11 12 2 -1
BITMAP
1F00
3FC0
70E0
EE60
DF60
DB60
DE60
DF60
DB60
E0C0
7F80
3F00
ENDCHAR

STARTCHAR macron
ENCODING 175
SWIDTH 722 0
DWIDTH 13 0
BBX 6 2 5 9
BITMAP
F8
FC
ENDCHAR

STARTCHAR degree
ENCODING 176
SWIDTH 722 0
DWIDTH 13 0
BBX 5 6 5 5
BITMAP
30
F8
D8
D8
F8
70
ENDCHAR

STARTCHAR plusminus
ENCODING 177
SWIDTH 722 0
DWIDTH 13 0
BBX 10 12 2 0
BITMAP
0800
0C00
0C00
0C00
7F80
FFC0
0C00
0C00
0800
0000
FFC0
FF80
ENDCHAR

STARTCHAR twosuperior
ENCODING 178
SWIDTH 722 0
DWIDTH 13 0
BBX 4 6 4 6
BITMAP
60
F0
30
60
F0
E0
ENDCHAR

STARTCHAR threesuperior
ENCODING 179
SWIDTH 722 0
DWIDTH 13 0
BBX 4 6 6 6
BITMAP
F0
70
E0
30
F0
E0
ENDCHAR

STARTCHAR acute
ENCODING 180
SWIDTH 722 0
DWIDTH 13 0
BBX 3 4 5 8
BITMAP
60
60
C0
C0
ENDCHAR

STARTCHAR mu
ENCODING 181
SWIDTH 563 0
DWIDTH 10 0
BBX 8 11 2 -3
BITMAP
C0
C6
C6
C6
C6
CE
FE
F7
C0
C0
80
ENDCHAR

STARTCHAR paragraph
ENCODING 182
SWIDTH 722 0
DWIDTH 13 0
BBX 11 14 2 -2
BITMAP
1FE0
7FC0
F980
D980
D980
D980
D980
7980
3980
1980
1980
1980
1980
38C0
ENDCHAR

STARTCHAR periodcentered
ENCODING 183
SWIDTH 722 0
DWIDTH 13 0
BBX 3 3 5 3
BITMAP
60
E0
60
ENDCHAR

STARTCHAR cedilla
ENCODING 184
SWIDTH 722 0
DWIDTH 13 0
BBX 4 3 5 -3
BITMAP
60
30
F0
ENDCHAR

STARTCHAR onesuperior
ENCODING 185
SWIDTH 722 0
DWIDTH 13 0
BBX 3 6 7 5
BITMAP
60
E0
E0
60
60
60
ENDCHAR

STARTCHAR ordmasculine
ENCODING 186
SWIDTH 722 0
DWIDTH 13 0
BBX 7 9 3 3
BITMAP
38
7C
EE
C6
C6
EE
7C
FE
FE
ENDCHAR

STARTCHAR guillemotright
ENCODING 187
SWIDTH 722 0
DWIDTH 13 0
BBX 11 12 2 -1
BITMAP
C600
C700
7780
71C0
39C0
1CE0
1CE0
38E0
71C0
6380
E700
C600
ENDCHAR

STARTCHAR onequarter
ENCODING 188
SWIDTH 722 0
DWIDTH 13 0
BBX 11 13 1 -1
BITMAP
3000
7000
7020
3060
31C0
3380
0700
0E60
38E0
71E0
C360
03E0
0060
ENDCHAR

STARTCHAR onehalf
ENCODING 189
SWIDTH 722 0
DWIDTH 13 0
BBX 11 14 1 -2
BITMAP
3000
7000
7020
3060
31C0
3380
0700
0E00
39C0
73C0
C0C0
0180
03E0
03C0
ENDCHAR

STARTCHAR threequarters
ENCODING 190
SWIDTH 722 0
DWIDTH 13 0
BBX 11 13 1 -1
BITMAP
7800
3800
7020
1860
79C0
7380
0700
0E60
38E0
71E0
C360
03E0
0060
ENDCHAR

STARTCHAR questiondown
ENCODING 191
SWIDTH 444 0
DWIDTH 8 0
BBX 6 13 4 -4
BITMAP
18
18
18
00
18
38
70
E0
E0
60
78
3C
1C
ENDCHAR

STARTCHAR Agrave
ENCODING 192
SWIDTH 803 0
DWIDTH 14 0
BBX 11 14 2 -1
BITMAP
1800
0C00
0000
0400
0E00
1F00
1B00
3B80
3380
7FC0
7FC0
E0E0
E060
C040
ENDCHAR

STARTCHAR Aacute
ENCODING 193
SWIDTH 803 0
DWIDTH 14 0
BBX 11 14 2 -1
BITMAP
0300
0600
0000
0400
0E00
1F00
1B00
3B80
3380
7FC0
7FC0
E0E0
E060
C040
ENDCHAR

STARTCHAR Acircumflex
ENCODING 194
SWIDTH 803 0
DWIDTH 14 0
BBX 11 14 2 -1
BITMAP
0E00
1B00
0000
0400
0E00
1F00
1B00
3B80
3380
7FC0
7FC0
E0E0
E060
C040
ENDCHAR

STARTCHAR Atilde
ENCODING 195
SWIDTH 803 0
DWIDTH 14 0
BBX 11 14 2 -1
BITMAP
1D00
1700
0000
0400
0E00
1F00
1B00
3B80
3380
7FC0
7FC0
E0E0
E060
C040
ENDCHAR

STARTCHAR Adieresis
ENCODING 196
SWIDTH 803 0
DWIDTH 14 0
BBX 11 14 2 -1
BITMAP
1B00
1B00
0000
0400
0E00
1F00
1B00
3B80
3380
7FC0
7FC0
E0E0
E060
C040
ENDCHAR

STARTCHAR Aring
ENCODING 197
SWIDTH 803 0
DWIDTH 14 0
BBX 11 14 2 -1
BITMAP
0E00
1B00
0E00
0400
0E00
1F00
1B00
3B80
3380
7FC0
7FC0
E0E0
E060
C040
ENDCHAR

STARTCHAR AE
ENCODING 198
SWIDTH 474 0
DWIDTH 9 0
BBX 12 12 1 0
BITMAP
07F0
0FF0
1F00
1B00
3300
33C0
33E0
7F00
7F00
6380
63F0
E3F0
ENDCHAR

STARTCHAR Ccedilla
ENCODING 199
SWIDTH 598 0
DWIDTH 11 0
BBX 9 16 1 -4
BITMAP
0780
0F80
1E00
3800
7000
6000
E000
E000
6000
7800
3F80
0F80
0700
0300
0F00
0C00
ENDCHAR

STARTCHAR Egrave
ENCODING 200
SWIDTH 474 0
DWIDTH 9 0
BBX 6 13 2 0
BITMAP
60
30
00
FC
FC
C0
C0
F8
F8
C0
F0
FC
FC
ENDCHAR

STARTCHAR Eacute
ENCODING 201
SWIDTH 474 0
DWIDTH 9 0
BBX 6 13 3 0
BITMAP
18
30
00
FC
FC
C0
C0
F8
F8
C0
F0
FC
FC
ENDCHAR

STARTCHAR Ecircumflex
ENCODING 202
SWIDTH 474 0
DWIDTH 9 0
BBX 6 13 5 0
BITMAP
38
6C
00
FC
FC
E0
C0
F8
F8
E0
C0
FC
FC
ENDCHAR

STARTCHAR Edieresis
ENCODING 203
SWIDTH 474 0
DWIDTH 9 0
BBX 6 13 5 0
BITMAP
6C
6C
00
FC
FC
E0
C0
F8
F8
E0
C0
FC
FC
ENDCHAR

STARTCHAR Igrave
ENCODING 204
SWIDTH 242 0
DWIDTH 4 0
BBX 3 13 2 0
BITMAP
C0
60
00
60
60
60
60
60
60
60
60
60
60
ENDCHAR

STARTCHAR Iacute
ENCODING 205
SWIDTH 242 0
DWIDTH 4 0
BBX 3 13 6 0
BITMAP
C0
60
00
60
60
60
60
60
60
60
60
60
60
ENDCHAR

STARTCHAR Icircumflex
ENCODING 206
SWIDTH 242 0
DWIDTH 4 0
BBX 5 13 6 0
BITMAP
70
D8
00
60
60
60
60
60
60
60
60
60
60
ENDCHAR

STARTCHAR Idieresis
ENCODING 207
SWIDTH 242 0
DWIDTH 4 0
BBX 5 13 6 0
BITMAP
D8
D8
00
60
60
60
60
60
60
60
60
60
60
ENDCHAR

STARTCHAR Eth
ENCODING 208
SWIDTH 635 0
DWIDTH 11 0
BBX 11 12 1 0
BITMAP
3800
3F00
3F80
33C0
30E0
FC60
FC60
30E0
31C0
37C0
3F00
3C00
ENDCHAR

STARTCHAR Ntilde
ENCODING 209
SWIDTH 781 0
DWIDTH 14 0
BBX 13 14 1 -1
BITMAP
0E80
0B80
0000
F030
F830
FC30
6E30
6730
67B0
63B8
61F8
60F8
6078
6000
ENDCHAR

STARTCHAR Ograve
ENCODING 210
SWIDTH 804 0
DWIDTH 14 0
BBX 12 13 2 0
BITMAP
0C00
0600
0000
1F80
3FC0
70E0
E060
C070
C030
C070
F0F0
7FE0
1F80
ENDCHAR

STARTCHAR Oacute
ENCODING 211
SWIDTH 804 0
DWIDTH 14 0
BBX 12 13 2 0
BITMAP
0300
0600
0000
1F80
3FC0
70E0
E060
C070
C030
C070
F0F0
7FE0
1F80
ENDCHAR

STARTCHAR Ocircumflex
ENCODING 212
SWIDTH 804 0
DWIDTH 14 0
BBX 12 13 2 0
BITMAP
0700
0D80
0000
1F80
3FC0
70E0
E060
C070
C030
C070
F0F0
7FE0
1F80
ENDCHAR

STARTCHAR Otilde
ENCODING 213
SWIDTH 804 0
DWIDTH 14 0
BBX 12 13 2 0
BITMAP
0E80
0B80
0000
1F80
3FC0
70E0
E060
C070
C030
C070
F0F0
7FE0
1F80
ENDCHAR

STARTCHAR Odieresis
ENCODING 214
SWIDTH 804 0
DWIDTH 14 0
BBX 12 13 2 0
BITMAP
0D80
0D80
0000
1F80
3FC0
70E0
E060
C070
C030
C070
F0F0
7FE0
1F80
ENDCHAR

STARTCHAR multiply
ENCODING 215
SWIDTH 722 0
DWIDTH 13 0
BBX 8 9 3 0
BITMAP
82
C6
74
3C
1C
3E
77
63
40
ENDCHAR

STARTCHAR Oslash
ENCODING 216
SWIDTH 804 0
DWIDTH 14 0
BBX 13 12 1 0
BITMAP
0FD8
1FF8
3C30
70F0
61D0
E398
E718
6E18
7C38
3870
7FE0
6FC0
ENDCHAR

STARTCHAR Ugrave
ENCODING 217
SWIDTH 765 0
DWIDTH 14 0
BBX 12 13 1 0
BITMAP
0C00
0600
0030
E030
E030
6030
6030
6030
6070
7070
3DE0
3FE0
0F80
ENDCHAR

STARTCHAR Uacute
ENCODING 218
SWIDTH 765 0
DWIDTH 14 0
BBX 12 13 1 0
BITMAP
0300
0600
0030
E030
E030
6030
6030
6030
6070
7070
3DE0
3FE0
0F80
ENDCHAR

STARTCHAR Ucircumflex
ENCODING 219
SWIDTH 765 0
DWIDTH 14 0
BBX 12 13 1 0
BITMAP
0700
0D80
0030
E030
E030
6030
6030
6030
6070
7070
3DE0
3FE0
0F80
ENDCHAR

STARTCHAR Udieresis
ENCODING 220
SWIDTH 765 0
DWIDTH 14 0
BBX 12 13 1 0
BITMAP
0D80
0D80
0030
E030
E030
6030
6030
6030
6070
7070
3DE0
3FE0
0F80
ENDCHAR

STARTCHAR Yacute
ENCODING 221
SWIDTH 753 0
DWIDTH 14 0
BBX 11 13 2 0
BITMAP
0300
0600
C060
E0E0
79C0
1F80
0F00
0E00
0600
0600
0600
0600
0600
ENDCHAR

STARTCHAR Thorn
ENCODING 222
SWIDTH 753 0
DWIDTH 14 0
BBX 9 12 4 0
BITMAP
F000
6000
7E00
7F00
6380
6180
6180
6780
7F00
7C00
6000
F000
ENDCHAR

STARTCHAR germandbls
ENCODING 223
SWIDTH 722 0
DWIDTH 13 0
BBX 10 12 2 0
BITMAP
1E00
3F00
7300
6700
6E00
6F00
6380
61C0
60C0
60C0
67C0
C780
ENDCHAR

STARTCHAR agrave
ENCODING 224
SWIDTH 561 0
DWIDTH 10 0
BBX 9 11 2 0
BITMAP
1800
0C00
0000
1E80
7F80
7380
E380
C380
FF80
7F80
1B80
ENDCHAR

STARTCHAR aacute
ENCODING 225
SWIDTH 561 0
DWIDTH 10 0
BBX 9 11 2 0
BITMAP
0600
0C00
0000
1E80
7F80
7380
E380
C380
FF80
7F80
1B80
ENDCHAR

STARTCHAR acircumflex
ENCODING 226
SWIDTH 561 0
DWIDTH 10 0
BBX 9 11 2 0
BITMAP
0E00
1B00
0000
1E80
7F80
7380
E380
C380
FF80
7F80
1B80
ENDCHAR

STARTCHAR atilde
ENCODING 227
SWIDTH 561 0
DWIDTH 10 0
BBX 9 11 2 0
BITMAP
1D00
1700
0000
1E80
7F80
7380
E380
C380
FF80
7F80
1B80
ENDCHAR

STARTCHAR adieresis
ENCODING 228
SWIDTH 561 0
DWIDTH 10 0
BBX 9 11 2 0
BITMAP
1B00
1B00
0000
1E80
7F80
7380
E380
C380
FF80
7F80
1B80
ENDCHAR

STARTCHAR aring
ENCODING 229
SWIDTH 561 0
DWIDTH 10 0
BBX 9 12 2 0
BITMAP
0E00
1B00
0E00
0000
1E80
7F80
7380
E380
C380
FF80
7F80
1B80
ENDCHAR

STARTCHAR ae
ENCODING 230
SWIDTH 722 0
DWIDTH 13 0
BBX 11 9 2 0
BITMAP
7B80
FFC0
0E60
7FE0
FFE0
CE00
CE00
FFE0
7BC0
ENDCHAR

STARTCHAR ccedilla
ENCODING 231
SWIDTH 474 0
DWIDTH 9 0
BBX 7 12 4 -3
BITMAP
04
1C
3C
70
E0
E0
F0
7C
1E
1E
0C
3C
ENDCHAR

STARTCHAR egrave
ENCODING 232
SWIDTH 537 0
DWIDTH 10 0
BBX 8 11 1 0
BITMAP
18
0C
00
1C
7E
7E
E6
EC
7F
3F
1E
ENDCHAR

STARTCHAR eacute
ENCODING 233
SWIDTH 537 0
DWIDTH 10 0
BBX 8 11 1 0
BITMAP
0C
18
00
1C
7E
7E
E6
EC
7F
3F
1E
ENDCHAR

STARTCHAR ecircumflex
ENCODING 234
SWIDTH 537 0
DWIDTH 10 0
BBX 8 11 1 0
BITMAP
1C
36
00
1C
7E
7E
E6
EC
7F
3F
1E
ENDCHAR

STARTCHAR edieresis
ENCODING 235
SWIDTH 537 0
DWIDTH 10 0
BBX 8 11 1 0
BITMAP
36
36
00
1C
7E
7E
E6
EC
7F
3F
1E
ENDCHAR

STARTCHAR igrave
ENCODING 236
SWIDTH 248 0
DWIDTH 4 0
BBX 3 10 7 0
BITMAP
C0
60
00
60
60
60
60
60
60
60
ENDCHAR

STARTCHAR iacute
ENCODING 237
SWIDTH 248 0
DWIDTH 4 0
BBX 3 10 8 0
BITMAP
60
C0
00
C0
C0
C0
C0
C0
C0
C0
ENDCHAR

STARTCHAR icircumflex
ENCODING 238
SWIDTH 248 0
DWIDTH 4 0
BBX 5 10 3 0
BITMAP
70
D8
00
60
60
60
60
60
60
60
ENDCHAR

STARTCHAR idieresis
ENCODING 239
SWIDTH 248 0
DWIDTH 4 0
BBX 5 10 4 0
BITMAP
D8
D8
00
60
60
60
60
60
60
60
ENDCHAR

STARTCHAR eth
ENCODING 240
SWIDTH 546 0
DWIDTH 10 0
BBX 9 13 1 0
BITMAP
3300
3F00
1E00
3300
0300
1F80
3F80
7380
6300
E300
7700
7E00
1C00
ENDCHAR

STARTCHAR ntilde
ENCODING 241
SWIDTH 501 0
DWIDTH 9 0
BBX 8 11 1 0
BITMAP
74
5C
00
6C
FE
7E
76
66
67
67
67
ENDCHAR

STARTCHAR ograve
ENCODING 242
SWIDTH 546 0
DWIDTH 10 0
BBX 9 11 1 0
BITMAP
1800
0C00
0000
1E00
3F00
7380
6300
E300
7700
7E00
1C00
ENDCHAR

STARTCHAR oacute
ENCODING 243
SWIDTH 546 0
DWIDTH 10 0
BBX 9 11 2 0
BITMAP
0600
0C00
0000
1E00
3F00
7380
6300
E300
7700
7E00
1C00
ENDCHAR

STARTCHAR ocircumflex
ENCODING 244
SWIDTH 546 0
DWIDTH 10 0
BBX 9 11 2 0
BITMAP
0E00
1B00
0000
1E00
3F00
7380
6300
E300
7700
7E00
1C00
ENDCHAR

STARTCHAR otilde
ENCODING 245
SWIDTH 546 0
DWIDTH 10 0
BBX 9 11 2 0
BITMAP
1D00
1700
0000
1E00
3F00
7380
6300
E300
7700
7E00
1C00
ENDCHAR

STARTCHAR odieresis
ENCODING 246
SWIDTH 546 0
DWIDTH 10 0
BBX 9 11 2 0
BITMAP
1B00
1B00
0000
1E00
3F00
7380
6300
E300
7700
7E00
1C00
ENDCHAR

STARTCHAR divide
ENCODING 247
SWIDTH 722 0
DWIDTH 13 0
BBX 9 10 2 0
BITMAP
0800
0C00
0000
0000
FF80
FF00
0000
0000
1800
1800
ENDCHAR

STARTCHAR oslash
ENCODING 248
SWIDTH 546 0
DWIDTH 10 0
BBX 9 9 2 0
BITMAP
0180
1F80
3F00
7780
6D80
F980
7780
FF00
DE00
ENDCHAR

STARTCHAR ugrave
ENCODING 249
SWIDTH 563 0
DWIDTH 10 0
BBX 9 11 1 0
BITMAP
1800
0C00
0000
E380
E300
6300
6300
6300
6700
7F00
3C00
ENDCHAR

STARTCHAR uacute
ENCODING 250
SWIDTH 563 0
DWIDTH 10 0
BBX 9 11 1 0
BITMAP
0C00
1800
0000
E380
E300
6300
6300
6300
6700
7F00
3C00
ENDCHAR

STARTCHAR ucircumflex
ENCODING 251
SWIDTH 563 0
DWIDTH 10 0
BBX 9 11 1 0
BITMAP
1C00
3600
0000
E380
E300
6300
6300
6300
6700
7F00
3C00
ENDCHAR

STARTCHAR udieresis
ENCODING 252
SWIDTH 563 0
DWIDTH 10 0
BBX 9 11 1 0
BITMAP
2600
3600
0000
E380
E300
6300
6300
6300
6700
7F00
3C00
ENDCHAR

STARTCHAR yacute
ENCODING 253
SWIDTH 559 0
DWIDTH 10 0
BBX 8 13 1 -2
BITMAP
0C
18
00
C3
E7
7E
3C
1C
1C
1C
1C
1C
1C
ENDCHAR

STARTCHAR thorn
ENCODING 254
SWIDTH 559 0
DWIDTH 10 0
BBX 9 13 3 -2
BITMAP
E000
6000
7E00
7F00
6380
6180
6380
6700
7F00
7C00
6000
E000
F000
ENDCHAR

STARTCHAR ydieresis
ENCODING 255
SWIDTH 559 0
DWIDTH 10 0
BBX 8 13 1 -2
BITMAP
36
36
00
C3
E7
7E
3C
1C
1C
1C
1C
1C
1C
ENDCHAR

ENDFONT
