STARTFONT 2.1
FONT -SGI-Rock-Medium-R-Normal--24-240-72-72-P-133-ISO8859-1
SIZE 24 72 72
FONTBOUNDINGBOX 19 24 0 -7

STARTPROPERTIES 25
_DEC_DEVICE_FONTNAMES "FM=Rock"
FONTNAME_REGISTRY ""
FOUNDRY "SGI"
FAMILY_NAME "Rock"
WEIGHT_NAME "Medium"
SLANT "R"
SETWIDTH_NAME "Normal"
ADD_STYLE_NAME ""
PIXEL_SIZE 24
POINT_SIZE 240
RESOLUTION_X 72
RESOLUTION_Y 72
SPACING "P"
AVERAGE_WIDTH 133
CHARSET_REGISTRY "ISO8859"
CHARSET_ENCODING "1"
CHARSET_COLLECTIONS "ASCII ISO8859-1"
FULL_NAME "Rock"
CAP_HEIGHT 18
X_HEIGHT 12
WEIGHT 10
QUAD_WIDTH 14
DEFAULT_CHAR 0
FONT_DESCENT 7
FONT_ASCENT 17
ENDPROPERTIES

CHARS 190

STARTCHAR space
ENCODING 32
SWIDTH 400 0
DWIDTH 10 0
BBX 1 1 0 0
BITMAP
00
ENDCHAR

STARTCHAR exclam
ENCODING 33
SWIDTH 258 0
DWIDTH 6 0
BBX 4 18 2 -1
BITMAP
E0
E0
E0
E0
E0
E0
E0
E0
E0
E0
E0
E0
E0
E0
00
E0
F0
70
ENDCHAR

STARTCHAR quotedbl
ENCODING 34
SWIDTH 455 0
DWIDTH 11 0
BBX 8 6 2 11
BITMAP
70
77
F7
EE
EE
0E
ENDCHAR

STARTCHAR numbersign
ENCODING 35
SWIDTH 539 0
DWIDTH 13 0
BBX 10 14 2 1
BITMAP
19C0
1DC0
1FC0
3FC0
FFC0
FFC0
FF80
3F80
FFC0
FFC0
FF00
7E00
EE00
0200
ENDCHAR

STARTCHAR dollar
ENCODING 36
SWIDTH 562 0
DWIDTH 13 0
BBX 11 20 2 -3
BITMAP
3800
3F00
3F00
3F00
7800
F000
E000
F800
7E00
3F80
0FC0
03E0
00E0
07C0
7FC0
FF00
FE00
CE00
0E00
0E00
ENDCHAR

STARTCHAR percent
ENCODING 37
SWIDTH 908 0
DWIDTH 22 0
BBX 17 18 2 -1
BITMAP
000200
000700
3E0F00
7E0E00
FF9E00
E39C00
E3BC00
FFF800
7F7780
3EFF80
00FF80
01DC80
03F880
03BD80
079F80
071F80
0E0F80
060000
ENDCHAR

STARTCHAR ampersand
ENCODING 38
SWIDTH 656 0
DWIDTH 16 0
BBX 13 17 2 -1
BITMAP
0E00
1E00
3C00
3800
3800
3800
3800
3C00
7E00
FF00
E7B0
E3F8
E1F0
F3F0
7FF8
3F38
1E00
ENDCHAR

STARTCHAR quoteright
ENCODING 39
SWIDTH 291 0
DWIDTH 7 0
BBX 4 6 2 11
BITMAP
70
70
70
E0
E0
E0
ENDCHAR

STARTCHAR parenleft
ENCODING 40
SWIDTH 420 0
DWIDTH 10 0
BBX 7 20 2 -3
BITMAP
1C
1C
38
38
70
70
F0
E0
E0
E0
E0
E0
F0
70
78
38
3C
1E
0E
04
ENDCHAR

STARTCHAR parenright
ENCODING 41
SWIDTH 416 0
DWIDTH 10 0
BBX 7 20 2 -3
BITMAP
70
78
38
3C
1C
1C
1E
0E
0E
0E
0E
0E
1E
1C
3C
38
78
F0
E0
40
ENDCHAR

STARTCHAR asterisk
ENCODING 42
SWIDTH 586 0
DWIDTH 14 0
BBX 11 11 2 2
BITMAP
0E00
0E00
EF80
FFC0
FF80
3F80
3FE0
7FE0
3EE0
0E00
0E00
ENDCHAR

STARTCHAR plus
ENCODING 43
SWIDTH 630 0
DWIDTH 15 0
BBX 12 11 2 2
BITMAP
0600
0700
0700
0700
C700
FFF0
FFF0
7FF0
0F00
0E00
0E00
ENDCHAR

STARTCHAR comma
ENCODING 44
SWIDTH 338 0
DWIDTH 8 0
BBX 5 8 2 -5
BITMAP
38
38
38
38
78
F0
E0
40
ENDCHAR

STARTCHAR minus
ENCODING 45
SWIDTH 608 0
DWIDTH 15 0
BBX 12 3 2 5
BITMAP
FFE0
FFF0
FFF0
ENDCHAR

STARTCHAR period
ENCODING 46
SWIDTH 237 0
DWIDTH 6 0
BBX 3 4 2 -1
BITMAP
E0
E0
E0
E0
ENDCHAR

STARTCHAR slash
ENCODING 47
SWIDTH 862 0
DWIDTH 21 0
BBX 17 20 2 -3
BITMAP
000380
000780
000F00
000E00
001E00
003C00
007800
00F000
00E000
01E000
03C000
078000
0F0000
0E0000
1E0000
3C0000
780000
F00000
E00000
400000
ENDCHAR

STARTCHAR zero
ENCODING 48
SWIDTH 657 0
DWIDTH 16 0
BBX 13 16 2 0
BITMAP
0F00
1FC0
3FE0
78F0
F078
E038
E038
E038
E038
E038
E078
F070
78F0
3FE0
3FC0
0F00
ENDCHAR

STARTCHAR one
ENCODING 49
SWIDTH 373 0
DWIDTH 9 0
BBX 6 17 2 -1
BITMAP
1C
3C
7C
7C
FC
FC
5C
1C
1C
1C
1C
1C
1C
1C
1C
1C
1C
ENDCHAR

STARTCHAR two
ENCODING 50
SWIDTH 568 0
DWIDTH 14 0
BBX 11 17 2 -1
BITMAP
6000
F000
FC00
3E00
0F00
0780
03C0
01C0
01C0
03C0
0780
0F80
3E00
FF00
FFE0
FFE0
FFE0
ENDCHAR

STARTCHAR three
ENCODING 51
SWIDTH 464 0
DWIDTH 11 0
BBX 8 18 2 -2
BITMAP
E0
F8
FE
1F
0F
07
0F
7F
7E
7C
7E
1F
07
0F
3E
FE
F8
E0
ENDCHAR

STARTCHAR four
ENCODING 52
SWIDTH 707 0
DWIDTH 17 0
BBX 14 17 2 -1
BITMAP
00F0
01F0
01F0
03F0
07F0
0F70
0E70
1E70
3C70
7870
77FC
FFFC
7FFC
7870
0070
0070
0070
ENDCHAR

STARTCHAR five
ENCODING 53
SWIDTH 563 0
DWIDTH 14 0
BBX 11 18 2 -2
BITMAP
FFC0
FFE0
FFE0
FFC0
F000
FE00
FF00
0F80
0380
03C0
0380
0780
0F00
1E00
3C00
7C00
F000
6000
ENDCHAR

STARTCHAR six
ENCODING 54
SWIDTH 541 0
DWIDTH 13 0
BBX 10 19 2 -2
BITMAP
0600
0700
0F00
0E00
1C00
1C00
3C00
3E00
7F00
7780
F3C0
E1C0
E1C0
E1C0
E1C0
F7C0
7F80
3F00
1800
ENDCHAR

STARTCHAR seven
ENCODING 55
SWIDTH 554 0
DWIDTH 13 0
BBX 11 16 2 0
BITMAP
FFC0
FFE0
FFE0
01C0
01C0
0380
0380
0780
0700
0F00
0E00
1E00
1C00
3C00
3800
3800
ENDCHAR

STARTCHAR eight
ENCODING 56
SWIDTH 526 0
DWIDTH 13 0
BBX 10 16 2 0
BITMAP
1C00
3F00
7F00
F780
E380
E380
FF80
7F00
7F80
F7C0
E1C0
E1C0
E3C0
FF80
7F80
3E00
ENDCHAR

STARTCHAR nine
ENCODING 57
SWIDTH 518 0
DWIDTH 12 0
BBX 10 17 2 -1
BITMAP
3E00
7F80
FF80
E380
E1C0
E3C0
E380
F380
7B80
3F80
1F00
0E00
1E00
1C00
3C00
7800
3000
ENDCHAR

STARTCHAR colon
ENCODING 58
SWIDTH 243 0
DWIDTH 6 0
BBX 3 10 2 -1
BITMAP
E0
E0
E0
60
00
00
E0
E0
E0
E0
ENDCHAR

STARTCHAR semicolon
ENCODING 59
SWIDTH 338 0
DWIDTH 8 0
BBX 5 15 2 -5
BITMAP
38
38
38
18
00
00
00
38
38
38
38
78
F0
E0
40
ENDCHAR

STARTCHAR less
ENCODING 60
SWIDTH 494 0
DWIDTH 12 0
BBX 9 16 2 0
BITMAP
0400
0F00
0E00
1E00
3C00
3800
7000
F000
F000
7800
3C00
1E00
0F00
0780
0380
0100
ENDCHAR

STARTCHAR equal
ENCODING 61
SWIDTH 562 0
DWIDTH 13 0
BBX 11 7 2 4
BITMAP
FFE0
FFE0
FFE0
0000
FFC0
FFC0
FFC0
ENDCHAR

STARTCHAR greater
ENCODING 62
SWIDTH 476 0
DWIDTH 11 0
BBX 9 14 2 1
BITMAP
6000
F000
7800
3C00
1E00
0F00
0780
0F00
1E00
3C00
7800
F000
E000
4000
ENDCHAR

STARTCHAR question
ENCODING 63
SWIDTH 444 0
DWIDTH 11 0
BBX 8 18 2 -2
BITMAP
60
F8
FC
3E
0E
0F
07
0F
1E
1C
3C
78
10
00
70
70
70
10
ENDCHAR

STARTCHAR at
ENCODING 64
SWIDTH 763 0
DWIDTH 18 0
BBX 16 18 2 -1
BITMAP
0FC0
1FE0
3FF0
7878
7138
E7BC
EFDC
EFDC
FFFC
FCF8
FF78
EFB4
F70F
701E
7C3C
3FFC
1FF0
07E0
ENDCHAR

STARTCHAR A
ENCODING 65
SWIDTH 803 0
DWIDTH 19 0
BBX 16 17 2 -2
BITMAP
0380
03C0
03C0
07E0
07E0
0F70
0E70
1E38
1C78
1FFC
3FFC
3FDE
780E
700F
F007
E007
6002
ENDCHAR

STARTCHAR B
ENCODING 66
SWIDTH 596 0
DWIDTH 14 0
BBX 11 17 2 -1
BITMAP
FE00
FF80
FFC0
E3E0
E0E0
E3E0
FFC0
FF80
FF80
FFC0
F3E0
F0E0
F0E0
F3E0
FFC0
FF80
FC00
ENDCHAR

STARTCHAR C
ENCODING 67
SWIDTH 598 0
DWIDTH 14 0
BBX 12 18 2 -2
BITMAP
00C0
07C0
0FC0
1F00
3C00
7800
7000
F000
E000
E000
E000
E000
F800
7C00
3FE0
0FF0
03F0
0060
ENDCHAR

STARTCHAR D
ENCODING 68
SWIDTH 635 0
DWIDTH 15 0
BBX 12 16 2 0
BITMAP
F800
FE00
FF80
EFC0
E1E0
E0F0
E070
E070
E070
E070
E0F0
E3E0
EFC0
FF80
FE00
7000
ENDCHAR

STARTCHAR E
ENCODING 69
SWIDTH 474 0
DWIDTH 11 0
BBX 8 17 2 -1
BITMAP
FF
FF
FF
E0
E0
E0
E0
FC
FC
FC
E0
E0
E0
FC
FF
FF
03
ENDCHAR

STARTCHAR F
ENCODING 70
SWIDTH 431 0
DWIDTH 10 0
BBX 7 15 2 0
BITMAP
FE
FE
FE
E0
E0
E0
FE
FE
FE
E0
E0
E0
E0
E0
E0
ENDCHAR

STARTCHAR G
ENCODING 71
SWIDTH 627 0
DWIDTH 15 0
BBX 12 16 2 0
BITMAP
0040
00E0
03E0
07C0
0F00
1E00
3C00
7800
F030
E070
E070
E070
F070
7FF0
3FF0
1FF0
ENDCHAR

STARTCHAR H
ENCODING 72
SWIDTH 729 0
DWIDTH 17 0
BBX 15 17 1 -1
BITMAP
F00E
F00E
700E
700E
700E
700E
7FFE
7FFE
7FFE
700E
700E
700E
700E
700E
700E
700E
7006
ENDCHAR

STARTCHAR I
ENCODING 73
SWIDTH 242 0
DWIDTH 6 0
BBX 3 17 2 -1
BITMAP
C0
E0
E0
E0
E0
E0
E0
E0
E0
E0
E0
E0
E0
E0
E0
E0
E0
ENDCHAR

STARTCHAR J
ENCODING 74
SWIDTH 380 0
DWIDTH 9 0
BBX 6 20 2 -4
BITMAP
1C
1C
1C
1C
1C
1C
1C
1C
1C
1C
1C
1C
1C
1C
38
38
70
F0
E0
60
ENDCHAR

STARTCHAR K
ENCODING 75
SWIDTH 620 0
DWIDTH 15 0
BBX 12 17 2 -1
BITMAP
E180
E3C0
E780
EF00
FE00
FC00
F800
F800
FC00
FE00
EF00
E780
E3C0
E1E0
E0F0
E0F0
E060
ENDCHAR

STARTCHAR L
ENCODING 76
SWIDTH 474 0
DWIDTH 11 0
BBX 9 15 2 0
BITMAP
E000
E000
E000
E000
E000
E000
E000
E000
E000
E000
E000
E000
FF80
FF80
7F80
ENDCHAR

STARTCHAR M
ENCODING 77
SWIDTH 906 0
DWIDTH 22 0
BBX 17 17 2 0
BITMAP
080000
0E3C00
1E3C00
1F7E00
1F7E00
3FFE00
3FEF00
3BE700
3BC700
7BC780
738380
700380
F00380
E00180
E00180
E00180
E00080
ENDCHAR

STARTCHAR N
ENCODING 78
SWIDTH 781 0
DWIDTH 19 0
BBX 16 18 2 -1
BITMAP
4000
E007
F007
F807
FC07
FE07
EF07
E787
E3C7
E1E7
E0F7
E0F7
E07F
E03F
F01F
700F
7007
6000
ENDCHAR

STARTCHAR O
ENCODING 79
SWIDTH 804 0
DWIDTH 19 0
BBX 17 16 2 0
BITMAP
03E000
0FF800
1FFC00
7E1E00
780E00
F00E00
E00700
E00700
E00780
E00780
F00780
780700
3C0F00
3FFE00
0FFC00
07F000
ENDCHAR

STARTCHAR P
ENCODING 80
SWIDTH 583 0
DWIDTH 14 0
BBX 12 16 1 0
BITMAP
7000
FF00
7FC0
7FE0
71F0
7070
70F0
71E0
77C0
7F80
7F00
7C00
7000
7000
7000
7000
ENDCHAR

STARTCHAR Q
ENCODING 81
SWIDTH 794 0
DWIDTH 19 0
BBX 16 18 2 -2
BITMAP
03E0
0FF8
1FFE
3E1E
780F
F007
E007
E007
E007
E007
E00F
700E
783E
3FFC
1FF8
0FFF
01FF
001F
ENDCHAR

STARTCHAR R
ENCODING 82
SWIDTH 655 0
DWIDTH 16 0
BBX 13 18 2 -1
BITMAP
C000
FE00
FF80
FFC0
E1E0
E0E0
E0E0
E1E0
E7C0
FF80
FF00
FF00
EF80
E3C0
E1E0
E0F0
E078
E030
ENDCHAR

STARTCHAR S
ENCODING 83
SWIDTH 509 0
DWIDTH 12 0
BBX 10 18 1 -1
BITMAP
0300
0F00
1F00
3E00
7800
7000
F000
7C00
7F00
1F80
07C0
01C0
03C0
0780
3F00
7E00
7800
2000
ENDCHAR

STARTCHAR T
ENCODING 84
SWIDTH 674 0
DWIDTH 16 0
BBX 13 15 2 0
BITMAP
FFF8
FFF8
FFF8
0700
0700
0700
0700
0700
0700
0700
0700
0700
0700
0700
0700
ENDCHAR

STARTCHAR U
ENCODING 85
SWIDTH 765 0
DWIDTH 18 0
BBX 16 16 2 0
BITMAP
E007
E007
E007
E007
E007
E007
E00F
E00E
700E
700E
700E
781C
3C3C
1FF8
1FF8
07E0
ENDCHAR

STARTCHAR V
ENCODING 86
SWIDTH 861 0
DWIDTH 21 0
BBX 17 17 2 -1
BITMAP
000180
E00180
F00380
700380
380780
380700
1C0F00
1E0E00
0E1E00
0F1C00
073C00
07B800
03F800
03F000
01F000
01E000
00C000
ENDCHAR

STARTCHAR W
ENCODING 87
SWIDTH 940 0
DWIDTH 23 0
BBX 18 17 1 -1
BITMAP
6001C0
E001C0
F001C0
7001C0
7001C0
7801C0
3801C0
3841C0
3C71C0
1CF380
1CFB80
0FFF80
0FBF80
0F9F80
078F00
070600
040000
ENDCHAR

STARTCHAR X
ENCODING 88
SWIDTH 789 0
DWIDTH 19 0
BBX 16 18 2 -2
BITMAP
0002
6007
F00F
780E
3C1E
1E3C
0F78
07F0
03F0
01E0
03F0
07F8
073C
0F1E
1E0F
3C07
3806
1000
ENDCHAR

STARTCHAR Y
ENCODING 89
SWIDTH 753 0
DWIDTH 18 0
BBX 15 18 2 -1
BITMAP
4000
F00E
FC1E
7E3E
0F78
07F0
03E0
03E0
01C0
01C0
01C0
01C0
01C0
01C0
01C0
01C0
01C0
01C0
ENDCHAR

STARTCHAR Z
ENCODING 90
SWIDTH 625 0
DWIDTH 15 0
BBX 12 17 2 -1
BITMAP
FFE0
FFF0
FFF0
01E0
01C0
03C0
0380
0700
0F00
0E00
1C00
3C00
3800
7800
FFF0
FFF0
FFF0
ENDCHAR

STARTCHAR bracketleft
ENCODING 91
SWIDTH 393 0
DWIDTH 9 0
BBX 7 20 2 -3
BITMAP
FC
F8
E0
E0
E0
E0
E0
E0
E0
E0
E0
E0
E0
E0
E0
70
70
7C
7E
7E
ENDCHAR

STARTCHAR backslash
ENCODING 92
SWIDTH 860 0
DWIDTH 21 0
BBX 17 20 2 -3
BITMAP
F00000
700000
380000
3C0000
1E0000
0F0000
070000
078000
03C000
01E000
00F000
007800
007800
003C00
001E00
000F00
000780
000380
000380
000180
ENDCHAR

STARTCHAR bracketright
ENCODING 93
SWIDTH 365 0
DWIDTH 9 0
BBX 6 20 2 -3
BITMAP
FC
FC
1C
1C
1C
1C
1C
1C
1C
1C
1C
1C
1C
1C
1C
1C
1C
FC
FC
FC
ENDCHAR

STARTCHAR asciicircum
ENCODING 94
SWIDTH 566 0
DWIDTH 14 0
BBX 11 8 2 7
BITMAP
0E00
1F00
1F00
3F80
7BC0
F1C0
E0E0
4080
ENDCHAR

STARTCHAR underscore
ENCODING 95
SWIDTH 812 0
DWIDTH 19 0
BBX 17 3 2 -1
BITMAP
FFFF80
FFFF80
FFFF80
ENDCHAR

STARTCHAR quoteleft
ENCODING 96
SWIDTH 321 0
DWIDTH 8 0
BBX 5 5 2 12
BITMAP
E0
F0
70
78
30
ENDCHAR

STARTCHAR a
ENCODING 97
SWIDTH 561 0
DWIDTH 13 0
BBX 11 10 2 0
BITMAP
1F00
3F00
7F00
F700
E700
E700
F700
7FC0
7FE0
1CE0
ENDCHAR

STARTCHAR b
ENCODING 98
SWIDTH 575 0
DWIDTH 14 0
BBX 11 15 2 0
BITMAP
E000
E000
E000
E000
E000
FE00
FF80
FFC0
E3E0
E0E0
E0E0
E3E0
FFC0
FF80
FC00
ENDCHAR

STARTCHAR c
ENCODING 99
SWIDTH 474 0
DWIDTH 11 0
BBX 8 13 2 -1
BITMAP
02
0E
1E
3E
78
F0
E0
E0
F0
FC
3F
1F
03
ENDCHAR

STARTCHAR d
ENCODING 100
SWIDTH 536 0
DWIDTH 13 0
BBX 10 15 2 0
BITMAP
01C0
01C0
01C0
01C0
01C0
03C0
1FC0
3FC0
FDC0
F1C0
E1C0
FDC0
7FC0
1FC0
07C0
ENDCHAR

STARTCHAR e
ENCODING 101
SWIDTH 537 0
DWIDTH 13 0
BBX 10 10 2 0
BITMAP
1E00
3E00
7E00
FE00
EE00
EE00
F000
7FC0
3FC0
0FC0
ENDCHAR

STARTCHAR f
ENCODING 102
SWIDTH 484 0
DWIDTH 12 0
BBX 10 17 1 0
BITMAP
0180
03C0
0780
0700
0F00
1E00
7F80
FF80
FF80
1C00
1C00
1C00
1C00
1C00
1C00
1C00
0C00
ENDCHAR

STARTCHAR g
ENCODING 103
SWIDTH 527 0
DWIDTH 13 0
BBX 10 17 2 -7
BITMAP
0FC0
3FC0
7FC0
F9C0
E1C0
F1C0
7FC0
7FC0
1FC0
03C0
01C0
03C0
0780
0F00
1E00
1C00
1800
ENDCHAR

STARTCHAR h
ENCODING 104
SWIDTH 549 0
DWIDTH 13 0
BBX 10 15 2 0
BITMAP
E000
E000
E000
E000
E000
F000
FE00
FF00
EF80
E3C0
E3C0
E1C0
E1C0
E1C0
61C0
ENDCHAR

STARTCHAR i
ENCODING 105
SWIDTH 248 0
DWIDTH 6 0
BBX 3 13 2 0
BITMAP
E0
E0
E0
00
E0
E0
E0
E0
E0
E0
E0
E0
E0
ENDCHAR

STARTCHAR j
ENCODING 106
SWIDTH 316 0
DWIDTH 8 0
BBX 5 18 2 -5
BITMAP
70
70
70
00
00
38
38
38
38
38
38
38
38
38
70
F0
E0
E0
ENDCHAR

STARTCHAR k
ENCODING 107
SWIDTH 484 0
DWIDTH 12 0
BBX 8 15 2 0
BITMAP
E0
E0
E0
E2
E3
E7
EF
FE
FC
F8
FC
FE
EF
E7
E2
ENDCHAR

STARTCHAR l
ENCODING 108
SWIDTH 260 0
DWIDTH 6 0
BBX 3 15 2 0
BITMAP
E0
E0
E0
E0
E0
E0
E0
E0
E0
E0
E0
E0
E0
E0
E0
ENDCHAR

STARTCHAR m
ENCODING 109
SWIDTH 705 0
DWIDTH 17 0
BBX 14 11 2 0
BITMAP
6E00
FFF0
FFF8
FFF8
F3BC
739C
739C
739C
739C
739C
719C
ENDCHAR

STARTCHAR n
ENCODING 110
SWIDTH 501 0
DWIDTH 12 0
BBX 9 11 2 0
BITMAP
0C00
FE00
FF00
FF00
F780
F380
7380
7380
7380
7380
6380
ENDCHAR

STARTCHAR o
ENCODING 111
SWIDTH 546 0
DWIDTH 13 0
BBX 10 11 2 0
BITMAP
0F00
3F80
7FC0
F9C0
E1C0
E1C0
E1C0
F3C0
7F80
3F00
1E00
ENDCHAR

STARTCHAR p
ENCODING 112
SWIDTH 574 0
DWIDTH 14 0
BBX 11 15 2 -5
BITMAP
FC00
FF80
FFC0
E7E0
E0E0
E1E0
E7C0
FF80
FF00
F800
E000
E000
E000
E000
E000
ENDCHAR

STARTCHAR q
ENCODING 113
SWIDTH 614 0
DWIDTH 15 0
BBX 12 16 2 -6
BITMAP
07F0
1FF0
3FF0
7C70
F070
E070
F870
FFF0
3FF0
03F0
0070
0070
0070
0070
0070
0070
ENDCHAR

STARTCHAR r
ENCODING 114
SWIDTH 414 0
DWIDTH 10 0
BBX 7 11 2 0
BITMAP
06
EE
FE
FC
F8
F0
E0
E0
E0
E0
E0
ENDCHAR

STARTCHAR s
ENCODING 115
SWIDTH 390 0
DWIDTH 9 0
BBX 7 13 2 -1
BITMAP
18
38
78
F0
E0
F0
F8
3C
1E
1E
7C
78
30
ENDCHAR

STARTCHAR t
ENCODING 116
SWIDTH 497 0
DWIDTH 12 0
BBX 9 16 2 -3
BITMAP
1C00
1C00
1C00
FF80
FF80
FF80
1C00
1C00
1C00
1C00
1C00
1E00
0E00
0F00
0700
0600
ENDCHAR

STARTCHAR u
ENCODING 117
SWIDTH 563 0
DWIDTH 14 0
BBX 11 11 2 0
BITMAP
C0E0
E1E0
E1C0
E1C0
E1C0
71C0
7380
7B80
3F80
1F00
0E00
ENDCHAR

STARTCHAR v
ENCODING 118
SWIDTH 553 0
DWIDTH 13 0
BBX 11 11 2 0
BITMAP
60C0
E1E0
F1C0
7BC0
3B80
3F80
1F80
1F00
0F00
0F00
0700
ENDCHAR

STARTCHAR w
ENCODING 119
SWIDTH 782 0
DWIDTH 19 0
BBX 16 11 2 0
BITMAP
4006
E38F
F3CE
77CE
7FFE
3FFC
3FFC
1E78
1E78
0E78
0800
ENDCHAR

STARTCHAR x
ENCODING 120
SWIDTH 615 0
DWIDTH 15 0
BBX 12 12 2 -1
BITMAP
60E0
F1E0
F9C0
3FC0
1F80
0F80
0F80
1FC0
1DE0
3CF0
3860
3000
ENDCHAR

STARTCHAR y
ENCODING 121
SWIDTH 559 0
DWIDTH 13 0
BBX 11 14 2 -4
BITMAP
E0C0
F1E0
FBC0
7F80
3F00
1F00
0E00
0E00
0E00
0E00
0E00
0E00
0E00
0E00
ENDCHAR

STARTCHAR z
ENCODING 122
SWIDTH 524 0
DWIDTH 13 0
BBX 10 10 2 0
BITMAP
FF80
FFC0
FF80
0F00
1E00
3C00
7800
FFC0
FFC0
FFC0
ENDCHAR

STARTCHAR braceleft
ENCODING 123
SWIDTH 408 0
DWIDTH 10 0
BBX 7 20 2 -3
BITMAP
1C
3C
38
38
38
38
38
38
70
F0
F0
F8
78
38
38
1C
1C
1E
0E
04
ENDCHAR

STARTCHAR bar
ENCODING 124
SWIDTH 250 0
DWIDTH 6 0
BBX 3 20 2 -3
BITMAP
E0
E0
E0
E0
E0
E0
E0
E0
E0
E0
E0
E0
E0
E0
E0
E0
E0
E0
E0
E0
ENDCHAR

STARTCHAR braceright
ENCODING 125
SWIDTH 408 0
DWIDTH 10 0
BBX 7 20 2 -3
BITMAP
F0
70
38
38
38
38
38
38
3C
1E
1E
3C
3C
78
78
70
70
F0
E0
C0
ENDCHAR

STARTCHAR asciitilde
ENCODING 126
SWIDTH 613 0
DWIDTH 15 0
BBX 12 5 2 6
BITMAP
1800
7E60
FFF0
EFE0
03C0
ENDCHAR

STARTCHAR exclamdown
ENCODING 161
SWIDTH 258 0
DWIDTH 6 0
BBX 4 18 4 -6
BITMAP
70
F0
E0
00
E0
E0
E0
E0
E0
E0
E0
E0
E0
E0
E0
E0
E0
E0
ENDCHAR

STARTCHAR cent
ENCODING 162
SWIDTH 474 0
DWIDTH 11 0
BBX 11 13 2 0
BITMAP
0E00
0E00
1F80
3FC0
78C0
F000
E000
F000
78E0
3FC0
1F80
0E00
0E00
ENDCHAR

STARTCHAR sterling
ENCODING 163
SWIDTH 750 0
DWIDTH 18 0
BBX 14 16 2 0
BITMAP
07F0
0FF8
1FF8
1E18
1C00
1C00
1C00
7F80
FF80
FF00
1C00
1C00
7E00
7FFC
7FFC
67F8
ENDCHAR

STARTCHAR currency
ENCODING 164
SWIDTH 750 0
DWIDTH 18 0
BBX 8 8 5 6
BITMAP
C3
FF
FE
66
7E
3F
73
60
ENDCHAR

STARTCHAR yen
ENCODING 165
SWIDTH 750 0
DWIDTH 18 0
BBX 13 15 3 0
BITMAP
E030
F070
7060
38E0
39C0
1DC0
0F80
3FF0
3FF8
0700
3FF0
3FF0
0700
0700
0F80
ENDCHAR

STARTCHAR brokenbar
ENCODING 166
SWIDTH 250 0
DWIDTH 6 0
BBX 3 20 6 -3
BITMAP
E0
E0
E0
E0
E0
E0
E0
E0
C0
00
00
E0
E0
E0
E0
E0
E0
E0
E0
E0
ENDCHAR

STARTCHAR section
ENCODING 167
SWIDTH 750 0
DWIDTH 18 0
BBX 12 21 4 -5
BITMAP
3F80
7FC0
F0E0
E060
E000
7C00
7F00
FFC0
E3E0
E0E0
E070
7070
3C70
1EF0
0FE0
03E0
0070
6070
70F0
3FE0
1FC0
ENDCHAR

STARTCHAR dieresis
ENCODING 168
SWIDTH 750 0
DWIDTH 18 0
BBX 7 6 6 9
BITMAP
C6
EE
EE
EE
EE
EE
ENDCHAR

STARTCHAR copyright
ENCODING 169
SWIDTH 750 0
DWIDTH 18 0
BBX 15 14 2 0
BITMAP
0FC0
1FF0
3C78
701C
73CE
E7E6
EE06
EC06
EE26
67E6
73CE
3C1C
1FF8
07F0
ENDCHAR

STARTCHAR ordfeminine
ENCODING 170
SWIDTH 561 0
DWIDTH 13 0
BBX 10 12 2 3
BITMAP
1F00
3F00
7F00
F700
E700
E700
F700
7F80
7FC0
1DC0
FFC0
FF80
ENDCHAR

STARTCHAR guillemotleft
ENCODING 171
SWIDTH 750 0
DWIDTH 18 0
BBX 13 14 2 -1
BITMAP
0718
0E38
1E70
3CE0
39C0
7380
E780
E700
7380
79C0
38E0
1C70
0E38
0618
ENDCHAR

STARTCHAR logicalnot
ENCODING 172
SWIDTH 750 0
DWIDTH 18 0
BBX 12 6 4 5
BITMAP
7FE0
FFF0
FFF0
0070
0070
0060
ENDCHAR

STARTCHAR hyphen
ENCODING 173
SWIDTH 608 0
DWIDTH 15 0
BBX 11 3 4 5
BITMAP
FFC0
FFE0
FFE0
ENDCHAR

STARTCHAR registered
ENCODING 174
SWIDTH 750 0
DWIDTH 18 0
BBX 15 14 2 0
BITMAP
0FC0
1FF0
3C38
73DC
77EE
E666
E7E6
E7C6
E6C6
6666
766E
381C
1FF8
0FF0
ENDCHAR

STARTCHAR macron
ENCODING 175
SWIDTH 750 0
DWIDTH 18 0
BBX 8 3 5 12
BITMAP
7E
FF
FF
ENDCHAR

STARTCHAR degree
ENCODING 176
SWIDTH 750 0
DWIDTH 18 0
BBX 5 6 7 8
BITMAP
F0
F8
D8
D8
F8
70
ENDCHAR

STARTCHAR plusminus
ENCODING 177
SWIDTH 630 0
DWIDTH 15 0
BBX 12 15 2 0
BITMAP
0600
0700
0700
0700
C700
FFF0
FFF0
7FF0
0F00
0E00
0E00
0000
FFE0
FFF0
7FF0
ENDCHAR

STARTCHAR twosuperior
ENCODING 178
SWIDTH 750 0
DWIDTH 18 0
BBX 5 8 5 7
BITMAP
70
F8
D8
38
70
E0
F8
F8
ENDCHAR

STARTCHAR threesuperior
ENCODING 179
SWIDTH 750 0
DWIDTH 18 0
BBX 6 8 6 7
BITMAP
70
F8
1C
7C
78
1C
FC
78
ENDCHAR

STARTCHAR acute
ENCODING 180
SWIDTH 750 0
DWIDTH 18 0
BBX 4 6 9 9
BITMAP
30
70
70
E0
E0
C0
ENDCHAR

STARTCHAR mu
ENCODING 181
SWIDTH 563 0
DWIDTH 14 0
BBX 11 15 2 -4
BITMAP
C0E0
E1E0
E1C0
E1C0
E1C0
F1C0
F3C0
FBC0
FFE0
FFE0
EEE0
E000
E000
E000
C000
ENDCHAR

STARTCHAR paragraph
ENCODING 182
SWIDTH 750 0
DWIDTH 18 0
BBX 16 19 1 -4
BITMAP
0FFF
3FFF
7FFC
F738
E738
E738
E738
E738
7738
7F38
3F38
0738
0738
0738
0738
0738
0738
0738
0730
ENDCHAR

STARTCHAR periodcentered
ENCODING 183
SWIDTH 750 0
DWIDTH 18 0
BBX 4 4 7 5
BITMAP
20
70
F0
70
ENDCHAR

STARTCHAR cedilla
ENCODING 184
SWIDTH 750 0
DWIDTH 18 0
BBX 5 5 7 -5
BITMAP
70
70
38
F8
F0
ENDCHAR

STARTCHAR onesuperior
ENCODING 185
SWIDTH 750 0
DWIDTH 18 0
BBX 5 8 4 7
BITMAP
30
78
F8
F8
38
38
38
38
ENDCHAR

STARTCHAR ordmasculine
ENCODING 186
SWIDTH 561 0
DWIDTH 13 0
BBX 10 12 2 3
BITMAP
1F00
3F80
7FC0
F1C0
E1C0
E1C0
F380
7F80
7F00
1C00
FFC0
FF80
ENDCHAR

STARTCHAR guillemotright
ENCODING 187
SWIDTH 750 0
DWIDTH 18 0
BBX 13 14 4 -1
BITMAP
C700
E380
73C0
79E0
3CE0
1E70
0F38
0738
0E70
1CF0
38E0
71C0
E380
C300
ENDCHAR

STARTCHAR onequarter
ENCODING 188
SWIDTH 750 0
DWIDTH 18 0
BBX 13 17 2 -1
BITMAP
3000
7800
F830
F870
38E0
38C0
39C0
3B80
0738
0E78
1CF8
39D8
7398
E3F8
C3F8
0038
0038
ENDCHAR

STARTCHAR onehalf
ENCODING 189
SWIDTH 750 0
DWIDTH 18 0
BBX 13 17 2 -1
BITMAP
3000
7800
F830
F870
38E0
38C0
39C0
3B80
0700
0EF0
1DF8
39B8
7038
E070
C0E0
01F8
01F8
ENDCHAR

STARTCHAR threequarters
ENCODING 190
SWIDTH 750 0
DWIDTH 18 0
BBX 13 17 2 -1
BITMAP
F000
F800
1830
7830
7070
38E0
F9C0
F380
0738
0E78
1CF8
39D8
7398
E3F8
C3F8
0038
0038
ENDCHAR

STARTCHAR questiondown
ENCODING 191
SWIDTH 444 0
DWIDTH 11 0
BBX 8 18 8 -6
BITMAP
08
0E
0E
0E
00
08
1E
3C
38
78
F0
E0
F0
70
7C
3F
1F
06
ENDCHAR

STARTCHAR Agrave
ENCODING 192
SWIDTH 803 0
DWIDTH 19 0
BBX 15 18 3 -1
BITMAP
1C00
1F00
0700
0000
0300
0780
0FC0
0FC0
1EE0
1CE0
3C70
38F0
3FF8
7FF8
7FBC
F01C
E01E
C004
ENDCHAR

STARTCHAR Aacute
ENCODING 193
SWIDTH 803 0
DWIDTH 19 0
BBX 15 18 3 -1
BITMAP
00E0
03E0
0380
0000
0300
0780
0FC0
0FC0
1EE0
1CE0
3C70
38F0
3FF8
7FF8
7FBC
F01C
E01E
C004
ENDCHAR

STARTCHAR Acircumflex
ENCODING 194
SWIDTH 803 0
DWIDTH 19 0
BBX 15 18 3 -1
BITMAP
0780
0FC0
1CE0
0000
0300
0780
0FC0
0FC0
1EE0
1CE0
3C70
38F0
3FF8
7FF8
7FBC
F01C
E01E
C004
ENDCHAR

STARTCHAR Atilde
ENCODING 195
SWIDTH 803 0
DWIDTH 19 0
BBX 15 18 3 -1
BITMAP
0F30
1FF0
19E0
0000
0300
0780
0FC0
0FC0
1EE0
1CE0
3C70
38F0
3FF8
7FF8
7FBC
F01C
E01E
C004
ENDCHAR

STARTCHAR Adieresis
ENCODING 196
SWIDTH 803 0
DWIDTH 19 0
BBX 15 18 3 -1
BITMAP
1D80
1DC0
1DC0
0000
0300
0780
0FC0
0FC0
1EE0
1CE0
3C70
38F0
3FF8
7FF8
7FBC
F01C
E01E
C004
ENDCHAR

STARTCHAR Aring
ENCODING 197
SWIDTH 803 0
DWIDTH 19 0
BBX 15 18 3 -1
BITMAP
0780
0FC0
0CC0
0FC0
0780
0780
0FC0
0FC0
1EE0
1CE0
3C70
38F0
3FF8
7FF8
7FBC
F01C
E01E
C004
ENDCHAR

STARTCHAR AE
ENCODING 198
SWIDTH 474 0
DWIDTH 11 0
BBX 16 16 2 0
BITMAP
03FF
07FF
0FFF
0EE0
1CE0
1CE0
38E0
38FC
3FFC
7FFC
7FE0
70E0
70E0
F0FC
E0FF
E0FF
ENDCHAR

STARTCHAR Ccedilla
ENCODING 199
SWIDTH 598 0
DWIDTH 14 0
BBX 12 21 2 -5
BITMAP
00C0
07C0
0FC0
1F00
3C00
7800
7000
F000
E000
E000
E000
E000
F800
7C00
3FE0
0FF0
03F0
0380
01C0
07C0
0780
ENDCHAR

STARTCHAR Egrave
ENCODING 200
SWIDTH 474 0
DWIDTH 11 0
BBX 8 17 2 0
BITMAP
70
7C
1C
00
FF
FF
FE
E0
E0
FC
FC
FC
E0
E0
FC
FF
FF
ENDCHAR

STARTCHAR Eacute
ENCODING 201
SWIDTH 474 0
DWIDTH 11 0
BBX 8 17 4 0
BITMAP
0E
3E
38
00
FF
FF
FE
E0
E0
FC
FC
FC
E0
E0
FC
FF
FF
ENDCHAR

STARTCHAR Ecircumflex
ENCODING 202
SWIDTH 474 0
DWIDTH 11 0
BBX 8 17 6 0
BITMAP
3C
7E
E7
00
FF
FF
FE
E0
E0
FC
FC
FC
E0
E0
FC
FF
FF
ENDCHAR

STARTCHAR Edieresis
ENCODING 203
SWIDTH 474 0
DWIDTH 11 0
BBX 8 17 6 0
BITMAP
EC
EE
EE
00
FF
FF
FE
E0
E0
FC
FC
FC
E0
E0
FC
FF
FF
ENDCHAR

STARTCHAR Igrave
ENCODING 204
SWIDTH 242 0
DWIDTH 6 0
BBX 5 18 3 -1
BITMAP
E0
F8
38
00
30
38
38
38
38
38
38
38
38
38
38
38
38
38
ENDCHAR

STARTCHAR Iacute
ENCODING 205
SWIDTH 242 0
DWIDTH 6 0
BBX 5 18 7 -1
BITMAP
38
F8
E0
00
C0
E0
E0
E0
E0
E0
E0
E0
E0
E0
E0
E0
E0
E0
ENDCHAR

STARTCHAR Icircumflex
ENCODING 206
SWIDTH 242 0
DWIDTH 6 0
BBX 8 18 5 -1
BITMAP
3C
7E
E7
00
30
38
38
38
38
38
38
38
38
38
38
38
38
38
ENDCHAR

STARTCHAR Idieresis
ENCODING 207
SWIDTH 242 0
DWIDTH 6 0
BBX 7 18 5 -1
BITMAP
EC
EE
EE
00
30
38
38
38
38
38
38
38
38
38
38
38
38
38
ENDCHAR

STARTCHAR Eth
ENCODING 208
SWIDTH 635 0
DWIDTH 15 0
BBX 15 16 1 0
BITMAP
1F00
1FC0
1FF0
1DF8
1C3C
1C1E
1C0E
FF8E
FF8E
7F0E
1C1E
1C7C
1DF8
1FF0
1FC0
0E00
ENDCHAR

STARTCHAR Ntilde
ENCODING 209
SWIDTH 781 0
DWIDTH 19 0
BBX 16 18 2 -1
BITMAP
0798
0FF8
0CF0
0000
F007
F807
FC07
FE07
EF07
E787
E3C7
E1E7
E0F7
E0F7
F07F
F03F
701F
6000
ENDCHAR

STARTCHAR Ograve
ENCODING 210
SWIDTH 804 0
DWIDTH 19 0
BBX 17 18 2 -1
BITMAP
070000
07C000
01C000
000000
07F000
1FFC00
7E1E00
780E00
F00E00
E00700
E00700
E00780
E00780
F00780
780F00
3E1F00
1FFC00
07F800
ENDCHAR

STARTCHAR Oacute
ENCODING 211
SWIDTH 804 0
DWIDTH 19 0
BBX 17 18 2 -1
BITMAP
007000
01F000
01C000
000000
07F000
1FFC00
7E1E00
780E00
F00E00
E00700
E00700
E00780
E00780
F00780
780F00
3E1F00
1FFC00
07F800
ENDCHAR

STARTCHAR Ocircumflex
ENCODING 212
SWIDTH 804 0
DWIDTH 19 0
BBX 17 18 2 -1
BITMAP
01E000
03F000
073800
000000
07F000
1FFC00
7E1E00
780E00
F00E00
E00700
E00700
E00780
E00780
F00780
780F00
3E1F00
1FFC00
07F800
ENDCHAR

STARTCHAR Otilde
ENCODING 213
SWIDTH 804 0
DWIDTH 19 0
BBX 17 18 2 -1
BITMAP
03CC00
07FC00
067800
000000
07F000
1FFC00
7E1E00
780E00
F00E00
E00700
E00700
E00780
E00780
F00780
780F00
3E1F00
1FFC00
07F800
ENDCHAR

STARTCHAR Odieresis
ENCODING 214
SWIDTH 804 0
DWIDTH 19 0
BBX 17 18 2 -1
BITMAP
076000
077000
077000
000000
07F000
1FFC00
7E1E00
780E00
F00E00
E00700
E00700
E00780
E00780
F00780
780F00
3E1F00
1FFC00
07F800
ENDCHAR

STARTCHAR multiply
ENCODING 215
SWIDTH 750 0
DWIDTH 18 0
BBX 12 12 3 0
BITMAP
C070
E0E0
73C0
7B80
3F00
1E00
0E00
1F00
3F80
73C0
61E0
E0E0
ENDCHAR

STARTCHAR Oslash
ENCODING 216
SWIDTH 804 0
DWIDTH 19 0
BBX 17 16 2 0
BITMAP
03E300
0FF700
1FFE00
7E1C00
783E00
F07600
E0F700
E1E700
E3C780
E78780
EF0780
7E0700
3C0F00
7FFE00
F7FC00
C7F000
ENDCHAR

STARTCHAR Ugrave
ENCODING 217
SWIDTH 765 0
DWIDTH 18 0
BBX 16 17 2 0
BITMAP
0700
07C0
01C0
0000
E007
E007
E007
E00F
E00E
700E
700E
700E
781C
3C3C
1FF8
1FF8
07E0
ENDCHAR

STARTCHAR Uacute
ENCODING 218
SWIDTH 765 0
DWIDTH 18 0
BBX 16 17 2 0
BITMAP
00E0
03E0
0380
0000
E007
E007
E007
E00F
E00E
700E
700E
700E
781C
3C3C
1FF8
1FF8
07E0
ENDCHAR

STARTCHAR Ucircumflex
ENCODING 219
SWIDTH 765 0
DWIDTH 18 0
BBX 16 17 2 0
BITMAP
03C0
07E0
0E70
0000
E007
E007
E007
E00F
E00E
700E
700E
700E
781C
3C3C
1FF8
1FF8
07E0
ENDCHAR

STARTCHAR Udieresis
ENCODING 220
SWIDTH 765 0
DWIDTH 18 0
BBX 16 17 2 0
BITMAP
0E60
0E70
0E70
0000
E007
E007
E007
E00F
E00E
700E
700E
700E
781C
3C3C
1FF8
1FF8
07E0
ENDCHAR

STARTCHAR Yacute
ENCODING 221
SWIDTH 753 0
DWIDTH 18 0
BBX 15 18 2 -1
BITMAP
0070
01F0
01C0
4000
F00E
FC1E
7E3E
0F78
07F0
03E0
03E0
01C0
01C0
01C0
01C0
01C0
01C0
01C0
ENDCHAR

STARTCHAR Thorn
ENCODING 222
SWIDTH 750 0
DWIDTH 18 0
BBX 12 15 4 0
BITMAP
F800
F000
7F80
7FC0
7FE0
70F0
7070
7070
70F0
7FE0
7FC0
7F80
7000
F800
F800
ENDCHAR

STARTCHAR germandbls
ENCODING 223
SWIDTH 750 0
DWIDTH 18 0
BBX 13 16 2 0
BITMAP
1F80
3FC0
78E0
70E0
71C0
7380
77C0
70E0
7070
7038
7038
7038
7038
7070
F7E0
E3C0
ENDCHAR

STARTCHAR agrave
ENCODING 224
SWIDTH 561 0
DWIDTH 13 0
BBX 11 14 2 0
BITMAP
3800
3E00
0E00
0000
1F00
3F00
7F00
F700
E700
E700
F700
7FC0
7FE0
1CE0
ENDCHAR

STARTCHAR aacute
ENCODING 225
SWIDTH 561 0
DWIDTH 13 0
BBX 11 14 3 0
BITMAP
0380
0F80
0E00
0000
1F00
3F80
7F80
F380
E380
E380
F780
7FC0
7FE0
1CE0
ENDCHAR

STARTCHAR acircumflex
ENCODING 226
SWIDTH 561 0
DWIDTH 13 0
BBX 11 14 3 0
BITMAP
1E00
3F00
7380
0000
1F00
3F80
7F80
F380
E380
E380
F780
7FC0
7FE0
1CE0
ENDCHAR

STARTCHAR atilde
ENCODING 227
SWIDTH 561 0
DWIDTH 13 0
BBX 11 14 3 0
BITMAP
3CC0
7FC0
6780
0000
1F00
3F80
7F80
F380
E380
E380
F780
7FC0
7FE0
1CE0
ENDCHAR

STARTCHAR adieresis
ENCODING 228
SWIDTH 561 0
DWIDTH 13 0
BBX 11 14 3 0
BITMAP
3B00
3B80
3B80
0000
1F00
3F80
7F80
F380
E380
E380
F780
7FC0
7FE0
1CE0
ENDCHAR

STARTCHAR aring
ENCODING 229
SWIDTH 561 0
DWIDTH 13 0
BBX 11 15 5 0
BITMAP
1E00
3F00
3300
3F00
1E00
1E00
3F80
7F80
F380
E380
E380
F780
7FC0
7FE0
1CE0
ENDCHAR

STARTCHAR ae
ENCODING 230
SWIDTH 750 0
DWIDTH 18 0
BBX 16 12 2 0
BITMAP
3C3C
7E7E
EFF7
03C3
3FC3
7FFF
E7FF
E380
E3C0
F7E7
7FFE
3E7C
ENDCHAR

STARTCHAR ccedilla
ENCODING 231
SWIDTH 474 0
DWIDTH 11 0
BBX 11 17 2 -5
BITMAP
03C0
0FE0
1FE0
3C00
7800
F000
E000
E000
F000
FC00
3FE0
1FC0
0380
0380
01C0
07C0
0780
ENDCHAR

STARTCHAR egrave
ENCODING 232
SWIDTH 537 0
DWIDTH 13 0
BBX 10 14 2 0
BITMAP
3800
3E00
0E00
0000
1E00
3F80
7FC0
F0C0
FFC0
FF80
F000
7FC0
3FC0
0FC0
ENDCHAR

STARTCHAR eacute
ENCODING 233
SWIDTH 537 0
DWIDTH 13 0
BBX 10 14 3 0
BITMAP
0700
1F00
1C00
0000
1E00
3F80
7FC0
F0C0
FFC0
FF80
F000
7FC0
3FC0
0FC0
ENDCHAR

STARTCHAR ecircumflex
ENCODING 234
SWIDTH 537 0
DWIDTH 13 0
BBX 10 14 5 0
BITMAP
0F00
1F80
39C0
0000
0F00
3F80
7FC0
F0C0
FFC0
FF80
F000
7FC0
3FC0
0FC0
ENDCHAR

STARTCHAR edieresis
ENCODING 235
SWIDTH 537 0
DWIDTH 13 0
BBX 10 14 2 0
BITMAP
3B00
3B80
3B80
0000
0F00
3F80
7FC0
F0C0
FFC0
FF80
F000
7FC0
3FC0
0FC0
ENDCHAR

STARTCHAR igrave
ENCODING 236
SWIDTH 248 0
DWIDTH 6 0
BBX 5 13 4 0
BITMAP
E0
F8
38
00
38
38
38
38
38
38
38
38
38
ENDCHAR

STARTCHAR iacute
ENCODING 237
SWIDTH 248 0
DWIDTH 6 0
BBX 5 13 8 0
BITMAP
38
F8
E0
00
E0
E0
E0
E0
E0
E0
E0
E0
E0
ENDCHAR

STARTCHAR icircumflex
ENCODING 238
SWIDTH 248 0
DWIDTH 6 0
BBX 8 13 6 0
BITMAP
3C
7E
E7
00
38
38
38
38
38
38
38
38
38
ENDCHAR

STARTCHAR idieresis
ENCODING 239
SWIDTH 248 0
DWIDTH 6 0
BBX 7 13 6 0
BITMAP
EC
EE
EE
00
38
38
38
38
38
38
38
38
38
ENDCHAR

STARTCHAR eth
ENCODING 240
SWIDTH 546 0
DWIDTH 13 0
BBX 10 17 2 0
BITMAP
7380
7F80
3F00
7F00
7380
0380
0F80
3FC0
7FC0
F9C0
E1C0
E1C0
E1C0
F3C0
7F80
3F00
1E00
ENDCHAR

STARTCHAR ntilde
ENCODING 241
SWIDTH 501 0
DWIDTH 12 0
BBX 9 14 2 0
BITMAP
7980
FF80
CF00
0000
FE00
FF00
FF00
F780
F380
7380
7380
7380
7380
6380
ENDCHAR

STARTCHAR ograve
ENCODING 242
SWIDTH 546 0
DWIDTH 13 0
BBX 10 15 2 0
BITMAP
3800
3E00
0E00
0000
0F00
3F80
7FC0
F9C0
E1C0
E1C0
E1C0
F3C0
7F80
3F00
1E00
ENDCHAR

STARTCHAR oacute
ENCODING 243
SWIDTH 546 0
DWIDTH 13 0
BBX 10 15 2 0
BITMAP
0380
0F80
0E00
0000
0F00
3F80
7FC0
F9C0
E1C0
E1C0
E1C0
F3C0
7F80
3F00
1E00
ENDCHAR

STARTCHAR ocircumflex
ENCODING 244
SWIDTH 546 0
DWIDTH 13 0
BBX 10 15 2 0
BITMAP
1E00
3F00
7380
0000
0F00
3F80
7FC0
F9C0
E1C0
E1C0
E1C0
F3C0
7F80
3F00
1E00
ENDCHAR

STARTCHAR otilde
ENCODING 245
SWIDTH 546 0
DWIDTH 13 0
BBX 10 15 2 0
BITMAP
3CC0
7FC0
6780
0000
0F00
3F80
7FC0
F9C0
E1C0
E1C0
E1C0
F3C0
7F80
3F00
1E00
ENDCHAR

STARTCHAR odieresis
ENCODING 246
SWIDTH 546 0
DWIDTH 13 0
BBX 10 15 2 0
BITMAP
3980
3B80
3B80
0000
0F00
3F80
7FC0
F9C0
E1C0
E1C0
E1C0
F3C0
7F80
3F00
1E00
ENDCHAR

STARTCHAR divide
ENCODING 247
SWIDTH 608 0
DWIDTH 15 0
BBX 12 13 2 0
BITMAP
0600
0700
0700
0000
0000
FFE0
FFF0
FFF0
0000
0000
0E00
0E00
0600
ENDCHAR

STARTCHAR oslash
ENCODING 248
SWIDTH 546 0
DWIDTH 13 0
BBX 10 12 2 0
BITMAP
00C0
0FC0
3F80
7FC0
FBC0
E7C0
EEC0
FDC0
FBC0
7F80
FF00
DE00
ENDCHAR

STARTCHAR ugrave
ENCODING 249
SWIDTH 563 0
DWIDTH 14 0
BBX 11 15 2 0
BITMAP
3800
3E00
0E00
0000
C0E0
E1E0
E1C0
E1C0
E1C0
E1C0
E1C0
F380
7F80
3F00
0E00
ENDCHAR

STARTCHAR uacute
ENCODING 250
SWIDTH 563 0
DWIDTH 14 0
BBX 11 15 2 0
BITMAP
0700
1F00
1C00
0000
C0E0
E1E0
E1C0
E1C0
E1C0
E1C0
E1C0
F380
7F80
3F00
0E00
ENDCHAR

STARTCHAR ucircumflex
ENCODING 251
SWIDTH 563 0
DWIDTH 14 0
BBX 11 15 2 0
BITMAP
1E00
3F00
7380
0000
C0E0
E1E0
E1C0
E1C0
E1C0
E1C0
E1C0
F380
7F80
3F00
0E00
ENDCHAR

STARTCHAR udieresis
ENCODING 252
SWIDTH 563 0
DWIDTH 14 0
BBX 11 15 2 0
BITMAP
3B00
3B80
3B80
0000
C0E0
E1E0
E1C0
E1C0
E1C0
E1C0
E1C0
F380
7F80
3F00
0E00
ENDCHAR

STARTCHAR yacute
ENCODING 253
SWIDTH 559 0
DWIDTH 13 0
BBX 11 18 2 -4
BITMAP
0380
0F80
0E00
0000
E0C0
F1E0
FBC0
7F80
3F00
1F00
0E00
0E00
0E00
0E00
0E00
0E00
0E00
0E00
ENDCHAR

STARTCHAR thorn
ENCODING 254
SWIDTH 750 0
DWIDTH 18 0
BBX 14 19 3 -4
BITMAP
F800
F800
F800
3FC0
3FF0
3FF8
383C
381C
381C
383C
3878
3FF8
3FE0
3F80
3800
3800
7800
7C00
7C00
ENDCHAR

STARTCHAR ydieresis
ENCODING 255
SWIDTH 559 0
DWIDTH 13 0
BBX 11 18 2 -4
BITMAP
3B00
3B80
3B80
0000
E0C0
F1E0
FBC0
7F80
3F00
1F00
0E00
0E00
0E00
0E00
0E00
0E00
0E00
0E00
ENDCHAR

ENDFONT
