STARTFONT 2.1
FONT -Misc-Ohsnap.Icons-Bold-R-Normal--13-120-75-75-C-60-ISO8859-1
SIZE 12 75 75
FONTBOUNDINGBOX 6 13 0 -2

STARTPROPERTIES 24
FONTNAME_REGISTRY ""
FOUNDRY "Misc"
FAMILY_NAME "Ohsnap.Icons"
WEIGHT_NAME "Bold"
SLANT "R"
SETWIDTH_NAME "Normal"
ADD_STYLE_NAME ""
PIXEL_SIZE 13
POINT_SIZE 120
RESOLUTION_X 75
RESOLUTION_Y 75
SPACING "C"
AVERAGE_WIDTH 60
CHARSET_REGISTRY "ISO8859"
CHARSET_ENCODING "1"
COPYRIGHT "GPLv2"
CAP_HEIGHT 8
X_HEIGHT 6
_GBDFED_INFO "Edited with gbdfed 1.6."
WEIGHT 10
QUAD_WIDTH 6
DEFAULT_CHAR 0
FONT_DESCENT 2
FONT_ASCENT 11
ENDPROPERTIES

CHARS 223

STARTCHAR defaultchar
ENCODING 0
SWIDTH 443 0
DWIDTH 6 0
BBX 6 13 0 -2
BITMAP
00
00
00
F8
F8
F8
F8
F8
F8
F8
F8
00
00
ENDCHAR

STARTCHAR uni25C6
ENCODING 1
SWIDTH 443 0
DWIDTH 6 0
BBX 6 13 0 -2
BITMAP
00
00
00
00
00
20
70
F8
70
20
00
00
00
ENDCHAR

STARTCHAR shade
ENCODING 2
SWIDTH 443 0
DWIDTH 6 0
BBX 6 13 0 -2
BITMAP
A8
54
A8
54
A8
54
A8
54
A8
54
A8
54
A8
ENDCHAR

STARTCHAR uni2409
ENCODING 3
SWIDTH 443 0
DWIDTH 6 0
BBX 6 13 0 -2
BITMAP
00
D8
D8
F8
D8
D8
00
FC
30
30
30
30
00
ENDCHAR

STARTCHAR uni240C
ENCODING 4
SWIDTH 443 0
DWIDTH 6 0
BBX 6 13 0 -2
BITMAP
00
F0
C0
F0
C0
C0
00
78
60
78
60
60
00
ENDCHAR

STARTCHAR uni240D
ENCODING 5
SWIDTH 443 0
DWIDTH 6 0
BBX 6 13 0 -2
BITMAP
00
F0
C0
C0
C0
F0
00
F8
D8
F0
D8
D8
00
ENDCHAR

STARTCHAR uni240A
ENCODING 6
SWIDTH 443 0
DWIDTH 6 0
BBX 6 13 0 -2
BITMAP
00
C0
C0
C0
C0
F0
00
78
60
78
60
60
00
ENDCHAR

STARTCHAR degree
ENCODING 7
SWIDTH 443 0
DWIDTH 6 0
BBX 6 13 0 -2
BITMAP
00
00
70
50
70
00
00
00
00
00
00
00
00
ENDCHAR

STARTCHAR plusminus
ENCODING 8
SWIDTH 443 0
DWIDTH 6 0
BBX 6 13 0 -2
BITMAP
00
00
00
00
30
30
FC
30
30
00
FC
00
00
ENDCHAR

STARTCHAR uni2424
ENCODING 9
SWIDTH 443 0
DWIDTH 6 0
BBX 6 13 0 -2
BITMAP
00
F8
D8
D8
D8
D8
00
C0
C0
C0
C0
F8
00
ENDCHAR

STARTCHAR uni240B
ENCODING 10
SWIDTH 443 0
DWIDTH 6 0
BBX 6 13 0 -2
BITMAP
00
D8
D8
D8
70
20
00
FC
30
30
30
30
00
ENDCHAR

STARTCHAR SF040000
ENCODING 11
SWIDTH 443 0
DWIDTH 6 0
BBX 6 13 0 -2
BITMAP
20
20
20
20
20
20
20
E0
00
00
00
00
00
ENDCHAR

STARTCHAR SF030000
ENCODING 12
SWIDTH 443 0
DWIDTH 6 0
BBX 6 13 0 -2
BITMAP
00
00
00
00
00
00
00
E0
20
20
20
20
20
ENDCHAR

STARTCHAR SF010000
ENCODING 13
SWIDTH 443 0
DWIDTH 6 0
BBX 6 13 0 -2
BITMAP
00
00
00
00
00
00
00
3C
20
20
20
20
20
ENDCHAR

STARTCHAR SF020000
ENCODING 14
SWIDTH 443 0
DWIDTH 6 0
BBX 6 13 0 -2
BITMAP
20
20
20
20
20
20
20
3C
00
00
00
00
00
ENDCHAR

STARTCHAR SF050000
ENCODING 15
SWIDTH 443 0
DWIDTH 6 0
BBX 6 13 0 -2
BITMAP
20
20
20
20
20
20
20
FC
20
20
20
20
20
ENDCHAR

STARTCHAR uni23BA
ENCODING 16
SWIDTH 443 0
DWIDTH 6 0
BBX 6 13 0 -2
BITMAP
FC
00
00
00
00
00
00
00
00
00
00
00
00
ENDCHAR

STARTCHAR uni23BB
ENCODING 17
SWIDTH 443 0
DWIDTH 6 0
BBX 6 13 0 -2
BITMAP
00
00
00
FC
00
00
00
00
00
00
00
00
00
ENDCHAR

STARTCHAR SF100000
ENCODING 18
SWIDTH 443 0
DWIDTH 6 0
BBX 6 13 0 -2
BITMAP
00
00
00
00
00
00
00
FC
00
00
00
00
00
ENDCHAR

STARTCHAR uni23BC
ENCODING 19
SWIDTH 443 0
DWIDTH 6 0
BBX 6 13 0 -2
BITMAP
00
00
00
00
00
00
00
00
00
00
FC
00
00
ENDCHAR

STARTCHAR uni23BD
ENCODING 20
SWIDTH 443 0
DWIDTH 6 0
BBX 6 13 0 -2
BITMAP
00
00
00
00
00
00
00
00
00
00
00
00
FC
ENDCHAR

STARTCHAR SF080000
ENCODING 21
SWIDTH 443 0
DWIDTH 6 0
BBX 6 13 0 -2
BITMAP
20
20
20
20
20
20
20
3C
20
20
20
20
20
ENDCHAR

STARTCHAR SF090000
ENCODING 22
SWIDTH 443 0
DWIDTH 6 0
BBX 6 13 0 -2
BITMAP
20
20
20
20
20
20
20
E0
20
20
20
20
20
ENDCHAR

STARTCHAR SF070000
ENCODING 23
SWIDTH 443 0
DWIDTH 6 0
BBX 6 13 0 -2
BITMAP
20
20
20
20
20
20
20
FC
00
00
00
00
00
ENDCHAR

STARTCHAR SF060000
ENCODING 24
SWIDTH 443 0
DWIDTH 6 0
BBX 6 13 0 -2
BITMAP
00
00
00
00
00
00
00
FC
20
20
20
20
20
ENDCHAR

STARTCHAR SF110000
ENCODING 25
SWIDTH 443 0
DWIDTH 6 0
BBX 6 13 0 -2
BITMAP
20
20
20
20
20
20
20
20
20
20
20
20
20
ENDCHAR

STARTCHAR lessequal
ENCODING 26
SWIDTH 443 0
DWIDTH 6 0
BBX 6 13 0 -2
BITMAP
00
00
18
30
60
C0
60
30
18
00
F8
00
00
ENDCHAR

STARTCHAR greaterequal
ENCODING 27
SWIDTH 443 0
DWIDTH 6 0
BBX 6 13 0 -2
BITMAP
00
00
C0
60
30
18
30
60
C0
00
F8
00
00
ENDCHAR

STARTCHAR pi
ENCODING 28
SWIDTH 443 0
DWIDTH 6 0
BBX 6 13 0 -2
BITMAP
00
00
00
00
F8
D8
D8
D8
D8
D8
00
00
00
ENDCHAR

STARTCHAR notequal
ENCODING 29
SWIDTH 443 0
DWIDTH 6 0
BBX 6 13 0 -2
BITMAP
00
00
00
00
00
18
F8
30
F8
60
00
00
00
ENDCHAR

STARTCHAR sterling
ENCODING 30
SWIDTH 443 0
DWIDTH 6 0
BBX 6 13 0 -2
BITMAP
00
00
00
78
60
60
F0
60
60
60
F8
00
00
ENDCHAR

STARTCHAR periodcentered
ENCODING 31
SWIDTH 443 0
DWIDTH 6 0
BBX 6 13 0 -2
BITMAP
00
00
00
00
00
00
60
60
00
00
00
00
00
ENDCHAR

STARTCHAR space
ENCODING 32
SWIDTH 443 0
DWIDTH 6 0
BBX 6 13 0 -2
BITMAP
00
00
00
00
00
00
00
00
00
00
00
00
00
ENDCHAR

STARTCHAR exclam
ENCODING 33
SWIDTH 443 0
DWIDTH 6 0
BBX 6 13 0 -2
BITMAP
00
00
00
60
60
60
60
60
00
60
60
00
00
ENDCHAR

STARTCHAR quotedbl
ENCODING 34
SWIDTH 443 0
DWIDTH 6 0
BBX 6 13 0 -2
BITMAP
00
00
D8
D8
D8
00
00
00
00
00
00
00
00
ENDCHAR

STARTCHAR numbersign
ENCODING 35
SWIDTH 443 0
DWIDTH 6 0
BBX 6 13 0 -2
BITMAP
00
00
00
50
F8
F8
50
50
F8
F8
50
00
00
ENDCHAR

STARTCHAR dollar
ENCODING 36
SWIDTH 443 0
DWIDTH 6 0
BBX 6 13 0 -2
BITMAP
00
00
00
30
30
F8
C0
F8
18
F8
30
30
00
ENDCHAR

STARTCHAR percent
ENCODING 37
SWIDTH 443 0
DWIDTH 6 0
BBX 6 13 0 -2
BITMAP
00
00
00
E0
A4
E8
10
20
5C
94
1C
00
00
ENDCHAR

STARTCHAR ampersand
ENCODING 38
SWIDTH 443 0
DWIDTH 6 0
BBX 6 13 0 -2
BITMAP
00
00
00
F0
D0
D0
60
D8
D0
D8
E8
00
00
ENDCHAR

STARTCHAR quotesingle
ENCODING 39
SWIDTH 443 0
DWIDTH 6 0
BBX 6 13 0 -2
BITMAP
00
00
60
60
60
00
00
00
00
00
00
00
00
ENDCHAR

STARTCHAR parenleft
ENCODING 40
SWIDTH 443 0
DWIDTH 6 0
BBX 6 13 0 -2
BITMAP
00
00
18
30
60
60
60
60
60
60
30
18
00
ENDCHAR

STARTCHAR parenright
ENCODING 41
SWIDTH 443 0
DWIDTH 6 0
BBX 6 13 0 -2
BITMAP
00
00
C0
60
30
30
30
30
30
30
60
C0
00
ENDCHAR

STARTCHAR asterisk
ENCODING 42
SWIDTH 443 0
DWIDTH 6 0
BBX 6 13 0 -2
BITMAP
00
00
00
00
00
20
F8
70
F8
20
00
00
00
ENDCHAR

STARTCHAR plus
ENCODING 43
SWIDTH 443 0
DWIDTH 6 0
BBX 6 13 0 -2
BITMAP
00
00
00
00
00
30
30
FC
30
30
00
00
00
ENDCHAR

STARTCHAR comma
ENCODING 44
SWIDTH 443 0
DWIDTH 6 0
BBX 6 13 0 -2
BITMAP
00
00
00
00
00
00
00
00
00
60
60
20
40
ENDCHAR

STARTCHAR hyphen
ENCODING 45
SWIDTH 443 0
DWIDTH 6 0
BBX 6 13 0 -2
BITMAP
00
00
00
00
00
00
00
F8
00
00
00
00
00
ENDCHAR

STARTCHAR period
ENCODING 46
SWIDTH 443 0
DWIDTH 6 0
BBX 6 13 0 -2
BITMAP
00
00
00
00
00
00
00
00
00
60
60
00
00
ENDCHAR

STARTCHAR slash
ENCODING 47
SWIDTH 443 0
DWIDTH 6 0
BBX 6 13 0 -2
BITMAP
00
00
0C
0C
18
18
30
30
60
60
C0
C0
00
ENDCHAR

STARTCHAR zero
ENCODING 48
SWIDTH 443 0
DWIDTH 6 0
BBX 6 13 0 -2
BITMAP
00
00
00
F8
D8
D8
F8
D8
D8
D8
F8
00
00
ENDCHAR

STARTCHAR one
ENCODING 49
SWIDTH 443 0
DWIDTH 6 0
BBX 6 13 0 -2
BITMAP
00
00
00
30
70
30
30
30
30
30
30
00
00
ENDCHAR

STARTCHAR two
ENCODING 50
SWIDTH 443 0
DWIDTH 6 0
BBX 6 13 0 -2
BITMAP
00
00
00
F8
18
18
F8
C0
C0
C0
F8
00
00
ENDCHAR

STARTCHAR three
ENCODING 51
SWIDTH 443 0
DWIDTH 6 0
BBX 6 13 0 -2
BITMAP
00
00
00
F8
18
18
F8
18
18
18
F8
00
00
ENDCHAR

STARTCHAR four
ENCODING 52
SWIDTH 443 0
DWIDTH 6 0
BBX 6 13 0 -2
BITMAP
00
00
00
D8
D8
D8
F8
18
18
18
18
00
00
ENDCHAR

STARTCHAR five
ENCODING 53
SWIDTH 443 0
DWIDTH 6 0
BBX 6 13 0 -2
BITMAP
00
00
00
F8
C0
C0
F8
18
18
18
F8
00
00
ENDCHAR

STARTCHAR six
ENCODING 54
SWIDTH 443 0
DWIDTH 6 0
BBX 6 13 0 -2
BITMAP
00
00
00
F8
C0
C0
F8
D8
D8
D8
F8
00
00
ENDCHAR

STARTCHAR seven
ENCODING 55
SWIDTH 443 0
DWIDTH 6 0
BBX 6 13 0 -2
BITMAP
00
00
00
F8
18
18
18
18
18
18
18
00
00
ENDCHAR

STARTCHAR eight
ENCODING 56
SWIDTH 443 0
DWIDTH 6 0
BBX 6 13 0 -2
BITMAP
00
00
00
F8
D8
D8
70
D8
D8
D8
F8
00
00
ENDCHAR

STARTCHAR nine
ENCODING 57
SWIDTH 443 0
DWIDTH 6 0
BBX 6 13 0 -2
BITMAP
00
00
00
F8
D8
D8
F8
18
18
18
18
00
00
ENDCHAR

STARTCHAR colon
ENCODING 58
SWIDTH 443 0
DWIDTH 6 0
BBX 6 13 0 -2
BITMAP
00
00
00
00
00
60
60
00
00
60
60
00
00
ENDCHAR

STARTCHAR semicolon
ENCODING 59
SWIDTH 443 0
DWIDTH 6 0
BBX 6 13 0 -2
BITMAP
00
00
00
00
00
60
60
00
00
60
60
20
40
ENDCHAR

STARTCHAR less
ENCODING 60
SWIDTH 443 0
DWIDTH 6 0
BBX 6 13 0 -2
BITMAP
00
00
00
00
18
30
60
C0
60
30
18
00
00
ENDCHAR

STARTCHAR equal
ENCODING 61
SWIDTH 443 0
DWIDTH 6 0
BBX 6 13 0 -2
BITMAP
00
00
00
00
00
00
F8
00
F8
00
00
00
00
ENDCHAR

STARTCHAR greater
ENCODING 62
SWIDTH 443 0
DWIDTH 6 0
BBX 6 13 0 -2
BITMAP
00
00
00
00
C0
60
30
18
30
60
C0
00
00
ENDCHAR

STARTCHAR question
ENCODING 63
SWIDTH 443 0
DWIDTH 6 0
BBX 6 13 0 -2
BITMAP
00
00
00
F8
18
18
78
60
00
60
60
00
00
ENDCHAR

STARTCHAR at
ENCODING 64
SWIDTH 443 0
DWIDTH 6 0
BBX 6 13 0 -2
BITMAP
00
00
00
F8
C8
D8
D8
D8
D8
D8
C0
F8
00
ENDCHAR

STARTCHAR A
ENCODING 65
SWIDTH 443 0
DWIDTH 6 0
BBX 6 13 0 -2
BITMAP
00
00
00
F8
D8
D8
F8
D8
D8
D8
D8
00
00
ENDCHAR

STARTCHAR B
ENCODING 66
SWIDTH 443 0
DWIDTH 6 0
BBX 6 13 0 -2
BITMAP
00
00
00
F0
D0
D0
F8
D8
D8
D8
F8
00
00
ENDCHAR

STARTCHAR C
ENCODING 67
SWIDTH 443 0
DWIDTH 6 0
BBX 6 13 0 -2
BITMAP
00
00
00
F8
C0
C0
C0
C0
C0
C0
F8
00
00
ENDCHAR

STARTCHAR D
ENCODING 68
SWIDTH 443 0
DWIDTH 6 0
BBX 6 13 0 -2
BITMAP
00
00
00
F0
D8
D8
D8
D8
D8
D8
F0
00
00
ENDCHAR

STARTCHAR E
ENCODING 69
SWIDTH 443 0
DWIDTH 6 0
BBX 6 13 0 -2
BITMAP
00
00
00
F8
C0
C0
F8
C0
C0
C0
F8
00
00
ENDCHAR

STARTCHAR F
ENCODING 70
SWIDTH 443 0
DWIDTH 6 0
BBX 6 13 0 -2
BITMAP
00
00
00
F8
C0
C0
F8
C0
C0
C0
C0
00
00
ENDCHAR

STARTCHAR G
ENCODING 71
SWIDTH 443 0
DWIDTH 6 0
BBX 6 13 0 -2
BITMAP
00
00
00
F8
C0
C0
D8
C8
C8
C8
F8
00
00
ENDCHAR

STARTCHAR H
ENCODING 72
SWIDTH 443 0
DWIDTH 6 0
BBX 6 13 0 -2
BITMAP
00
00
00
D8
D8
D8
F8
D8
D8
D8
D8
00
00
ENDCHAR

STARTCHAR I
ENCODING 73
SWIDTH 443 0
DWIDTH 6 0
BBX 6 13 0 -2
BITMAP
00
00
00
78
30
30
30
30
30
30
78
00
00
ENDCHAR

STARTCHAR J
ENCODING 74
SWIDTH 443 0
DWIDTH 6 0
BBX 6 13 0 -2
BITMAP
00
00
00
18
18
18
18
18
18
18
F8
00
00
ENDCHAR

STARTCHAR K
ENCODING 75
SWIDTH 443 0
DWIDTH 6 0
BBX 6 13 0 -2
BITMAP
00
00
00
D8
D8
F0
F0
D8
D8
D8
D8
00
00
ENDCHAR

STARTCHAR L
ENCODING 76
SWIDTH 443 0
DWIDTH 6 0
BBX 6 13 0 -2
BITMAP
00
00
00
C0
C0
C0
C0
C0
C0
C0
F8
00
00
ENDCHAR

STARTCHAR M
ENCODING 77
SWIDTH 443 0
DWIDTH 6 0
BBX 6 13 0 -2
BITMAP
00
00
00
F8
F8
A8
A8
A8
A8
A8
A8
00
00
ENDCHAR

STARTCHAR N
ENCODING 78
SWIDTH 443 0
DWIDTH 6 0
BBX 6 13 0 -2
BITMAP
00
00
00
F8
D8
D8
D8
D8
D8
D8
D8
00
00
ENDCHAR

STARTCHAR O
ENCODING 79
SWIDTH 443 0
DWIDTH 6 0
BBX 6 13 0 -2
BITMAP
00
00
00
F8
D8
D8
D8
D8
D8
D8
F8
00
00
ENDCHAR

STARTCHAR P
ENCODING 80
SWIDTH 443 0
DWIDTH 6 0
BBX 6 13 0 -2
BITMAP
00
00
00
F8
D8
D8
F8
C0
C0
C0
C0
00
00
ENDCHAR

STARTCHAR Q
ENCODING 81
SWIDTH 443 0
DWIDTH 6 0
BBX 6 13 0 -2
BITMAP
00
00
00
F8
D8
D8
D8
D8
D8
D8
F8
0C
00
ENDCHAR

STARTCHAR R
ENCODING 82
SWIDTH 443 0
DWIDTH 6 0
BBX 6 13 0 -2
BITMAP
00
00
00
F8
D8
D8
F8
F0
D8
D8
D8
00
00
ENDCHAR

STARTCHAR S
ENCODING 83
SWIDTH 443 0
DWIDTH 6 0
BBX 6 13 0 -2
BITMAP
00
00
00
F8
C0
C0
F8
18
18
18
F8
00
00
ENDCHAR

STARTCHAR T
ENCODING 84
SWIDTH 443 0
DWIDTH 6 0
BBX 6 13 0 -2
BITMAP
00
00
00
FC
30
30
30
30
30
30
30
00
00
ENDCHAR

STARTCHAR U
ENCODING 85
SWIDTH 443 0
DWIDTH 6 0
BBX 6 13 0 -2
BITMAP
00
00
00
D8
D8
D8
D8
D8
D8
D8
F8
00
00
ENDCHAR

STARTCHAR V
ENCODING 86
SWIDTH 443 0
DWIDTH 6 0
BBX 6 13 0 -2
BITMAP
00
00
00
D8
D8
D8
D8
D8
D8
70
20
00
00
ENDCHAR

STARTCHAR W
ENCODING 87
SWIDTH 443 0
DWIDTH 6 0
BBX 6 13 0 -2
BITMAP
00
00
00
A8
A8
A8
A8
A8
A8
F8
F8
00
00
ENDCHAR

STARTCHAR X
ENCODING 88
SWIDTH 443 0
DWIDTH 6 0
BBX 6 13 0 -2
BITMAP
00
00
00
D8
D8
70
70
70
D8
D8
D8
00
00
ENDCHAR

STARTCHAR Y
ENCODING 89
SWIDTH 443 0
DWIDTH 6 0
BBX 6 13 0 -2
BITMAP
00
00
00
CC
CC
CC
FC
30
30
30
30
00
00
ENDCHAR

STARTCHAR Z
ENCODING 90
SWIDTH 443 0
DWIDTH 6 0
BBX 6 13 0 -2
BITMAP
00
00
00
F8
18
18
30
60
C0
C0
F8
00
00
ENDCHAR

STARTCHAR bracketleft
ENCODING 91
SWIDTH 443 0
DWIDTH 6 0
BBX 6 13 0 -2
BITMAP
00
00
78
60
60
60
60
60
60
60
60
78
00
ENDCHAR

STARTCHAR backslash
ENCODING 92
SWIDTH 443 0
DWIDTH 6 0
BBX 6 13 0 -2
BITMAP
00
00
C0
C0
60
60
30
30
18
18
0C
0C
00
ENDCHAR

STARTCHAR bracketright
ENCODING 93
SWIDTH 443 0
DWIDTH 6 0
BBX 6 13 0 -2
BITMAP
00
00
F0
30
30
30
30
30
30
30
30
F0
00
ENDCHAR

STARTCHAR asciicircum
ENCODING 94
SWIDTH 443 0
DWIDTH 6 0
BBX 6 13 0 -2
BITMAP
00
00
20
70
D8
00
00
00
00
00
00
00
00
ENDCHAR

STARTCHAR underscore
ENCODING 95
SWIDTH 443 0
DWIDTH 6 0
BBX 6 13 0 -2
BITMAP
00
00
00
00
00
00
00
00
00
00
00
F8
00
ENDCHAR

STARTCHAR grave
ENCODING 96
SWIDTH 443 0
DWIDTH 6 0
BBX 6 13 0 -2
BITMAP
00
00
40
60
30
10
00
00
00
00
00
00
00
ENDCHAR

STARTCHAR a
ENCODING 97
SWIDTH 443 0
DWIDTH 6 0
BBX 6 13 0 -2
BITMAP
00
00
00
00
00
F8
18
F8
D8
D8
F8
00
00
ENDCHAR

STARTCHAR b
ENCODING 98
SWIDTH 443 0
DWIDTH 6 0
BBX 6 13 0 -2
BITMAP
00
00
00
C0
C0
F8
D8
D8
D8
D8
F8
00
00
ENDCHAR

STARTCHAR c
ENCODING 99
SWIDTH 443 0
DWIDTH 6 0
BBX 6 13 0 -2
BITMAP
00
00
00
00
00
F8
C0
C0
C0
C0
F8
00
00
ENDCHAR

STARTCHAR d
ENCODING 100
SWIDTH 443 0
DWIDTH 6 0
BBX 6 13 0 -2
BITMAP
00
00
00
18
18
F8
D8
D8
D8
D8
F8
00
00
ENDCHAR

STARTCHAR e
ENCODING 101
SWIDTH 443 0
DWIDTH 6 0
BBX 6 13 0 -2
BITMAP
00
00
00
00
00
F8
D8
F8
C0
C0
F8
00
00
ENDCHAR

STARTCHAR f
ENCODING 102
SWIDTH 443 0
DWIDTH 6 0
BBX 6 13 0 -2
BITMAP
00
00
00
78
60
F8
60
60
60
60
60
00
00
ENDCHAR

STARTCHAR g
ENCODING 103
SWIDTH 443 0
DWIDTH 6 0
BBX 6 13 0 -2
BITMAP
00
00
00
00
00
F8
D8
D8
D8
D8
F8
18
F8
ENDCHAR

STARTCHAR h
ENCODING 104
SWIDTH 443 0
DWIDTH 6 0
BBX 6 13 0 -2
BITMAP
00
00
00
C0
C0
F8
D8
D8
D8
D8
D8
00
00
ENDCHAR

STARTCHAR i
ENCODING 105
SWIDTH 443 0
DWIDTH 6 0
BBX 6 13 0 -2
BITMAP
00
00
60
60
00
E0
60
60
60
60
78
00
00
ENDCHAR

STARTCHAR j
ENCODING 106
SWIDTH 443 0
DWIDTH 6 0
BBX 6 13 0 -2
BITMAP
00
00
18
18
00
18
18
18
18
18
18
18
F8
ENDCHAR

STARTCHAR k
ENCODING 107
SWIDTH 443 0
DWIDTH 6 0
BBX 6 13 0 -2
BITMAP
00
00
00
C0
C0
D8
F0
E0
F0
D8
D8
00
00
ENDCHAR

STARTCHAR l
ENCODING 108
SWIDTH 443 0
DWIDTH 6 0
BBX 6 13 0 -2
BITMAP
00
00
00
E0
60
60
60
60
60
60
78
00
00
ENDCHAR

STARTCHAR m
ENCODING 109
SWIDTH 443 0
DWIDTH 6 0
BBX 6 13 0 -2
BITMAP
00
00
00
00
00
F8
F8
A8
A8
A8
A8
00
00
ENDCHAR

STARTCHAR n
ENCODING 110
SWIDTH 443 0
DWIDTH 6 0
BBX 6 13 0 -2
BITMAP
00
00
00
00
00
F8
D8
D8
D8
D8
D8
00
00
ENDCHAR

STARTCHAR o
ENCODING 111
SWIDTH 443 0
DWIDTH 6 0
BBX 6 13 0 -2
BITMAP
00
00
00
00
00
F8
D8
D8
D8
D8
F8
00
00
ENDCHAR

STARTCHAR p
ENCODING 112
SWIDTH 443 0
DWIDTH 6 0
BBX 6 13 0 -2
BITMAP
00
00
00
00
00
F8
D8
D8
D8
D8
F8
C0
C0
ENDCHAR

STARTCHAR q
ENCODING 113
SWIDTH 443 0
DWIDTH 6 0
BBX 6 13 0 -2
BITMAP
00
00
00
00
00
F8
D8
D8
D8
D8
F8
18
18
ENDCHAR

STARTCHAR r
ENCODING 114
SWIDTH 443 0
DWIDTH 6 0
BBX 6 13 0 -2
BITMAP
00
00
00
00
00
F8
C0
C0
C0
C0
C0
00
00
ENDCHAR

STARTCHAR s
ENCODING 115
SWIDTH 443 0
DWIDTH 6 0
BBX 6 13 0 -2
BITMAP
00
00
00
00
00
F8
C0
F8
18
18
F8
00
00
ENDCHAR

STARTCHAR t
ENCODING 116
SWIDTH 443 0
DWIDTH 6 0
BBX 6 13 0 -2
BITMAP
00
00
00
60
60
F8
60
60
60
60
78
00
00
ENDCHAR

STARTCHAR u
ENCODING 117
SWIDTH 443 0
DWIDTH 6 0
BBX 6 13 0 -2
BITMAP
00
00
00
00
00
D8
D8
D8
D8
D8
F8
00
00
ENDCHAR

STARTCHAR v
ENCODING 118
SWIDTH 443 0
DWIDTH 6 0
BBX 6 13 0 -2
BITMAP
00
00
00
00
00
D8
D8
D8
D8
70
20
00
00
ENDCHAR

STARTCHAR w
ENCODING 119
SWIDTH 443 0
DWIDTH 6 0
BBX 6 13 0 -2
BITMAP
00
00
00
00
00
A8
A8
A8
A8
F8
F8
00
00
ENDCHAR

STARTCHAR x
ENCODING 120
SWIDTH 443 0
DWIDTH 6 0
BBX 6 13 0 -2
BITMAP
00
00
00
00
00
D8
D8
70
70
D8
D8
00
00
ENDCHAR

STARTCHAR y
ENCODING 121
SWIDTH 443 0
DWIDTH 6 0
BBX 6 13 0 -2
BITMAP
00
00
00
00
00
D8
D8
D8
D8
D8
F8
18
F8
ENDCHAR

STARTCHAR z
ENCODING 122
SWIDTH 443 0
DWIDTH 6 0
BBX 6 13 0 -2
BITMAP
00
00
00
00
00
F8
18
30
60
C0
F8
00
00
ENDCHAR

STARTCHAR braceleft
ENCODING 123
SWIDTH 443 0
DWIDTH 6 0
BBX 6 13 0 -2
BITMAP
00
00
78
60
60
60
C0
60
60
60
60
78
00
ENDCHAR

STARTCHAR bar
ENCODING 124
SWIDTH 443 0
DWIDTH 6 0
BBX 6 13 0 -2
BITMAP
00
00
60
60
60
60
60
60
60
60
60
60
00
ENDCHAR

STARTCHAR braceright
ENCODING 125
SWIDTH 443 0
DWIDTH 6 0
BBX 6 13 0 -2
BITMAP
00
00
F0
30
30
30
18
30
30
30
30
F0
00
ENDCHAR

STARTCHAR asciitilde
ENCODING 126
SWIDTH 443 0
DWIDTH 6 0
BBX 6 13 0 -2
BITMAP
00
00
E8
A8
B8
00
00
00
00
00
00
00
00
ENDCHAR

STARTCHAR space
ENCODING 160
SWIDTH 443 0
DWIDTH 6 0
BBX 6 13 0 -2
BITMAP
00
00
00
30
30
78
B4
B4
84
84
78
00
00
ENDCHAR

STARTCHAR exclamdown
ENCODING 161
SWIDTH 443 0
DWIDTH 6 0
BBX 6 13 0 -2
BITMAP
00
00
00
00
78
CC
B4
B4
CC
78
84
00
00
ENDCHAR

STARTCHAR cent
ENCODING 162
SWIDTH 443 0
DWIDTH 6 0
BBX 6 13 0 -2
BITMAP
00
00
00
00
00
00
00
3C
00
18
18
00
00
ENDCHAR

STARTCHAR sterling
ENCODING 163
SWIDTH 443 0
DWIDTH 6 0
BBX 6 13 0 -2
BITMAP
00
00
00
00
00
FC
00
78
00
30
30
00
00
ENDCHAR

STARTCHAR currency
ENCODING 164
SWIDTH 443 0
DWIDTH 6 0
BBX 6 13 0 -2
BITMAP
00
00
00
FC
00
FC
00
78
00
30
30
00
00
ENDCHAR

STARTCHAR yen
ENCODING 165
SWIDTH 443 0
DWIDTH 6 0
BBX 6 13 0 -2
BITMAP
00
00
00
78
CC
FC
CC
CC
CC
CC
78
00
00
ENDCHAR

STARTCHAR brokenbar
ENCODING 166
SWIDTH 443 0
DWIDTH 6 0
BBX 6 13 0 -2
BITMAP
00
00
00
00
18
3C
24
24
24
24
3C
00
00
ENDCHAR

STARTCHAR section
ENCODING 167
SWIDTH 443 0
DWIDTH 6 0
BBX 6 13 0 -2
BITMAP
00
00
00
78
CC
CC
CC
CC
FC
CC
78
00
00
ENDCHAR

STARTCHAR dieresis
ENCODING 168
SWIDTH 443 0
DWIDTH 6 0
BBX 6 13 0 -2
BITMAP
00
00
00
00
FC
B4
84
FC
B4
84
FC
00
00
ENDCHAR

STARTCHAR copyright
ENCODING 169
SWIDTH 443 0
DWIDTH 6 0
BBX 6 13 0 -2
BITMAP
00
00
00
00
30
78
78
30
78
FC
FC
00
00
ENDCHAR

STARTCHAR ordfeminine
ENCODING 170
SWIDTH 443 0
DWIDTH 6 0
BBX 6 13 0 -2
BITMAP
00
00
00
24
70
74
50
54
88
88
70
00
00
ENDCHAR

STARTCHAR guillemotleft
ENCODING 171
SWIDTH 443 0
DWIDTH 6 0
BBX 6 13 0 -2
BITMAP
00
00
00
00
14
28
50
A0
50
28
14
00
00
ENDCHAR

STARTCHAR logicalnot
ENCODING 172
SWIDTH 443 0
DWIDTH 6 0
BBX 6 13 0 -2
BITMAP
00
00
00
00
00
04
04
14
14
14
14
00
00
ENDCHAR

STARTCHAR hyphen
ENCODING 173
SWIDTH 443 0
DWIDTH 6 0
BBX 6 13 0 -2
BITMAP
00
00
00
04
04
14
14
54
54
54
54
00
00
ENDCHAR

STARTCHAR registered
ENCODING 174
SWIDTH 443 0
DWIDTH 6 0
BBX 6 13 0 -2
BITMAP
00
00
00
00
F0
88
E4
94
D4
FC
00
00
00
ENDCHAR

STARTCHAR macron
ENCODING 175
SWIDTH 443 0
DWIDTH 6 0
BBX 6 13 0 -2
BITMAP
00
00
00
00
CC
B4
78
78
B4
CC
00
00
00
ENDCHAR

STARTCHAR degree
ENCODING 176
SWIDTH 443 0
DWIDTH 6 0
BBX 6 13 0 -2
BITMAP
00
00
70
50
70
00
00
00
00
00
00
00
00
ENDCHAR

STARTCHAR plusminus
ENCODING 177
SWIDTH 443 0
DWIDTH 6 0
BBX 6 13 0 -2
BITMAP
00
00
00
30
3C
30
3C
30
78
78
30
00
00
ENDCHAR

STARTCHAR twosuperior
ENCODING 178
SWIDTH 443 0
DWIDTH 6 0
BBX 6 13 0 -2
BITMAP
00
00
00
78
84
84
84
FC
FC
FC
FC
00
00
ENDCHAR

STARTCHAR threesuperior
ENCODING 179
SWIDTH 443 0
DWIDTH 6 0
BBX 6 13 0 -2
BITMAP
00
00
00
00
84
78
78
78
78
84
00
00
00
ENDCHAR

STARTCHAR acute
ENCODING 180
SWIDTH 443 0
DWIDTH 6 0
BBX 6 13 0 -2
BITMAP
00
00
00
38
38
00
78
38
38
38
7C
00
00
ENDCHAR

STARTCHAR mu
ENCODING 181
SWIDTH 443 0
DWIDTH 6 0
BBX 6 13 0 -2
BITMAP
00
00
08
10
30
60
7C
F8
18
30
20
40
00
ENDCHAR

STARTCHAR paragraph
ENCODING 182
SWIDTH 443 0
DWIDTH 6 0
BBX 6 13 0 -2
BITMAP
00
00
00
00
FC
DC
DC
C4
FC
FC
00
00
00
ENDCHAR

STARTCHAR periodcentered
ENCODING 183
SWIDTH 443 0
DWIDTH 6 0
BBX 6 13 0 -2
BITMAP
00
00
00
00
10
7C
44
54
54
44
7C
00
00
ENDCHAR

STARTCHAR cedilla
ENCODING 184
SWIDTH 443 0
DWIDTH 6 0
BBX 6 13 0 -2
BITMAP
00
00
00
00
78
DC
F8
F0
FC
78
00
00
00
ENDCHAR

STARTCHAR onesuperior
ENCODING 185
SWIDTH 443 0
DWIDTH 6 0
BBX 6 13 0 -2
BITMAP
00
00
00
00
30
30
78
78
CC
CC
84
00
00
ENDCHAR

STARTCHAR ordmasculine
ENCODING 186
SWIDTH 443 0
DWIDTH 6 0
BBX 6 13 0 -2
BITMAP
00
00
00
00
30
58
DC
C4
78
30
00
00
00
ENDCHAR

STARTCHAR guillemotright
ENCODING 187
SWIDTH 443 0
DWIDTH 6 0
BBX 6 13 0 -2
BITMAP
00
00
00
00
A0
50
28
14
28
50
A0
00
00
ENDCHAR

STARTCHAR onequarter
ENCODING 188
SWIDTH 443 0
DWIDTH 6 0
BBX 6 13 0 -2
BITMAP
00
00
00
00
10
98
54
38
54
98
10
00
00
ENDCHAR

STARTCHAR onehalf
ENCODING 189
SWIDTH 443 0
DWIDTH 6 0
BBX 6 13 0 -2
BITMAP
00
00
00
78
FC
84
A4
94
A4
84
78
00
00
ENDCHAR

STARTCHAR threequarters
ENCODING 190
SWIDTH 443 0
DWIDTH 6 0
BBX 6 13 0 -2
BITMAP
00
00
00
78
FC
84
B4
84
B4
84
78
00
00
ENDCHAR

STARTCHAR questiondown
ENCODING 191
SWIDTH 443 0
DWIDTH 6 0
BBX 6 13 0 -2
BITMAP
00
00
00
FC
FC
CC
CC
CC
CC
FC
FC
00
00
ENDCHAR

STARTCHAR Agrave
ENCODING 192
SWIDTH 443 0
DWIDTH 6 0
BBX 6 13 0 -2
BITMAP
00
00
00
00
04
14
D4
D4
14
04
00
00
00
ENDCHAR

STARTCHAR Aacute
ENCODING 193
SWIDTH 443 0
DWIDTH 6 0
BBX 6 13 0 -2
BITMAP
00
00
00
00
00
04
34
34
04
00
00
00
00
ENDCHAR

STARTCHAR Acircumflex
ENCODING 194
SWIDTH 443 0
DWIDTH 6 0
BBX 6 13 0 -2
BITMAP
00
00
00
48
48
FC
FC
78
30
30
30
00
00
ENDCHAR

STARTCHAR Atilde
ENCODING 195
SWIDTH 443 0
DWIDTH 6 0
BBX 6 13 0 -2
BITMAP
00
00
00
00
08
18
74
68
10
28
00
00
00
ENDCHAR

STARTCHAR Adieresis
ENCODING 196
SWIDTH 443 0
DWIDTH 6 0
BBX 6 13 0 -2
BITMAP
00
00
00
00
04
0C
3C
3C
0C
04
00
00
00
ENDCHAR

STARTCHAR Aring
ENCODING 197
SWIDTH 443 0
DWIDTH 6 0
BBX 6 13 0 -2
BITMAP
00
00
00
00
10
30
F4
F4
30
10
00
00
00
ENDCHAR

STARTCHAR AE
ENCODING 198
SWIDTH 443 0
DWIDTH 6 0
BBX 6 13 0 -2
BITMAP
00
00
00
00
54
00
7C
7C
00
54
00
00
00
ENDCHAR

STARTCHAR Ccedilla
ENCODING 199
SWIDTH 443 0
DWIDTH 6 0
BBX 6 13 0 -2
BITMAP
00
00
00
00
E4
7C
4C
C8
F8
9C
00
00
00
ENDCHAR

STARTCHAR Egrave
ENCODING 200
SWIDTH 443 0
DWIDTH 6 0
BBX 6 13 0 -2
BITMAP
00
00
00
00
38
7C
54
54
7C
7C
54
00
00
ENDCHAR

STARTCHAR Eacute
ENCODING 201
SWIDTH 443 0
DWIDTH 6 0
BBX 6 13 0 -2
BITMAP
00
00
00
00
78
DC
DC
C4
FC
78
00
00
00
ENDCHAR

STARTCHAR Ecircumflex
ENCODING 202
SWIDTH 443 0
DWIDTH 6 0
BBX 6 13 0 -2
BITMAP
00
00
00
00
FC
78
B4
CC
FC
FC
00
00
00
ENDCHAR

STARTCHAR Edieresis
ENCODING 203
SWIDTH 443 0
DWIDTH 6 0
BBX 6 13 0 -2
BITMAP
00
00
00
00
FC
84
CC
B4
84
FC
00
00
00
ENDCHAR

STARTCHAR Igrave
ENCODING 204
SWIDTH 443 0
DWIDTH 6 0
BBX 6 13 0 -2
BITMAP
00
00
00
00
FC
78
B4
CC
FC
00
00
00
00
ENDCHAR

STARTCHAR Iacute
ENCODING 205
SWIDTH 443 0
DWIDTH 6 0
BBX 6 13 0 -2
BITMAP
00
00
00
00
FC
CC
B4
84
FC
00
00
00
00
ENDCHAR

STARTCHAR Icircumflex
ENCODING 206
SWIDTH 443 0
DWIDTH 6 0
BBX 6 13 0 -2
BITMAP
00
00
00
00
54
00
7C
7C
7C
00
54
00
00
ENDCHAR

STARTCHAR Idieresis
ENCODING 207
SWIDTH 443 0
DWIDTH 6 0
BBX 6 13 0 -2
BITMAP
00
00
00
10
14
14
58
50
30
10
10
00
00
ENDCHAR

STARTCHAR Eth
ENCODING 208
SWIDTH 443 0
DWIDTH 6 0
BBX 6 13 0 -2
BITMAP
00
00
00
00
FC
B4
CC
CC
B4
FC
00
00
00
ENDCHAR

STARTCHAR Ntilde
ENCODING 209
SWIDTH 443 0
DWIDTH 6 0
BBX 6 13 0 -2
BITMAP
00
00
00
00
B4
CC
30
B4
30
CC
B4
00
00
ENDCHAR

STARTCHAR Ograve
ENCODING 210
SWIDTH 443 0
DWIDTH 6 0
BBX 6 13 0 -2
BITMAP
00
00
00
20
8C
1C
68
90
90
60
00
00
00
ENDCHAR

STARTCHAR Oacute
ENCODING 211
SWIDTH 443 0
DWIDTH 6 0
BBX 6 13 0 -2
BITMAP
00
00
00
00
90
F8
FC
FC
F8
10
00
00
00
ENDCHAR

STARTCHAR Ocircumflex
ENCODING 212
SWIDTH 443 0
DWIDTH 6 0
BBX 6 13 0 -2
BITMAP
00
00
00
00
24
7C
FC
FC
7C
20
00
00
00
ENDCHAR

STARTCHAR Otilde
ENCODING 213
SWIDTH 443 0
DWIDTH 6 0
BBX 6 13 0 -2
BITMAP
00
00
00
00
20
7C
FC
FC
7C
24
00
00
00
ENDCHAR

STARTCHAR Odieresis
ENCODING 214
SWIDTH 443 0
DWIDTH 6 0
BBX 6 13 0 -2
BITMAP
00
00
00
00
10
F8
FC
FC
F8
90
00
00
00
ENDCHAR

STARTCHAR multiply
ENCODING 215
SWIDTH 443 0
DWIDTH 6 0
BBX 6 13 0 -2
BITMAP
00
00
00
00
00
D8
70
20
70
D8
00
00
00
ENDCHAR

STARTCHAR Oslash
ENCODING 216
SWIDTH 443 0
DWIDTH 6 0
BBX 6 13 0 -2
BITMAP
00
00
00
00
10
F8
FC
FC
F8
10
00
00
00
ENDCHAR

STARTCHAR Ugrave
ENCODING 217
SWIDTH 443 0
DWIDTH 6 0
BBX 6 13 0 -2
BITMAP
00
00
00
00
20
7C
FC
FC
7C
20
00
00
00
ENDCHAR

STARTCHAR Uacute
ENCODING 218
SWIDTH 443 0
DWIDTH 6 0
BBX 6 13 0 -2
BITMAP
00
00
00
00
78
78
78
78
FC
78
30
00
00
ENDCHAR

STARTCHAR Ucircumflex
ENCODING 219
SWIDTH 443 0
DWIDTH 6 0
BBX 6 13 0 -2
BITMAP
00
00
00
00
30
78
FC
78
78
78
78
00
00
ENDCHAR

STARTCHAR Udieresis
ENCODING 220
SWIDTH 443 0
DWIDTH 6 0
BBX 6 13 0 -2
BITMAP
00
00
00
00
30
78
FC
78
78
78
F8
00
00
ENDCHAR

STARTCHAR Yacute
ENCODING 221
SWIDTH 443 0
DWIDTH 6 0
BBX 6 13 0 -2
BITMAP
00
00
00
00
F8
78
78
78
FC
78
30
00
00
ENDCHAR

STARTCHAR Thorn
ENCODING 222
SWIDTH 443 0
DWIDTH 6 0
BBX 6 13 0 -2
BITMAP
00
00
00
00
30
78
FC
78
78
78
7C
00
00
ENDCHAR

STARTCHAR germandbls
ENCODING 223
SWIDTH 443 0
DWIDTH 6 0
BBX 6 13 0 -2
BITMAP
00
00
00
00
7C
78
78
78
FC
78
30
00
00
ENDCHAR

STARTCHAR agrave
ENCODING 224
SWIDTH 443 0
DWIDTH 6 0
BBX 6 13 0 -2
BITMAP
00
00
00
78
84
84
84
84
CC
CC
48
00
00
ENDCHAR

STARTCHAR aacute
ENCODING 225
SWIDTH 443 0
DWIDTH 6 0
BBX 6 13 0 -2
BITMAP
00
00
00
30
30
B4
B4
84
78
30
78
00
00
ENDCHAR

STARTCHAR acircumflex
ENCODING 226
SWIDTH 443 0
DWIDTH 6 0
BBX 6 13 0 -2
BITMAP
00
00
00
00
44
4C
5C
5C
4C
44
00
00
00
ENDCHAR

STARTCHAR atilde
ENCODING 227
SWIDTH 443 0
DWIDTH 6 0
BBX 6 13 0 -2
BITMAP
00
00
00
00
24
6C
FC
FC
6C
24
00
00
00
ENDCHAR

STARTCHAR adieresis
ENCODING 228
SWIDTH 443 0
DWIDTH 6 0
BBX 6 13 0 -2
BITMAP
00
00
00
00
78
FC
FC
FC
FC
78
00
00
00
ENDCHAR

STARTCHAR aring
ENCODING 229
SWIDTH 443 0
DWIDTH 6 0
BBX 6 13 0 -2
BITMAP
00
00
00
00
FC
FC
FC
FC
FC
FC
00
00
00
ENDCHAR

STARTCHAR ae
ENCODING 230
SWIDTH 443 0
DWIDTH 6 0
BBX 6 13 0 -2
BITMAP
00
00
00
00
10
18
1C
1C
18
10
00
00
00
ENDCHAR

STARTCHAR ccedilla
ENCODING 231
SWIDTH 443 0
DWIDTH 6 0
BBX 6 13 0 -2
BITMAP
00
00
00
00
6C
6C
6C
6C
6C
6C
00
00
00
ENDCHAR

STARTCHAR egrave
ENCODING 232
SWIDTH 443 0
DWIDTH 6 0
BBX 6 13 0 -2
BITMAP
00
00
00
00
90
D8
FC
FC
D8
90
00
00
00
ENDCHAR

STARTCHAR eacute
ENCODING 233
SWIDTH 443 0
DWIDTH 6 0
BBX 6 13 0 -2
BITMAP
00
00
00
00
44
64
74
74
64
44
00
00
00
ENDCHAR

STARTCHAR ecircumflex
ENCODING 234
SWIDTH 443 0
DWIDTH 6 0
BBX 6 13 0 -2
BITMAP
00
00
00
7C
7C
44
44
44
44
CC
CC
00
00
ENDCHAR

STARTCHAR edieresis
ENCODING 235
SWIDTH 443 0
DWIDTH 6 0
BBX 6 13 0 -2
BITMAP
00
00
00
08
18
F8
FC
F0
E8
10
28
00
00
ENDCHAR

STARTCHAR igrave
ENCODING 236
SWIDTH 443 0
DWIDTH 6 0
BBX 6 13 0 -2
BITMAP
00
00
00
04
0C
7C
7C
7C
7C
0C
04
00
00
ENDCHAR

STARTCHAR iacute
ENCODING 237
SWIDTH 443 0
DWIDTH 6 0
BBX 6 13 0 -2
BITMAP
00
00
00
10
30
F4
F4
F4
F4
30
10
00
00
ENDCHAR

STARTCHAR icircumflex
ENCODING 238
SWIDTH 443 0
DWIDTH 6 0
BBX 6 13 0 -2
BITMAP
00
00
00
10
7C
44
44
44
44
44
7C
00
00
ENDCHAR

STARTCHAR idieresis
ENCODING 239
SWIDTH 443 0
DWIDTH 6 0
BBX 6 13 0 -2
BITMAP
00
00
00
10
7C
44
44
54
54
44
7C
00
00
ENDCHAR

STARTCHAR eth
ENCODING 240
SWIDTH 443 0
DWIDTH 6 0
BBX 6 13 0 -2
BITMAP
00
00
00
10
7C
44
54
54
54
44
7C
00
00
ENDCHAR

STARTCHAR ntilde
ENCODING 241
SWIDTH 443 0
DWIDTH 6 0
BBX 6 13 0 -2
BITMAP
00
00
00
30
FC
84
84
84
84
84
FC
00
00
ENDCHAR

STARTCHAR ograve
ENCODING 242
SWIDTH 443 0
DWIDTH 6 0
BBX 6 13 0 -2
BITMAP
00
00
00
30
FC
84
A4
B4
B4
84
FC
00
00
ENDCHAR

STARTCHAR oacute
ENCODING 243
SWIDTH 443 0
DWIDTH 6 0
BBX 6 13 0 -2
BITMAP
00
00
00
30
FC
84
B4
B4
B4
84
FC
00
00
ENDCHAR

STARTCHAR ocircumflex
ENCODING 244
SWIDTH 443 0
DWIDTH 6 0
BBX 6 13 0 -2
BITMAP
00
00
00
00
00
F8
8C
8C
F8
00
00
00
00
ENDCHAR

STARTCHAR otilde
ENCODING 245
SWIDTH 443 0
DWIDTH 6 0
BBX 6 13 0 -2
BITMAP
00
00
00
EC
EC
EC
EC
00
B4
B4
B4
00
00
ENDCHAR

STARTCHAR odieresis
ENCODING 246
SWIDTH 443 0
DWIDTH 6 0
BBX 6 13 0 -2
BITMAP
00
00
00
EC
EC
E0
EC
0C
E0
EC
EC
00
00
ENDCHAR

STARTCHAR divide
ENCODING 247
SWIDTH 443 0
DWIDTH 6 0
BBX 6 13 0 -2
BITMAP
00
00
00
00
F8
88
AC
88
F8
00
00
00
00
ENDCHAR

STARTCHAR oslash
ENCODING 248
SWIDTH 443 0
DWIDTH 6 0
BBX 6 13 0 -2
BITMAP
00
00
00
DC
DC
DC
DC
00
D4
C4
D4
00
00
ENDCHAR

STARTCHAR ugrave
ENCODING 249
SWIDTH 443 0
DWIDTH 6 0
BBX 6 13 0 -2
BITMAP
00
00
00
DC
DC
DC
DC
00
D4
D0
D4
00
00
ENDCHAR

STARTCHAR uacute
ENCODING 250
SWIDTH 443 0
DWIDTH 6 0
BBX 6 13 0 -2
BITMAP
00
00
00
B4
B4
00
B4
B4
00
B4
B4
00
00
ENDCHAR

STARTCHAR ucircumflex
ENCODING 251
SWIDTH 443 0
DWIDTH 6 0
BBX 6 13 0 -2
BITMAP
00
00
00
FC
FC
FC
FC
00
FC
00
FC
00
00
ENDCHAR

STARTCHAR udieresis
ENCODING 252
SWIDTH 443 0
DWIDTH 6 0
BBX 6 13 0 -2
BITMAP
00
00
00
FC
FC
FC
FC
00
B4
B4
B4
00
00
ENDCHAR

STARTCHAR yacute
ENCODING 253
SWIDTH 443 0
DWIDTH 6 0
BBX 6 13 0 -2
BITMAP
00
00
00
EC
EC
EC
0C
FC
FC
FC
FC
00
00
ENDCHAR

STARTCHAR thorn
ENCODING 254
SWIDTH 443 0
DWIDTH 6 0
BBX 6 13 0 -2
BITMAP
00
00
00
EC
EC
E0
EC
EC
E0
EC
EC
00
00
ENDCHAR

STARTCHAR ydieresis
ENCODING 255
SWIDTH 443 0
DWIDTH 6 0
BBX 6 13 0 -2
BITMAP
00
00
00
FC
FC
FC
FC
FC
FC
FC
FC
00
00
ENDCHAR

ENDFONT
