STARTFONT 2.1
FONT -Misc-Ohsnapu-Bold-R-Normal--14-101-100-100-C-70-ISO10646-1
SIZE 10 100 100
FONTBOUNDINGBOX 7 14 0 -3

STARTPROPERTIES 24
FONTNAME_REGISTRY ""
FOUNDRY "Misc"
FAMILY_NAME "Ohsnapu"
WEIGHT_NAME "Bold"
SLANT "R"
SETWIDTH_NAME "Normal"
ADD_STYLE_NAME ""
PIXEL_SIZE 14
POINT_SIZE 101
RESOLUTION_X 100
RESOLUTION_Y 100
SPACING "C"
AVERAGE_WIDTH 70
CHARSET_REGISTRY "ISO10646"
CHARSET_ENCODING "1"
COPYRIGHT "GPLv2"
CAP_HEIGHT 8
X_HEIGHT 6
WEIGHT 10
QUAD_WIDTH 7
_GBDFED_INFO "Edited with gbdfed 1.6."
DEFAULT_CHAR 0
FONT_DESCENT 3
FONT_ASCENT 11
ENDPROPERTIES

CHARS 255

STARTCHAR char0
ENCODING 0
SWIDTH 360 0
DWIDTH 7 0
BBX 7 14 0 -3
BITMAP
00
00
00
7C
7C
7C
7C
7C
7C
7C
7C
00
00
00
ENDCHAR

STARTCHAR spacehackarabic
ENCODING 32
SWIDTH 360 0
DWIDTH 7 0
BBX 7 14 0 -3
BITMAP
00
00
00
00
00
00
00
00
00
00
00
00
00
00
ENDCHAR

STARTCHAR exclam
ENCODING 33
SWIDTH 360 0
DWIDTH 7 0
BBX 7 14 0 -3
BITMAP
00
00
00
30
30
30
30
30
00
30
30
00
00
00
ENDCHAR

STARTCHAR quotedbl
ENCODING 34
SWIDTH 360 0
DWIDTH 7 0
BBX 7 14 0 -3
BITMAP
00
00
D8
D8
D8
00
00
00
00
00
00
00
00
00
ENDCHAR

STARTCHAR numbersign
ENCODING 35
SWIDTH 360 0
DWIDTH 7 0
BBX 7 14 0 -3
BITMAP
00
00
00
6C
6C
FE
6C
6C
FE
6C
6C
00
00
00
ENDCHAR

STARTCHAR dollar
ENCODING 36
SWIDTH 360 0
DWIDTH 7 0
BBX 7 14 0 -3
BITMAP
00
00
30
30
FC
C0
FC
0C
0C
FC
30
30
00
00
ENDCHAR

STARTCHAR percent
ENCODING 37
SWIDTH 360 0
DWIDTH 7 0
BBX 7 14 0 -3
BITMAP
00
00
F0
D2
D4
F8
10
3E
5A
9A
1E
00
00
00
ENDCHAR

STARTCHAR ampersand
ENCODING 38
SWIDTH 360 0
DWIDTH 7 0
BBX 7 14 0 -3
BITMAP
00
00
00
F8
D8
D8
70
DC
D8
DC
F4
00
00
00
ENDCHAR

STARTCHAR quotesingle
ENCODING 39
SWIDTH 360 0
DWIDTH 7 0
BBX 7 14 0 -3
BITMAP
00
00
30
30
30
00
00
00
00
00
00
00
00
00
ENDCHAR

STARTCHAR parenleft
ENCODING 40
SWIDTH 360 0
DWIDTH 7 0
BBX 7 14 0 -3
BITMAP
00
00
18
30
60
60
60
60
60
60
30
18
00
00
ENDCHAR

STARTCHAR parenright
ENCODING 41
SWIDTH 360 0
DWIDTH 7 0
BBX 7 14 0 -3
BITMAP
00
00
60
30
18
18
18
18
18
18
30
60
00
00
ENDCHAR

STARTCHAR asterisk
ENCODING 42
SWIDTH 360 0
DWIDTH 7 0
BBX 7 14 0 -3
BITMAP
00
00
00
00
00
30
FC
78
FC
30
00
00
00
00
ENDCHAR

STARTCHAR plus
ENCODING 43
SWIDTH 360 0
DWIDTH 7 0
BBX 7 14 0 -3
BITMAP
00
00
00
00
00
30
30
FC
30
30
00
00
00
00
ENDCHAR

STARTCHAR comma
ENCODING 44
SWIDTH 360 0
DWIDTH 7 0
BBX 7 14 0 -3
BITMAP
00
00
00
00
00
00
00
00
00
30
30
10
20
00
ENDCHAR

STARTCHAR hyphen
ENCODING 45
SWIDTH 360 0
DWIDTH 7 0
BBX 7 14 0 -3
BITMAP
00
00
00
00
00
00
00
FC
00
00
00
00
00
00
ENDCHAR

STARTCHAR period
ENCODING 46
SWIDTH 360 0
DWIDTH 7 0
BBX 7 14 0 -3
BITMAP
00
00
00
00
00
00
00
00
00
30
30
00
00
00
ENDCHAR

STARTCHAR slash
ENCODING 47
SWIDTH 360 0
DWIDTH 7 0
BBX 7 14 0 -3
BITMAP
00
00
0C
0C
18
18
30
30
60
60
C0
C0
00
00
ENDCHAR

STARTCHAR zero
ENCODING 48
SWIDTH 360 0
DWIDTH 7 0
BBX 7 14 0 -3
BITMAP
00
00
00
FC
CC
DC
DC
EC
EC
CC
FC
00
00
00
ENDCHAR

STARTCHAR one
ENCODING 49
SWIDTH 360 0
DWIDTH 7 0
BBX 7 14 0 -3
BITMAP
00
00
00
18
38
78
18
18
18
18
18
00
00
00
ENDCHAR

STARTCHAR two
ENCODING 50
SWIDTH 360 0
DWIDTH 7 0
BBX 7 14 0 -3
BITMAP
00
00
00
FC
0C
0C
FC
C0
C0
C0
FC
00
00
00
ENDCHAR

STARTCHAR three
ENCODING 51
SWIDTH 360 0
DWIDTH 7 0
BBX 7 14 0 -3
BITMAP
00
00
00
FC
0C
0C
FC
0C
0C
0C
FC
00
00
00
ENDCHAR

STARTCHAR four
ENCODING 52
SWIDTH 360 0
DWIDTH 7 0
BBX 7 14 0 -3
BITMAP
00
00
00
CC
CC
CC
FC
0C
0C
0C
0C
00
00
00
ENDCHAR

STARTCHAR five
ENCODING 53
SWIDTH 360 0
DWIDTH 7 0
BBX 7 14 0 -3
BITMAP
00
00
00
FC
C0
C0
FC
0C
0C
0C
FC
00
00
00
ENDCHAR

STARTCHAR six
ENCODING 54
SWIDTH 360 0
DWIDTH 7 0
BBX 7 14 0 -3
BITMAP
00
00
00
FC
C0
C0
FC
CC
CC
CC
FC
00
00
00
ENDCHAR

STARTCHAR seven
ENCODING 55
SWIDTH 360 0
DWIDTH 7 0
BBX 7 14 0 -3
BITMAP
00
00
00
FC
0C
0C
0C
0C
0C
0C
0C
00
00
00
ENDCHAR

STARTCHAR eight
ENCODING 56
SWIDTH 360 0
DWIDTH 7 0
BBX 7 14 0 -3
BITMAP
00
00
00
FC
CC
CC
78
CC
CC
CC
FC
00
00
00
ENDCHAR

STARTCHAR nine
ENCODING 57
SWIDTH 360 0
DWIDTH 7 0
BBX 7 14 0 -3
BITMAP
00
00
00
FC
CC
CC
FC
0C
0C
0C
0C
00
00
00
ENDCHAR

STARTCHAR colon
ENCODING 58
SWIDTH 360 0
DWIDTH 7 0
BBX 7 14 0 -3
BITMAP
00
00
00
00
00
30
30
00
00
30
30
00
00
00
ENDCHAR

STARTCHAR semicolon
ENCODING 59
SWIDTH 360 0
DWIDTH 7 0
BBX 7 14 0 -3
BITMAP
00
00
00
00
00
30
30
00
00
30
30
10
20
00
ENDCHAR

STARTCHAR less
ENCODING 60
SWIDTH 360 0
DWIDTH 7 0
BBX 7 14 0 -3
BITMAP
00
00
00
00
18
30
60
C0
60
30
18
00
00
00
ENDCHAR

STARTCHAR equal
ENCODING 61
SWIDTH 360 0
DWIDTH 7 0
BBX 7 14 0 -3
BITMAP
00
00
00
00
00
00
FC
00
FC
00
00
00
00
00
ENDCHAR

STARTCHAR greater
ENCODING 62
SWIDTH 360 0
DWIDTH 7 0
BBX 7 14 0 -3
BITMAP
00
00
00
00
60
30
18
0C
18
30
60
00
00
00
ENDCHAR

STARTCHAR question
ENCODING 63
SWIDTH 360 0
DWIDTH 7 0
BBX 7 14 0 -3
BITMAP
00
00
00
FC
0C
0C
3C
30
00
30
30
00
00
00
ENDCHAR

STARTCHAR at
ENCODING 64
SWIDTH 360 0
DWIDTH 7 0
BBX 7 14 0 -3
BITMAP
00
00
00
FC
C4
C4
DC
DC
DC
DC
C0
FC
00
00
ENDCHAR

STARTCHAR A
ENCODING 65
SWIDTH 360 0
DWIDTH 7 0
BBX 7 14 0 -3
BITMAP
00
00
00
FC
CC
CC
FC
CC
CC
CC
CC
00
00
00
ENDCHAR

STARTCHAR B
ENCODING 66
SWIDTH 360 0
DWIDTH 7 0
BBX 7 14 0 -3
BITMAP
00
00
00
F8
D8
D8
FC
CC
CC
CC
FC
00
00
00
ENDCHAR

STARTCHAR C
ENCODING 67
SWIDTH 360 0
DWIDTH 7 0
BBX 7 14 0 -3
BITMAP
00
00
00
FC
C0
C0
C0
C0
C0
C0
FC
00
00
00
ENDCHAR

STARTCHAR D
ENCODING 68
SWIDTH 360 0
DWIDTH 7 0
BBX 7 14 0 -3
BITMAP
00
00
00
F8
CC
CC
CC
CC
CC
CC
F8
00
00
00
ENDCHAR

STARTCHAR E
ENCODING 69
SWIDTH 360 0
DWIDTH 7 0
BBX 7 14 0 -3
BITMAP
00
00
00
FC
C0
C0
FC
C0
C0
C0
FC
00
00
00
ENDCHAR

STARTCHAR F
ENCODING 70
SWIDTH 360 0
DWIDTH 7 0
BBX 7 14 0 -3
BITMAP
00
00
00
FC
C0
C0
FC
C0
C0
C0
C0
00
00
00
ENDCHAR

STARTCHAR G
ENCODING 71
SWIDTH 360 0
DWIDTH 7 0
BBX 7 14 0 -3
BITMAP
00
00
00
FC
C0
C0
DC
CC
CC
CC
FC
00
00
00
ENDCHAR

STARTCHAR H
ENCODING 72
SWIDTH 360 0
DWIDTH 7 0
BBX 7 14 0 -3
BITMAP
00
00
00
CC
CC
CC
FC
CC
CC
CC
CC
00
00
00
ENDCHAR

STARTCHAR I
ENCODING 73
SWIDTH 360 0
DWIDTH 7 0
BBX 7 14 0 -3
BITMAP
00
00
00
FC
30
30
30
30
30
30
FC
00
00
00
ENDCHAR

STARTCHAR J
ENCODING 74
SWIDTH 360 0
DWIDTH 7 0
BBX 7 14 0 -3
BITMAP
00
00
00
0C
0C
0C
0C
0C
0C
0C
FC
00
00
00
ENDCHAR

STARTCHAR K
ENCODING 75
SWIDTH 360 0
DWIDTH 7 0
BBX 7 14 0 -3
BITMAP
00
00
00
CC
D8
F0
E0
E0
F0
D8
CC
00
00
00
ENDCHAR

STARTCHAR L
ENCODING 76
SWIDTH 360 0
DWIDTH 7 0
BBX 7 14 0 -3
BITMAP
00
00
00
C0
C0
C0
C0
C0
C0
C0
FC
00
00
00
ENDCHAR

STARTCHAR M
ENCODING 77
SWIDTH 360 0
DWIDTH 7 0
BBX 7 14 0 -3
BITMAP
00
00
00
FC
D4
D4
D4
D4
D4
D4
D4
00
00
00
ENDCHAR

STARTCHAR N
ENCODING 78
SWIDTH 360 0
DWIDTH 7 0
BBX 7 14 0 -3
BITMAP
00
00
00
FC
CC
CC
CC
CC
CC
CC
CC
00
00
00
ENDCHAR

STARTCHAR O
ENCODING 79
SWIDTH 360 0
DWIDTH 7 0
BBX 7 14 0 -3
BITMAP
00
00
00
FC
CC
CC
CC
CC
CC
CC
FC
00
00
00
ENDCHAR

STARTCHAR P
ENCODING 80
SWIDTH 360 0
DWIDTH 7 0
BBX 7 14 0 -3
BITMAP
00
00
00
FC
CC
CC
FC
C0
C0
C0
C0
00
00
00
ENDCHAR

STARTCHAR Q
ENCODING 81
SWIDTH 360 0
DWIDTH 7 0
BBX 7 14 0 -3
BITMAP
00
00
00
FC
CC
CC
CC
CC
CC
CC
FC
06
00
00
ENDCHAR

STARTCHAR R
ENCODING 82
SWIDTH 360 0
DWIDTH 7 0
BBX 7 14 0 -3
BITMAP
00
00
00
FC
CC
CC
FC
F0
D8
CC
CC
00
00
00
ENDCHAR

STARTCHAR S
ENCODING 83
SWIDTH 360 0
DWIDTH 7 0
BBX 7 14 0 -3
BITMAP
00
00
00
FC
C0
C0
FC
0C
0C
0C
FC
00
00
00
ENDCHAR

STARTCHAR T
ENCODING 84
SWIDTH 360 0
DWIDTH 7 0
BBX 7 14 0 -3
BITMAP
00
00
00
FC
30
30
30
30
30
30
30
00
00
00
ENDCHAR

STARTCHAR U
ENCODING 85
SWIDTH 360 0
DWIDTH 7 0
BBX 7 14 0 -3
BITMAP
00
00
00
CC
CC
CC
CC
CC
CC
CC
FC
00
00
00
ENDCHAR

STARTCHAR V
ENCODING 86
SWIDTH 360 0
DWIDTH 7 0
BBX 7 14 0 -3
BITMAP
00
00
00
CC
CC
CC
CC
CC
CC
78
30
00
00
00
ENDCHAR

STARTCHAR W
ENCODING 87
SWIDTH 360 0
DWIDTH 7 0
BBX 7 14 0 -3
BITMAP
00
00
00
D4
D4
D4
D4
D4
D4
D4
FC
00
00
00
ENDCHAR

STARTCHAR X
ENCODING 88
SWIDTH 360 0
DWIDTH 7 0
BBX 7 14 0 -3
BITMAP
00
00
00
CC
CC
78
30
30
78
CC
CC
00
00
00
ENDCHAR

STARTCHAR Y
ENCODING 89
SWIDTH 360 0
DWIDTH 7 0
BBX 7 14 0 -3
BITMAP
00
00
00
CC
CC
CC
FC
30
30
30
30
00
00
00
ENDCHAR

STARTCHAR Z
ENCODING 90
SWIDTH 360 0
DWIDTH 7 0
BBX 7 14 0 -3
BITMAP
00
00
00
FC
0C
18
30
60
C0
C0
FC
00
00
00
ENDCHAR

STARTCHAR bracketleft
ENCODING 91
SWIDTH 360 0
DWIDTH 7 0
BBX 7 14 0 -3
BITMAP
00
00
78
60
60
60
60
60
60
60
60
78
00
00
ENDCHAR

STARTCHAR backslash
ENCODING 92
SWIDTH 360 0
DWIDTH 7 0
BBX 7 14 0 -3
BITMAP
00
00
C0
C0
60
60
30
30
18
18
0C
0C
00
00
ENDCHAR

STARTCHAR bracketright
ENCODING 93
SWIDTH 360 0
DWIDTH 7 0
BBX 7 14 0 -3
BITMAP
00
00
78
18
18
18
18
18
18
18
18
78
00
00
ENDCHAR

STARTCHAR asciicircum
ENCODING 94
SWIDTH 360 0
DWIDTH 7 0
BBX 7 14 0 -3
BITMAP
00
00
30
78
CC
00
00
00
00
00
00
00
00
00
ENDCHAR

STARTCHAR underscore
ENCODING 95
SWIDTH 360 0
DWIDTH 7 0
BBX 7 14 0 -3
BITMAP
00
00
00
00
00
00
00
00
00
00
00
FC
00
00
ENDCHAR

STARTCHAR grave
ENCODING 96
SWIDTH 360 0
DWIDTH 7 0
BBX 7 14 0 -3
BITMAP
00
00
60
30
18
00
00
00
00
00
00
00
00
00
ENDCHAR

STARTCHAR a
ENCODING 97
SWIDTH 360 0
DWIDTH 7 0
BBX 7 14 0 -3
BITMAP
00
00
00
00
00
FC
0C
FC
CC
CC
FC
00
00
00
ENDCHAR

STARTCHAR b
ENCODING 98
SWIDTH 360 0
DWIDTH 7 0
BBX 7 14 0 -3
BITMAP
00
00
00
C0
C0
FC
CC
CC
CC
CC
FC
00
00
00
ENDCHAR

STARTCHAR c
ENCODING 99
SWIDTH 360 0
DWIDTH 7 0
BBX 7 14 0 -3
BITMAP
00
00
00
00
00
FC
C0
C0
C0
C0
FC
00
00
00
ENDCHAR

STARTCHAR d
ENCODING 100
SWIDTH 360 0
DWIDTH 7 0
BBX 7 14 0 -3
BITMAP
00
00
00
0C
0C
FC
CC
CC
CC
CC
FC
00
00
00
ENDCHAR

STARTCHAR e
ENCODING 101
SWIDTH 360 0
DWIDTH 7 0
BBX 7 14 0 -3
BITMAP
00
00
00
00
00
FC
CC
FC
C0
C0
FC
00
00
00
ENDCHAR

STARTCHAR f
ENCODING 102
SWIDTH 360 0
DWIDTH 7 0
BBX 7 14 0 -3
BITMAP
00
00
00
7C
60
F8
60
60
60
60
60
00
00
00
ENDCHAR

STARTCHAR g
ENCODING 103
SWIDTH 360 0
DWIDTH 7 0
BBX 7 14 0 -3
BITMAP
00
00
00
00
00
FC
CC
CC
CC
CC
FC
0C
FC
00
ENDCHAR

STARTCHAR h
ENCODING 104
SWIDTH 360 0
DWIDTH 7 0
BBX 7 14 0 -3
BITMAP
00
00
00
C0
C0
FC
CC
CC
CC
CC
CC
00
00
00
ENDCHAR

STARTCHAR i
ENCODING 105
SWIDTH 360 0
DWIDTH 7 0
BBX 7 14 0 -3
BITMAP
00
00
30
30
00
F0
30
30
30
30
3C
00
00
00
ENDCHAR

STARTCHAR j
ENCODING 106
SWIDTH 360 0
DWIDTH 7 0
BBX 7 14 0 -3
BITMAP
00
00
18
18
00
18
18
18
18
18
18
18
F8
00
ENDCHAR

STARTCHAR k
ENCODING 107
SWIDTH 360 0
DWIDTH 7 0
BBX 7 14 0 -3
BITMAP
00
00
00
C0
C0
D8
F0
E0
F0
D8
CC
00
00
00
ENDCHAR

STARTCHAR l
ENCODING 108
SWIDTH 360 0
DWIDTH 7 0
BBX 7 14 0 -3
BITMAP
00
00
00
F0
30
30
30
30
30
30
3C
00
00
00
ENDCHAR

STARTCHAR m
ENCODING 109
SWIDTH 360 0
DWIDTH 7 0
BBX 7 14 0 -3
BITMAP
00
00
00
00
00
FC
D4
D4
D4
D4
D4
00
00
00
ENDCHAR

STARTCHAR n
ENCODING 110
SWIDTH 360 0
DWIDTH 7 0
BBX 7 14 0 -3
BITMAP
00
00
00
00
00
FC
CC
CC
CC
CC
CC
00
00
00
ENDCHAR

STARTCHAR o
ENCODING 111
SWIDTH 360 0
DWIDTH 7 0
BBX 7 14 0 -3
BITMAP
00
00
00
00
00
FC
CC
CC
CC
CC
FC
00
00
00
ENDCHAR

STARTCHAR p
ENCODING 112
SWIDTH 360 0
DWIDTH 7 0
BBX 7 14 0 -3
BITMAP
00
00
00
00
00
FC
CC
CC
CC
CC
FC
C0
C0
00
ENDCHAR

STARTCHAR q
ENCODING 113
SWIDTH 360 0
DWIDTH 7 0
BBX 7 14 0 -3
BITMAP
00
00
00
00
00
FC
CC
CC
CC
CC
FC
0C
0C
00
ENDCHAR

STARTCHAR r
ENCODING 114
SWIDTH 360 0
DWIDTH 7 0
BBX 7 14 0 -3
BITMAP
00
00
00
00
00
FC
C0
C0
C0
C0
C0
00
00
00
ENDCHAR

STARTCHAR s
ENCODING 115
SWIDTH 360 0
DWIDTH 7 0
BBX 7 14 0 -3
BITMAP
00
00
00
00
00
FC
C0
FC
0C
0C
FC
00
00
00
ENDCHAR

STARTCHAR t
ENCODING 116
SWIDTH 360 0
DWIDTH 7 0
BBX 7 14 0 -3
BITMAP
00
00
00
60
60
F8
60
60
60
60
7C
00
00
00
ENDCHAR

STARTCHAR u
ENCODING 117
SWIDTH 360 0
DWIDTH 7 0
BBX 7 14 0 -3
BITMAP
00
00
00
00
00
CC
CC
CC
CC
CC
FC
00
00
00
ENDCHAR

STARTCHAR v
ENCODING 118
SWIDTH 360 0
DWIDTH 7 0
BBX 7 14 0 -3
BITMAP
00
00
00
00
00
CC
CC
CC
CC
78
30
00
00
00
ENDCHAR

STARTCHAR w
ENCODING 119
SWIDTH 360 0
DWIDTH 7 0
BBX 7 14 0 -3
BITMAP
00
00
00
00
00
D4
D4
D4
D4
D4
FC
00
00
00
ENDCHAR

STARTCHAR x
ENCODING 120
SWIDTH 360 0
DWIDTH 7 0
BBX 7 14 0 -3
BITMAP
00
00
00
00
00
CC
78
30
30
78
CC
00
00
00
ENDCHAR

STARTCHAR y
ENCODING 121
SWIDTH 360 0
DWIDTH 7 0
BBX 7 14 0 -3
BITMAP
00
00
00
00
00
CC
CC
CC
CC
CC
FC
0C
FC
00
ENDCHAR

STARTCHAR z
ENCODING 122
SWIDTH 360 0
DWIDTH 7 0
BBX 7 14 0 -3
BITMAP
00
00
00
00
00
FC
18
30
60
C0
FC
00
00
00
ENDCHAR

STARTCHAR braceleft
ENCODING 123
SWIDTH 360 0
DWIDTH 7 0
BBX 7 14 0 -3
BITMAP
00
00
78
60
60
60
C0
60
60
60
60
78
00
00
ENDCHAR

STARTCHAR bar
ENCODING 124
SWIDTH 360 0
DWIDTH 7 0
BBX 7 14 0 -3
BITMAP
00
00
30
30
30
30
30
30
30
30
30
30
00
00
ENDCHAR

STARTCHAR braceright
ENCODING 125
SWIDTH 360 0
DWIDTH 7 0
BBX 7 14 0 -3
BITMAP
00
00
78
18
18
18
0C
18
18
18
18
78
00
00
ENDCHAR

STARTCHAR asciitilde
ENCODING 126
SWIDTH 360 0
DWIDTH 7 0
BBX 7 14 0 -3
BITMAP
00
00
74
54
5C
00
00
00
00
00
00
00
00
00
ENDCHAR

STARTCHAR nonbreakingspace
ENCODING 160
SWIDTH 360 0
DWIDTH 7 0
BBX 7 14 0 -3
BITMAP
00
00
00
00
00
00
00
00
00
00
00
00
00
00
ENDCHAR

STARTCHAR exclamdown
ENCODING 161
SWIDTH 360 0
DWIDTH 7 0
BBX 7 14 0 -3
BITMAP
00
00
00
30
30
00
30
30
30
30
30
00
00
00
ENDCHAR

STARTCHAR cent
ENCODING 162
SWIDTH 360 0
DWIDTH 7 0
BBX 7 14 0 -3
BITMAP
00
00
00
00
10
FC
D0
D0
D0
D0
FC
10
00
00
ENDCHAR

STARTCHAR sterling
ENCODING 163
SWIDTH 360 0
DWIDTH 7 0
BBX 7 14 0 -3
BITMAP
00
00
00
7C
60
60
F8
60
60
60
FC
00
00
00
ENDCHAR

STARTCHAR currency
ENCODING 164
SWIDTH 360 0
DWIDTH 7 0
BBX 7 14 0 -3
BITMAP
00
00
00
00
00
CC
78
48
48
78
CC
00
00
00
ENDCHAR

STARTCHAR yen
ENCODING 165
SWIDTH 360 0
DWIDTH 7 0
BBX 7 14 0 -3
BITMAP
00
00
00
CC
CC
FC
30
FC
30
FC
30
00
00
00
ENDCHAR

STARTCHAR brokenbar
ENCODING 166
SWIDTH 360 0
DWIDTH 7 0
BBX 7 14 0 -3
BITMAP
00
00
00
30
30
30
00
00
30
30
30
00
00
00
ENDCHAR

STARTCHAR section
ENCODING 167
SWIDTH 360 0
DWIDTH 7 0
BBX 7 14 0 -3
BITMAP
00
00
00
FC
C0
FC
CC
CC
FC
0C
FC
00
00
00
ENDCHAR

STARTCHAR dieresis
ENCODING 168
SWIDTH 360 0
DWIDTH 7 0
BBX 7 14 0 -3
BITMAP
48
48
00
00
00
00
00
00
00
00
00
00
00
00
ENDCHAR

STARTCHAR copyright
ENCODING 169
SWIDTH 360 0
DWIDTH 7 0
BBX 7 14 0 -3
BITMAP
00
00
00
FC
84
B4
A4
A4
B4
84
FC
00
00
00
ENDCHAR

STARTCHAR ordfeminine
ENCODING 170
SWIDTH 360 0
DWIDTH 7 0
BBX 7 14 0 -3
BITMAP
00
00
7C
0C
7C
6C
7C
00
7C
00
00
00
00
00
ENDCHAR

STARTCHAR guillemotleft
ENCODING 171
SWIDTH 360 0
DWIDTH 7 0
BBX 7 14 0 -3
BITMAP
00
00
00
00
14
28
50
A0
50
28
14
00
00
00
ENDCHAR

STARTCHAR logicalnot
ENCODING 172
SWIDTH 360 0
DWIDTH 7 0
BBX 7 14 0 -3
BITMAP
00
00
00
00
00
00
FC
0C
0C
00
00
00
00
00
ENDCHAR

STARTCHAR softhyphen
ENCODING 173
SWIDTH 360 0
DWIDTH 7 0
BBX 7 14 0 -3
BITMAP
00
00
00
00
00
00
00
78
00
00
00
00
00
00
ENDCHAR

STARTCHAR registered
ENCODING 174
SWIDTH 360 0
DWIDTH 7 0
BBX 7 14 0 -3
BITMAP
00
00
00
FC
84
B4
A4
A4
A4
84
FC
00
00
00
ENDCHAR

STARTCHAR macron
ENCODING 175
SWIDTH 360 0
DWIDTH 7 0
BBX 7 14 0 -3
BITMAP
00
78
00
00
00
00
00
00
00
00
00
00
00
00
ENDCHAR

STARTCHAR degree
ENCODING 176
SWIDTH 360 0
DWIDTH 7 0
BBX 7 14 0 -3
BITMAP
00
00
78
68
68
78
00
00
00
00
00
00
00
00
ENDCHAR

STARTCHAR plusminus
ENCODING 177
SWIDTH 360 0
DWIDTH 7 0
BBX 7 14 0 -3
BITMAP
00
00
00
00
30
30
FC
30
30
00
FC
00
00
00
ENDCHAR

STARTCHAR twosuperior
ENCODING 178
SWIDTH 360 0
DWIDTH 7 0
BBX 7 14 0 -3
BITMAP
00
00
78
18
78
60
78
00
00
00
00
00
00
00
ENDCHAR

STARTCHAR threesuperior
ENCODING 179
SWIDTH 360 0
DWIDTH 7 0
BBX 7 14 0 -3
BITMAP
00
00
78
18
78
18
78
00
00
00
00
00
00
00
ENDCHAR

STARTCHAR acute
ENCODING 180
SWIDTH 360 0
DWIDTH 7 0
BBX 7 14 0 -3
BITMAP
08
10
00
00
00
00
00
00
00
00
00
00
00
00
ENDCHAR

STARTCHAR mu1
ENCODING 181
SWIDTH 360 0
DWIDTH 7 0
BBX 7 14 0 -3
BITMAP
00
00
00
00
00
CC
CC
CC
CC
CC
FC
C0
C0
00
ENDCHAR

STARTCHAR paragraph
ENCODING 182
SWIDTH 360 0
DWIDTH 7 0
BBX 7 14 0 -3
BITMAP
00
00
00
FC
F4
F4
F4
34
34
34
34
00
00
00
ENDCHAR

STARTCHAR middot
ENCODING 183
SWIDTH 360 0
DWIDTH 7 0
BBX 7 14 0 -3
BITMAP
00
00
00
00
00
30
30
00
00
00
00
00
00
00
ENDCHAR

STARTCHAR cedilla
ENCODING 184
SWIDTH 360 0
DWIDTH 7 0
BBX 7 14 0 -3
BITMAP
00
00
00
00
00
00
00
00
00
00
10
10
20
00
ENDCHAR

STARTCHAR onesuperior
ENCODING 185
SWIDTH 360 0
DWIDTH 7 0
BBX 7 14 0 -3
BITMAP
00
00
30
70
30
30
30
00
00
00
00
00
00
00
ENDCHAR

STARTCHAR ordmasculine
ENCODING 186
SWIDTH 360 0
DWIDTH 7 0
BBX 7 14 0 -3
BITMAP
00
00
7C
6C
6C
6C
7C
00
7C
00
00
00
00
00
ENDCHAR

STARTCHAR guillemotright
ENCODING 187
SWIDTH 360 0
DWIDTH 7 0
BBX 7 14 0 -3
BITMAP
00
00
00
00
A0
50
28
14
28
50
A0
00
00
00
ENDCHAR

STARTCHAR onequarter
ENCODING 188
SWIDTH 360 0
DWIDTH 7 0
BBX 7 14 0 -3
BITMAP
60
E0
60
64
68
10
20
76
B6
3E
06
06
00
00
ENDCHAR

STARTCHAR onehalf
ENCODING 189
SWIDTH 360 0
DWIDTH 7 0
BBX 7 14 0 -3
BITMAP
60
E0
60
64
68
10
20
5E
86
1E
18
1E
00
00
ENDCHAR

STARTCHAR threequarters
ENCODING 190
SWIDTH 360 0
DWIDTH 7 0
BBX 7 14 0 -3
BITMAP
F0
30
F0
34
F8
10
20
76
B6
3E
06
06
00
00
ENDCHAR

STARTCHAR questiondown
ENCODING 191
SWIDTH 360 0
DWIDTH 7 0
BBX 7 14 0 -3
BITMAP
00
00
00
30
30
00
30
F0
C0
C0
FC
00
00
00
ENDCHAR

STARTCHAR Agrave
ENCODING 192
SWIDTH 360 0
DWIDTH 7 0
BBX 7 14 0 -3
BITMAP
40
20
00
FC
CC
CC
FC
CC
CC
CC
CC
00
00
00
ENDCHAR

STARTCHAR Aacute
ENCODING 193
SWIDTH 360 0
DWIDTH 7 0
BBX 7 14 0 -3
BITMAP
08
10
00
FC
CC
CC
FC
CC
CC
CC
CC
00
00
00
ENDCHAR

STARTCHAR Acircumflex
ENCODING 194
SWIDTH 360 0
DWIDTH 7 0
BBX 7 14 0 -3
BITMAP
30
48
00
FC
CC
CC
FC
CC
CC
CC
CC
00
00
00
ENDCHAR

STARTCHAR Atilde
ENCODING 195
SWIDTH 360 0
DWIDTH 7 0
BBX 7 14 0 -3
BITMAP
28
50
00
FC
CC
CC
FC
CC
CC
CC
CC
00
00
00
ENDCHAR

STARTCHAR Adieresis
ENCODING 196
SWIDTH 360 0
DWIDTH 7 0
BBX 7 14 0 -3
BITMAP
48
48
00
FC
CC
CC
FC
CC
CC
CC
CC
00
00
00
ENDCHAR

STARTCHAR Aring
ENCODING 197
SWIDTH 360 0
DWIDTH 7 0
BBX 7 14 0 -3
BITMAP
30
48
30
FC
CC
CC
FC
CC
CC
CC
CC
00
00
00
ENDCHAR

STARTCHAR AE
ENCODING 198
SWIDTH 360 0
DWIDTH 7 0
BBX 7 14 0 -3
BITMAP
00
00
00
FC
D8
D8
FC
D8
D8
D8
DC
00
00
00
ENDCHAR

STARTCHAR Ccedilla
ENCODING 199
SWIDTH 360 0
DWIDTH 7 0
BBX 7 14 0 -3
BITMAP
00
00
00
FC
C0
C0
C0
C0
C0
C0
FC
10
20
00
ENDCHAR

STARTCHAR Egrave
ENCODING 200
SWIDTH 360 0
DWIDTH 7 0
BBX 7 14 0 -3
BITMAP
40
20
00
FC
C0
C0
FC
C0
C0
C0
FC
00
00
00
ENDCHAR

STARTCHAR Eacute
ENCODING 201
SWIDTH 360 0
DWIDTH 7 0
BBX 7 14 0 -3
BITMAP
08
10
00
FC
C0
C0
FC
C0
C0
C0
FC
00
00
00
ENDCHAR

STARTCHAR Ecircumflex
ENCODING 202
SWIDTH 360 0
DWIDTH 7 0
BBX 7 14 0 -3
BITMAP
30
48
00
FC
C0
C0
FC
C0
C0
C0
FC
00
00
00
ENDCHAR

STARTCHAR Edieresis
ENCODING 203
SWIDTH 360 0
DWIDTH 7 0
BBX 7 14 0 -3
BITMAP
48
48
00
FC
C0
C0
FC
C0
C0
C0
FC
00
00
00
ENDCHAR

STARTCHAR Igrave
ENCODING 204
SWIDTH 360 0
DWIDTH 7 0
BBX 7 14 0 -3
BITMAP
40
20
00
FC
30
30
30
30
30
30
FC
00
00
00
ENDCHAR

STARTCHAR Iacute
ENCODING 205
SWIDTH 360 0
DWIDTH 7 0
BBX 7 14 0 -3
BITMAP
08
10
00
FC
30
30
30
30
30
30
FC
00
00
00
ENDCHAR

STARTCHAR Icircumflex
ENCODING 206
SWIDTH 360 0
DWIDTH 7 0
BBX 7 14 0 -3
BITMAP
30
48
00
FC
30
30
30
30
30
30
FC
00
00
00
ENDCHAR

STARTCHAR Idieresis
ENCODING 207
SWIDTH 360 0
DWIDTH 7 0
BBX 7 14 0 -3
BITMAP
48
48
00
FC
30
30
30
30
30
30
FC
00
00
00
ENDCHAR

STARTCHAR Eth
ENCODING 208
SWIDTH 360 0
DWIDTH 7 0
BBX 7 14 0 -3
BITMAP
00
00
00
F8
CC
CC
EC
CC
CC
CC
F8
00
00
00
ENDCHAR

STARTCHAR Ntilde
ENCODING 209
SWIDTH 360 0
DWIDTH 7 0
BBX 7 14 0 -3
BITMAP
28
50
00
FC
CC
CC
CC
CC
CC
CC
CC
00
00
00
ENDCHAR

STARTCHAR Ograve
ENCODING 210
SWIDTH 360 0
DWIDTH 7 0
BBX 7 14 0 -3
BITMAP
40
20
00
FC
CC
CC
CC
CC
CC
CC
FC
00
00
00
ENDCHAR

STARTCHAR Oacute
ENCODING 211
SWIDTH 360 0
DWIDTH 7 0
BBX 7 14 0 -3
BITMAP
08
10
00
FC
CC
CC
CC
CC
CC
CC
FC
00
00
00
ENDCHAR

STARTCHAR Ocircumflex
ENCODING 212
SWIDTH 360 0
DWIDTH 7 0
BBX 7 14 0 -3
BITMAP
30
48
00
FC
CC
CC
CC
CC
CC
CC
FC
00
00
00
ENDCHAR

STARTCHAR Otilde
ENCODING 213
SWIDTH 360 0
DWIDTH 7 0
BBX 7 14 0 -3
BITMAP
28
50
00
FC
CC
CC
CC
CC
CC
CC
FC
00
00
00
ENDCHAR

STARTCHAR Odieresis
ENCODING 214
SWIDTH 360 0
DWIDTH 7 0
BBX 7 14 0 -3
BITMAP
48
48
00
FC
CC
CC
CC
CC
CC
CC
FC
00
00
00
ENDCHAR

STARTCHAR multiply
ENCODING 215
SWIDTH 360 0
DWIDTH 7 0
BBX 7 14 0 -3
BITMAP
00
00
00
00
00
CC
78
30
78
CC
00
00
00
00
ENDCHAR

STARTCHAR Oslash
ENCODING 216
SWIDTH 360 0
DWIDTH 7 0
BBX 7 14 0 -3
BITMAP
00
00
00
FE
CC
CC
DC
EC
CC
CC
FC
00
00
00
ENDCHAR

STARTCHAR Ugrave
ENCODING 217
SWIDTH 360 0
DWIDTH 7 0
BBX 7 14 0 -3
BITMAP
40
20
00
CC
CC
CC
CC
CC
CC
CC
FC
00
00
00
ENDCHAR

STARTCHAR Uacute
ENCODING 218
SWIDTH 360 0
DWIDTH 7 0
BBX 7 14 0 -3
BITMAP
08
10
00
CC
CC
CC
CC
CC
CC
CC
FC
00
00
00
ENDCHAR

STARTCHAR Ucircumflex
ENCODING 219
SWIDTH 360 0
DWIDTH 7 0
BBX 7 14 0 -3
BITMAP
30
48
00
CC
CC
CC
CC
CC
CC
CC
FC
00
00
00
ENDCHAR

STARTCHAR Udieresis
ENCODING 220
SWIDTH 360 0
DWIDTH 7 0
BBX 7 14 0 -3
BITMAP
48
48
00
CC
CC
CC
CC
CC
CC
CC
FC
00
00
00
ENDCHAR

STARTCHAR Yacute
ENCODING 221
SWIDTH 360 0
DWIDTH 7 0
BBX 7 14 0 -3
BITMAP
08
10
00
CC
CC
CC
FC
30
30
30
30
00
00
00
ENDCHAR

STARTCHAR Thorn
ENCODING 222
SWIDTH 360 0
DWIDTH 7 0
BBX 7 14 0 -3
BITMAP
00
00
00
C0
FC
CC
CC
CC
CC
FC
C0
00
00
00
ENDCHAR

STARTCHAR germandbls
ENCODING 223
SWIDTH 360 0
DWIDTH 7 0
BBX 7 14 0 -3
BITMAP
00
00
00
F8
D8
FC
CC
CC
CC
CC
BC
00
00
00
ENDCHAR

STARTCHAR agrave
ENCODING 224
SWIDTH 360 0
DWIDTH 7 0
BBX 7 14 0 -3
BITMAP
00
00
40
20
00
FC
0C
FC
CC
CC
FC
00
00
00
ENDCHAR

STARTCHAR aacute
ENCODING 225
SWIDTH 360 0
DWIDTH 7 0
BBX 7 14 0 -3
BITMAP
00
00
08
10
00
FC
0C
FC
CC
CC
FC
00
00
00
ENDCHAR

STARTCHAR acircumflex
ENCODING 226
SWIDTH 360 0
DWIDTH 7 0
BBX 7 14 0 -3
BITMAP
00
00
30
48
00
FC
0C
FC
CC
CC
FC
00
00
00
ENDCHAR

STARTCHAR atilde
ENCODING 227
SWIDTH 360 0
DWIDTH 7 0
BBX 7 14 0 -3
BITMAP
00
00
28
50
00
FC
0C
FC
CC
CC
FC
00
00
00
ENDCHAR

STARTCHAR adieresis
ENCODING 228
SWIDTH 360 0
DWIDTH 7 0
BBX 7 14 0 -3
BITMAP
00
00
48
48
00
FC
0C
FC
CC
CC
FC
00
00
00
ENDCHAR

STARTCHAR aring
ENCODING 229
SWIDTH 360 0
DWIDTH 7 0
BBX 7 14 0 -3
BITMAP
00
30
48
30
00
FC
0C
FC
CC
CC
FC
00
00
00
ENDCHAR

STARTCHAR ae
ENCODING 230
SWIDTH 360 0
DWIDTH 7 0
BBX 7 14 0 -3
BITMAP
00
00
00
00
00
FC
34
FC
B0
B0
FC
00
00
00
ENDCHAR

STARTCHAR ccedilla
ENCODING 231
SWIDTH 360 0
DWIDTH 7 0
BBX 7 14 0 -3
BITMAP
00
00
00
00
00
FC
C0
C0
C0
C0
FC
10
20
00
ENDCHAR

STARTCHAR egrave
ENCODING 232
SWIDTH 360 0
DWIDTH 7 0
BBX 7 14 0 -3
BITMAP
00
00
40
20
00
FC
CC
FC
C0
C0
FC
00
00
00
ENDCHAR

STARTCHAR eacute
ENCODING 233
SWIDTH 360 0
DWIDTH 7 0
BBX 7 14 0 -3
BITMAP
00
00
08
10
00
FC
CC
FC
C0
C0
FC
00
00
00
ENDCHAR

STARTCHAR ecircumflex
ENCODING 234
SWIDTH 360 0
DWIDTH 7 0
BBX 7 14 0 -3
BITMAP
00
00
30
48
00
FC
CC
FC
C0
C0
FC
00
00
00
ENDCHAR

STARTCHAR edieresis
ENCODING 235
SWIDTH 360 0
DWIDTH 7 0
BBX 7 14 0 -3
BITMAP
00
00
48
48
00
FC
CC
FC
C0
C0
FC
00
00
00
ENDCHAR

STARTCHAR igrave
ENCODING 236
SWIDTH 360 0
DWIDTH 7 0
BBX 7 14 0 -3
BITMAP
00
00
40
20
00
F0
30
30
30
30
3C
00
00
00
ENDCHAR

STARTCHAR iacute
ENCODING 237
SWIDTH 360 0
DWIDTH 7 0
BBX 7 14 0 -3
BITMAP
00
00
08
10
00
F0
30
30
30
30
3C
00
00
00
ENDCHAR

STARTCHAR icircumflex
ENCODING 238
SWIDTH 360 0
DWIDTH 7 0
BBX 7 14 0 -3
BITMAP
00
00
30
48
00
F0
30
30
30
30
3C
00
00
00
ENDCHAR

STARTCHAR idieresis
ENCODING 239
SWIDTH 360 0
DWIDTH 7 0
BBX 7 14 0 -3
BITMAP
00
00
48
48
00
F0
30
30
30
30
3C
00
00
00
ENDCHAR

STARTCHAR eth
ENCODING 240
SWIDTH 360 0
DWIDTH 7 0
BBX 7 14 0 -3
BITMAP
00
A0
40
A0
00
FC
CC
CC
CC
CC
FC
00
00
00
ENDCHAR

STARTCHAR ntilde
ENCODING 241
SWIDTH 360 0
DWIDTH 7 0
BBX 7 14 0 -3
BITMAP
00
00
28
50
00
FC
CC
CC
CC
CC
CC
00
00
00
ENDCHAR

STARTCHAR ograve
ENCODING 242
SWIDTH 360 0
DWIDTH 7 0
BBX 7 14 0 -3
BITMAP
00
00
40
20
00
FC
CC
CC
CC
CC
FC
00
00
00
ENDCHAR

STARTCHAR oacute
ENCODING 243
SWIDTH 360 0
DWIDTH 7 0
BBX 7 14 0 -3
BITMAP
00
00
08
10
00
FC
CC
CC
CC
CC
FC
00
00
00
ENDCHAR

STARTCHAR ocircumflex
ENCODING 244
SWIDTH 360 0
DWIDTH 7 0
BBX 7 14 0 -3
BITMAP
00
00
30
48
00
FC
CC
CC
CC
CC
FC
00
00
00
ENDCHAR

STARTCHAR otilde
ENCODING 245
SWIDTH 360 0
DWIDTH 7 0
BBX 7 14 0 -3
BITMAP
00
00
28
50
00
FC
CC
CC
CC
CC
FC
00
00
00
ENDCHAR

STARTCHAR odieresis
ENCODING 246
SWIDTH 360 0
DWIDTH 7 0
BBX 7 14 0 -3
BITMAP
00
00
48
48
00
FC
CC
CC
CC
CC
FC
00
00
00
ENDCHAR

STARTCHAR divide
ENCODING 247
SWIDTH 360 0
DWIDTH 7 0
BBX 7 14 0 -3
BITMAP
00
00
00
00
30
30
00
FC
00
30
30
00
00
00
ENDCHAR

STARTCHAR oslash
ENCODING 248
SWIDTH 360 0
DWIDTH 7 0
BBX 7 14 0 -3
BITMAP
00
00
00
00
00
FE
CC
DC
EC
CC
FC
00
00
00
ENDCHAR

STARTCHAR ugrave
ENCODING 249
SWIDTH 360 0
DWIDTH 7 0
BBX 7 14 0 -3
BITMAP
00
00
40
20
00
CC
CC
CC
CC
CC
FC
00
00
00
ENDCHAR

STARTCHAR uacute
ENCODING 250
SWIDTH 360 0
DWIDTH 7 0
BBX 7 14 0 -3
BITMAP
00
00
08
10
00
CC
CC
CC
CC
CC
FC
00
00
00
ENDCHAR

STARTCHAR ucircumflex
ENCODING 251
SWIDTH 360 0
DWIDTH 7 0
BBX 7 14 0 -3
BITMAP
00
00
30
48
00
CC
CC
CC
CC
CC
FC
00
00
00
ENDCHAR

STARTCHAR udieresis
ENCODING 252
SWIDTH 360 0
DWIDTH 7 0
BBX 7 14 0 -3
BITMAP
00
00
48
48
00
CC
CC
CC
CC
CC
FC
00
00
00
ENDCHAR

STARTCHAR yacute
ENCODING 253
SWIDTH 360 0
DWIDTH 7 0
BBX 7 14 0 -3
BITMAP
00
00
08
10
00
CC
CC
CC
CC
CC
FC
0C
FC
00
ENDCHAR

STARTCHAR thorn
ENCODING 254
SWIDTH 360 0
DWIDTH 7 0
BBX 7 14 0 -3
BITMAP
00
00
00
C0
C0
FC
CC
CC
CC
CC
FC
C0
C0
00
ENDCHAR

STARTCHAR ydieresis
ENCODING 255
SWIDTH 360 0
DWIDTH 7 0
BBX 7 14 0 -3
BITMAP
00
00
48
48
00
CC
CC
CC
CC
CC
FC
0C
FC
00
ENDCHAR

STARTCHAR OE
ENCODING 338
SWIDTH 360 0
DWIDTH 7 0
BBX 7 14 0 -3
BITMAP
00
00
00
FC
D8
D8
DC
D8
D8
D8
FC
00
00
00
ENDCHAR

STARTCHAR oe
ENCODING 339
SWIDTH 360 0
DWIDTH 7 0
BBX 7 14 0 -3
BITMAP
00
00
00
00
00
FC
B4
BC
B0
B0
FC
00
00
00
ENDCHAR

STARTCHAR Scaron
ENCODING 352
SWIDTH 360 0
DWIDTH 7 0
BBX 7 14 0 -3
BITMAP
48
30
00
FC
C0
C0
FC
0C
0C
0C
FC
00
00
00
ENDCHAR

STARTCHAR scaron
ENCODING 353
SWIDTH 360 0
DWIDTH 7 0
BBX 7 14 0 -3
BITMAP
00
00
48
30
00
FC
C0
FC
0C
0C
FC
00
00
00
ENDCHAR

STARTCHAR Ydieresis
ENCODING 376
SWIDTH 360 0
DWIDTH 7 0
BBX 7 14 0 -3
BITMAP
48
48
00
CC
CC
CC
FC
30
30
30
30
00
00
00
ENDCHAR

STARTCHAR Zcaron
ENCODING 381
SWIDTH 360 0
DWIDTH 7 0
BBX 7 14 0 -3
BITMAP
48
30
00
FC
0C
18
30
60
C0
C0
FC
00
00
00
ENDCHAR

STARTCHAR zcaron
ENCODING 382
SWIDTH 360 0
DWIDTH 7 0
BBX 7 14 0 -3
BITMAP
00
00
48
30
00
FC
18
30
60
C0
FC
00
00
00
ENDCHAR

STARTCHAR florin
ENCODING 402
SWIDTH 360 0
DWIDTH 7 0
BBX 7 14 0 -3
BITMAP
00
00
00
3C
30
30
FC
30
30
30
F0
00
00
00
ENDCHAR

STARTCHAR circumflex
ENCODING 710
SWIDTH 360 0
DWIDTH 7 0
BBX 7 14 0 -3
BITMAP
30
48
00
00
00
00
00
00
00
00
00
00
00
00
ENDCHAR

STARTCHAR caron
ENCODING 711
SWIDTH 360 0
DWIDTH 7 0
BBX 7 14 0 -3
BITMAP
48
30
00
00
00
00
00
00
00
00
00
00
00
00
ENDCHAR

STARTCHAR breve
ENCODING 728
SWIDTH 360 0
DWIDTH 7 0
BBX 7 14 0 -3
BITMAP
48
30
00
00
00
00
00
00
00
00
00
00
00
00
ENDCHAR

STARTCHAR dotaccent
ENCODING 729
SWIDTH 360 0
DWIDTH 7 0
BBX 7 14 0 -3
BITMAP
10
10
00
00
00
00
00
00
00
00
00
00
00
00
ENDCHAR

STARTCHAR tilde
ENCODING 732
SWIDTH 360 0
DWIDTH 7 0
BBX 7 14 0 -3
BITMAP
28
50
00
00
00
00
00
00
00
00
00
00
00
00
ENDCHAR

STARTCHAR hungarumlaut
ENCODING 733
SWIDTH 360 0
DWIDTH 7 0
BBX 7 14 0 -3
BITMAP
28
50
00
00
00
00
00
00
00
00
00
00
00
00
ENDCHAR

STARTCHAR pi
ENCODING 960
SWIDTH 360 0
DWIDTH 7 0
BBX 7 14 0 -3
BITMAP
00
00
00
00
FC
CC
CC
CC
CC
CC
00
00
00
00
ENDCHAR

STARTCHAR endash
ENCODING 8211
SWIDTH 360 0
DWIDTH 7 0
BBX 7 14 0 -3
BITMAP
00
00
00
00
00
00
00
FC
00
00
00
00
00
00
ENDCHAR

STARTCHAR emdash
ENCODING 8212
SWIDTH 360 0
DWIDTH 7 0
BBX 7 14 0 -3
BITMAP
00
00
00
00
00
00
00
FC
00
00
00
00
00
00
ENDCHAR

STARTCHAR quoteleft
ENCODING 8216
SWIDTH 360 0
DWIDTH 7 0
BBX 7 14 0 -3
BITMAP
00
00
10
20
30
30
00
00
00
00
00
00
00
00
ENDCHAR

STARTCHAR quoteright
ENCODING 8217
SWIDTH 360 0
DWIDTH 7 0
BBX 7 14 0 -3
BITMAP
00
00
30
30
10
20
00
00
00
00
00
00
00
00
ENDCHAR

STARTCHAR quotesinglbase
ENCODING 8218
SWIDTH 360 0
DWIDTH 7 0
BBX 7 14 0 -3
BITMAP
00
00
00
00
00
00
00
00
00
30
30
10
20
00
ENDCHAR

STARTCHAR quotedblleft
ENCODING 8220
SWIDTH 360 0
DWIDTH 7 0
BBX 7 14 0 -3
BITMAP
00
00
24
48
6C
6C
00
00
00
00
00
00
00
00
ENDCHAR

STARTCHAR quotedblright
ENCODING 8221
SWIDTH 360 0
DWIDTH 7 0
BBX 7 14 0 -3
BITMAP
00
00
6C
6C
24
48
00
00
00
00
00
00
00
00
ENDCHAR

STARTCHAR quotedblbase
ENCODING 8222
SWIDTH 360 0
DWIDTH 7 0
BBX 7 14 0 -3
BITMAP
00
00
00
00
00
00
00
00
00
6C
6C
24
48
00
ENDCHAR

STARTCHAR dagger
ENCODING 8224
SWIDTH 360 0
DWIDTH 7 0
BBX 7 14 0 -3
BITMAP
00
00
00
30
78
30
30
30
30
30
30
00
00
00
ENDCHAR

STARTCHAR daggerdbl
ENCODING 8225
SWIDTH 360 0
DWIDTH 7 0
BBX 7 14 0 -3
BITMAP
00
00
00
30
78
30
30
30
30
78
30
00
00
00
ENDCHAR

STARTCHAR bullet
ENCODING 8226
SWIDTH 360 0
DWIDTH 7 0
BBX 7 14 0 -3
BITMAP
00
00
00
00
00
30
78
78
30
00
00
00
00
00
ENDCHAR

STARTCHAR ellipsis
ENCODING 8230
SWIDTH 360 0
DWIDTH 7 0
BBX 7 14 0 -3
BITMAP
00
00
00
00
00
00
00
00
00
54
54
00
00
00
ENDCHAR

STARTCHAR perthousand
ENCODING 8240
SWIDTH 360 0
DWIDTH 7 0
BBX 7 14 0 -3
BITMAP
00
00
E0
A4
E8
10
20
40
BE
2A
3E
00
00
00
ENDCHAR

STARTCHAR guilsinglleft
ENCODING 8249
SWIDTH 360 0
DWIDTH 7 0
BBX 7 14 0 -3
BITMAP
00
00
00
00
18
30
60
C0
60
30
18
00
00
00
ENDCHAR

STARTCHAR guilsinglright
ENCODING 8250
SWIDTH 360 0
DWIDTH 7 0
BBX 7 14 0 -3
BITMAP
00
00
00
00
60
30
18
0C
18
30
60
00
00
00
ENDCHAR

STARTCHAR Euro
ENCODING 8364
SWIDTH 360 0
DWIDTH 7 0
BBX 7 14 0 -3
BITMAP
00
00
00
00
7C
60
F8
60
F8
60
7C
00
00
00
ENDCHAR

STARTCHAR trademark
ENCODING 8482
SWIDTH 360 0
DWIDTH 7 0
BBX 7 14 0 -3
BITMAP
00
00
00
00
00
F4
5C
54
54
00
00
00
00
00
ENDCHAR

STARTCHAR arrowleft
ENCODING 8592
SWIDTH 360 0
DWIDTH 7 0
BBX 7 14 0 -3
BITMAP
00
00
00
00
0C
3C
FC
FC
3C
0C
00
00
00
00
ENDCHAR

STARTCHAR arrowup
ENCODING 8593
SWIDTH 360 0
DWIDTH 7 0
BBX 7 14 0 -3
BITMAP
00
00
00
10
38
7C
10
10
10
10
10
00
00
00
ENDCHAR

STARTCHAR arrowright
ENCODING 8594
SWIDTH 360 0
DWIDTH 7 0
BBX 7 14 0 -3
BITMAP
00
00
00
00
C0
F0
FC
FC
F0
C0
00
00
00
00
ENDCHAR

STARTCHAR arrowdown
ENCODING 8595
SWIDTH 360 0
DWIDTH 7 0
BBX 7 14 0 -3
BITMAP
00
00
00
10
10
10
10
10
7C
38
10
00
00
00
ENDCHAR

STARTCHAR notequal
ENCODING 8800
SWIDTH 360 0
DWIDTH 7 0
BBX 7 14 0 -3
BITMAP
00
00
00
00
00
18
FC
30
FC
60
00
00
00
00
ENDCHAR

STARTCHAR lessequal
ENCODING 8804
SWIDTH 360 0
DWIDTH 7 0
BBX 7 14 0 -3
BITMAP
00
00
18
30
60
C0
60
30
18
00
FC
00
00
00
ENDCHAR

STARTCHAR greaterequal
ENCODING 8805
SWIDTH 360 0
DWIDTH 7 0
BBX 7 14 0 -3
BITMAP
00
00
60
30
18
0C
18
30
60
00
FC
00
00
00
ENDCHAR

STARTCHAR house
ENCODING 8962
SWIDTH 360 0
DWIDTH 7 0
BBX 7 14 0 -3
BITMAP
00
00
00
30
78
CC
CC
CC
CC
CC
FC
00
00
00
ENDCHAR

STARTCHAR uni23BA
ENCODING 9146
SWIDTH 360 0
DWIDTH 7 0
BBX 7 14 0 -3
BITMAP
FE
00
00
00
00
00
00
00
00
00
00
00
00
00
ENDCHAR

STARTCHAR uni23BB
ENCODING 9147
SWIDTH 360 0
DWIDTH 7 0
BBX 7 14 0 -3
BITMAP
00
00
00
FE
00
00
00
00
00
00
00
00
00
00
ENDCHAR

STARTCHAR uni23BC
ENCODING 9148
SWIDTH 360 0
DWIDTH 7 0
BBX 7 14 0 -3
BITMAP
00
00
00
00
00
00
00
00
00
00
FE
00
00
00
ENDCHAR

STARTCHAR uni23BD
ENCODING 9149
SWIDTH 360 0
DWIDTH 7 0
BBX 7 14 0 -3
BITMAP
00
00
00
00
00
00
00
00
00
00
00
00
00
FE
ENDCHAR

STARTCHAR SF100000
ENCODING 9472
SWIDTH 360 0
DWIDTH 7 0
BBX 7 14 0 -3
BITMAP
00
00
00
00
00
00
00
FE
00
00
00
00
00
00
ENDCHAR

STARTCHAR SF110000
ENCODING 9474
SWIDTH 360 0
DWIDTH 7 0
BBX 7 14 0 -3
BITMAP
10
10
10
10
10
10
10
10
10
10
10
10
10
10
ENDCHAR

STARTCHAR SF010000
ENCODING 9484
SWIDTH 360 0
DWIDTH 7 0
BBX 7 14 0 -3
BITMAP
00
00
00
00
00
00
00
1E
10
10
10
10
10
10
ENDCHAR

STARTCHAR SF030000
ENCODING 9488
SWIDTH 360 0
DWIDTH 7 0
BBX 7 14 0 -3
BITMAP
00
00
00
00
00
00
00
F0
10
10
10
10
10
10
ENDCHAR

STARTCHAR SF020000
ENCODING 9492
SWIDTH 360 0
DWIDTH 7 0
BBX 7 14 0 -3
BITMAP
10
10
10
10
10
10
10
1E
00
00
00
00
00
00
ENDCHAR

STARTCHAR SF040000
ENCODING 9496
SWIDTH 360 0
DWIDTH 7 0
BBX 7 14 0 -3
BITMAP
10
10
10
10
10
10
10
F0
00
00
00
00
00
00
ENDCHAR

STARTCHAR SF080000
ENCODING 9500
SWIDTH 360 0
DWIDTH 7 0
BBX 7 14 0 -3
BITMAP
10
10
10
10
10
10
10
1E
10
10
10
10
10
10
ENDCHAR

STARTCHAR SF090000
ENCODING 9508
SWIDTH 360 0
DWIDTH 7 0
BBX 7 14 0 -3
BITMAP
10
10
10
10
10
10
10
F0
10
10
10
10
10
10
ENDCHAR

STARTCHAR SF060000
ENCODING 9516
SWIDTH 360 0
DWIDTH 7 0
BBX 7 14 0 -3
BITMAP
00
00
00
00
00
00
00
FE
10
10
10
10
10
10
ENDCHAR

STARTCHAR SF070000
ENCODING 9524
SWIDTH 360 0
DWIDTH 7 0
BBX 7 14 0 -3
BITMAP
10
10
10
10
10
10
10
FE
00
00
00
00
00
00
ENDCHAR

STARTCHAR SF050000
ENCODING 9532
SWIDTH 360 0
DWIDTH 7 0
BBX 7 14 0 -3
BITMAP
10
10
10
10
10
10
10
FE
10
10
10
10
10
10
ENDCHAR

STARTCHAR SF540000
ENCODING 9578
SWIDTH 360 0
DWIDTH 7 0
BBX 7 14 0 -3
BITMAP
10
10
10
10
10
10
FE
10
FE
10
10
10
10
10
ENDCHAR

STARTCHAR SF440000
ENCODING 9580
SWIDTH 360 0
DWIDTH 7 0
BBX 7 14 0 -3
BITMAP
28
28
28
28
28
28
EE
00
EE
28
28
28
28
28
ENDCHAR

STARTCHAR block
ENCODING 9608
SWIDTH 360 0
DWIDTH 7 0
BBX 7 14 0 -3
BITMAP
FE
FE
FE
FE
FE
FE
FE
FE
FE
FE
FE
FE
FE
FE
ENDCHAR

STARTCHAR shadelight
ENCODING 9617
SWIDTH 360 0
DWIDTH 7 0
BBX 7 14 0 -3
BITMAP
28
92
28
92
28
92
28
92
28
92
28
92
28
92
ENDCHAR

STARTCHAR shademedium
ENCODING 9618
SWIDTH 360 0
DWIDTH 7 0
BBX 7 14 0 -3
BITMAP
54
AA
54
AA
54
AA
54
AA
54
AA
54
AA
54
AA
ENDCHAR

STARTCHAR filledbox
ENCODING 9632
SWIDTH 360 0
DWIDTH 7 0
BBX 7 14 0 -3
BITMAP
00
00
00
00
00
7C
7C
7C
7C
7C
00
00
00
00
ENDCHAR

STARTCHAR blackdiamond
ENCODING 9670
SWIDTH 360 0
DWIDTH 7 0
BBX 7 14 0 -3
BITMAP
00
00
00
00
00
10
38
7C
38
10
00
00
00
00
ENDCHAR

STARTCHAR uniFFFD
ENCODING 65533
SWIDTH 360 0
DWIDTH 7 0
BBX 7 14 0 -3
BITMAP
00
00
00
00
54
00
44
00
44
00
54
00
00
00
ENDCHAR

ENDFONT
