STARTFONT 2.1
FONT -Misc-Ohsnap.Icons-Medium-R-Normal--14-101-100-100-C-70-ISO8859-1
SIZE 10 100 100
FONTBOUNDINGBOX 7 14 0 -3

STARTPROPERTIES 24
FONTNAME_REGISTRY ""
FOUNDRY "Misc"
FAMILY_NAME "Ohsnap.Icons"
WEIGHT_NAME "Medium"
SLANT "R"
SETWIDTH_NAME "Normal"
ADD_STYLE_NAME ""
PIXEL_SIZE 14
POINT_SIZE 101
RESOLUTION_X 100
RESOLUTION_Y 100
SPACING "C"
AVERAGE_WIDTH 70
CHARSET_REGISTRY "ISO8859"
CHARSET_ENCODING "1"
COPYRIGHT "GPLv2"
CAP_HEIGHT 8
X_HEIGHT 6
WEIGHT 10
QUAD_WIDTH 7
_GBDFED_INFO "Edited with gbdfed 1.6."
DEFAULT_CHAR 0
FONT_DESCENT 3
FONT_ASCENT 11
ENDPROPERTIES

CHARS 223

STARTCHAR U+0000
ENCODING 0
SWIDTH 360 0
DWIDTH 7 0
BBX 7 14 0 -3
BITMAP
00
00
00
7C
44
44
44
44
44
44
7C
00
00
00
ENDCHAR

STARTCHAR U+25C6
ENCODING 1
SWIDTH 360 0
DWIDTH 7 0
BBX 7 14 0 -3
BITMAP
00
00
00
00
00
00
00
00
00
00
00
00
00
00
ENDCHAR

STARTCHAR U+2592
ENCODING 2
SWIDTH 360 0
DWIDTH 7 0
BBX 7 14 0 -3
BITMAP
92
24
48
92
24
48
92
24
48
92
24
48
92
24
ENDCHAR

STARTCHAR U+2409
ENCODING 3
SWIDTH 360 0
DWIDTH 7 0
BBX 7 14 0 -3
BITMAP
00
00
00
00
00
00
00
00
00
00
00
00
00
00
ENDCHAR

STARTCHAR U+240C
ENCODING 4
SWIDTH 360 0
DWIDTH 7 0
BBX 7 14 0 -3
BITMAP
00
00
00
00
00
00
00
00
00
00
00
00
00
00
ENDCHAR

STARTCHAR U+240D
ENCODING 5
SWIDTH 360 0
DWIDTH 7 0
BBX 7 14 0 -3
BITMAP
00
00
00
00
00
00
00
00
00
00
00
00
00
00
ENDCHAR

STARTCHAR U+240A
ENCODING 6
SWIDTH 360 0
DWIDTH 7 0
BBX 7 14 0 -3
BITMAP
00
00
00
00
00
00
00
00
00
00
00
00
00
00
ENDCHAR

STARTCHAR U+00B0
ENCODING 7
SWIDTH 360 0
DWIDTH 7 0
BBX 7 14 0 -3
BITMAP
00
00
00
00
00
00
00
00
00
00
00
00
00
00
ENDCHAR

STARTCHAR U+00B1
ENCODING 8
SWIDTH 360 0
DWIDTH 7 0
BBX 7 14 0 -3
BITMAP
00
00
00
00
00
00
00
00
00
00
00
00
00
00
ENDCHAR

STARTCHAR U+09E8
ENCODING 9
SWIDTH 360 0
DWIDTH 7 0
BBX 7 14 0 -3
BITMAP
00
00
00
00
00
00
00
00
00
00
00
00
00
00
ENDCHAR

STARTCHAR U+09E9
ENCODING 10
SWIDTH 360 0
DWIDTH 7 0
BBX 7 14 0 -3
BITMAP
00
00
00
00
00
00
00
00
00
00
00
00
00
00
ENDCHAR

STARTCHAR U+2518
ENCODING 11
SWIDTH 360 0
DWIDTH 7 0
BBX 7 14 0 -3
BITMAP
10
10
10
10
10
10
10
F0
00
00
00
00
00
00
ENDCHAR

STARTCHAR U+2510
ENCODING 12
SWIDTH 360 0
DWIDTH 7 0
BBX 7 14 0 -3
BITMAP
00
00
00
00
00
00
00
F0
10
10
10
10
10
10
ENDCHAR

STARTCHAR U+250C
ENCODING 13
SWIDTH 360 0
DWIDTH 7 0
BBX 7 14 0 -3
BITMAP
00
00
00
00
00
00
00
1E
10
10
10
10
10
10
ENDCHAR

STARTCHAR U+2514
ENCODING 14
SWIDTH 360 0
DWIDTH 7 0
BBX 7 14 0 -3
BITMAP
10
10
10
10
10
10
10
1E
00
00
00
00
00
00
ENDCHAR

STARTCHAR U+253C
ENCODING 15
SWIDTH 360 0
DWIDTH 7 0
BBX 7 14 0 -3
BITMAP
10
10
10
10
10
10
10
FE
10
10
10
10
10
10
ENDCHAR

STARTCHAR U+23BA
ENCODING 16
SWIDTH 360 0
DWIDTH 7 0
BBX 7 14 0 -3
BITMAP
00
00
00
00
00
00
00
00
00
00
00
00
00
00
ENDCHAR

STARTCHAR U+23BB
ENCODING 17
SWIDTH 360 0
DWIDTH 7 0
BBX 7 14 0 -3
BITMAP
00
00
00
00
00
00
00
00
00
00
00
00
00
00
ENDCHAR

STARTCHAR U+2500
ENCODING 18
SWIDTH 360 0
DWIDTH 7 0
BBX 7 14 0 -3
BITMAP
00
00
00
00
00
00
00
FE
00
00
00
00
00
00
ENDCHAR

STARTCHAR U+23BC
ENCODING 19
SWIDTH 360 0
DWIDTH 7 0
BBX 7 14 0 -3
BITMAP
00
00
00
00
00
00
00
00
00
00
00
00
00
00
ENDCHAR

STARTCHAR U+23BD
ENCODING 20
SWIDTH 360 0
DWIDTH 7 0
BBX 7 14 0 -3
BITMAP
00
00
00
00
00
00
00
00
00
00
00
00
00
00
ENDCHAR

STARTCHAR U+251C
ENCODING 21
SWIDTH 360 0
DWIDTH 7 0
BBX 7 14 0 -3
BITMAP
10
10
10
10
10
10
10
1E
10
10
10
10
10
10
ENDCHAR

STARTCHAR U+2524
ENCODING 22
SWIDTH 360 0
DWIDTH 7 0
BBX 7 14 0 -3
BITMAP
10
10
10
10
10
10
10
F0
10
10
10
10
10
10
ENDCHAR

STARTCHAR U+2534
ENCODING 23
SWIDTH 360 0
DWIDTH 7 0
BBX 7 14 0 -3
BITMAP
10
10
10
10
10
10
10
FE
00
00
00
00
00
00
ENDCHAR

STARTCHAR U+252C
ENCODING 24
SWIDTH 360 0
DWIDTH 7 0
BBX 7 14 0 -3
BITMAP
00
00
00
00
00
00
00
FE
10
10
10
10
10
10
ENDCHAR

STARTCHAR U+2502
ENCODING 25
SWIDTH 360 0
DWIDTH 7 0
BBX 7 14 0 -3
BITMAP
10
10
10
10
10
10
10
10
10
10
10
10
10
10
ENDCHAR

STARTCHAR U+2264
ENCODING 26
SWIDTH 360 0
DWIDTH 7 0
BBX 7 14 0 -3
BITMAP
00
00
00
00
00
00
00
00
00
00
00
00
00
00
ENDCHAR

STARTCHAR U+2265
ENCODING 27
SWIDTH 360 0
DWIDTH 7 0
BBX 7 14 0 -3
BITMAP
00
00
00
00
00
00
00
00
00
00
00
00
00
00
ENDCHAR

STARTCHAR U+03C0
ENCODING 28
SWIDTH 360 0
DWIDTH 7 0
BBX 7 14 0 -3
BITMAP
00
00
00
00
00
00
00
00
00
00
00
00
00
00
ENDCHAR

STARTCHAR U+2260
ENCODING 29
SWIDTH 360 0
DWIDTH 7 0
BBX 7 14 0 -3
BITMAP
00
00
00
00
00
00
00
00
00
00
00
00
00
00
ENDCHAR

STARTCHAR U+00A3
ENCODING 30
SWIDTH 360 0
DWIDTH 7 0
BBX 7 14 0 -3
BITMAP
00
00
00
3C
20
20
78
20
20
20
7C
00
00
00
ENDCHAR

STARTCHAR U+00B7
ENCODING 31
SWIDTH 360 0
DWIDTH 7 0
BBX 7 14 0 -3
BITMAP
00
00
00
00
00
00
00
00
00
00
00
00
00
00
ENDCHAR

STARTCHAR U+0020
ENCODING 32
SWIDTH 360 0
DWIDTH 7 0
BBX 7 14 0 -3
BITMAP
00
00
00
00
00
00
00
00
00
00
00
00
00
00
ENDCHAR

STARTCHAR U+0021
ENCODING 33
SWIDTH 360 0
DWIDTH 7 0
BBX 7 14 0 -3
BITMAP
00
00
00
10
10
10
10
10
00
10
10
00
00
00
ENDCHAR

STARTCHAR U+0022
ENCODING 34
SWIDTH 360 0
DWIDTH 7 0
BBX 7 14 0 -3
BITMAP
00
00
28
28
28
00
00
00
00
00
00
00
00
00
ENDCHAR

STARTCHAR U+0023
ENCODING 35
SWIDTH 360 0
DWIDTH 7 0
BBX 7 14 0 -3
BITMAP
00
00
00
28
28
7C
28
28
7C
28
28
00
00
00
ENDCHAR

STARTCHAR U+0024
ENCODING 36
SWIDTH 360 0
DWIDTH 7 0
BBX 7 14 0 -3
BITMAP
00
00
00
10
7C
50
50
7C
14
14
7C
10
00
00
ENDCHAR

STARTCHAR U+0025
ENCODING 37
SWIDTH 360 0
DWIDTH 7 0
BBX 7 14 0 -3
BITMAP
00
00
00
E0
A4
E8
10
20
5C
94
1C
00
00
00
ENDCHAR

STARTCHAR U+0026
ENCODING 38
SWIDTH 360 0
DWIDTH 7 0
BBX 7 14 0 -3
BITMAP
00
00
00
70
50
50
20
54
48
48
74
00
00
00
ENDCHAR

STARTCHAR U+0027
ENCODING 39
SWIDTH 360 0
DWIDTH 7 0
BBX 7 14 0 -3
BITMAP
00
00
10
10
10
00
00
00
00
00
00
00
00
00
ENDCHAR

STARTCHAR U+0028
ENCODING 40
SWIDTH 360 0
DWIDTH 7 0
BBX 7 14 0 -3
BITMAP
00
00
04
08
10
10
10
10
10
10
08
04
00
00
ENDCHAR

STARTCHAR U+0029
ENCODING 41
SWIDTH 360 0
DWIDTH 7 0
BBX 7 14 0 -3
BITMAP
00
00
40
20
10
10
10
10
10
10
20
40
00
00
ENDCHAR

STARTCHAR U+002A
ENCODING 42
SWIDTH 360 0
DWIDTH 7 0
BBX 7 14 0 -3
BITMAP
00
00
00
00
00
10
54
38
54
10
00
00
00
00
ENDCHAR

STARTCHAR U+002B
ENCODING 43
SWIDTH 360 0
DWIDTH 7 0
BBX 7 14 0 -3
BITMAP
00
00
00
00
00
10
10
7C
10
10
00
00
00
00
ENDCHAR

STARTCHAR U+002C
ENCODING 44
SWIDTH 360 0
DWIDTH 7 0
BBX 7 14 0 -3
BITMAP
00
00
00
00
00
00
00
00
00
30
30
10
20
00
ENDCHAR

STARTCHAR U+002D
ENCODING 45
SWIDTH 360 0
DWIDTH 7 0
BBX 7 14 0 -3
BITMAP
00
00
00
00
00
00
00
7C
00
00
00
00
00
00
ENDCHAR

STARTCHAR U+002E
ENCODING 46
SWIDTH 360 0
DWIDTH 7 0
BBX 7 14 0 -3
BITMAP
00
00
00
00
00
00
00
00
00
30
30
00
00
00
ENDCHAR

STARTCHAR U+002F
ENCODING 47
SWIDTH 360 0
DWIDTH 7 0
BBX 7 14 0 -3
BITMAP
00
00
04
04
08
08
10
10
20
20
40
40
00
00
ENDCHAR

STARTCHAR U+0030
ENCODING 48
SWIDTH 360 0
DWIDTH 7 0
BBX 7 14 0 -3
BITMAP
00
00
00
7C
44
4C
54
64
44
44
7C
00
00
00
ENDCHAR

STARTCHAR U+0031
ENCODING 49
SWIDTH 360 0
DWIDTH 7 0
BBX 7 14 0 -3
BITMAP
00
00
00
08
18
28
08
08
08
08
08
00
00
00
ENDCHAR

STARTCHAR U+0032
ENCODING 50
SWIDTH 360 0
DWIDTH 7 0
BBX 7 14 0 -3
BITMAP
00
00
00
7C
04
04
7C
40
40
40
7C
00
00
00
ENDCHAR

STARTCHAR U+0033
ENCODING 51
SWIDTH 360 0
DWIDTH 7 0
BBX 7 14 0 -3
BITMAP
00
00
00
7C
04
04
7C
04
04
04
7C
00
00
00
ENDCHAR

STARTCHAR U+0034
ENCODING 52
SWIDTH 360 0
DWIDTH 7 0
BBX 7 14 0 -3
BITMAP
00
00
00
44
44
44
7C
04
04
04
04
00
00
00
ENDCHAR

STARTCHAR U+0035
ENCODING 53
SWIDTH 360 0
DWIDTH 7 0
BBX 7 14 0 -3
BITMAP
00
00
00
7C
40
40
7C
04
04
04
7C
00
00
00
ENDCHAR

STARTCHAR U+0036
ENCODING 54
SWIDTH 360 0
DWIDTH 7 0
BBX 7 14 0 -3
BITMAP
00
00
00
7C
40
40
7C
44
44
44
7C
00
00
00
ENDCHAR

STARTCHAR U+0037
ENCODING 55
SWIDTH 360 0
DWIDTH 7 0
BBX 7 14 0 -3
BITMAP
00
00
00
7C
04
04
04
04
04
04
04
00
00
00
ENDCHAR

STARTCHAR U+0038
ENCODING 56
SWIDTH 360 0
DWIDTH 7 0
BBX 7 14 0 -3
BITMAP
00
00
00
7C
44
44
38
44
44
44
7C
00
00
00
ENDCHAR

STARTCHAR U+0039
ENCODING 57
SWIDTH 360 0
DWIDTH 7 0
BBX 7 14 0 -3
BITMAP
00
00
00
7C
44
44
7C
04
04
04
04
00
00
00
ENDCHAR

STARTCHAR U+003A
ENCODING 58
SWIDTH 360 0
DWIDTH 7 0
BBX 7 14 0 -3
BITMAP
00
00
00
00
00
30
30
00
00
30
30
00
00
00
ENDCHAR

STARTCHAR U+003B
ENCODING 59
SWIDTH 360 0
DWIDTH 7 0
BBX 7 14 0 -3
BITMAP
00
00
00
00
00
30
30
00
00
30
30
10
20
00
ENDCHAR

STARTCHAR U+003C
ENCODING 60
SWIDTH 360 0
DWIDTH 7 0
BBX 7 14 0 -3
BITMAP
00
00
00
00
04
08
10
20
10
08
04
00
00
00
ENDCHAR

STARTCHAR U+003D
ENCODING 61
SWIDTH 360 0
DWIDTH 7 0
BBX 7 14 0 -3
BITMAP
00
00
00
00
00
00
7C
00
7C
00
00
00
00
00
ENDCHAR

STARTCHAR U+003E
ENCODING 62
SWIDTH 360 0
DWIDTH 7 0
BBX 7 14 0 -3
BITMAP
00
00
00
00
40
20
10
08
10
20
40
00
00
00
ENDCHAR

STARTCHAR U+003F
ENCODING 63
SWIDTH 360 0
DWIDTH 7 0
BBX 7 14 0 -3
BITMAP
00
00
00
7C
04
04
1C
10
00
10
10
00
00
00
ENDCHAR

STARTCHAR U+0040
ENCODING 64
SWIDTH 360 0
DWIDTH 7 0
BBX 7 14 0 -3
BITMAP
00
00
00
7C
44
5C
54
54
54
5C
40
7C
00
00
ENDCHAR

STARTCHAR U+0041
ENCODING 65
SWIDTH 360 0
DWIDTH 7 0
BBX 7 14 0 -3
BITMAP
00
00
00
7C
44
44
7C
44
44
44
44
00
00
00
ENDCHAR

STARTCHAR U+0042
ENCODING 66
SWIDTH 360 0
DWIDTH 7 0
BBX 7 14 0 -3
BITMAP
00
00
00
78
48
48
7C
44
44
44
7C
00
00
00
ENDCHAR

STARTCHAR U+0043
ENCODING 67
SWIDTH 360 0
DWIDTH 7 0
BBX 7 14 0 -3
BITMAP
00
00
00
7C
40
40
40
40
40
40
7C
00
00
00
ENDCHAR

STARTCHAR U+0044
ENCODING 68
SWIDTH 360 0
DWIDTH 7 0
BBX 7 14 0 -3
BITMAP
00
00
00
78
44
44
44
44
44
44
78
00
00
00
ENDCHAR

STARTCHAR U+0045
ENCODING 69
SWIDTH 360 0
DWIDTH 7 0
BBX 7 14 0 -3
BITMAP
00
00
00
7C
40
40
7C
40
40
40
7C
00
00
00
ENDCHAR

STARTCHAR U+0046
ENCODING 70
SWIDTH 360 0
DWIDTH 7 0
BBX 7 14 0 -3
BITMAP
00
00
00
7C
40
40
7C
40
40
40
40
00
00
00
ENDCHAR

STARTCHAR U+0047
ENCODING 71
SWIDTH 360 0
DWIDTH 7 0
BBX 7 14 0 -3
BITMAP
00
00
00
7C
40
40
5C
44
44
44
7C
00
00
00
ENDCHAR

STARTCHAR U+0048
ENCODING 72
SWIDTH 360 0
DWIDTH 7 0
BBX 7 14 0 -3
BITMAP
00
00
00
44
44
44
7C
44
44
44
44
00
00
00
ENDCHAR

STARTCHAR U+0049
ENCODING 73
SWIDTH 360 0
DWIDTH 7 0
BBX 7 14 0 -3
BITMAP
00
00
00
7C
10
10
10
10
10
10
7C
00
00
00
ENDCHAR

STARTCHAR U+004A
ENCODING 74
SWIDTH 360 0
DWIDTH 7 0
BBX 7 14 0 -3
BITMAP
00
00
00
04
04
04
04
04
04
04
7C
00
00
00
ENDCHAR

STARTCHAR U+004B
ENCODING 75
SWIDTH 360 0
DWIDTH 7 0
BBX 7 14 0 -3
BITMAP
00
00
00
44
48
50
60
60
50
48
44
00
00
00
ENDCHAR

STARTCHAR U+004C
ENCODING 76
SWIDTH 360 0
DWIDTH 7 0
BBX 7 14 0 -3
BITMAP
00
00
00
40
40
40
40
40
40
40
7C
00
00
00
ENDCHAR

STARTCHAR U+004D
ENCODING 77
SWIDTH 360 0
DWIDTH 7 0
BBX 7 14 0 -3
BITMAP
00
00
00
7C
54
54
54
54
54
54
54
00
00
00
ENDCHAR

STARTCHAR U+004E
ENCODING 78
SWIDTH 360 0
DWIDTH 7 0
BBX 7 14 0 -3
BITMAP
00
00
00
7C
44
44
44
44
44
44
44
00
00
00
ENDCHAR

STARTCHAR U+004F
ENCODING 79
SWIDTH 360 0
DWIDTH 7 0
BBX 7 14 0 -3
BITMAP
00
00
00
7C
44
44
44
44
44
44
7C
00
00
00
ENDCHAR

STARTCHAR U+0050
ENCODING 80
SWIDTH 360 0
DWIDTH 7 0
BBX 7 14 0 -3
BITMAP
00
00
00
7C
44
44
7C
40
40
40
40
00
00
00
ENDCHAR

STARTCHAR U+0051
ENCODING 81
SWIDTH 360 0
DWIDTH 7 0
BBX 7 14 0 -3
BITMAP
00
00
00
7C
44
44
44
44
44
44
7C
06
00
00
ENDCHAR

STARTCHAR U+0052
ENCODING 82
SWIDTH 360 0
DWIDTH 7 0
BBX 7 14 0 -3
BITMAP
00
00
00
7C
44
44
7C
50
48
44
44
00
00
00
ENDCHAR

STARTCHAR U+0053
ENCODING 83
SWIDTH 360 0
DWIDTH 7 0
BBX 7 14 0 -3
BITMAP
00
00
00
7C
40
40
7C
04
04
04
7C
00
00
00
ENDCHAR

STARTCHAR U+0054
ENCODING 84
SWIDTH 360 0
DWIDTH 7 0
BBX 7 14 0 -3
BITMAP
00
00
00
7C
10
10
10
10
10
10
10
00
00
00
ENDCHAR

STARTCHAR U+0055
ENCODING 85
SWIDTH 360 0
DWIDTH 7 0
BBX 7 14 0 -3
BITMAP
00
00
00
44
44
44
44
44
44
44
7C
00
00
00
ENDCHAR

STARTCHAR U+0056
ENCODING 86
SWIDTH 360 0
DWIDTH 7 0
BBX 7 14 0 -3
BITMAP
00
00
00
44
44
44
44
44
44
28
10
00
00
00
ENDCHAR

STARTCHAR U+0057
ENCODING 87
SWIDTH 360 0
DWIDTH 7 0
BBX 7 14 0 -3
BITMAP
00
00
00
54
54
54
54
54
54
54
7C
00
00
00
ENDCHAR

STARTCHAR U+0058
ENCODING 88
SWIDTH 360 0
DWIDTH 7 0
BBX 7 14 0 -3
BITMAP
00
00
00
44
44
28
10
28
44
44
44
00
00
00
ENDCHAR

STARTCHAR U+0059
ENCODING 89
SWIDTH 360 0
DWIDTH 7 0
BBX 7 14 0 -3
BITMAP
00
00
00
44
44
44
7C
10
10
10
10
00
00
00
ENDCHAR

STARTCHAR U+005A
ENCODING 90
SWIDTH 360 0
DWIDTH 7 0
BBX 7 14 0 -3
BITMAP
00
00
00
7C
04
08
10
20
40
40
7C
00
00
00
ENDCHAR

STARTCHAR U+005B
ENCODING 91
SWIDTH 360 0
DWIDTH 7 0
BBX 7 14 0 -3
BITMAP
00
00
1C
10
10
10
10
10
10
10
10
1C
00
00
ENDCHAR

STARTCHAR U+005C
ENCODING 92
SWIDTH 360 0
DWIDTH 7 0
BBX 7 14 0 -3
BITMAP
00
00
40
40
20
20
10
10
08
08
04
04
00
00
ENDCHAR

STARTCHAR U+005D
ENCODING 93
SWIDTH 360 0
DWIDTH 7 0
BBX 7 14 0 -3
BITMAP
00
00
70
10
10
10
10
10
10
10
10
70
00
00
ENDCHAR

STARTCHAR U+005E
ENCODING 94
SWIDTH 360 0
DWIDTH 7 0
BBX 7 14 0 -3
BITMAP
00
00
10
28
44
00
00
00
00
00
00
00
00
00
ENDCHAR

STARTCHAR U+005F
ENCODING 95
SWIDTH 360 0
DWIDTH 7 0
BBX 7 14 0 -3
BITMAP
00
00
00
00
00
00
00
00
00
00
00
FE
00
00
ENDCHAR

STARTCHAR U+0060
ENCODING 96
SWIDTH 360 0
DWIDTH 7 0
BBX 7 14 0 -3
BITMAP
00
00
20
10
08
00
00
00
00
00
00
00
00
00
ENDCHAR

STARTCHAR U+0061
ENCODING 97
SWIDTH 360 0
DWIDTH 7 0
BBX 7 14 0 -3
BITMAP
00
00
00
00
00
7C
04
7C
44
44
7C
00
00
00
ENDCHAR

STARTCHAR U+0062
ENCODING 98
SWIDTH 360 0
DWIDTH 7 0
BBX 7 14 0 -3
BITMAP
00
00
00
40
40
7C
44
44
44
44
7C
00
00
00
ENDCHAR

STARTCHAR U+0063
ENCODING 99
SWIDTH 360 0
DWIDTH 7 0
BBX 7 14 0 -3
BITMAP
00
00
00
00
00
7C
40
40
40
40
7C
00
00
00
ENDCHAR

STARTCHAR U+0064
ENCODING 100
SWIDTH 360 0
DWIDTH 7 0
BBX 7 14 0 -3
BITMAP
00
00
00
04
04
7C
44
44
44
44
7C
00
00
00
ENDCHAR

STARTCHAR U+0065
ENCODING 101
SWIDTH 360 0
DWIDTH 7 0
BBX 7 14 0 -3
BITMAP
00
00
00
00
00
7C
44
7C
40
40
7C
00
00
00
ENDCHAR

STARTCHAR U+0066
ENCODING 102
SWIDTH 360 0
DWIDTH 7 0
BBX 7 14 0 -3
BITMAP
00
00
00
3C
20
78
20
20
20
20
20
00
00
00
ENDCHAR

STARTCHAR U+0067
ENCODING 103
SWIDTH 360 0
DWIDTH 7 0
BBX 7 14 0 -3
BITMAP
00
00
00
00
00
7C
44
44
44
44
7C
04
7C
00
ENDCHAR

STARTCHAR U+0068
ENCODING 104
SWIDTH 360 0
DWIDTH 7 0
BBX 7 14 0 -3
BITMAP
00
00
00
40
40
7C
44
44
44
44
44
00
00
00
ENDCHAR

STARTCHAR U+0069
ENCODING 105
SWIDTH 360 0
DWIDTH 7 0
BBX 7 14 0 -3
BITMAP
00
00
10
10
00
70
10
10
10
10
1C
00
00
00
ENDCHAR

STARTCHAR U+006A
ENCODING 106
SWIDTH 360 0
DWIDTH 7 0
BBX 7 14 0 -3
BITMAP
00
00
08
08
00
08
08
08
08
08
08
08
78
00
ENDCHAR

STARTCHAR U+006B
ENCODING 107
SWIDTH 360 0
DWIDTH 7 0
BBX 7 14 0 -3
BITMAP
00
00
00
40
40
48
50
60
50
48
44
00
00
00
ENDCHAR

STARTCHAR U+006C
ENCODING 108
SWIDTH 360 0
DWIDTH 7 0
BBX 7 14 0 -3
BITMAP
00
00
00
70
10
10
10
10
10
10
1C
00
00
00
ENDCHAR

STARTCHAR U+006D
ENCODING 109
SWIDTH 360 0
DWIDTH 7 0
BBX 7 14 0 -3
BITMAP
00
00
00
00
00
7C
54
54
54
54
54
00
00
00
ENDCHAR

STARTCHAR U+006E
ENCODING 110
SWIDTH 360 0
DWIDTH 7 0
BBX 7 14 0 -3
BITMAP
00
00
00
00
00
7C
44
44
44
44
44
00
00
00
ENDCHAR

STARTCHAR U+006F
ENCODING 111
SWIDTH 360 0
DWIDTH 7 0
BBX 7 14 0 -3
BITMAP
00
00
00
00
00
7C
44
44
44
44
7C
00
00
00
ENDCHAR

STARTCHAR U+0070
ENCODING 112
SWIDTH 360 0
DWIDTH 7 0
BBX 7 14 0 -3
BITMAP
00
00
00
00
00
7C
44
44
44
44
7C
40
40
00
ENDCHAR

STARTCHAR U+0071
ENCODING 113
SWIDTH 360 0
DWIDTH 7 0
BBX 7 14 0 -3
BITMAP
00
00
00
00
00
7C
44
44
44
44
7C
04
04
00
ENDCHAR

STARTCHAR U+0072
ENCODING 114
SWIDTH 360 0
DWIDTH 7 0
BBX 7 14 0 -3
BITMAP
00
00
00
00
00
7C
40
40
40
40
40
00
00
00
ENDCHAR

STARTCHAR U+0073
ENCODING 115
SWIDTH 360 0
DWIDTH 7 0
BBX 7 14 0 -3
BITMAP
00
00
00
00
00
7C
40
7C
04
04
7C
00
00
00
ENDCHAR

STARTCHAR U+0074
ENCODING 116
SWIDTH 360 0
DWIDTH 7 0
BBX 7 14 0 -3
BITMAP
00
00
00
20
20
78
20
20
20
20
3C
00
00
00
ENDCHAR

STARTCHAR U+0075
ENCODING 117
SWIDTH 360 0
DWIDTH 7 0
BBX 7 14 0 -3
BITMAP
00
00
00
00
00
44
44
44
44
44
7C
00
00
00
ENDCHAR

STARTCHAR U+0076
ENCODING 118
SWIDTH 360 0
DWIDTH 7 0
BBX 7 14 0 -3
BITMAP
00
00
00
00
00
44
44
44
44
28
10
00
00
00
ENDCHAR

STARTCHAR U+0077
ENCODING 119
SWIDTH 360 0
DWIDTH 7 0
BBX 7 14 0 -3
BITMAP
00
00
00
00
00
54
54
54
54
54
7C
00
00
00
ENDCHAR

STARTCHAR U+0078
ENCODING 120
SWIDTH 360 0
DWIDTH 7 0
BBX 7 14 0 -3
BITMAP
00
00
00
00
00
44
28
10
10
28
44
00
00
00
ENDCHAR

STARTCHAR U+0079
ENCODING 121
SWIDTH 360 0
DWIDTH 7 0
BBX 7 14 0 -3
BITMAP
00
00
00
00
00
44
44
44
44
44
7C
04
7C
00
ENDCHAR

STARTCHAR U+007A
ENCODING 122
SWIDTH 360 0
DWIDTH 7 0
BBX 7 14 0 -3
BITMAP
00
00
00
00
00
7C
08
10
20
40
7C
00
00
00
ENDCHAR

STARTCHAR U+007B
ENCODING 123
SWIDTH 360 0
DWIDTH 7 0
BBX 7 14 0 -3
BITMAP
00
00
1C
10
10
10
20
10
10
10
10
1C
00
00
ENDCHAR

STARTCHAR U+007C
ENCODING 124
SWIDTH 360 0
DWIDTH 7 0
BBX 7 14 0 -3
BITMAP
00
00
10
10
10
10
10
10
10
10
10
10
00
00
ENDCHAR

STARTCHAR U+007D
ENCODING 125
SWIDTH 360 0
DWIDTH 7 0
BBX 7 14 0 -3
BITMAP
00
00
70
10
10
10
08
10
10
10
10
70
00
00
ENDCHAR

STARTCHAR U+007E
ENCODING 126
SWIDTH 360 0
DWIDTH 7 0
BBX 7 14 0 -3
BITMAP
00
00
74
54
5C
00
00
00
00
00
00
00
00
00
ENDCHAR

STARTCHAR U+00A0
ENCODING 160
SWIDTH 360 0
DWIDTH 7 0
BBX 7 14 0 -3
BITMAP
00
00
00
18
18
3C
5A
5A
5A
42
3C
00
00
00
ENDCHAR

STARTCHAR U+00A1
ENCODING 161
SWIDTH 360 0
DWIDTH 7 0
BBX 7 14 0 -3
BITMAP
00
00
00
00
18
3E
F8
F8
3E
18
00
00
00
00
ENDCHAR

STARTCHAR U+00A2
ENCODING 162
SWIDTH 360 0
DWIDTH 7 0
BBX 7 14 0 -3
BITMAP
00
00
00
00
00
00
00
1E
00
0C
0C
00
00
00
ENDCHAR

STARTCHAR U+00A3
ENCODING 163
SWIDTH 360 0
DWIDTH 7 0
BBX 7 14 0 -3
BITMAP
00
00
00
00
00
7E
00
3C
00
18
18
00
00
00
ENDCHAR

STARTCHAR U+00A4
ENCODING 164
SWIDTH 360 0
DWIDTH 7 0
BBX 7 14 0 -3
BITMAP
00
00
00
7E
00
7E
00
3C
00
18
18
00
00
00
ENDCHAR

STARTCHAR U+00A5
ENCODING 165
SWIDTH 360 0
DWIDTH 7 0
BBX 7 14 0 -3
BITMAP
00
00
00
7E
66
7E
66
66
66
66
7E
00
00
00
ENDCHAR

STARTCHAR U+00A6
ENCODING 166
SWIDTH 360 0
DWIDTH 7 0
BBX 7 14 0 -3
BITMAP
00
00
00
00
3C
66
5A
5A
66
3C
42
00
00
00
ENDCHAR

STARTCHAR U+00A7
ENCODING 167
SWIDTH 360 0
DWIDTH 7 0
BBX 7 14 0 -3
BITMAP
00
00
00
7E
66
66
66
66
7E
66
7E
00
00
00
ENDCHAR

STARTCHAR U+00A8
ENCODING 168
SWIDTH 360 0
DWIDTH 7 0
BBX 7 14 0 -3
BITMAP
00
00
00
00
7E
5A
42
7E
5A
42
7E
00
00
00
ENDCHAR

STARTCHAR U+00A9
ENCODING 169
SWIDTH 360 0
DWIDTH 7 0
BBX 7 14 0 -3
BITMAP
00
00
00
18
3C
3C
18
3C
7E
7E
7E
00
00
00
ENDCHAR

STARTCHAR U+00AA
ENCODING 170
SWIDTH 360 0
DWIDTH 7 0
BBX 7 14 0 -3
BITMAP
00
00
00
12
38
3A
28
2A
44
44
38
00
00
00
ENDCHAR

STARTCHAR U+00AB
ENCODING 171
SWIDTH 360 0
DWIDTH 7 0
BBX 7 14 0 -3
BITMAP
00
00
00
00
14
28
50
A0
50
28
14
00
00
00
ENDCHAR

STARTCHAR U+00AC
ENCODING 172
SWIDTH 360 0
DWIDTH 7 0
BBX 7 14 0 -3
BITMAP
00
00
00
00
00
02
02
0A
0A
0A
0A
00
00
00
ENDCHAR

STARTCHAR U+00AD
ENCODING 173
SWIDTH 360 0
DWIDTH 7 0
BBX 7 14 0 -3
BITMAP
00
00
00
02
02
0A
0A
2A
2A
2A
2A
00
00
00
ENDCHAR

STARTCHAR U+00AE
ENCODING 174
SWIDTH 360 0
DWIDTH 7 0
BBX 7 14 0 -3
BITMAP
00
00
00
00
78
44
72
4A
6A
7E
00
00
00
00
ENDCHAR

STARTCHAR U+00AF
ENCODING 175
SWIDTH 360 0
DWIDTH 7 0
BBX 7 14 0 -3
BITMAP
00
00
00
00
66
5A
3C
3C
5A
66
00
00
00
00
ENDCHAR

STARTCHAR U+00B0
ENCODING 176
SWIDTH 360 0
DWIDTH 7 0
BBX 7 14 0 -3
BITMAP
00
00
70
50
70
00
00
00
00
00
00
00
00
00
ENDCHAR

STARTCHAR U+00B1
ENCODING 177
SWIDTH 360 0
DWIDTH 7 0
BBX 7 14 0 -3
BITMAP
00
00
00
18
1E
18
1E
18
3C
3C
18
00
00
00
ENDCHAR

STARTCHAR U+00B2
ENCODING 178
SWIDTH 360 0
DWIDTH 7 0
BBX 7 14 0 -3
BITMAP
00
00
00
3C
42
42
42
7E
7E
7E
7E
00
00
00
ENDCHAR

STARTCHAR U+00B3
ENCODING 179
SWIDTH 360 0
DWIDTH 7 0
BBX 7 14 0 -3
BITMAP
00
00
00
00
42
3C
3C
3C
3C
42
00
00
00
00
ENDCHAR

STARTCHAR U+00B4
ENCODING 180
SWIDTH 360 0
DWIDTH 7 0
BBX 7 14 0 -3
BITMAP
00
00
00
1C
1C
00
3C
1C
1C
1C
3E
00
00
00
ENDCHAR

STARTCHAR U+00B5
ENCODING 181
SWIDTH 360 0
DWIDTH 7 0
BBX 7 14 0 -3
BITMAP
00
00
04
08
18
30
3E
7C
0C
18
10
20
00
00
ENDCHAR

STARTCHAR U+00B6
ENCODING 182
SWIDTH 360 0
DWIDTH 7 0
BBX 7 14 0 -3
BITMAP
00
00
00
00
02
0A
6A
6A
0A
02
00
00
00
00
ENDCHAR

STARTCHAR U+00B7
ENCODING 183
SWIDTH 360 0
DWIDTH 7 0
BBX 7 14 0 -3
BITMAP
00
00
00
00
18
2C
6E
62
3C
18
00
00
00
00
ENDCHAR

STARTCHAR U+00B8
ENCODING 184
SWIDTH 360 0
DWIDTH 7 0
BBX 7 14 0 -3
BITMAP
00
00
00
00
7E
6E
6E
62
7E
7E
00
00
00
00
ENDCHAR

STARTCHAR U+00B9
ENCODING 185
SWIDTH 360 0
DWIDTH 7 0
BBX 7 14 0 -3
BITMAP
00
00
00
18
18
3C
3C
7E
66
66
42
00
00
00
ENDCHAR

STARTCHAR U+00BA
ENCODING 186
SWIDTH 360 0
DWIDTH 7 0
BBX 7 14 0 -3
BITMAP
00
00
00
00
3C
6E
7C
78
7E
3C
00
00
00
00
ENDCHAR

STARTCHAR U+00BB
ENCODING 187
SWIDTH 360 0
DWIDTH 7 0
BBX 7 14 0 -3
BITMAP
00
00
00
00
A0
50
28
14
28
50
A0
00
00
00
ENDCHAR

STARTCHAR U+00BC
ENCODING 188
SWIDTH 360 0
DWIDTH 7 0
BBX 7 14 0 -3
BITMAP
00
00
18
14
92
54
38
54
92
14
18
00
00
00
ENDCHAR

STARTCHAR U+00BD
ENCODING 189
SWIDTH 360 0
DWIDTH 7 0
BBX 7 14 0 -3
BITMAP
00
00
00
3C
7E
42
52
4A
52
42
3C
00
00
00
ENDCHAR

STARTCHAR U+00BE
ENCODING 190
SWIDTH 360 0
DWIDTH 7 0
BBX 7 14 0 -3
BITMAP
00
00
00
3C
7E
42
5A
42
5A
42
3C
00
00
00
ENDCHAR

STARTCHAR U+00BF
ENCODING 191
SWIDTH 360 0
DWIDTH 7 0
BBX 7 14 0 -3
BITMAP
00
00
00
00
08
4C
2A
1C
2A
4C
08
00
00
00
ENDCHAR

STARTCHAR U+00C0
ENCODING 192
SWIDTH 360 0
DWIDTH 7 0
BBX 7 14 0 -3
BITMAP
00
00
00
00
00
FC
86
86
FC
00
00
00
00
00
ENDCHAR

STARTCHAR U+00C1
ENCODING 193
SWIDTH 360 0
DWIDTH 7 0
BBX 7 14 0 -3
BITMAP
00
00
00
00
00
02
1A
1A
02
00
00
00
00
00
ENDCHAR

STARTCHAR U+00C2
ENCODING 194
SWIDTH 360 0
DWIDTH 7 0
BBX 7 14 0 -3
BITMAP
00
00
00
24
24
7E
7E
3C
18
18
18
00
00
00
ENDCHAR

STARTCHAR U+00C3
ENCODING 195
SWIDTH 360 0
DWIDTH 7 0
BBX 7 14 0 -3
BITMAP
00
00
00
00
04
0C
3A
34
08
14
00
00
00
00
ENDCHAR

STARTCHAR U+00C4
ENCODING 196
SWIDTH 360 0
DWIDTH 7 0
BBX 7 14 0 -3
BITMAP
00
00
00
00
02
06
1E
1E
06
02
00
00
00
00
ENDCHAR

STARTCHAR U+00C5
ENCODING 197
SWIDTH 360 0
DWIDTH 7 0
BBX 7 14 0 -3
BITMAP
00
00
00
00
08
18
7A
7A
18
08
00
00
00
00
ENDCHAR

STARTCHAR U+00C6
ENCODING 198
SWIDTH 360 0
DWIDTH 7 0
BBX 7 14 0 -3
BITMAP
00
00
00
00
2A
00
3E
3E
00
2A
00
00
00
00
ENDCHAR

STARTCHAR U+00C7
ENCODING 199
SWIDTH 360 0
DWIDTH 7 0
BBX 7 14 0 -3
BITMAP
00
00
00
00
72
3E
26
64
7C
4E
00
00
00
00
ENDCHAR

STARTCHAR U+00C8
ENCODING 200
SWIDTH 360 0
DWIDTH 7 0
BBX 7 14 0 -3
BITMAP
00
00
00
00
FE
EE
EE
E2
FE
FE
FE
00
00
00
ENDCHAR

STARTCHAR U+00C9
ENCODING 201
SWIDTH 360 0
DWIDTH 7 0
BBX 7 14 0 -3
BITMAP
00
00
00
00
7C
EE
EE
E2
FE
FE
7C
00
00
00
ENDCHAR

STARTCHAR U+00CA
ENCODING 202
SWIDTH 360 0
DWIDTH 7 0
BBX 7 14 0 -3
BITMAP
00
00
00
00
FE
7C
BA
C6
FE
FE
FE
00
00
00
ENDCHAR

STARTCHAR U+00CB
ENCODING 203
SWIDTH 360 0
DWIDTH 7 0
BBX 7 14 0 -3
BITMAP
00
00
00
00
FE
82
C6
BA
82
82
FE
00
00
00
ENDCHAR

STARTCHAR U+00CC
ENCODING 204
SWIDTH 360 0
DWIDTH 7 0
BBX 7 14 0 -3
BITMAP
00
00
00
00
00
FE
7C
BA
C6
FE
FE
00
00
00
ENDCHAR

STARTCHAR U+00CD
ENCODING 205
SWIDTH 360 0
DWIDTH 7 0
BBX 7 14 0 -3
BITMAP
00
00
00
00
00
FE
82
C6
BA
82
FE
00
00
00
ENDCHAR

STARTCHAR U+00CE
ENCODING 206
SWIDTH 360 0
DWIDTH 7 0
BBX 7 14 0 -3
BITMAP
00
00
00
AA
00
FE
FE
FE
FE
00
AA
00
00
00
ENDCHAR

STARTCHAR U+00CF
ENCODING 207
SWIDTH 360 0
DWIDTH 7 0
BBX 7 14 0 -3
BITMAP
00
00
00
08
0A
2A
2A
2C
18
08
08
00
00
00
ENDCHAR

STARTCHAR U+00D0
ENCODING 208
SWIDTH 360 0
DWIDTH 7 0
BBX 7 14 0 -3
BITMAP
00
00
00
00
FE
BA
D6
EE
D6
BA
FE
00
00
00
ENDCHAR

STARTCHAR U+00D1
ENCODING 209
SWIDTH 360 0
DWIDTH 7 0
BBX 7 14 0 -3
BITMAP
00
00
00
D6
C6
38
BA
BA
38
C6
D6
00
00
00
ENDCHAR

STARTCHAR U+00D2
ENCODING 210
SWIDTH 360 0
DWIDTH 7 0
BBX 7 14 0 -3
BITMAP
00
00
00
20
06
8E
1C
68
90
90
60
00
00
00
ENDCHAR

STARTCHAR U+00D3
ENCODING 211
SWIDTH 360 0
DWIDTH 7 0
BBX 7 14 0 -3
BITMAP
00
00
00
10
98
FC
FE
FC
18
10
00
00
00
00
ENDCHAR

STARTCHAR U+00D4
ENCODING 212
SWIDTH 360 0
DWIDTH 7 0
BBX 7 14 0 -3
BITMAP
00
00
00
10
32
7E
FE
7E
30
10
00
00
00
00
ENDCHAR

STARTCHAR U+00D5
ENCODING 213
SWIDTH 360 0
DWIDTH 7 0
BBX 7 14 0 -3
BITMAP
00
00
00
10
30
7E
FE
7E
32
10
00
00
00
00
ENDCHAR

STARTCHAR U+00D6
ENCODING 214
SWIDTH 360 0
DWIDTH 7 0
BBX 7 14 0 -3
BITMAP
00
00
00
10
18
FC
FE
FC
98
10
00
00
00
00
ENDCHAR

STARTCHAR U+00D7
ENCODING 215
SWIDTH 360 0
DWIDTH 7 0
BBX 7 14 0 -3
BITMAP
00
00
00
00
00
44
28
10
28
44
00
00
00
00
ENDCHAR

STARTCHAR U+00D8
ENCODING 216
SWIDTH 360 0
DWIDTH 7 0
BBX 7 14 0 -3
BITMAP
00
00
00
10
18
FC
FE
FC
18
10
00
00
00
00
ENDCHAR

STARTCHAR U+00D9
ENCODING 217
SWIDTH 360 0
DWIDTH 7 0
BBX 7 14 0 -3
BITMAP
00
00
00
10
30
7E
FE
7E
30
10
00
00
00
00
ENDCHAR

STARTCHAR U+00DA
ENCODING 218
SWIDTH 360 0
DWIDTH 7 0
BBX 7 14 0 -3
BITMAP
00
00
00
38
38
38
38
FE
7C
38
10
00
00
00
ENDCHAR

STARTCHAR U+00DB
ENCODING 219
SWIDTH 360 0
DWIDTH 7 0
BBX 7 14 0 -3
BITMAP
00
00
00
10
38
7C
FE
38
38
38
38
00
00
00
ENDCHAR

STARTCHAR U+00DC
ENCODING 220
SWIDTH 360 0
DWIDTH 7 0
BBX 7 14 0 -3
BITMAP
00
00
00
10
38
7C
FE
38
38
38
78
00
00
00
ENDCHAR

STARTCHAR U+00DD
ENCODING 221
SWIDTH 360 0
DWIDTH 7 0
BBX 7 14 0 -3
BITMAP
00
00
00
78
38
38
38
FE
7C
38
10
00
00
00
ENDCHAR

STARTCHAR U+00DE
ENCODING 222
SWIDTH 360 0
DWIDTH 7 0
BBX 7 14 0 -3
BITMAP
00
00
00
10
38
7C
FE
38
38
38
3C
00
00
00
ENDCHAR

STARTCHAR U+00DF
ENCODING 223
SWIDTH 360 0
DWIDTH 7 0
BBX 7 14 0 -3
BITMAP
00
00
00
3C
38
38
38
FE
7C
38
10
00
00
00
ENDCHAR

STARTCHAR U+00E0
ENCODING 224
SWIDTH 360 0
DWIDTH 7 0
BBX 7 14 0 -3
BITMAP
00
00
00
7C
82
82
82
82
EE
EE
6C
00
00
00
ENDCHAR

STARTCHAR U+00E1
ENCODING 225
SWIDTH 360 0
DWIDTH 7 0
BBX 7 14 0 -3
BITMAP
00
00
00
18
18
18
5A
42
3C
18
7E
00
00
00
ENDCHAR

STARTCHAR U+00E2
ENCODING 226
SWIDTH 360 0
DWIDTH 7 0
BBX 7 14 0 -3
BITMAP
00
00
00
00
22
26
2E
2E
26
22
00
00
00
00
ENDCHAR

STARTCHAR U+00E3
ENCODING 227
SWIDTH 360 0
DWIDTH 7 0
BBX 7 14 0 -3
BITMAP
00
00
00
00
12
36
7E
7E
36
12
00
00
00
00
ENDCHAR

STARTCHAR U+00E4
ENCODING 228
SWIDTH 360 0
DWIDTH 7 0
BBX 7 14 0 -3
BITMAP
00
00
00
00
1C
3E
3E
3E
3E
1C
00
00
00
00
ENDCHAR

STARTCHAR U+00E5
ENCODING 229
SWIDTH 360 0
DWIDTH 7 0
BBX 7 14 0 -3
BITMAP
00
00
00
00
3E
3E
3E
3E
3E
3E
00
00
00
00
ENDCHAR

STARTCHAR U+00E6
ENCODING 230
SWIDTH 360 0
DWIDTH 7 0
BBX 7 14 0 -3
BITMAP
00
00
00
00
08
0C
0E
0E
0C
08
00
00
00
00
ENDCHAR

STARTCHAR U+00E7
ENCODING 231
SWIDTH 360 0
DWIDTH 7 0
BBX 7 14 0 -3
BITMAP
00
00
00
00
36
36
36
36
36
36
00
00
00
00
ENDCHAR

STARTCHAR U+00E8
ENCODING 232
SWIDTH 360 0
DWIDTH 7 0
BBX 7 14 0 -3
BITMAP
00
00
00
00
48
6C
7E
7E
6C
48
00
00
00
00
ENDCHAR

STARTCHAR U+00E9
ENCODING 233
SWIDTH 360 0
DWIDTH 7 0
BBX 7 14 0 -3
BITMAP
00
00
00
00
22
32
3A
3A
32
22
00
00
00
00
ENDCHAR

STARTCHAR U+00EA
ENCODING 234
SWIDTH 360 0
DWIDTH 7 0
BBX 7 14 0 -3
BITMAP
00
00
00
3E
3E
22
22
22
66
EE
CC
00
00
00
ENDCHAR

STARTCHAR U+00EB
ENCODING 235
SWIDTH 360 0
DWIDTH 7 0
BBX 7 14 0 -3
BITMAP
00
00
00
08
18
7A
74
68
50
28
48
00
00
00
ENDCHAR

STARTCHAR U+00EC
ENCODING 236
SWIDTH 360 0
DWIDTH 7 0
BBX 7 14 0 -3
BITMAP
00
00
00
02
06
1E
1E
1E
1E
06
02
00
00
00
ENDCHAR

STARTCHAR U+00ED
ENCODING 237
SWIDTH 360 0
DWIDTH 7 0
BBX 7 14 0 -3
BITMAP
00
00
00
08
18
7A
7A
7A
7A
18
08
00
00
00
ENDCHAR

STARTCHAR U+00EE
ENCODING 238
SWIDTH 360 0
DWIDTH 7 0
BBX 7 14 0 -3
BITMAP
00
00
00
18
7E
42
42
42
42
42
7E
00
00
00
ENDCHAR

STARTCHAR U+00EF
ENCODING 239
SWIDTH 360 0
DWIDTH 7 0
BBX 7 14 0 -3
BITMAP
00
00
00
18
7E
42
42
52
5A
42
7E
00
00
00
ENDCHAR

STARTCHAR U+00F0
ENCODING 240
SWIDTH 360 0
DWIDTH 7 0
BBX 7 14 0 -3
BITMAP
00
00
00
18
7E
42
5A
5A
5A
42
7E
00
00
00
ENDCHAR

STARTCHAR U+00F1
ENCODING 241
SWIDTH 360 0
DWIDTH 7 0
BBX 7 14 0 -3
BITMAP
00
00
00
08
3E
22
22
22
22
22
3E
00
00
00
ENDCHAR

STARTCHAR U+00F2
ENCODING 242
SWIDTH 360 0
DWIDTH 7 0
BBX 7 14 0 -3
BITMAP
00
00
00
08
3E
22
22
2A
2A
22
3E
00
00
00
ENDCHAR

STARTCHAR U+00F3
ENCODING 243
SWIDTH 360 0
DWIDTH 7 0
BBX 7 14 0 -3
BITMAP
00
00
00
08
3E
22
2A
2A
2A
22
3E
00
00
00
ENDCHAR

STARTCHAR U+00F4
ENCODING 244
SWIDTH 360 0
DWIDTH 7 0
BBX 7 14 0 -3
BITMAP
00
00
00
FE
FE
C6
C6
C6
C6
FE
FE
00
00
00
ENDCHAR

STARTCHAR U+00F5
ENCODING 245
SWIDTH 360 0
DWIDTH 7 0
BBX 7 14 0 -3
BITMAP
00
00
00
EE
EE
EE
EE
00
D6
D6
D6
00
00
00
ENDCHAR

STARTCHAR U+00F6
ENCODING 246
SWIDTH 360 0
DWIDTH 7 0
BBX 7 14 0 -3
BITMAP
00
00
00
EE
EE
E0
EE
0E
E0
EE
EE
00
00
00
ENDCHAR

STARTCHAR U+00F7
ENCODING 247
SWIDTH 360 0
DWIDTH 7 0
BBX 7 14 0 -3
BITMAP
00
00
00
00
FC
84
B6
B6
84
FC
00
00
00
00
ENDCHAR

STARTCHAR U+00F8
ENCODING 248
SWIDTH 360 0
DWIDTH 7 0
BBX 7 14 0 -3
BITMAP
00
00
00
EE
EE
EE
EE
E0
EA
E2
EA
00
00
00
ENDCHAR

STARTCHAR U+00F9
ENCODING 249
SWIDTH 360 0
DWIDTH 7 0
BBX 7 14 0 -3
BITMAP
00
00
00
EE
EE
EE
EE
E0
EA
E8
EA
00
00
00
ENDCHAR

STARTCHAR U+00FA
ENCODING 250
SWIDTH 360 0
DWIDTH 7 0
BBX 7 14 0 -3
BITMAP
00
00
00
D6
D6
00
D6
D6
00
D6
D6
00
00
00
ENDCHAR

STARTCHAR U+00FB
ENCODING 251
SWIDTH 360 0
DWIDTH 7 0
BBX 7 14 0 -3
BITMAP
00
00
00
FE
FE
FE
FE
00
FE
00
FE
00
00
00
ENDCHAR

STARTCHAR U+00FC
ENCODING 252
SWIDTH 360 0
DWIDTH 7 0
BBX 7 14 0 -3
BITMAP
00
00
00
FE
FE
FE
FE
00
EE
EE
EE
00
00
00
ENDCHAR

STARTCHAR U+00FD
ENCODING 253
SWIDTH 360 0
DWIDTH 7 0
BBX 7 14 0 -3
BITMAP
00
00
00
EE
EE
EE
0E
FE
FE
FE
FE
00
00
00
ENDCHAR

STARTCHAR U+00FE
ENCODING 254
SWIDTH 360 0
DWIDTH 7 0
BBX 7 14 0 -3
BITMAP
00
00
00
EE
EE
E0
EE
EE
E0
EE
EE
00
00
00
ENDCHAR

STARTCHAR U+00FF
ENCODING 255
SWIDTH 360 0
DWIDTH 7 0
BBX 7 14 0 -3
BITMAP
00
00
00
FE
FE
FE
FE
FE
FE
FE
FE
00
00
00
ENDCHAR

ENDFONT
