STARTFONT 2.1
FONT -FontForge-Raize-Normal-R-Normal--19-180-75-75-M-110-ISO8859-1
SIZE 18 75 75
FONTBOUNDINGBOX 11 22 0 -4

STARTPROPERTIES 36
FOUNDRY "FontForge"
FAMILY_NAME "Raize"
WEIGHT_NAME "Normal"
SLANT "R"
SETWIDTH_NAME "Normal"
ADD_STYLE_NAME ""
PIXEL_SIZE 19
POINT_SIZE 180
RESOLUTION_X 75
RESOLUTION_Y 75
SPACING "M"
AVERAGE_WIDTH 110
CHARSET_REGISTRY "ISO8859"
CHARSET_ENCODING "1"
FONTNAME_REGISTRY ""
CHARSET_COLLECTIONS "ISOLatin1Encoding"
FONT_NAME "RaizeNormal"
FACE_NAME "Raize"
FONT_VERSION "001.000"
UNDERLINE_POSITION 4294967294
UNDERLINE_THICKNESS 1
X_HEIGHT 7
CAP_HEIGHT 13
RAW_ASCENT 800
RAW_DESCENT 200
NORM_SPACE 11
RELATIVE_WEIGHT 40
RELATIVE_SETWIDTH 50
FIGURE_WIDTH 11
AVG_LOWERCASE_WIDTH 110
AVG_UPPERCASE_WIDTH 110
WEIGHT 10
QUAD_WIDTH 11
DEFAULT_CHAR 0
FONT_DESCENT 4
FONT_ASCENT 15
ENDPROPERTIES

CHARS 192

STARTCHAR space
ENCODING 32
SWIDTH 579 0
DWIDTH 11 0
BBX 1 1 10 -4
BITMAP
00
ENDCHAR

STARTCHAR exclam
ENCODING 33
SWIDTH 579 0
DWIDTH 11 0
BBX 3 14 4 0
BITMAP
E0
E0
E0
E0
E0
E0
E0
E0
E0
00
00
E0
E0
E0
ENDCHAR

STARTCHAR quotedbl
ENCODING 34
SWIDTH 579 0
DWIDTH 11 0
BBX 6 4 2 10
BITMAP
CC
CC
CC
CC
ENDCHAR

STARTCHAR numbersign
ENCODING 35
SWIDTH 579 0
DWIDTH 11 0
BBX 10 14 0 0
BITMAP
1980
1980
1980
1980
7FC0
3300
3300
3300
3300
FF80
6600
6600
6600
6600
ENDCHAR

STARTCHAR dollar
ENCODING 36
SWIDTH 579 0
DWIDTH 11 0
BBX 9 15 1 0
BITMAP
0800
0800
7F00
C980
C800
C800
C800
7F00
0980
0980
0980
C980
7F00
0800
0800
ENDCHAR

STARTCHAR percent
ENCODING 37
SWIDTH 579 0
DWIDTH 11 0
BBX 11 12 0 2
BITMAP
7000
D840
D8C0
D980
7300
0600
0C00
19C0
3360
6360
C360
01C0
ENDCHAR

STARTCHAR ampersand
ENCODING 38
SWIDTH 579 0
DWIDTH 11 0
BBX 10 13 0 0
BITMAP
1C00
3600
3600
3600
3C00
1800
3800
6D80
C780
C300
C300
C780
7CC0
ENDCHAR

STARTCHAR quotesingle
ENCODING 39
SWIDTH 579 0
DWIDTH 11 0
BBX 3 5 4 9
BITMAP
E0
E0
E0
60
C0
ENDCHAR

STARTCHAR parenleft
ENCODING 40
SWIDTH 579 0
DWIDTH 11 0
BBX 4 16 4 -2
BITMAP
30
60
60
C0
C0
C0
C0
C0
C0
C0
C0
C0
C0
60
60
30
ENDCHAR

STARTCHAR parenright
ENCODING 41
SWIDTH 579 0
DWIDTH 11 0
BBX 4 16 3 -2
BITMAP
C0
60
60
30
30
30
30
30
30
30
30
30
30
60
60
C0
ENDCHAR

STARTCHAR asterisk
ENCODING 42
SWIDTH 579 0
DWIDTH 11 0
BBX 9 7 1 4
BITMAP
6300
3600
1C00
FF80
1C00
3600
6300
ENDCHAR

STARTCHAR plus
ENCODING 43
SWIDTH 579 0
DWIDTH 11 0
BBX 8 7 1 4
BITMAP
18
18
18
FF
18
18
18
ENDCHAR

STARTCHAR comma
ENCODING 44
SWIDTH 579 0
DWIDTH 11 0
BBX 3 5 4 -2
BITMAP
E0
E0
E0
60
C0
ENDCHAR

STARTCHAR hyphen
ENCODING 45
SWIDTH 579 0
DWIDTH 11 0
BBX 8 1 1 7
BITMAP
FF
ENDCHAR

STARTCHAR period
ENCODING 46
SWIDTH 579 0
DWIDTH 11 0
BBX 3 3 4 0
BITMAP
E0
E0
E0
ENDCHAR

STARTCHAR slash
ENCODING 47
SWIDTH 579 0
DWIDTH 11 0
BBX 8 14 1 0
BITMAP
03
03
06
06
0C
0C
18
18
30
30
60
60
C0
C0
ENDCHAR

STARTCHAR zero
ENCODING 48
SWIDTH 579 0
DWIDTH 11 0
BBX 9 14 1 0
BITMAP
3E00
6300
C180
C180
C380
C780
CD80
D980
F180
E180
C180
C180
6300
3E00
ENDCHAR

STARTCHAR one
ENCODING 49
SWIDTH 579 0
DWIDTH 11 0
BBX 8 14 1 0
BITMAP
18
38
78
18
18
18
18
18
18
18
18
18
18
FF
ENDCHAR

STARTCHAR two
ENCODING 50
SWIDTH 579 0
DWIDTH 11 0
BBX 9 14 1 0
BITMAP
3E00
6300
C180
0180
0180
0300
0600
0C00
1800
3000
6000
C000
C000
FF80
ENDCHAR

STARTCHAR three
ENCODING 51
SWIDTH 579 0
DWIDTH 11 0
BBX 9 14 1 0
BITMAP
3E00
6300
C180
0180
0180
0300
1E00
0300
0180
0180
0180
C180
6300
3E00
ENDCHAR

STARTCHAR four
ENCODING 52
SWIDTH 579 0
DWIDTH 11 0
BBX 9 14 1 0
BITMAP
0180
0380
0780
0D80
1980
3180
6180
C180
C180
FF80
0180
0180
0180
0180
ENDCHAR

STARTCHAR five
ENCODING 53
SWIDTH 579 0
DWIDTH 11 0
BBX 9 14 1 0
BITMAP
FF80
C000
C000
C000
C000
C000
FE00
0300
0180
0180
C180
C180
6300
3E00
ENDCHAR

STARTCHAR six
ENCODING 54
SWIDTH 579 0
DWIDTH 11 0
BBX 9 14 1 0
BITMAP
1E00
3000
6000
C000
C000
C000
FE00
C300
C180
C180
C180
C180
6300
3E00
ENDCHAR

STARTCHAR seven
ENCODING 55
SWIDTH 579 0
DWIDTH 11 0
BBX 9 14 1 0
BITMAP
FF80
C180
C180
0300
0300
0300
0600
0600
0600
0C00
0C00
0C00
1800
1800
ENDCHAR

STARTCHAR eight
ENCODING 56
SWIDTH 579 0
DWIDTH 11 0
BBX 9 14 1 0
BITMAP
3E00
6300
C180
C180
C180
6300
3E00
6300
C180
C180
C180
C180
6300
3E00
ENDCHAR

STARTCHAR nine
ENCODING 57
SWIDTH 579 0
DWIDTH 11 0
BBX 9 14 1 0
BITMAP
3E00
6300
C180
C180
C180
C180
6180
3F80
0180
0180
0180
0300
0600
3C00
ENDCHAR

STARTCHAR colon
ENCODING 58
SWIDTH 579 0
DWIDTH 11 0
BBX 3 10 4 0
BITMAP
E0
E0
E0
00
00
00
00
E0
E0
E0
ENDCHAR

STARTCHAR semicolon
ENCODING 59
SWIDTH 579 0
DWIDTH 11 0
BBX 3 12 4 -2
BITMAP
E0
E0
E0
00
00
00
00
E0
E0
E0
60
C0
ENDCHAR

STARTCHAR less
ENCODING 60
SWIDTH 579 0
DWIDTH 11 0
BBX 8 13 1 0
BITMAP
03
06
0C
18
30
60
C0
60
30
18
0C
06
03
ENDCHAR

STARTCHAR equal
ENCODING 61
SWIDTH 579 0
DWIDTH 11 0
BBX 9 5 1 3
BITMAP
FF80
0000
0000
0000
FF80
ENDCHAR

STARTCHAR greater
ENCODING 62
SWIDTH 579 0
DWIDTH 11 0
BBX 8 13 1 0
BITMAP
C0
60
30
18
0C
06
03
06
0C
18
30
60
C0
ENDCHAR

STARTCHAR question
ENCODING 63
SWIDTH 579 0
DWIDTH 11 0
BBX 9 14 1 0
BITMAP
7F00
E380
E380
E380
0380
0700
0E00
1C00
1C00
1C00
0000
1C00
1C00
1C00
ENDCHAR

STARTCHAR at
ENCODING 64
SWIDTH 579 0
DWIDTH 11 0
BBX 11 12 0 1
BITMAP
3F80
60C0
C060
CF60
DB60
DB60
DB60
DB60
CFC0
C000
6000
3F80
ENDCHAR

STARTCHAR A
ENCODING 65
SWIDTH 579 0
DWIDTH 11 0
BBX 10 14 0 0
BITMAP
1E00
3300
6180
C0C0
C0C0
C0C0
C0C0
FFC0
C0C0
C0C0
C0C0
C0C0
C0C0
C0C0
ENDCHAR

STARTCHAR B
ENCODING 66
SWIDTH 579 0
DWIDTH 11 0
BBX 10 14 0 0
BITMAP
FF00
C180
C0C0
C0C0
C0C0
C180
FF00
C180
C0C0
C0C0
C0C0
C0C0
C180
FF00
ENDCHAR

STARTCHAR C
ENCODING 67
SWIDTH 579 0
DWIDTH 11 0
BBX 10 14 0 0
BITMAP
3F00
6180
C0C0
C000
C000
C000
C000
C000
C000
C000
C000
C0C0
6180
3F00
ENDCHAR

STARTCHAR D
ENCODING 68
SWIDTH 579 0
DWIDTH 11 0
BBX 10 14 0 0
BITMAP
FF00
C180
C0C0
C0C0
C0C0
C0C0
C0C0
C0C0
C0C0
C0C0
C0C0
C0C0
C180
FF00
ENDCHAR

STARTCHAR E
ENCODING 69
SWIDTH 579 0
DWIDTH 11 0
BBX 10 14 0 0
BITMAP
FFC0
C000
C000
C000
C000
C000
FF80
C000
C000
C000
C000
C000
C000
FFC0
ENDCHAR

STARTCHAR F
ENCODING 70
SWIDTH 579 0
DWIDTH 11 0
BBX 10 14 0 0
BITMAP
FFC0
C000
C000
C000
C000
C000
FF80
C000
C000
C000
C000
C000
C000
C000
ENDCHAR

STARTCHAR G
ENCODING 71
SWIDTH 579 0
DWIDTH 11 0
BBX 10 14 0 0
BITMAP
3F00
6180
C0C0
C000
C000
C000
C000
C7C0
C0C0
C0C0
C0C0
C0C0
60C0
3FC0
ENDCHAR

STARTCHAR H
ENCODING 72
SWIDTH 579 0
DWIDTH 11 0
BBX 10 14 0 0
BITMAP
C0C0
C0C0
C0C0
C0C0
C0C0
C0C0
FFC0
C0C0
C0C0
C0C0
C0C0
C0C0
C0C0
C0C0
ENDCHAR

STARTCHAR I
ENCODING 73
SWIDTH 579 0
DWIDTH 11 0
BBX 10 14 0 0
BITMAP
FFC0
0C00
0C00
0C00
0C00
0C00
0C00
0C00
0C00
0C00
0C00
0C00
0C00
FFC0
ENDCHAR

STARTCHAR J
ENCODING 74
SWIDTH 579 0
DWIDTH 11 0
BBX 10 14 0 0
BITMAP
00C0
00C0
00C0
00C0
00C0
00C0
00C0
00C0
00C0
00C0
C0C0
C0C0
6180
3F00
ENDCHAR

STARTCHAR K
ENCODING 75
SWIDTH 579 0
DWIDTH 11 0
BBX 10 14 0 0
BITMAP
C0C0
C180
C300
C600
CC00
D800
F000
F000
D800
CC00
C600
C300
C180
C0C0
ENDCHAR

STARTCHAR L
ENCODING 76
SWIDTH 579 0
DWIDTH 11 0
BBX 10 14 0 0
BITMAP
C000
C000
C000
C000
C000
C000
C000
C000
C000
C000
C000
C000
C000
FFC0
ENDCHAR

STARTCHAR M
ENCODING 77
SWIDTH 579 0
DWIDTH 11 0
BBX 10 14 0 0
BITMAP
8040
C0C0
E1C0
F3C0
FFC0
DEC0
CCC0
C0C0
C0C0
C0C0
C0C0
C0C0
C0C0
C0C0
ENDCHAR

STARTCHAR N
ENCODING 78
SWIDTH 579 0
DWIDTH 11 0
BBX 10 14 0 0
BITMAP
80C0
C0C0
E0C0
F0C0
F8C0
DCC0
CEC0
C7C0
C3C0
C1C0
C0C0
C0C0
C0C0
C0C0
ENDCHAR

STARTCHAR O
ENCODING 79
SWIDTH 579 0
DWIDTH 11 0
BBX 10 14 0 0
BITMAP
3F00
6180
C0C0
C0C0
C0C0
C0C0
C0C0
C0C0
C0C0
C0C0
C0C0
C0C0
6180
3F00
ENDCHAR

STARTCHAR P
ENCODING 80
SWIDTH 579 0
DWIDTH 11 0
BBX 10 14 0 0
BITMAP
FF00
C180
C0C0
C0C0
C0C0
C0C0
C180
FF00
C000
C000
C000
C000
C000
C000
ENDCHAR

STARTCHAR Q
ENCODING 81
SWIDTH 579 0
DWIDTH 11 0
BBX 10 15 0 -1
BITMAP
3F00
6180
C0C0
C0C0
C0C0
C0C0
C0C0
C0C0
C0C0
C0C0
C0C0
C6C0
6380
3F80
00C0
ENDCHAR

STARTCHAR R
ENCODING 82
SWIDTH 579 0
DWIDTH 11 0
BBX 10 14 0 0
BITMAP
FF00
C180
C0C0
C0C0
C0C0
C0C0
C180
FF00
C180
C0C0
C0C0
C0C0
C0C0
C0C0
ENDCHAR

STARTCHAR S
ENCODING 83
SWIDTH 579 0
DWIDTH 11 0
BBX 10 14 0 0
BITMAP
3F00
6180
C0C0
C000
C000
6000
3F00
0180
00C0
00C0
00C0
C0C0
6180
3F00
ENDCHAR

STARTCHAR T
ENCODING 84
SWIDTH 579 0
DWIDTH 11 0
BBX 10 14 0 0
BITMAP
FFC0
0C00
0C00
0C00
0C00
0C00
0C00
0C00
0C00
0C00
0C00
0C00
0C00
0C00
ENDCHAR

STARTCHAR U
ENCODING 85
SWIDTH 579 0
DWIDTH 11 0
BBX 10 14 0 0
BITMAP
C0C0
C0C0
C0C0
C0C0
C0C0
C0C0
C0C0
C0C0
C0C0
C0C0
C0C0
C0C0
6180
3F00
ENDCHAR

STARTCHAR V
ENCODING 86
SWIDTH 579 0
DWIDTH 11 0
BBX 10 14 0 0
BITMAP
C0C0
C0C0
C0C0
6180
6180
6180
3300
3300
3300
1E00
1E00
1E00
0C00
0C00
ENDCHAR

STARTCHAR W
ENCODING 87
SWIDTH 579 0
DWIDTH 11 0
BBX 10 14 0 0
BITMAP
C0C0
C0C0
C0C0
C0C0
C0C0
C0C0
CCC0
CCC0
CCC0
CCC0
CCC0
CCC0
FFC0
7380
ENDCHAR

STARTCHAR X
ENCODING 88
SWIDTH 579 0
DWIDTH 11 0
BBX 10 14 0 0
BITMAP
C0C0
C0C0
C0C0
6180
3300
1E00
0C00
1E00
3300
6180
C0C0
C0C0
C0C0
C0C0
ENDCHAR

STARTCHAR Y
ENCODING 89
SWIDTH 579 0
DWIDTH 11 0
BBX 10 14 0 0
BITMAP
C0C0
C0C0
C0C0
C0C0
C0C0
6180
3300
1E00
0C00
0C00
0C00
0C00
0C00
0C00
ENDCHAR

STARTCHAR Z
ENCODING 90
SWIDTH 579 0
DWIDTH 11 0
BBX 10 14 0 0
BITMAP
FFC0
00C0
00C0
0180
0300
0600
0C00
1800
3000
6000
C000
C000
C000
FFC0
ENDCHAR

STARTCHAR bracketleft
ENCODING 91
SWIDTH 579 0
DWIDTH 11 0
BBX 4 16 4 -2
BITMAP
F0
C0
C0
C0
C0
C0
C0
C0
C0
C0
C0
C0
C0
C0
C0
F0
ENDCHAR

STARTCHAR backslash
ENCODING 92
SWIDTH 579 0
DWIDTH 11 0
BBX 8 14 1 0
BITMAP
C0
C0
60
60
30
30
18
18
0C
0C
06
06
03
03
ENDCHAR

STARTCHAR bracketright
ENCODING 93
SWIDTH 579 0
DWIDTH 11 0
BBX 4 16 3 -2
BITMAP
F0
30
30
30
30
30
30
30
30
30
30
30
30
30
30
F0
ENDCHAR

STARTCHAR asciicircum
ENCODING 94
SWIDTH 579 0
DWIDTH 11 0
BBX 9 5 1 9
BITMAP
0800
1C00
3600
6300
C180
ENDCHAR

STARTCHAR underscore
ENCODING 95
SWIDTH 579 0
DWIDTH 11 0
BBX 11 1 0 -1
BITMAP
FFE0
ENDCHAR

STARTCHAR grave
ENCODING 96
SWIDTH 579 0
DWIDTH 11 0
BBX 2 4 4 10
BITMAP
C0
C0
80
40
ENDCHAR

STARTCHAR a
ENCODING 97
SWIDTH 579 0
DWIDTH 11 0
BBX 8 8 1 0
BITMAP
7E
03
03
7F
C3
C3
C3
7F
ENDCHAR

STARTCHAR b
ENCODING 98
SWIDTH 579 0
DWIDTH 11 0
BBX 8 14 1 0
BITMAP
C0
C0
C0
C0
C0
C0
DE
E3
C3
C3
C3
C3
C3
FE
ENDCHAR

STARTCHAR c
ENCODING 99
SWIDTH 579 0
DWIDTH 11 0
BBX 8 8 1 0
BITMAP
7E
C3
C0
C0
C0
C0
C3
7E
ENDCHAR

STARTCHAR d
ENCODING 100
SWIDTH 579 0
DWIDTH 11 0
BBX 8 14 1 0
BITMAP
03
03
03
03
03
03
7F
C3
C3
C3
C3
C3
C7
7B
ENDCHAR

STARTCHAR e
ENCODING 101
SWIDTH 579 0
DWIDTH 11 0
BBX 8 8 1 0
BITMAP
7E
C3
C3
FF
C0
C0
C3
7E
ENDCHAR

STARTCHAR f
ENCODING 102
SWIDTH 579 0
DWIDTH 11 0
BBX 10 14 0 0
BITMAP
0F00
1980
30C0
3000
3000
3000
FF00
3000
3000
3000
3000
3000
3000
3000
ENDCHAR

STARTCHAR g
ENCODING 103
SWIDTH 579 0
DWIDTH 11 0
BBX 8 11 1 -3
BITMAP
7F
C3
C3
C3
C3
C3
C7
7B
03
C3
7E
ENDCHAR

STARTCHAR h
ENCODING 104
SWIDTH 579 0
DWIDTH 11 0
BBX 8 14 1 0
BITMAP
C0
C0
C0
C0
C0
C0
DE
E3
C3
C3
C3
C3
C3
C3
ENDCHAR

STARTCHAR i
ENCODING 105
SWIDTH 579 0
DWIDTH 11 0
BBX 8 12 1 0
BITMAP
18
18
00
00
78
18
18
18
18
18
18
FF
ENDCHAR

STARTCHAR j
ENCODING 106
SWIDTH 579 0
DWIDTH 11 0
BBX 8 15 1 -3
BITMAP
03
03
00
00
03
03
03
03
03
03
03
03
C3
C3
7E
ENDCHAR

STARTCHAR k
ENCODING 107
SWIDTH 579 0
DWIDTH 11 0
BBX 8 14 1 0
BITMAP
C0
C0
C0
C0
C0
C0
C6
CC
D8
F0
D8
CC
C6
C3
ENDCHAR

STARTCHAR l
ENCODING 108
SWIDTH 579 0
DWIDTH 11 0
BBX 8 14 1 0
BITMAP
78
18
18
18
18
18
18
18
18
18
18
18
18
FF
ENDCHAR

STARTCHAR m
ENCODING 109
SWIDTH 579 0
DWIDTH 11 0
BBX 10 8 0 0
BITMAP
FF80
CCC0
CCC0
CCC0
CCC0
CCC0
CCC0
CCC0
ENDCHAR

STARTCHAR n
ENCODING 110
SWIDTH 579 0
DWIDTH 11 0
BBX 8 8 1 0
BITMAP
DE
E3
C3
C3
C3
C3
C3
C3
ENDCHAR

STARTCHAR o
ENCODING 111
SWIDTH 579 0
DWIDTH 11 0
BBX 8 8 1 0
BITMAP
7E
C3
C3
C3
C3
C3
C3
7E
ENDCHAR

STARTCHAR p
ENCODING 112
SWIDTH 579 0
DWIDTH 11 0
BBX 8 11 1 -3
BITMAP
DE
E3
C3
C3
C3
C3
C3
FE
C0
C0
C0
ENDCHAR

STARTCHAR q
ENCODING 113
SWIDTH 579 0
DWIDTH 11 0
BBX 8 11 1 -3
BITMAP
7F
C3
C3
C3
C3
C3
C7
7B
03
03
03
ENDCHAR

STARTCHAR r
ENCODING 114
SWIDTH 579 0
DWIDTH 11 0
BBX 8 8 1 0
BITMAP
DE
E3
C0
C0
C0
C0
C0
C0
ENDCHAR

STARTCHAR s
ENCODING 115
SWIDTH 579 0
DWIDTH 11 0
BBX 8 8 1 0
BITMAP
7E
C3
C0
7E
03
03
C3
7E
ENDCHAR

STARTCHAR t
ENCODING 116
SWIDTH 579 0
DWIDTH 11 0
BBX 9 12 1 0
BITMAP
3000
3000
3000
3000
FE00
3000
3000
3000
3000
3000
3180
1F00
ENDCHAR

STARTCHAR u
ENCODING 117
SWIDTH 579 0
DWIDTH 11 0
BBX 8 8 1 0
BITMAP
C3
C3
C3
C3
C3
C3
C7
7B
ENDCHAR

STARTCHAR v
ENCODING 118
SWIDTH 579 0
DWIDTH 11 0
BBX 9 8 1 0
BITMAP
C180
C180
C180
C180
6300
3600
1C00
0800
ENDCHAR

STARTCHAR w
ENCODING 119
SWIDTH 579 0
DWIDTH 11 0
BBX 10 8 0 0
BITMAP
CCC0
CCC0
CCC0
CCC0
CCC0
CCC0
FFC0
7380
ENDCHAR

STARTCHAR x
ENCODING 120
SWIDTH 579 0
DWIDTH 11 0
BBX 9 8 0 0
BITMAP
C180
6300
3600
1C00
1C00
3600
6300
C180
ENDCHAR

STARTCHAR y
ENCODING 121
SWIDTH 579 0
DWIDTH 11 0
BBX 8 11 1 -3
BITMAP
C3
C3
66
66
3C
3C
18
18
30
30
60
ENDCHAR

STARTCHAR z
ENCODING 122
SWIDTH 579 0
DWIDTH 11 0
BBX 8 8 1 0
BITMAP
FF
07
0E
1C
38
70
E0
FF
ENDCHAR

STARTCHAR braceleft
ENCODING 123
SWIDTH 579 0
DWIDTH 11 0
BBX 5 17 2 -2
BITMAP
18
30
30
30
30
30
30
30
E0
30
30
30
30
30
30
30
18
ENDCHAR

STARTCHAR bar
ENCODING 124
SWIDTH 579 0
DWIDTH 11 0
BBX 2 14 4 0
BITMAP
C0
C0
C0
C0
C0
C0
C0
C0
C0
C0
C0
C0
C0
C0
ENDCHAR

STARTCHAR braceright
ENCODING 125
SWIDTH 579 0
DWIDTH 11 0
BBX 5 17 4 -2
BITMAP
C0
60
60
60
60
60
60
60
38
60
60
60
60
60
60
60
C0
ENDCHAR

STARTCHAR asciitilde
ENCODING 126
SWIDTH 579 0
DWIDTH 11 0
BBX 9 3 1 11
BITMAP
7980
DD80
CF00
ENDCHAR

STARTCHAR uni007F
ENCODING 127
SWIDTH 579 0
DWIDTH 11 0
BBX 3 14 4 0
BITMAP
E0
E0
E0
E0
E0
E0
E0
E0
E0
E0
E0
E0
E0
E0
ENDCHAR

STARTCHAR uni00A0
ENCODING 160
SWIDTH 579 0
DWIDTH 11 0
BBX 1 1 10 -4
BITMAP
00
ENDCHAR

STARTCHAR exclamdown
ENCODING 161
SWIDTH 579 0
DWIDTH 11 0
BBX 2 14 4 0
BITMAP
C0
C0
00
C0
C0
C0
C0
C0
C0
C0
C0
C0
C0
C0
ENDCHAR

STARTCHAR cent
ENCODING 162
SWIDTH 579 0
DWIDTH 11 0
BBX 9 11 1 -1
BITMAP
0800
0800
7F00
C980
C800
C800
C800
C980
7F00
0800
0800
ENDCHAR

STARTCHAR sterling
ENCODING 163
SWIDTH 579 0
DWIDTH 11 0
BBX 9 14 1 0
BITMAP
1F00
3180
3180
3000
3000
3000
7C00
3000
3000
3000
3000
3000
6000
FF80
ENDCHAR

STARTCHAR currency
ENCODING 164
SWIDTH 579 0
DWIDTH 11 0
BBX 9 8 1 4
BITMAP
C180
7F00
6300
6300
6300
6300
7F00
C180
ENDCHAR

STARTCHAR yen
ENCODING 165
SWIDTH 579 0
DWIDTH 11 0
BBX 10 14 0 0
BITMAP
C0C0
C0C0
C0C0
C0C0
C0C0
6180
3300
1E00
0C00
7F80
0C00
0C00
0C00
0C00
ENDCHAR

STARTCHAR brokenbar
ENCODING 166
SWIDTH 579 0
DWIDTH 11 0
BBX 2 16 4 -2
BITMAP
C0
C0
C0
C0
C0
C0
C0
00
C0
C0
C0
C0
C0
C0
C0
C0
ENDCHAR

STARTCHAR section
ENCODING 167
SWIDTH 579 0
DWIDTH 11 0
BBX 8 15 1 -1
BITMAP
7F
C0
C0
C0
C0
7E
C3
C3
C3
7E
03
03
03
03
FE
ENDCHAR

STARTCHAR dieresis
ENCODING 168
SWIDTH 579 0
DWIDTH 11 0
BBX 6 2 2 15
BITMAP
CC
CC
ENDCHAR

STARTCHAR copyright
ENCODING 169
SWIDTH 579 0
DWIDTH 11 0
BBX 10 10 0 1
BITMAP
3F00
4080
9E40
B340
B040
B040
B340
9E40
4080
3F00
ENDCHAR

STARTCHAR ordfeminine
ENCODING 170
SWIDTH 579 0
DWIDTH 11 0
BBX 5 8 3 6
BITMAP
70
18
78
D8
D8
78
00
F8
ENDCHAR

STARTCHAR guillemotleft
ENCODING 171
SWIDTH 579 0
DWIDTH 11 0
BBX 10 9 0 1
BITMAP
0CC0
1980
3300
6600
CC00
6600
3300
1980
0CC0
ENDCHAR

STARTCHAR logicalnot
ENCODING 172
SWIDTH 579 0
DWIDTH 11 0
BBX 9 3 1 5
BITMAP
FF80
0180
0180
ENDCHAR

STARTCHAR uni00AD
ENCODING 173
SWIDTH 579 0
DWIDTH 11 0
BBX 5 1 3 7
BITMAP
F8
ENDCHAR

STARTCHAR registered
ENCODING 174
SWIDTH 579 0
DWIDTH 11 0
BBX 10 10 0 1
BITMAP
3F00
4080
BE40
B340
B340
BE40
B340
B340
4080
3F00
ENDCHAR

STARTCHAR macron
ENCODING 175
SWIDTH 579 0
DWIDTH 11 0
BBX 10 1 0 15
BITMAP
FFC0
ENDCHAR

STARTCHAR degree
ENCODING 176
SWIDTH 579 0
DWIDTH 11 0
BBX 5 4 3 10
BITMAP
70
D8
D8
70
ENDCHAR

STARTCHAR plusminus
ENCODING 177
SWIDTH 579 0
DWIDTH 11 0
BBX 8 10 1 1
BITMAP
18
18
18
FF
18
18
18
00
00
FF
ENDCHAR

STARTCHAR uni00B2
ENCODING 178
SWIDTH 579 0
DWIDTH 11 0
BBX 5 7 3 7
BITMAP
70
D8
18
30
60
C0
F8
ENDCHAR

STARTCHAR uni00B3
ENCODING 179
SWIDTH 579 0
DWIDTH 11 0
BBX 5 7 3 7
BITMAP
70
D8
18
30
18
D8
70
ENDCHAR

STARTCHAR acute
ENCODING 180
SWIDTH 579 0
DWIDTH 11 0
BBX 2 3 5 11
BITMAP
40
C0
80
ENDCHAR

STARTCHAR uni00B5
ENCODING 181
SWIDTH 579 0
DWIDTH 11 0
BBX 8 11 1 -3
BITMAP
C6
C6
C6
C6
C6
C6
C6
FB
C0
C0
C0
ENDCHAR

STARTCHAR paragraph
ENCODING 182
SWIDTH 579 0
DWIDTH 11 0
BBX 8 14 1 0
BITMAP
7F
F1
F1
F1
F1
F1
71
11
11
11
11
11
11
11
ENDCHAR

STARTCHAR periodcentered
ENCODING 183
SWIDTH 579 0
DWIDTH 11 0
BBX 2 2 4 7
BITMAP
C0
C0
ENDCHAR

STARTCHAR cedilla
ENCODING 184
SWIDTH 579 0
DWIDTH 11 0
BBX 4 3 4 0
BITMAP
60
30
E0
ENDCHAR

STARTCHAR uni00B9
ENCODING 185
SWIDTH 579 0
DWIDTH 11 0
BBX 4 7 4 7
BITMAP
60
E0
60
60
60
60
F0
ENDCHAR

STARTCHAR ordmasculine
ENCODING 186
SWIDTH 579 0
DWIDTH 11 0
BBX 5 8 3 6
BITMAP
70
D8
D8
D8
D8
70
00
F8
ENDCHAR

STARTCHAR guillemotright
ENCODING 187
SWIDTH 579 0
DWIDTH 11 0
BBX 10 9 0 1
BITMAP
CC00
6600
3300
1980
0CC0
1980
3300
6600
CC00
ENDCHAR

STARTCHAR onequarter
ENCODING 188
SWIDTH 579 0
DWIDTH 11 0
BBX 9 14 1 0
BITMAP
6000
E000
6080
6180
6300
F600
0C00
1800
3380
6780
CD80
8F80
0180
0180
ENDCHAR

STARTCHAR onehalf
ENCODING 189
SWIDTH 579 0
DWIDTH 11 0
BBX 9 14 1 0
BITMAP
6000
E000
6080
6180
6300
F600
0C00
1800
3300
6580
C180
8300
0600
0780
ENDCHAR

STARTCHAR threequarters
ENCODING 190
SWIDTH 579 0
DWIDTH 11 0
BBX 10 14 0 0
BITMAP
7000
D800
1840
30C0
1980
DB00
7600
0C00
19C0
33C0
66C0
47C0
00C0
00C0
ENDCHAR

STARTCHAR questiondown
ENCODING 191
SWIDTH 579 0
DWIDTH 11 0
BBX 9 14 1 0
BITMAP
1C00
1C00
1C00
0000
1C00
1C00
1C00
3800
7000
E000
E380
E380
E380
7F00
ENDCHAR

STARTCHAR Agrave
ENCODING 192
SWIDTH 579 0
DWIDTH 11 0
BBX 9 17 1 0
BITMAP
1800
0C00
0000
3E00
6300
C180
C180
C180
C180
FF80
C180
C180
C180
C180
C180
C180
C180
ENDCHAR

STARTCHAR Aacute
ENCODING 193
SWIDTH 579 0
DWIDTH 11 0
BBX 9 17 1 0
BITMAP
0C00
1800
0000
3E00
6300
C180
C180
C180
C180
FF80
C180
C180
C180
C180
C180
C180
C180
ENDCHAR

STARTCHAR Acircumflex
ENCODING 194
SWIDTH 579 0
DWIDTH 11 0
BBX 9 18 1 0
BITMAP
1800
3C00
2400
0000
3E00
6300
C180
C180
C180
C180
FF80
C180
C180
C180
C180
C180
C180
C180
ENDCHAR

STARTCHAR Atilde
ENCODING 195
SWIDTH 579 0
DWIDTH 11 0
BBX 9 18 1 0
BITMAP
7980
DD80
CF00
0000
3E00
6300
C180
C180
C180
C180
FF80
C180
C180
C180
C180
C180
C180
C180
ENDCHAR

STARTCHAR Adieresis
ENCODING 196
SWIDTH 579 0
DWIDTH 11 0
BBX 9 18 1 0
BITMAP
6300
6300
0000
0000
3E00
6300
C180
C180
C180
C180
FF80
C180
C180
C180
C180
C180
C180
C180
ENDCHAR

STARTCHAR Aring
ENCODING 197
SWIDTH 579 0
DWIDTH 11 0
BBX 9 18 1 0
BITMAP
1C00
1400
1C00
0000
3E00
6300
C180
C180
C180
C180
FF80
C180
C180
C180
C180
C180
C180
C180
ENDCHAR

STARTCHAR AE
ENCODING 198
SWIDTH 579 0
DWIDTH 11 0
BBX 9 14 1 0
BITMAP
3F80
6C00
CC00
CC00
CC00
CC00
FF00
CC00
CC00
CC00
CC00
CC00
CC00
CF80
ENDCHAR

STARTCHAR Ccedilla
ENCODING 199
SWIDTH 579 0
DWIDTH 11 0
BBX 9 17 1 -3
BITMAP
7F00
C180
C180
C000
C000
C000
C000
C000
C000
C000
C000
C180
C180
7F00
0C00
0C00
1C00
ENDCHAR

STARTCHAR Egrave
ENCODING 200
SWIDTH 579 0
DWIDTH 11 0
BBX 9 17 1 0
BITMAP
1800
0C00
0000
FF80
C000
C000
C000
C000
C000
FF00
C000
C000
C000
C000
C000
C000
FF80
ENDCHAR

STARTCHAR Eacute
ENCODING 201
SWIDTH 579 0
DWIDTH 11 0
BBX 9 17 1 0
BITMAP
0C00
1800
0000
FF80
C000
C000
C000
C000
C000
FF00
C000
C000
C000
C000
C000
C000
FF80
ENDCHAR

STARTCHAR Ecircumflex
ENCODING 202
SWIDTH 579 0
DWIDTH 11 0
BBX 9 18 1 0
BITMAP
0C00
1E00
1200
0000
FF80
C000
C000
C000
C000
C000
FF00
C000
C000
C000
C000
C000
C000
FF80
ENDCHAR

STARTCHAR Edieresis
ENCODING 203
SWIDTH 579 0
DWIDTH 11 0
BBX 9 18 1 0
BITMAP
6300
6300
0000
0000
FF80
C000
C000
C000
C000
C000
FF00
C000
C000
C000
C000
C000
C000
FF80
ENDCHAR

STARTCHAR Igrave
ENCODING 204
SWIDTH 579 0
DWIDTH 11 0
BBX 8 17 1 0
BITMAP
18
0C
00
FF
18
18
18
18
18
18
18
18
18
18
18
18
FF
ENDCHAR

STARTCHAR Iacute
ENCODING 205
SWIDTH 579 0
DWIDTH 11 0
BBX 8 17 1 0
BITMAP
0C
18
00
FF
18
18
18
18
18
18
18
18
18
18
18
18
FF
ENDCHAR

STARTCHAR Icircumflex
ENCODING 206
SWIDTH 579 0
DWIDTH 11 0
BBX 8 18 1 0
BITMAP
18
3C
24
00
FF
18
18
18
18
18
18
18
18
18
18
18
18
FF
ENDCHAR

STARTCHAR Idieresis
ENCODING 207
SWIDTH 579 0
DWIDTH 11 0
BBX 8 18 1 0
BITMAP
63
63
00
00
FF
18
18
18
18
18
18
18
18
18
18
18
18
FF
ENDCHAR

STARTCHAR Eth
ENCODING 208
SWIDTH 579 0
DWIDTH 11 0
BBX 10 14 0 0
BITMAP
7F00
6180
60C0
60C0
60C0
60C0
F8C0
60C0
60C0
60C0
60C0
60C0
6180
7F00
ENDCHAR

STARTCHAR Ntilde
ENCODING 209
SWIDTH 579 0
DWIDTH 11 0
BBX 9 18 1 0
BITMAP
7980
DD80
CF00
0000
C180
C180
C180
E180
F180
D980
CD80
C780
C380
C180
C180
C180
C180
C180
ENDCHAR

STARTCHAR Ograve
ENCODING 210
SWIDTH 579 0
DWIDTH 11 0
BBX 9 17 1 0
BITMAP
1800
0C00
0000
3E00
6300
C180
C180
C180
C180
C180
C180
C180
C180
C180
C180
6300
3E00
ENDCHAR

STARTCHAR Oacute
ENCODING 211
SWIDTH 579 0
DWIDTH 11 0
BBX 9 17 1 0
BITMAP
0C00
1800
0000
3E00
6300
C180
C180
C180
C180
C180
C180
C180
C180
C180
C180
6300
3E00
ENDCHAR

STARTCHAR Ocircumflex
ENCODING 212
SWIDTH 579 0
DWIDTH 11 0
BBX 9 18 1 0
BITMAP
1800
3C00
2400
0000
3E00
6300
C180
C180
C180
C180
C180
C180
C180
C180
C180
C180
6300
3E00
ENDCHAR

STARTCHAR Otilde
ENCODING 213
SWIDTH 579 0
DWIDTH 11 0
BBX 9 18 1 0
BITMAP
7980
DD80
CF00
0000
3E00
6300
C180
C180
C180
C180
C180
C180
C180
C180
C180
C180
6300
3E00
ENDCHAR

STARTCHAR Odieresis
ENCODING 214
SWIDTH 579 0
DWIDTH 11 0
BBX 9 18 1 0
BITMAP
6300
6300
0000
0000
3E00
6300
C180
C180
C180
C180
C180
C180
C180
C180
C180
C180
6300
3E00
ENDCHAR

STARTCHAR multiply
ENCODING 215
SWIDTH 579 0
DWIDTH 11 0
BBX 8 7 1 3
BITMAP
C3
66
3C
18
3C
66
C3
ENDCHAR

STARTCHAR Oslash
ENCODING 216
SWIDTH 579 0
DWIDTH 11 0
BBX 9 14 1 0
BITMAP
3E00
6300
C180
C180
C380
C780
CD80
D980
F180
E180
C180
C180
6300
3E00
ENDCHAR

STARTCHAR Ugrave
ENCODING 217
SWIDTH 579 0
DWIDTH 11 0
BBX 9 17 1 0
BITMAP
1800
0C00
0000
C180
C180
C180
C180
C180
C180
C180
C180
C180
C180
C180
C180
6300
3E00
ENDCHAR

STARTCHAR Uacute
ENCODING 218
SWIDTH 579 0
DWIDTH 11 0
BBX 9 17 1 0
BITMAP
0C00
1800
0000
C180
C180
C180
C180
C180
C180
C180
C180
C180
C180
C180
C180
6300
3E00
ENDCHAR

STARTCHAR Ucircumflex
ENCODING 219
SWIDTH 579 0
DWIDTH 11 0
BBX 9 18 1 0
BITMAP
0800
1C00
1400
0000
C180
C180
C180
C180
C180
C180
C180
C180
C180
C180
C180
C180
6300
3E00
ENDCHAR

STARTCHAR Udieresis
ENCODING 220
SWIDTH 579 0
DWIDTH 11 0
BBX 9 18 1 0
BITMAP
6300
6300
0000
0000
C180
C180
C180
C180
C180
C180
C180
C180
C180
C180
C180
C180
6300
3E00
ENDCHAR

STARTCHAR Yacute
ENCODING 221
SWIDTH 579 0
DWIDTH 11 0
BBX 10 17 0 0
BITMAP
0600
0C00
0000
C0C0
C0C0
C0C0
C0C0
C0C0
6180
3300
1E00
0C00
0C00
0C00
0C00
0C00
0C00
ENDCHAR

STARTCHAR Thorn
ENCODING 222
SWIDTH 579 0
DWIDTH 11 0
BBX 8 14 1 0
BITMAP
C0
C0
C0
C0
FE
C3
C3
C3
FE
C0
C0
C0
C0
C0
ENDCHAR

STARTCHAR germandbls
ENCODING 223
SWIDTH 579 0
DWIDTH 11 0
BBX 8 14 1 0
BITMAP
7C
C6
C6
C6
C6
C6
DE
C3
C3
C3
C3
C3
C3
DE
ENDCHAR

STARTCHAR agrave
ENCODING 224
SWIDTH 579 0
DWIDTH 11 0
BBX 8 11 1 0
BITMAP
30
18
00
7E
03
03
7F
C3
C3
C3
7F
ENDCHAR

STARTCHAR aacute
ENCODING 225
SWIDTH 579 0
DWIDTH 11 0
BBX 8 11 1 0
BITMAP
0C
18
00
7E
03
03
7F
C3
C3
C3
7F
ENDCHAR

STARTCHAR acircumflex
ENCODING 226
SWIDTH 579 0
DWIDTH 11 0
BBX 8 12 1 0
BITMAP
18
3C
24
00
7E
03
03
7F
C3
C3
C3
7F
ENDCHAR

STARTCHAR atilde
ENCODING 227
SWIDTH 579 0
DWIDTH 11 0
BBX 8 12 1 0
BITMAP
32
5A
4C
00
7E
03
03
7F
C3
C3
C3
7F
ENDCHAR

STARTCHAR adieresis
ENCODING 228
SWIDTH 579 0
DWIDTH 11 0
BBX 8 11 1 0
BITMAP
66
66
00
7E
03
03
7F
C3
C3
C3
7F
ENDCHAR

STARTCHAR aring
ENCODING 229
SWIDTH 579 0
DWIDTH 11 0
BBX 8 16 1 0
BITMAP
08
14
08
08
00
3C
02
00
7E
03
03
7F
C3
C3
C3
7F
ENDCHAR

STARTCHAR ae
ENCODING 230
SWIDTH 579 0
DWIDTH 11 0
BBX 10 8 0 0
BITMAP
7780
0CC0
0CC0
7FC0
CC00
CC00
CCC0
7B80
ENDCHAR

STARTCHAR ccedilla
ENCODING 231
SWIDTH 579 0
DWIDTH 11 0
BBX 8 10 1 -2
BITMAP
7E
C3
C0
C0
C0
C0
C3
7E
08
18
ENDCHAR

STARTCHAR egrave
ENCODING 232
SWIDTH 579 0
DWIDTH 11 0
BBX 8 11 1 0
BITMAP
30
18
00
7E
C3
C3
FF
C0
C0
C3
7E
ENDCHAR

STARTCHAR eacute
ENCODING 233
SWIDTH 579 0
DWIDTH 11 0
BBX 8 11 1 0
BITMAP
0C
18
00
7E
C3
C3
FF
C0
C0
C3
7E
ENDCHAR

STARTCHAR ecircumflex
ENCODING 234
SWIDTH 579 0
DWIDTH 11 0
BBX 8 12 1 0
BITMAP
18
3C
24
00
7E
C3
C3
FF
C0
C0
C3
7E
ENDCHAR

STARTCHAR edieresis
ENCODING 235
SWIDTH 579 0
DWIDTH 11 0
BBX 8 11 1 0
BITMAP
66
66
00
7E
C3
C3
FF
C0
C0
C3
7E
ENDCHAR

STARTCHAR igrave
ENCODING 236
SWIDTH 579 0
DWIDTH 11 0
BBX 8 11 1 0
BITMAP
30
18
00
78
18
18
18
18
18
18
FF
ENDCHAR

STARTCHAR iacute
ENCODING 237
SWIDTH 579 0
DWIDTH 11 0
BBX 8 11 1 0
BITMAP
0C
18
00
78
18
18
18
18
18
18
FF
ENDCHAR

STARTCHAR icircumflex
ENCODING 238
SWIDTH 579 0
DWIDTH 11 0
BBX 8 12 1 0
BITMAP
08
1C
14
00
78
18
18
18
18
18
18
FF
ENDCHAR

STARTCHAR idieresis
ENCODING 239
SWIDTH 579 0
DWIDTH 11 0
BBX 8 11 1 0
BITMAP
66
66
00
78
18
18
18
18
18
18
FF
ENDCHAR

STARTCHAR eth
ENCODING 240
SWIDTH 579 0
DWIDTH 11 0
BBX 8 13 1 0
BITMAP
36
1C
1C
36
02
7E
C3
C3
C3
C3
C3
C3
7E
ENDCHAR

STARTCHAR ntilde
ENCODING 241
SWIDTH 579 0
DWIDTH 11 0
BBX 8 12 1 0
BITMAP
32
5A
4C
00
DE
E3
C3
C3
C3
C3
C3
C3
ENDCHAR

STARTCHAR ograve
ENCODING 242
SWIDTH 579 0
DWIDTH 11 0
BBX 8 11 1 0
BITMAP
30
18
00
7E
C3
C3
C3
C3
C3
C3
7E
ENDCHAR

STARTCHAR oacute
ENCODING 243
SWIDTH 579 0
DWIDTH 11 0
BBX 8 11 1 0
BITMAP
0C
18
00
7E
C3
C3
C3
C3
C3
C3
7E
ENDCHAR

STARTCHAR ocircumflex
ENCODING 244
SWIDTH 579 0
DWIDTH 11 0
BBX 8 12 1 0
BITMAP
18
3C
24
00
7E
C3
C3
C3
C3
C3
C3
7E
ENDCHAR

STARTCHAR otilde
ENCODING 245
SWIDTH 579 0
DWIDTH 11 0
BBX 8 12 1 0
BITMAP
32
5A
4C
00
7E
C3
C3
C3
C3
C3
C3
7E
ENDCHAR

STARTCHAR odieresis
ENCODING 246
SWIDTH 579 0
DWIDTH 11 0
BBX 8 11 1 0
BITMAP
66
66
00
7E
C3
C3
C3
C3
C3
C3
7E
ENDCHAR

STARTCHAR divide
ENCODING 247
SWIDTH 579 0
DWIDTH 11 0
BBX 8 7 1 4
BITMAP
18
18
00
FF
00
18
18
ENDCHAR

STARTCHAR oslash
ENCODING 248
SWIDTH 579 0
DWIDTH 11 0
BBX 8 8 1 0
BITMAP
7E
C3
C7
CB
D3
E3
C3
7E
ENDCHAR

STARTCHAR ugrave
ENCODING 249
SWIDTH 579 0
DWIDTH 11 0
BBX 8 11 1 0
BITMAP
30
18
00
C3
C3
C3
C3
C3
C3
C7
7B
ENDCHAR

STARTCHAR uacute
ENCODING 250
SWIDTH 579 0
DWIDTH 11 0
BBX 8 11 1 0
BITMAP
0C
18
00
C3
C3
C3
C3
C3
C3
C7
7B
ENDCHAR

STARTCHAR ucircumflex
ENCODING 251
SWIDTH 579 0
DWIDTH 11 0
BBX 8 12 1 0
BITMAP
18
3C
24
00
C3
C3
C3
C3
C3
C3
C7
7B
ENDCHAR

STARTCHAR udieresis
ENCODING 252
SWIDTH 579 0
DWIDTH 11 0
BBX 8 11 1 0
BITMAP
66
66
00
C3
C3
C3
C3
C3
C3
C7
7B
ENDCHAR

STARTCHAR yacute
ENCODING 253
SWIDTH 579 0
DWIDTH 11 0
BBX 8 14 1 -3
BITMAP
0C
18
00
C3
C3
66
66
3C
3C
18
18
30
30
60
ENDCHAR

STARTCHAR thorn
ENCODING 254
SWIDTH 579 0
DWIDTH 11 0
BBX 6 14 1 0
BITMAP
C0
C0
C0
F8
CC
CC
CC
CC
CC
F8
C0
C0
C0
C0
ENDCHAR

STARTCHAR ydieresis
ENCODING 255
SWIDTH 579 0
DWIDTH 11 0
BBX 8 14 1 -3
BITMAP
66
66
00
C3
C3
66
66
3C
3C
18
18
30
30
60
ENDCHAR

ENDFONT
