STARTFONT 2.1
FONT -FontForge-Raize-Bold-R-Normal--17-160-75-75-M-90-ISO8859-1
SIZE 16 75 75
FONTBOUNDINGBOX 9 18 0 -4

STARTPROPERTIES 36
FOUNDRY "FontForge"
FAMILY_NAME "Raize"
WEIGHT_NAME "Bold"
SLANT "R"
SETWIDTH_NAME "Normal"
ADD_STYLE_NAME ""
PIXEL_SIZE 17
POINT_SIZE 160
RESOLUTION_X 75
RESOLUTION_Y 75
SPACING "M"
AVERAGE_WIDTH 90
CHARSET_REGISTRY "ISO8859"
CHARSET_ENCODING "1"
FONTNAME_REGISTRY ""
CHARSET_COLLECTIONS "ISOLatin1Encoding"
FONT_NAME "RaizeBold"
FACE_NAME "Raize"
FONT_VERSION "001.000"
UNDERLINE_POSITION 4294967294
UNDERLINE_THICKNESS 1
X_HEIGHT 6
CAP_HEIGHT 10
RAW_ASCENT 800
RAW_DESCENT 200
NORM_SPACE 9
RELATIVE_WEIGHT 70
RELATIVE_SETWIDTH 50
FIGURE_WIDTH 9
AVG_LOWERCASE_WIDTH 90
AVG_UPPERCASE_WIDTH 90
WEIGHT 10
QUAD_WIDTH 9
DEFAULT_CHAR 0
FONT_DESCENT 3
FONT_ASCENT 14
ENDPROPERTIES

CHARS 192

STARTCHAR space
ENCODING 32
SWIDTH 529 0
DWIDTH 9 0
BBX 1 1 8 -4
BITMAP
00
ENDCHAR

STARTCHAR exclam
ENCODING 33
SWIDTH 529 0
DWIDTH 9 0
BBX 3 11 3 0
BITMAP
E0
E0
E0
E0
E0
E0
E0
00
00
E0
E0
ENDCHAR

STARTCHAR quotedbl
ENCODING 34
SWIDTH 529 0
DWIDTH 9 0
BBX 6 3 2 8
BITMAP
CC
CC
CC
ENDCHAR

STARTCHAR numbersign
ENCODING 35
SWIDTH 529 0
DWIDTH 9 0
BBX 8 11 0 0
BITMAP
12
12
12
7F
24
24
24
FE
48
48
48
ENDCHAR

STARTCHAR dollar
ENCODING 36
SWIDTH 529 0
DWIDTH 9 0
BBX 7 11 1 0
BITMAP
10
7C
D6
D0
D0
7C
16
16
D6
7C
10
ENDCHAR

STARTCHAR percent
ENCODING 37
SWIDTH 529 0
DWIDTH 9 0
BBX 7 8 1 2
BITMAP
C2
C6
0C
18
30
60
C6
86
ENDCHAR

STARTCHAR ampersand
ENCODING 38
SWIDTH 529 0
DWIDTH 9 0
BBX 9 11 0 0
BITMAP
3800
6C00
6C00
7800
3000
7000
DB00
CF00
C600
CF00
7980
ENDCHAR

STARTCHAR quotesingle
ENCODING 39
SWIDTH 529 0
DWIDTH 9 0
BBX 2 4 3 7
BITMAP
C0
C0
40
80
ENDCHAR

STARTCHAR parenleft
ENCODING 40
SWIDTH 529 0
DWIDTH 9 0
BBX 4 13 3 -2
BITMAP
30
60
60
C0
C0
C0
C0
C0
C0
C0
60
60
30
ENDCHAR

STARTCHAR parenright
ENCODING 41
SWIDTH 529 0
DWIDTH 9 0
BBX 4 13 2 -2
BITMAP
C0
60
60
30
30
30
30
30
30
30
60
60
C0
ENDCHAR

STARTCHAR asterisk
ENCODING 42
SWIDTH 529 0
DWIDTH 9 0
BBX 7 5 1 2
BITMAP
6C
38
FE
38
6C
ENDCHAR

STARTCHAR plus
ENCODING 43
SWIDTH 529 0
DWIDTH 9 0
BBX 8 7 0 1
BITMAP
18
18
18
FF
18
18
18
ENDCHAR

STARTCHAR comma
ENCODING 44
SWIDTH 529 0
DWIDTH 9 0
BBX 2 4 3 -2
BITMAP
C0
C0
40
80
ENDCHAR

STARTCHAR hyphen
ENCODING 45
SWIDTH 529 0
DWIDTH 9 0
BBX 8 1 0 4
BITMAP
FF
ENDCHAR

STARTCHAR period
ENCODING 46
SWIDTH 529 0
DWIDTH 9 0
BBX 2 2 3 0
BITMAP
C0
C0
ENDCHAR

STARTCHAR slash
ENCODING 47
SWIDTH 529 0
DWIDTH 9 0
BBX 7 12 1 -1
BITMAP
06
06
0C
0C
18
18
30
30
60
60
C0
C0
ENDCHAR

STARTCHAR zero
ENCODING 48
SWIDTH 529 0
DWIDTH 9 0
BBX 7 11 1 0
BITMAP
7C
C6
C6
C6
CE
D6
E6
C6
C6
C6
7C
ENDCHAR

STARTCHAR one
ENCODING 49
SWIDTH 529 0
DWIDTH 9 0
BBX 8 11 1 0
BITMAP
18
38
78
18
18
18
18
18
18
18
FF
ENDCHAR

STARTCHAR two
ENCODING 50
SWIDTH 529 0
DWIDTH 9 0
BBX 7 11 1 0
BITMAP
7C
C6
C6
06
0C
18
30
60
C0
C0
FE
ENDCHAR

STARTCHAR three
ENCODING 51
SWIDTH 529 0
DWIDTH 9 0
BBX 7 11 1 0
BITMAP
7C
C6
C6
06
06
3C
06
06
C6
C6
7C
ENDCHAR

STARTCHAR four
ENCODING 52
SWIDTH 529 0
DWIDTH 9 0
BBX 7 11 1 0
BITMAP
06
0E
1E
36
66
C6
FE
06
06
06
06
ENDCHAR

STARTCHAR five
ENCODING 53
SWIDTH 529 0
DWIDTH 9 0
BBX 7 11 1 0
BITMAP
FE
C0
C0
C0
C0
FC
06
06
C6
C6
7C
ENDCHAR

STARTCHAR six
ENCODING 54
SWIDTH 529 0
DWIDTH 9 0
BBX 7 11 1 0
BITMAP
3C
60
C0
C0
C0
FC
C6
C6
C6
C6
7C
ENDCHAR

STARTCHAR seven
ENCODING 55
SWIDTH 529 0
DWIDTH 9 0
BBX 7 11 1 0
BITMAP
FE
C6
C6
0C
0C
18
18
30
30
60
60
ENDCHAR

STARTCHAR eight
ENCODING 56
SWIDTH 529 0
DWIDTH 9 0
BBX 7 11 1 0
BITMAP
7C
C6
C6
C6
C6
7C
C6
C6
C6
C6
7C
ENDCHAR

STARTCHAR nine
ENCODING 57
SWIDTH 529 0
DWIDTH 9 0
BBX 7 11 1 0
BITMAP
7C
C6
C6
C6
C6
7E
06
06
06
0C
78
ENDCHAR

STARTCHAR colon
ENCODING 58
SWIDTH 529 0
DWIDTH 9 0
BBX 2 8 3 0
BITMAP
C0
C0
00
00
00
00
C0
C0
ENDCHAR

STARTCHAR semicolon
ENCODING 59
SWIDTH 529 0
DWIDTH 9 0
BBX 2 10 3 -2
BITMAP
C0
C0
00
00
00
00
C0
C0
40
80
ENDCHAR

STARTCHAR less
ENCODING 60
SWIDTH 529 0
DWIDTH 9 0
BBX 7 11 1 0
BITMAP
06
0C
18
30
60
C0
60
30
18
0C
06
ENDCHAR

STARTCHAR equal
ENCODING 61
SWIDTH 529 0
DWIDTH 9 0
BBX 7 4 1 2
BITMAP
FE
00
00
FE
ENDCHAR

STARTCHAR greater
ENCODING 62
SWIDTH 529 0
DWIDTH 9 0
BBX 7 11 1 0
BITMAP
C0
60
30
18
0C
06
0C
18
30
60
C0
ENDCHAR

STARTCHAR question
ENCODING 63
SWIDTH 529 0
DWIDTH 9 0
BBX 8 11 0 0
BITMAP
7E
C3
C3
03
06
0C
18
18
00
18
18
ENDCHAR

STARTCHAR at
ENCODING 64
SWIDTH 529 0
DWIDTH 9 0
BBX 8 11 0 0
BITMAP
3C
42
81
9D
A5
A5
A5
9E
80
40
3E
ENDCHAR

STARTCHAR A
ENCODING 65
SWIDTH 529 0
DWIDTH 9 0
BBX 8 11 0 0
BITMAP
3C
66
C3
C3
C3
FF
C3
C3
C3
C3
C3
ENDCHAR

STARTCHAR B
ENCODING 66
SWIDTH 529 0
DWIDTH 9 0
BBX 8 11 0 0
BITMAP
FE
C3
C3
C3
C3
FE
C3
C3
C3
C3
FE
ENDCHAR

STARTCHAR C
ENCODING 67
SWIDTH 529 0
DWIDTH 9 0
BBX 8 11 0 0
BITMAP
7E
C3
C3
C0
C0
C0
C0
C0
C3
C3
7E
ENDCHAR

STARTCHAR D
ENCODING 68
SWIDTH 529 0
DWIDTH 9 0
BBX 8 11 0 0
BITMAP
FC
C6
C3
C3
C3
C3
C3
C3
C3
C6
FC
ENDCHAR

STARTCHAR E
ENCODING 69
SWIDTH 529 0
DWIDTH 9 0
BBX 8 11 0 0
BITMAP
FF
C0
C0
C0
C0
FE
C0
C0
C0
C0
FF
ENDCHAR

STARTCHAR F
ENCODING 70
SWIDTH 529 0
DWIDTH 9 0
BBX 8 11 0 0
BITMAP
FF
C0
C0
C0
C0
FE
C0
C0
C0
C0
C0
ENDCHAR

STARTCHAR G
ENCODING 71
SWIDTH 529 0
DWIDTH 9 0
BBX 8 11 0 0
BITMAP
7E
C3
C3
C0
C0
C0
CF
C3
C3
C3
7F
ENDCHAR

STARTCHAR H
ENCODING 72
SWIDTH 529 0
DWIDTH 9 0
BBX 8 11 0 0
BITMAP
C3
C3
C3
C3
C3
FF
C3
C3
C3
C3
C3
ENDCHAR

STARTCHAR I
ENCODING 73
SWIDTH 529 0
DWIDTH 9 0
BBX 8 11 0 0
BITMAP
FF
18
18
18
18
18
18
18
18
18
FF
ENDCHAR

STARTCHAR J
ENCODING 74
SWIDTH 529 0
DWIDTH 9 0
BBX 8 11 0 0
BITMAP
03
03
03
03
03
03
03
03
C3
C3
7E
ENDCHAR

STARTCHAR K
ENCODING 75
SWIDTH 529 0
DWIDTH 9 0
BBX 8 11 0 0
BITMAP
C3
C6
CC
D8
F0
E0
F0
D8
CC
C6
C3
ENDCHAR

STARTCHAR L
ENCODING 76
SWIDTH 529 0
DWIDTH 9 0
BBX 8 11 0 0
BITMAP
C0
C0
C0
C0
C0
C0
C0
C0
C0
C0
FF
ENDCHAR

STARTCHAR M
ENCODING 77
SWIDTH 529 0
DWIDTH 9 0
BBX 8 11 0 0
BITMAP
81
C3
E7
FF
DB
C3
C3
C3
C3
C3
C3
ENDCHAR

STARTCHAR N
ENCODING 78
SWIDTH 529 0
DWIDTH 9 0
BBX 8 11 0 0
BITMAP
83
C3
E3
F3
DB
CF
C7
C3
C3
C3
C3
ENDCHAR

STARTCHAR O
ENCODING 79
SWIDTH 529 0
DWIDTH 9 0
BBX 8 11 0 0
BITMAP
7E
C3
C3
C3
C3
C3
C3
C3
C3
C3
7E
ENDCHAR

STARTCHAR P
ENCODING 80
SWIDTH 529 0
DWIDTH 9 0
BBX 8 11 0 0
BITMAP
FE
C3
C3
C3
C3
FE
C0
C0
C0
C0
C0
ENDCHAR

STARTCHAR Q
ENCODING 81
SWIDTH 529 0
DWIDTH 9 0
BBX 8 12 0 -1
BITMAP
7E
C3
C3
C3
C3
C3
C3
C3
DB
CF
7E
03
ENDCHAR

STARTCHAR R
ENCODING 82
SWIDTH 529 0
DWIDTH 9 0
BBX 8 11 0 0
BITMAP
FE
C3
C3
C3
C3
FE
C6
C3
C3
C3
C3
ENDCHAR

STARTCHAR S
ENCODING 83
SWIDTH 529 0
DWIDTH 9 0
BBX 8 11 0 0
BITMAP
7E
C3
C3
C0
C0
7E
03
03
C3
C3
7E
ENDCHAR

STARTCHAR T
ENCODING 84
SWIDTH 529 0
DWIDTH 9 0
BBX 8 11 0 0
BITMAP
FF
18
18
18
18
18
18
18
18
18
18
ENDCHAR

STARTCHAR U
ENCODING 85
SWIDTH 529 0
DWIDTH 9 0
BBX 8 11 0 0
BITMAP
C3
C3
C3
C3
C3
C3
C3
C3
C3
C3
7E
ENDCHAR

STARTCHAR V
ENCODING 86
SWIDTH 529 0
DWIDTH 9 0
BBX 8 11 0 0
BITMAP
C3
C3
C3
C3
C3
66
66
3C
3C
18
18
ENDCHAR

STARTCHAR W
ENCODING 87
SWIDTH 529 0
DWIDTH 9 0
BBX 8 11 0 0
BITMAP
C3
C3
C3
C3
C3
DB
DB
DB
DB
FF
66
ENDCHAR

STARTCHAR X
ENCODING 88
SWIDTH 529 0
DWIDTH 9 0
BBX 7 11 1 0
BITMAP
C6
C6
C6
6C
38
10
38
6C
C6
C6
C6
ENDCHAR

STARTCHAR Y
ENCODING 89
SWIDTH 529 0
DWIDTH 9 0
BBX 8 11 0 0
BITMAP
C3
C3
C3
66
3C
18
18
18
18
18
18
ENDCHAR

STARTCHAR Z
ENCODING 90
SWIDTH 529 0
DWIDTH 9 0
BBX 8 11 0 0
BITMAP
FF
03
03
06
0C
18
30
60
C0
C0
FF
ENDCHAR

STARTCHAR bracketleft
ENCODING 91
SWIDTH 529 0
DWIDTH 9 0
BBX 4 13 3 -2
BITMAP
F0
C0
C0
C0
C0
C0
C0
C0
C0
C0
C0
C0
F0
ENDCHAR

STARTCHAR backslash
ENCODING 92
SWIDTH 529 0
DWIDTH 9 0
BBX 7 12 1 -1
BITMAP
C0
C0
60
60
30
30
18
18
0C
0C
06
06
ENDCHAR

STARTCHAR bracketright
ENCODING 93
SWIDTH 529 0
DWIDTH 9 0
BBX 4 13 2 -2
BITMAP
F0
30
30
30
30
30
30
30
30
30
30
30
F0
ENDCHAR

STARTCHAR asciicircum
ENCODING 94
SWIDTH 529 0
DWIDTH 9 0
BBX 7 4 1 7
BITMAP
10
38
6C
C6
ENDCHAR

STARTCHAR underscore
ENCODING 95
SWIDTH 529 0
DWIDTH 9 0
BBX 9 1 0 -2
BITMAP
FF80
ENDCHAR

STARTCHAR grave
ENCODING 96
SWIDTH 529 0
DWIDTH 9 0
BBX 2 4 3 7
BITMAP
C0
C0
80
40
ENDCHAR

STARTCHAR a
ENCODING 97
SWIDTH 529 0
DWIDTH 9 0
BBX 7 7 1 0
BITMAP
7C
06
06
7E
C6
C6
7E
ENDCHAR

STARTCHAR b
ENCODING 98
SWIDTH 529 0
DWIDTH 9 0
BBX 7 11 1 0
BITMAP
C0
C0
C0
C0
DC
E6
C6
C6
C6
C6
FC
ENDCHAR

STARTCHAR c
ENCODING 99
SWIDTH 529 0
DWIDTH 9 0
BBX 7 7 1 0
BITMAP
7C
C6
C0
C0
C0
C6
7C
ENDCHAR

STARTCHAR d
ENCODING 100
SWIDTH 529 0
DWIDTH 9 0
BBX 7 11 1 0
BITMAP
06
06
06
06
7E
C6
C6
C6
C6
CE
76
ENDCHAR

STARTCHAR e
ENCODING 101
SWIDTH 529 0
DWIDTH 9 0
BBX 7 7 1 0
BITMAP
7C
C6
C6
FE
C0
C6
7C
ENDCHAR

STARTCHAR f
ENCODING 102
SWIDTH 529 0
DWIDTH 9 0
BBX 9 11 0 0
BITMAP
1F00
3180
3180
3000
3000
FE00
3000
3000
3000
3000
3000
ENDCHAR

STARTCHAR g
ENCODING 103
SWIDTH 529 0
DWIDTH 9 0
BBX 7 10 1 -3
BITMAP
7E
C6
C6
C6
C6
CE
76
06
C6
7C
ENDCHAR

STARTCHAR h
ENCODING 104
SWIDTH 529 0
DWIDTH 9 0
BBX 7 11 1 0
BITMAP
C0
C0
C0
C0
DC
E6
C6
C6
C6
C6
C6
ENDCHAR

STARTCHAR i
ENCODING 105
SWIDTH 529 0
DWIDTH 9 0
BBX 6 10 2 0
BITMAP
30
30
00
70
30
30
30
30
30
FC
ENDCHAR

STARTCHAR j
ENCODING 106
SWIDTH 529 0
DWIDTH 9 0
BBX 7 13 1 -3
BITMAP
06
06
00
06
06
06
06
06
06
06
C6
C6
7C
ENDCHAR

STARTCHAR k
ENCODING 107
SWIDTH 529 0
DWIDTH 9 0
BBX 7 11 1 0
BITMAP
C0
C0
C0
CC
D8
F0
E0
F0
D8
CC
C6
ENDCHAR

STARTCHAR l
ENCODING 108
SWIDTH 529 0
DWIDTH 9 0
BBX 6 11 2 0
BITMAP
70
30
30
30
30
30
30
30
30
30
FC
ENDCHAR

STARTCHAR m
ENCODING 109
SWIDTH 529 0
DWIDTH 9 0
BBX 7 7 1 0
BITMAP
FC
D6
D6
D6
D6
D6
D6
ENDCHAR

STARTCHAR n
ENCODING 110
SWIDTH 529 0
DWIDTH 9 0
BBX 7 7 1 0
BITMAP
DC
E6
C6
C6
C6
C6
C6
ENDCHAR

STARTCHAR o
ENCODING 111
SWIDTH 529 0
DWIDTH 9 0
BBX 7 7 1 0
BITMAP
7C
C6
C6
C6
C6
C6
7C
ENDCHAR

STARTCHAR p
ENCODING 112
SWIDTH 529 0
DWIDTH 9 0
BBX 7 10 1 -3
BITMAP
DC
E6
C6
C6
C6
C6
FC
C0
C0
C0
ENDCHAR

STARTCHAR q
ENCODING 113
SWIDTH 529 0
DWIDTH 9 0
BBX 7 10 1 -3
BITMAP
7E
C6
C6
C6
C6
CE
76
06
06
06
ENDCHAR

STARTCHAR r
ENCODING 114
SWIDTH 529 0
DWIDTH 9 0
BBX 7 7 1 0
BITMAP
DC
E6
C0
C0
C0
C0
C0
ENDCHAR

STARTCHAR s
ENCODING 115
SWIDTH 529 0
DWIDTH 9 0
BBX 7 7 1 0
BITMAP
7C
C6
C0
7C
06
C6
7C
ENDCHAR

STARTCHAR t
ENCODING 116
SWIDTH 529 0
DWIDTH 9 0
BBX 8 10 1 0
BITMAP
30
30
30
FE
30
30
30
30
33
1E
ENDCHAR

STARTCHAR u
ENCODING 117
SWIDTH 529 0
DWIDTH 9 0
BBX 7 7 1 0
BITMAP
C6
C6
C6
C6
C6
CE
76
ENDCHAR

STARTCHAR v
ENCODING 118
SWIDTH 529 0
DWIDTH 9 0
BBX 7 7 1 0
BITMAP
C6
C6
C6
C6
6C
38
10
ENDCHAR

STARTCHAR w
ENCODING 119
SWIDTH 529 0
DWIDTH 9 0
BBX 7 7 1 0
BITMAP
C6
C6
D6
D6
D6
FE
6C
ENDCHAR

STARTCHAR x
ENCODING 120
SWIDTH 529 0
DWIDTH 9 0
BBX 7 7 1 0
BITMAP
C6
6C
38
10
38
6C
C6
ENDCHAR

STARTCHAR y
ENCODING 121
SWIDTH 529 0
DWIDTH 9 0
BBX 7 10 1 -3
BITMAP
C6
C6
6C
6C
38
38
30
30
60
60
ENDCHAR

STARTCHAR z
ENCODING 122
SWIDTH 529 0
DWIDTH 9 0
BBX 7 7 1 0
BITMAP
FE
0E
1C
38
70
E0
FE
ENDCHAR

STARTCHAR braceleft
ENCODING 123
SWIDTH 529 0
DWIDTH 9 0
BBX 5 13 2 -2
BITMAP
18
30
30
30
30
30
E0
30
30
30
30
30
18
ENDCHAR

STARTCHAR bar
ENCODING 124
SWIDTH 529 0
DWIDTH 9 0
BBX 2 13 4 -2
BITMAP
C0
C0
C0
C0
C0
C0
C0
C0
C0
C0
C0
C0
C0
ENDCHAR

STARTCHAR braceright
ENCODING 125
SWIDTH 529 0
DWIDTH 9 0
BBX 5 13 3 -2
BITMAP
C0
60
60
60
60
60
38
60
60
60
60
60
C0
ENDCHAR

STARTCHAR asciitilde
ENCODING 126
SWIDTH 529 0
DWIDTH 9 0
BBX 7 3 1 8
BITMAP
66
FE
CC
ENDCHAR

STARTCHAR uni007F
ENCODING 127
SWIDTH 529 0
DWIDTH 9 0
BBX 2 11 4 0
BITMAP
C0
C0
C0
C0
C0
C0
C0
C0
C0
C0
C0
ENDCHAR

STARTCHAR uni00A0
ENCODING 160
SWIDTH 529 0
DWIDTH 9 0
BBX 1 1 8 -4
BITMAP
00
ENDCHAR

STARTCHAR exclamdown
ENCODING 161
SWIDTH 529 0
DWIDTH 9 0
BBX 2 11 4 0
BITMAP
C0
00
C0
C0
C0
C0
C0
C0
C0
C0
C0
ENDCHAR

STARTCHAR cent
ENCODING 162
SWIDTH 529 0
DWIDTH 9 0
BBX 7 10 1 -1
BITMAP
10
10
7C
D6
D0
D0
D6
7C
10
10
ENDCHAR

STARTCHAR sterling
ENCODING 163
SWIDTH 529 0
DWIDTH 9 0
BBX 8 11 0 0
BITMAP
1E
33
33
30
30
78
30
30
30
60
FF
ENDCHAR

STARTCHAR currency
ENCODING 164
SWIDTH 529 0
DWIDTH 9 0
BBX 7 7 1 2
BITMAP
C6
7C
6C
6C
6C
7C
C6
ENDCHAR

STARTCHAR yen
ENCODING 165
SWIDTH 529 0
DWIDTH 9 0
BBX 8 11 0 0
BITMAP
C3
C3
C3
66
3C
18
7E
18
18
18
18
ENDCHAR

STARTCHAR brokenbar
ENCODING 166
SWIDTH 529 0
DWIDTH 9 0
BBX 2 13 3 -2
BITMAP
C0
C0
C0
C0
C0
C0
00
C0
C0
C0
C0
C0
C0
ENDCHAR

STARTCHAR section
ENCODING 167
SWIDTH 529 0
DWIDTH 9 0
BBX 7 12 1 -1
BITMAP
7E
C0
C0
C0
7C
C6
C6
7C
06
06
06
FC
ENDCHAR

STARTCHAR dieresis
ENCODING 168
SWIDTH 529 0
DWIDTH 9 0
BBX 6 2 1 12
BITMAP
CC
CC
ENDCHAR

STARTCHAR copyright
ENCODING 169
SWIDTH 529 0
DWIDTH 9 0
BBX 8 9 0 1
BITMAP
3C
42
99
A5
A1
A5
99
42
3C
ENDCHAR

STARTCHAR ordfeminine
ENCODING 170
SWIDTH 529 0
DWIDTH 9 0
BBX 5 8 2 3
BITMAP
70
18
78
D8
D8
78
00
F8
ENDCHAR

STARTCHAR guillemotleft
ENCODING 171
SWIDTH 529 0
DWIDTH 9 0
BBX 8 7 0 1
BITMAP
1B
36
6C
D8
6C
36
1B
ENDCHAR

STARTCHAR logicalnot
ENCODING 172
SWIDTH 529 0
DWIDTH 9 0
BBX 6 3 1 3
BITMAP
FC
04
04
ENDCHAR

STARTCHAR uni00AD
ENCODING 173
SWIDTH 529 0
DWIDTH 9 0
BBX 4 1 2 5
BITMAP
F0
ENDCHAR

STARTCHAR registered
ENCODING 174
SWIDTH 529 0
DWIDTH 9 0
BBX 8 9 0 1
BITMAP
3C
42
B9
A5
B9
A5
A5
42
3C
ENDCHAR

STARTCHAR macron
ENCODING 175
SWIDTH 529 0
DWIDTH 9 0
BBX 8 1 0 12
BITMAP
FF
ENDCHAR

STARTCHAR degree
ENCODING 176
SWIDTH 529 0
DWIDTH 9 0
BBX 4 4 2 7
BITMAP
60
90
90
60
ENDCHAR

STARTCHAR plusminus
ENCODING 177
SWIDTH 529 0
DWIDTH 9 0
BBX 8 9 0 1
BITMAP
18
18
18
FF
18
18
18
00
FF
ENDCHAR

STARTCHAR uni00B2
ENCODING 178
SWIDTH 529 0
DWIDTH 9 0
BBX 5 7 2 4
BITMAP
70
D8
18
30
60
C0
F8
ENDCHAR

STARTCHAR uni00B3
ENCODING 179
SWIDTH 529 0
DWIDTH 9 0
BBX 5 7 2 4
BITMAP
70
D8
18
30
18
D8
70
ENDCHAR

STARTCHAR acute
ENCODING 180
SWIDTH 529 0
DWIDTH 9 0
BBX 3 2 3 9
BITMAP
60
C0
ENDCHAR

STARTCHAR uni00B5
ENCODING 181
SWIDTH 529 0
DWIDTH 9 0
BBX 7 9 1 -3
BITMAP
CC
CC
CC
CC
CC
F6
C0
C0
C0
ENDCHAR

STARTCHAR paragraph
ENCODING 182
SWIDTH 529 0
DWIDTH 9 0
BBX 7 11 1 0
BITMAP
7E
F2
F2
F2
F2
72
12
12
12
12
12
ENDCHAR

STARTCHAR periodcentered
ENCODING 183
SWIDTH 529 0
DWIDTH 9 0
BBX 2 2 4 5
BITMAP
C0
C0
ENDCHAR

STARTCHAR cedilla
ENCODING 184
SWIDTH 529 0
DWIDTH 9 0
BBX 3 2 4 -2
BITMAP
60
C0
ENDCHAR

STARTCHAR uni00B9
ENCODING 185
SWIDTH 529 0
DWIDTH 9 0
BBX 4 7 3 4
BITMAP
60
E0
60
60
60
60
F0
ENDCHAR

STARTCHAR ordmasculine
ENCODING 186
SWIDTH 529 0
DWIDTH 9 0
BBX 5 8 1 3
BITMAP
70
D8
D8
D8
D8
70
00
F8
ENDCHAR

STARTCHAR guillemotright
ENCODING 187
SWIDTH 529 0
DWIDTH 9 0
BBX 8 7 0 1
BITMAP
D8
6C
36
1B
36
6C
D8
ENDCHAR

STARTCHAR onequarter
ENCODING 188
SWIDTH 529 0
DWIDTH 9 0
BBX 9 11 0 0
BITMAP
6000
E000
6100
6200
6480
6980
1380
2580
4780
8180
0100
ENDCHAR

STARTCHAR onehalf
ENCODING 189
SWIDTH 529 0
DWIDTH 9 0
BBX 9 11 0 0
BITMAP
6000
E000
6100
6200
6400
6B80
1780
2100
4300
8680
0700
ENDCHAR

STARTCHAR threequarters
ENCODING 190
SWIDTH 529 0
DWIDTH 9 0
BBX 9 11 0 0
BITMAP
6000
B000
2100
3200
B480
6980
1380
2580
4780
8180
0100
ENDCHAR

STARTCHAR questiondown
ENCODING 191
SWIDTH 529 0
DWIDTH 9 0
BBX 7 11 1 0
BITMAP
18
18
00
18
18
30
60
C0
C6
C6
7C
ENDCHAR

STARTCHAR Agrave
ENCODING 192
SWIDTH 529 0
DWIDTH 9 0
BBX 8 14 0 0
BITMAP
10
08
00
3C
66
C3
C3
C3
FF
C3
C3
C3
C3
C3
ENDCHAR

STARTCHAR Aacute
ENCODING 193
SWIDTH 529 0
DWIDTH 9 0
BBX 8 14 0 0
BITMAP
08
10
00
3C
66
C3
C3
C3
FF
C3
C3
C3
C3
C3
ENDCHAR

STARTCHAR Acircumflex
ENCODING 194
SWIDTH 529 0
DWIDTH 9 0
BBX 8 14 0 0
BITMAP
18
24
00
3C
66
C3
C3
C3
FF
C3
C3
C3
C3
C3
ENDCHAR

STARTCHAR Atilde
ENCODING 195
SWIDTH 529 0
DWIDTH 9 0
BBX 8 14 0 0
BITMAP
32
4C
00
3C
66
C3
C3
C3
FF
C3
C3
C3
C3
C3
ENDCHAR

STARTCHAR Adieresis
ENCODING 196
SWIDTH 529 0
DWIDTH 9 0
BBX 8 14 0 0
BITMAP
24
24
00
3C
66
C3
C3
C3
FF
C3
C3
C3
C3
C3
ENDCHAR

STARTCHAR Aring
ENCODING 197
SWIDTH 529 0
DWIDTH 9 0
BBX 8 14 0 0
BITMAP
18
24
18
3C
66
C3
C3
C3
FF
C3
C3
C3
C3
C3
ENDCHAR

STARTCHAR AE
ENCODING 198
SWIDTH 529 0
DWIDTH 9 0
BBX 8 11 0 0
BITMAP
3F
78
D8
D8
D8
FE
D8
D8
D8
D8
DF
ENDCHAR

STARTCHAR Ccedilla
ENCODING 199
SWIDTH 529 0
DWIDTH 9 0
BBX 8 13 0 -2
BITMAP
7E
C3
C3
C0
C0
C0
C0
C0
C3
C3
7E
08
10
ENDCHAR

STARTCHAR Egrave
ENCODING 200
SWIDTH 529 0
DWIDTH 9 0
BBX 8 14 0 0
BITMAP
10
08
00
FF
C0
C0
C0
C0
FE
C0
C0
C0
C0
FF
ENDCHAR

STARTCHAR Eacute
ENCODING 201
SWIDTH 529 0
DWIDTH 9 0
BBX 8 14 0 0
BITMAP
08
10
00
FF
C0
C0
C0
C0
FE
C0
C0
C0
C0
FF
ENDCHAR

STARTCHAR Ecircumflex
ENCODING 202
SWIDTH 529 0
DWIDTH 9 0
BBX 8 14 0 0
BITMAP
18
24
00
FF
C0
C0
C0
C0
FE
C0
C0
C0
C0
FF
ENDCHAR

STARTCHAR Edieresis
ENCODING 203
SWIDTH 529 0
DWIDTH 9 0
BBX 8 14 0 0
BITMAP
24
24
00
FF
C0
C0
C0
C0
FE
C0
C0
C0
C0
FF
ENDCHAR

STARTCHAR Igrave
ENCODING 204
SWIDTH 529 0
DWIDTH 9 0
BBX 6 14 1 0
BITMAP
60
30
00
FC
30
30
30
30
30
30
30
30
30
FC
ENDCHAR

STARTCHAR Iacute
ENCODING 205
SWIDTH 529 0
DWIDTH 9 0
BBX 6 14 1 0
BITMAP
18
30
00
FC
30
30
30
30
30
30
30
30
30
FC
ENDCHAR

STARTCHAR Icircumflex
ENCODING 206
SWIDTH 529 0
DWIDTH 9 0
BBX 6 14 1 0
BITMAP
30
48
00
FC
30
30
30
30
30
30
30
30
30
FC
ENDCHAR

STARTCHAR Idieresis
ENCODING 207
SWIDTH 529 0
DWIDTH 9 0
BBX 6 14 1 0
BITMAP
CC
CC
00
FC
30
30
30
30
30
30
30
30
30
FC
ENDCHAR

STARTCHAR Eth
ENCODING 208
SWIDTH 529 0
DWIDTH 9 0
BBX 8 11 0 0
BITMAP
7C
66
63
63
63
F3
63
63
63
66
7C
ENDCHAR

STARTCHAR Ntilde
ENCODING 209
SWIDTH 529 0
DWIDTH 9 0
BBX 8 14 0 0
BITMAP
32
4C
00
C3
C3
C3
E3
D3
CB
C7
C3
C3
C3
C3
ENDCHAR

STARTCHAR Ograve
ENCODING 210
SWIDTH 529 0
DWIDTH 9 0
BBX 8 14 0 0
BITMAP
18
0C
00
7E
C3
C3
C3
C3
C3
C3
C3
C3
C3
7E
ENDCHAR

STARTCHAR Oacute
ENCODING 211
SWIDTH 529 0
DWIDTH 9 0
BBX 8 14 0 0
BITMAP
0C
18
00
7E
C3
C3
C3
C3
C3
C3
C3
C3
C3
7E
ENDCHAR

STARTCHAR Ocircumflex
ENCODING 212
SWIDTH 529 0
DWIDTH 9 0
BBX 8 14 0 0
BITMAP
18
24
00
7E
C3
C3
C3
C3
C3
C3
C3
C3
C3
7E
ENDCHAR

STARTCHAR Otilde
ENCODING 213
SWIDTH 529 0
DWIDTH 9 0
BBX 8 14 0 0
BITMAP
32
4C
00
7E
C3
C3
C3
C3
C3
C3
C3
C3
C3
7E
ENDCHAR

STARTCHAR Odieresis
ENCODING 214
SWIDTH 529 0
DWIDTH 9 0
BBX 8 14 0 0
BITMAP
66
66
00
7E
C3
C3
C3
C3
C3
C3
C3
C3
C3
7E
ENDCHAR

STARTCHAR multiply
ENCODING 215
SWIDTH 529 0
DWIDTH 9 0
BBX 7 7 1 2
BITMAP
C6
6C
38
10
38
6C
C6
ENDCHAR

STARTCHAR Oslash
ENCODING 216
SWIDTH 529 0
DWIDTH 9 0
BBX 7 11 1 0
BITMAP
38
6C
C6
C6
CE
D6
E6
C6
C6
6C
38
ENDCHAR

STARTCHAR Ugrave
ENCODING 217
SWIDTH 529 0
DWIDTH 9 0
BBX 8 14 0 0
BITMAP
18
0C
00
C3
C3
C3
C3
C3
C3
C3
C3
C3
C3
7E
ENDCHAR

STARTCHAR Uacute
ENCODING 218
SWIDTH 529 0
DWIDTH 9 0
BBX 8 14 0 0
BITMAP
0C
18
00
C3
C3
C3
C3
C3
C3
C3
C3
C3
C3
7E
ENDCHAR

STARTCHAR Ucircumflex
ENCODING 219
SWIDTH 529 0
DWIDTH 9 0
BBX 8 14 0 0
BITMAP
18
24
00
C3
C3
C3
C3
C3
C3
C3
C3
C3
C3
7E
ENDCHAR

STARTCHAR Udieresis
ENCODING 220
SWIDTH 529 0
DWIDTH 9 0
BBX 8 14 0 0
BITMAP
66
66
00
C3
C3
C3
C3
C3
C3
C3
C3
C3
C3
7E
ENDCHAR

STARTCHAR Yacute
ENCODING 221
SWIDTH 529 0
DWIDTH 9 0
BBX 8 14 0 0
BITMAP
0C
18
00
C3
C3
C3
66
3C
18
18
18
18
18
18
ENDCHAR

STARTCHAR Thorn
ENCODING 222
SWIDTH 529 0
DWIDTH 9 0
BBX 6 11 1 0
BITMAP
C0
C0
C0
F8
CC
CC
CC
F8
C0
C0
C0
ENDCHAR

STARTCHAR germandbls
ENCODING 223
SWIDTH 529 0
DWIDTH 9 0
BBX 7 11 1 0
BITMAP
78
CC
CC
CC
CC
DC
C6
C6
C6
C6
DC
ENDCHAR

STARTCHAR agrave
ENCODING 224
SWIDTH 529 0
DWIDTH 9 0
BBX 7 10 1 0
BITMAP
30
18
00
7C
06
06
7E
C6
C6
7E
ENDCHAR

STARTCHAR aacute
ENCODING 225
SWIDTH 529 0
DWIDTH 9 0
BBX 7 10 1 0
BITMAP
0C
18
00
7C
06
06
7E
C6
C6
7E
ENDCHAR

STARTCHAR acircumflex
ENCODING 226
SWIDTH 529 0
DWIDTH 9 0
BBX 7 10 1 0
BITMAP
10
28
00
7C
06
06
7E
C6
C6
7E
ENDCHAR

STARTCHAR atilde
ENCODING 227
SWIDTH 529 0
DWIDTH 9 0
BBX 7 10 1 0
BITMAP
32
4C
00
7C
06
06
7E
C6
C6
7E
ENDCHAR

STARTCHAR adieresis
ENCODING 228
SWIDTH 529 0
DWIDTH 9 0
BBX 7 10 1 0
BITMAP
6C
6C
00
7C
06
06
7E
C6
C6
7E
ENDCHAR

STARTCHAR aring
ENCODING 229
SWIDTH 529 0
DWIDTH 9 0
BBX 7 11 1 0
BITMAP
18
24
18
00
7C
06
06
7E
C6
C6
7E
ENDCHAR

STARTCHAR ae
ENCODING 230
SWIDTH 529 0
DWIDTH 9 0
BBX 8 7 0 0
BITMAP
76
1B
1B
7F
D8
DB
7E
ENDCHAR

STARTCHAR ccedilla
ENCODING 231
SWIDTH 529 0
DWIDTH 9 0
BBX 7 9 1 -2
BITMAP
7C
C6
C0
C0
C0
C6
7C
10
30
ENDCHAR

STARTCHAR egrave
ENCODING 232
SWIDTH 529 0
DWIDTH 9 0
BBX 7 10 1 0
BITMAP
30
18
00
7C
C6
C6
FE
C0
C6
7C
ENDCHAR

STARTCHAR eacute
ENCODING 233
SWIDTH 529 0
DWIDTH 9 0
BBX 7 10 1 0
BITMAP
0C
18
00
7C
C6
C6
FE
C0
C6
7C
ENDCHAR

STARTCHAR ecircumflex
ENCODING 234
SWIDTH 529 0
DWIDTH 9 0
BBX 7 10 1 0
BITMAP
10
28
00
7C
C6
C6
FE
C0
C6
7C
ENDCHAR

STARTCHAR edieresis
ENCODING 235
SWIDTH 529 0
DWIDTH 9 0
BBX 7 10 1 0
BITMAP
6C
6C
00
7C
C6
C6
FE
C0
C6
7C
ENDCHAR

STARTCHAR igrave
ENCODING 236
SWIDTH 529 0
DWIDTH 9 0
BBX 6 10 2 0
BITMAP
60
30
00
70
30
30
30
30
30
FC
ENDCHAR

STARTCHAR iacute
ENCODING 237
SWIDTH 529 0
DWIDTH 9 0
BBX 6 10 2 0
BITMAP
30
60
00
70
30
30
30
30
30
FC
ENDCHAR

STARTCHAR icircumflex
ENCODING 238
SWIDTH 529 0
DWIDTH 9 0
BBX 6 10 2 0
BITMAP
30
48
00
70
30
30
30
30
30
FC
ENDCHAR

STARTCHAR idieresis
ENCODING 239
SWIDTH 529 0
DWIDTH 9 0
BBX 6 10 2 0
BITMAP
D8
D8
00
70
30
30
30
30
30
FC
ENDCHAR

STARTCHAR eth
ENCODING 240
SWIDTH 529 0
DWIDTH 9 0
BBX 7 11 1 0
BITMAP
28
10
28
04
7C
C6
C6
C6
C6
C6
7C
ENDCHAR

STARTCHAR ntilde
ENCODING 241
SWIDTH 529 0
DWIDTH 9 0
BBX 7 10 1 0
BITMAP
32
4C
00
DC
E6
C6
C6
C6
C6
C6
ENDCHAR

STARTCHAR ograve
ENCODING 242
SWIDTH 529 0
DWIDTH 9 0
BBX 7 10 1 0
BITMAP
30
18
00
7C
C6
C6
C6
C6
C6
7C
ENDCHAR

STARTCHAR oacute
ENCODING 243
SWIDTH 529 0
DWIDTH 9 0
BBX 7 10 1 0
BITMAP
0C
18
00
7C
C6
C6
C6
C6
C6
7C
ENDCHAR

STARTCHAR ocircumflex
ENCODING 244
SWIDTH 529 0
DWIDTH 9 0
BBX 7 10 1 0
BITMAP
10
28
00
7C
C6
C6
C6
C6
C6
7C
ENDCHAR

STARTCHAR otilde
ENCODING 245
SWIDTH 529 0
DWIDTH 9 0
BBX 7 10 1 0
BITMAP
32
4C
00
7C
C6
C6
C6
C6
C6
7C
ENDCHAR

STARTCHAR odieresis
ENCODING 246
SWIDTH 529 0
DWIDTH 9 0
BBX 7 10 1 0
BITMAP
6C
6C
00
7C
C6
C6
C6
C6
C6
7C
ENDCHAR

STARTCHAR divide
ENCODING 247
SWIDTH 529 0
DWIDTH 9 0
BBX 8 7 0 2
BITMAP
18
18
00
FF
00
18
18
ENDCHAR

STARTCHAR oslash
ENCODING 248
SWIDTH 529 0
DWIDTH 9 0
BBX 7 7 1 0
BITMAP
7C
C6
CE
D6
E6
C6
7C
ENDCHAR

STARTCHAR ugrave
ENCODING 249
SWIDTH 529 0
DWIDTH 9 0
BBX 7 10 1 0
BITMAP
30
18
00
C6
C6
C6
C6
C6
CE
76
ENDCHAR

STARTCHAR uacute
ENCODING 250
SWIDTH 529 0
DWIDTH 9 0
BBX 7 10 1 0
BITMAP
0C
18
00
C6
C6
C6
C6
C6
CE
76
ENDCHAR

STARTCHAR ucircumflex
ENCODING 251
SWIDTH 529 0
DWIDTH 9 0
BBX 7 10 1 0
BITMAP
10
28
00
C6
C6
C6
C6
C6
CE
76
ENDCHAR

STARTCHAR udieresis
ENCODING 252
SWIDTH 529 0
DWIDTH 9 0
BBX 7 10 1 0
BITMAP
6C
6C
00
C6
C6
C6
C6
C6
CE
76
ENDCHAR

STARTCHAR yacute
ENCODING 253
SWIDTH 529 0
DWIDTH 9 0
BBX 7 13 1 -3
BITMAP
0C
18
00
C6
C6
6C
6C
38
38
30
30
60
60
ENDCHAR

STARTCHAR thorn
ENCODING 254
SWIDTH 529 0
DWIDTH 9 0
BBX 5 13 2 -2
BITMAP
C0
C0
C0
F0
D8
D8
D8
D8
D8
F0
C0
C0
C0
ENDCHAR

STARTCHAR ydieresis
ENCODING 255
SWIDTH 529 0
DWIDTH 9 0
BBX 7 13 1 -3
BITMAP
6C
6C
00
C6
C6
6C
6C
38
38
30
30
60
60
ENDCHAR

ENDFONT
