STARTFONT 2.1
FONT -FontForge-Raize-Normal-R-Normal--17-160-75-75-M-90-ISO8859-1
SIZE 16 75 75
FONTBOUNDINGBOX 9 18 0 -4

STARTPROPERTIES 36
FOUNDRY "FontForge"
FAMILY_NAME "Raize"
WEIGHT_NAME "Normal"
SLANT "R"
SETWIDTH_NAME "Normal"
ADD_STYLE_NAME ""
PIXEL_SIZE 17
POINT_SIZE 160
RESOLUTION_X 75
RESOLUTION_Y 75
SPACING "M"
AVERAGE_WIDTH 90
CHARSET_REGISTRY "ISO8859"
CHARSET_ENCODING "1"
FONTNAME_REGISTRY ""
CHARSET_COLLECTIONS "ISOLatin1Encoding"
FONT_NAME "RaizeNormal"
FACE_NAME "Raize"
FONT_VERSION "001.000"
UNDERLINE_POSITION 4294967294
UNDERLINE_THICKNESS 1
X_HEIGHT 6
CAP_HEIGHT 10
RAW_ASCENT 800
RAW_DESCENT 200
NORM_SPACE 9
RELATIVE_WEIGHT 40
RELATIVE_SETWIDTH 50
FIGURE_WIDTH 9
AVG_LOWERCASE_WIDTH 90
AVG_UPPERCASE_WIDTH 90
WEIGHT 10
QUAD_WIDTH 9
DEFAULT_CHAR 0
FONT_DESCENT 3
FONT_ASCENT 14
ENDPROPERTIES

CHARS 192

STARTCHAR space
ENCODING 32
SWIDTH 529 0
DWIDTH 9 0
BBX 1 1 8 -4
BITMAP
00
ENDCHAR

STARTCHAR exclam
ENCODING 33
SWIDTH 529 0
DWIDTH 9 0
BBX 2 11 3 0
BITMAP
C0
C0
C0
C0
C0
C0
C0
00
00
C0
C0
ENDCHAR

STARTCHAR quotedbl
ENCODING 34
SWIDTH 529 0
DWIDTH 9 0
BBX 4 3 2 8
BITMAP
90
90
90
ENDCHAR

STARTCHAR numbersign
ENCODING 35
SWIDTH 529 0
DWIDTH 9 0
BBX 8 11 0 0
BITMAP
12
12
12
7F
24
24
24
FE
48
48
48
ENDCHAR

STARTCHAR dollar
ENCODING 36
SWIDTH 529 0
DWIDTH 9 0
BBX 7 11 1 0
BITMAP
10
7C
92
90
90
7C
12
12
92
7C
10
ENDCHAR

STARTCHAR percent
ENCODING 37
SWIDTH 529 0
DWIDTH 9 0
BBX 8 8 0 2
BITMAP
41
A2
44
08
10
22
45
82
ENDCHAR

STARTCHAR ampersand
ENCODING 38
SWIDTH 529 0
DWIDTH 9 0
BBX 8 11 0 0
BITMAP
30
48
48
50
20
50
89
85
82
85
79
ENDCHAR

STARTCHAR quotesingle
ENCODING 39
SWIDTH 529 0
DWIDTH 9 0
BBX 2 4 3 7
BITMAP
C0
C0
40
80
ENDCHAR

STARTCHAR parenleft
ENCODING 40
SWIDTH 529 0
DWIDTH 9 0
BBX 3 13 3 -2
BITMAP
20
40
40
80
80
80
80
80
80
80
40
40
20
ENDCHAR

STARTCHAR parenright
ENCODING 41
SWIDTH 529 0
DWIDTH 9 0
BBX 3 13 3 -2
BITMAP
80
40
40
20
20
20
20
20
20
20
40
40
80
ENDCHAR

STARTCHAR asterisk
ENCODING 42
SWIDTH 529 0
DWIDTH 9 0
BBX 7 5 1 2
BITMAP
6C
38
FE
38
6C
ENDCHAR

STARTCHAR plus
ENCODING 43
SWIDTH 529 0
DWIDTH 9 0
BBX 7 7 1 1
BITMAP
10
10
10
FE
10
10
10
ENDCHAR

STARTCHAR comma
ENCODING 44
SWIDTH 529 0
DWIDTH 9 0
BBX 2 4 3 -2
BITMAP
C0
C0
40
80
ENDCHAR

STARTCHAR hyphen
ENCODING 45
SWIDTH 529 0
DWIDTH 9 0
BBX 7 1 1 4
BITMAP
FE
ENDCHAR

STARTCHAR period
ENCODING 46
SWIDTH 529 0
DWIDTH 9 0
BBX 2 2 3 0
BITMAP
C0
C0
ENDCHAR

STARTCHAR slash
ENCODING 47
SWIDTH 529 0
DWIDTH 9 0
BBX 6 12 1 -1
BITMAP
04
04
08
08
10
10
20
20
40
40
80
80
ENDCHAR

STARTCHAR zero
ENCODING 48
SWIDTH 529 0
DWIDTH 9 0
BBX 7 11 1 0
BITMAP
7C
82
82
86
8A
92
A2
C2
82
82
7C
ENDCHAR

STARTCHAR one
ENCODING 49
SWIDTH 529 0
DWIDTH 9 0
BBX 7 11 1 0
BITMAP
10
30
50
10
10
10
10
10
10
10
FE
ENDCHAR

STARTCHAR two
ENCODING 50
SWIDTH 529 0
DWIDTH 9 0
BBX 7 11 1 0
BITMAP
7C
82
82
04
08
10
20
40
80
80
FE
ENDCHAR

STARTCHAR three
ENCODING 51
SWIDTH 529 0
DWIDTH 9 0
BBX 7 11 1 0
BITMAP
7C
82
82
02
02
3C
02
02
82
82
7C
ENDCHAR

STARTCHAR four
ENCODING 52
SWIDTH 529 0
DWIDTH 9 0
BBX 7 11 1 0
BITMAP
06
0A
12
22
42
82
FE
02
02
02
02
ENDCHAR

STARTCHAR five
ENCODING 53
SWIDTH 529 0
DWIDTH 9 0
BBX 7 11 1 0
BITMAP
FE
80
80
80
80
FC
02
02
82
82
7C
ENDCHAR

STARTCHAR six
ENCODING 54
SWIDTH 529 0
DWIDTH 9 0
BBX 7 11 1 0
BITMAP
3C
40
80
80
80
FC
82
82
82
82
7C
ENDCHAR

STARTCHAR seven
ENCODING 55
SWIDTH 529 0
DWIDTH 9 0
BBX 7 11 1 0
BITMAP
FE
82
82
04
04
08
08
10
10
20
20
ENDCHAR

STARTCHAR eight
ENCODING 56
SWIDTH 529 0
DWIDTH 9 0
BBX 7 11 1 0
BITMAP
7C
82
82
82
82
7C
82
82
82
82
7C
ENDCHAR

STARTCHAR nine
ENCODING 57
SWIDTH 529 0
DWIDTH 9 0
BBX 7 11 1 0
BITMAP
7C
82
82
82
82
7E
02
02
02
04
78
ENDCHAR

STARTCHAR colon
ENCODING 58
SWIDTH 529 0
DWIDTH 9 0
BBX 2 8 3 0
BITMAP
C0
C0
00
00
00
00
C0
C0
ENDCHAR

STARTCHAR semicolon
ENCODING 59
SWIDTH 529 0
DWIDTH 9 0
BBX 2 10 3 -2
BITMAP
C0
C0
00
00
00
00
C0
C0
40
80
ENDCHAR

STARTCHAR less
ENCODING 60
SWIDTH 529 0
DWIDTH 9 0
BBX 6 11 1 0
BITMAP
04
08
10
20
40
80
40
20
10
08
04
ENDCHAR

STARTCHAR equal
ENCODING 61
SWIDTH 529 0
DWIDTH 9 0
BBX 7 4 1 2
BITMAP
FE
00
00
FE
ENDCHAR

STARTCHAR greater
ENCODING 62
SWIDTH 529 0
DWIDTH 9 0
BBX 6 11 1 0
BITMAP
80
40
20
10
08
04
08
10
20
40
80
ENDCHAR

STARTCHAR question
ENCODING 63
SWIDTH 529 0
DWIDTH 9 0
BBX 7 11 1 0
BITMAP
7C
82
82
02
04
08
10
10
00
10
10
ENDCHAR

STARTCHAR at
ENCODING 64
SWIDTH 529 0
DWIDTH 9 0
BBX 8 11 0 0
BITMAP
3C
42
81
9D
A5
A5
A5
9E
80
40
3E
ENDCHAR

STARTCHAR A
ENCODING 65
SWIDTH 529 0
DWIDTH 9 0
BBX 8 11 0 0
BITMAP
3C
42
81
81
81
FF
81
81
81
81
81
ENDCHAR

STARTCHAR B
ENCODING 66
SWIDTH 529 0
DWIDTH 9 0
BBX 8 11 0 0
BITMAP
FE
81
81
81
81
FE
81
81
81
81
FE
ENDCHAR

STARTCHAR C
ENCODING 67
SWIDTH 529 0
DWIDTH 9 0
BBX 8 11 0 0
BITMAP
7E
81
81
80
80
80
80
80
81
81
7E
ENDCHAR

STARTCHAR D
ENCODING 68
SWIDTH 529 0
DWIDTH 9 0
BBX 8 11 0 0
BITMAP
FC
82
81
81
81
81
81
81
81
82
FC
ENDCHAR

STARTCHAR E
ENCODING 69
SWIDTH 529 0
DWIDTH 9 0
BBX 8 11 0 0
BITMAP
FF
80
80
80
80
FE
80
80
80
80
FF
ENDCHAR

STARTCHAR F
ENCODING 70
SWIDTH 529 0
DWIDTH 9 0
BBX 8 11 0 0
BITMAP
FF
80
80
80
80
FE
80
80
80
80
80
ENDCHAR

STARTCHAR G
ENCODING 71
SWIDTH 529 0
DWIDTH 9 0
BBX 8 11 0 0
BITMAP
7E
81
81
80
80
80
8F
81
81
81
7F
ENDCHAR

STARTCHAR H
ENCODING 72
SWIDTH 529 0
DWIDTH 9 0
BBX 8 11 0 0
BITMAP
81
81
81
81
81
FF
81
81
81
81
81
ENDCHAR

STARTCHAR I
ENCODING 73
SWIDTH 529 0
DWIDTH 9 0
BBX 7 11 1 0
BITMAP
FE
10
10
10
10
10
10
10
10
10
FE
ENDCHAR

STARTCHAR J
ENCODING 74
SWIDTH 529 0
DWIDTH 9 0
BBX 8 11 0 0
BITMAP
01
01
01
01
01
01
01
01
81
81
7E
ENDCHAR

STARTCHAR K
ENCODING 75
SWIDTH 529 0
DWIDTH 9 0
BBX 8 11 0 0
BITMAP
81
82
84
88
90
E0
90
88
84
82
81
ENDCHAR

STARTCHAR L
ENCODING 76
SWIDTH 529 0
DWIDTH 9 0
BBX 8 11 0 0
BITMAP
80
80
80
80
80
80
80
80
80
80
FF
ENDCHAR

STARTCHAR M
ENCODING 77
SWIDTH 529 0
DWIDTH 9 0
BBX 8 11 0 0
BITMAP
81
C3
A5
99
81
81
81
81
81
81
81
ENDCHAR

STARTCHAR N
ENCODING 78
SWIDTH 529 0
DWIDTH 9 0
BBX 8 11 0 0
BITMAP
81
C1
A1
91
89
85
83
81
81
81
81
ENDCHAR

STARTCHAR O
ENCODING 79
SWIDTH 529 0
DWIDTH 9 0
BBX 8 11 0 0
BITMAP
7E
81
81
81
81
81
81
81
81
81
7E
ENDCHAR

STARTCHAR P
ENCODING 80
SWIDTH 529 0
DWIDTH 9 0
BBX 8 11 0 0
BITMAP
FE
81
81
81
81
FE
80
80
80
80
80
ENDCHAR

STARTCHAR Q
ENCODING 81
SWIDTH 529 0
DWIDTH 9 0
BBX 8 12 0 -1
BITMAP
7E
81
81
81
81
81
81
81
99
8D
7E
03
ENDCHAR

STARTCHAR R
ENCODING 82
SWIDTH 529 0
DWIDTH 9 0
BBX 8 11 0 0
BITMAP
FE
81
81
81
81
FE
82
81
81
81
81
ENDCHAR

STARTCHAR S
ENCODING 83
SWIDTH 529 0
DWIDTH 9 0
BBX 8 11 0 0
BITMAP
7E
81
81
80
80
7E
01
01
81
81
7E
ENDCHAR

STARTCHAR T
ENCODING 84
SWIDTH 529 0
DWIDTH 9 0
BBX 7 11 1 0
BITMAP
FE
10
10
10
10
10
10
10
10
10
10
ENDCHAR

STARTCHAR U
ENCODING 85
SWIDTH 529 0
DWIDTH 9 0
BBX 8 11 0 0
BITMAP
81
81
81
81
81
81
81
81
81
81
7E
ENDCHAR

STARTCHAR V
ENCODING 86
SWIDTH 529 0
DWIDTH 9 0
BBX 7 11 1 0
BITMAP
82
82
82
82
82
44
44
28
28
10
10
ENDCHAR

STARTCHAR W
ENCODING 87
SWIDTH 529 0
DWIDTH 9 0
BBX 7 11 1 0
BITMAP
82
82
82
82
82
92
92
92
92
AA
44
ENDCHAR

STARTCHAR X
ENCODING 88
SWIDTH 529 0
DWIDTH 9 0
BBX 7 11 1 0
BITMAP
82
82
82
44
28
10
28
44
82
82
82
ENDCHAR

STARTCHAR Y
ENCODING 89
SWIDTH 529 0
DWIDTH 9 0
BBX 7 11 1 0
BITMAP
82
82
82
44
28
10
10
10
10
10
10
ENDCHAR

STARTCHAR Z
ENCODING 90
SWIDTH 529 0
DWIDTH 9 0
BBX 8 11 0 0
BITMAP
FF
01
02
04
08
10
20
40
80
80
FF
ENDCHAR

STARTCHAR bracketleft
ENCODING 91
SWIDTH 529 0
DWIDTH 9 0
BBX 3 13 3 -2
BITMAP
E0
80
80
80
80
80
80
80
80
80
80
80
E0
ENDCHAR

STARTCHAR backslash
ENCODING 92
SWIDTH 529 0
DWIDTH 9 0
BBX 6 12 1 -1
BITMAP
80
80
40
40
20
20
10
10
08
08
04
04
ENDCHAR

STARTCHAR bracketright
ENCODING 93
SWIDTH 529 0
DWIDTH 9 0
BBX 3 13 2 -2
BITMAP
E0
20
20
20
20
20
20
20
20
20
20
20
E0
ENDCHAR

STARTCHAR asciicircum
ENCODING 94
SWIDTH 529 0
DWIDTH 9 0
BBX 7 4 1 7
BITMAP
10
28
44
82
ENDCHAR

STARTCHAR underscore
ENCODING 95
SWIDTH 529 0
DWIDTH 9 0
BBX 9 1 0 -2
BITMAP
FF80
ENDCHAR

STARTCHAR grave
ENCODING 96
SWIDTH 529 0
DWIDTH 9 0
BBX 2 4 3 7
BITMAP
C0
C0
80
40
ENDCHAR

STARTCHAR a
ENCODING 97
SWIDTH 529 0
DWIDTH 9 0
BBX 7 7 1 0
BITMAP
7C
02
02
7E
82
82
7E
ENDCHAR

STARTCHAR b
ENCODING 98
SWIDTH 529 0
DWIDTH 9 0
BBX 7 11 1 0
BITMAP
80
80
80
80
BC
C2
82
82
82
82
FC
ENDCHAR

STARTCHAR c
ENCODING 99
SWIDTH 529 0
DWIDTH 9 0
BBX 7 7 1 0
BITMAP
7C
82
80
80
80
82
7C
ENDCHAR

STARTCHAR d
ENCODING 100
SWIDTH 529 0
DWIDTH 9 0
BBX 7 11 1 0
BITMAP
02
02
02
02
7E
82
82
82
82
86
7A
ENDCHAR

STARTCHAR e
ENCODING 101
SWIDTH 529 0
DWIDTH 9 0
BBX 7 7 1 0
BITMAP
7C
82
82
FE
80
82
7C
ENDCHAR

STARTCHAR f
ENCODING 102
SWIDTH 529 0
DWIDTH 9 0
BBX 8 11 0 0
BITMAP
1E
21
21
20
20
FC
20
20
20
20
20
ENDCHAR

STARTCHAR g
ENCODING 103
SWIDTH 529 0
DWIDTH 9 0
BBX 7 10 1 -3
BITMAP
7E
82
82
82
82
86
7A
02
82
7C
ENDCHAR

STARTCHAR h
ENCODING 104
SWIDTH 529 0
DWIDTH 9 0
BBX 7 11 1 0
BITMAP
80
80
80
80
BC
C2
82
82
82
82
82
ENDCHAR

STARTCHAR i
ENCODING 105
SWIDTH 529 0
DWIDTH 9 0
BBX 5 10 2 0
BITMAP
20
20
00
60
20
20
20
20
20
F8
ENDCHAR

STARTCHAR j
ENCODING 106
SWIDTH 529 0
DWIDTH 9 0
BBX 7 13 1 -3
BITMAP
02
02
00
02
02
02
02
02
02
02
82
82
7C
ENDCHAR

STARTCHAR k
ENCODING 107
SWIDTH 529 0
DWIDTH 9 0
BBX 7 11 1 0
BITMAP
80
80
80
84
88
90
E0
90
88
84
82
ENDCHAR

STARTCHAR l
ENCODING 108
SWIDTH 529 0
DWIDTH 9 0
BBX 5 11 2 0
BITMAP
60
20
20
20
20
20
20
20
20
20
F8
ENDCHAR

STARTCHAR m
ENCODING 109
SWIDTH 529 0
DWIDTH 9 0
BBX 7 7 1 0
BITMAP
FC
92
92
92
92
92
92
ENDCHAR

STARTCHAR n
ENCODING 110
SWIDTH 529 0
DWIDTH 9 0
BBX 7 7 1 0
BITMAP
BC
C2
82
82
82
82
82
ENDCHAR

STARTCHAR o
ENCODING 111
SWIDTH 529 0
DWIDTH 9 0
BBX 7 7 1 0
BITMAP
7C
82
82
82
82
82
7C
ENDCHAR

STARTCHAR p
ENCODING 112
SWIDTH 529 0
DWIDTH 9 0
BBX 7 10 1 -3
BITMAP
BC
C2
82
82
82
82
FC
80
80
80
ENDCHAR

STARTCHAR q
ENCODING 113
SWIDTH 529 0
DWIDTH 9 0
BBX 7 10 1 -3
BITMAP
7E
82
82
82
82
86
7A
02
02
02
ENDCHAR

STARTCHAR r
ENCODING 114
SWIDTH 529 0
DWIDTH 9 0
BBX 7 7 1 0
BITMAP
BC
C2
80
80
80
80
80
ENDCHAR

STARTCHAR s
ENCODING 115
SWIDTH 529 0
DWIDTH 9 0
BBX 7 7 1 0
BITMAP
7C
82
80
7C
02
82
7C
ENDCHAR

STARTCHAR t
ENCODING 116
SWIDTH 529 0
DWIDTH 9 0
BBX 7 10 1 0
BITMAP
20
20
20
FC
20
20
20
20
22
1C
ENDCHAR

STARTCHAR u
ENCODING 117
SWIDTH 529 0
DWIDTH 9 0
BBX 7 7 1 0
BITMAP
82
82
82
82
82
86
7A
ENDCHAR

STARTCHAR v
ENCODING 118
SWIDTH 529 0
DWIDTH 9 0
BBX 7 7 1 0
BITMAP
82
82
82
82
44
28
10
ENDCHAR

STARTCHAR w
ENCODING 119
SWIDTH 529 0
DWIDTH 9 0
BBX 7 7 1 0
BITMAP
82
82
92
92
AA
AA
44
ENDCHAR

STARTCHAR x
ENCODING 120
SWIDTH 529 0
DWIDTH 9 0
BBX 7 7 1 0
BITMAP
82
44
28
10
28
44
82
ENDCHAR

STARTCHAR y
ENCODING 121
SWIDTH 529 0
DWIDTH 9 0
BBX 7 10 1 -3
BITMAP
82
82
44
44
28
28
10
10
20
20
ENDCHAR

STARTCHAR z
ENCODING 122
SWIDTH 529 0
DWIDTH 9 0
BBX 7 7 1 0
BITMAP
FE
04
08
10
20
40
FE
ENDCHAR

STARTCHAR braceleft
ENCODING 123
SWIDTH 529 0
DWIDTH 9 0
BBX 5 13 2 -2
BITMAP
18
20
20
20
20
20
C0
20
20
20
20
20
18
ENDCHAR

STARTCHAR bar
ENCODING 124
SWIDTH 529 0
DWIDTH 9 0
BBX 1 13 4 -2
BITMAP
80
80
80
80
80
80
80
80
80
80
80
80
80
ENDCHAR

STARTCHAR braceright
ENCODING 125
SWIDTH 529 0
DWIDTH 9 0
BBX 5 13 3 -2
BITMAP
C0
20
20
20
20
20
18
20
20
20
20
20
C0
ENDCHAR

STARTCHAR asciitilde
ENCODING 126
SWIDTH 529 0
DWIDTH 9 0
BBX 7 3 1 8
BITMAP
62
92
8C
ENDCHAR

STARTCHAR uni007F
ENCODING 127
SWIDTH 529 0
DWIDTH 9 0
BBX 2 11 4 0
BITMAP
C0
C0
C0
C0
C0
C0
C0
C0
C0
C0
C0
ENDCHAR

STARTCHAR uni00A0
ENCODING 160
SWIDTH 529 0
DWIDTH 9 0
BBX 1 1 8 -4
BITMAP
00
ENDCHAR

STARTCHAR exclamdown
ENCODING 161
SWIDTH 529 0
DWIDTH 9 0
BBX 1 11 4 0
BITMAP
80
00
80
80
80
80
80
80
80
80
80
ENDCHAR

STARTCHAR cent
ENCODING 162
SWIDTH 529 0
DWIDTH 9 0
BBX 7 10 1 -1
BITMAP
10
10
7C
92
90
90
92
7C
10
10
ENDCHAR

STARTCHAR sterling
ENCODING 163
SWIDTH 529 0
DWIDTH 9 0
BBX 8 11 0 0
BITMAP
1E
21
21
20
20
78
20
20
20
40
FF
ENDCHAR

STARTCHAR currency
ENCODING 164
SWIDTH 529 0
DWIDTH 9 0
BBX 7 7 1 2
BITMAP
82
7C
44
44
44
7C
82
ENDCHAR

STARTCHAR yen
ENCODING 165
SWIDTH 529 0
DWIDTH 9 0
BBX 7 11 1 0
BITMAP
82
82
82
44
28
10
7C
10
10
10
10
ENDCHAR

STARTCHAR brokenbar
ENCODING 166
SWIDTH 529 0
DWIDTH 9 0
BBX 1 13 4 -2
BITMAP
80
80
80
80
80
80
00
80
80
80
80
80
80
ENDCHAR

STARTCHAR section
ENCODING 167
SWIDTH 529 0
DWIDTH 9 0
BBX 7 12 1 -1
BITMAP
7E
80
80
80
7C
82
82
7C
02
02
02
FC
ENDCHAR

STARTCHAR dieresis
ENCODING 168
SWIDTH 529 0
DWIDTH 9 0
BBX 4 2 3 12
BITMAP
90
90
ENDCHAR

STARTCHAR copyright
ENCODING 169
SWIDTH 529 0
DWIDTH 9 0
BBX 8 10 0 0
BITMAP
3C
42
99
A5
A1
A1
A5
99
42
3C
ENDCHAR

STARTCHAR ordfeminine
ENCODING 170
SWIDTH 529 0
DWIDTH 9 0
BBX 5 8 2 3
BITMAP
70
08
78
88
88
78
00
F8
ENDCHAR

STARTCHAR guillemotleft
ENCODING 171
SWIDTH 529 0
DWIDTH 9 0
BBX 7 7 1 1
BITMAP
12
24
48
90
48
24
12
ENDCHAR

STARTCHAR logicalnot
ENCODING 172
SWIDTH 529 0
DWIDTH 9 0
BBX 6 3 1 3
BITMAP
FC
04
04
ENDCHAR

STARTCHAR uni00AD
ENCODING 173
SWIDTH 529 0
DWIDTH 9 0
BBX 4 1 2 5
BITMAP
F0
ENDCHAR

STARTCHAR registered
ENCODING 174
SWIDTH 529 0
DWIDTH 9 0
BBX 8 10 0 0
BITMAP
3C
42
B9
A5
A5
B9
A5
A5
42
3C
ENDCHAR

STARTCHAR macron
ENCODING 175
SWIDTH 529 0
DWIDTH 9 0
BBX 9 1 0 12
BITMAP
FF80
ENDCHAR

STARTCHAR degree
ENCODING 176
SWIDTH 529 0
DWIDTH 9 0
BBX 4 4 2 7
BITMAP
60
90
90
60
ENDCHAR

STARTCHAR plusminus
ENCODING 177
SWIDTH 529 0
DWIDTH 9 0
BBX 7 9 1 1
BITMAP
10
10
10
FE
10
10
10
00
FE
ENDCHAR

STARTCHAR uni00B2
ENCODING 178
SWIDTH 529 0
DWIDTH 9 0
BBX 4 7 2 4
BITMAP
60
90
10
20
40
80
F0
ENDCHAR

STARTCHAR uni00B3
ENCODING 179
SWIDTH 529 0
DWIDTH 9 0
BBX 4 7 2 4
BITMAP
60
90
10
20
10
90
60
ENDCHAR

STARTCHAR acute
ENCODING 180
SWIDTH 529 0
DWIDTH 9 0
BBX 2 2 3 9
BITMAP
40
80
ENDCHAR

STARTCHAR uni00B5
ENCODING 181
SWIDTH 529 0
DWIDTH 9 0
BBX 7 9 1 -3
BITMAP
84
84
84
84
84
FA
80
80
80
ENDCHAR

STARTCHAR paragraph
ENCODING 182
SWIDTH 529 0
DWIDTH 9 0
BBX 7 11 1 0
BITMAP
7E
F2
F2
F2
F2
72
12
12
12
12
12
ENDCHAR

STARTCHAR periodcentered
ENCODING 183
SWIDTH 529 0
DWIDTH 9 0
BBX 2 2 3 5
BITMAP
C0
C0
ENDCHAR

STARTCHAR cedilla
ENCODING 184
SWIDTH 529 0
DWIDTH 9 0
BBX 3 2 4 -2
BITMAP
60
C0
ENDCHAR

STARTCHAR uni00B9
ENCODING 185
SWIDTH 529 0
DWIDTH 9 0
BBX 3 7 3 4
BITMAP
40
C0
40
40
40
40
E0
ENDCHAR

STARTCHAR ordmasculine
ENCODING 186
SWIDTH 529 0
DWIDTH 9 0
BBX 4 8 3 3
BITMAP
60
90
90
90
90
60
00
F0
ENDCHAR

STARTCHAR guillemotright
ENCODING 187
SWIDTH 529 0
DWIDTH 9 0
BBX 7 7 1 1
BITMAP
90
48
24
12
24
48
90
ENDCHAR

STARTCHAR onequarter
ENCODING 188
SWIDTH 529 0
DWIDTH 9 0
BBX 8 11 0 0
BITMAP
40
C0
41
42
44
49
13
25
47
81
01
ENDCHAR

STARTCHAR onehalf
ENCODING 189
SWIDTH 529 0
DWIDTH 9 0
BBX 8 11 0 0
BITMAP
40
C0
41
42
44
4A
15
21
42
84
07
ENDCHAR

STARTCHAR threequarters
ENCODING 190
SWIDTH 529 0
DWIDTH 9 0
BBX 8 11 0 0
BITMAP
60
90
21
12
94
69
13
25
47
81
01
ENDCHAR

STARTCHAR questiondown
ENCODING 191
SWIDTH 529 0
DWIDTH 9 0
BBX 7 11 1 0
BITMAP
10
10
00
10
10
20
40
80
82
82
7C
ENDCHAR

STARTCHAR Agrave
ENCODING 192
SWIDTH 529 0
DWIDTH 9 0
BBX 8 14 0 0
BITMAP
10
08
00
3C
42
81
81
81
FF
81
81
81
81
81
ENDCHAR

STARTCHAR Aacute
ENCODING 193
SWIDTH 529 0
DWIDTH 9 0
BBX 8 14 0 0
BITMAP
08
10
00
3C
42
81
81
81
FF
81
81
81
81
81
ENDCHAR

STARTCHAR Acircumflex
ENCODING 194
SWIDTH 529 0
DWIDTH 9 0
BBX 8 14 0 0
BITMAP
18
24
00
3C
42
81
81
81
FF
81
81
81
81
81
ENDCHAR

STARTCHAR Atilde
ENCODING 195
SWIDTH 529 0
DWIDTH 9 0
BBX 8 14 0 0
BITMAP
32
4C
00
3C
42
81
81
81
FF
81
81
81
81
81
ENDCHAR

STARTCHAR Adieresis
ENCODING 196
SWIDTH 529 0
DWIDTH 9 0
BBX 8 14 0 0
BITMAP
24
24
00
3C
42
81
81
81
FF
81
81
81
81
81
ENDCHAR

STARTCHAR Aring
ENCODING 197
SWIDTH 529 0
DWIDTH 9 0
BBX 8 14 0 0
BITMAP
18
24
18
3C
42
81
81
81
FF
81
81
81
81
81
ENDCHAR

STARTCHAR AE
ENCODING 198
SWIDTH 529 0
DWIDTH 9 0
BBX 8 11 0 0
BITMAP
3F
50
90
90
90
FE
90
90
90
90
9F
ENDCHAR

STARTCHAR Ccedilla
ENCODING 199
SWIDTH 529 0
DWIDTH 9 0
BBX 8 13 0 -2
BITMAP
7E
81
81
80
80
80
80
80
81
81
7E
08
10
ENDCHAR

STARTCHAR Egrave
ENCODING 200
SWIDTH 529 0
DWIDTH 9 0
BBX 8 14 0 0
BITMAP
10
08
00
FF
80
80
80
80
FE
80
80
80
80
FF
ENDCHAR

STARTCHAR Eacute
ENCODING 201
SWIDTH 529 0
DWIDTH 9 0
BBX 8 14 0 0
BITMAP
08
10
00
FF
80
80
80
80
FE
80
80
80
80
FF
ENDCHAR

STARTCHAR Ecircumflex
ENCODING 202
SWIDTH 529 0
DWIDTH 9 0
BBX 8 14 0 0
BITMAP
18
24
00
FF
80
80
80
80
FE
80
80
80
80
FF
ENDCHAR

STARTCHAR Edieresis
ENCODING 203
SWIDTH 529 0
DWIDTH 9 0
BBX 8 14 0 0
BITMAP
24
24
00
FF
80
80
80
80
FE
80
80
80
80
FF
ENDCHAR

STARTCHAR Igrave
ENCODING 204
SWIDTH 529 0
DWIDTH 9 0
BBX 5 14 2 0
BITMAP
40
20
00
F8
20
20
20
20
20
20
20
20
20
F8
ENDCHAR

STARTCHAR Iacute
ENCODING 205
SWIDTH 529 0
DWIDTH 9 0
BBX 5 14 2 0
BITMAP
10
20
00
F8
20
20
20
20
20
20
20
20
20
F8
ENDCHAR

STARTCHAR Icircumflex
ENCODING 206
SWIDTH 529 0
DWIDTH 9 0
BBX 5 14 2 0
BITMAP
20
50
00
F8
20
20
20
20
20
20
20
20
20
F8
ENDCHAR

STARTCHAR Idieresis
ENCODING 207
SWIDTH 529 0
DWIDTH 9 0
BBX 5 14 2 0
BITMAP
88
88
00
F8
20
20
20
20
20
20
20
20
20
F8
ENDCHAR

STARTCHAR Eth
ENCODING 208
SWIDTH 529 0
DWIDTH 9 0
BBX 8 11 0 0
BITMAP
7C
42
41
41
41
F1
41
41
41
42
7C
ENDCHAR

STARTCHAR Ntilde
ENCODING 209
SWIDTH 529 0
DWIDTH 9 0
BBX 8 14 0 0
BITMAP
32
4C
00
81
81
C1
A1
91
89
85
83
81
81
81
ENDCHAR

STARTCHAR Ograve
ENCODING 210
SWIDTH 529 0
DWIDTH 9 0
BBX 8 14 0 0
BITMAP
10
08
00
7E
81
81
81
81
81
81
81
81
81
7E
ENDCHAR

STARTCHAR Oacute
ENCODING 211
SWIDTH 529 0
DWIDTH 9 0
BBX 8 14 0 0
BITMAP
08
10
00
7E
81
81
81
81
81
81
81
81
81
7E
ENDCHAR

STARTCHAR Ocircumflex
ENCODING 212
SWIDTH 529 0
DWIDTH 9 0
BBX 8 14 0 0
BITMAP
18
24
00
7E
81
81
81
81
81
81
81
81
81
7E
ENDCHAR

STARTCHAR Otilde
ENCODING 213
SWIDTH 529 0
DWIDTH 9 0
BBX 8 14 0 0
BITMAP
32
4C
00
7E
81
81
81
81
81
81
81
81
81
7E
ENDCHAR

STARTCHAR Odieresis
ENCODING 214
SWIDTH 529 0
DWIDTH 9 0
BBX 8 14 0 0
BITMAP
24
24
00
7E
81
81
81
81
81
81
81
81
81
7E
ENDCHAR

STARTCHAR multiply
ENCODING 215
SWIDTH 529 0
DWIDTH 9 0
BBX 7 7 1 2
BITMAP
82
44
28
10
28
44
82
ENDCHAR

STARTCHAR Oslash
ENCODING 216
SWIDTH 529 0
DWIDTH 9 0
BBX 7 11 1 0
BITMAP
38
44
82
86
8A
92
A2
C2
82
44
38
ENDCHAR

STARTCHAR Ugrave
ENCODING 217
SWIDTH 529 0
DWIDTH 9 0
BBX 8 14 0 0
BITMAP
10
08
00
81
81
81
81
81
81
81
81
81
81
7E
ENDCHAR

STARTCHAR Uacute
ENCODING 218
SWIDTH 529 0
DWIDTH 9 0
BBX 8 14 0 0
BITMAP
08
10
00
81
81
81
81
81
81
81
81
81
81
7E
ENDCHAR

STARTCHAR Ucircumflex
ENCODING 219
SWIDTH 529 0
DWIDTH 9 0
BBX 8 14 0 0
BITMAP
18
24
00
81
81
81
81
81
81
81
81
81
81
7E
ENDCHAR

STARTCHAR Udieresis
ENCODING 220
SWIDTH 529 0
DWIDTH 9 0
BBX 8 14 0 0
BITMAP
24
24
00
81
81
81
81
81
81
81
81
81
81
7E
ENDCHAR

STARTCHAR Yacute
ENCODING 221
SWIDTH 529 0
DWIDTH 9 0
BBX 7 14 1 0
BITMAP
08
10
00
82
82
82
44
28
10
10
10
10
10
10
ENDCHAR

STARTCHAR Thorn
ENCODING 222
SWIDTH 529 0
DWIDTH 9 0
BBX 6 11 1 0
BITMAP
80
80
80
F8
84
84
84
F8
80
80
80
ENDCHAR

STARTCHAR germandbls
ENCODING 223
SWIDTH 529 0
DWIDTH 9 0
BBX 6 11 1 0
BITMAP
70
88
88
88
88
B8
84
84
84
84
B8
ENDCHAR

STARTCHAR agrave
ENCODING 224
SWIDTH 529 0
DWIDTH 9 0
BBX 7 10 1 0
BITMAP
10
08
00
7C
02
02
7E
82
82
7E
ENDCHAR

STARTCHAR aacute
ENCODING 225
SWIDTH 529 0
DWIDTH 9 0
BBX 7 10 1 0
BITMAP
08
10
00
7C
02
02
7E
82
82
7E
ENDCHAR

STARTCHAR acircumflex
ENCODING 226
SWIDTH 529 0
DWIDTH 9 0
BBX 7 10 1 0
BITMAP
10
28
00
7C
02
02
7E
82
82
7E
ENDCHAR

STARTCHAR atilde
ENCODING 227
SWIDTH 529 0
DWIDTH 9 0
BBX 7 10 1 0
BITMAP
32
4C
00
7C
02
02
7E
82
82
7E
ENDCHAR

STARTCHAR adieresis
ENCODING 228
SWIDTH 529 0
DWIDTH 9 0
BBX 7 10 1 0
BITMAP
44
44
00
7C
02
02
7E
82
82
7E
ENDCHAR

STARTCHAR aring
ENCODING 229
SWIDTH 529 0
DWIDTH 9 0
BBX 7 11 1 0
BITMAP
18
24
18
00
7C
02
02
7E
82
82
7E
ENDCHAR

STARTCHAR ae
ENCODING 230
SWIDTH 529 0
DWIDTH 9 0
BBX 8 7 0 0
BITMAP
6E
11
11
7F
90
91
7E
ENDCHAR

STARTCHAR ccedilla
ENCODING 231
SWIDTH 529 0
DWIDTH 9 0
BBX 7 9 1 -2
BITMAP
7C
82
80
80
80
82
7C
10
30
ENDCHAR

STARTCHAR egrave
ENCODING 232
SWIDTH 529 0
DWIDTH 9 0
BBX 7 10 1 0
BITMAP
20
10
00
7C
82
82
FE
80
82
7C
ENDCHAR

STARTCHAR eacute
ENCODING 233
SWIDTH 529 0
DWIDTH 9 0
BBX 7 10 1 0
BITMAP
08
10
00
7C
82
82
FE
80
82
7C
ENDCHAR

STARTCHAR ecircumflex
ENCODING 234
SWIDTH 529 0
DWIDTH 9 0
BBX 7 10 1 0
BITMAP
10
28
00
7C
82
82
FE
80
82
7C
ENDCHAR

STARTCHAR edieresis
ENCODING 235
SWIDTH 529 0
DWIDTH 9 0
BBX 7 10 1 0
BITMAP
44
44
00
7C
82
82
FE
80
82
7C
ENDCHAR

STARTCHAR igrave
ENCODING 236
SWIDTH 529 0
DWIDTH 9 0
BBX 5 10 2 0
BITMAP
40
20
00
60
20
20
20
20
20
F8
ENDCHAR

STARTCHAR iacute
ENCODING 237
SWIDTH 529 0
DWIDTH 9 0
BBX 5 10 2 0
BITMAP
20
40
00
60
20
20
20
20
20
F8
ENDCHAR

STARTCHAR icircumflex
ENCODING 238
SWIDTH 529 0
DWIDTH 9 0
BBX 5 10 2 0
BITMAP
60
90
00
60
20
20
20
20
20
F8
ENDCHAR

STARTCHAR idieresis
ENCODING 239
SWIDTH 529 0
DWIDTH 9 0
BBX 5 10 2 0
BITMAP
90
90
00
60
20
20
20
20
20
F8
ENDCHAR

STARTCHAR eth
ENCODING 240
SWIDTH 529 0
DWIDTH 9 0
BBX 7 11 1 0
BITMAP
28
10
28
04
7C
82
82
82
82
82
7C
ENDCHAR

STARTCHAR ntilde
ENCODING 241
SWIDTH 529 0
DWIDTH 9 0
BBX 7 10 1 0
BITMAP
32
4C
00
BC
C2
82
82
82
82
82
ENDCHAR

STARTCHAR ograve
ENCODING 242
SWIDTH 529 0
DWIDTH 9 0
BBX 7 10 1 0
BITMAP
20
10
00
7C
82
82
82
82
82
7C
ENDCHAR

STARTCHAR oacute
ENCODING 243
SWIDTH 529 0
DWIDTH 9 0
BBX 7 10 1 0
BITMAP
08
10
00
7C
82
82
82
82
82
7C
ENDCHAR

STARTCHAR ocircumflex
ENCODING 244
SWIDTH 529 0
DWIDTH 9 0
BBX 7 10 1 0
BITMAP
10
28
00
7C
82
82
82
82
82
7C
ENDCHAR

STARTCHAR otilde
ENCODING 245
SWIDTH 529 0
DWIDTH 9 0
BBX 7 10 1 0
BITMAP
32
4C
00
7C
82
82
82
82
82
7C
ENDCHAR

STARTCHAR odieresis
ENCODING 246
SWIDTH 529 0
DWIDTH 9 0
BBX 7 10 1 0
BITMAP
44
44
00
7C
82
82
82
82
82
7C
ENDCHAR

STARTCHAR divide
ENCODING 247
SWIDTH 529 0
DWIDTH 9 0
BBX 7 7 1 2
BITMAP
10
00
00
FE
00
00
10
ENDCHAR

STARTCHAR oslash
ENCODING 248
SWIDTH 529 0
DWIDTH 9 0
BBX 7 7 1 0
BITMAP
7C
86
8A
92
A2
C2
7C
ENDCHAR

STARTCHAR ugrave
ENCODING 249
SWIDTH 529 0
DWIDTH 9 0
BBX 7 10 1 0
BITMAP
20
10
00
82
82
82
82
82
86
7A
ENDCHAR

STARTCHAR uacute
ENCODING 250
SWIDTH 529 0
DWIDTH 9 0
BBX 7 10 1 0
BITMAP
08
10
00
82
82
82
82
82
86
7A
ENDCHAR

STARTCHAR ucircumflex
ENCODING 251
SWIDTH 529 0
DWIDTH 9 0
BBX 7 10 1 0
BITMAP
10
28
00
82
82
82
82
82
86
7A
ENDCHAR

STARTCHAR udieresis
ENCODING 252
SWIDTH 529 0
DWIDTH 9 0
BBX 7 10 1 0
BITMAP
44
44
00
82
82
82
82
82
86
7A
ENDCHAR

STARTCHAR yacute
ENCODING 253
SWIDTH 529 0
DWIDTH 9 0
BBX 7 13 1 -3
BITMAP
08
10
00
82
82
44
44
28
28
10
10
20
20
ENDCHAR

STARTCHAR thorn
ENCODING 254
SWIDTH 529 0
DWIDTH 9 0
BBX 5 13 2 -2
BITMAP
80
80
80
F0
88
88
88
88
88
F0
80
80
80
ENDCHAR

STARTCHAR ydieresis
ENCODING 255
SWIDTH 529 0
DWIDTH 9 0
BBX 7 13 1 -3
BITMAP
44
44
00
82
82
44
44
28
28
10
10
20
20
ENDCHAR

ENDFONT
