STARTFONT 2.1
FONT -FontForge-Raize-Bold-R-Normal--13-100-96-96-M-80-ISO8859-1
SIZE 10 96 96
FONTBOUNDINGBOX 8 15 0 -4

STARTPROPERTIES 36
FOUNDRY "FontForge"
FAMILY_NAME "Raize"
WEIGHT_NAME "Bold"
SLANT "R"
SETWIDTH_NAME "Normal"
ADD_STYLE_NAME ""
PIXEL_SIZE 13
POINT_SIZE 100
RESOLUTION_X 96
RESOLUTION_Y 96
SPACING "M"
AVERAGE_WIDTH 80
CHARSET_REGISTRY "ISO8859"
CHARSET_ENCODING "1"
FONTNAME_REGISTRY ""
CHARSET_COLLECTIONS "ASCII ISOLatin1Encoding"
FONT_NAME "Raize-Bold"
FACE_NAME "Raize (bold)"
FONT_VERSION "001.000"
UNDERLINE_POSITION 4294967295
UNDERLINE_THICKNESS 1
X_HEIGHT 5
CAP_HEIGHT 8
RAW_ASCENT 800
RAW_DESCENT 200
NORM_SPACE 8
RELATIVE_WEIGHT 70
RELATIVE_SETWIDTH 50
FIGURE_WIDTH 8
AVG_LOWERCASE_WIDTH 80
AVG_UPPERCASE_WIDTH 80
WEIGHT 10
QUAD_WIDTH 8
DEFAULT_CHAR 0
FONT_DESCENT 3
FONT_ASCENT 10
ENDPROPERTIES

CHARS 192

STARTCHAR space
ENCODING 32
SWIDTH 615 0
DWIDTH 8 0
BBX 1 1 7 -4
BITMAP
00
ENDCHAR

STARTCHAR exclam
ENCODING 33
SWIDTH 615 0
DWIDTH 8 0
BBX 2 9 3 0
BITMAP
C0
C0
C0
C0
C0
C0
00
C0
C0
ENDCHAR

STARTCHAR quotedbl
ENCODING 34
SWIDTH 615 0
DWIDTH 8 0
BBX 6 3 1 5
BITMAP
CC
CC
CC
ENDCHAR

STARTCHAR numbersign
ENCODING 35
SWIDTH 615 0
DWIDTH 8 0
BBX 7 9 0 0
BITMAP
14
14
7E
28
28
28
FC
50
50
ENDCHAR

STARTCHAR dollar
ENCODING 36
SWIDTH 615 0
DWIDTH 8 0
BBX 6 9 1 0
BITMAP
30
78
CC
C0
78
0C
CC
78
30
ENDCHAR

STARTCHAR percent
ENCODING 37
SWIDTH 615 0
DWIDTH 8 0
BBX 7 6 0 1
BITMAP
C6
CC
18
30
66
C6
ENDCHAR

STARTCHAR ampersand
ENCODING 38
SWIDTH 615 0
DWIDTH 8 0
BBX 7 9 0 0
BITMAP
70
D8
D8
70
70
DA
CC
CC
7A
ENDCHAR

STARTCHAR quotesingle
ENCODING 39
SWIDTH 615 0
DWIDTH 8 0
BBX 2 4 3 5
BITMAP
C0
C0
40
80
ENDCHAR

STARTCHAR parenleft
ENCODING 40
SWIDTH 615 0
DWIDTH 8 0
BBX 4 11 2 -2
BITMAP
30
60
60
C0
C0
C0
C0
C0
60
60
30
ENDCHAR

STARTCHAR parenright
ENCODING 41
SWIDTH 615 0
DWIDTH 8 0
BBX 4 11 2 -2
BITMAP
C0
60
60
30
30
30
30
30
60
60
C0
ENDCHAR

STARTCHAR asterisk
ENCODING 42
SWIDTH 615 0
DWIDTH 8 0
BBX 7 5 0 1
BITMAP
6C
38
FE
38
6C
ENDCHAR

STARTCHAR plus
ENCODING 43
SWIDTH 615 0
DWIDTH 8 0
BBX 6 5 1 1
BITMAP
30
30
FC
30
30
ENDCHAR

STARTCHAR comma
ENCODING 44
SWIDTH 615 0
DWIDTH 8 0
BBX 2 4 3 -1
BITMAP
C0
C0
40
80
ENDCHAR

STARTCHAR hyphen
ENCODING 45
SWIDTH 615 0
DWIDTH 8 0
BBX 5 1 1 3
BITMAP
F8
ENDCHAR

STARTCHAR period
ENCODING 46
SWIDTH 615 0
DWIDTH 8 0
BBX 2 2 3 0
BITMAP
C0
C0
ENDCHAR

STARTCHAR slash
ENCODING 47
SWIDTH 615 0
DWIDTH 8 0
BBX 6 10 1 -1
BITMAP
0C
0C
18
18
30
30
60
60
C0
C0
ENDCHAR

STARTCHAR zero
ENCODING 48
SWIDTH 615 0
DWIDTH 8 0
BBX 6 9 1 0
BITMAP
78
CC
CC
DC
EC
CC
CC
CC
78
ENDCHAR

STARTCHAR one
ENCODING 49
SWIDTH 615 0
DWIDTH 8 0
BBX 6 9 1 0
BITMAP
30
F0
30
30
30
30
30
30
FC
ENDCHAR

STARTCHAR two
ENCODING 50
SWIDTH 615 0
DWIDTH 8 0
BBX 6 9 1 0
BITMAP
78
CC
0C
0C
18
30
60
C0
FC
ENDCHAR

STARTCHAR three
ENCODING 51
SWIDTH 615 0
DWIDTH 8 0
BBX 6 9 1 0
BITMAP
78
CC
0C
0C
38
0C
0C
CC
78
ENDCHAR

STARTCHAR four
ENCODING 52
SWIDTH 615 0
DWIDTH 8 0
BBX 6 9 1 0
BITMAP
0C
1C
3C
6C
CC
CC
FC
0C
0C
ENDCHAR

STARTCHAR five
ENCODING 53
SWIDTH 615 0
DWIDTH 8 0
BBX 6 9 1 0
BITMAP
FC
C0
C0
C0
F8
0C
0C
CC
78
ENDCHAR

STARTCHAR six
ENCODING 54
SWIDTH 615 0
DWIDTH 8 0
BBX 6 9 1 0
BITMAP
38
60
C0
C0
F8
CC
CC
CC
78
ENDCHAR

STARTCHAR seven
ENCODING 55
SWIDTH 615 0
DWIDTH 8 0
BBX 6 9 1 0
BITMAP
FC
CC
0C
18
18
30
30
60
60
ENDCHAR

STARTCHAR eight
ENCODING 56
SWIDTH 615 0
DWIDTH 8 0
BBX 6 9 1 0
BITMAP
78
CC
CC
CC
78
CC
CC
CC
78
ENDCHAR

STARTCHAR nine
ENCODING 57
SWIDTH 615 0
DWIDTH 8 0
BBX 6 9 1 0
BITMAP
78
CC
CC
CC
7C
0C
0C
18
70
ENDCHAR

STARTCHAR colon
ENCODING 58
SWIDTH 615 0
DWIDTH 8 0
BBX 2 7 3 0
BITMAP
C0
C0
00
00
00
C0
C0
ENDCHAR

STARTCHAR semicolon
ENCODING 59
SWIDTH 615 0
DWIDTH 8 0
BBX 2 9 3 -2
BITMAP
C0
C0
00
00
00
C0
C0
40
80
ENDCHAR

STARTCHAR less
ENCODING 60
SWIDTH 615 0
DWIDTH 8 0
BBX 6 9 1 0
BITMAP
0C
18
30
60
C0
60
30
18
0C
ENDCHAR

STARTCHAR equal
ENCODING 61
SWIDTH 615 0
DWIDTH 8 0
BBX 6 3 1 2
BITMAP
FC
00
FC
ENDCHAR

STARTCHAR greater
ENCODING 62
SWIDTH 615 0
DWIDTH 8 0
BBX 6 9 1 0
BITMAP
C0
60
30
18
0C
18
30
60
C0
ENDCHAR

STARTCHAR question
ENCODING 63
SWIDTH 615 0
DWIDTH 8 0
BBX 6 9 1 0
BITMAP
78
CC
CC
18
30
30
00
30
30
ENDCHAR

STARTCHAR at
ENCODING 64
SWIDTH 615 0
DWIDTH 8 0
BBX 7 9 0 0
BITMAP
3C
42
9A
AA
AA
AA
9C
40
38
ENDCHAR

STARTCHAR A
ENCODING 65
SWIDTH 615 0
DWIDTH 8 0
BBX 7 9 0 0
BITMAP
38
6C
C6
C6
C6
FE
C6
C6
C6
ENDCHAR

STARTCHAR B
ENCODING 66
SWIDTH 615 0
DWIDTH 8 0
BBX 7 9 0 0
BITMAP
FC
C6
C6
C6
FC
C6
C6
C6
FC
ENDCHAR

STARTCHAR C
ENCODING 67
SWIDTH 615 0
DWIDTH 8 0
BBX 7 9 0 0
BITMAP
7C
C6
C6
C0
C0
C0
C6
C6
7C
ENDCHAR

STARTCHAR D
ENCODING 68
SWIDTH 615 0
DWIDTH 8 0
BBX 7 9 0 0
BITMAP
F8
CC
C6
C6
C6
C6
C6
CC
F8
ENDCHAR

STARTCHAR E
ENCODING 69
SWIDTH 615 0
DWIDTH 8 0
BBX 7 9 0 0
BITMAP
FE
C0
C0
C0
FC
C0
C0
C0
FE
ENDCHAR

STARTCHAR F
ENCODING 70
SWIDTH 615 0
DWIDTH 8 0
BBX 7 9 0 0
BITMAP
FE
C0
C0
C0
FC
C0
C0
C0
C0
ENDCHAR

STARTCHAR G
ENCODING 71
SWIDTH 615 0
DWIDTH 8 0
BBX 7 9 0 0
BITMAP
7C
C6
C6
C0
C0
CE
C6
C6
7E
ENDCHAR

STARTCHAR H
ENCODING 72
SWIDTH 615 0
DWIDTH 8 0
BBX 7 9 0 0
BITMAP
C6
C6
C6
C6
FE
C6
C6
C6
C6
ENDCHAR

STARTCHAR I
ENCODING 73
SWIDTH 615 0
DWIDTH 8 0
BBX 6 9 1 0
BITMAP
FC
30
30
30
30
30
30
30
FC
ENDCHAR

STARTCHAR J
ENCODING 74
SWIDTH 615 0
DWIDTH 8 0
BBX 7 9 0 0
BITMAP
06
06
06
06
06
C6
C6
C6
7C
ENDCHAR

STARTCHAR K
ENCODING 75
SWIDTH 615 0
DWIDTH 8 0
BBX 7 9 0 0
BITMAP
C6
CC
D8
F0
E0
F0
D8
CC
C6
ENDCHAR

STARTCHAR L
ENCODING 76
SWIDTH 615 0
DWIDTH 8 0
BBX 7 9 0 0
BITMAP
C0
C0
C0
C0
C0
C0
C0
C0
FE
ENDCHAR

STARTCHAR M
ENCODING 77
SWIDTH 615 0
DWIDTH 8 0
BBX 7 9 0 0
BITMAP
82
C6
EE
FE
D6
C6
C6
C6
C6
ENDCHAR

STARTCHAR N
ENCODING 78
SWIDTH 615 0
DWIDTH 8 0
BBX 7 9 0 0
BITMAP
86
C6
E6
F6
DE
CE
C6
C6
C6
ENDCHAR

STARTCHAR O
ENCODING 79
SWIDTH 615 0
DWIDTH 8 0
BBX 7 9 0 0
BITMAP
7C
C6
C6
C6
C6
C6
C6
C6
7C
ENDCHAR

STARTCHAR P
ENCODING 80
SWIDTH 615 0
DWIDTH 8 0
BBX 7 9 0 0
BITMAP
FC
C6
C6
C6
FC
C0
C0
C0
C0
ENDCHAR

STARTCHAR Q
ENCODING 81
SWIDTH 615 0
DWIDTH 8 0
BBX 7 10 0 -1
BITMAP
7C
C6
C6
C6
C6
C6
C6
D6
7C
06
ENDCHAR

STARTCHAR R
ENCODING 82
SWIDTH 615 0
DWIDTH 8 0
BBX 7 9 0 0
BITMAP
FC
C6
C6
C6
FC
CC
C6
C6
C6
ENDCHAR

STARTCHAR S
ENCODING 83
SWIDTH 615 0
DWIDTH 8 0
BBX 7 9 0 0
BITMAP
7C
C6
C0
C0
7C
06
06
C6
7C
ENDCHAR

STARTCHAR T
ENCODING 84
SWIDTH 615 0
DWIDTH 8 0
BBX 6 9 1 0
BITMAP
FC
30
30
30
30
30
30
30
30
ENDCHAR

STARTCHAR U
ENCODING 85
SWIDTH 615 0
DWIDTH 8 0
BBX 7 9 0 0
BITMAP
C6
C6
C6
C6
C6
C6
C6
C6
7C
ENDCHAR

STARTCHAR V
ENCODING 86
SWIDTH 615 0
DWIDTH 8 0
BBX 7 9 0 0
BITMAP
C6
C6
C6
6C
6C
38
38
10
10
ENDCHAR

STARTCHAR W
ENCODING 87
SWIDTH 615 0
DWIDTH 8 0
BBX 7 9 0 0
BITMAP
C6
C6
C6
C6
D6
D6
FE
EE
44
ENDCHAR

STARTCHAR X
ENCODING 88
SWIDTH 615 0
DWIDTH 8 0
BBX 7 9 0 0
BITMAP
C6
C6
6C
38
10
38
6C
C6
C6
ENDCHAR

STARTCHAR Y
ENCODING 89
SWIDTH 615 0
DWIDTH 8 0
BBX 6 9 1 0
BITMAP
CC
CC
CC
CC
78
30
30
30
30
ENDCHAR

STARTCHAR Z
ENCODING 90
SWIDTH 615 0
DWIDTH 8 0
BBX 6 9 1 0
BITMAP
FC
0C
18
18
30
30
60
60
FC
ENDCHAR

STARTCHAR bracketleft
ENCODING 91
SWIDTH 615 0
DWIDTH 8 0
BBX 3 11 3 -2
BITMAP
E0
C0
C0
C0
C0
C0
C0
C0
C0
C0
E0
ENDCHAR

STARTCHAR backslash
ENCODING 92
SWIDTH 615 0
DWIDTH 8 0
BBX 6 10 1 -1
BITMAP
C0
C0
60
60
30
30
18
18
0C
0C
ENDCHAR

STARTCHAR bracketright
ENCODING 93
SWIDTH 615 0
DWIDTH 8 0
BBX 3 11 2 -2
BITMAP
E0
60
60
60
60
60
60
60
60
60
E0
ENDCHAR

STARTCHAR asciicircum
ENCODING 94
SWIDTH 615 0
DWIDTH 8 0
BBX 7 4 0 6
BITMAP
10
38
6C
C6
ENDCHAR

STARTCHAR underscore
ENCODING 95
SWIDTH 615 0
DWIDTH 8 0
BBX 8 1 0 -2
BITMAP
FF
ENDCHAR

STARTCHAR grave
ENCODING 96
SWIDTH 615 0
DWIDTH 8 0
BBX 2 4 2 5
BITMAP
C0
C0
80
40
ENDCHAR

STARTCHAR a
ENCODING 97
SWIDTH 615 0
DWIDTH 8 0
BBX 7 6 0 0
BITMAP
7C
06
7E
C6
C6
7E
ENDCHAR

STARTCHAR b
ENCODING 98
SWIDTH 615 0
DWIDTH 8 0
BBX 7 9 0 0
BITMAP
C0
C0
C0
DC
E6
C6
C6
C6
FC
ENDCHAR

STARTCHAR c
ENCODING 99
SWIDTH 615 0
DWIDTH 8 0
BBX 7 6 0 0
BITMAP
7C
C6
C0
C0
C6
7C
ENDCHAR

STARTCHAR d
ENCODING 100
SWIDTH 615 0
DWIDTH 8 0
BBX 7 9 0 0
BITMAP
06
06
06
7E
C6
C6
C6
CE
76
ENDCHAR

STARTCHAR e
ENCODING 101
SWIDTH 615 0
DWIDTH 8 0
BBX 7 6 0 0
BITMAP
7C
C6
FE
C0
C6
7C
ENDCHAR

STARTCHAR f
ENCODING 102
SWIDTH 615 0
DWIDTH 8 0
BBX 7 9 0 0
BITMAP
3C
66
60
60
F8
60
60
60
60
ENDCHAR

STARTCHAR g
ENCODING 103
SWIDTH 615 0
DWIDTH 8 0
BBX 7 9 0 -3
BITMAP
7E
C6
C6
C6
CE
76
06
C6
7C
ENDCHAR

STARTCHAR h
ENCODING 104
SWIDTH 615 0
DWIDTH 8 0
BBX 7 9 0 0
BITMAP
C0
C0
C0
DC
E6
C6
C6
C6
C6
ENDCHAR

STARTCHAR i
ENCODING 105
SWIDTH 615 0
DWIDTH 8 0
BBX 5 9 1 0
BITMAP
30
30
00
70
30
30
30
30
F8
ENDCHAR

STARTCHAR j
ENCODING 106
SWIDTH 615 0
DWIDTH 8 0
BBX 7 12 0 -3
BITMAP
06
06
00
06
06
06
06
06
06
C6
C6
7C
ENDCHAR

STARTCHAR k
ENCODING 107
SWIDTH 615 0
DWIDTH 8 0
BBX 7 9 0 0
BITMAP
C0
C0
C6
CC
D8
F0
D8
CC
C6
ENDCHAR

STARTCHAR l
ENCODING 108
SWIDTH 615 0
DWIDTH 8 0
BBX 6 9 1 0
BITMAP
70
30
30
30
30
30
30
30
FC
ENDCHAR

STARTCHAR m
ENCODING 109
SWIDTH 615 0
DWIDTH 8 0
BBX 7 6 0 0
BITMAP
FC
D6
D6
D6
D6
D6
ENDCHAR

STARTCHAR n
ENCODING 110
SWIDTH 615 0
DWIDTH 8 0
BBX 7 6 0 0
BITMAP
DC
E6
C6
C6
C6
C6
ENDCHAR

STARTCHAR o
ENCODING 111
SWIDTH 615 0
DWIDTH 8 0
BBX 7 6 0 0
BITMAP
7C
C6
C6
C6
C6
7C
ENDCHAR

STARTCHAR p
ENCODING 112
SWIDTH 615 0
DWIDTH 8 0
BBX 7 9 0 -3
BITMAP
DC
E6
C6
C6
C6
FC
C0
C0
C0
ENDCHAR

STARTCHAR q
ENCODING 113
SWIDTH 615 0
DWIDTH 8 0
BBX 7 9 0 -3
BITMAP
7E
C6
C6
C6
CE
76
06
06
06
ENDCHAR

STARTCHAR r
ENCODING 114
SWIDTH 615 0
DWIDTH 8 0
BBX 7 6 0 0
BITMAP
DC
E6
C0
C0
C0
C0
ENDCHAR

STARTCHAR s
ENCODING 115
SWIDTH 615 0
DWIDTH 8 0
BBX 7 6 0 0
BITMAP
7C
C6
70
1C
C6
7C
ENDCHAR

STARTCHAR t
ENCODING 116
SWIDTH 615 0
DWIDTH 8 0
BBX 7 8 0 0
BITMAP
60
60
FC
60
60
60
66
3C
ENDCHAR

STARTCHAR u
ENCODING 117
SWIDTH 615 0
DWIDTH 8 0
BBX 7 6 0 0
BITMAP
C6
C6
C6
C6
CE
76
ENDCHAR

STARTCHAR v
ENCODING 118
SWIDTH 615 0
DWIDTH 8 0
BBX 7 6 0 0
BITMAP
C6
C6
C6
6C
38
10
ENDCHAR

STARTCHAR w
ENCODING 119
SWIDTH 615 0
DWIDTH 8 0
BBX 7 6 0 0
BITMAP
C6
C6
D6
D6
FE
6C
ENDCHAR

STARTCHAR x
ENCODING 120
SWIDTH 615 0
DWIDTH 8 0
BBX 6 6 1 0
BITMAP
CC
78
30
30
78
CC
ENDCHAR

STARTCHAR y
ENCODING 121
SWIDTH 615 0
DWIDTH 8 0
BBX 7 9 0 -3
BITMAP
C6
C6
6C
6C
38
38
30
70
60
ENDCHAR

STARTCHAR z
ENCODING 122
SWIDTH 615 0
DWIDTH 8 0
BBX 6 6 1 0
BITMAP
FC
1C
38
70
E0
FC
ENDCHAR

STARTCHAR braceleft
ENCODING 123
SWIDTH 615 0
DWIDTH 8 0
BBX 5 11 1 -2
BITMAP
18
30
30
30
30
E0
30
30
30
30
18
ENDCHAR

STARTCHAR bar
ENCODING 124
SWIDTH 615 0
DWIDTH 8 0
BBX 2 12 3 -2
BITMAP
C0
C0
C0
C0
C0
C0
C0
C0
C0
C0
C0
C0
ENDCHAR

STARTCHAR braceright
ENCODING 125
SWIDTH 615 0
DWIDTH 8 0
BBX 5 11 2 -2
BITMAP
C0
60
60
60
60
38
60
60
60
60
C0
ENDCHAR

STARTCHAR asciitilde
ENCODING 126
SWIDTH 615 0
DWIDTH 8 0
BBX 6 3 1 5
BITMAP
64
FC
98
ENDCHAR

STARTCHAR uni007F
ENCODING 127
SWIDTH 615 0
DWIDTH 8 0
BBX 6 11 1 -1
BITMAP
FC
84
84
84
84
84
84
84
84
84
FC
ENDCHAR

STARTCHAR uni00A0
ENCODING 160
SWIDTH 615 0
DWIDTH 8 0
BBX 1 1 7 -4
BITMAP
00
ENDCHAR

STARTCHAR exclamdown
ENCODING 161
SWIDTH 615 0
DWIDTH 8 0
BBX 2 9 3 -1
BITMAP
C0
00
C0
C0
C0
C0
C0
C0
C0
ENDCHAR

STARTCHAR cent
ENCODING 162
SWIDTH 615 0
DWIDTH 8 0
BBX 7 10 0 -1
BITMAP
10
10
7C
D6
D0
D0
D6
7C
10
10
ENDCHAR

STARTCHAR sterling
ENCODING 163
SWIDTH 615 0
DWIDTH 8 0
BBX 7 9 0 0
BITMAP
1C
36
36
30
78
30
30
60
FE
ENDCHAR

STARTCHAR currency
ENCODING 164
SWIDTH 615 0
DWIDTH 8 0
BBX 7 7 0 0
BITMAP
C6
7C
6C
6C
6C
7C
C6
ENDCHAR

STARTCHAR yen
ENCODING 165
SWIDTH 615 0
DWIDTH 8 0
BBX 6 9 1 0
BITMAP
CC
CC
CC
78
30
FC
30
30
30
ENDCHAR

STARTCHAR brokenbar
ENCODING 166
SWIDTH 615 0
DWIDTH 8 0
BBX 2 11 3 -2
BITMAP
C0
C0
C0
C0
C0
00
C0
C0
C0
C0
C0
ENDCHAR

STARTCHAR section
ENCODING 167
SWIDTH 615 0
DWIDTH 8 0
BBX 5 10 1 -1
BITMAP
78
C0
C0
70
D8
D8
70
18
18
F0
ENDCHAR

STARTCHAR dieresis
ENCODING 168
SWIDTH 615 0
DWIDTH 8 0
BBX 5 1 1 10
BITMAP
88
ENDCHAR

STARTCHAR copyright
ENCODING 169
SWIDTH 615 0
DWIDTH 8 0
BBX 7 8 0 1
BITMAP
38
44
9A
A2
A2
9A
44
38
ENDCHAR

STARTCHAR ordfeminine
ENCODING 170
SWIDTH 615 0
DWIDTH 8 0
BBX 4 7 2 2
BITMAP
60
10
70
90
70
00
F0
ENDCHAR

STARTCHAR guillemotleft
ENCODING 171
SWIDTH 615 0
DWIDTH 8 0
BBX 7 5 0 0
BITMAP
36
6C
D8
6C
36
ENDCHAR

STARTCHAR logicalnot
ENCODING 172
SWIDTH 615 0
DWIDTH 8 0
BBX 6 2 1 3
BITMAP
FC
0C
ENDCHAR

STARTCHAR uni00AD
ENCODING 173
SWIDTH 615 0
DWIDTH 8 0
BBX 4 1 2 3
BITMAP
F0
ENDCHAR

STARTCHAR registered
ENCODING 174
SWIDTH 615 0
DWIDTH 8 0
BBX 7 8 0 1
BITMAP
38
44
B2
AA
B2
AA
44
38
ENDCHAR

STARTCHAR macron
ENCODING 175
SWIDTH 615 0
DWIDTH 8 0
BBX 7 1 0 9
BITMAP
FE
ENDCHAR

STARTCHAR degree
ENCODING 176
SWIDTH 615 0
DWIDTH 8 0
BBX 5 3 1 6
BITMAP
70
D8
70
ENDCHAR

STARTCHAR plusminus
ENCODING 177
SWIDTH 615 0
DWIDTH 8 0
BBX 6 7 1 1
BITMAP
30
30
FC
30
30
00
FC
ENDCHAR

STARTCHAR uni00B2
ENCODING 178
SWIDTH 615 0
DWIDTH 8 0
BBX 4 5 2 4
BITMAP
E0
30
60
C0
F0
ENDCHAR

STARTCHAR uni00B3
ENCODING 179
SWIDTH 615 0
DWIDTH 8 0
BBX 4 5 2 4
BITMAP
E0
30
60
30
E0
ENDCHAR

STARTCHAR acute
ENCODING 180
SWIDTH 615 0
DWIDTH 8 0
BBX 2 2 3 7
BITMAP
40
80
ENDCHAR

STARTCHAR uni00B5
ENCODING 181
SWIDTH 615 0
DWIDTH 8 0
BBX 6 8 1 -2
BITMAP
D8
D8
D8
D8
D8
EC
C0
C0
ENDCHAR

STARTCHAR paragraph
ENCODING 182
SWIDTH 615 0
DWIDTH 8 0
BBX 5 9 1 0
BITMAP
78
E8
E8
E8
68
28
28
28
28
ENDCHAR

STARTCHAR periodcentered
ENCODING 183
SWIDTH 615 0
DWIDTH 8 0
BBX 2 2 3 3
BITMAP
C0
C0
ENDCHAR

STARTCHAR cedilla
ENCODING 184
SWIDTH 615 0
DWIDTH 8 0
BBX 3 3 3 -2
BITMAP
40
20
C0
ENDCHAR

STARTCHAR uni00B9
ENCODING 185
SWIDTH 615 0
DWIDTH 8 0
BBX 4 5 2 4
BITMAP
60
E0
60
60
F0
ENDCHAR

STARTCHAR ordmasculine
ENCODING 186
SWIDTH 615 0
DWIDTH 8 0
BBX 4 7 2 2
BITMAP
60
90
90
90
60
00
F0
ENDCHAR

STARTCHAR guillemotright
ENCODING 187
SWIDTH 615 0
DWIDTH 8 0
BBX 7 5 0 0
BITMAP
D8
6C
36
6C
D8
ENDCHAR

STARTCHAR onequarter
ENCODING 188
SWIDTH 615 0
DWIDTH 8 0
BBX 7 9 0 0
BITMAP
40
C2
44
48
52
26
4A
8E
02
ENDCHAR

STARTCHAR onehalf
ENCODING 189
SWIDTH 615 0
DWIDTH 8 0
BBX 7 9 0 0
BITMAP
40
C2
44
48
54
22
44
88
0E
ENDCHAR

STARTCHAR threequarters
ENCODING 190
SWIDTH 615 0
DWIDTH 8 0
BBX 7 9 0 0
BITMAP
C0
22
44
28
D2
26
4A
8E
02
ENDCHAR

STARTCHAR questiondown
ENCODING 191
SWIDTH 615 0
DWIDTH 8 0
BBX 6 9 1 0
BITMAP
30
30
00
30
30
60
C0
CC
78
ENDCHAR

STARTCHAR Agrave
ENCODING 192
SWIDTH 615 0
DWIDTH 8 0
BBX 7 11 0 0
BITMAP
20
10
38
6C
C6
C6
C6
FE
C6
C6
C6
ENDCHAR

STARTCHAR Aacute
ENCODING 193
SWIDTH 615 0
DWIDTH 8 0
BBX 7 11 0 0
BITMAP
08
10
38
6C
C6
C6
C6
FE
C6
C6
C6
ENDCHAR

STARTCHAR Acircumflex
ENCODING 194
SWIDTH 615 0
DWIDTH 8 0
BBX 7 11 0 0
BITMAP
10
28
00
7C
C6
C6
C6
FE
C6
C6
C6
ENDCHAR

STARTCHAR Atilde
ENCODING 195
SWIDTH 615 0
DWIDTH 8 0
BBX 7 11 0 0
BITMAP
32
4C
38
6C
C6
C6
C6
FE
C6
C6
C6
ENDCHAR

STARTCHAR Adieresis
ENCODING 196
SWIDTH 615 0
DWIDTH 8 0
BBX 7 11 0 0
BITMAP
44
00
38
6C
C6
C6
C6
FE
C6
C6
C6
ENDCHAR

STARTCHAR Aring
ENCODING 197
SWIDTH 615 0
DWIDTH 8 0
BBX 7 11 0 0
BITMAP
10
28
10
7C
C6
C6
C6
FE
C6
C6
C6
ENDCHAR

STARTCHAR AE
ENCODING 198
SWIDTH 615 0
DWIDTH 8 0
BBX 7 9 0 0
BITMAP
3E
78
D8
D8
DC
F8
D8
D8
DE
ENDCHAR

STARTCHAR Ccedilla
ENCODING 199
SWIDTH 615 0
DWIDTH 8 0
BBX 7 11 0 -2
BITMAP
7C
C6
C6
C0
C0
C0
C6
C6
7C
18
38
ENDCHAR

STARTCHAR Egrave
ENCODING 200
SWIDTH 615 0
DWIDTH 8 0
BBX 7 11 0 0
BITMAP
20
10
FE
C0
C0
C0
FC
C0
C0
C0
FE
ENDCHAR

STARTCHAR Eacute
ENCODING 201
SWIDTH 615 0
DWIDTH 8 0
BBX 7 11 0 0
BITMAP
08
10
FE
C0
C0
C0
FC
C0
C0
C0
FE
ENDCHAR

STARTCHAR Ecircumflex
ENCODING 202
SWIDTH 615 0
DWIDTH 8 0
BBX 7 11 0 0
BITMAP
10
28
FE
C0
C0
C0
FC
C0
C0
C0
FE
ENDCHAR

STARTCHAR Edieresis
ENCODING 203
SWIDTH 615 0
DWIDTH 8 0
BBX 7 11 0 0
BITMAP
44
00
FE
C0
C0
C0
FC
C0
C0
C0
FE
ENDCHAR

STARTCHAR Igrave
ENCODING 204
SWIDTH 615 0
DWIDTH 8 0
BBX 6 11 1 0
BITMAP
60
30
FC
30
30
30
30
30
30
30
FC
ENDCHAR

STARTCHAR Iacute
ENCODING 205
SWIDTH 615 0
DWIDTH 8 0
BBX 6 11 1 0
BITMAP
18
30
FC
30
30
30
30
30
30
30
FC
ENDCHAR

STARTCHAR Icircumflex
ENCODING 206
SWIDTH 615 0
DWIDTH 8 0
BBX 6 11 1 0
BITMAP
20
50
FC
30
30
30
30
30
30
30
FC
ENDCHAR

STARTCHAR Idieresis
ENCODING 207
SWIDTH 615 0
DWIDTH 8 0
BBX 6 11 1 0
BITMAP
CC
00
FC
30
30
30
30
30
30
30
FC
ENDCHAR

STARTCHAR Eth
ENCODING 208
SWIDTH 615 0
DWIDTH 8 0
BBX 7 9 0 0
BITMAP
78
6C
66
66
F6
66
66
6C
78
ENDCHAR

STARTCHAR Ntilde
ENCODING 209
SWIDTH 615 0
DWIDTH 8 0
BBX 7 11 0 0
BITMAP
32
4C
C6
C6
E6
F6
DE
CE
C6
C6
C6
ENDCHAR

STARTCHAR Ograve
ENCODING 210
SWIDTH 615 0
DWIDTH 8 0
BBX 7 11 0 0
BITMAP
30
18
7C
C6
C6
C6
C6
C6
C6
C6
7C
ENDCHAR

STARTCHAR Oacute
ENCODING 211
SWIDTH 615 0
DWIDTH 8 0
BBX 7 11 0 0
BITMAP
0C
18
7C
C6
C6
C6
C6
C6
C6
C6
7C
ENDCHAR

STARTCHAR Ocircumflex
ENCODING 212
SWIDTH 615 0
DWIDTH 8 0
BBX 7 11 0 0
BITMAP
10
28
7C
C6
C6
C6
C6
C6
C6
C6
7C
ENDCHAR

STARTCHAR Otilde
ENCODING 213
SWIDTH 615 0
DWIDTH 8 0
BBX 7 11 0 0
BITMAP
32
4C
7C
C6
C6
C6
C6
C6
C6
C6
7C
ENDCHAR

STARTCHAR Odieresis
ENCODING 214
SWIDTH 615 0
DWIDTH 8 0
BBX 7 11 0 0
BITMAP
44
00
7C
C6
C6
C6
C6
C6
C6
C6
7C
ENDCHAR

STARTCHAR multiply
ENCODING 215
SWIDTH 615 0
DWIDTH 8 0
BBX 7 5 0 1
BITMAP
C6
6C
38
6C
C6
ENDCHAR

STARTCHAR Oslash
ENCODING 216
SWIDTH 615 0
DWIDTH 8 0
BBX 7 9 0 0
BITMAP
7C
C6
C6
CE
D6
E6
C6
C6
7C
ENDCHAR

STARTCHAR Ugrave
ENCODING 217
SWIDTH 615 0
DWIDTH 8 0
BBX 7 11 0 0
BITMAP
30
18
C6
C6
C6
C6
C6
C6
C6
C6
7C
ENDCHAR

STARTCHAR Uacute
ENCODING 218
SWIDTH 615 0
DWIDTH 8 0
BBX 7 11 0 0
BITMAP
18
30
C6
C6
C6
C6
C6
C6
C6
C6
7C
ENDCHAR

STARTCHAR Ucircumflex
ENCODING 219
SWIDTH 615 0
DWIDTH 8 0
BBX 7 11 0 0
BITMAP
10
28
C6
C6
C6
C6
C6
C6
C6
C6
7C
ENDCHAR

STARTCHAR Udieresis
ENCODING 220
SWIDTH 615 0
DWIDTH 8 0
BBX 7 11 0 0
BITMAP
44
00
C6
C6
C6
C6
C6
C6
C6
C6
7C
ENDCHAR

STARTCHAR Yacute
ENCODING 221
SWIDTH 615 0
DWIDTH 8 0
BBX 6 11 1 0
BITMAP
10
20
CC
CC
CC
CC
78
30
30
30
30
ENDCHAR

STARTCHAR Thorn
ENCODING 222
SWIDTH 615 0
DWIDTH 8 0
BBX 6 9 1 0
BITMAP
C0
C0
F8
CC
CC
CC
F8
C0
C0
ENDCHAR

STARTCHAR germandbls
ENCODING 223
SWIDTH 615 0
DWIDTH 8 0
BBX 7 9 0 0
BITMAP
78
CC
CC
CC
DC
C6
C6
C6
DC
ENDCHAR

STARTCHAR agrave
ENCODING 224
SWIDTH 615 0
DWIDTH 8 0
BBX 7 9 0 0
BITMAP
30
18
00
7C
06
7E
C6
C6
7E
ENDCHAR

STARTCHAR aacute
ENCODING 225
SWIDTH 615 0
DWIDTH 8 0
BBX 7 9 0 0
BITMAP
0C
18
00
7C
06
7E
C6
C6
7E
ENDCHAR

STARTCHAR acircumflex
ENCODING 226
SWIDTH 615 0
DWIDTH 8 0
BBX 7 9 0 0
BITMAP
10
28
00
7C
06
7E
C6
C6
7E
ENDCHAR

STARTCHAR atilde
ENCODING 227
SWIDTH 615 0
DWIDTH 8 0
BBX 7 9 0 0
BITMAP
32
4C
00
7C
06
7E
C6
C6
7E
ENDCHAR

STARTCHAR adieresis
ENCODING 228
SWIDTH 615 0
DWIDTH 8 0
BBX 7 9 0 0
BITMAP
44
00
00
7C
06
7E
C6
C6
7E
ENDCHAR

STARTCHAR aring
ENCODING 229
SWIDTH 615 0
DWIDTH 8 0
BBX 7 10 0 0
BITMAP
10
28
10
00
7C
06
7E
C6
C6
7E
ENDCHAR

STARTCHAR ae
ENCODING 230
SWIDTH 615 0
DWIDTH 8 0
BBX 7 6 0 0
BITMAP
6C
1A
7E
D8
DA
7C
ENDCHAR

STARTCHAR ccedilla
ENCODING 231
SWIDTH 615 0
DWIDTH 8 0
BBX 7 8 0 -2
BITMAP
7C
C6
C0
C0
C6
7C
10
30
ENDCHAR

STARTCHAR egrave
ENCODING 232
SWIDTH 615 0
DWIDTH 8 0
BBX 7 9 0 0
BITMAP
30
18
00
7C
C6
FE
C0
C6
7C
ENDCHAR

STARTCHAR eacute
ENCODING 233
SWIDTH 615 0
DWIDTH 8 0
BBX 7 9 0 0
BITMAP
0C
18
00
7C
C6
FE
C0
C6
7C
ENDCHAR

STARTCHAR ecircumflex
ENCODING 234
SWIDTH 615 0
DWIDTH 8 0
BBX 7 9 0 0
BITMAP
10
28
00
7C
C6
FE
C0
C6
7C
ENDCHAR

STARTCHAR edieresis
ENCODING 235
SWIDTH 615 0
DWIDTH 8 0
BBX 7 9 0 0
BITMAP
44
00
00
7C
C6
FE
C0
C6
7C
ENDCHAR

STARTCHAR igrave
ENCODING 236
SWIDTH 615 0
DWIDTH 8 0
BBX 6 9 1 0
BITMAP
60
30
00
70
30
30
30
30
FC
ENDCHAR

STARTCHAR iacute
ENCODING 237
SWIDTH 615 0
DWIDTH 8 0
BBX 6 9 1 0
BITMAP
30
60
00
70
30
30
30
30
FC
ENDCHAR

STARTCHAR icircumflex
ENCODING 238
SWIDTH 615 0
DWIDTH 8 0
BBX 6 9 1 0
BITMAP
20
50
00
70
30
30
30
30
FC
ENDCHAR

STARTCHAR idieresis
ENCODING 239
SWIDTH 615 0
DWIDTH 8 0
BBX 6 9 1 0
BITMAP
88
00
00
70
30
30
30
30
FC
ENDCHAR

STARTCHAR eth
ENCODING 240
SWIDTH 615 0
DWIDTH 8 0
BBX 7 9 0 0
BITMAP
28
10
28
04
7C
C6
C6
C6
7C
ENDCHAR

STARTCHAR ntilde
ENCODING 241
SWIDTH 615 0
DWIDTH 8 0
BBX 7 9 0 0
BITMAP
32
4C
00
DC
E6
C6
C6
C6
C6
ENDCHAR

STARTCHAR ograve
ENCODING 242
SWIDTH 615 0
DWIDTH 8 0
BBX 7 9 0 0
BITMAP
30
18
00
7C
C6
C6
C6
C6
7C
ENDCHAR

STARTCHAR oacute
ENCODING 243
SWIDTH 615 0
DWIDTH 8 0
BBX 7 9 0 0
BITMAP
0C
18
00
7C
C6
C6
C6
C6
7C
ENDCHAR

STARTCHAR ocircumflex
ENCODING 244
SWIDTH 615 0
DWIDTH 8 0
BBX 7 9 0 0
BITMAP
10
28
00
7C
C6
C6
C6
C6
7C
ENDCHAR

STARTCHAR otilde
ENCODING 245
SWIDTH 615 0
DWIDTH 8 0
BBX 7 9 0 0
BITMAP
32
4C
00
7C
C6
C6
C6
C6
7C
ENDCHAR

STARTCHAR odieresis
ENCODING 246
SWIDTH 615 0
DWIDTH 8 0
BBX 7 9 0 0
BITMAP
44
00
00
7C
C6
C6
C6
C6
7C
ENDCHAR

STARTCHAR divide
ENCODING 247
SWIDTH 615 0
DWIDTH 8 0
BBX 6 7 1 0
BITMAP
30
30
00
FC
00
30
30
ENDCHAR

STARTCHAR oslash
ENCODING 248
SWIDTH 615 0
DWIDTH 8 0
BBX 7 8 0 -1
BITMAP
04
7C
CE
D6
D6
E6
7C
40
ENDCHAR

STARTCHAR ugrave
ENCODING 249
SWIDTH 615 0
DWIDTH 8 0
BBX 7 9 0 0
BITMAP
30
18
00
C6
C6
C6
C6
CE
76
ENDCHAR

STARTCHAR uacute
ENCODING 250
SWIDTH 615 0
DWIDTH 8 0
BBX 7 9 0 0
BITMAP
18
30
00
C6
C6
C6
C6
CE
76
ENDCHAR

STARTCHAR ucircumflex
ENCODING 251
SWIDTH 615 0
DWIDTH 8 0
BBX 7 9 0 0
BITMAP
10
28
00
C6
C6
C6
C6
CE
76
ENDCHAR

STARTCHAR udieresis
ENCODING 252
SWIDTH 615 0
DWIDTH 8 0
BBX 7 9 0 0
BITMAP
44
00
00
C6
C6
C6
C6
CE
76
ENDCHAR

STARTCHAR yacute
ENCODING 253
SWIDTH 615 0
DWIDTH 8 0
BBX 7 12 0 -3
BITMAP
0C
18
00
C6
C6
6C
6C
38
38
30
70
60
ENDCHAR

STARTCHAR thorn
ENCODING 254
SWIDTH 615 0
DWIDTH 8 0
BBX 5 11 1 -2
BITMAP
C0
C0
C0
F0
D8
D8
D8
D8
F0
C0
C0
ENDCHAR

STARTCHAR ydieresis
ENCODING 255
SWIDTH 615 0
DWIDTH 8 0
BBX 7 12 0 -3
BITMAP
44
00
00
C6
C6
6C
6C
38
38
30
70
60
ENDCHAR

ENDFONT
