STARTFONT 2.1
FONT -Misc-Tamsynmod-Bold-R-Normal--17-123-100-100-C-80-ISO8859-1
SIZE 12 100 100
FONTBOUNDINGBOX 8 17 0 -4

STARTPROPERTIES 25
FONTNAME_REGISTRY ""
FOUNDRY "Misc"
FAMILY_NAME "Tamsynmod"
WEIGHT_NAME "Bold"
SLANT "R"
SETWIDTH_NAME "Normal"
ADD_STYLE_NAME ""
PIXEL_SIZE 17
POINT_SIZE 123
RESOLUTION_X 100
RESOLUTION_Y 100
SPACING "C"
AVERAGE_WIDTH 80
CHARSET_REGISTRY "ISO8859"
CHARSET_ENCODING "1"
COPYRIGHT "GPL"
CAP_HEIGHT 9
X_HEIGHT 7
FONT_VERSION "1.7"
WEIGHT 10
QUAD_WIDTH 8
_GBDFED_INFO "Edited with gbdfed 1.6."
DEFAULT_CHAR 0
FONT_DESCENT 4
FONT_ASCENT 13
ENDPROPERTIES

CHARS 223

STARTCHAR U+0000
ENCODING 0
SWIDTH 338 0
DWIDTH 8 0
BBX 8 17 0 -4
BITMAP
00
00
00
00
00
7E
42
42
42
42
42
42
7E
00
00
00
00
ENDCHAR

STARTCHAR U+25C6
ENCODING 1
SWIDTH 338 0
DWIDTH 8 0
BBX 8 17 0 -4
BITMAP
00
00
00
00
00
00
00
00
00
00
00
00
00
00
00
00
00
ENDCHAR

STARTCHAR U+2592
ENCODING 2
SWIDTH 338 0
DWIDTH 8 0
BBX 8 17 0 -4
BITMAP
AA
55
AA
55
AA
55
AA
55
AA
55
AA
55
AA
55
AA
55
AA
ENDCHAR

STARTCHAR U+2409
ENCODING 3
SWIDTH 338 0
DWIDTH 8 0
BBX 8 17 0 -4
BITMAP
00
00
00
00
00
00
00
00
00
00
00
00
00
00
00
00
00
ENDCHAR

STARTCHAR U+240C
ENCODING 4
SWIDTH 338 0
DWIDTH 8 0
BBX 8 17 0 -4
BITMAP
00
00
00
00
00
00
00
00
00
00
00
00
00
00
00
00
00
ENDCHAR

STARTCHAR U+240D
ENCODING 5
SWIDTH 338 0
DWIDTH 8 0
BBX 8 17 0 -4
BITMAP
00
00
00
00
00
00
00
00
00
00
00
00
00
00
00
00
00
ENDCHAR

STARTCHAR U+240A
ENCODING 6
SWIDTH 338 0
DWIDTH 8 0
BBX 8 17 0 -4
BITMAP
00
00
00
00
00
00
00
00
00
00
00
00
00
00
00
00
00
ENDCHAR

STARTCHAR U+00B0
ENCODING 7
SWIDTH 338 0
DWIDTH 8 0
BBX 8 17 0 -4
BITMAP
00
00
00
00
00
00
00
00
00
00
00
00
00
00
00
00
00
ENDCHAR

STARTCHAR U+00B1
ENCODING 8
SWIDTH 338 0
DWIDTH 8 0
BBX 8 17 0 -4
BITMAP
00
00
00
00
00
00
00
00
00
00
00
00
00
00
00
00
00
ENDCHAR

STARTCHAR U+09E8
ENCODING 9
SWIDTH 338 0
DWIDTH 8 0
BBX 8 17 0 -4
BITMAP
00
00
00
00
00
00
00
00
00
00
00
00
00
00
00
00
00
ENDCHAR

STARTCHAR U+09E9
ENCODING 10
SWIDTH 338 0
DWIDTH 8 0
BBX 8 17 0 -4
BITMAP
00
00
00
00
00
00
00
00
00
00
00
00
00
00
00
00
00
ENDCHAR

STARTCHAR U+2518
ENCODING 11
SWIDTH 338 0
DWIDTH 8 0
BBX 8 17 0 -4
BITMAP
18
18
18
18
18
18
18
18
F8
00
00
00
00
00
00
00
00
ENDCHAR

STARTCHAR U+2510
ENCODING 12
SWIDTH 338 0
DWIDTH 8 0
BBX 8 17 0 -4
BITMAP
00
00
00
00
00
00
00
00
F8
18
18
18
18
18
18
18
18
ENDCHAR

STARTCHAR U+250C
ENCODING 13
SWIDTH 338 0
DWIDTH 8 0
BBX 8 17 0 -4
BITMAP
00
00
00
00
00
00
00
00
1F
18
18
18
18
18
18
18
18
ENDCHAR

STARTCHAR U+2514
ENCODING 14
SWIDTH 338 0
DWIDTH 8 0
BBX 8 17 0 -4
BITMAP
18
18
18
18
18
18
18
18
1F
00
00
00
00
00
00
00
00
ENDCHAR

STARTCHAR U+253C
ENCODING 15
SWIDTH 338 0
DWIDTH 8 0
BBX 8 17 0 -4
BITMAP
18
18
18
18
18
18
18
18
FF
18
18
18
18
18
18
18
18
ENDCHAR

STARTCHAR U+23BA
ENCODING 16
SWIDTH 338 0
DWIDTH 8 0
BBX 8 17 0 -4
BITMAP
00
00
00
00
00
00
00
00
00
00
00
00
00
00
00
00
00
ENDCHAR

STARTCHAR U+23BB
ENCODING 17
SWIDTH 338 0
DWIDTH 8 0
BBX 8 17 0 -4
BITMAP
00
00
00
00
00
00
00
00
00
00
00
00
00
00
00
00
00
ENDCHAR

STARTCHAR U+2500
ENCODING 18
SWIDTH 338 0
DWIDTH 8 0
BBX 8 17 0 -4
BITMAP
00
00
00
00
00
00
00
00
FF
00
00
00
00
00
00
00
00
ENDCHAR

STARTCHAR U+23BC
ENCODING 19
SWIDTH 338 0
DWIDTH 8 0
BBX 8 17 0 -4
BITMAP
00
00
00
00
00
00
00
00
00
00
00
00
00
00
00
00
00
ENDCHAR

STARTCHAR U+23BD
ENCODING 20
SWIDTH 338 0
DWIDTH 8 0
BBX 8 17 0 -4
BITMAP
00
00
00
00
00
00
00
00
00
00
00
00
00
00
00
00
00
ENDCHAR

STARTCHAR U+251C
ENCODING 21
SWIDTH 338 0
DWIDTH 8 0
BBX 8 17 0 -4
BITMAP
18
18
18
18
18
18
18
18
1F
18
18
18
18
18
18
18
18
ENDCHAR

STARTCHAR U+2524
ENCODING 22
SWIDTH 338 0
DWIDTH 8 0
BBX 8 17 0 -4
BITMAP
18
18
18
18
18
18
18
18
F8
18
18
18
18
18
18
18
18
ENDCHAR

STARTCHAR U+2534
ENCODING 23
SWIDTH 338 0
DWIDTH 8 0
BBX 8 17 0 -4
BITMAP
18
18
18
18
18
18
18
18
FF
00
00
00
00
00
00
00
00
ENDCHAR

STARTCHAR U+252C
ENCODING 24
SWIDTH 338 0
DWIDTH 8 0
BBX 8 17 0 -4
BITMAP
00
00
00
00
00
00
00
00
FF
18
18
18
18
18
18
18
18
ENDCHAR

STARTCHAR U+2502
ENCODING 25
SWIDTH 338 0
DWIDTH 8 0
BBX 8 17 0 -4
BITMAP
18
18
18
18
18
18
18
18
18
18
18
18
18
18
18
18
18
ENDCHAR

STARTCHAR U+2264
ENCODING 26
SWIDTH 338 0
DWIDTH 8 0
BBX 8 17 0 -4
BITMAP
00
00
00
00
00
00
00
00
00
00
00
00
00
00
00
00
00
ENDCHAR

STARTCHAR U+2265
ENCODING 27
SWIDTH 338 0
DWIDTH 8 0
BBX 8 17 0 -4
BITMAP
00
00
00
00
00
00
00
00
00
00
00
00
00
00
00
00
00
ENDCHAR

STARTCHAR U+03C0
ENCODING 28
SWIDTH 338 0
DWIDTH 8 0
BBX 8 17 0 -4
BITMAP
00
00
00
00
00
00
00
00
00
00
00
00
00
00
00
00
00
ENDCHAR

STARTCHAR U+2260
ENCODING 29
SWIDTH 338 0
DWIDTH 8 0
BBX 8 17 0 -4
BITMAP
00
00
00
00
00
00
00
00
00
00
00
00
00
00
00
00
00
ENDCHAR

STARTCHAR U+00A3
ENCODING 30
SWIDTH 338 0
DWIDTH 8 0
BBX 8 17 0 -4
BITMAP
00
00
00
00
1C
36
30
30
7C
30
30
30
7E
00
00
00
00
ENDCHAR

STARTCHAR U+00B7
ENCODING 31
SWIDTH 338 0
DWIDTH 8 0
BBX 8 17 0 -4
BITMAP
00
00
00
00
00
00
00
00
00
00
00
00
00
00
00
00
00
ENDCHAR

STARTCHAR U+0020
ENCODING 32
SWIDTH 338 0
DWIDTH 8 0
BBX 8 17 0 -4
BITMAP
00
00
00
00
00
00
00
00
00
00
00
00
00
00
00
00
00
ENDCHAR

STARTCHAR U+0021
ENCODING 33
SWIDTH 338 0
DWIDTH 8 0
BBX 8 17 0 -4
BITMAP
00
00
00
18
3C
3C
3C
18
18
00
00
18
18
00
00
00
00
ENDCHAR

STARTCHAR U+0022
ENCODING 34
SWIDTH 338 0
DWIDTH 8 0
BBX 8 17 0 -4
BITMAP
00
00
6C
6C
6C
6C
00
00
00
00
00
00
00
00
00
00
00
ENDCHAR

STARTCHAR U+0023
ENCODING 35
SWIDTH 338 0
DWIDTH 8 0
BBX 8 17 0 -4
BITMAP
00
00
00
00
36
36
7F
36
36
36
7F
36
36
00
00
00
00
ENDCHAR

STARTCHAR U+0024
ENCODING 36
SWIDTH 338 0
DWIDTH 8 0
BBX 8 17 0 -4
BITMAP
00
00
00
18
18
3E
60
60
3C
06
06
7C
18
18
00
00
00
ENDCHAR

STARTCHAR U+0025
ENCODING 37
SWIDTH 338 0
DWIDTH 8 0
BBX 8 17 0 -4
BITMAP
00
00
00
00
38
6D
6E
3C
08
1E
3B
5B
0E
00
00
00
00
ENDCHAR

STARTCHAR U+0026
ENCODING 38
SWIDTH 338 0
DWIDTH 8 0
BBX 8 17 0 -4
BITMAP
00
00
00
38
6C
6C
6C
38
39
6D
66
66
3B
00
00
00
00
ENDCHAR

STARTCHAR U+0027
ENCODING 39
SWIDTH 338 0
DWIDTH 8 0
BBX 8 17 0 -4
BITMAP
00
00
18
18
18
18
00
00
00
00
00
00
00
00
00
00
00
ENDCHAR

STARTCHAR U+0028
ENCODING 40
SWIDTH 338 0
DWIDTH 8 0
BBX 8 17 0 -4
BITMAP
00
00
00
0C
18
18
30
30
30
30
30
30
18
18
0C
00
00
ENDCHAR

STARTCHAR U+0029
ENCODING 41
SWIDTH 338 0
DWIDTH 8 0
BBX 8 17 0 -4
BITMAP
00
00
00
30
18
18
0C
0C
0C
0C
0C
0C
18
18
30
00
00
ENDCHAR

STARTCHAR U+002A
ENCODING 42
SWIDTH 338 0
DWIDTH 8 0
BBX 8 17 0 -4
BITMAP
00
00
00
00
00
00
36
1C
7F
1C
36
00
00
00
00
00
00
ENDCHAR

STARTCHAR U+002B
ENCODING 43
SWIDTH 338 0
DWIDTH 8 0
BBX 8 17 0 -4
BITMAP
00
00
00
00
00
18
18
18
FF
18
18
18
00
00
00
00
00
ENDCHAR

STARTCHAR U+002C
ENCODING 44
SWIDTH 338 0
DWIDTH 8 0
BBX 8 17 0 -4
BITMAP
00
00
00
00
00
00
00
00
00
00
00
1C
1C
0C
0C
18
00
ENDCHAR

STARTCHAR U+002D
ENCODING 45
SWIDTH 338 0
DWIDTH 8 0
BBX 8 17 0 -4
BITMAP
00
00
00
00
00
00
00
00
7E
00
00
00
00
00
00
00
00
ENDCHAR

STARTCHAR U+002E
ENCODING 46
SWIDTH 338 0
DWIDTH 8 0
BBX 8 17 0 -4
BITMAP
00
00
00
00
00
00
00
00
00
00
00
1C
1C
00
00
00
00
ENDCHAR

STARTCHAR U+002F
ENCODING 47
SWIDTH 338 0
DWIDTH 8 0
BBX 8 17 0 -4
BITMAP
00
00
00
03
03
06
06
0C
0C
18
18
30
30
60
60
00
00
ENDCHAR

STARTCHAR U+0030
ENCODING 48
SWIDTH 338 0
DWIDTH 8 0
BBX 8 17 0 -4
BITMAP
00
00
00
00
3C
66
6E
6E
66
76
76
66
3C
00
00
00
00
ENDCHAR

STARTCHAR U+0031
ENCODING 49
SWIDTH 338 0
DWIDTH 8 0
BBX 8 17 0 -4
BITMAP
00
00
00
00
18
38
78
18
18
18
18
18
7E
00
00
00
00
ENDCHAR

STARTCHAR U+0032
ENCODING 50
SWIDTH 338 0
DWIDTH 8 0
BBX 8 17 0 -4
BITMAP
00
00
00
00
3C
66
06
06
0C
18
30
60
7E
00
00
00
00
ENDCHAR

STARTCHAR U+0033
ENCODING 51
SWIDTH 338 0
DWIDTH 8 0
BBX 8 17 0 -4
BITMAP
00
00
00
00
7E
06
0C
1C
06
06
06
66
3C
00
00
00
00
ENDCHAR

STARTCHAR U+0034
ENCODING 52
SWIDTH 338 0
DWIDTH 8 0
BBX 8 17 0 -4
BITMAP
00
00
00
00
06
0E
1E
36
66
7F
06
06
06
00
00
00
00
ENDCHAR

STARTCHAR U+0035
ENCODING 53
SWIDTH 338 0
DWIDTH 8 0
BBX 8 17 0 -4
BITMAP
00
00
00
00
7E
60
60
7C
06
06
06
66
3C
00
00
00
00
ENDCHAR

STARTCHAR U+0036
ENCODING 54
SWIDTH 338 0
DWIDTH 8 0
BBX 8 17 0 -4
BITMAP
00
00
00
00
18
30
60
7C
66
66
66
66
3C
00
00
00
00
ENDCHAR

STARTCHAR U+0037
ENCODING 55
SWIDTH 338 0
DWIDTH 8 0
BBX 8 17 0 -4
BITMAP
00
00
00
00
7E
06
0C
0C
18
18
30
30
30
00
00
00
00
ENDCHAR

STARTCHAR U+0038
ENCODING 56
SWIDTH 338 0
DWIDTH 8 0
BBX 8 17 0 -4
BITMAP
00
00
00
00
3C
66
66
66
3C
66
66
66
3C
00
00
00
00
ENDCHAR

STARTCHAR U+0039
ENCODING 57
SWIDTH 338 0
DWIDTH 8 0
BBX 8 17 0 -4
BITMAP
00
00
00
00
3C
66
66
66
66
3E
06
0C
18
00
00
00
00
ENDCHAR

STARTCHAR U+003A
ENCODING 58
SWIDTH 338 0
DWIDTH 8 0
BBX 8 17 0 -4
BITMAP
00
00
00
00
00
00
1C
1C
00
00
00
1C
1C
00
00
00
00
ENDCHAR

STARTCHAR U+003B
ENCODING 59
SWIDTH 338 0
DWIDTH 8 0
BBX 8 17 0 -4
BITMAP
00
00
00
00
00
00
1C
1C
00
00
00
1C
1C
0C
0C
18
00
ENDCHAR

STARTCHAR U+003C
ENCODING 60
SWIDTH 338 0
DWIDTH 8 0
BBX 8 17 0 -4
BITMAP
00
00
00
00
06
0C
18
30
60
30
18
0C
06
00
00
00
00
ENDCHAR

STARTCHAR U+003D
ENCODING 61
SWIDTH 338 0
DWIDTH 8 0
BBX 8 17 0 -4
BITMAP
00
00
00
00
00
00
00
7E
00
00
7E
00
00
00
00
00
00
ENDCHAR

STARTCHAR U+003E
ENCODING 62
SWIDTH 338 0
DWIDTH 8 0
BBX 8 17 0 -4
BITMAP
00
00
00
00
60
30
18
0C
06
0C
18
30
60
00
00
00
00
ENDCHAR

STARTCHAR U+003F
ENCODING 63
SWIDTH 338 0
DWIDTH 8 0
BBX 8 17 0 -4
BITMAP
00
00
00
3C
46
06
06
0C
18
00
00
18
18
00
00
00
00
ENDCHAR

STARTCHAR U+0040
ENCODING 64
SWIDTH 338 0
DWIDTH 8 0
BBX 8 17 0 -4
BITMAP
00
00
00
3E
63
63
6F
6B
6B
6B
6F
6F
60
60
3F
00
00
ENDCHAR

STARTCHAR U+0041
ENCODING 65
SWIDTH 338 0
DWIDTH 8 0
BBX 8 17 0 -4
BITMAP
00
00
00
00
18
3C
66
66
66
7E
66
66
66
00
00
00
00
ENDCHAR

STARTCHAR U+0042
ENCODING 66
SWIDTH 338 0
DWIDTH 8 0
BBX 8 17 0 -4
BITMAP
00
00
00
00
7C
66
66
66
7C
66
66
66
7C
00
00
00
00
ENDCHAR

STARTCHAR U+0043
ENCODING 67
SWIDTH 338 0
DWIDTH 8 0
BBX 8 17 0 -4
BITMAP
00
00
00
00
1E
30
60
60
60
60
60
30
1E
00
00
00
00
ENDCHAR

STARTCHAR U+0044
ENCODING 68
SWIDTH 338 0
DWIDTH 8 0
BBX 8 17 0 -4
BITMAP
00
00
00
00
78
6C
66
66
66
66
66
6C
78
00
00
00
00
ENDCHAR

STARTCHAR U+0045
ENCODING 69
SWIDTH 338 0
DWIDTH 8 0
BBX 8 17 0 -4
BITMAP
00
00
00
00
7E
60
60
60
7C
60
60
60
7E
00
00
00
00
ENDCHAR

STARTCHAR U+0046
ENCODING 70
SWIDTH 338 0
DWIDTH 8 0
BBX 8 17 0 -4
BITMAP
00
00
00
00
7E
60
60
60
7C
60
60
60
60
00
00
00
00
ENDCHAR

STARTCHAR U+0047
ENCODING 71
SWIDTH 338 0
DWIDTH 8 0
BBX 8 17 0 -4
BITMAP
00
00
00
00
1E
30
60
60
60
66
66
36
1E
00
00
00
00
ENDCHAR

STARTCHAR U+0048
ENCODING 72
SWIDTH 338 0
DWIDTH 8 0
BBX 8 17 0 -4
BITMAP
00
00
00
00
66
66
66
66
7E
66
66
66
66
00
00
00
00
ENDCHAR

STARTCHAR U+0049
ENCODING 73
SWIDTH 338 0
DWIDTH 8 0
BBX 8 17 0 -4
BITMAP
00
00
00
00
7E
18
18
18
18
18
18
18
7E
00
00
00
00
ENDCHAR

STARTCHAR U+004A
ENCODING 74
SWIDTH 338 0
DWIDTH 8 0
BBX 8 17 0 -4
BITMAP
00
00
00
00
06
06
06
06
06
06
66
66
3C
00
00
00
00
ENDCHAR

STARTCHAR U+004B
ENCODING 75
SWIDTH 338 0
DWIDTH 8 0
BBX 8 17 0 -4
BITMAP
00
00
00
00
63
66
6C
78
70
78
6C
66
63
00
00
00
00
ENDCHAR

STARTCHAR U+004C
ENCODING 76
SWIDTH 338 0
DWIDTH 8 0
BBX 8 17 0 -4
BITMAP
00
00
00
00
60
60
60
60
60
60
60
60
7E
00
00
00
00
ENDCHAR

STARTCHAR U+004D
ENCODING 77
SWIDTH 338 0
DWIDTH 8 0
BBX 8 17 0 -4
BITMAP
00
00
00
00
63
63
77
77
7F
6B
6B
63
63
00
00
00
00
ENDCHAR

STARTCHAR U+004E
ENCODING 78
SWIDTH 338 0
DWIDTH 8 0
BBX 8 17 0 -4
BITMAP
00
00
00
00
63
63
73
7B
6F
67
63
63
63
00
00
00
00
ENDCHAR

STARTCHAR U+004F
ENCODING 79
SWIDTH 338 0
DWIDTH 8 0
BBX 8 17 0 -4
BITMAP
00
00
00
00
1C
36
63
63
63
63
63
36
1C
00
00
00
00
ENDCHAR

STARTCHAR U+0050
ENCODING 80
SWIDTH 338 0
DWIDTH 8 0
BBX 8 17 0 -4
BITMAP
00
00
00
00
7C
66
66
66
7C
60
60
60
60
00
00
00
00
ENDCHAR

STARTCHAR U+0051
ENCODING 81
SWIDTH 338 0
DWIDTH 8 0
BBX 8 17 0 -4
BITMAP
00
00
00
00
1C
36
63
63
63
63
63
36
1C
06
03
00
00
ENDCHAR

STARTCHAR U+0052
ENCODING 82
SWIDTH 338 0
DWIDTH 8 0
BBX 8 17 0 -4
BITMAP
00
00
00
00
7C
66
66
66
7C
6C
66
66
66
00
00
00
00
ENDCHAR

STARTCHAR U+0053
ENCODING 83
SWIDTH 338 0
DWIDTH 8 0
BBX 8 17 0 -4
BITMAP
00
00
00
00
3E
60
60
70
3C
0E
06
06
7C
00
00
00
00
ENDCHAR

STARTCHAR U+0054
ENCODING 84
SWIDTH 338 0
DWIDTH 8 0
BBX 8 17 0 -4
BITMAP
00
00
00
00
FF
18
18
18
18
18
18
18
18
00
00
00
00
ENDCHAR

STARTCHAR U+0055
ENCODING 85
SWIDTH 338 0
DWIDTH 8 0
BBX 8 17 0 -4
BITMAP
00
00
00
00
66
66
66
66
66
66
66
66
3C
00
00
00
00
ENDCHAR

STARTCHAR U+0056
ENCODING 86
SWIDTH 338 0
DWIDTH 8 0
BBX 8 17 0 -4
BITMAP
00
00
00
00
66
66
66
66
66
66
66
3C
18
00
00
00
00
ENDCHAR

STARTCHAR U+0057
ENCODING 87
SWIDTH 338 0
DWIDTH 8 0
BBX 8 17 0 -4
BITMAP
00
00
00
00
63
63
63
63
63
6B
7F
77
63
00
00
00
00
ENDCHAR

STARTCHAR U+0058
ENCODING 88
SWIDTH 338 0
DWIDTH 8 0
BBX 8 17 0 -4
BITMAP
00
00
00
00
66
66
66
3C
18
3C
66
66
66
00
00
00
00
ENDCHAR

STARTCHAR U+0059
ENCODING 89
SWIDTH 338 0
DWIDTH 8 0
BBX 8 17 0 -4
BITMAP
00
00
00
00
66
66
66
3C
18
18
18
18
18
00
00
00
00
ENDCHAR

STARTCHAR U+005A
ENCODING 90
SWIDTH 338 0
DWIDTH 8 0
BBX 8 17 0 -4
BITMAP
00
00
00
00
7E
0C
0C
18
18
30
30
60
7E
00
00
00
00
ENDCHAR

STARTCHAR U+005B
ENCODING 91
SWIDTH 338 0
DWIDTH 8 0
BBX 8 17 0 -4
BITMAP
00
00
00
3E
30
30
30
30
30
30
30
30
30
30
3E
00
00
ENDCHAR

STARTCHAR U+005C
ENCODING 92
SWIDTH 338 0
DWIDTH 8 0
BBX 8 17 0 -4
BITMAP
00
00
00
60
60
30
30
18
18
0C
0C
06
06
03
03
00
00
ENDCHAR

STARTCHAR U+005D
ENCODING 93
SWIDTH 338 0
DWIDTH 8 0
BBX 8 17 0 -4
BITMAP
00
00
00
7C
0C
0C
0C
0C
0C
0C
0C
0C
0C
0C
7C
00
00
ENDCHAR

STARTCHAR U+005E
ENCODING 94
SWIDTH 338 0
DWIDTH 8 0
BBX 8 17 0 -4
BITMAP
00
00
00
18
3C
66
00
00
00
00
00
00
00
00
00
00
00
ENDCHAR

STARTCHAR U+005F
ENCODING 95
SWIDTH 338 0
DWIDTH 8 0
BBX 8 17 0 -4
BITMAP
00
00
00
00
00
00
00
00
00
00
00
00
00
00
FF
00
00
ENDCHAR

STARTCHAR U+0060
ENCODING 96
SWIDTH 338 0
DWIDTH 8 0
BBX 8 17 0 -4
BITMAP
00
00
30
18
0C
06
00
00
00
00
00
00
00
00
00
00
00
ENDCHAR

STARTCHAR U+0061
ENCODING 97
SWIDTH 338 0
DWIDTH 8 0
BBX 8 17 0 -4
BITMAP
00
00
00
00
00
00
3C
06
3E
66
66
66
3E
00
00
00
00
ENDCHAR

STARTCHAR U+0062
ENCODING 98
SWIDTH 338 0
DWIDTH 8 0
BBX 8 17 0 -4
BITMAP
00
00
00
60
60
60
7C
66
66
66
66
66
7C
00
00
00
00
ENDCHAR

STARTCHAR U+0063
ENCODING 99
SWIDTH 338 0
DWIDTH 8 0
BBX 8 17 0 -4
BITMAP
00
00
00
00
00
00
3C
66
60
60
60
66
3C
00
00
00
00
ENDCHAR

STARTCHAR U+0064
ENCODING 100
SWIDTH 338 0
DWIDTH 8 0
BBX 8 17 0 -4
BITMAP
00
00
00
06
06
06
3E
66
66
66
66
66
3E
00
00
00
00
ENDCHAR

STARTCHAR U+0065
ENCODING 101
SWIDTH 338 0
DWIDTH 8 0
BBX 8 17 0 -4
BITMAP
00
00
00
00
00
00
3C
66
66
7E
60
60
3E
00
00
00
00
ENDCHAR

STARTCHAR U+0066
ENCODING 102
SWIDTH 338 0
DWIDTH 8 0
BBX 8 17 0 -4
BITMAP
00
00
00
1E
30
30
7E
30
30
30
30
30
30
00
00
00
00
ENDCHAR

STARTCHAR U+0067
ENCODING 103
SWIDTH 338 0
DWIDTH 8 0
BBX 8 17 0 -4
BITMAP
00
00
00
00
00
00
3F
66
66
66
3C
60
3E
63
63
3E
00
ENDCHAR

STARTCHAR U+0068
ENCODING 104
SWIDTH 338 0
DWIDTH 8 0
BBX 8 17 0 -4
BITMAP
00
00
00
60
60
60
7C
66
66
66
66
66
66
00
00
00
00
ENDCHAR

STARTCHAR U+0069
ENCODING 105
SWIDTH 338 0
DWIDTH 8 0
BBX 8 17 0 -4
BITMAP
00
00
00
18
18
00
78
18
18
18
18
18
7E
00
00
00
00
ENDCHAR

STARTCHAR U+006A
ENCODING 106
SWIDTH 338 0
DWIDTH 8 0
BBX 8 17 0 -4
BITMAP
00
00
00
0C
0C
00
3C
0C
0C
0C
0C
0C
0C
0C
0C
78
00
ENDCHAR

STARTCHAR U+006B
ENCODING 107
SWIDTH 338 0
DWIDTH 8 0
BBX 8 17 0 -4
BITMAP
00
00
00
60
60
60
66
6C
78
78
6C
66
63
00
00
00
00
ENDCHAR

STARTCHAR U+006C
ENCODING 108
SWIDTH 338 0
DWIDTH 8 0
BBX 8 17 0 -4
BITMAP
00
00
00
78
18
18
18
18
18
18
18
18
7E
00
00
00
00
ENDCHAR

STARTCHAR U+006D
ENCODING 109
SWIDTH 338 0
DWIDTH 8 0
BBX 8 17 0 -4
BITMAP
00
00
00
00
00
00
7E
6B
6B
6B
6B
6B
6B
00
00
00
00
ENDCHAR

STARTCHAR U+006E
ENCODING 110
SWIDTH 338 0
DWIDTH 8 0
BBX 8 17 0 -4
BITMAP
00
00
00
00
00
00
7C
66
66
66
66
66
66
00
00
00
00
ENDCHAR

STARTCHAR U+006F
ENCODING 111
SWIDTH 338 0
DWIDTH 8 0
BBX 8 17 0 -4
BITMAP
00
00
00
00
00
00
3C
66
66
66
66
66
3C
00
00
00
00
ENDCHAR

STARTCHAR U+0070
ENCODING 112
SWIDTH 338 0
DWIDTH 8 0
BBX 8 17 0 -4
BITMAP
00
00
00
00
00
00
7C
66
66
66
66
66
7C
60
60
60
00
ENDCHAR

STARTCHAR U+0071
ENCODING 113
SWIDTH 338 0
DWIDTH 8 0
BBX 8 17 0 -4
BITMAP
00
00
00
00
00
00
3E
66
66
66
66
66
3E
06
06
06
00
ENDCHAR

STARTCHAR U+0072
ENCODING 114
SWIDTH 338 0
DWIDTH 8 0
BBX 8 17 0 -4
BITMAP
00
00
00
00
00
00
6E
70
60
60
60
60
60
00
00
00
00
ENDCHAR

STARTCHAR U+0073
ENCODING 115
SWIDTH 338 0
DWIDTH 8 0
BBX 8 17 0 -4
BITMAP
00
00
00
00
00
00
3E
60
70
3C
0E
06
7C
00
00
00
00
ENDCHAR

STARTCHAR U+0074
ENCODING 116
SWIDTH 338 0
DWIDTH 8 0
BBX 8 17 0 -4
BITMAP
00
00
00
00
30
30
7E
30
30
30
30
30
1E
00
00
00
00
ENDCHAR

STARTCHAR U+0075
ENCODING 117
SWIDTH 338 0
DWIDTH 8 0
BBX 8 17 0 -4
BITMAP
00
00
00
00
00
00
66
66
66
66
66
66
3E
00
00
00
00
ENDCHAR

STARTCHAR U+0076
ENCODING 118
SWIDTH 338 0
DWIDTH 8 0
BBX 8 17 0 -4
BITMAP
00
00
00
00
00
00
66
66
66
66
66
3C
18
00
00
00
00
ENDCHAR

STARTCHAR U+0077
ENCODING 119
SWIDTH 338 0
DWIDTH 8 0
BBX 8 17 0 -4
BITMAP
00
00
00
00
00
00
63
63
6B
6B
7F
77
22
00
00
00
00
ENDCHAR

STARTCHAR U+0078
ENCODING 120
SWIDTH 338 0
DWIDTH 8 0
BBX 8 17 0 -4
BITMAP
00
00
00
00
00
00
66
66
3C
18
3C
66
66
00
00
00
00
ENDCHAR

STARTCHAR U+0079
ENCODING 121
SWIDTH 338 0
DWIDTH 8 0
BBX 8 17 0 -4
BITMAP
00
00
00
00
00
00
66
66
66
66
66
3C
1C
18
18
70
00
ENDCHAR

STARTCHAR U+007A
ENCODING 122
SWIDTH 338 0
DWIDTH 8 0
BBX 8 17 0 -4
BITMAP
00
00
00
00
00
00
7E
06
0C
18
30
60
7E
00
00
00
00
ENDCHAR

STARTCHAR U+007B
ENCODING 123
SWIDTH 338 0
DWIDTH 8 0
BBX 8 17 0 -4
BITMAP
00
00
0E
18
18
18
18
18
F0
18
18
18
18
18
0E
00
00
ENDCHAR

STARTCHAR U+007C
ENCODING 124
SWIDTH 338 0
DWIDTH 8 0
BBX 8 17 0 -4
BITMAP
00
00
18
18
18
18
18
18
18
18
18
18
18
18
18
00
00
ENDCHAR

STARTCHAR U+007D
ENCODING 125
SWIDTH 338 0
DWIDTH 8 0
BBX 8 17 0 -4
BITMAP
00
00
70
18
18
18
18
18
0F
18
18
18
18
18
70
00
00
ENDCHAR

STARTCHAR U+007E
ENCODING 126
SWIDTH 338 0
DWIDTH 8 0
BBX 8 17 0 -4
BITMAP
00
00
00
33
7B
6F
66
00
00
00
00
00
00
00
00
00
00
ENDCHAR

STARTCHAR U+0000
ENCODING 160
SWIDTH 338 0
DWIDTH 8 0
BBX 8 17 0 -4
BITMAP
00
00
00
00
00
00
00
00
00
00
00
00
00
00
00
00
00
ENDCHAR

STARTCHAR U+0000
ENCODING 161
SWIDTH 338 0
DWIDTH 8 0
BBX 8 17 0 -4
BITMAP
00
00
00
00
00
04
1F
11
15
15
15
11
1F
00
00
00
00
ENDCHAR

STARTCHAR U+0000
ENCODING 162
SWIDTH 338 0
DWIDTH 8 0
BBX 8 17 0 -4
BITMAP
00
00
00
00
00
00
00
00
0F
00
06
06
06
00
00
00
00
ENDCHAR

STARTCHAR U+0000
ENCODING 163
SWIDTH 338 0
DWIDTH 8 0
BBX 8 17 0 -4
BITMAP
00
00
00
00
00
00
3F
00
1E
00
0C
0C
0C
00
00
00
00
ENDCHAR

STARTCHAR U+0000
ENCODING 164
SWIDTH 338 0
DWIDTH 8 0
BBX 8 17 0 -4
BITMAP
00
00
00
00
FF
00
7E
00
3C
00
18
18
18
00
00
00
00
ENDCHAR

STARTCHAR U+0000
ENCODING 165
SWIDTH 338 0
DWIDTH 8 0
BBX 8 17 0 -4
BITMAP
00
00
00
00
3C
66
E7
FF
E7
E7
E7
66
3C
00
00
00
00
ENDCHAR

STARTCHAR U+0000
ENCODING 166
SWIDTH 338 0
DWIDTH 8 0
BBX 8 17 0 -4
BITMAP
00
00
00
00
00
3E
63
5D
5D
5D
63
3E
41
00
00
00
00
ENDCHAR

STARTCHAR U+0000
ENCODING 167
SWIDTH 338 0
DWIDTH 8 0
BBX 8 17 0 -4
BITMAP
00
00
00
00
3C
66
E7
E7
E7
FF
E7
66
3C
00
00
00
00
ENDCHAR

STARTCHAR U+0000
ENCODING 168
SWIDTH 338 0
DWIDTH 8 0
BBX 8 17 0 -4
BITMAP
00
00
00
00
7F
41
5D
41
7F
41
5D
41
7F
00
00
00
00
ENDCHAR

STARTCHAR U+0000
ENCODING 169
SWIDTH 338 0
DWIDTH 8 0
BBX 8 17 0 -4
BITMAP
00
00
00
00
00
C0
EC
DE
5E
EC
DE
3F
3F
00
00
00
00
ENDCHAR

STARTCHAR U+0000
ENCODING 170
SWIDTH 338 0
DWIDTH 8 0
BBX 8 17 0 -4
BITMAP
00
00
00
00
19
3C
3D
24
25
24
42
42
3C
00
00
00
00
ENDCHAR

STARTCHAR U+0000
ENCODING 171
SWIDTH 338 0
DWIDTH 8 0
BBX 8 17 0 -4
BITMAP
00
00
00
00
09
1B
36
6C
D8
6C
36
1B
09
00
00
00
00
ENDCHAR

STARTCHAR U+0000
ENCODING 172
SWIDTH 338 0
DWIDTH 8 0
BBX 8 17 0 -4
BITMAP
00
00
00
00
00
00
03
03
1B
1B
1B
1B
1B
00
00
00
00
ENDCHAR

STARTCHAR U+0000
ENCODING 173
SWIDTH 338 0
DWIDTH 8 0
BBX 8 17 0 -4
BITMAP
00
00
00
00
03
03
1B
1B
DB
DB
DB
DB
DB
00
00
00
00
ENDCHAR

STARTCHAR U+0000
ENCODING 174
SWIDTH 338 0
DWIDTH 8 0
BBX 8 17 0 -4
BITMAP
00
00
00
00
00
F8
84
F2
89
E5
95
D5
FF
00
00
00
00
ENDCHAR

STARTCHAR U+0000
ENCODING 175
SWIDTH 338 0
DWIDTH 8 0
BBX 8 17 0 -4
BITMAP
00
00
00
00
00
C3
BD
7E
7E
7E
7E
BD
C3
00
00
00
00
ENDCHAR

STARTCHAR U+0000
ENCODING 176
SWIDTH 338 0
DWIDTH 8 0
BBX 8 17 0 -4
BITMAP
00
00
00
70
D8
D8
70
00
00
00
00
00
00
00
00
00
00
ENDCHAR

STARTCHAR U+0000
ENCODING 177
SWIDTH 338 0
DWIDTH 8 0
BBX 8 17 0 -4
BITMAP
00
00
00
00
00
0C
0F
0C
0F
0C
1E
1E
0C
00
00
00
00
ENDCHAR

STARTCHAR U+0000
ENCODING 178
SWIDTH 338 0
DWIDTH 8 0
BBX 8 17 0 -4
BITMAP
00
00
00
00
3E
41
41
41
41
7F
7F
7F
7F
00
00
00
00
ENDCHAR

STARTCHAR U+0000
ENCODING 179
SWIDTH 338 0
DWIDTH 8 0
BBX 8 17 0 -4
BITMAP
00
00
00
00
00
41
3E
3E
3E
3E
3E
41
00
00
00
00
00
ENDCHAR

STARTCHAR U+0000
ENCODING 180
SWIDTH 338 0
DWIDTH 8 0
BBX 8 17 0 -4
BITMAP
00
00
00
00
0E
0E
00
1E
0E
0E
0E
0E
1F
00
00
00
00
ENDCHAR

STARTCHAR U+0000
ENCODING 181
SWIDTH 338 0
DWIDTH 8 0
BBX 8 17 0 -4
BITMAP
00
00
00
02
04
0C
18
1F
3E
06
0C
08
10
00
00
00
00
ENDCHAR

STARTCHAR U+0000
ENCODING 182
SWIDTH 338 0
DWIDTH 8 0
BBX 8 17 0 -4
BITMAP
00
00
00
00
00
01
05
15
D5
D5
15
05
01
00
00
00
00
ENDCHAR

STARTCHAR U+0000
ENCODING 183
SWIDTH 338 0
DWIDTH 8 0
BBX 8 17 0 -4
BITMAP
00
00
00
00
00
18
3C
6E
EF
E3
7E
3C
18
00
00
00
00
ENDCHAR

STARTCHAR U+0000
ENCODING 184
SWIDTH 338 0
DWIDTH 8 0
BBX 8 17 0 -4
BITMAP
00
00
00
00
00
1E
37
7E
7C
78
3F
1E
00
00
00
00
00
ENDCHAR

STARTCHAR U+0000
ENCODING 185
SWIDTH 338 0
DWIDTH 8 0
BBX 8 17 0 -4
BITMAP
00
00
00
00
18
18
3C
3C
7E
66
E7
C3
81
00
00
00
00
ENDCHAR

STARTCHAR U+0000
ENCODING 186
SWIDTH 338 0
DWIDTH 8 0
BBX 8 17 0 -4
BITMAP
00
00
00
00
00
3C
6E
FC
F8
F0
FF
7E
3C
00
00
00
00
ENDCHAR

STARTCHAR U+0000
ENCODING 187
SWIDTH 338 0
DWIDTH 8 0
BBX 8 17 0 -4
BITMAP
00
00
00
00
90
D8
6C
36
1B
36
6C
D8
90
00
00
00
00
ENDCHAR

STARTCHAR U+0000
ENCODING 188
SWIDTH 338 0
DWIDTH 8 0
BBX 8 17 0 -4
BITMAP
00
00
00
00
0C
0A
49
2A
1C
2A
49
0A
0C
00
00
00
00
ENDCHAR

STARTCHAR U+0000
ENCODING 189
SWIDTH 338 0
DWIDTH 8 0
BBX 8 17 0 -4
BITMAP
00
00
00
00
3E
7F
41
49
45
45
49
41
3E
00
00
00
00
ENDCHAR

STARTCHAR U+0000
ENCODING 190
SWIDTH 338 0
DWIDTH 8 0
BBX 8 17 0 -4
BITMAP
00
00
00
00
3E
7F
41
5D
41
5D
41
41
3E
00
00
00
00
ENDCHAR

STARTCHAR U+0000
ENCODING 191
SWIDTH 338 0
DWIDTH 8 0
BBX 8 17 0 -4
BITMAP
00
00
00
00
00
1E
37
37
31
3F
1E
00
00
00
00
00
00
ENDCHAR

STARTCHAR U+0000
ENCODING 192
SWIDTH 338 0
DWIDTH 8 0
BBX 8 17 0 -4
BITMAP
00
00
00
00
00
00
01
05
35
35
05
01
00
00
00
00
00
ENDCHAR

STARTCHAR U+0000
ENCODING 193
SWIDTH 338 0
DWIDTH 8 0
BBX 8 17 0 -4
BITMAP
00
00
00
00
00
00
00
01
0D
0D
01
00
00
00
00
00
00
ENDCHAR

STARTCHAR U+0000
ENCODING 194
SWIDTH 338 0
DWIDTH 8 0
BBX 8 17 0 -4
BITMAP
00
00
00
00
12
12
3F
3F
3F
1E
0C
0C
0C
00
00
00
00
ENDCHAR

STARTCHAR U+0000
ENCODING 195
SWIDTH 338 0
DWIDTH 8 0
BBX 8 17 0 -4
BITMAP
00
00
00
00
00
00
1C
3F
FC
FC
3F
1C
00
00
00
00
00
ENDCHAR

STARTCHAR U+0000
ENCODING 196
SWIDTH 338 0
DWIDTH 8 0
BBX 8 17 0 -4
BITMAP
00
00
00
00
00
04
0C
3D
3A
34
08
14
00
00
00
00
00
ENDCHAR

STARTCHAR U+0000
ENCODING 197
SWIDTH 338 0
DWIDTH 8 0
BBX 8 17 0 -4
BITMAP
00
00
00
00
00
01
03
0F
0F
0F
03
01
00
00
00
00
00
ENDCHAR

STARTCHAR U+0000
ENCODING 198
SWIDTH 338 0
DWIDTH 8 0
BBX 8 17 0 -4
BITMAP
00
00
00
00
00
04
0C
3D
3D
3D
0C
04
00
00
00
00
00
ENDCHAR

STARTCHAR U+0000
ENCODING 199
SWIDTH 338 0
DWIDTH 8 0
BBX 8 17 0 -4
BITMAP
00
00
00
00
00
40
5F
7C
66
26
3E
FA
02
00
00
00
00
ENDCHAR

STARTCHAR U+0000
ENCODING 200
SWIDTH 338 0
DWIDTH 8 0
BBX 8 17 0 -4
BITMAP
00
00
00
00
18
18
5A
99
99
81
81
42
3C
00
00
00
00
ENDCHAR

STARTCHAR U+0000
ENCODING 201
SWIDTH 338 0
DWIDTH 8 0
BBX 8 17 0 -4
BITMAP
00
00
00
00
00
3C
7E
EF
EF
E3
FF
7E
3C
00
00
00
00
ENDCHAR

STARTCHAR U+0000
ENCODING 202
SWIDTH 338 0
DWIDTH 8 0
BBX 8 17 0 -4
BITMAP
00
00
00
00
00
FF
BD
DB
E7
FF
FF
FF
00
00
00
00
00
ENDCHAR

STARTCHAR U+0000
ENCODING 203
SWIDTH 338 0
DWIDTH 8 0
BBX 8 17 0 -4
BITMAP
00
00
00
00
00
FF
C3
A5
99
81
81
FF
00
00
00
00
00
ENDCHAR

STARTCHAR U+0000
ENCODING 204
SWIDTH 338 0
DWIDTH 8 0
BBX 8 17 0 -4
BITMAP
00
00
00
00
00
FF
BD
DB
E7
FF
FF
00
00
00
00
00
00
ENDCHAR

STARTCHAR U+0000
ENCODING 205
SWIDTH 338 0
DWIDTH 8 0
BBX 8 17 0 -4
BITMAP
00
00
00
00
00
FF
C3
A5
99
81
FF
00
00
00
00
00
00
ENDCHAR

STARTCHAR U+0000
ENCODING 206
SWIDTH 338 0
DWIDTH 8 0
BBX 8 17 0 -4
BITMAP
00
00
00
00
55
00
7F
7F
7F
7F
7F
00
55
00
00
00
00
ENDCHAR

STARTCHAR U+0000
ENCODING 207
SWIDTH 338 0
DWIDTH 8 0
BBX 8 17 0 -4
BITMAP
00
00
00
00
04
05
05
05
16
14
0C
04
04
00
00
00
00
ENDCHAR

STARTCHAR U+0000
ENCODING 208
SWIDTH 338 0
DWIDTH 8 0
BBX 8 17 0 -4
BITMAP
00
00
00
00
00
FF
BD
DB
E7
E7
DB
BD
FF
00
00
00
00
ENDCHAR

STARTCHAR U+0000
ENCODING 209
SWIDTH 338 0
DWIDTH 8 0
BBX 8 17 0 -4
BITMAP
00
00
00
00
DB
C3
3C
BD
BD
BD
3C
C3
DB
00
00
00
00
ENDCHAR

STARTCHAR U+0000
ENCODING 210
SWIDTH 338 0
DWIDTH 8 0
BBX 8 17 0 -4
BITMAP
00
00
00
00
10
03
47
0E
14
68
70
70
00
00
00
00
00
ENDCHAR

STARTCHAR U+0000
ENCODING 211
SWIDTH 338 0
DWIDTH 8 0
BBX 8 17 0 -4
BITMAP
00
00
00
00
00
08
8C
FE
FF
FF
7E
0C
08
00
00
00
00
ENDCHAR

STARTCHAR U+0000
ENCODING 212
SWIDTH 338 0
DWIDTH 8 0
BBX 8 17 0 -4
BITMAP
00
00
00
00
00
10
31
7F
FF
FF
7E
30
10
00
00
00
00
ENDCHAR

STARTCHAR U+0000
ENCODING 213
SWIDTH 338 0
DWIDTH 8 0
BBX 8 17 0 -4
BITMAP
00
00
00
00
00
10
30
7E
FF
FF
7F
31
10
00
00
00
00
ENDCHAR

STARTCHAR U+0000
ENCODING 214
SWIDTH 338 0
DWIDTH 8 0
BBX 8 17 0 -4
BITMAP
00
00
00
00
00
08
0C
7E
FF
FF
FE
8C
08
00
00
00
00
ENDCHAR

STARTCHAR U+0000
ENCODING 215
SWIDTH 338 0
DWIDTH 8 0
BBX 8 17 0 -4
BITMAP
00
00
00
00
00
55
00
7F
7F
7F
00
55
00
00
00
00
00
ENDCHAR

STARTCHAR U+0000
ENCODING 216
SWIDTH 338 0
DWIDTH 8 0
BBX 8 17 0 -4
BITMAP
00
00
00
00
00
08
0C
FE
FF
FF
FE
0C
08
00
00
00
00
ENDCHAR

STARTCHAR U+0000
ENCODING 217
SWIDTH 338 0
DWIDTH 8 0
BBX 8 17 0 -4
BITMAP
00
00
00
00
00
10
30
7F
FF
FF
7F
30
10
00
00
00
00
ENDCHAR

STARTCHAR U+0000
ENCODING 218
SWIDTH 338 0
DWIDTH 8 0
BBX 8 17 0 -4
BITMAP
00
00
00
00
00
3C
3C
3C
3C
FF
7E
3C
18
00
00
00
00
ENDCHAR

STARTCHAR U+0000
ENCODING 219
SWIDTH 338 0
DWIDTH 8 0
BBX 8 17 0 -4
BITMAP
00
00
00
00
00
18
3C
7E
FF
3C
3C
3C
3C
00
00
00
00
ENDCHAR

STARTCHAR U+0000
ENCODING 220
SWIDTH 338 0
DWIDTH 8 0
BBX 8 17 0 -4
BITMAP
00
00
00
00
00
18
3C
7E
FF
3C
3C
3C
78
00
00
00
00
ENDCHAR

STARTCHAR U+0000
ENCODING 221
SWIDTH 338 0
DWIDTH 8 0
BBX 8 17 0 -4
BITMAP
00
00
00
00
00
78
3C
3C
3C
FF
7E
3C
18
00
00
00
00
ENDCHAR

STARTCHAR U+0000
ENCODING 222
SWIDTH 338 0
DWIDTH 8 0
BBX 8 17 0 -4
BITMAP
00
00
00
00
00
18
3C
7E
FF
3C
3C
3C
1E
00
00
00
00
ENDCHAR

STARTCHAR U+0000
ENCODING 223
SWIDTH 338 0
DWIDTH 8 0
BBX 8 17 0 -4
BITMAP
00
00
00
00
00
1E
3C
3C
3C
FF
7E
3C
18
00
00
00
00
ENDCHAR

STARTCHAR U+0000
ENCODING 224
SWIDTH 338 0
DWIDTH 8 0
BBX 8 17 0 -4
BITMAP
00
00
00
00
3C
42
81
81
81
81
E7
E7
66
00
00
00
00
ENDCHAR

STARTCHAR U+0000
ENCODING 225
SWIDTH 338 0
DWIDTH 8 0
BBX 8 17 0 -4
BITMAP
00
00
00
00
0C
0C
0C
2D
2D
21
1E
0C
3F
00
00
00
00
ENDCHAR

STARTCHAR U+0000
ENCODING 226
SWIDTH 338 0
DWIDTH 8 0
BBX 8 17 0 -4
BITMAP
00
00
00
00
00
21
23
27
2F
27
23
21
00
00
00
00
00
ENDCHAR

STARTCHAR U+0000
ENCODING 227
SWIDTH 338 0
DWIDTH 8 0
BBX 8 17 0 -4
BITMAP
00
00
00
00
00
11
33
77
FF
77
33
11
00
00
00
00
00
ENDCHAR

STARTCHAR U+0000
ENCODING 228
SWIDTH 338 0
DWIDTH 8 0
BBX 8 17 0 -4
BITMAP
00
00
00
00
00
1C
3E
7F
7F
7F
3E
1C
00
00
00
00
00
ENDCHAR

STARTCHAR U+0000
ENCODING 229
SWIDTH 338 0
DWIDTH 8 0
BBX 8 17 0 -4
BITMAP
00
00
00
00
00
7F
7F
7F
7F
7F
7F
7F
00
00
00
00
00
ENDCHAR

STARTCHAR U+0000
ENCODING 230
SWIDTH 338 0
DWIDTH 8 0
BBX 8 17 0 -4
BITMAP
00
00
00
00
00
08
0C
0E
0F
0E
0C
08
00
00
00
00
00
ENDCHAR

STARTCHAR U+0000
ENCODING 231
SWIDTH 338 0
DWIDTH 8 0
BBX 8 17 0 -4
BITMAP
00
00
00
00
00
1B
1B
1B
1B
1B
1B
1B
00
00
00
00
00
ENDCHAR

STARTCHAR U+0000
ENCODING 232
SWIDTH 338 0
DWIDTH 8 0
BBX 8 17 0 -4
BITMAP
00
00
00
00
00
88
CC
EE
FF
EE
CC
88
00
00
00
00
00
ENDCHAR

STARTCHAR U+0000
ENCODING 233
SWIDTH 338 0
DWIDTH 8 0
BBX 8 17 0 -4
BITMAP
00
00
00
00
00
21
31
39
3D
39
31
21
00
00
00
00
00
ENDCHAR

STARTCHAR U+0000
ENCODING 234
SWIDTH 338 0
DWIDTH 8 0
BBX 8 17 0 -4
BITMAP
00
00
00
00
00
3F
3F
21
21
21
63
E7
C6
00
00
00
00
ENDCHAR

STARTCHAR U+0000
ENCODING 235
SWIDTH 338 0
DWIDTH 8 0
BBX 8 17 0 -4
BITMAP
00
00
00
00
00
02
06
3E
3D
3A
34
0A
12
00
00
00
00
ENDCHAR

STARTCHAR U+0000
ENCODING 236
SWIDTH 338 0
DWIDTH 8 0
BBX 8 17 0 -4
BITMAP
00
00
00
00
00
01
03
1F
1F
1F
1F
03
01
00
00
00
00
ENDCHAR

STARTCHAR U+0000
ENCODING 237
SWIDTH 338 0
DWIDTH 8 0
BBX 8 17 0 -4
BITMAP
00
00
00
00
00
04
0C
7D
7D
7D
7D
0C
04
00
00
00
00
ENDCHAR

STARTCHAR U+0000
ENCODING 238
SWIDTH 338 0
DWIDTH 8 0
BBX 8 17 0 -4
BITMAP
00
00
00
00
0C
3F
21
21
21
21
21
21
3F
00
00
00
00
ENDCHAR

STARTCHAR U+0000
ENCODING 239
SWIDTH 338 0
DWIDTH 8 0
BBX 8 17 0 -4
BITMAP
00
00
00
00
0C
3F
21
21
29
29
2D
21
3F
00
00
00
00
ENDCHAR

STARTCHAR U+0000
ENCODING 240
SWIDTH 338 0
DWIDTH 8 0
BBX 8 17 0 -4
BITMAP
00
00
00
00
0C
3F
21
2D
2D
2D
2D
21
3F
00
00
00
00
ENDCHAR

STARTCHAR U+0000
ENCODING 241
SWIDTH 338 0
DWIDTH 8 0
BBX 8 17 0 -4
BITMAP
00
00
00
00
00
00
FE
83
83
83
FE
00
00
00
00
00
00
ENDCHAR

STARTCHAR U+0000
ENCODING 242
SWIDTH 338 0
DWIDTH 8 0
BBX 8 17 0 -4
BITMAP
00
00
00
00
00
00
FE
83
B3
83
FE
00
00
00
00
00
00
ENDCHAR

STARTCHAR U+0000
ENCODING 243
SWIDTH 338 0
DWIDTH 8 0
BBX 8 17 0 -4
BITMAP
00
00
00
00
00
00
FE
83
BB
83
FE
00
00
00
00
00
00
ENDCHAR

STARTCHAR U+0000
ENCODING 244
SWIDTH 338 0
DWIDTH 8 0
BBX 8 17 0 -4
BITMAP
00
00
00
00
FF
FF
C3
C3
C3
C3
FF
FF
00
00
00
00
00
ENDCHAR

STARTCHAR U+0000
ENCODING 245
SWIDTH 338 0
DWIDTH 8 0
BBX 8 17 0 -4
BITMAP
00
00
00
00
F7
F7
F7
F7
00
DB
DB
DB
00
00
00
00
00
ENDCHAR

STARTCHAR U+0000
ENCODING 246
SWIDTH 338 0
DWIDTH 8 0
BBX 8 17 0 -4
BITMAP
00
00
00
00
F7
F7
F0
F7
07
F0
F7
F7
00
00
00
00
00
ENDCHAR

STARTCHAR U+0000
ENCODING 247
SWIDTH 338 0
DWIDTH 8 0
BBX 8 17 0 -4
BITMAP
00
00
00
00
00
0C
16
37
31
1E
0C
00
00
00
00
00
00
ENDCHAR

STARTCHAR U+0000
ENCODING 248
SWIDTH 338 0
DWIDTH 8 0
BBX 8 17 0 -4
BITMAP
00
00
00
00
F7
F7
F7
F7
F0
F5
F1
F5
00
00
00
00
00
ENDCHAR

STARTCHAR U+0000
ENCODING 249
SWIDTH 338 0
DWIDTH 8 0
BBX 8 17 0 -4
BITMAP
00
00
00
00
F7
F7
F7
F7
F0
F5
F4
F5
00
00
00
00
00
ENDCHAR

STARTCHAR U+0000
ENCODING 250
SWIDTH 338 0
DWIDTH 8 0
BBX 8 17 0 -4
BITMAP
00
00
00
00
DB
DB
00
DB
DB
00
DB
DB
00
00
00
00
00
ENDCHAR

STARTCHAR U+0000
ENCODING 251
SWIDTH 338 0
DWIDTH 8 0
BBX 8 17 0 -4
BITMAP
00
00
00
00
FF
FF
FF
FF
00
FF
00
FF
00
00
00
00
00
ENDCHAR

STARTCHAR U+0000
ENCODING 252
SWIDTH 338 0
DWIDTH 8 0
BBX 8 17 0 -4
BITMAP
00
00
00
00
FF
FF
FF
FF
00
DB
DB
DB
00
00
00
00
00
ENDCHAR

STARTCHAR U+0000
ENCODING 253
SWIDTH 338 0
DWIDTH 8 0
BBX 8 17 0 -4
BITMAP
00
00
00
00
F7
F7
F7
F7
07
FF
FF
FF
00
00
00
00
00
ENDCHAR

STARTCHAR U+0000
ENCODING 254
SWIDTH 338 0
DWIDTH 8 0
BBX 8 17 0 -4
BITMAP
00
00
00
00
F7
F7
F0
F7
F7
F0
F7
F7
00
00
00
00
00
ENDCHAR

STARTCHAR U+0000
ENCODING 255
SWIDTH 338 0
DWIDTH 8 0
BBX 8 17 0 -4
BITMAP
00
00
00
00
FF
FF
FF
FF
FF
FF
FF
FF
00
00
00
00
00
ENDCHAR

ENDFONT
