STARTFONT 2.1
FONT fkp
SIZE 16 75 75
FONTBOUNDINGBOX 8 16 0 -4

STARTPROPERTIES 9
POINT_SIZE 160
WEIGHT 10
RESOLUTION_X 75
RESOLUTION_Y 75
X_HEIGHT 4294967295
QUAD_WIDTH 8
DEFAULT_CHAR 0
FONT_DESCENT 4
FONT_ASCENT 12
ENDPROPERTIES

CHARS 256

STARTCHAR C0000
ENCODING 0
SWIDTH 666 0
DWIDTH 8 0
BBX 8 16 0 -4
BITMAP
00
00
00
7C
C6
C6
DE
DE
DE
DC
C0
7C
00
00
00
00
ENDCHAR

STARTCHAR C0001
ENCODING 1
SWIDTH 666 0
DWIDTH 8 0
BBX 8 16 0 -4
BITMAP
00
00
3C
42
81
A5
81
81
A5
99
42
3C
00
00
00
00
ENDCHAR

STARTCHAR C0002
ENCODING 2
SWIDTH 666 0
DWIDTH 8 0
BBX 8 16 0 -4
BITMAP
00
00
3C
7E
FF
DB
FF
FF
DB
E7
7E
3C
00
00
00
00
ENDCHAR

STARTCHAR C0003
ENCODING 3
SWIDTH 666 0
DWIDTH 8 0
BBX 8 16 0 -4
BITMAP
00
00
00
00
66
FF
FF
FF
FF
7E
3C
18
00
00
00
00
ENDCHAR

STARTCHAR C0004
ENCODING 4
SWIDTH 666 0
DWIDTH 8 0
BBX 8 16 0 -4
BITMAP
00
00
00
00
18
3C
7E
FF
7E
3C
18
00
00
00
00
00
ENDCHAR

STARTCHAR C0005
ENCODING 5
SWIDTH 666 0
DWIDTH 8 0
BBX 8 16 0 -4
BITMAP
00
00
00
18
3C
3C
5A
FF
FF
5A
18
3C
00
00
00
00
ENDCHAR

STARTCHAR C0006
ENCODING 6
SWIDTH 666 0
DWIDTH 8 0
BBX 8 16 0 -4
BITMAP
00
00
00
18
3C
7E
FF
FF
FF
5A
18
3C
00
00
00
00
ENDCHAR

STARTCHAR C0007
ENCODING 7
SWIDTH 666 0
DWIDTH 8 0
BBX 8 16 0 -4
BITMAP
00
00
00
00
00
00
18
3C
3C
18
00
00
00
00
00
00
ENDCHAR

STARTCHAR C0008
ENCODING 8
SWIDTH 666 0
DWIDTH 8 0
BBX 8 16 0 -4
BITMAP
FF
FF
FF
FF
FF
FF
E7
C3
C3
E7
FF
FF
FF
FF
FF
FF
ENDCHAR

STARTCHAR C0009
ENCODING 9
SWIDTH 666 0
DWIDTH 8 0
BBX 8 16 0 -4
BITMAP
00
00
00
00
00
3C
66
42
42
66
3C
00
00
00
00
00
ENDCHAR

STARTCHAR C000a
ENCODING 10
SWIDTH 666 0
DWIDTH 8 0
BBX 8 16 0 -4
BITMAP
FF
FF
FF
FF
FF
C3
99
BD
BD
99
C3
FF
FF
FF
FF
FF
ENDCHAR

STARTCHAR C000b
ENCODING 11
SWIDTH 666 0
DWIDTH 8 0
BBX 8 16 0 -4
BITMAP
00
00
0F
07
0D
18
7E
C3
C3
C3
C6
7C
00
00
00
00
ENDCHAR

STARTCHAR C000c
ENCODING 12
SWIDTH 666 0
DWIDTH 8 0
BBX 8 16 0 -4
BITMAP
00
00
7E
C3
C3
C6
7C
18
18
7E
18
18
00
00
00
00
ENDCHAR

STARTCHAR C000d
ENCODING 13
SWIDTH 666 0
DWIDTH 8 0
BBX 8 16 0 -4
BITMAP
00
00
04
06
07
05
04
04
04
3C
7C
38
00
00
00
00
ENDCHAR

STARTCHAR C000e
ENCODING 14
SWIDTH 666 0
DWIDTH 8 0
BBX 8 16 0 -4
BITMAP
00
10
18
1C
1E
16
12
12
72
F2
62
0E
1E
0C
00
00
ENDCHAR

STARTCHAR C000f
ENCODING 15
SWIDTH 666 0
DWIDTH 8 0
BBX 8 16 0 -4
BITMAP
00
00
18
18
DB
7E
3C
FF
3C
7E
DB
18
18
00
00
00
ENDCHAR

STARTCHAR C0010
ENCODING 16
SWIDTH 666 0
DWIDTH 8 0
BBX 8 16 0 -4
BITMAP
00
40
60
70
78
7C
7E
7C
78
70
60
40
00
00
00
00
ENDCHAR

STARTCHAR C0011
ENCODING 17
SWIDTH 666 0
DWIDTH 8 0
BBX 8 16 0 -4
BITMAP
00
02
06
0E
1E
3E
7E
3E
1E
0E
06
02
00
00
00
00
ENDCHAR

STARTCHAR C0012
ENCODING 18
SWIDTH 666 0
DWIDTH 8 0
BBX 8 16 0 -4
BITMAP
00
00
00
18
3C
7E
18
18
18
18
7E
3C
18
00
00
00
ENDCHAR

STARTCHAR C0013
ENCODING 19
SWIDTH 666 0
DWIDTH 8 0
BBX 8 16 0 -4
BITMAP
00
00
66
FF
FF
FF
FF
66
66
00
66
66
00
00
00
00
ENDCHAR

STARTCHAR C0014
ENCODING 20
SWIDTH 666 0
DWIDTH 8 0
BBX 8 16 0 -4
BITMAP
00
00
7F
DB
DB
DB
7B
3B
1F
1B
1B
1B
00
00
00
00
ENDCHAR

STARTCHAR C0015
ENCODING 21
SWIDTH 666 0
DWIDTH 8 0
BBX 8 16 0 -4
BITMAP
00
1E
30
78
DC
CE
E7
73
3B
1E
0C
78
00
00
00
00
ENDCHAR

STARTCHAR C0016
ENCODING 22
SWIDTH 666 0
DWIDTH 8 0
BBX 8 16 0 -4
BITMAP
00
00
00
00
00
00
00
00
7E
7E
7E
7E
00
00
00
00
ENDCHAR

STARTCHAR C0017
ENCODING 23
SWIDTH 666 0
DWIDTH 8 0
BBX 8 16 0 -4
BITMAP
00
00
18
3C
7E
18
18
18
7E
3C
18
00
00
7E
00
00
ENDCHAR

STARTCHAR C0018
ENCODING 24
SWIDTH 666 0
DWIDTH 8 0
BBX 8 16 0 -4
BITMAP
00
00
00
00
10
38
7C
FE
38
38
38
38
00
00
00
00
ENDCHAR

STARTCHAR C0019
ENCODING 25
SWIDTH 666 0
DWIDTH 8 0
BBX 8 16 0 -4
BITMAP
00
00
00
00
38
38
38
38
FE
7C
38
10
00
00
00
00
ENDCHAR

STARTCHAR C001a
ENCODING 26
SWIDTH 666 0
DWIDTH 8 0
BBX 8 16 0 -4
BITMAP
00
00
00
00
00
10
18
FC
FE
FC
18
10
00
00
00
00
ENDCHAR

STARTCHAR C001b
ENCODING 27
SWIDTH 666 0
DWIDTH 8 0
BBX 8 16 0 -4
BITMAP
00
00
00
00
00
10
30
7E
FE
7E
30
10
00
00
00
00
ENDCHAR

STARTCHAR C001c
ENCODING 28
SWIDTH 666 0
DWIDTH 8 0
BBX 8 16 0 -4
BITMAP
00
00
33
66
EE
00
00
00
00
00
00
00
00
00
00
00
ENDCHAR

STARTCHAR C001d
ENCODING 29
SWIDTH 666 0
DWIDTH 8 0
BBX 8 16 0 -4
BITMAP
00
00
00
00
00
24
66
FF
FF
66
24
00
00
00
00
00
ENDCHAR

STARTCHAR C001e
ENCODING 30
SWIDTH 666 0
DWIDTH 8 0
BBX 8 16 0 -4
BITMAP
00
00
00
10
10
38
38
7C
7C
FE
FE
00
00
00
00
00
ENDCHAR

STARTCHAR C001f
ENCODING 31
SWIDTH 666 0
DWIDTH 8 0
BBX 8 16 0 -4
BITMAP
00
00
00
FE
FE
7C
7C
38
38
10
10
00
00
00
00
00
ENDCHAR

STARTCHAR C0020
ENCODING 32
SWIDTH 666 0
DWIDTH 8 0
BBX 8 16 0 -4
BITMAP
00
00
00
00
00
00
00
00
00
00
00
00
00
00
00
00
ENDCHAR

STARTCHAR C0021
ENCODING 33
SWIDTH 666 0
DWIDTH 8 0
BBX 8 16 0 -4
BITMAP
00
00
18
3C
3C
3C
3C
18
18
00
18
18
00
00
00
00
ENDCHAR

STARTCHAR C0022
ENCODING 34
SWIDTH 666 0
DWIDTH 8 0
BBX 8 16 0 -4
BITMAP
00
00
7E
6C
D8
00
00
00
00
00
00
00
00
00
00
00
ENDCHAR

STARTCHAR C0023
ENCODING 35
SWIDTH 666 0
DWIDTH 8 0
BBX 8 16 0 -4
BITMAP
00
00
6C
6C
FE
6C
6C
6C
6C
FE
6C
6C
00
00
00
00
ENDCHAR

STARTCHAR C0024
ENCODING 36
SWIDTH 666 0
DWIDTH 8 0
BBX 8 16 0 -4
BITMAP
00
10
7C
D6
D0
70
38
1C
16
16
D6
7C
10
00
00
00
ENDCHAR

STARTCHAR C0025
ENCODING 37
SWIDTH 666 0
DWIDTH 8 0
BBX 8 16 0 -4
BITMAP
00
00
00
70
DB
76
0C
18
30
6E
DB
0E
00
00
00
00
ENDCHAR

STARTCHAR C0026
ENCODING 38
SWIDTH 666 0
DWIDTH 8 0
BBX 8 16 0 -4
BITMAP
00
00
38
6C
6C
38
70
D8
CE
CC
DC
76
00
00
00
00
ENDCHAR

STARTCHAR C0027
ENCODING 39
SWIDTH 666 0
DWIDTH 8 0
BBX 8 16 0 -4
BITMAP
00
00
1C
18
30
00
00
00
00
00
00
00
00
00
00
00
ENDCHAR

STARTCHAR C0028
ENCODING 40
SWIDTH 666 0
DWIDTH 8 0
BBX 8 16 0 -4
BITMAP
00
06
0C
18
18
30
30
30
30
18
18
0C
06
00
00
00
ENDCHAR

STARTCHAR C0029
ENCODING 41
SWIDTH 666 0
DWIDTH 8 0
BBX 8 16 0 -4
BITMAP
00
60
30
18
18
0C
0C
0C
0C
18
18
30
60
00
00
00
ENDCHAR

STARTCHAR C002a
ENCODING 42
SWIDTH 666 0
DWIDTH 8 0
BBX 8 16 0 -4
BITMAP
00
00
00
00
18
18
FE
38
38
6C
00
00
00
00
00
00
ENDCHAR

STARTCHAR C002b
ENCODING 43
SWIDTH 666 0
DWIDTH 8 0
BBX 8 16 0 -4
BITMAP
00
00
00
00
00
18
18
7E
18
18
00
00
00
00
00
00
ENDCHAR

STARTCHAR C002c
ENCODING 44
SWIDTH 666 0
DWIDTH 8 0
BBX 8 16 0 -4
BITMAP
00
00
00
00
00
00
00
00
00
00
1C
18
30
20
00
00
ENDCHAR

STARTCHAR C002d
ENCODING 45
SWIDTH 666 0
DWIDTH 8 0
BBX 8 16 0 -4
BITMAP
00
00
00
00
00
00
00
7E
00
00
00
00
00
00
00
00
ENDCHAR

STARTCHAR C002e
ENCODING 46
SWIDTH 666 0
DWIDTH 8 0
BBX 8 16 0 -4
BITMAP
00
00
00
00
00
00
00
00
00
00
18
18
00
00
00
00
ENDCHAR

STARTCHAR C002f
ENCODING 47
SWIDTH 666 0
DWIDTH 8 0
BBX 8 16 0 -4
BITMAP
00
00
06
04
0C
08
18
10
30
20
60
40
C0
00
00
00
ENDCHAR

STARTCHAR C0030
ENCODING 48
SWIDTH 666 0
DWIDTH 8 0
BBX 8 16 0 -4
BITMAP
00
00
3C
66
C6
C6
D6
D6
C6
C6
CC
78
00
00
00
00
ENDCHAR

STARTCHAR C0031
ENCODING 49
SWIDTH 666 0
DWIDTH 8 0
BBX 8 16 0 -4
BITMAP
00
00
18
38
78
18
18
18
18
18
18
18
00
00
00
00
ENDCHAR

STARTCHAR C0032
ENCODING 50
SWIDTH 666 0
DWIDTH 8 0
BBX 8 16 0 -4
BITMAP
00
00
7C
C6
06
06
0C
18
30
60
C0
FE
00
00
00
00
ENDCHAR

STARTCHAR C0033
ENCODING 51
SWIDTH 666 0
DWIDTH 8 0
BBX 8 16 0 -4
BITMAP
00
00
7C
C6
06
06
1C
06
06
06
CC
78
00
00
00
00
ENDCHAR

STARTCHAR C0034
ENCODING 52
SWIDTH 666 0
DWIDTH 8 0
BBX 8 16 0 -4
BITMAP
00
00
0C
1C
3C
6C
CC
CC
FE
0C
0C
0C
00
00
00
00
ENDCHAR

STARTCHAR C0035
ENCODING 53
SWIDTH 666 0
DWIDTH 8 0
BBX 8 16 0 -4
BITMAP
00
00
FE
C0
C0
FC
06
06
06
06
CC
78
00
00
00
00
ENDCHAR

STARTCHAR C0036
ENCODING 54
SWIDTH 666 0
DWIDTH 8 0
BBX 8 16 0 -4
BITMAP
00
00
3C
60
C0
C0
FC
C6
C6
C6
CC
78
00
00
00
00
ENDCHAR

STARTCHAR C0037
ENCODING 55
SWIDTH 666 0
DWIDTH 8 0
BBX 8 16 0 -4
BITMAP
00
00
FE
06
0C
0C
18
18
30
30
30
30
00
00
00
00
ENDCHAR

STARTCHAR C0038
ENCODING 56
SWIDTH 666 0
DWIDTH 8 0
BBX 8 16 0 -4
BITMAP
00
00
3C
66
C6
C6
7C
C6
C6
C6
CC
78
00
00
00
00
ENDCHAR

STARTCHAR C0039
ENCODING 57
SWIDTH 666 0
DWIDTH 8 0
BBX 8 16 0 -4
BITMAP
00
00
3C
66
C6
C6
C6
7E
06
06
0C
78
00
00
00
00
ENDCHAR

STARTCHAR C003a
ENCODING 58
SWIDTH 666 0
DWIDTH 8 0
BBX 8 16 0 -4
BITMAP
00
00
00
00
18
18
00
00
00
18
18
00
00
00
00
00
ENDCHAR

STARTCHAR C003b
ENCODING 59
SWIDTH 666 0
DWIDTH 8 0
BBX 8 16 0 -4
BITMAP
00
00
00
00
18
18
00
00
00
18
18
30
20
00
00
00
ENDCHAR

STARTCHAR C003c
ENCODING 60
SWIDTH 666 0
DWIDTH 8 0
BBX 8 16 0 -4
BITMAP
00
00
00
06
0C
18
30
60
30
18
0C
06
00
00
00
00
ENDCHAR

STARTCHAR C003d
ENCODING 61
SWIDTH 666 0
DWIDTH 8 0
BBX 8 16 0 -4
BITMAP
00
00
00
00
00
FE
00
00
FE
00
00
00
00
00
00
00
ENDCHAR

STARTCHAR C003e
ENCODING 62
SWIDTH 666 0
DWIDTH 8 0
BBX 8 16 0 -4
BITMAP
00
00
00
60
30
18
0C
06
0C
18
30
60
00
00
00
00
ENDCHAR

STARTCHAR C003f
ENCODING 63
SWIDTH 666 0
DWIDTH 8 0
BBX 8 16 0 -4
BITMAP
00
00
7C
C6
06
06
0C
18
18
00
18
18
00
00
00
00
ENDCHAR

STARTCHAR C0040
ENCODING 64
SWIDTH 666 0
DWIDTH 8 0
BBX 8 16 0 -4
BITMAP
00
00
3C
66
CE
DE
DE
DE
DE
CC
60
3C
00
00
00
00
ENDCHAR

STARTCHAR C0041
ENCODING 65
SWIDTH 666 0
DWIDTH 8 0
BBX 8 16 0 -4
BITMAP
00
00
3C
66
C6
C6
C6
C6
FE
C6
C6
C6
00
00
00
00
ENDCHAR

STARTCHAR C0042
ENCODING 66
SWIDTH 666 0
DWIDTH 8 0
BBX 8 16 0 -4
BITMAP
00
00
F8
CC
CC
CC
FC
C6
C6
C6
CC
F8
00
00
00
00
ENDCHAR

STARTCHAR C0043
ENCODING 67
SWIDTH 666 0
DWIDTH 8 0
BBX 8 16 0 -4
BITMAP
00
00
3C
66
C0
C0
C0
C0
C0
C0
C6
7C
00
00
00
00
ENDCHAR

STARTCHAR C0044
ENCODING 68
SWIDTH 666 0
DWIDTH 8 0
BBX 8 16 0 -4
BITMAP
00
00
FC
C6
C6
C6
C6
C6
C6
C6
CC
F8
00
00
00
00
ENDCHAR

STARTCHAR C0045
ENCODING 69
SWIDTH 666 0
DWIDTH 8 0
BBX 8 16 0 -4
BITMAP
00
00
FC
C0
C0
C0
FC
C0
C0
C0
C0
FC
00
00
00
00
ENDCHAR

STARTCHAR C0046
ENCODING 70
SWIDTH 666 0
DWIDTH 8 0
BBX 8 16 0 -4
BITMAP
00
00
FC
C0
C0
C0
FC
C0
C0
C0
C0
C0
00
00
00
00
ENDCHAR

STARTCHAR C0047
ENCODING 71
SWIDTH 666 0
DWIDTH 8 0
BBX 8 16 0 -4
BITMAP
00
00
3C
66
C0
C0
C0
DE
C6
C6
CC
78
00
00
00
00
ENDCHAR

STARTCHAR C0048
ENCODING 72
SWIDTH 666 0
DWIDTH 8 0
BBX 8 16 0 -4
BITMAP
00
00
C6
C6
C6
C6
FE
C6
C6
C6
C6
C6
00
00
00
00
ENDCHAR

STARTCHAR C0049
ENCODING 73
SWIDTH 666 0
DWIDTH 8 0
BBX 8 16 0 -4
BITMAP
00
00
18
18
18
18
18
18
18
18
18
18
00
00
00
00
ENDCHAR

STARTCHAR C004a
ENCODING 74
SWIDTH 666 0
DWIDTH 8 0
BBX 8 16 0 -4
BITMAP
00
00
06
06
06
06
06
06
C6
C6
CC
78
00
00
00
00
ENDCHAR

STARTCHAR C004b
ENCODING 75
SWIDTH 666 0
DWIDTH 8 0
BBX 8 16 0 -4
BITMAP
00
00
C6
CC
D8
F0
E0
E0
F0
D8
CC
C6
00
00
00
00
ENDCHAR

STARTCHAR C004c
ENCODING 76
SWIDTH 666 0
DWIDTH 8 0
BBX 8 16 0 -4
BITMAP
00
00
C0
C0
C0
C0
C0
C0
C0
C0
C0
FE
00
00
00
00
ENDCHAR

STARTCHAR C004d
ENCODING 77
SWIDTH 666 0
DWIDTH 8 0
BBX 8 16 0 -4
BITMAP
00
00
82
C6
EE
FE
D6
D6
C6
C6
C6
C6
00
00
00
00
ENDCHAR

STARTCHAR C004e
ENCODING 78
SWIDTH 666 0
DWIDTH 8 0
BBX 8 16 0 -4
BITMAP
00
00
86
C6
E6
F6
FE
DE
CE
C6
C6
C6
00
00
00
00
ENDCHAR

STARTCHAR C004f
ENCODING 79
SWIDTH 666 0
DWIDTH 8 0
BBX 8 16 0 -4
BITMAP
00
00
3C
66
C6
C6
C6
C6
C6
C6
CC
78
00
00
00
00
ENDCHAR

STARTCHAR C0050
ENCODING 80
SWIDTH 666 0
DWIDTH 8 0
BBX 8 16 0 -4
BITMAP
00
00
FC
C6
C6
C6
CC
F8
C0
C0
C0
C0
00
00
00
00
ENDCHAR

STARTCHAR C0051
ENCODING 81
SWIDTH 666 0
DWIDTH 8 0
BBX 8 16 0 -4
BITMAP
00
00
3C
66
C6
C6
C6
C6
C6
F6
DC
78
0C
06
00
00
ENDCHAR

STARTCHAR C0052
ENCODING 82
SWIDTH 666 0
DWIDTH 8 0
BBX 8 16 0 -4
BITMAP
00
00
FC
C6
C6
C6
CC
F8
CC
CC
C6
C6
00
00
00
00
ENDCHAR

STARTCHAR C0053
ENCODING 83
SWIDTH 666 0
DWIDTH 8 0
BBX 8 16 0 -4
BITMAP
00
00
3C
66
C0
C0
7C
06
06
06
CC
78
00
00
00
00
ENDCHAR

STARTCHAR C0054
ENCODING 84
SWIDTH 666 0
DWIDTH 8 0
BBX 8 16 0 -4
BITMAP
00
00
7E
18
18
18
18
18
18
18
18
18
00
00
00
00
ENDCHAR

STARTCHAR C0055
ENCODING 85
SWIDTH 666 0
DWIDTH 8 0
BBX 8 16 0 -4
BITMAP
00
00
C6
C6
C6
C6
C6
C6
C6
C6
CC
78
00
00
00
00
ENDCHAR

STARTCHAR C0056
ENCODING 86
SWIDTH 666 0
DWIDTH 8 0
BBX 8 16 0 -4
BITMAP
00
00
C6
C6
C6
C6
C6
C6
C6
6C
38
10
00
00
00
00
ENDCHAR

STARTCHAR C0057
ENCODING 87
SWIDTH 666 0
DWIDTH 8 0
BBX 8 16 0 -4
BITMAP
00
00
C6
C6
C6
C6
C6
D6
D6
FE
EE
C6
00
00
00
00
ENDCHAR

STARTCHAR C0058
ENCODING 88
SWIDTH 666 0
DWIDTH 8 0
BBX 8 16 0 -4
BITMAP
00
00
C6
C6
6C
6C
38
38
6C
6C
C6
C6
00
00
00
00
ENDCHAR

STARTCHAR C0059
ENCODING 89
SWIDTH 666 0
DWIDTH 8 0
BBX 8 16 0 -4
BITMAP
00
00
C6
C6
6C
6C
38
18
30
30
60
60
00
00
00
00
ENDCHAR

STARTCHAR C005a
ENCODING 90
SWIDTH 666 0
DWIDTH 8 0
BBX 8 16 0 -4
BITMAP
00
00
FE
06
06
0C
18
30
60
C0
C0
FE
00
00
00
00
ENDCHAR

STARTCHAR C005b
ENCODING 91
SWIDTH 666 0
DWIDTH 8 0
BBX 8 16 0 -4
BITMAP
00
3E
30
30
30
30
30
30
30
30
30
30
3E
00
00
00
ENDCHAR

STARTCHAR C005c
ENCODING 92
SWIDTH 666 0
DWIDTH 8 0
BBX 8 16 0 -4
BITMAP
00
00
C0
40
60
20
30
10
18
08
0C
04
06
00
00
00
ENDCHAR

STARTCHAR C005d
ENCODING 93
SWIDTH 666 0
DWIDTH 8 0
BBX 8 16 0 -4
BITMAP
00
7C
0C
0C
0C
0C
0C
0C
0C
0C
0C
0C
7C
00
00
00
ENDCHAR

STARTCHAR C005e
ENCODING 94
SWIDTH 666 0
DWIDTH 8 0
BBX 8 16 0 -4
BITMAP
00
10
38
6C
C6
00
00
00
00
00
00
00
00
00
00
00
ENDCHAR

STARTCHAR C005f
ENCODING 95
SWIDTH 666 0
DWIDTH 8 0
BBX 8 16 0 -4
BITMAP
00
00
00
00
00
00
00
00
00
00
00
00
00
00
FE
00
ENDCHAR

STARTCHAR C0060
ENCODING 96
SWIDTH 666 0
DWIDTH 8 0
BBX 8 16 0 -4
BITMAP
00
00
38
18
0C
00
00
00
00
00
00
00
00
00
00
00
ENDCHAR

STARTCHAR C0061
ENCODING 97
SWIDTH 666 0
DWIDTH 8 0
BBX 8 16 0 -4
BITMAP
00
00
00
00
00
3C
06
3E
66
C6
C6
7E
00
00
00
00
ENDCHAR

STARTCHAR C0062
ENCODING 98
SWIDTH 666 0
DWIDTH 8 0
BBX 8 16 0 -4
BITMAP
00
00
C0
C0
C0
FC
C6
C6
C6
C6
CC
F8
00
00
00
00
ENDCHAR

STARTCHAR C0063
ENCODING 99
SWIDTH 666 0
DWIDTH 8 0
BBX 8 16 0 -4
BITMAP
00
00
00
00
00
3C
66
C0
C0
C0
C6
7C
00
00
00
00
ENDCHAR

STARTCHAR C0064
ENCODING 100
SWIDTH 666 0
DWIDTH 8 0
BBX 8 16 0 -4
BITMAP
00
00
06
06
06
3E
66
C6
C6
C6
C6
7E
00
00
00
00
ENDCHAR

STARTCHAR C0065
ENCODING 101
SWIDTH 666 0
DWIDTH 8 0
BBX 8 16 0 -4
BITMAP
00
00
00
00
00
3C
66
C6
CC
F8
C0
7C
00
00
00
00
ENDCHAR

STARTCHAR C0066
ENCODING 102
SWIDTH 666 0
DWIDTH 8 0
BBX 8 16 0 -4
BITMAP
00
00
3C
66
66
60
F0
60
60
60
60
60
00
00
00
00
ENDCHAR

STARTCHAR C0067
ENCODING 103
SWIDTH 666 0
DWIDTH 8 0
BBX 8 16 0 -4
BITMAP
00
00
00
00
00
3E
66
C6
C6
C6
7E
06
06
0C
78
00
ENDCHAR

STARTCHAR C0068
ENCODING 104
SWIDTH 666 0
DWIDTH 8 0
BBX 8 16 0 -4
BITMAP
00
00
C0
C0
C0
FC
C6
C6
C6
C6
C6
C6
00
00
00
00
ENDCHAR

STARTCHAR C0069
ENCODING 105
SWIDTH 666 0
DWIDTH 8 0
BBX 8 16 0 -4
BITMAP
00
00
18
18
00
18
18
18
18
18
18
18
00
00
00
00
ENDCHAR

STARTCHAR C006a
ENCODING 106
SWIDTH 666 0
DWIDTH 8 0
BBX 8 16 0 -4
BITMAP
00
00
06
06
00
06
06
06
06
06
06
06
06
CC
78
00
ENDCHAR

STARTCHAR C006b
ENCODING 107
SWIDTH 666 0
DWIDTH 8 0
BBX 8 16 0 -4
BITMAP
00
00
C0
C0
C0
CC
D8
F0
F0
F8
CC
C6
00
00
00
00
ENDCHAR

STARTCHAR C006c
ENCODING 108
SWIDTH 666 0
DWIDTH 8 0
BBX 8 16 0 -4
BITMAP
00
00
38
18
18
18
18
18
18
18
18
18
00
00
00
00
ENDCHAR

STARTCHAR C006d
ENCODING 109
SWIDTH 666 0
DWIDTH 8 0
BBX 8 16 0 -4
BITMAP
00
00
00
00
00
FC
D6
D6
D6
C6
C6
C6
00
00
00
00
ENDCHAR

STARTCHAR C006e
ENCODING 110
SWIDTH 666 0
DWIDTH 8 0
BBX 8 16 0 -4
BITMAP
00
00
00
00
00
FC
C6
C6
C6
C6
C6
C6
00
00
00
00
ENDCHAR

STARTCHAR C006f
ENCODING 111
SWIDTH 666 0
DWIDTH 8 0
BBX 8 16 0 -4
BITMAP
00
00
00
00
00
3C
66
C6
C6
C6
CC
78
00
00
00
00
ENDCHAR

STARTCHAR C0070
ENCODING 112
SWIDTH 666 0
DWIDTH 8 0
BBX 8 16 0 -4
BITMAP
00
00
00
00
00
FC
C6
C6
C6
CC
F8
C0
C0
C0
C0
00
ENDCHAR

STARTCHAR C0071
ENCODING 113
SWIDTH 666 0
DWIDTH 8 0
BBX 8 16 0 -4
BITMAP
00
00
00
00
00
3E
66
C6
C6
C6
7E
06
06
06
06
00
ENDCHAR

STARTCHAR C0072
ENCODING 114
SWIDTH 666 0
DWIDTH 8 0
BBX 8 16 0 -4
BITMAP
00
00
00
00
00
FC
C6
C0
C0
C0
C0
C0
00
00
00
00
ENDCHAR

STARTCHAR C0073
ENCODING 115
SWIDTH 666 0
DWIDTH 8 0
BBX 8 16 0 -4
BITMAP
00
00
00
00
00
3C
66
C0
7C
06
CC
78
00
00
00
00
ENDCHAR

STARTCHAR C0074
ENCODING 116
SWIDTH 666 0
DWIDTH 8 0
BBX 8 16 0 -4
BITMAP
00
00
08
18
18
7E
18
18
18
18
18
0E
00
00
00
00
ENDCHAR

STARTCHAR C0075
ENCODING 117
SWIDTH 666 0
DWIDTH 8 0
BBX 8 16 0 -4
BITMAP
00
00
00
00
00
C6
C6
C6
C6
C6
CC
78
00
00
00
00
ENDCHAR

STARTCHAR C0076
ENCODING 118
SWIDTH 666 0
DWIDTH 8 0
BBX 8 16 0 -4
BITMAP
00
00
00
00
00
C6
C6
C6
C6
6C
38
10
00
00
00
00
ENDCHAR

STARTCHAR C0077
ENCODING 119
SWIDTH 666 0
DWIDTH 8 0
BBX 8 16 0 -4
BITMAP
00
00
00
00
00
C6
C6
C6
D6
D6
FE
C6
00
00
00
00
ENDCHAR

STARTCHAR C0078
ENCODING 120
SWIDTH 666 0
DWIDTH 8 0
BBX 8 16 0 -4
BITMAP
00
00
00
00
00
C6
6C
38
10
38
6C
C6
00
00
00
00
ENDCHAR

STARTCHAR C0079
ENCODING 121
SWIDTH 666 0
DWIDTH 8 0
BBX 8 16 0 -4
BITMAP
00
00
00
00
00
C6
C6
C6
C6
C6
7E
06
06
0C
78
00
ENDCHAR

STARTCHAR C007a
ENCODING 122
SWIDTH 666 0
DWIDTH 8 0
BBX 8 16 0 -4
BITMAP
00
00
00
00
00
FE
0C
18
30
60
C0
FE
00
00
00
00
ENDCHAR

STARTCHAR C007b
ENCODING 123
SWIDTH 666 0
DWIDTH 8 0
BBX 8 16 0 -4
BITMAP
00
00
0E
18
18
18
18
70
18
18
18
18
0E
00
00
00
ENDCHAR

STARTCHAR C007c
ENCODING 124
SWIDTH 666 0
DWIDTH 8 0
BBX 8 16 0 -4
BITMAP
00
00
18
18
18
18
18
00
18
18
18
18
18
00
00
00
ENDCHAR

STARTCHAR C007d
ENCODING 125
SWIDTH 666 0
DWIDTH 8 0
BBX 8 16 0 -4
BITMAP
00
00
70
18
18
18
18
0E
18
18
18
18
70
00
00
00
ENDCHAR

STARTCHAR C007e
ENCODING 126
SWIDTH 666 0
DWIDTH 8 0
BBX 8 16 0 -4
BITMAP
00
00
00
00
00
00
76
DC
00
00
00
00
00
00
00
00
ENDCHAR

STARTCHAR C007f
ENCODING 127
SWIDTH 666 0
DWIDTH 8 0
BBX 8 16 0 -4
BITMAP
00
00
00
00
10
38
6C
C6
C6
FE
00
00
00
00
00
00
ENDCHAR

STARTCHAR C0080
ENCODING 128
SWIDTH 666 0
DWIDTH 8 0
BBX 8 16 0 -4
BITMAP
00
00
3C
66
C0
C0
C0
C0
C0
C6
7C
18
70
00
00
00
ENDCHAR

STARTCHAR C0081
ENCODING 129
SWIDTH 666 0
DWIDTH 8 0
BBX 8 16 0 -4
BITMAP
00
00
6C
6C
00
C6
C6
C6
C6
C6
CC
78
00
00
00
00
ENDCHAR

STARTCHAR C0082
ENCODING 130
SWIDTH 666 0
DWIDTH 8 0
BBX 8 16 0 -4
BITMAP
00
0C
18
10
00
7C
C6
C6
CC
F8
C0
7C
00
00
00
00
ENDCHAR

STARTCHAR C0083
ENCODING 131
SWIDTH 666 0
DWIDTH 8 0
BBX 8 16 0 -4
BITMAP
00
08
1C
26
00
3C
06
3E
66
C6
C6
7E
00
00
00
00
ENDCHAR

STARTCHAR C0084
ENCODING 132
SWIDTH 666 0
DWIDTH 8 0
BBX 8 16 0 -4
BITMAP
00
00
6C
6C
00
3C
06
3E
66
C6
C6
7E
00
00
00
00
ENDCHAR

STARTCHAR C0085
ENCODING 133
SWIDTH 666 0
DWIDTH 8 0
BBX 8 16 0 -4
BITMAP
00
20
10
18
00
3C
06
3E
66
C6
C6
7E
00
00
00
00
ENDCHAR

STARTCHAR C0086
ENCODING 134
SWIDTH 666 0
DWIDTH 8 0
BBX 8 16 0 -4
BITMAP
18
2C
2C
18
00
3C
06
3E
66
C6
C6
7E
00
00
00
00
ENDCHAR

STARTCHAR C0087
ENCODING 135
SWIDTH 666 0
DWIDTH 8 0
BBX 8 16 0 -4
BITMAP
00
00
00
00
00
3C
66
C0
C0
C6
7C
18
70
00
00
00
ENDCHAR

STARTCHAR C0088
ENCODING 136
SWIDTH 666 0
DWIDTH 8 0
BBX 8 16 0 -4
BITMAP
00
10
38
6C
00
7C
C6
C6
CC
F8
C0
7C
00
00
00
00
ENDCHAR

STARTCHAR C0089
ENCODING 137
SWIDTH 666 0
DWIDTH 8 0
BBX 8 16 0 -4
BITMAP
00
00
6C
6C
00
7C
C6
C6
CC
F8
C0
7C
00
00
00
00
ENDCHAR

STARTCHAR C008a
ENCODING 138
SWIDTH 666 0
DWIDTH 8 0
BBX 8 16 0 -4
BITMAP
00
60
20
10
00
7C
C6
C6
CC
F8
C0
7C
00
00
00
00
ENDCHAR

STARTCHAR C008b
ENCODING 139
SWIDTH 666 0
DWIDTH 8 0
BBX 8 16 0 -4
BITMAP
00
00
66
66
00
18
18
18
18
18
18
18
00
00
00
00
ENDCHAR

STARTCHAR C008c
ENCODING 140
SWIDTH 666 0
DWIDTH 8 0
BBX 8 16 0 -4
BITMAP
00
18
3C
66
00
18
18
18
18
18
18
18
00
00
00
00
ENDCHAR

STARTCHAR C008d
ENCODING 141
SWIDTH 666 0
DWIDTH 8 0
BBX 8 16 0 -4
BITMAP
00
60
30
18
00
18
18
18
18
18
18
18
00
00
00
00
ENDCHAR

STARTCHAR C008e
ENCODING 142
SWIDTH 666 0
DWIDTH 8 0
BBX 8 16 0 -4
BITMAP
6C
00
3C
66
C6
C6
C6
C6
FE
C6
C6
C6
00
00
00
00
ENDCHAR

STARTCHAR C008f
ENCODING 143
SWIDTH 666 0
DWIDTH 8 0
BBX 8 16 0 -4
BITMAP
38
6C
6C
38
6C
C6
C6
C6
FE
C6
C6
C6
00
00
00
00
ENDCHAR

STARTCHAR C0090
ENCODING 144
SWIDTH 666 0
DWIDTH 8 0
BBX 8 16 0 -4
BITMAP
18
10
20
FC
C0
C0
FC
C0
C0
C0
C0
FC
00
00
00
00
ENDCHAR

STARTCHAR C0091
ENCODING 145
SWIDTH 666 0
DWIDTH 8 0
BBX 8 16 0 -4
BITMAP
00
00
00
00
00
7E
1B
7B
DF
D8
D8
7E
00
00
00
00
ENDCHAR

STARTCHAR C0092
ENCODING 146
SWIDTH 666 0
DWIDTH 8 0
BBX 8 16 0 -4
BITMAP
00
00
3E
38
38
78
5E
58
F8
D8
D8
DE
00
00
00
00
ENDCHAR

STARTCHAR C0093
ENCODING 147
SWIDTH 666 0
DWIDTH 8 0
BBX 8 16 0 -4
BITMAP
00
10
38
6C
00
3C
66
C6
C6
C6
CC
78
00
00
00
00
ENDCHAR

STARTCHAR C0094
ENCODING 148
SWIDTH 666 0
DWIDTH 8 0
BBX 8 16 0 -4
BITMAP
00
00
6C
6C
00
3C
66
C6
C6
C6
CC
78
00
00
00
00
ENDCHAR

STARTCHAR C0095
ENCODING 149
SWIDTH 666 0
DWIDTH 8 0
BBX 8 16 0 -4
BITMAP
00
60
20
10
00
3C
66
C6
C6
C6
CC
78
00
00
00
00
ENDCHAR

STARTCHAR C0096
ENCODING 150
SWIDTH 666 0
DWIDTH 8 0
BBX 8 16 0 -4
BITMAP
00
10
38
6C
00
C6
C6
C6
C6
C6
CC
78
00
00
00
00
ENDCHAR

STARTCHAR C0097
ENCODING 151
SWIDTH 666 0
DWIDTH 8 0
BBX 8 16 0 -4
BITMAP
00
60
20
10
00
C6
C6
C6
C6
C6
CC
78
00
00
00
00
ENDCHAR

STARTCHAR C0098
ENCODING 152
SWIDTH 666 0
DWIDTH 8 0
BBX 8 16 0 -4
BITMAP
00
00
6C
6C
00
C6
C6
C6
C6
C6
7E
06
06
0C
78
00
ENDCHAR

STARTCHAR C0099
ENCODING 153
SWIDTH 666 0
DWIDTH 8 0
BBX 8 16 0 -4
BITMAP
6C
6C
3C
66
C6
C6
C6
C6
C6
C6
CC
78
00
00
00
00
ENDCHAR

STARTCHAR C009a
ENCODING 154
SWIDTH 666 0
DWIDTH 8 0
BBX 8 16 0 -4
BITMAP
6C
6C
00
C6
C6
C6
C6
C6
C6
C6
CC
78
00
00
00
00
ENDCHAR

STARTCHAR C009b
ENCODING 155
SWIDTH 666 0
DWIDTH 8 0
BBX 8 16 0 -4
BITMAP
00
00
00
10
10
3C
76
D0
D0
D0
D6
7C
10
10
00
00
ENDCHAR

STARTCHAR C009c
ENCODING 156
SWIDTH 666 0
DWIDTH 8 0
BBX 8 16 0 -4
BITMAP
00
00
1E
32
30
30
78
30
30
30
F0
DE
00
00
00
00
ENDCHAR

STARTCHAR C009d
ENCODING 157
SWIDTH 666 0
DWIDTH 8 0
BBX 8 16 0 -4
BITMAP
00
00
00
66
66
3C
18
7E
18
3C
18
18
00
00
00
00
ENDCHAR

STARTCHAR C009e
ENCODING 158
SWIDTH 666 0
DWIDTH 8 0
BBX 8 16 0 -4
BITMAP
00
00
FC
C6
C6
C6
CC
F8
CC
DE
CC
CC
06
00
00
00
ENDCHAR

STARTCHAR C009f
ENCODING 159
SWIDTH 666 0
DWIDTH 8 0
BBX 8 16 0 -4
BITMAP
00
00
1C
36
36
30
7E
30
30
30
30
30
F0
00
00
00
ENDCHAR

STARTCHAR C00a0
ENCODING 160
SWIDTH 666 0
DWIDTH 8 0
BBX 8 16 0 -4
BITMAP
00
0C
18
10
00
3C
06
3E
66
C6
C6
7E
00
00
00
00
ENDCHAR

STARTCHAR C00a1
ENCODING 161
SWIDTH 666 0
DWIDTH 8 0
BBX 8 16 0 -4
BITMAP
00
06
0C
18
00
18
18
18
18
18
18
18
00
00
00
00
ENDCHAR

STARTCHAR C00a2
ENCODING 162
SWIDTH 666 0
DWIDTH 8 0
BBX 8 16 0 -4
BITMAP
00
0C
18
10
00
3C
66
C6
C6
C6
CC
78
00
00
00
00
ENDCHAR

STARTCHAR C00a3
ENCODING 163
SWIDTH 666 0
DWIDTH 8 0
BBX 8 16 0 -4
BITMAP
00
18
10
20
00
C6
C6
C6
C6
C6
CC
78
00
00
00
00
ENDCHAR

STARTCHAR C00a4
ENCODING 164
SWIDTH 666 0
DWIDTH 8 0
BBX 8 16 0 -4
BITMAP
00
00
6C
D8
00
FC
C6
C6
C6
C6
C6
C6
00
00
00
00
ENDCHAR

STARTCHAR C00a5
ENCODING 165
SWIDTH 666 0
DWIDTH 8 0
BBX 8 16 0 -4
BITMAP
6C
D8
00
C6
E6
F6
FE
DE
CE
C6
C6
C6
00
00
00
00
ENDCHAR

STARTCHAR C00a6
ENCODING 166
SWIDTH 666 0
DWIDTH 8 0
BBX 8 16 0 -4
BITMAP
00
00
38
0C
3C
6C
CC
CC
7C
00
FC
00
00
00
00
00
ENDCHAR

STARTCHAR C00a7
ENCODING 167
SWIDTH 666 0
DWIDTH 8 0
BBX 8 16 0 -4
BITMAP
00
00
38
6C
CC
CC
CC
D8
70
00
FC
00
00
00
00
00
ENDCHAR

STARTCHAR C00a8
ENCODING 168
SWIDTH 666 0
DWIDTH 8 0
BBX 8 16 0 -4
BITMAP
00
00
18
18
00
18
18
70
C0
C0
C6
7C
00
00
00
00
ENDCHAR

STARTCHAR C00a9
ENCODING 169
SWIDTH 666 0
DWIDTH 8 0
BBX 8 16 0 -4
BITMAP
00
00
00
00
00
00
FC
C0
C0
C0
00
00
00
00
00
00
ENDCHAR

STARTCHAR C00aa
ENCODING 170
SWIDTH 666 0
DWIDTH 8 0
BBX 8 16 0 -4
BITMAP
00
00
00
00
00
00
FC
0C
0C
0C
00
00
00
00
00
00
ENDCHAR

STARTCHAR C00ab
ENCODING 171
SWIDTH 666 0
DWIDTH 8 0
BBX 8 16 0 -4
BITMAP
00
60
E0
62
66
6C
18
30
60
C0
9C
36
0C
18
3E
00
ENDCHAR

STARTCHAR C00ac
ENCODING 172
SWIDTH 666 0
DWIDTH 8 0
BBX 8 16 0 -4
BITMAP
00
60
E1
63
66
6C
18
30
66
CE
96
3E
06
06
00
00
ENDCHAR

STARTCHAR C00ad
ENCODING 173
SWIDTH 666 0
DWIDTH 8 0
BBX 8 16 0 -4
BITMAP
00
00
18
18
00
18
18
3C
3C
3C
3C
18
00
00
00
00
ENDCHAR

STARTCHAR C00ae
ENCODING 174
SWIDTH 666 0
DWIDTH 8 0
BBX 8 16 0 -4
BITMAP
00
00
00
00
00
36
6C
D8
6C
36
00
00
00
00
00
00
ENDCHAR

STARTCHAR C00af
ENCODING 175
SWIDTH 666 0
DWIDTH 8 0
BBX 8 16 0 -4
BITMAP
00
00
00
00
00
D8
6C
36
6C
D8
00
00
00
00
00
00
ENDCHAR

STARTCHAR C00b0
ENCODING 176
SWIDTH 666 0
DWIDTH 8 0
BBX 8 16 0 -4
BITMAP
11
44
11
44
11
44
11
44
11
44
11
44
11
44
11
44
ENDCHAR

STARTCHAR C00b1
ENCODING 177
SWIDTH 666 0
DWIDTH 8 0
BBX 8 16 0 -4
BITMAP
55
AA
55
AA
55
AA
55
AA
55
AA
55
AA
55
AA
55
AA
ENDCHAR

STARTCHAR C00b2
ENCODING 178
SWIDTH 666 0
DWIDTH 8 0
BBX 8 16 0 -4
BITMAP
DD
77
DD
77
DD
77
DD
77
DD
77
DD
77
DD
77
DD
77
ENDCHAR

STARTCHAR C00b3
ENCODING 179
SWIDTH 666 0
DWIDTH 8 0
BBX 8 16 0 -4
BITMAP
18
18
18
18
18
18
18
18
18
18
18
18
18
18
18
18
ENDCHAR

STARTCHAR C00b4
ENCODING 180
SWIDTH 666 0
DWIDTH 8 0
BBX 8 16 0 -4
BITMAP
18
18
18
18
18
18
18
F8
18
18
18
18
18
18
18
18
ENDCHAR

STARTCHAR C00b5
ENCODING 181
SWIDTH 666 0
DWIDTH 8 0
BBX 8 16 0 -4
BITMAP
18
18
18
18
18
18
F8
18
18
F8
18
18
18
18
18
18
ENDCHAR

STARTCHAR C00b6
ENCODING 182
SWIDTH 666 0
DWIDTH 8 0
BBX 8 16 0 -4
BITMAP
66
66
66
66
66
66
66
E6
66
66
66
66
66
66
66
66
ENDCHAR

STARTCHAR C00b7
ENCODING 183
SWIDTH 666 0
DWIDTH 8 0
BBX 8 16 0 -4
BITMAP
00
00
00
00
00
00
00
FE
66
66
66
66
66
66
66
66
ENDCHAR

STARTCHAR C00b8
ENCODING 184
SWIDTH 666 0
DWIDTH 8 0
BBX 8 16 0 -4
BITMAP
00
00
00
00
00
00
F8
18
18
F8
18
18
18
18
18
18
ENDCHAR

STARTCHAR C00b9
ENCODING 185
SWIDTH 666 0
DWIDTH 8 0
BBX 8 16 0 -4
BITMAP
66
66
66
66
66
66
E6
06
06
E6
66
66
66
66
66
66
ENDCHAR

STARTCHAR C00ba
ENCODING 186
SWIDTH 666 0
DWIDTH 8 0
BBX 8 16 0 -4
BITMAP
66
66
66
66
66
66
66
66
66
66
66
66
66
66
66
66
ENDCHAR

STARTCHAR C00bb
ENCODING 187
SWIDTH 666 0
DWIDTH 8 0
BBX 8 16 0 -4
BITMAP
00
00
00
00
00
00
FE
06
06
E6
66
66
66
66
66
66
ENDCHAR

STARTCHAR C00bc
ENCODING 188
SWIDTH 666 0
DWIDTH 8 0
BBX 8 16 0 -4
BITMAP
66
66
66
66
66
66
E6
06
06
FE
00
00
00
00
00
00
ENDCHAR

STARTCHAR C00bd
ENCODING 189
SWIDTH 666 0
DWIDTH 8 0
BBX 8 16 0 -4
BITMAP
66
66
66
66
66
66
66
FE
00
00
00
00
00
00
00
00
ENDCHAR

STARTCHAR C00be
ENCODING 190
SWIDTH 666 0
DWIDTH 8 0
BBX 8 16 0 -4
BITMAP
18
18
18
18
18
18
F8
18
18
F8
00
00
00
00
00
00
ENDCHAR

STARTCHAR C00bf
ENCODING 191
SWIDTH 666 0
DWIDTH 8 0
BBX 8 16 0 -4
BITMAP
00
00
00
00
00
00
00
F8
18
18
18
18
18
18
18
18
ENDCHAR

STARTCHAR C00c0
ENCODING 192
SWIDTH 666 0
DWIDTH 8 0
BBX 8 16 0 -4
BITMAP
18
18
18
18
18
18
18
1F
00
00
00
00
00
00
00
00
ENDCHAR

STARTCHAR C00c1
ENCODING 193
SWIDTH 666 0
DWIDTH 8 0
BBX 8 16 0 -4
BITMAP
18
18
18
18
18
18
18
FF
00
00
00
00
00
00
00
00
ENDCHAR

STARTCHAR C00c2
ENCODING 194
SWIDTH 666 0
DWIDTH 8 0
BBX 8 16 0 -4
BITMAP
00
00
00
00
00
00
00
FF
18
18
18
18
18
18
18
18
ENDCHAR

STARTCHAR C00c3
ENCODING 195
SWIDTH 666 0
DWIDTH 8 0
BBX 8 16 0 -4
BITMAP
18
18
18
18
18
18
18
1F
18
18
18
18
18
18
18
18
ENDCHAR

STARTCHAR C00c4
ENCODING 196
SWIDTH 666 0
DWIDTH 8 0
BBX 8 16 0 -4
BITMAP
00
00
00
00
00
00
00
FF
00
00
00
00
00
00
00
00
ENDCHAR

STARTCHAR C00c5
ENCODING 197
SWIDTH 666 0
DWIDTH 8 0
BBX 8 16 0 -4
BITMAP
18
18
18
18
18
18
18
FF
18
18
18
18
18
18
18
18
ENDCHAR

STARTCHAR C00c6
ENCODING 198
SWIDTH 666 0
DWIDTH 8 0
BBX 8 16 0 -4
BITMAP
18
18
18
18
18
18
1F
18
18
1F
18
18
18
18
18
18
ENDCHAR

STARTCHAR C00c7
ENCODING 199
SWIDTH 666 0
DWIDTH 8 0
BBX 8 16 0 -4
BITMAP
66
66
66
66
66
66
66
67
66
66
66
66
66
66
66
66
ENDCHAR

STARTCHAR C00c8
ENCODING 200
SWIDTH 666 0
DWIDTH 8 0
BBX 8 16 0 -4
BITMAP
66
66
66
66
66
66
67
60
60
7F
00
00
00
00
00
00
ENDCHAR

STARTCHAR C00c9
ENCODING 201
SWIDTH 666 0
DWIDTH 8 0
BBX 8 16 0 -4
BITMAP
00
00
00
00
00
00
7F
60
60
67
66
66
66
66
66
66
ENDCHAR

STARTCHAR C00ca
ENCODING 202
SWIDTH 666 0
DWIDTH 8 0
BBX 8 16 0 -4
BITMAP
66
66
66
66
66
66
E7
00
00
FF
00
00
00
00
00
00
ENDCHAR

STARTCHAR C00cb
ENCODING 203
SWIDTH 666 0
DWIDTH 8 0
BBX 8 16 0 -4
BITMAP
00
00
00
00
00
00
FF
00
00
E7
66
66
66
66
66
66
ENDCHAR

STARTCHAR C00cc
ENCODING 204
SWIDTH 666 0
DWIDTH 8 0
BBX 8 16 0 -4
BITMAP
66
66
66
66
66
66
67
60
60
67
66
66
66
66
66
66
ENDCHAR

STARTCHAR C00cd
ENCODING 205
SWIDTH 666 0
DWIDTH 8 0
BBX 8 16 0 -4
BITMAP
00
00
00
00
00
00
FF
00
00
FF
00
00
00
00
00
00
ENDCHAR

STARTCHAR C00ce
ENCODING 206
SWIDTH 666 0
DWIDTH 8 0
BBX 8 16 0 -4
BITMAP
66
66
66
66
66
66
E7
00
00
E7
66
66
66
66
66
66
ENDCHAR

STARTCHAR C00cf
ENCODING 207
SWIDTH 666 0
DWIDTH 8 0
BBX 8 16 0 -4
BITMAP
18
18
18
18
18
18
FF
00
00
FF
00
00
00
00
00
00
ENDCHAR

STARTCHAR C00d0
ENCODING 208
SWIDTH 666 0
DWIDTH 8 0
BBX 8 16 0 -4
BITMAP
66
66
66
66
66
66
66
FF
00
00
00
00
00
00
00
00
ENDCHAR

STARTCHAR C00d1
ENCODING 209
SWIDTH 666 0
DWIDTH 8 0
BBX 8 16 0 -4
BITMAP
00
00
00
00
00
00
FF
00
00
FF
18
18
18
18
18
18
ENDCHAR

STARTCHAR C00d2
ENCODING 210
SWIDTH 666 0
DWIDTH 8 0
BBX 8 16 0 -4
BITMAP
00
00
00
00
00
00
00
FF
66
66
66
66
66
66
66
66
ENDCHAR

STARTCHAR C00d3
ENCODING 211
SWIDTH 666 0
DWIDTH 8 0
BBX 8 16 0 -4
BITMAP
66
66
66
66
66
66
66
7F
00
00
00
00
00
00
00
00
ENDCHAR

STARTCHAR C00d4
ENCODING 212
SWIDTH 666 0
DWIDTH 8 0
BBX 8 16 0 -4
BITMAP
18
18
18
18
18
18
1F
18
18
1F
00
00
00
00
00
00
ENDCHAR

STARTCHAR C00d5
ENCODING 213
SWIDTH 666 0
DWIDTH 8 0
BBX 8 16 0 -4
BITMAP
00
00
00
00
00
00
1F
18
18
1F
18
18
18
18
18
18
ENDCHAR

STARTCHAR C00d6
ENCODING 214
SWIDTH 666 0
DWIDTH 8 0
BBX 8 16 0 -4
BITMAP
00
00
00
00
00
00
00
7F
66
66
66
66
66
66
66
66
ENDCHAR

STARTCHAR C00d7
ENCODING 215
SWIDTH 666 0
DWIDTH 8 0
BBX 8 16 0 -4
BITMAP
66
66
66
66
66
66
66
FF
66
66
66
66
66
66
66
66
ENDCHAR

STARTCHAR C00d8
ENCODING 216
SWIDTH 666 0
DWIDTH 8 0
BBX 8 16 0 -4
BITMAP
18
18
18
18
18
18
FF
00
00
FF
18
18
18
18
18
18
ENDCHAR

STARTCHAR C00d9
ENCODING 217
SWIDTH 666 0
DWIDTH 8 0
BBX 8 16 0 -4
BITMAP
18
18
18
18
18
18
18
F8
00
00
00
00
00
00
00
00
ENDCHAR

STARTCHAR C00da
ENCODING 218
SWIDTH 666 0
DWIDTH 8 0
BBX 8 16 0 -4
BITMAP
00
00
00
00
00
00
00
1F
18
18
18
18
18
18
18
18
ENDCHAR

STARTCHAR C00db
ENCODING 219
SWIDTH 666 0
DWIDTH 8 0
BBX 8 16 0 -4
BITMAP
FF
FF
FF
FF
FF
FF
FF
FF
FF
FF
FF
FF
FF
FF
FF
FF
ENDCHAR

STARTCHAR C00dc
ENCODING 220
SWIDTH 666 0
DWIDTH 8 0
BBX 8 16 0 -4
BITMAP
00
00
00
00
00
00
00
00
FF
FF
FF
FF
FF
FF
FF
FF
ENDCHAR

STARTCHAR C00dd
ENCODING 221
SWIDTH 666 0
DWIDTH 8 0
BBX 8 16 0 -4
BITMAP
F0
F0
F0
F0
F0
F0
F0
F0
F0
F0
F0
F0
F0
F0
F0
F0
ENDCHAR

STARTCHAR C00de
ENCODING 222
SWIDTH 666 0
DWIDTH 8 0
BBX 8 16 0 -4
BITMAP
0F
0F
0F
0F
0F
0F
0F
0F
0F
0F
0F
0F
0F
0F
0F
0F
ENDCHAR

STARTCHAR C00df
ENCODING 223
SWIDTH 666 0
DWIDTH 8 0
BBX 8 16 0 -4
BITMAP
FF
FF
FF
FF
FF
FF
FF
FF
00
00
00
00
00
00
00
00
ENDCHAR

STARTCHAR C00e0
ENCODING 224
SWIDTH 666 0
DWIDTH 8 0
BBX 8 16 0 -4
BITMAP
00
00
00
00
00
76
DC
CC
CC
DE
76
00
00
00
00
00
ENDCHAR

STARTCHAR C00e1
ENCODING 225
SWIDTH 666 0
DWIDTH 8 0
BBX 8 16 0 -4
BITMAP
00
00
00
3C
66
C6
CC
C6
C6
C6
CC
D8
C0
C0
00
00
ENDCHAR

STARTCHAR C00e2
ENCODING 226
SWIDTH 666 0
DWIDTH 8 0
BBX 8 16 0 -4
BITMAP
00
00
00
FE
66
62
60
60
60
60
60
F0
00
00
00
00
ENDCHAR

STARTCHAR C00e3
ENCODING 227
SWIDTH 666 0
DWIDTH 8 0
BBX 8 16 0 -4
BITMAP
00
00
00
00
03
FE
6C
6C
6C
6C
6C
6C
00
00
00
00
ENDCHAR

STARTCHAR C00e4
ENCODING 228
SWIDTH 666 0
DWIDTH 8 0
BBX 8 16 0 -4
BITMAP
00
00
FE
C6
62
30
18
18
30
62
C6
FE
00
00
00
00
ENDCHAR

STARTCHAR C00e5
ENCODING 229
SWIDTH 666 0
DWIDTH 8 0
BBX 8 16 0 -4
BITMAP
00
00
00
00
00
3E
6C
CC
CC
CC
D8
70
00
00
00
00
ENDCHAR

STARTCHAR C00e6
ENCODING 230
SWIDTH 666 0
DWIDTH 8 0
BBX 8 16 0 -4
BITMAP
00
00
00
00
00
66
66
66
66
6C
78
60
60
C0
00
00
ENDCHAR

STARTCHAR C00e7
ENCODING 231
SWIDTH 666 0
DWIDTH 8 0
BBX 8 16 0 -4
BITMAP
00
00
00
00
76
DC
18
18
18
18
18
18
00
00
00
00
ENDCHAR

STARTCHAR C00e8
ENCODING 232
SWIDTH 666 0
DWIDTH 8 0
BBX 8 16 0 -4
BITMAP
00
00
18
18
7E
DB
DB
DB
DB
7E
18
18
00
00
00
00
ENDCHAR

STARTCHAR C00e9
ENCODING 233
SWIDTH 666 0
DWIDTH 8 0
BBX 8 16 0 -4
BITMAP
00
00
3C
66
C6
C6
FE
C6
C6
C6
CC
78
00
00
00
00
ENDCHAR

STARTCHAR C00ea
ENCODING 234
SWIDTH 666 0
DWIDTH 8 0
BBX 8 16 0 -4
BITMAP
00
00
3C
66
C6
C6
C6
C6
6C
28
AA
EE
00
00
00
00
ENDCHAR

STARTCHAR C00eb
ENCODING 235
SWIDTH 666 0
DWIDTH 8 0
BBX 8 16 0 -4
BITMAP
00
00
1E
30
18
0C
3E
66
C6
C6
CC
78
00
00
00
00
ENDCHAR

STARTCHAR C00ec
ENCODING 236
SWIDTH 666 0
DWIDTH 8 0
BBX 8 16 0 -4
BITMAP
00
00
00
00
00
7E
DB
DB
7E
00
00
00
00
00
00
00
ENDCHAR

STARTCHAR C00ed
ENCODING 237
SWIDTH 666 0
DWIDTH 8 0
BBX 8 16 0 -4
BITMAP
00
00
00
03
06
7E
CF
DB
F3
7E
60
C0
00
00
00
00
ENDCHAR

STARTCHAR C00ee
ENCODING 238
SWIDTH 666 0
DWIDTH 8 0
BBX 8 16 0 -4
BITMAP
00
00
1E
30
60
60
7E
60
60
60
30
1E
00
00
00
00
ENDCHAR

STARTCHAR C00ef
ENCODING 239
SWIDTH 666 0
DWIDTH 8 0
BBX 8 16 0 -4
BITMAP
00
00
00
3C
66
C6
C6
C6
C6
C6
C6
C6
00
00
00
00
ENDCHAR

STARTCHAR C00f0
ENCODING 240
SWIDTH 666 0
DWIDTH 8 0
BBX 8 16 0 -4
BITMAP
00
00
00
00
FE
00
00
FE
00
00
FE
00
00
00
00
00
ENDCHAR

STARTCHAR C00f1
ENCODING 241
SWIDTH 666 0
DWIDTH 8 0
BBX 8 16 0 -4
BITMAP
00
00
00
00
18
18
7E
18
18
00
7E
00
00
00
00
00
ENDCHAR

STARTCHAR C00f2
ENCODING 242
SWIDTH 666 0
DWIDTH 8 0
BBX 8 16 0 -4
BITMAP
00
00
00
30
18
0C
06
0C
18
30
00
7E
00
00
00
00
ENDCHAR

STARTCHAR C00f3
ENCODING 243
SWIDTH 666 0
DWIDTH 8 0
BBX 8 16 0 -4
BITMAP
00
00
00
0C
18
30
60
30
18
0C
00
7E
00
00
00
00
ENDCHAR

STARTCHAR C00f4
ENCODING 244
SWIDTH 666 0
DWIDTH 8 0
BBX 8 16 0 -4
BITMAP
00
00
00
0E
1B
1B
18
18
18
18
18
18
18
18
18
18
ENDCHAR

STARTCHAR C00f5
ENCODING 245
SWIDTH 666 0
DWIDTH 8 0
BBX 8 16 0 -4
BITMAP
18
18
18
18
18
18
18
18
18
D8
D8
70
00
00
00
00
ENDCHAR

STARTCHAR C00f6
ENCODING 246
SWIDTH 666 0
DWIDTH 8 0
BBX 8 16 0 -4
BITMAP
00
00
00
00
18
18
00
7E
00
18
18
00
00
00
00
00
ENDCHAR

STARTCHAR C00f7
ENCODING 247
SWIDTH 666 0
DWIDTH 8 0
BBX 8 16 0 -4
BITMAP
00
00
00
00
00
76
DC
00
76
DC
00
00
00
00
00
00
ENDCHAR

STARTCHAR C00f8
ENCODING 248
SWIDTH 666 0
DWIDTH 8 0
BBX 8 16 0 -4
BITMAP
00
00
3C
66
66
3C
00
00
00
00
00
00
00
00
00
00
ENDCHAR

STARTCHAR C00f9
ENCODING 249
SWIDTH 666 0
DWIDTH 8 0
BBX 8 16 0 -4
BITMAP
00
00
00
00
00
00
08
1C
08
00
00
00
00
00
00
00
ENDCHAR

STARTCHAR C00fa
ENCODING 250
SWIDTH 666 0
DWIDTH 8 0
BBX 8 16 0 -4
BITMAP
00
00
00
00
00
00
00
18
00
00
00
00
00
00
00
00
ENDCHAR

STARTCHAR C00fb
ENCODING 251
SWIDTH 666 0
DWIDTH 8 0
BBX 8 16 0 -4
BITMAP
00
00
03
02
06
04
0C
08
D8
F0
70
20
00
00
00
00
ENDCHAR

STARTCHAR C00fc
ENCODING 252
SWIDTH 666 0
DWIDTH 8 0
BBX 8 16 0 -4
BITMAP
00
00
FC
C6
C6
C6
C6
C6
00
00
00
00
00
00
00
00
ENDCHAR

STARTCHAR C00fd
ENCODING 253
SWIDTH 666 0
DWIDTH 8 0
BBX 8 16 0 -4
BITMAP
00
00
78
CC
18
30
60
FC
00
00
00
00
00
00
00
00
ENDCHAR

STARTCHAR C00fe
ENCODING 254
SWIDTH 666 0
DWIDTH 8 0
BBX 8 16 0 -4
BITMAP
00
00
00
EE
EE
EE
EE
EE
EE
EE
EE
00
00
00
00
00
ENDCHAR

STARTCHAR C00ff
ENCODING 255
SWIDTH 666 0
DWIDTH 8 0
BBX 8 16 0 -4
BITMAP
00
00
00
00
00
00
00
00
00
00
00
00
00
00
00
00
ENDCHAR

ENDFONT
