STARTFONT 2.1
FONT Kates
SIZE 10 75 75
FONTBOUNDINGBOX 7 14 0 0

STARTPROPERTIES 23
FONTNAME_REGISTRY ""
FOUNDRY "Misc"
FAMILY_NAME "Nexus"
WEIGHT_NAME "Medium"
SLANT "R"
SETWIDTH_NAME "Normal"
ADD_STYLE_NAME ""
PIXEL_SIZE 10
POINT_SIZE 100
RESOLUTION_X 75
RESOLUTION_Y 75
SPACING "C"
AVERAGE_WIDTH 60
CHARSET_REGISTRY "ISO8859"
CHARSET_ENCODING "1"
COPYRIGHT "Copyright ? We don't need no stinking copyright"
WEIGHT 14
X_HEIGHT 14
QUAD_WIDTH 5
_XMBDFED_INFO "Edited with xmbdfed 2.2."
DEFAULT_CHAR 61309
FONT_DESCENT 0
FONT_ASCENT 14
ENDPROPERTIES

CHARS 256

STARTCHAR char0
ENCODING 0
SWIDTH 672 0
DWIDTH 7 0
BBX 7 14 0 0
BITMAP
00
00
00
00
00
00
00
00
00
00
00
00
00
00
ENDCHAR

STARTCHAR char1
ENCODING 1
SWIDTH 672 0
DWIDTH 7 0
BBX 7 14 0 0
BITMAP
FE
FE
FE
82
00
6C
6C
00
00
6C
7C
38
82
FE
ENDCHAR

STARTCHAR char2
ENCODING 2
SWIDTH 672 0
DWIDTH 7 0
BBX 7 14 0 0
BITMAP
00
00
00
7C
FE
92
92
FE
FE
92
82
C6
7C
00
ENDCHAR

STARTCHAR char3
ENCODING 3
SWIDTH 672 0
DWIDTH 7 0
BBX 7 14 0 0
BITMAP
00
00
00
00
00
44
EE
FE
FE
7C
38
10
00
00
ENDCHAR

STARTCHAR char4
ENCODING 4
SWIDTH 672 0
DWIDTH 7 0
BBX 7 14 0 0
BITMAP
00
00
00
00
00
00
10
38
7C
FE
7C
38
10
00
ENDCHAR

STARTCHAR char5
ENCODING 5
SWIDTH 672 0
DWIDTH 7 0
BBX 7 14 0 0
BITMAP
00
00
00
10
38
38
7C
FE
FE
D6
10
10
7C
00
ENDCHAR

STARTCHAR char6
ENCODING 6
SWIDTH 672 0
DWIDTH 7 0
BBX 7 14 0 0
BITMAP
00
00
00
00
00
10
38
54
FE
54
10
38
00
00
ENDCHAR

STARTCHAR char7
ENCODING 7
SWIDTH 672 0
DWIDTH 7 0
BBX 7 14 0 0
BITMAP
00
00
00
00
00
00
00
00
00
00
00
00
00
00
ENDCHAR

STARTCHAR char8
ENCODING 8
SWIDTH 672 0
DWIDTH 7 0
BBX 7 14 0 0
BITMAP
00
00
00
00
00
00
00
00
00
00
00
00
00
00
ENDCHAR

STARTCHAR char9
ENCODING 9
SWIDTH 672 0
DWIDTH 7 0
BBX 7 14 0 0
BITMAP
00
00
00
00
00
00
00
00
00
00
00
00
00
00
ENDCHAR

STARTCHAR char10
ENCODING 10
SWIDTH 672 0
DWIDTH 7 0
BBX 7 14 0 0
BITMAP
00
00
00
00
00
00
00
00
00
00
00
00
00
00
ENDCHAR

STARTCHAR char11
ENCODING 11
SWIDTH 672 0
DWIDTH 7 0
BBX 7 14 0 0
BITMAP
00
00
00
00
00
00
00
00
00
00
00
00
00
00
ENDCHAR

STARTCHAR char12
ENCODING 12
SWIDTH 672 0
DWIDTH 7 0
BBX 7 14 0 0
BITMAP
00
00
00
00
00
00
00
00
00
00
00
00
00
00
ENDCHAR

STARTCHAR char13
ENCODING 13
SWIDTH 672 0
DWIDTH 7 0
BBX 7 14 0 0
BITMAP
00
00
00
00
00
00
00
00
00
00
00
00
00
00
ENDCHAR

STARTCHAR char14
ENCODING 14
SWIDTH 672 0
DWIDTH 7 0
BBX 7 14 0 0
BITMAP
00
00
00
00
00
00
70
70
70
70
00
00
00
00
ENDCHAR

STARTCHAR char15
ENCODING 15
SWIDTH 672 0
DWIDTH 7 0
BBX 7 14 0 0
BITMAP
00
00
00
00
00
00
00
00
00
00
00
00
00
00
ENDCHAR

STARTCHAR char16
ENCODING 16
SWIDTH 672 0
DWIDTH 7 0
BBX 7 14 0 0
BITMAP
00
00
00
00
00
00
00
00
00
00
00
00
00
00
ENDCHAR

STARTCHAR char17
ENCODING 17
SWIDTH 672 0
DWIDTH 7 0
BBX 7 14 0 0
BITMAP
00
00
00
00
00
40
60
70
78
70
60
40
00
00
ENDCHAR

STARTCHAR char18
ENCODING 18
SWIDTH 672 0
DWIDTH 7 0
BBX 7 14 0 0
BITMAP
00
00
00
00
00
04
0C
1C
3C
1C
0C
04
00
00
ENDCHAR

STARTCHAR char19
ENCODING 19
SWIDTH 672 0
DWIDTH 7 0
BBX 7 14 0 0
BITMAP
00
00
00
10
30
50
10
10
10
10
7C
38
00
00
ENDCHAR

STARTCHAR char20
ENCODING 20
SWIDTH 672 0
DWIDTH 7 0
BBX 7 14 0 0
BITMAP
00
00
00
28
28
28
28
28
28
00
28
28
00
00
ENDCHAR

STARTCHAR char21
ENCODING 21
SWIDTH 672 0
DWIDTH 7 0
BBX 7 14 0 0
BITMAP
00
00
00
00
00
FC
84
E4
24
24
24
00
00
00
ENDCHAR

STARTCHAR char22
ENCODING 22
SWIDTH 672 0
DWIDTH 7 0
BBX 7 14 0 0
BITMAP
00
00
00
30
48
30
48
30
48
30
48
70
00
00
ENDCHAR

STARTCHAR char23
ENCODING 23
SWIDTH 672 0
DWIDTH 7 0
BBX 7 14 0 0
BITMAP
00
00
00
00
00
00
00
00
00
00
7C
7C
00
00
ENDCHAR

STARTCHAR char24
ENCODING 24
SWIDTH 672 0
DWIDTH 7 0
BBX 7 14 0 0
BITMAP
00
00
00
00
10
38
10
10
38
10
10
7C
00
00
ENDCHAR

STARTCHAR char25
ENCODING 25
SWIDTH 672 0
DWIDTH 7 0
BBX 7 14 0 0
BITMAP
00
00
00
00
00
00
00
00
00
00
00
00
00
00
ENDCHAR

STARTCHAR char26
ENCODING 26
SWIDTH 672 0
DWIDTH 7 0
BBX 7 14 0 0
BITMAP
00
00
00
00
00
10
10
10
10
38
10
00
00
00
ENDCHAR

STARTCHAR char27
ENCODING 27
SWIDTH 672 0
DWIDTH 7 0
BBX 7 14 0 0
BITMAP
00
00
00
00
00
00
00
00
00
00
00
00
00
00
ENDCHAR

STARTCHAR char28
ENCODING 28
SWIDTH 672 0
DWIDTH 7 0
BBX 7 14 0 0
BITMAP
00
00
00
00
00
00
00
40
40
7C
00
00
00
00
ENDCHAR

STARTCHAR char29
ENCODING 29
SWIDTH 672 0
DWIDTH 7 0
BBX 7 14 0 0
BITMAP
00
00
00
00
00
00
28
28
FE
28
28
00
00
00
ENDCHAR

STARTCHAR char30
ENCODING 30
SWIDTH 672 0
DWIDTH 7 0
BBX 7 14 0 0
BITMAP
00
00
00
00
00
00
00
10
38
7C
FE
00
00
00
ENDCHAR

STARTCHAR char31
ENCODING 31
SWIDTH 672 0
DWIDTH 7 0
BBX 7 14 0 0
BITMAP
00
00
00
00
00
00
FE
7C
38
10
00
00
00
00
ENDCHAR

STARTCHAR char32
ENCODING 32
SWIDTH 672 0
DWIDTH 7 0
BBX 7 14 0 0
BITMAP
00
00
00
00
00
00
00
00
00
00
00
00
00
00
ENDCHAR

STARTCHAR char33
ENCODING 33
SWIDTH 672 0
DWIDTH 7 0
BBX 7 14 0 0
BITMAP
00
00
00
10
10
10
10
10
10
00
10
10
00
00
ENDCHAR

STARTCHAR char34
ENCODING 34
SWIDTH 672 0
DWIDTH 7 0
BBX 7 14 0 0
BITMAP
00
00
00
48
48
48
00
00
00
00
00
00
00
00
ENDCHAR

STARTCHAR char35
ENCODING 35
SWIDTH 672 0
DWIDTH 7 0
BBX 7 14 0 0
BITMAP
00
00
00
28
28
28
FE
28
28
FE
28
28
28
00
ENDCHAR

STARTCHAR char36
ENCODING 36
SWIDTH 672 0
DWIDTH 7 0
BBX 7 14 0 0
BITMAP
00
00
00
10
10
7C
92
90
7C
12
92
7C
10
10
ENDCHAR

STARTCHAR char37
ENCODING 37
SWIDTH 672 0
DWIDTH 7 0
BBX 7 14 0 0
BITMAP
00
00
00
00
64
44
08
10
10
20
44
4C
00
00
ENDCHAR

STARTCHAR char38
ENCODING 38
SWIDTH 672 0
DWIDTH 7 0
BBX 7 14 0 0
BITMAP
00
00
00
00
60
90
90
60
A0
94
8C
78
00
00
ENDCHAR

STARTCHAR char39
ENCODING 39
SWIDTH 672 0
DWIDTH 7 0
BBX 7 14 0 0
BITMAP
00
00
00
20
20
40
00
00
00
00
00
00
00
00
ENDCHAR

STARTCHAR char40
ENCODING 40
SWIDTH 672 0
DWIDTH 7 0
BBX 7 14 0 0
BITMAP
00
00
00
10
20
40
40
40
40
40
40
20
10
00
ENDCHAR

STARTCHAR char41
ENCODING 41
SWIDTH 672 0
DWIDTH 7 0
BBX 7 14 0 0
BITMAP
00
00
00
10
08
04
04
04
04
04
04
08
10
00
ENDCHAR

STARTCHAR char42
ENCODING 42
SWIDTH 672 0
DWIDTH 7 0
BBX 7 14 0 0
BITMAP
00
00
00
00
00
10
54
6C
10
6C
54
10
00
00
ENDCHAR

STARTCHAR char43
ENCODING 43
SWIDTH 672 0
DWIDTH 7 0
BBX 7 14 0 0
BITMAP
00
00
00
00
00
10
10
10
7C
10
10
10
00
00
ENDCHAR

STARTCHAR char44
ENCODING 44
SWIDTH 672 0
DWIDTH 7 0
BBX 7 14 0 0
BITMAP
00
00
00
00
00
00
00
00
00
00
30
20
40
00
ENDCHAR

STARTCHAR char45
ENCODING 45
SWIDTH 672 0
DWIDTH 7 0
BBX 7 14 0 0
BITMAP
00
00
00
00
00
00
00
00
F8
00
00
00
00
00
ENDCHAR

STARTCHAR char46
ENCODING 46
SWIDTH 672 0
DWIDTH 7 0
BBX 7 14 0 0
BITMAP
00
00
00
00
00
00
00
00
00
00
20
20
00
00
ENDCHAR

STARTCHAR char47
ENCODING 47
SWIDTH 672 0
DWIDTH 7 0
BBX 7 14 0 0
BITMAP
00
00
04
04
08
08
10
10
20
20
40
40
00
00
ENDCHAR

STARTCHAR char48
ENCODING 48
SWIDTH 672 0
DWIDTH 7 0
BBX 7 14 0 0
BITMAP
00
00
00
38
44
44
44
00
44
44
44
38
00
00
ENDCHAR

STARTCHAR char49
ENCODING 49
SWIDTH 672 0
DWIDTH 7 0
BBX 7 14 0 0
BITMAP
00
00
00
08
08
08
08
00
08
08
08
08
00
00
ENDCHAR

STARTCHAR char50
ENCODING 50
SWIDTH 672 0
DWIDTH 7 0
BBX 7 14 0 0
BITMAP
00
00
00
38
04
04
04
38
40
40
40
38
00
00
ENDCHAR

STARTCHAR char51
ENCODING 51
SWIDTH 672 0
DWIDTH 7 0
BBX 7 14 0 0
BITMAP
00
00
00
70
08
08
08
70
08
08
08
70
00
00
ENDCHAR

STARTCHAR char52
ENCODING 52
SWIDTH 672 0
DWIDTH 7 0
BBX 7 14 0 0
BITMAP
00
00
00
44
44
44
44
38
04
04
04
04
00
00
ENDCHAR

STARTCHAR char53
ENCODING 53
SWIDTH 672 0
DWIDTH 7 0
BBX 7 14 0 0
BITMAP
00
00
00
38
40
40
40
38
04
04
04
38
00
00
ENDCHAR

STARTCHAR char54
ENCODING 54
SWIDTH 672 0
DWIDTH 7 0
BBX 7 14 0 0
BITMAP
00
00
00
38
40
40
40
38
44
44
44
38
00
00
ENDCHAR

STARTCHAR char55
ENCODING 55
SWIDTH 672 0
DWIDTH 7 0
BBX 7 14 0 0
BITMAP
00
00
00
38
04
04
04
00
04
04
04
04
00
00
ENDCHAR

STARTCHAR char56
ENCODING 56
SWIDTH 672 0
DWIDTH 7 0
BBX 7 14 0 0
BITMAP
00
00
00
38
44
44
44
38
44
44
44
38
00
00
ENDCHAR

STARTCHAR char57
ENCODING 57
SWIDTH 672 0
DWIDTH 7 0
BBX 7 14 0 0
BITMAP
00
00
00
38
44
44
44
38
04
04
04
04
00
00
ENDCHAR

STARTCHAR char58
ENCODING 58
SWIDTH 672 0
DWIDTH 7 0
BBX 7 14 0 0
BITMAP
00
00
00
00
00
00
10
10
00
00
10
10
00
00
ENDCHAR

STARTCHAR char59
ENCODING 59
SWIDTH 672 0
DWIDTH 7 0
BBX 7 14 0 0
BITMAP
00
00
00
00
00
00
10
10
00
00
10
10
20
00
ENDCHAR

STARTCHAR char60
ENCODING 60
SWIDTH 672 0
DWIDTH 7 0
BBX 7 14 0 0
BITMAP
00
00
00
00
04
08
10
20
40
20
10
08
04
00
ENDCHAR

STARTCHAR char61
ENCODING 61
SWIDTH 672 0
DWIDTH 7 0
BBX 7 14 0 0
BITMAP
00
00
00
00
00
00
00
7C
00
7C
00
00
00
00
ENDCHAR

STARTCHAR char62
ENCODING 62
SWIDTH 672 0
DWIDTH 7 0
BBX 7 14 0 0
BITMAP
00
00
00
00
40
20
10
08
04
08
10
20
40
00
ENDCHAR

STARTCHAR char63
ENCODING 63
SWIDTH 672 0
DWIDTH 7 0
BBX 7 14 0 0
BITMAP
00
00
00
00
78
04
04
04
38
20
00
20
00
00
ENDCHAR

STARTCHAR char64
ENCODING 64
SWIDTH 672 0
DWIDTH 7 0
BBX 7 14 0 0
BITMAP
00
00
00
00
38
44
4C
54
54
58
40
3C
00
00
ENDCHAR

STARTCHAR char65
ENCODING 65
SWIDTH 672 0
DWIDTH 7 0
BBX 7 14 0 0
BITMAP
00
00
C0
20
10
08
84
84
84
FC
84
84
00
00
ENDCHAR

STARTCHAR char66
ENCODING 66
SWIDTH 672 0
DWIDTH 7 0
BBX 7 14 0 0
BITMAP
00
00
F0
08
08
F8
84
84
84
84
84
F8
00
00
ENDCHAR

STARTCHAR char67
ENCODING 67
SWIDTH 672 0
DWIDTH 7 0
BBX 7 14 0 0
BITMAP
00
00
3C
40
80
80
80
80
80
80
80
7C
00
00
ENDCHAR

STARTCHAR char68
ENCODING 68
SWIDTH 672 0
DWIDTH 7 0
BBX 7 14 0 0
BITMAP
00
00
C0
20
10
88
84
84
84
84
88
F0
00
00
ENDCHAR

STARTCHAR char69
ENCODING 69
SWIDTH 672 0
DWIDTH 7 0
BBX 7 14 0 0
BITMAP
00
00
FC
00
00
80
80
F0
80
80
80
FC
00
00
ENDCHAR

STARTCHAR char70
ENCODING 70
SWIDTH 672 0
DWIDTH 7 0
BBX 7 14 0 0
BITMAP
00
00
FC
00
00
80
80
F0
80
80
80
80
00
00
ENDCHAR

STARTCHAR char71
ENCODING 71
SWIDTH 672 0
DWIDTH 7 0
BBX 7 14 0 0
BITMAP
00
00
78
84
80
80
80
80
9C
84
84
78
00
00
ENDCHAR

STARTCHAR char72
ENCODING 72
SWIDTH 672 0
DWIDTH 7 0
BBX 7 14 0 0
BITMAP
00
00
84
84
84
04
04
FC
84
84
84
84
00
00
ENDCHAR

STARTCHAR char73
ENCODING 73
SWIDTH 672 0
DWIDTH 7 0
BBX 7 14 0 0
BITMAP
00
00
F8
00
00
20
20
20
20
20
20
F8
00
00
ENDCHAR

STARTCHAR char74
ENCODING 74
SWIDTH 672 0
DWIDTH 7 0
BBX 7 14 0 0
BITMAP
00
00
F8
00
00
08
08
08
08
10
20
C0
00
00
ENDCHAR

STARTCHAR char75
ENCODING 75
SWIDTH 672 0
DWIDTH 7 0
BBX 7 14 0 0
BITMAP
00
00
80
88
90
A0
40
A0
90
88
84
84
00
00
ENDCHAR

STARTCHAR char76
ENCODING 76
SWIDTH 672 0
DWIDTH 7 0
BBX 7 14 0 0
BITMAP
00
00
80
80
80
80
80
80
80
80
80
FC
00
00
ENDCHAR

STARTCHAR char77
ENCODING 77
SWIDTH 672 0
DWIDTH 7 0
BBX 7 14 0 0
BITMAP
00
00
84
CC
7C
34
B4
94
84
84
84
84
00
00
ENDCHAR

STARTCHAR char78
ENCODING 78
SWIDTH 672 0
DWIDTH 7 0
BBX 7 14 0 0
BITMAP
00
00
84
C4
44
24
A4
94
94
8C
8C
84
00
00
ENDCHAR

STARTCHAR char79
ENCODING 79
SWIDTH 672 0
DWIDTH 7 0
BBX 7 14 0 0
BITMAP
00
00
78
04
04
84
84
84
84
84
84
78
00
00
ENDCHAR

STARTCHAR char80
ENCODING 80
SWIDTH 672 0
DWIDTH 7 0
BBX 7 14 0 0
BITMAP
00
00
F8
04
04
04
F8
80
80
80
80
80
00
00
ENDCHAR

STARTCHAR char81
ENCODING 81
SWIDTH 672 0
DWIDTH 7 0
BBX 7 14 0 0
BITMAP
00
00
78
04
04
84
84
84
84
A4
94
78
04
00
ENDCHAR

STARTCHAR char82
ENCODING 82
SWIDTH 672 0
DWIDTH 7 0
BBX 7 14 0 0
BITMAP
00
00
F0
08
08
08
F8
84
84
84
84
84
00
00
ENDCHAR

STARTCHAR char83
ENCODING 83
SWIDTH 672 0
DWIDTH 7 0
BBX 7 14 0 0
BITMAP
00
00
78
84
84
80
70
08
04
84
84
78
00
00
ENDCHAR

STARTCHAR char84
ENCODING 84
SWIDTH 672 0
DWIDTH 7 0
BBX 7 14 0 0
BITMAP
00
00
FC
00
00
10
10
10
10
10
10
10
00
00
ENDCHAR

STARTCHAR char85
ENCODING 85
SWIDTH 672 0
DWIDTH 7 0
BBX 7 14 0 0
BITMAP
00
00
84
84
04
04
84
84
84
84
84
78
00
00
ENDCHAR

STARTCHAR char86
ENCODING 86
SWIDTH 672 0
DWIDTH 7 0
BBX 7 14 0 0
BITMAP
00
00
84
84
04
04
84
88
90
A0
C0
80
00
00
ENDCHAR

STARTCHAR char87
ENCODING 87
SWIDTH 672 0
DWIDTH 7 0
BBX 7 14 0 0
BITMAP
00
00
84
84
04
04
84
84
A4
C4
9C
84
00
00
ENDCHAR

STARTCHAR char88
ENCODING 88
SWIDTH 672 0
DWIDTH 7 0
BBX 7 14 0 0
BITMAP
00
00
84
84
84
48
30
30
48
84
84
84
00
00
ENDCHAR

STARTCHAR char89
ENCODING 89
SWIDTH 672 0
DWIDTH 7 0
BBX 7 14 0 0
BITMAP
00
00
84
84
84
44
28
18
08
08
08
08
00
00
ENDCHAR

STARTCHAR char90
ENCODING 90
SWIDTH 672 0
DWIDTH 7 0
BBX 7 14 0 0
BITMAP
00
00
FC
00
00
04
08
10
20
40
80
FC
00
00
ENDCHAR

STARTCHAR char91
ENCODING 91
SWIDTH 672 0
DWIDTH 7 0
BBX 7 14 0 0
BITMAP
00
00
00
78
40
40
40
40
40
40
40
78
00
00
ENDCHAR

STARTCHAR char92
ENCODING 92
SWIDTH 672 0
DWIDTH 7 0
BBX 7 14 0 0
BITMAP
00
00
40
40
20
20
10
10
08
08
04
04
00
00
ENDCHAR

STARTCHAR char93
ENCODING 93
SWIDTH 672 0
DWIDTH 7 0
BBX 7 14 0 0
BITMAP
00
00
00
3C
04
04
04
04
04
04
04
3C
00
00
ENDCHAR

STARTCHAR char94
ENCODING 94
SWIDTH 672 0
DWIDTH 7 0
BBX 7 14 0 0
BITMAP
00
00
00
00
10
28
44
00
00
00
00
00
00
00
ENDCHAR

STARTCHAR char95
ENCODING 95
SWIDTH 672 0
DWIDTH 7 0
BBX 7 14 0 0
BITMAP
00
00
00
00
00
00
00
00
00
00
00
FC
00
00
ENDCHAR

STARTCHAR char96
ENCODING 96
SWIDTH 672 0
DWIDTH 7 0
BBX 7 14 0 0
BITMAP
00
00
00
00
40
40
20
00
00
00
00
00
00
00
ENDCHAR

STARTCHAR char97
ENCODING 97
SWIDTH 672 0
DWIDTH 7 0
BBX 7 14 0 0
BITMAP
00
00
00
00
00
00
38
04
84
84
88
74
00
00
ENDCHAR

STARTCHAR char98
ENCODING 98
SWIDTH 672 0
DWIDTH 7 0
BBX 7 14 0 0
BITMAP
00
00
80
80
80
80
78
04
84
84
84
78
00
00
ENDCHAR

STARTCHAR char99
ENCODING 99
SWIDTH 672 0
DWIDTH 7 0
BBX 7 14 0 0
BITMAP
00
00
00
00
00
00
78
80
80
80
80
78
00
00
ENDCHAR

STARTCHAR char100
ENCODING 100
SWIDTH 672 0
DWIDTH 7 0
BBX 7 14 0 0
BITMAP
00
00
04
04
04
04
78
80
84
84
84
7C
00
00
ENDCHAR

STARTCHAR char101
ENCODING 101
SWIDTH 672 0
DWIDTH 7 0
BBX 7 14 0 0
BITMAP
00
00
00
00
00
00
78
84
D4
A8
80
7C
00
00
ENDCHAR

STARTCHAR char102
ENCODING 102
SWIDTH 672 0
DWIDTH 7 0
BBX 7 14 0 0
BITMAP
00
00
1C
20
20
20
F8
20
20
20
20
20
00
00
ENDCHAR

STARTCHAR char103
ENCODING 103
SWIDTH 672 0
DWIDTH 7 0
BBX 7 14 0 0
BITMAP
00
00
00
00
00
00
78
84
84
84
7C
04
04
F8
ENDCHAR

STARTCHAR char104
ENCODING 104
SWIDTH 672 0
DWIDTH 7 0
BBX 7 14 0 0
BITMAP
00
00
80
80
80
00
78
84
84
84
84
84
00
00
ENDCHAR

STARTCHAR char105
ENCODING 105
SWIDTH 672 0
DWIDTH 7 0
BBX 7 14 0 0
BITMAP
00
00
10
10
00
00
30
10
10
10
10
10
00
00
ENDCHAR

STARTCHAR char106
ENCODING 106
SWIDTH 672 0
DWIDTH 7 0
BBX 7 14 0 0
BITMAP
00
00
08
08
00
00
18
08
08
08
08
08
18
F0
ENDCHAR

STARTCHAR char107
ENCODING 107
SWIDTH 672 0
DWIDTH 7 0
BBX 7 14 0 0
BITMAP
00
00
00
80
80
90
20
40
A0
90
88
8C
00
00
ENDCHAR

STARTCHAR char108
ENCODING 108
SWIDTH 672 0
DWIDTH 7 0
BBX 7 14 0 0
BITMAP
00
00
00
60
20
20
20
00
20
20
20
78
00
00
ENDCHAR

STARTCHAR char109
ENCODING 109
SWIDTH 672 0
DWIDTH 7 0
BBX 7 14 0 0
BITMAP
00
00
00
00
00
00
F0
28
94
A4
94
A4
00
00
ENDCHAR

STARTCHAR char110
ENCODING 110
SWIDTH 672 0
DWIDTH 7 0
BBX 7 14 0 0
BITMAP
00
00
00
00
00
00
78
04
84
84
84
84
00
00
ENDCHAR

STARTCHAR char111
ENCODING 111
SWIDTH 672 0
DWIDTH 7 0
BBX 7 14 0 0
BITMAP
00
00
00
00
00
00
78
04
84
84
84
78
00
00
ENDCHAR

STARTCHAR char112
ENCODING 112
SWIDTH 672 0
DWIDTH 7 0
BBX 7 14 0 0
BITMAP
00
00
00
00
00
00
F8
04
04
04
F8
80
80
80
ENDCHAR

STARTCHAR char113
ENCODING 113
SWIDTH 672 0
DWIDTH 7 0
BBX 7 14 0 0
BITMAP
00
00
00
00
00
00
7C
80
80
80
7C
04
04
04
ENDCHAR

STARTCHAR char114
ENCODING 114
SWIDTH 672 0
DWIDTH 7 0
BBX 7 14 0 0
BITMAP
00
00
00
00
00
00
3C
40
80
80
80
80
00
00
ENDCHAR

STARTCHAR char115
ENCODING 115
SWIDTH 672 0
DWIDTH 7 0
BBX 7 14 0 0
BITMAP
00
00
00
00
00
00
7C
80
78
04
04
F8
00
00
ENDCHAR

STARTCHAR char116
ENCODING 116
SWIDTH 672 0
DWIDTH 7 0
BBX 7 14 0 0
BITMAP
00
00
00
20
20
00
FC
20
20
20
24
18
00
00
ENDCHAR

STARTCHAR char117
ENCODING 117
SWIDTH 672 0
DWIDTH 7 0
BBX 7 14 0 0
BITMAP
00
00
00
00
00
00
84
84
84
84
84
78
00
00
ENDCHAR

STARTCHAR char118
ENCODING 118
SWIDTH 672 0
DWIDTH 7 0
BBX 7 14 0 0
BITMAP
00
00
00
00
00
00
84
88
90
A0
C0
80
00
00
ENDCHAR

STARTCHAR char119
ENCODING 119
SWIDTH 672 0
DWIDTH 7 0
BBX 7 14 0 0
BITMAP
00
00
00
00
00
00
84
84
94
B4
DC
94
00
00
ENDCHAR

STARTCHAR char120
ENCODING 120
SWIDTH 672 0
DWIDTH 7 0
BBX 7 14 0 0
BITMAP
00
00
00
00
00
00
84
84
28
D4
84
84
00
00
ENDCHAR

STARTCHAR char121
ENCODING 121
SWIDTH 672 0
DWIDTH 7 0
BBX 7 14 0 0
BITMAP
00
00
00
00
00
00
84
84
84
84
84
78
08
F0
ENDCHAR

STARTCHAR char122
ENCODING 122
SWIDTH 672 0
DWIDTH 7 0
BBX 7 14 0 0
BITMAP
00
00
00
00
00
00
FC
04
2C
50
80
FC
00
00
ENDCHAR

STARTCHAR char123
ENCODING 123
SWIDTH 672 0
DWIDTH 7 0
BBX 7 14 0 0
BITMAP
00
00
00
1C
20
20
20
40
40
20
20
20
1C
00
ENDCHAR

STARTCHAR char124
ENCODING 124
SWIDTH 672 0
DWIDTH 7 0
BBX 7 14 0 0
BITMAP
00
00
00
10
10
10
10
00
00
10
10
10
10
00
ENDCHAR

STARTCHAR char125
ENCODING 125
SWIDTH 672 0
DWIDTH 7 0
BBX 7 14 0 0
BITMAP
00
00
00
70
08
08
08
04
04
08
08
08
70
00
ENDCHAR

STARTCHAR char126
ENCODING 126
SWIDTH 672 0
DWIDTH 7 0
BBX 7 14 0 0
BITMAP
00
00
00
00
00
98
64
00
00
00
00
00
00
00
ENDCHAR

STARTCHAR char127
ENCODING 127
SWIDTH 672 0
DWIDTH 7 0
BBX 7 14 0 0
BITMAP
00
00
00
00
30
30
78
78
84
84
84
84
FC
00
ENDCHAR

STARTCHAR char128
ENCODING 128
SWIDTH 672 0
DWIDTH 7 0
BBX 7 14 0 0
BITMAP
00
00
3C
42
80
80
8C
92
90
90
90
90
F0
00
ENDCHAR

STARTCHAR char129
ENCODING 129
SWIDTH 672 0
DWIDTH 7 0
BBX 7 14 0 0
BITMAP
00
00
00
00
82
42
22
12
8A
46
20
10
0E
00
ENDCHAR

STARTCHAR char130
ENCODING 130
SWIDTH 672 0
DWIDTH 7 0
BBX 7 14 0 0
BITMAP
00
00
00
00
C0
40
40
40
40
40
40
80
00
00
ENDCHAR

STARTCHAR char131
ENCODING 131
SWIDTH 672 0
DWIDTH 7 0
BBX 7 14 0 0
BITMAP
00
00
00
00
3E
40
BE
80
80
BE
BE
40
3E
00
ENDCHAR

STARTCHAR char132
ENCODING 132
SWIDTH 672 0
DWIDTH 7 0
BBX 7 14 0 0
BITMAP
00
00
00
00
FE
00
FE
20
20
FE
FE
00
FE
00
ENDCHAR

STARTCHAR char133
ENCODING 133
SWIDTH 672 0
DWIDTH 7 0
BBX 7 14 0 0
BITMAP
00
00
00
00
C0
40
C0
00
00
00
C0
40
C0
00
ENDCHAR

STARTCHAR char134
ENCODING 134
SWIDTH 672 0
DWIDTH 7 0
BBX 7 14 0 0
BITMAP
00
00
00
00
E0
38
46
38
56
38
46
38
E0
00
ENDCHAR

STARTCHAR char135
ENCODING 135
SWIDTH 672 0
DWIDTH 7 0
BBX 7 14 0 0
BITMAP
00
00
00
00
00
00
FE
00
00
00
FE
00
00
00
ENDCHAR

STARTCHAR char136
ENCODING 136
SWIDTH 672 0
DWIDTH 7 0
BBX 7 14 0 0
BITMAP
00
00
00
00
0E
38
C4
38
D4
38
C4
38
0E
00
ENDCHAR

STARTCHAR char137
ENCODING 137
SWIDTH 672 0
DWIDTH 7 0
BBX 7 14 0 0
BITMAP
00
00
00
00
00
80
80
00
00
00
00
80
80
00
ENDCHAR

STARTCHAR char138
ENCODING 138
SWIDTH 672 0
DWIDTH 7 0
BBX 7 14 0 0
BITMAP
00
00
00
00
E0
A0
A0
A0
A0
A0
BE
40
3E
00
ENDCHAR

STARTCHAR char139
ENCODING 139
SWIDTH 672 0
DWIDTH 7 0
BBX 7 14 0 0
BITMAP
00
00
00
00
00
0A
0A
0A
0A
0A
FA
02
FE
00
ENDCHAR

STARTCHAR char140
ENCODING 140
SWIDTH 672 0
DWIDTH 7 0
BBX 7 14 0 0
BITMAP
00
00
00
00
00
C0
40
40
40
40
40
80
00
00
ENDCHAR

STARTCHAR char141
ENCODING 141
SWIDTH 672 0
DWIDTH 7 0
BBX 7 14 0 0
BITMAP
00
00
00
00
7E
80
9E
80
7E
FE
80
80
FE
00
ENDCHAR

STARTCHAR char142
ENCODING 142
SWIDTH 672 0
DWIDTH 7 0
BBX 7 14 0 0
BITMAP
00
00
00
00
FE
00
FE
00
FE
FE
00
00
FE
00
ENDCHAR

STARTCHAR char143
ENCODING 143
SWIDTH 672 0
DWIDTH 7 0
BBX 7 14 0 0
BITMAP
00
00
00
00
C0
20
20
20
C0
E0
20
20
E0
00
ENDCHAR

STARTCHAR char144
ENCODING 144
SWIDTH 672 0
DWIDTH 7 0
BBX 7 14 0 0
BITMAP
10
38
6C
6C
C6
FE
BA
82
82
82
82
C6
7C
92
ENDCHAR

STARTCHAR char145
ENCODING 145
SWIDTH 672 0
DWIDTH 7 0
BBX 7 14 0 0
BITMAP
00
00
00
EC
0C
EC
C8
88
60
B0
80
A0
C0
00
ENDCHAR

STARTCHAR char146
ENCODING 146
SWIDTH 672 0
DWIDTH 7 0
BBX 7 14 0 0
BITMAP
00
00
02
0E
04
50
54
5E
58
02
04
0E
02
00
ENDCHAR

STARTCHAR char147
ENCODING 147
SWIDTH 672 0
DWIDTH 7 0
BBX 7 14 0 0
BITMAP
00
02
86
EE
FC
38
38
7C
6E
C6
C0
80
00
00
ENDCHAR

STARTCHAR char148
ENCODING 148
SWIDTH 672 0
DWIDTH 7 0
BBX 7 14 0 0
BITMAP
FE
82
82
82
82
82
82
82
82
82
82
82
82
FE
ENDCHAR

STARTCHAR char149
ENCODING 149
SWIDTH 672 0
DWIDTH 7 0
BBX 7 14 0 0
BITMAP
FE
82
82
82
82
82
82
82
82
82
82
82
82
FE
ENDCHAR

STARTCHAR char150
ENCODING 150
SWIDTH 672 0
DWIDTH 7 0
BBX 7 14 0 0
BITMAP
FE
82
82
82
82
82
82
82
82
82
82
82
82
FE
ENDCHAR

STARTCHAR char151
ENCODING 151
SWIDTH 672 0
DWIDTH 7 0
BBX 7 14 0 0
BITMAP
FE
82
82
82
82
82
82
82
82
82
82
82
82
FE
ENDCHAR

STARTCHAR char152
ENCODING 152
SWIDTH 672 0
DWIDTH 7 0
BBX 7 14 0 0
BITMAP
FE
82
82
82
82
82
82
82
82
82
82
82
82
FE
ENDCHAR

STARTCHAR char153
ENCODING 153
SWIDTH 672 0
DWIDTH 7 0
BBX 7 14 0 0
BITMAP
FE
82
82
82
82
82
82
82
82
82
82
82
82
FE
ENDCHAR

STARTCHAR char154
ENCODING 154
SWIDTH 672 0
DWIDTH 7 0
BBX 7 14 0 0
BITMAP
FE
82
82
82
82
82
82
82
82
82
82
82
82
FE
ENDCHAR

STARTCHAR char155
ENCODING 155
SWIDTH 672 0
DWIDTH 7 0
BBX 7 14 0 0
BITMAP
00
00
00
00
00
10
7C
90
90
90
90
7C
10
00
ENDCHAR

STARTCHAR char156
ENCODING 156
SWIDTH 672 0
DWIDTH 7 0
BBX 7 14 0 0
BITMAP
00
00
00
38
44
44
40
40
40
F8
40
40
BC
00
ENDCHAR

STARTCHAR char157
ENCODING 157
SWIDTH 672 0
DWIDTH 7 0
BBX 7 14 0 0
BITMAP
00
00
44
44
44
44
38
10
7C
10
7C
10
38
10
ENDCHAR

STARTCHAR char158
ENCODING 158
SWIDTH 672 0
DWIDTH 7 0
BBX 7 14 0 0
BITMAP
FE
82
82
82
82
82
82
82
82
82
82
82
82
FE
ENDCHAR

STARTCHAR char159
ENCODING 159
SWIDTH 672 0
DWIDTH 7 0
BBX 7 14 0 0
BITMAP
00
0C
12
10
10
10
7C
10
10
10
10
90
60
00
ENDCHAR

STARTCHAR char160
ENCODING 160
SWIDTH 672 0
DWIDTH 7 0
BBX 7 14 0 0
BITMAP
FE
82
82
82
82
82
82
82
82
82
82
82
82
FE
ENDCHAR

STARTCHAR char161
ENCODING 161
SWIDTH 672 0
DWIDTH 7 0
BBX 7 14 0 0
BITMAP
FE
82
82
82
82
82
82
82
82
82
82
82
82
FE
ENDCHAR

STARTCHAR char162
ENCODING 162
SWIDTH 672 0
DWIDTH 7 0
BBX 7 14 0 0
BITMAP
FE
82
82
82
82
82
82
82
82
82
82
82
82
FE
ENDCHAR

STARTCHAR char163
ENCODING 163
SWIDTH 672 0
DWIDTH 7 0
BBX 7 14 0 0
BITMAP
FE
82
82
82
82
82
82
82
82
82
82
82
82
FE
ENDCHAR

STARTCHAR char164
ENCODING 164
SWIDTH 672 0
DWIDTH 7 0
BBX 7 14 0 0
BITMAP
FE
82
82
82
82
82
82
82
82
82
82
82
82
FE
ENDCHAR

STARTCHAR char165
ENCODING 165
SWIDTH 672 0
DWIDTH 7 0
BBX 7 14 0 0
BITMAP
FE
82
82
82
82
82
82
82
82
82
82
82
82
FE
ENDCHAR

STARTCHAR char166
ENCODING 166
SWIDTH 672 0
DWIDTH 7 0
BBX 7 14 0 0
BITMAP
00
00
00
00
00
78
88
88
88
78
00
F8
00
00
ENDCHAR

STARTCHAR char167
ENCODING 167
SWIDTH 672 0
DWIDTH 7 0
BBX 7 14 0 0
BITMAP
00
00
00
00
00
38
44
44
44
38
00
7C
00
00
ENDCHAR

STARTCHAR char168
ENCODING 168
SWIDTH 672 0
DWIDTH 7 0
BBX 7 14 0 0
BITMAP
00
00
00
10
00
10
10
20
40
40
40
38
00
00
ENDCHAR

STARTCHAR char169
ENCODING 169
SWIDTH 672 0
DWIDTH 7 0
BBX 7 14 0 0
BITMAP
00
00
00
00
00
00
00
00
7C
40
40
40
00
00
ENDCHAR

STARTCHAR char170
ENCODING 170
SWIDTH 672 0
DWIDTH 7 0
BBX 7 14 0 0
BITMAP
00
00
00
00
00
00
00
00
7C
04
04
04
00
00
ENDCHAR

STARTCHAR char171
ENCODING 171
SWIDTH 672 0
DWIDTH 7 0
BBX 7 14 0 0
BITMAP
00
10
10
10
10
00
7C
00
38
08
38
20
38
00
ENDCHAR

STARTCHAR char172
ENCODING 172
SWIDTH 672 0
DWIDTH 7 0
BBX 7 14 0 0
BITMAP
00
10
10
10
10
00
7C
00
28
28
38
08
08
00
ENDCHAR

STARTCHAR char173
ENCODING 173
SWIDTH 672 0
DWIDTH 7 0
BBX 7 14 0 0
BITMAP
00
00
00
20
20
00
20
20
20
20
20
20
00
00
ENDCHAR

STARTCHAR char174
ENCODING 174
SWIDTH 672 0
DWIDTH 7 0
BBX 7 14 0 0
BITMAP
00
00
00
00
00
00
00
36
48
48
36
00
00
00
ENDCHAR

STARTCHAR char175
ENCODING 175
SWIDTH 672 0
DWIDTH 7 0
BBX 7 14 0 0
BITMAP
00
00
00
00
00
00
00
D8
24
24
D8
00
00
00
ENDCHAR

STARTCHAR char176
ENCODING 176
SWIDTH 672 0
DWIDTH 7 0
BBX 7 14 0 0
BITMAP
22
88
22
88
22
88
22
88
22
88
22
88
22
88
ENDCHAR

STARTCHAR char177
ENCODING 177
SWIDTH 672 0
DWIDTH 7 0
BBX 7 14 0 0
BITMAP
54
AA
54
AA
54
AA
54
AA
54
AA
54
AA
54
AA
ENDCHAR

STARTCHAR char178
ENCODING 178
SWIDTH 672 0
DWIDTH 7 0
BBX 7 14 0 0
BITMAP
6E
BC
F4
2E
FA
7E
AC
7E
DA
AE
EC
FA
B6
EE
ENDCHAR

STARTCHAR char179
ENCODING 179
SWIDTH 672 0
DWIDTH 7 0
BBX 7 14 0 0
BITMAP
10
10
10
10
10
10
10
10
10
10
10
10
10
10
ENDCHAR

STARTCHAR char180
ENCODING 180
SWIDTH 672 0
DWIDTH 7 0
BBX 7 14 0 0
BITMAP
10
10
10
10
10
10
10
F0
10
10
10
10
10
10
ENDCHAR

STARTCHAR char181
ENCODING 181
SWIDTH 672 0
DWIDTH 7 0
BBX 7 14 0 0
BITMAP
10
10
10
10
10
10
F0
10
F0
10
10
10
10
10
ENDCHAR

STARTCHAR char182
ENCODING 182
SWIDTH 672 0
DWIDTH 7 0
BBX 7 14 0 0
BITMAP
28
28
28
28
28
28
28
E8
28
28
28
28
28
28
ENDCHAR

STARTCHAR char183
ENCODING 183
SWIDTH 672 0
DWIDTH 7 0
BBX 7 14 0 0
BITMAP
00
00
00
00
00
00
00
F8
28
28
28
28
28
28
ENDCHAR

STARTCHAR char184
ENCODING 184
SWIDTH 672 0
DWIDTH 7 0
BBX 7 14 0 0
BITMAP
00
00
00
00
00
00
F0
10
F0
10
10
10
10
10
ENDCHAR

STARTCHAR char185
ENCODING 185
SWIDTH 672 0
DWIDTH 7 0
BBX 7 14 0 0
BITMAP
28
28
28
28
28
28
E8
08
E8
28
28
28
28
28
ENDCHAR

STARTCHAR char186
ENCODING 186
SWIDTH 672 0
DWIDTH 7 0
BBX 7 14 0 0
BITMAP
28
28
28
28
28
28
28
28
28
28
28
28
28
28
ENDCHAR

STARTCHAR char187
ENCODING 187
SWIDTH 672 0
DWIDTH 7 0
BBX 7 14 0 0
BITMAP
00
00
00
00
00
00
F8
08
E8
28
28
28
28
28
ENDCHAR

STARTCHAR char188
ENCODING 188
SWIDTH 672 0
DWIDTH 7 0
BBX 7 14 0 0
BITMAP
28
28
28
28
28
28
E8
08
F8
00
00
00
00
00
ENDCHAR

STARTCHAR char189
ENCODING 189
SWIDTH 672 0
DWIDTH 7 0
BBX 7 14 0 0
BITMAP
28
28
28
28
28
28
28
F8
00
00
00
00
00
00
ENDCHAR

STARTCHAR char190
ENCODING 190
SWIDTH 672 0
DWIDTH 7 0
BBX 7 14 0 0
BITMAP
10
10
10
10
10
10
F0
10
F0
00
00
00
00
00
ENDCHAR

STARTCHAR char191
ENCODING 191
SWIDTH 672 0
DWIDTH 7 0
BBX 7 14 0 0
BITMAP
00
00
00
00
00
00
00
F0
10
10
10
10
10
10
ENDCHAR

STARTCHAR char192
ENCODING 192
SWIDTH 672 0
DWIDTH 7 0
BBX 7 14 0 0
BITMAP
10
10
10
10
10
10
10
1E
00
00
00
00
00
00
ENDCHAR

STARTCHAR char193
ENCODING 193
SWIDTH 672 0
DWIDTH 7 0
BBX 7 14 0 0
BITMAP
10
10
10
10
10
10
10
FE
00
00
00
00
00
00
ENDCHAR

STARTCHAR char194
ENCODING 194
SWIDTH 672 0
DWIDTH 7 0
BBX 7 14 0 0
BITMAP
00
00
00
00
00
00
00
FE
10
10
10
10
10
10
ENDCHAR

STARTCHAR char195
ENCODING 195
SWIDTH 672 0
DWIDTH 7 0
BBX 7 14 0 0
BITMAP
10
10
10
10
10
10
10
1E
10
10
10
10
10
10
ENDCHAR

STARTCHAR char196
ENCODING 196
SWIDTH 672 0
DWIDTH 7 0
BBX 7 14 0 0
BITMAP
00
00
00
00
00
00
00
FE
00
00
00
00
00
00
ENDCHAR

STARTCHAR char197
ENCODING 197
SWIDTH 672 0
DWIDTH 7 0
BBX 7 14 0 0
BITMAP
10
10
10
10
10
10
10
FE
10
10
10
10
10
10
ENDCHAR

STARTCHAR char198
ENCODING 198
SWIDTH 672 0
DWIDTH 7 0
BBX 7 14 0 0
BITMAP
10
10
10
10
10
1E
10
1E
10
10
10
10
10
10
ENDCHAR

STARTCHAR char199
ENCODING 199
SWIDTH 672 0
DWIDTH 7 0
BBX 7 14 0 0
BITMAP
28
28
28
28
28
28
28
2E
28
28
28
28
28
28
ENDCHAR

STARTCHAR char200
ENCODING 200
SWIDTH 672 0
DWIDTH 7 0
BBX 7 14 0 0
BITMAP
28
28
28
28
28
28
2E
20
3E
00
00
00
00
00
ENDCHAR

STARTCHAR char201
ENCODING 201
SWIDTH 672 0
DWIDTH 7 0
BBX 7 14 0 0
BITMAP
00
00
00
00
00
00
3E
20
2E
28
28
28
28
28
ENDCHAR

STARTCHAR char202
ENCODING 202
SWIDTH 672 0
DWIDTH 7 0
BBX 7 14 0 0
BITMAP
00
00
00
28
28
28
EE
00
FE
00
00
00
00
00
ENDCHAR

STARTCHAR char203
ENCODING 203
SWIDTH 672 0
DWIDTH 7 0
BBX 7 14 0 0
BITMAP
00
00
00
00
00
00
FE
00
EE
28
28
28
28
28
ENDCHAR

STARTCHAR char204
ENCODING 204
SWIDTH 672 0
DWIDTH 7 0
BBX 7 14 0 0
BITMAP
28
28
28
28
28
28
2E
20
2E
28
28
28
28
28
ENDCHAR

STARTCHAR char205
ENCODING 205
SWIDTH 672 0
DWIDTH 7 0
BBX 7 14 0 0
BITMAP
00
00
00
00
00
00
FE
00
FE
00
00
00
00
00
ENDCHAR

STARTCHAR char206
ENCODING 206
SWIDTH 672 0
DWIDTH 7 0
BBX 7 14 0 0
BITMAP
28
28
28
28
28
28
EE
00
EE
28
28
28
28
28
ENDCHAR

STARTCHAR char207
ENCODING 207
SWIDTH 672 0
DWIDTH 7 0
BBX 7 14 0 0
BITMAP
10
10
10
10
10
10
FE
00
FE
00
00
00
00
00
ENDCHAR

STARTCHAR char208
ENCODING 208
SWIDTH 672 0
DWIDTH 7 0
BBX 7 14 0 0
BITMAP
28
28
28
28
28
28
28
FE
00
00
00
00
00
00
ENDCHAR

STARTCHAR char209
ENCODING 209
SWIDTH 672 0
DWIDTH 7 0
BBX 7 14 0 0
BITMAP
00
00
00
00
00
00
FE
00
FE
20
20
20
20
20
ENDCHAR

STARTCHAR char210
ENCODING 210
SWIDTH 672 0
DWIDTH 7 0
BBX 7 14 0 0
BITMAP
00
00
00
00
00
00
00
FE
28
28
28
28
28
28
ENDCHAR

STARTCHAR char211
ENCODING 211
SWIDTH 672 0
DWIDTH 7 0
BBX 7 14 0 0
BITMAP
28
28
28
28
28
28
28
3E
00
00
00
00
00
00
ENDCHAR

STARTCHAR char212
ENCODING 212
SWIDTH 672 0
DWIDTH 7 0
BBX 7 14 0 0
BITMAP
20
20
20
20
20
20
3E
20
3E
00
00
00
00
00
ENDCHAR

STARTCHAR char213
ENCODING 213
SWIDTH 672 0
DWIDTH 7 0
BBX 7 14 0 0
BITMAP
00
00
00
00
00
00
3E
20
3E
20
20
20
20
20
ENDCHAR

STARTCHAR char214
ENCODING 214
SWIDTH 672 0
DWIDTH 7 0
BBX 7 14 0 0
BITMAP
00
00
00
00
00
00
00
3E
28
28
28
28
28
28
ENDCHAR

STARTCHAR char215
ENCODING 215
SWIDTH 672 0
DWIDTH 7 0
BBX 7 14 0 0
BITMAP
28
28
28
28
28
28
28
FE
28
28
28
28
28
28
ENDCHAR

STARTCHAR char216
ENCODING 216
SWIDTH 672 0
DWIDTH 7 0
BBX 7 14 0 0
BITMAP
10
10
10
10
10
10
FE
10
FE
10
10
10
10
10
ENDCHAR

STARTCHAR char217
ENCODING 217
SWIDTH 672 0
DWIDTH 7 0
BBX 7 14 0 0
BITMAP
10
10
10
10
10
10
10
F0
00
00
00
00
00
00
ENDCHAR

STARTCHAR char218
ENCODING 218
SWIDTH 672 0
DWIDTH 7 0
BBX 7 14 0 0
BITMAP
00
00
00
00
00
00
00
1E
10
10
10
10
10
10
ENDCHAR

STARTCHAR char219
ENCODING 219
SWIDTH 672 0
DWIDTH 7 0
BBX 7 14 0 0
BITMAP
FE
FE
FE
FE
FE
FE
FE
FE
FE
FE
FE
FE
FE
FE
ENDCHAR

STARTCHAR char220
ENCODING 220
SWIDTH 672 0
DWIDTH 7 0
BBX 7 14 0 0
BITMAP
00
00
00
00
00
00
00
FE
FE
FE
FE
FE
FE
FE
ENDCHAR

STARTCHAR char221
ENCODING 221
SWIDTH 672 0
DWIDTH 7 0
BBX 7 14 0 0
BITMAP
F0
F0
F0
F0
F0
F0
F0
F0
F0
F0
F0
F0
F0
F0
ENDCHAR

STARTCHAR char222
ENCODING 222
SWIDTH 672 0
DWIDTH 7 0
BBX 7 14 0 0
BITMAP
0E
0E
0E
0E
0E
0E
0E
0E
0E
0E
0E
0E
0E
0E
ENDCHAR

STARTCHAR char223
ENCODING 223
SWIDTH 672 0
DWIDTH 7 0
BBX 7 14 0 0
BITMAP
FE
FE
FE
FE
FE
FE
FE
00
00
00
00
00
00
00
ENDCHAR

STARTCHAR char224
ENCODING 224
SWIDTH 672 0
DWIDTH 7 0
BBX 7 14 0 0
BITMAP
00
00
00
00
00
00
68
90
90
90
90
68
00
00
ENDCHAR

STARTCHAR char225
ENCODING 225
SWIDTH 672 0
DWIDTH 7 0
BBX 7 14 0 0
BITMAP
00
00
00
00
70
88
90
A0
90
A0
80
80
80
00
ENDCHAR

STARTCHAR char226
ENCODING 226
SWIDTH 672 0
DWIDTH 7 0
BBX 7 14 0 0
BITMAP
00
00
00
00
F8
88
80
80
80
80
80
80
80
00
ENDCHAR

STARTCHAR char227
ENCODING 227
SWIDTH 672 0
DWIDTH 7 0
BBX 7 14 0 0
BITMAP
00
00
00
00
00
00
FC
54
50
50
50
50
00
00
ENDCHAR

STARTCHAR char228
ENCODING 228
SWIDTH 672 0
DWIDTH 7 0
BBX 7 14 0 0
BITMAP
00
00
00
00
78
40
20
08
10
20
40
78
00
00
ENDCHAR

STARTCHAR char229
ENCODING 229
SWIDTH 672 0
DWIDTH 7 0
BBX 7 14 0 0
BITMAP
00
00
00
00
00
00
78
90
90
90
90
60
00
00
ENDCHAR

STARTCHAR char230
ENCODING 230
SWIDTH 672 0
DWIDTH 7 0
BBX 7 14 0 0
BITMAP
00
00
00
00
00
48
48
48
48
48
50
60
40
80
ENDCHAR

STARTCHAR char231
ENCODING 231
SWIDTH 672 0
DWIDTH 7 0
BBX 7 14 0 0
BITMAP
00
00
00
00
00
2C
50
90
10
10
10
10
00
00
ENDCHAR

STARTCHAR char232
ENCODING 232
SWIDTH 672 0
DWIDTH 7 0
BBX 7 14 0 0
BITMAP
00
00
00
F8
20
20
70
88
88
70
20
20
FC
00
ENDCHAR

STARTCHAR char233
ENCODING 233
SWIDTH 672 0
DWIDTH 7 0
BBX 7 14 0 0
BITMAP
00
00
00
00
70
88
88
A8
D8
88
88
70
00
00
ENDCHAR

STARTCHAR char234
ENCODING 234
SWIDTH 672 0
DWIDTH 7 0
BBX 7 14 0 0
BITMAP
00
00
00
00
00
78
84
84
84
48
48
CC
00
00
ENDCHAR

STARTCHAR char235
ENCODING 235
SWIDTH 672 0
DWIDTH 7 0
BBX 7 14 0 0
BITMAP
00
00
00
00
60
80
80
70
88
88
88
70
00
00
ENDCHAR

STARTCHAR char236
ENCODING 236
SWIDTH 672 0
DWIDTH 7 0
BBX 7 14 0 0
BITMAP
00
00
00
00
00
00
78
A4
94
A4
94
78
00
00
ENDCHAR

STARTCHAR char237
ENCODING 237
SWIDTH 672 0
DWIDTH 7 0
BBX 7 14 0 0
BITMAP
00
00
00
00
04
04
78
8C
94
A4
C4
78
80
80
ENDCHAR

STARTCHAR char238
ENCODING 238
SWIDTH 672 0
DWIDTH 7 0
BBX 7 14 0 0
BITMAP
00
00
00
00
38
40
80
80
F0
80
80
40
38
00
ENDCHAR

STARTCHAR char239
ENCODING 239
SWIDTH 672 0
DWIDTH 7 0
BBX 7 14 0 0
BITMAP
00
00
00
00
70
88
88
88
88
88
88
88
88
00
ENDCHAR

STARTCHAR char240
ENCODING 240
SWIDTH 672 0
DWIDTH 7 0
BBX 7 14 0 0
BITMAP
00
00
00
00
00
00
F8
00
F8
00
F8
00
00
00
ENDCHAR

STARTCHAR char241
ENCODING 241
SWIDTH 672 0
DWIDTH 7 0
BBX 7 14 0 0
BITMAP
00
00
00
00
10
10
7C
10
00
7C
00
00
00
00
ENDCHAR

STARTCHAR char242
ENCODING 242
SWIDTH 672 0
DWIDTH 7 0
BBX 7 14 0 0
BITMAP
00
00
00
40
20
10
08
10
20
40
00
78
00
00
ENDCHAR

STARTCHAR char243
ENCODING 243
SWIDTH 672 0
DWIDTH 7 0
BBX 7 14 0 0
BITMAP
00
00
00
08
10
20
40
20
10
08
00
78
00
00
ENDCHAR

STARTCHAR char244
ENCODING 244
SWIDTH 672 0
DWIDTH 7 0
BBX 7 14 0 0
BITMAP
00
00
00
00
00
20
50
50
40
40
40
40
40
00
ENDCHAR

STARTCHAR char245
ENCODING 245
SWIDTH 672 0
DWIDTH 7 0
BBX 7 14 0 0
BITMAP
00
00
00
00
00
20
20
20
20
20
A0
A0
40
00
ENDCHAR

STARTCHAR char246
ENCODING 246
SWIDTH 672 0
DWIDTH 7 0
BBX 7 14 0 0
BITMAP
00
00
00
00
00
40
40
00
E0
00
40
40
00
00
ENDCHAR

STARTCHAR char247
ENCODING 247
SWIDTH 672 0
DWIDTH 7 0
BBX 7 14 0 0
BITMAP
00
00
00
00
00
00
50
A0
00
50
A0
00
00
00
ENDCHAR

STARTCHAR char248
ENCODING 248
SWIDTH 672 0
DWIDTH 7 0
BBX 7 14 0 0
BITMAP
00
00
00
00
70
20
50
20
00
00
00
00
00
00
ENDCHAR

STARTCHAR char249
ENCODING 249
SWIDTH 672 0
DWIDTH 7 0
BBX 7 14 0 0
BITMAP
00
00
00
00
00
00
00
00
00
60
60
00
00
00
ENDCHAR

STARTCHAR char250
ENCODING 250
SWIDTH 672 0
DWIDTH 7 0
BBX 7 14 0 0
BITMAP
00
00
00
00
00
00
00
00
00
00
60
00
00
00
ENDCHAR

STARTCHAR char251
ENCODING 251
SWIDTH 672 0
DWIDTH 7 0
BBX 7 14 0 0
BITMAP
00
00
00
3C
20
20
20
20
20
20
20
A0
60
20
ENDCHAR

STARTCHAR char252
ENCODING 252
SWIDTH 672 0
DWIDTH 7 0
BBX 7 14 0 0
BITMAP
00
00
00
00
00
00
B0
C8
88
88
88
00
00
00
ENDCHAR

STARTCHAR char253
ENCODING 253
SWIDTH 672 0
DWIDTH 7 0
BBX 7 14 0 0
BITMAP
00
00
00
00
00
80
40
20
20
40
F0
00
00
00
ENDCHAR

STARTCHAR char254
ENCODING 254
SWIDTH 672 0
DWIDTH 7 0
BBX 7 14 0 0
BITMAP
00
00
00
00
00
00
00
00
E0
E0
E0
E0
00
00
ENDCHAR

STARTCHAR char255
ENCODING 255
SWIDTH 672 0
DWIDTH 7 0
BBX 7 14 0 0
BITMAP
00
00
00
00
00
00
00
00
00
00
00
00
00
00
ENDCHAR

ENDFONT
