STARTFONT 2.1
FONT sabvga
SIZE 13 75 75
FONTBOUNDINGBOX 6 13 0 -2

STARTPROPERTIES 9
POINT_SIZE 130
WEIGHT 10
RESOLUTION_X 75
RESOLUTION_Y 75
X_HEIGHT 0
QUAD_WIDTH 6
DEFAULT_CHAR 0
FONT_DESCENT 2
FONT_ASCENT 11
ENDPROPERTIES

CHARS 256

STARTCHAR C0000
ENCODING 0
SWIDTH 1000 0
DWIDTH 6 0
BBX 6 13 0 -2
BITMAP
00
00
38
44
44
4C
54
54
58
40
3C
00
00
ENDCHAR

STARTCHAR C0001
ENCODING 1
SWIDTH 1000 0
DWIDTH 6 0
BBX 6 13 0 -2
BITMAP
00
00
38
44
6C
44
44
7C
54
44
38
00
00
ENDCHAR

STARTCHAR C0002
ENCODING 2
SWIDTH 1000 0
DWIDTH 6 0
BBX 6 13 0 -2
BITMAP
00
00
38
7C
54
7C
7C
44
6C
7C
38
00
00
ENDCHAR

STARTCHAR C0003
ENCODING 3
SWIDTH 1000 0
DWIDTH 6 0
BBX 6 13 0 -2
BITMAP
00
00
00
00
28
7C
7C
38
10
00
00
00
00
ENDCHAR

STARTCHAR C0004
ENCODING 4
SWIDTH 1000 0
DWIDTH 6 0
BBX 6 13 0 -2
BITMAP
00
00
00
00
10
38
7C
38
10
00
00
00
00
ENDCHAR

STARTCHAR C0005
ENCODING 5
SWIDTH 1000 0
DWIDTH 6 0
BBX 6 13 0 -2
BITMAP
00
00
00
10
10
6C
10
10
38
00
00
00
00
ENDCHAR

STARTCHAR C0006
ENCODING 6
SWIDTH 1000 0
DWIDTH 6 0
BBX 6 13 0 -2
BITMAP
00
00
10
10
38
7C
38
10
38
00
00
00
00
ENDCHAR

STARTCHAR C0007
ENCODING 7
SWIDTH 1000 0
DWIDTH 6 0
BBX 6 13 0 -2
BITMAP
00
00
00
00
00
10
38
10
00
00
00
00
00
ENDCHAR

STARTCHAR C0008
ENCODING 8
SWIDTH 1000 0
DWIDTH 6 0
BBX 6 13 0 -2
BITMAP
00
7C
7C
7C
7C
6C
44
6C
7C
7C
7C
7C
7C
ENDCHAR

STARTCHAR C0009
ENCODING 9
SWIDTH 1000 0
DWIDTH 6 0
BBX 6 13 0 -2
BITMAP
00
00
00
00
38
44
44
44
38
00
00
00
00
ENDCHAR

STARTCHAR C000a
ENCODING 10
SWIDTH 1000 0
DWIDTH 6 0
BBX 6 13 0 -2
BITMAP
00
7C
7C
7C
44
38
38
38
44
7C
7C
7C
7C
ENDCHAR

STARTCHAR C000b
ENCODING 11
SWIDTH 1000 0
DWIDTH 6 0
BBX 6 13 0 -2
BITMAP
00
00
00
14
08
34
48
48
48
30
00
00
00
ENDCHAR

STARTCHAR C000c
ENCODING 12
SWIDTH 1000 0
DWIDTH 6 0
BBX 6 13 0 -2
BITMAP
00
00
00
00
38
44
44
44
38
10
38
10
00
ENDCHAR

STARTCHAR C000d
ENCODING 13
SWIDTH 1000 0
DWIDTH 6 0
BBX 6 13 0 -2
BITMAP
00
00
00
00
1C
10
1C
10
10
70
70
70
00
ENDCHAR

STARTCHAR C000e
ENCODING 14
SWIDTH 1000 0
DWIDTH 6 0
BBX 6 13 0 -2
BITMAP
00
00
00
00
3C
24
24
24
2C
6C
60
00
00
ENDCHAR

STARTCHAR C000f
ENCODING 15
SWIDTH 1000 0
DWIDTH 6 0
BBX 6 13 0 -2
BITMAP
00
00
00
10
10
54
38
6C
38
54
10
10
00
ENDCHAR

STARTCHAR C0010
ENCODING 16
SWIDTH 1000 0
DWIDTH 6 0
BBX 6 13 0 -2
BITMAP
00
00
40
60
70
78
7C
78
70
60
40
00
00
ENDCHAR

STARTCHAR C0011
ENCODING 17
SWIDTH 1000 0
DWIDTH 6 0
BBX 6 13 0 -2
BITMAP
00
00
04
0C
1C
3C
7C
3C
1C
0C
04
00
00
ENDCHAR

STARTCHAR C0012
ENCODING 18
SWIDTH 1000 0
DWIDTH 6 0
BBX 6 13 0 -2
BITMAP
00
00
00
10
38
54
10
10
54
38
10
00
00
ENDCHAR

STARTCHAR C0013
ENCODING 19
SWIDTH 1000 0
DWIDTH 6 0
BBX 6 13 0 -2
BITMAP
00
00
00
28
28
28
28
28
00
28
00
00
00
ENDCHAR

STARTCHAR C0014
ENCODING 20
SWIDTH 1000 0
DWIDTH 6 0
BBX 6 13 0 -2
BITMAP
00
00
00
3C
54
54
34
14
14
14
14
00
00
ENDCHAR

STARTCHAR C0015
ENCODING 21
SWIDTH 1000 0
DWIDTH 6 0
BBX 6 13 0 -2
BITMAP
00
00
18
24
20
18
24
24
18
04
24
18
00
ENDCHAR

STARTCHAR C0016
ENCODING 22
SWIDTH 1000 0
DWIDTH 6 0
BBX 6 13 0 -2
BITMAP
00
00
00
00
00
00
00
00
00
7C
7C
00
00
ENDCHAR

STARTCHAR C0017
ENCODING 23
SWIDTH 1000 0
DWIDTH 6 0
BBX 6 13 0 -2
BITMAP
00
00
00
10
38
54
10
10
54
38
10
7C
00
ENDCHAR

STARTCHAR C0018
ENCODING 24
SWIDTH 1000 0
DWIDTH 6 0
BBX 6 13 0 -2
BITMAP
00
00
00
10
38
54
10
10
10
10
10
00
00
ENDCHAR

STARTCHAR C0019
ENCODING 25
SWIDTH 1000 0
DWIDTH 6 0
BBX 6 13 0 -2
BITMAP
00
00
00
10
10
10
10
10
54
38
10
00
00
ENDCHAR

STARTCHAR C001a
ENCODING 26
SWIDTH 1000 0
DWIDTH 6 0
BBX 6 13 0 -2
BITMAP
00
00
00
00
10
08
7C
08
10
00
00
00
00
ENDCHAR

STARTCHAR C001b
ENCODING 27
SWIDTH 1000 0
DWIDTH 6 0
BBX 6 13 0 -2
BITMAP
00
00
00
00
10
20
7C
20
10
00
00
00
00
ENDCHAR

STARTCHAR C001c
ENCODING 28
SWIDTH 1000 0
DWIDTH 6 0
BBX 6 13 0 -2
BITMAP
00
00
00
00
00
20
20
3C
00
00
00
00
00
ENDCHAR

STARTCHAR C001d
ENCODING 29
SWIDTH 1000 0
DWIDTH 6 0
BBX 6 13 0 -2
BITMAP
00
00
00
00
28
44
7C
44
28
00
00
00
00
ENDCHAR

STARTCHAR C001e
ENCODING 30
SWIDTH 1000 0
DWIDTH 6 0
BBX 6 13 0 -2
BITMAP
00
00
00
00
00
10
38
38
7C
7C
00
00
00
ENDCHAR

STARTCHAR C001f
ENCODING 31
SWIDTH 1000 0
DWIDTH 6 0
BBX 6 13 0 -2
BITMAP
00
00
00
00
00
7C
7C
38
38
10
00
00
00
ENDCHAR

STARTCHAR C0020
ENCODING 32
SWIDTH 1000 0
DWIDTH 6 0
BBX 6 13 0 -2
BITMAP
00
00
00
00
00
00
00
00
00
00
00
00
00
ENDCHAR

STARTCHAR C0021
ENCODING 33
SWIDTH 1000 0
DWIDTH 6 0
BBX 6 13 0 -2
BITMAP
00
00
10
10
10
10
10
10
10
00
10
00
00
ENDCHAR

STARTCHAR C0022
ENCODING 34
SWIDTH 1000 0
DWIDTH 6 0
BBX 6 13 0 -2
BITMAP
00
00
28
28
28
00
00
00
00
00
00
00
00
ENDCHAR

STARTCHAR C0023
ENCODING 35
SWIDTH 1000 0
DWIDTH 6 0
BBX 6 13 0 -2
BITMAP
00
00
00
28
28
7C
28
7C
28
28
00
00
00
ENDCHAR

STARTCHAR C0024
ENCODING 36
SWIDTH 1000 0
DWIDTH 6 0
BBX 6 13 0 -2
BITMAP
00
00
10
3C
50
50
38
14
14
78
10
00
00
ENDCHAR

STARTCHAR C0025
ENCODING 37
SWIDTH 1000 0
DWIDTH 6 0
BBX 6 13 0 -2
BITMAP
00
00
24
54
28
08
10
20
28
54
48
00
00
ENDCHAR

STARTCHAR C0026
ENCODING 38
SWIDTH 1000 0
DWIDTH 6 0
BBX 6 13 0 -2
BITMAP
00
00
20
50
50
20
50
4C
48
34
00
00
00
ENDCHAR

STARTCHAR C0027
ENCODING 39
SWIDTH 1000 0
DWIDTH 6 0
BBX 6 13 0 -2
BITMAP
00
00
18
10
20
00
00
00
00
00
00
00
00
ENDCHAR

STARTCHAR C0028
ENCODING 40
SWIDTH 1000 0
DWIDTH 6 0
BBX 6 13 0 -2
BITMAP
00
00
08
10
10
20
20
20
10
10
08
00
00
ENDCHAR

STARTCHAR C0029
ENCODING 41
SWIDTH 1000 0
DWIDTH 6 0
BBX 6 13 0 -2
BITMAP
00
00
20
10
10
08
08
08
10
10
20
00
00
ENDCHAR

STARTCHAR C002a
ENCODING 42
SWIDTH 1000 0
DWIDTH 6 0
BBX 6 13 0 -2
BITMAP
00
00
00
10
54
7C
38
7C
54
10
00
00
00
ENDCHAR

STARTCHAR C002b
ENCODING 43
SWIDTH 1000 0
DWIDTH 6 0
BBX 6 13 0 -2
BITMAP
00
00
00
00
10
10
7C
10
10
00
00
00
00
ENDCHAR

STARTCHAR C002c
ENCODING 44
SWIDTH 1000 0
DWIDTH 6 0
BBX 6 13 0 -2
BITMAP
00
00
00
00
00
00
00
00
00
18
10
20
00
ENDCHAR

STARTCHAR C002d
ENCODING 45
SWIDTH 1000 0
DWIDTH 6 0
BBX 6 13 0 -2
BITMAP
00
00
00
00
00
00
7C
00
00
00
00
00
00
ENDCHAR

STARTCHAR C002e
ENCODING 46
SWIDTH 1000 0
DWIDTH 6 0
BBX 6 13 0 -2
BITMAP
00
00
00
00
00
00
00
00
00
10
38
10
00
ENDCHAR

STARTCHAR C002f
ENCODING 47
SWIDTH 1000 0
DWIDTH 6 0
BBX 6 13 0 -2
BITMAP
00
00
04
04
08
08
10
20
20
40
40
00
00
ENDCHAR

STARTCHAR C0030
ENCODING 48
SWIDTH 1000 0
DWIDTH 6 0
BBX 6 13 0 -2
BITMAP
00
00
10
28
44
44
44
44
44
28
10
00
00
ENDCHAR

STARTCHAR C0031
ENCODING 49
SWIDTH 1000 0
DWIDTH 6 0
BBX 6 13 0 -2
BITMAP
00
00
10
30
50
10
10
10
10
10
7C
00
00
ENDCHAR

STARTCHAR C0032
ENCODING 50
SWIDTH 1000 0
DWIDTH 6 0
BBX 6 13 0 -2
BITMAP
00
00
38
44
44
04
08
10
20
40
7C
00
00
ENDCHAR

STARTCHAR C0033
ENCODING 51
SWIDTH 1000 0
DWIDTH 6 0
BBX 6 13 0 -2
BITMAP
00
00
7C
04
08
10
38
04
04
44
38
00
00
ENDCHAR

STARTCHAR C0034
ENCODING 52
SWIDTH 1000 0
DWIDTH 6 0
BBX 6 13 0 -2
BITMAP
00
00
08
08
18
28
28
48
7C
08
08
00
00
ENDCHAR

STARTCHAR C0035
ENCODING 53
SWIDTH 1000 0
DWIDTH 6 0
BBX 6 13 0 -2
BITMAP
00
00
7C
40
40
58
64
04
04
44
38
00
00
ENDCHAR

STARTCHAR C0036
ENCODING 54
SWIDTH 1000 0
DWIDTH 6 0
BBX 6 13 0 -2
BITMAP
00
00
38
44
40
40
78
44
44
44
38
00
00
ENDCHAR

STARTCHAR C0037
ENCODING 55
SWIDTH 1000 0
DWIDTH 6 0
BBX 6 13 0 -2
BITMAP
00
00
7C
04
08
08
10
10
20
20
20
00
00
ENDCHAR

STARTCHAR C0038
ENCODING 56
SWIDTH 1000 0
DWIDTH 6 0
BBX 6 13 0 -2
BITMAP
00
00
38
44
44
44
38
44
44
44
38
00
00
ENDCHAR

STARTCHAR C0039
ENCODING 57
SWIDTH 1000 0
DWIDTH 6 0
BBX 6 13 0 -2
BITMAP
00
00
38
44
44
44
3C
04
04
44
38
00
00
ENDCHAR

STARTCHAR C003a
ENCODING 58
SWIDTH 1000 0
DWIDTH 6 0
BBX 6 13 0 -2
BITMAP
00
00
00
00
10
38
10
00
00
10
38
10
00
ENDCHAR

STARTCHAR C003b
ENCODING 59
SWIDTH 1000 0
DWIDTH 6 0
BBX 6 13 0 -2
BITMAP
00
00
00
00
10
38
10
00
00
18
10
20
00
ENDCHAR

STARTCHAR C003c
ENCODING 60
SWIDTH 1000 0
DWIDTH 6 0
BBX 6 13 0 -2
BITMAP
00
00
04
08
10
20
40
20
10
08
04
00
00
ENDCHAR

STARTCHAR C003d
ENCODING 61
SWIDTH 1000 0
DWIDTH 6 0
BBX 6 13 0 -2
BITMAP
00
00
00
00
00
7C
00
00
7C
00
00
00
00
ENDCHAR

STARTCHAR C003e
ENCODING 62
SWIDTH 1000 0
DWIDTH 6 0
BBX 6 13 0 -2
BITMAP
00
00
40
20
10
08
04
08
10
20
40
00
00
ENDCHAR

STARTCHAR C003f
ENCODING 63
SWIDTH 1000 0
DWIDTH 6 0
BBX 6 13 0 -2
BITMAP
00
00
38
44
44
04
08
10
10
00
10
00
00
ENDCHAR

STARTCHAR C0040
ENCODING 64
SWIDTH 1000 0
DWIDTH 6 0
BBX 6 13 0 -2
BITMAP
00
00
38
44
44
4C
54
54
58
40
3C
00
00
ENDCHAR

STARTCHAR C0041
ENCODING 65
SWIDTH 1000 0
DWIDTH 6 0
BBX 6 13 0 -2
BITMAP
00
00
10
28
44
44
44
7C
44
44
44
00
00
ENDCHAR

STARTCHAR C0042
ENCODING 66
SWIDTH 1000 0
DWIDTH 6 0
BBX 6 13 0 -2
BITMAP
00
00
78
24
24
24
38
24
24
24
78
00
00
ENDCHAR

STARTCHAR C0043
ENCODING 67
SWIDTH 1000 0
DWIDTH 6 0
BBX 6 13 0 -2
BITMAP
00
00
38
44
40
40
40
40
40
44
38
00
00
ENDCHAR

STARTCHAR C0044
ENCODING 68
SWIDTH 1000 0
DWIDTH 6 0
BBX 6 13 0 -2
BITMAP
00
00
78
24
24
24
24
24
24
24
78
00
00
ENDCHAR

STARTCHAR C0045
ENCODING 69
SWIDTH 1000 0
DWIDTH 6 0
BBX 6 13 0 -2
BITMAP
00
00
7C
40
40
40
78
40
40
40
7C
00
00
ENDCHAR

STARTCHAR C0046
ENCODING 70
SWIDTH 1000 0
DWIDTH 6 0
BBX 6 13 0 -2
BITMAP
00
00
7C
40
40
40
78
40
40
40
40
00
00
ENDCHAR

STARTCHAR C0047
ENCODING 71
SWIDTH 1000 0
DWIDTH 6 0
BBX 6 13 0 -2
BITMAP
00
00
38
44
40
40
40
4C
44
44
38
00
00
ENDCHAR

STARTCHAR C0048
ENCODING 72
SWIDTH 1000 0
DWIDTH 6 0
BBX 6 13 0 -2
BITMAP
00
00
44
44
44
44
7C
44
44
44
44
00
00
ENDCHAR

STARTCHAR C0049
ENCODING 73
SWIDTH 1000 0
DWIDTH 6 0
BBX 6 13 0 -2
BITMAP
00
00
38
10
10
10
10
10
10
10
38
00
00
ENDCHAR

STARTCHAR C004a
ENCODING 74
SWIDTH 1000 0
DWIDTH 6 0
BBX 6 13 0 -2
BITMAP
00
00
1C
08
08
08
08
08
08
48
30
00
00
ENDCHAR

STARTCHAR C004b
ENCODING 75
SWIDTH 1000 0
DWIDTH 6 0
BBX 6 13 0 -2
BITMAP
00
00
44
44
48
50
60
50
48
44
44
00
00
ENDCHAR

STARTCHAR C004c
ENCODING 76
SWIDTH 1000 0
DWIDTH 6 0
BBX 6 13 0 -2
BITMAP
00
00
40
40
40
40
40
40
40
40
7C
00
00
ENDCHAR

STARTCHAR C004d
ENCODING 77
SWIDTH 1000 0
DWIDTH 6 0
BBX 6 13 0 -2
BITMAP
00
00
44
44
6C
54
54
44
44
44
44
00
00
ENDCHAR

STARTCHAR C004e
ENCODING 78
SWIDTH 1000 0
DWIDTH 6 0
BBX 6 13 0 -2
BITMAP
00
00
44
64
64
54
54
4C
4C
44
44
00
00
ENDCHAR

STARTCHAR C004f
ENCODING 79
SWIDTH 1000 0
DWIDTH 6 0
BBX 6 13 0 -2
BITMAP
00
00
38
44
44
44
44
44
44
44
38
00
00
ENDCHAR

STARTCHAR C0050
ENCODING 80
SWIDTH 1000 0
DWIDTH 6 0
BBX 6 13 0 -2
BITMAP
00
00
78
44
44
44
78
40
40
40
40
00
00
ENDCHAR

STARTCHAR C0051
ENCODING 81
SWIDTH 1000 0
DWIDTH 6 0
BBX 6 13 0 -2
BITMAP
00
00
38
44
44
44
44
44
44
54
38
04
00
ENDCHAR

STARTCHAR C0052
ENCODING 82
SWIDTH 1000 0
DWIDTH 6 0
BBX 6 13 0 -2
BITMAP
00
00
78
44
44
44
78
50
48
44
44
00
00
ENDCHAR

STARTCHAR C0053
ENCODING 83
SWIDTH 1000 0
DWIDTH 6 0
BBX 6 13 0 -2
BITMAP
00
00
38
44
40
40
38
04
04
44
38
00
00
ENDCHAR

STARTCHAR C0054
ENCODING 84
SWIDTH 1000 0
DWIDTH 6 0
BBX 6 13 0 -2
BITMAP
00
00
7C
10
10
10
10
10
10
10
10
00
00
ENDCHAR

STARTCHAR C0055
ENCODING 85
SWIDTH 1000 0
DWIDTH 6 0
BBX 6 13 0 -2
BITMAP
00
00
44
44
44
44
44
44
44
44
38
00
00
ENDCHAR

STARTCHAR C0056
ENCODING 86
SWIDTH 1000 0
DWIDTH 6 0
BBX 6 13 0 -2
BITMAP
00
00
44
44
44
44
28
28
28
10
10
00
00
ENDCHAR

STARTCHAR C0057
ENCODING 87
SWIDTH 1000 0
DWIDTH 6 0
BBX 6 13 0 -2
BITMAP
00
00
44
44
44
44
54
54
54
6C
44
00
00
ENDCHAR

STARTCHAR C0058
ENCODING 88
SWIDTH 1000 0
DWIDTH 6 0
BBX 6 13 0 -2
BITMAP
00
00
44
44
28
28
10
28
28
44
44
00
00
ENDCHAR

STARTCHAR C0059
ENCODING 89
SWIDTH 1000 0
DWIDTH 6 0
BBX 6 13 0 -2
BITMAP
00
00
44
44
28
28
10
10
10
10
10
00
00
ENDCHAR

STARTCHAR C005a
ENCODING 90
SWIDTH 1000 0
DWIDTH 6 0
BBX 6 13 0 -2
BITMAP
00
00
7C
04
08
08
10
20
20
40
7C
00
00
ENDCHAR

STARTCHAR C005b
ENCODING 91
SWIDTH 1000 0
DWIDTH 6 0
BBX 6 13 0 -2
BITMAP
00
00
38
20
20
20
20
20
20
20
38
00
00
ENDCHAR

STARTCHAR C005c
ENCODING 92
SWIDTH 1000 0
DWIDTH 6 0
BBX 6 13 0 -2
BITMAP
00
00
40
40
20
20
10
08
08
04
04
00
00
ENDCHAR

STARTCHAR C005d
ENCODING 93
SWIDTH 1000 0
DWIDTH 6 0
BBX 6 13 0 -2
BITMAP
00
00
38
08
08
08
08
08
08
08
38
00
00
ENDCHAR

STARTCHAR C005e
ENCODING 94
SWIDTH 1000 0
DWIDTH 6 0
BBX 6 13 0 -2
BITMAP
00
00
10
28
44
00
00
00
00
00
00
00
00
ENDCHAR

STARTCHAR C005f
ENCODING 95
SWIDTH 1000 0
DWIDTH 6 0
BBX 6 13 0 -2
BITMAP
00
00
00
00
00
00
00
00
00
00
00
7C
00
ENDCHAR

STARTCHAR C0060
ENCODING 96
SWIDTH 1000 0
DWIDTH 6 0
BBX 6 13 0 -2
BITMAP
00
00
18
08
04
00
00
00
00
00
00
00
00
ENDCHAR

STARTCHAR C0061
ENCODING 97
SWIDTH 1000 0
DWIDTH 6 0
BBX 6 13 0 -2
BITMAP
00
00
00
00
00
38
04
3C
44
44
3C
00
00
ENDCHAR

STARTCHAR C0062
ENCODING 98
SWIDTH 1000 0
DWIDTH 6 0
BBX 6 13 0 -2
BITMAP
00
00
40
40
40
78
44
44
44
44
78
00
00
ENDCHAR

STARTCHAR C0063
ENCODING 99
SWIDTH 1000 0
DWIDTH 6 0
BBX 6 13 0 -2
BITMAP
00
00
00
00
00
38
44
40
40
44
38
00
00
ENDCHAR

STARTCHAR C0064
ENCODING 100
SWIDTH 1000 0
DWIDTH 6 0
BBX 6 13 0 -2
BITMAP
00
00
04
04
04
3C
44
44
44
44
3C
00
00
ENDCHAR

STARTCHAR C0065
ENCODING 101
SWIDTH 1000 0
DWIDTH 6 0
BBX 6 13 0 -2
BITMAP
00
00
00
00
00
38
44
7C
40
44
38
00
00
ENDCHAR

STARTCHAR C0066
ENCODING 102
SWIDTH 1000 0
DWIDTH 6 0
BBX 6 13 0 -2
BITMAP
00
00
18
24
20
20
78
20
20
20
20
00
00
ENDCHAR

STARTCHAR C0067
ENCODING 103
SWIDTH 1000 0
DWIDTH 6 0
BBX 6 13 0 -2
BITMAP
00
00
00
00
00
38
44
44
44
3C
04
44
38
ENDCHAR

STARTCHAR C0068
ENCODING 104
SWIDTH 1000 0
DWIDTH 6 0
BBX 6 13 0 -2
BITMAP
00
00
40
40
40
58
64
44
44
44
44
00
00
ENDCHAR

STARTCHAR C0069
ENCODING 105
SWIDTH 1000 0
DWIDTH 6 0
BBX 6 13 0 -2
BITMAP
00
00
00
10
00
30
10
10
10
10
38
00
00
ENDCHAR

STARTCHAR C006a
ENCODING 106
SWIDTH 1000 0
DWIDTH 6 0
BBX 6 13 0 -2
BITMAP
00
00
00
08
00
18
08
08
08
08
48
48
30
ENDCHAR

STARTCHAR C006b
ENCODING 107
SWIDTH 1000 0
DWIDTH 6 0
BBX 6 13 0 -2
BITMAP
00
00
40
40
40
48
50
60
50
48
44
00
00
ENDCHAR

STARTCHAR C006c
ENCODING 108
SWIDTH 1000 0
DWIDTH 6 0
BBX 6 13 0 -2
BITMAP
00
00
30
10
10
10
10
10
10
10
38
00
00
ENDCHAR

STARTCHAR C006d
ENCODING 109
SWIDTH 1000 0
DWIDTH 6 0
BBX 6 13 0 -2
BITMAP
00
00
00
00
00
68
54
54
54
54
44
00
00
ENDCHAR

STARTCHAR C006e
ENCODING 110
SWIDTH 1000 0
DWIDTH 6 0
BBX 6 13 0 -2
BITMAP
00
00
00
00
00
58
64
44
44
44
44
00
00
ENDCHAR

STARTCHAR C006f
ENCODING 111
SWIDTH 1000 0
DWIDTH 6 0
BBX 6 13 0 -2
BITMAP
00
00
00
00
00
38
44
44
44
44
38
00
00
ENDCHAR

STARTCHAR C0070
ENCODING 112
SWIDTH 1000 0
DWIDTH 6 0
BBX 6 13 0 -2
BITMAP
00
00
00
00
00
78
44
44
44
78
40
40
40
ENDCHAR

STARTCHAR C0071
ENCODING 113
SWIDTH 1000 0
DWIDTH 6 0
BBX 6 13 0 -2
BITMAP
00
00
00
00
00
3C
44
44
44
3C
04
04
04
ENDCHAR

STARTCHAR C0072
ENCODING 114
SWIDTH 1000 0
DWIDTH 6 0
BBX 6 13 0 -2
BITMAP
00
00
00
00
00
58
64
40
40
40
40
00
00
ENDCHAR

STARTCHAR C0073
ENCODING 115
SWIDTH 1000 0
DWIDTH 6 0
BBX 6 13 0 -2
BITMAP
00
00
00
00
00
38
44
30
08
44
38
00
00
ENDCHAR

STARTCHAR C0074
ENCODING 116
SWIDTH 1000 0
DWIDTH 6 0
BBX 6 13 0 -2
BITMAP
00
00
00
20
20
78
20
20
20
24
18
00
00
ENDCHAR

STARTCHAR C0075
ENCODING 117
SWIDTH 1000 0
DWIDTH 6 0
BBX 6 13 0 -2
BITMAP
00
00
00
00
00
44
44
44
44
4C
34
00
00
ENDCHAR

STARTCHAR C0076
ENCODING 118
SWIDTH 1000 0
DWIDTH 6 0
BBX 6 13 0 -2
BITMAP
00
00
00
00
00
44
44
44
28
28
10
00
00
ENDCHAR

STARTCHAR C0077
ENCODING 119
SWIDTH 1000 0
DWIDTH 6 0
BBX 6 13 0 -2
BITMAP
00
00
00
00
00
44
44
54
54
54
28
00
00
ENDCHAR

STARTCHAR C0078
ENCODING 120
SWIDTH 1000 0
DWIDTH 6 0
BBX 6 13 0 -2
BITMAP
00
00
00
00
00
44
28
10
10
28
44
00
00
ENDCHAR

STARTCHAR C0079
ENCODING 121
SWIDTH 1000 0
DWIDTH 6 0
BBX 6 13 0 -2
BITMAP
00
00
00
00
00
44
44
44
4C
34
04
44
38
ENDCHAR

STARTCHAR C007a
ENCODING 122
SWIDTH 1000 0
DWIDTH 6 0
BBX 6 13 0 -2
BITMAP
00
00
00
00
00
7C
08
10
20
40
7C
00
00
ENDCHAR

STARTCHAR C007b
ENCODING 123
SWIDTH 1000 0
DWIDTH 6 0
BBX 6 13 0 -2
BITMAP
00
00
0C
10
10
10
60
10
10
10
0C
00
00
ENDCHAR

STARTCHAR C007c
ENCODING 124
SWIDTH 1000 0
DWIDTH 6 0
BBX 6 13 0 -2
BITMAP
00
00
10
10
10
10
00
10
10
10
10
00
00
ENDCHAR

STARTCHAR C007d
ENCODING 125
SWIDTH 1000 0
DWIDTH 6 0
BBX 6 13 0 -2
BITMAP
00
00
60
10
10
10
0C
10
10
10
60
00
00
ENDCHAR

STARTCHAR C007e
ENCODING 126
SWIDTH 1000 0
DWIDTH 6 0
BBX 6 13 0 -2
BITMAP
00
00
24
54
48
00
00
00
00
00
00
00
00
ENDCHAR

STARTCHAR C007f
ENCODING 127
SWIDTH 1000 0
DWIDTH 6 0
BBX 6 13 0 -2
BITMAP
00
00
00
00
10
28
44
44
44
7C
00
00
00
ENDCHAR

STARTCHAR C0080
ENCODING 128
SWIDTH 1000 0
DWIDTH 6 0
BBX 6 13 0 -2
BITMAP
00
00
38
44
40
40
40
40
40
44
38
10
20
ENDCHAR

STARTCHAR C0081
ENCODING 129
SWIDTH 1000 0
DWIDTH 6 0
BBX 6 13 0 -2
BITMAP
00
28
28
00
00
44
44
44
44
44
3C
00
00
ENDCHAR

STARTCHAR C0082
ENCODING 130
SWIDTH 1000 0
DWIDTH 6 0
BBX 6 13 0 -2
BITMAP
00
08
10
00
00
38
44
7C
40
44
38
00
00
ENDCHAR

STARTCHAR C0083
ENCODING 131
SWIDTH 1000 0
DWIDTH 6 0
BBX 6 13 0 -2
BITMAP
00
18
24
00
00
38
04
3C
44
4C
34
00
00
ENDCHAR

STARTCHAR C0084
ENCODING 132
SWIDTH 1000 0
DWIDTH 6 0
BBX 6 13 0 -2
BITMAP
00
28
28
00
00
38
04
3C
44
4C
34
00
00
ENDCHAR

STARTCHAR C0085
ENCODING 133
SWIDTH 1000 0
DWIDTH 6 0
BBX 6 13 0 -2
BITMAP
00
10
08
00
00
38
04
3C
44
4C
34
00
00
ENDCHAR

STARTCHAR C0086
ENCODING 134
SWIDTH 1000 0
DWIDTH 6 0
BBX 6 13 0 -2
BITMAP
00
18
24
18
00
38
04
3C
44
4C
34
00
00
ENDCHAR

STARTCHAR C0087
ENCODING 135
SWIDTH 1000 0
DWIDTH 6 0
BBX 6 13 0 -2
BITMAP
00
00
00
00
00
38
44
40
40
44
38
10
20
ENDCHAR

STARTCHAR C0088
ENCODING 136
SWIDTH 1000 0
DWIDTH 6 0
BBX 6 13 0 -2
BITMAP
00
18
24
00
00
38
44
7C
40
44
38
00
00
ENDCHAR

STARTCHAR C0089
ENCODING 137
SWIDTH 1000 0
DWIDTH 6 0
BBX 6 13 0 -2
BITMAP
00
28
28
00
00
38
44
7C
40
44
38
00
00
ENDCHAR

STARTCHAR C008a
ENCODING 138
SWIDTH 1000 0
DWIDTH 6 0
BBX 6 13 0 -2
BITMAP
00
10
08
00
00
38
44
7C
40
44
38
00
00
ENDCHAR

STARTCHAR C008b
ENCODING 139
SWIDTH 1000 0
DWIDTH 6 0
BBX 6 13 0 -2
BITMAP
00
28
28
00
00
30
10
10
10
10
7C
00
00
ENDCHAR

STARTCHAR C008c
ENCODING 140
SWIDTH 1000 0
DWIDTH 6 0
BBX 6 13 0 -2
BITMAP
00
18
24
00
00
30
10
10
10
10
7C
00
00
ENDCHAR

STARTCHAR C008d
ENCODING 141
SWIDTH 1000 0
DWIDTH 6 0
BBX 6 13 0 -2
BITMAP
00
10
08
00
00
30
10
10
10
10
7C
00
00
ENDCHAR

STARTCHAR C008e
ENCODING 142
SWIDTH 1000 0
DWIDTH 6 0
BBX 6 13 0 -2
BITMAP
00
28
28
00
10
28
44
44
7C
44
44
00
00
ENDCHAR

STARTCHAR C008f
ENCODING 143
SWIDTH 1000 0
DWIDTH 6 0
BBX 6 13 0 -2
BITMAP
00
10
28
10
10
28
44
44
7C
44
44
00
00
ENDCHAR

STARTCHAR C0090
ENCODING 144
SWIDTH 1000 0
DWIDTH 6 0
BBX 6 13 0 -2
BITMAP
00
08
10
00
7C
40
40
78
40
40
7C
00
00
ENDCHAR

STARTCHAR C0091
ENCODING 145
SWIDTH 1000 0
DWIDTH 6 0
BBX 6 13 0 -2
BITMAP
00
00
00
00
00
38
14
38
50
54
28
00
00
ENDCHAR

STARTCHAR C0092
ENCODING 146
SWIDTH 1000 0
DWIDTH 6 0
BBX 6 13 0 -2
BITMAP
00
00
2C
50
50
50
58
70
50
50
5C
00
00
ENDCHAR

STARTCHAR C0093
ENCODING 147
SWIDTH 1000 0
DWIDTH 6 0
BBX 6 13 0 -2
BITMAP
00
18
24
00
00
38
44
44
44
44
38
00
00
ENDCHAR

STARTCHAR C0094
ENCODING 148
SWIDTH 1000 0
DWIDTH 6 0
BBX 6 13 0 -2
BITMAP
00
28
28
00
00
38
44
44
44
44
38
00
00
ENDCHAR

STARTCHAR C0095
ENCODING 149
SWIDTH 1000 0
DWIDTH 6 0
BBX 6 13 0 -2
BITMAP
00
10
08
00
00
38
44
44
44
44
38
00
00
ENDCHAR

STARTCHAR C0096
ENCODING 150
SWIDTH 1000 0
DWIDTH 6 0
BBX 6 13 0 -2
BITMAP
00
18
24
00
00
44
44
44
44
44
3C
00
00
ENDCHAR

STARTCHAR C0097
ENCODING 151
SWIDTH 1000 0
DWIDTH 6 0
BBX 6 13 0 -2
BITMAP
00
10
08
00
00
44
44
44
44
44
3C
00
00
ENDCHAR

STARTCHAR C0098
ENCODING 152
SWIDTH 1000 0
DWIDTH 6 0
BBX 6 13 0 -2
BITMAP
00
28
28
00
00
44
44
44
4C
34
04
44
38
ENDCHAR

STARTCHAR C0099
ENCODING 153
SWIDTH 1000 0
DWIDTH 6 0
BBX 6 13 0 -2
BITMAP
00
28
28
00
38
44
44
44
44
44
38
00
00
ENDCHAR

STARTCHAR C009a
ENCODING 154
SWIDTH 1000 0
DWIDTH 6 0
BBX 6 13 0 -2
BITMAP
00
28
28
00
44
44
44
44
44
44
38
00
00
ENDCHAR

STARTCHAR C009b
ENCODING 155
SWIDTH 1000 0
DWIDTH 6 0
BBX 6 13 0 -2
BITMAP
00
00
10
38
54
50
50
54
38
10
00
00
00
ENDCHAR

STARTCHAR C009c
ENCODING 156
SWIDTH 1000 0
DWIDTH 6 0
BBX 6 13 0 -2
BITMAP
00
00
18
24
20
20
70
20
20
24
58
00
00
ENDCHAR

STARTCHAR C009d
ENCODING 157
SWIDTH 1000 0
DWIDTH 6 0
BBX 6 13 0 -2
BITMAP
00
00
44
44
28
28
7C
10
7C
10
10
00
00
ENDCHAR

STARTCHAR C009e
ENCODING 158
SWIDTH 1000 0
DWIDTH 6 0
BBX 6 13 0 -2
BITMAP
00
00
60
50
50
60
50
50
78
50
48
00
00
ENDCHAR

STARTCHAR C009f
ENCODING 159
SWIDTH 1000 0
DWIDTH 6 0
BBX 6 13 0 -2
BITMAP
00
08
14
10
10
10
38
10
10
10
10
50
20
ENDCHAR

STARTCHAR C00a0
ENCODING 160
SWIDTH 1000 0
DWIDTH 6 0
BBX 6 13 0 -2
BITMAP
00
08
10
00
00
38
04
3C
44
4C
34
00
00
ENDCHAR

STARTCHAR C00a1
ENCODING 161
SWIDTH 1000 0
DWIDTH 6 0
BBX 6 13 0 -2
BITMAP
00
08
10
00
00
30
10
10
10
10
7C
00
00
ENDCHAR

STARTCHAR C00a2
ENCODING 162
SWIDTH 1000 0
DWIDTH 6 0
BBX 6 13 0 -2
BITMAP
00
08
10
00
00
38
44
44
44
44
38
00
00
ENDCHAR

STARTCHAR C00a3
ENCODING 163
SWIDTH 1000 0
DWIDTH 6 0
BBX 6 13 0 -2
BITMAP
00
08
10
00
00
44
44
44
44
44
3C
00
00
ENDCHAR

STARTCHAR C00a4
ENCODING 164
SWIDTH 1000 0
DWIDTH 6 0
BBX 6 13 0 -2
BITMAP
00
14
28
00
00
58
64
44
44
44
44
00
00
ENDCHAR

STARTCHAR C00a5
ENCODING 165
SWIDTH 1000 0
DWIDTH 6 0
BBX 6 13 0 -2
BITMAP
00
14
28
00
44
44
64
54
4C
44
44
00
00
ENDCHAR

STARTCHAR C00a6
ENCODING 166
SWIDTH 1000 0
DWIDTH 6 0
BBX 6 13 0 -2
BITMAP
00
00
38
04
3C
44
3C
00
7C
00
00
00
00
ENDCHAR

STARTCHAR C00a7
ENCODING 167
SWIDTH 1000 0
DWIDTH 6 0
BBX 6 13 0 -2
BITMAP
00
00
00
18
24
24
18
00
3C
00
00
00
00
ENDCHAR

STARTCHAR C00a8
ENCODING 168
SWIDTH 1000 0
DWIDTH 6 0
BBX 6 13 0 -2
BITMAP
00
00
10
00
10
10
20
40
44
44
38
00
00
ENDCHAR

STARTCHAR C00a9
ENCODING 169
SWIDTH 1000 0
DWIDTH 6 0
BBX 6 13 0 -2
BITMAP
00
00
00
00
00
00
00
7C
40
40
00
00
00
ENDCHAR

STARTCHAR C00aa
ENCODING 170
SWIDTH 1000 0
DWIDTH 6 0
BBX 6 13 0 -2
BITMAP
00
00
00
00
00
00
00
7C
04
04
00
00
00
ENDCHAR

STARTCHAR C00ab
ENCODING 171
SWIDTH 1000 0
DWIDTH 6 0
BBX 6 13 0 -2
BITMAP
00
20
60
20
20
70
08
14
04
08
1C
00
00
ENDCHAR

STARTCHAR C00ac
ENCODING 172
SWIDTH 1000 0
DWIDTH 6 0
BBX 6 13 0 -2
BITMAP
00
20
60
20
20
70
04
0C
14
1C
04
00
00
ENDCHAR

STARTCHAR C00ad
ENCODING 173
SWIDTH 1000 0
DWIDTH 6 0
BBX 6 13 0 -2
BITMAP
00
00
10
00
10
10
10
10
10
10
10
00
00
ENDCHAR

STARTCHAR C00ae
ENCODING 174
SWIDTH 1000 0
DWIDTH 6 0
BBX 6 13 0 -2
BITMAP
00
00
00
00
14
28
50
50
28
14
00
00
00
ENDCHAR

STARTCHAR C00af
ENCODING 175
SWIDTH 1000 0
DWIDTH 6 0
BBX 6 13 0 -2
BITMAP
00
00
00
00
50
28
14
14
28
50
00
00
00
ENDCHAR

STARTCHAR C00b0
ENCODING 176
SWIDTH 1000 0
DWIDTH 6 0
BBX 6 13 0 -2
BITMAP
88
20
88
20
88
20
88
20
88
20
88
20
88
ENDCHAR

STARTCHAR C00b1
ENCODING 177
SWIDTH 1000 0
DWIDTH 6 0
BBX 6 13 0 -2
BITMAP
A8
54
A8
54
A8
54
A8
54
A8
54
A8
54
A8
ENDCHAR

STARTCHAR C00b2
ENCODING 178
SWIDTH 1000 0
DWIDTH 6 0
BBX 6 13 0 -2
BITMAP
74
DC
74
DC
74
DC
74
DC
74
DC
74
DC
74
ENDCHAR

STARTCHAR C00b3
ENCODING 179
SWIDTH 1000 0
DWIDTH 6 0
BBX 6 13 0 -2
BITMAP
10
10
10
10
10
10
10
10
10
10
10
10
10
ENDCHAR

STARTCHAR C00b4
ENCODING 180
SWIDTH 1000 0
DWIDTH 6 0
BBX 6 13 0 -2
BITMAP
10
10
10
10
10
F0
10
10
10
10
10
10
10
ENDCHAR

STARTCHAR C00b5
ENCODING 181
SWIDTH 1000 0
DWIDTH 6 0
BBX 6 13 0 -2
BITMAP
10
10
10
10
F0
10
F0
10
10
10
10
10
10
ENDCHAR

STARTCHAR C00b6
ENCODING 182
SWIDTH 1000 0
DWIDTH 6 0
BBX 6 13 0 -2
BITMAP
28
28
28
28
28
E8
28
28
28
28
28
28
28
ENDCHAR

STARTCHAR C00b7
ENCODING 183
SWIDTH 1000 0
DWIDTH 6 0
BBX 6 13 0 -2
BITMAP
00
00
00
00
00
F8
28
28
28
28
28
28
28
ENDCHAR

STARTCHAR C00b8
ENCODING 184
SWIDTH 1000 0
DWIDTH 6 0
BBX 6 13 0 -2
BITMAP
00
00
00
00
F0
10
F0
10
10
10
10
10
10
ENDCHAR

STARTCHAR C00b9
ENCODING 185
SWIDTH 1000 0
DWIDTH 6 0
BBX 6 13 0 -2
BITMAP
28
28
28
28
E8
08
E8
28
28
28
28
28
28
ENDCHAR

STARTCHAR C00ba
ENCODING 186
SWIDTH 1000 0
DWIDTH 6 0
BBX 6 13 0 -2
BITMAP
28
28
28
28
28
28
28
28
28
28
28
28
28
ENDCHAR

STARTCHAR C00bb
ENCODING 187
SWIDTH 1000 0
DWIDTH 6 0
BBX 6 13 0 -2
BITMAP
00
00
00
00
F8
08
E8
28
28
28
28
28
28
ENDCHAR

STARTCHAR C00bc
ENCODING 188
SWIDTH 1000 0
DWIDTH 6 0
BBX 6 13 0 -2
BITMAP
28
28
28
28
E8
08
F8
00
00
00
00
00
00
ENDCHAR

STARTCHAR C00bd
ENCODING 189
SWIDTH 1000 0
DWIDTH 6 0
BBX 6 13 0 -2
BITMAP
28
28
28
28
28
F8
00
00
00
00
00
00
00
ENDCHAR

STARTCHAR C00be
ENCODING 190
SWIDTH 1000 0
DWIDTH 6 0
BBX 6 13 0 -2
BITMAP
10
10
10
10
F0
10
F0
00
00
00
00
00
00
ENDCHAR

STARTCHAR C00bf
ENCODING 191
SWIDTH 1000 0
DWIDTH 6 0
BBX 6 13 0 -2
BITMAP
00
00
00
00
00
F0
10
10
10
10
10
10
10
ENDCHAR

STARTCHAR C00c0
ENCODING 192
SWIDTH 1000 0
DWIDTH 6 0
BBX 6 13 0 -2
BITMAP
10
10
10
10
10
1C
00
00
00
00
00
00
00
ENDCHAR

STARTCHAR C00c1
ENCODING 193
SWIDTH 1000 0
DWIDTH 6 0
BBX 6 13 0 -2
BITMAP
10
10
10
10
10
FC
00
00
00
00
00
00
00
ENDCHAR

STARTCHAR C00c2
ENCODING 194
SWIDTH 1000 0
DWIDTH 6 0
BBX 6 13 0 -2
BITMAP
00
00
00
00
00
FC
10
10
10
10
10
10
10
ENDCHAR

STARTCHAR C00c3
ENCODING 195
SWIDTH 1000 0
DWIDTH 6 0
BBX 6 13 0 -2
BITMAP
10
10
10
10
10
1C
10
10
10
10
10
10
10
ENDCHAR

STARTCHAR C00c4
ENCODING 196
SWIDTH 1000 0
DWIDTH 6 0
BBX 6 13 0 -2
BITMAP
00
00
00
00
00
FC
00
00
00
00
00
00
00
ENDCHAR

STARTCHAR C00c5
ENCODING 197
SWIDTH 1000 0
DWIDTH 6 0
BBX 6 13 0 -2
BITMAP
10
10
10
10
10
FC
10
10
10
10
10
10
10
ENDCHAR

STARTCHAR C00c6
ENCODING 198
SWIDTH 1000 0
DWIDTH 6 0
BBX 6 13 0 -2
BITMAP
10
10
10
10
1C
10
1C
10
10
10
10
10
10
ENDCHAR

STARTCHAR C00c7
ENCODING 199
SWIDTH 1000 0
DWIDTH 6 0
BBX 6 13 0 -2
BITMAP
28
28
28
28
28
2C
28
28
28
28
28
28
28
ENDCHAR

STARTCHAR C00c8
ENCODING 200
SWIDTH 1000 0
DWIDTH 6 0
BBX 6 13 0 -2
BITMAP
28
28
28
28
2C
20
3C
00
00
00
00
00
00
ENDCHAR

STARTCHAR C00c9
ENCODING 201
SWIDTH 1000 0
DWIDTH 6 0
BBX 6 13 0 -2
BITMAP
00
00
00
00
3C
20
2C
28
28
28
28
28
28
ENDCHAR

STARTCHAR C00ca
ENCODING 202
SWIDTH 1000 0
DWIDTH 6 0
BBX 6 13 0 -2
BITMAP
28
28
28
28
EC
00
FC
00
00
00
00
00
00
ENDCHAR

STARTCHAR C00cb
ENCODING 203
SWIDTH 1000 0
DWIDTH 6 0
BBX 6 13 0 -2
BITMAP
00
00
00
00
FC
00
EC
28
28
28
28
28
28
ENDCHAR

STARTCHAR C00cc
ENCODING 204
SWIDTH 1000 0
DWIDTH 6 0
BBX 6 13 0 -2
BITMAP
28
28
28
28
2C
20
2C
28
28
28
28
28
28
ENDCHAR

STARTCHAR C00cd
ENCODING 205
SWIDTH 1000 0
DWIDTH 6 0
BBX 6 13 0 -2
BITMAP
00
00
00
00
FC
00
FC
00
00
00
00
00
00
ENDCHAR

STARTCHAR C00ce
ENCODING 206
SWIDTH 1000 0
DWIDTH 6 0
BBX 6 13 0 -2
BITMAP
28
28
28
28
EC
00
EC
28
28
28
28
28
28
ENDCHAR

STARTCHAR C00cf
ENCODING 207
SWIDTH 1000 0
DWIDTH 6 0
BBX 6 13 0 -2
BITMAP
10
10
10
10
FC
00
FC
00
00
00
00
00
00
ENDCHAR

STARTCHAR C00d0
ENCODING 208
SWIDTH 1000 0
DWIDTH 6 0
BBX 6 13 0 -2
BITMAP
28
28
28
28
28
F8
00
00
00
00
00
00
00
ENDCHAR

STARTCHAR C00d1
ENCODING 209
SWIDTH 1000 0
DWIDTH 6 0
BBX 6 13 0 -2
BITMAP
00
00
00
00
FC
00
FC
10
10
10
10
10
10
ENDCHAR

STARTCHAR C00d2
ENCODING 210
SWIDTH 1000 0
DWIDTH 6 0
BBX 6 13 0 -2
BITMAP
00
00
00
00
00
FC
28
28
28
28
28
28
28
ENDCHAR

STARTCHAR C00d3
ENCODING 211
SWIDTH 1000 0
DWIDTH 6 0
BBX 6 13 0 -2
BITMAP
28
28
28
28
28
28
3C
00
00
00
00
00
00
ENDCHAR

STARTCHAR C00d4
ENCODING 212
SWIDTH 1000 0
DWIDTH 6 0
BBX 6 13 0 -2
BITMAP
10
10
10
10
1C
10
1C
00
00
00
00
00
00
ENDCHAR

STARTCHAR C00d5
ENCODING 213
SWIDTH 1000 0
DWIDTH 6 0
BBX 6 13 0 -2
BITMAP
00
00
00
00
1C
10
1C
10
10
10
10
10
10
ENDCHAR

STARTCHAR C00d6
ENCODING 214
SWIDTH 1000 0
DWIDTH 6 0
BBX 6 13 0 -2
BITMAP
00
00
00
00
00
3C
28
28
28
28
28
28
28
ENDCHAR

STARTCHAR C00d7
ENCODING 215
SWIDTH 1000 0
DWIDTH 6 0
BBX 6 13 0 -2
BITMAP
28
28
28
28
28
FC
28
28
28
28
28
28
28
ENDCHAR

STARTCHAR C00d8
ENCODING 216
SWIDTH 1000 0
DWIDTH 6 0
BBX 6 13 0 -2
BITMAP
10
10
10
10
FC
10
FC
10
10
10
10
10
10
ENDCHAR

STARTCHAR C00d9
ENCODING 217
SWIDTH 1000 0
DWIDTH 6 0
BBX 6 13 0 -2
BITMAP
10
10
10
10
10
F0
00
00
00
00
00
00
00
ENDCHAR

STARTCHAR C00da
ENCODING 218
SWIDTH 1000 0
DWIDTH 6 0
BBX 6 13 0 -2
BITMAP
00
00
00
00
00
1C
10
10
10
10
10
10
10
ENDCHAR

STARTCHAR C00db
ENCODING 219
SWIDTH 1000 0
DWIDTH 6 0
BBX 6 13 0 -2
BITMAP
FC
FC
FC
FC
FC
FC
FC
FC
FC
FC
FC
FC
FC
ENDCHAR

STARTCHAR C00dc
ENCODING 220
SWIDTH 1000 0
DWIDTH 6 0
BBX 6 13 0 -2
BITMAP
00
00
00
00
00
00
FC
FC
FC
FC
FC
FC
FC
ENDCHAR

STARTCHAR C00dd
ENCODING 221
SWIDTH 1000 0
DWIDTH 6 0
BBX 6 13 0 -2
BITMAP
E0
E0
E0
E0
E0
E0
E0
E0
E0
E0
E0
E0
E0
ENDCHAR

STARTCHAR C00de
ENCODING 222
SWIDTH 1000 0
DWIDTH 6 0
BBX 6 13 0 -2
BITMAP
1C
1C
1C
1C
1C
1C
1C
1C
1C
1C
1C
1C
1C
ENDCHAR

STARTCHAR C00df
ENCODING 223
SWIDTH 1000 0
DWIDTH 6 0
BBX 6 13 0 -2
BITMAP
FC
FC
FC
FC
FC
FC
00
00
00
00
00
00
00
ENDCHAR

STARTCHAR C00e0
ENCODING 224
SWIDTH 1000 0
DWIDTH 6 0
BBX 6 13 0 -2
BITMAP
00
00
00
00
34
48
48
48
34
00
00
00
00
ENDCHAR

STARTCHAR C00e1
ENCODING 225
SWIDTH 1000 0
DWIDTH 6 0
BBX 6 13 0 -2
BITMAP
00
00
70
48
48
48
50
48
44
44
44
58
00
ENDCHAR

STARTCHAR C00e2
ENCODING 226
SWIDTH 1000 0
DWIDTH 6 0
BBX 6 13 0 -2
BITMAP
00
00
7C
44
44
40
40
40
40
40
40
40
00
ENDCHAR

STARTCHAR C00e3
ENCODING 227
SWIDTH 1000 0
DWIDTH 6 0
BBX 6 13 0 -2
BITMAP
00
00
00
00
00
00
7C
28
28
28
28
48
00
ENDCHAR

STARTCHAR C00e4
ENCODING 228
SWIDTH 1000 0
DWIDTH 6 0
BBX 6 13 0 -2
BITMAP
00
00
7C
44
20
10
08
08
10
20
44
7C
00
ENDCHAR

STARTCHAR C00e5
ENCODING 229
SWIDTH 1000 0
DWIDTH 6 0
BBX 6 13 0 -2
BITMAP
00
00
00
00
00
00
3C
48
48
48
48
30
00
ENDCHAR

STARTCHAR C00e6
ENCODING 230
SWIDTH 1000 0
DWIDTH 6 0
BBX 6 13 0 -2
BITMAP
00
00
00
00
00
00
24
24
24
24
24
58
40
ENDCHAR

STARTCHAR C00e7
ENCODING 231
SWIDTH 1000 0
DWIDTH 6 0
BBX 6 13 0 -2
BITMAP
00
00
00
00
00
2C
50
10
10
10
10
10
00
ENDCHAR

STARTCHAR C00e8
ENCODING 232
SWIDTH 1000 0
DWIDTH 6 0
BBX 6 13 0 -2
BITMAP
00
00
00
00
00
7C
10
28
44
28
10
7C
00
ENDCHAR

STARTCHAR C00e9
ENCODING 233
SWIDTH 1000 0
DWIDTH 6 0
BBX 6 13 0 -2
BITMAP
00
00
00
38
44
44
44
7C
44
44
44
38
00
ENDCHAR

STARTCHAR C00ea
ENCODING 234
SWIDTH 1000 0
DWIDTH 6 0
BBX 6 13 0 -2
BITMAP
00
00
00
00
00
38
44
44
44
28
28
44
00
ENDCHAR

STARTCHAR C00eb
ENCODING 235
SWIDTH 1000 0
DWIDTH 6 0
BBX 6 13 0 -2
BITMAP
00
00
00
00
18
20
10
38
44
44
44
38
00
ENDCHAR

STARTCHAR C00ec
ENCODING 236
SWIDTH 1000 0
DWIDTH 6 0
BBX 6 13 0 -2
BITMAP
00
00
00
00
00
28
54
54
54
28
00
00
00
ENDCHAR

STARTCHAR C00ed
ENCODING 237
SWIDTH 1000 0
DWIDTH 6 0
BBX 6 13 0 -2
BITMAP
00
00
00
04
08
28
54
54
54
28
20
40
00
ENDCHAR

STARTCHAR C00ee
ENCODING 238
SWIDTH 1000 0
DWIDTH 6 0
BBX 6 13 0 -2
BITMAP
00
00
18
20
20
40
40
70
40
40
20
20
18
ENDCHAR

STARTCHAR C00ef
ENCODING 239
SWIDTH 1000 0
DWIDTH 6 0
BBX 6 13 0 -2
BITMAP
00
00
00
38
44
44
44
44
44
44
44
00
00
ENDCHAR

STARTCHAR C00f0
ENCODING 240
SWIDTH 1000 0
DWIDTH 6 0
BBX 6 13 0 -2
BITMAP
00
00
00
00
00
7C
00
7C
00
7C
00
00
00
ENDCHAR

STARTCHAR C00f1
ENCODING 241
SWIDTH 1000 0
DWIDTH 6 0
BBX 6 13 0 -2
BITMAP
00
00
00
10
10
7C
10
10
00
7C
00
00
00
ENDCHAR

STARTCHAR C00f2
ENCODING 242
SWIDTH 1000 0
DWIDTH 6 0
BBX 6 13 0 -2
BITMAP
00
00
00
40
20
10
08
10
20
40
7C
00
00
ENDCHAR

STARTCHAR C00f3
ENCODING 243
SWIDTH 1000 0
DWIDTH 6 0
BBX 6 13 0 -2
BITMAP
00
00
00
04
08
10
20
10
08
04
7C
00
00
ENDCHAR

STARTCHAR C00f4
ENCODING 244
SWIDTH 1000 0
DWIDTH 6 0
BBX 6 13 0 -2
BITMAP
00
00
00
08
14
10
10
10
10
10
10
10
10
ENDCHAR

STARTCHAR C00f5
ENCODING 245
SWIDTH 1000 0
DWIDTH 6 0
BBX 6 13 0 -2
BITMAP
10
10
10
10
10
10
10
10
50
20
00
00
00
ENDCHAR

STARTCHAR C00f6
ENCODING 246
SWIDTH 1000 0
DWIDTH 6 0
BBX 6 13 0 -2
BITMAP
00
00
00
10
10
00
7C
00
10
10
00
00
00
ENDCHAR

STARTCHAR C00f7
ENCODING 247
SWIDTH 1000 0
DWIDTH 6 0
BBX 6 13 0 -2
BITMAP
00
00
00
00
04
7C
10
7C
40
00
00
00
00
ENDCHAR

STARTCHAR C00f8
ENCODING 248
SWIDTH 1000 0
DWIDTH 6 0
BBX 6 13 0 -2
BITMAP
00
00
30
48
48
30
00
00
00
00
00
00
00
ENDCHAR

STARTCHAR C00f9
ENCODING 249
SWIDTH 1000 0
DWIDTH 6 0
BBX 6 13 0 -2
BITMAP
00
00
00
00
00
30
30
00
00
00
00
00
00
ENDCHAR

STARTCHAR C00fa
ENCODING 250
SWIDTH 1000 0
DWIDTH 6 0
BBX 6 13 0 -2
BITMAP
00
00
00
00
00
00
10
00
00
00
00
00
00
ENDCHAR

STARTCHAR C00fb
ENCODING 251
SWIDTH 1000 0
DWIDTH 6 0
BBX 6 13 0 -2
BITMAP
00
00
00
0C
08
08
48
28
28
10
00
00
00
ENDCHAR

STARTCHAR C00fc
ENCODING 252
SWIDTH 1000 0
DWIDTH 6 0
BBX 6 13 0 -2
BITMAP
00
00
50
28
28
28
00
00
00
00
00
00
00
ENDCHAR

STARTCHAR C00fd
ENCODING 253
SWIDTH 1000 0
DWIDTH 6 0
BBX 6 13 0 -2
BITMAP
00
00
10
28
08
10
38
00
00
00
00
00
00
ENDCHAR

STARTCHAR C00fe
ENCODING 254
SWIDTH 1000 0
DWIDTH 6 0
BBX 6 13 0 -2
BITMAP
00
00
00
00
00
38
38
38
00
00
00
00
00
ENDCHAR

STARTCHAR C00ff
ENCODING 255
SWIDTH 1000 0
DWIDTH 6 0
BBX 6 13 0 -2
BITMAP
00
00
00
00
00
00
00
00
00
00
00
00
00
ENDCHAR

ENDFONT
