STARTFONT 2.1
FONT vga11x19
SIZE 18 75 75
FONTBOUNDINGBOX 11 19 0 -3

STARTPROPERTIES 10
COPYRIGHT "Copyright Bigelow & Holmes 1986, 1985."
POINT_SIZE 180
WEIGHT 10
RESOLUTION_X 75
RESOLUTION_Y 75
X_HEIGHT 10
QUAD_WIDTH 11
DEFAULT_CHAR 0
FONT_DESCENT 3
FONT_ASCENT 16
ENDPROPERTIES

CHARS 256

STARTCHAR space0
ENCODING 0
SWIDTH 586 0
DWIDTH 11 0
BBX 11 19 0 -3
BITMAP
0000
0000
0000
0000
0000
0000
0000
0000
0000
0000
0000
0000
0000
0000
0000
0000
0000
0000
0000
ENDCHAR

STARTCHAR vga1
ENCODING 1
SWIDTH 586 0
DWIDTH 11 0
BBX 11 19 0 -3
BITMAP
0000
0000
0000
0000
1F80
2040
2940
2040
2040
2940
2640
2040
2040
1F80
0000
0000
0000
0000
0000
ENDCHAR

STARTCHAR vga2
ENCODING 2
SWIDTH 586 0
DWIDTH 11 0
BBX 11 19 0 -3
BITMAP
0000
0000
0000
0000
1F80
3FC0
36C0
3FC0
3FC0
36C0
39C0
3FC0
3FC0
1F80
0000
0000
0000
0000
0000
ENDCHAR

STARTCHAR vga3
ENCODING 3
SWIDTH 586 0
DWIDTH 11 0
BBX 11 19 0 -3
BITMAP
0000
0000
0000
0000
0000
0000
1B00
3F80
3F80
3F80
3F80
1F00
0E00
0400
0000
0000
0000
0000
0000
ENDCHAR

STARTCHAR vga4
ENCODING 4
SWIDTH 586 0
DWIDTH 11 0
BBX 11 19 0 -3
BITMAP
0000
0000
0000
0000
0000
0000
0400
0E00
1F00
3F80
1F00
0E00
0400
0000
0000
0000
0000
0000
0000
ENDCHAR

STARTCHAR vga5
ENCODING 5
SWIDTH 586 0
DWIDTH 11 0
BBX 11 19 0 -3
BITMAP
0000
0000
0000
0000
0000
0600
0F00
0F00
39C0
39C0
39C0
0600
0600
0F00
0000
0000
0000
0000
0000
ENDCHAR

STARTCHAR vga6
ENCODING 6
SWIDTH 586 0
DWIDTH 11 0
BBX 11 19 0 -3
BITMAP
0000
0000
0000
0000
0000
0600
0F00
1F80
3FC0
3FC0
1F80
0600
0600
0F00
0000
0000
0000
0000
0000
ENDCHAR

STARTCHAR vga7
ENCODING 7
SWIDTH 586 0
DWIDTH 11 0
BBX 11 19 0 -3
BITMAP
0000
0000
0000
0000
0000
0000
0000
0000
0600
0F00
0F00
0600
0000
0000
0000
0000
0000
0000
0000
ENDCHAR

STARTCHAR vga8
ENCODING 8
SWIDTH 586 0
DWIDTH 11 0
BBX 11 19 0 -3
BITMAP
0000
0000
3FC0
3FC0
3FC0
3FC0
3FC0
3FC0
39C0
30C0
30C0
39C0
3FC0
3FC0
3FC0
3FC0
3FC0
3FC0
0000
ENDCHAR

STARTCHAR vga9
ENCODING 9
SWIDTH 586 0
DWIDTH 11 0
BBX 11 19 0 -3
BITMAP
0000
0000
0000
0000
0000
0000
0000
0F00
1980
1080
1080
1980
0F00
0000
0000
0000
0000
0000
0000
ENDCHAR

STARTCHAR vga10
ENCODING 10
SWIDTH 586 0
DWIDTH 11 0
BBX 11 19 0 -3
BITMAP
0000
0000
3FC0
3FC0
3FC0
3FC0
3FC0
30C0
2640
2F40
2F40
2640
30C0
3FC0
3FC0
3FC0
3FC0
3FC0
0000
ENDCHAR

STARTCHAR vga11
ENCODING 11
SWIDTH 586 0
DWIDTH 11 0
BBX 11 19 0 -3
BITMAP
0000
0000
0000
0000
0780
0180
0380
0680
1E00
3300
3300
3300
3300
1E00
0000
0000
0000
0000
0000
ENDCHAR

STARTCHAR vga12
ENCODING 12
SWIDTH 586 0
DWIDTH 11 0
BBX 11 19 0 -3
BITMAP
0000
0000
0000
0000
0F00
1980
1980
1980
1980
0F00
0600
1F80
0600
0600
0000
0000
0000
0000
0000
ENDCHAR

STARTCHAR vga13
ENCODING 13
SWIDTH 586 0
DWIDTH 11 0
BBX 11 19 0 -3
BITMAP
0000
0000
0000
0000
0FC0
0CC0
0FC0
0C00
0C00
0C00
0C00
1C00
3C00
3800
0000
0000
0000
0000
0000
ENDCHAR

STARTCHAR vga14
ENCODING 14
SWIDTH 586 0
DWIDTH 11 0
BBX 11 19 0 -3
BITMAP
0000
0000
0000
0000
1FC0
18C0
1FC0
18C0
18C0
18C0
18C0
19C0
39C0
3980
3000
0000
0000
0000
0000
ENDCHAR

STARTCHAR vga15
ENCODING 15
SWIDTH 586 0
DWIDTH 11 0
BBX 11 19 0 -3
BITMAP
0000
0000
0000
0000
0000
0600
0600
36C0
0F00
39C0
0F00
36C0
0600
0600
0000
0000
0000
0000
0000
ENDCHAR

STARTCHAR righttriangle
ENCODING 16
SWIDTH 586 0
DWIDTH 11 0
BBX 11 19 0 -3
BITMAP
0000
0000
0000
0000
2000
3000
3800
3C00
3E00
3F00
3E00
3C00
3800
3000
2000
0000
0000
0000
0000
ENDCHAR

STARTCHAR lefttriangle
ENCODING 17
SWIDTH 586 0
DWIDTH 11 0
BBX 11 19 0 -3
BITMAP
0000
0000
0000
0000
0080
0180
0380
0780
0F80
1F80
0F80
0780
0380
0180
0080
0000
0000
0000
0000
ENDCHAR

STARTCHAR updownarrow
ENCODING 18
SWIDTH 586 0
DWIDTH 11 0
BBX 11 19 0 -3
BITMAP
0000
0000
0000
0400
0E00
1500
2480
0400
0400
0400
0400
0400
2480
1500
0E00
0400
0000
0000
0000
ENDCHAR

STARTCHAR vga19
ENCODING 19
SWIDTH 586 0
DWIDTH 11 0
BBX 11 19 0 -3
BITMAP
0000
0000
0000
0000
1980
1980
1980
1980
1980
1980
1980
0000
1980
1980
0000
0000
0000
0000
0000
ENDCHAR

STARTCHAR paragraph
ENCODING 20
SWIDTH 586 0
DWIDTH 11 0
BBX 11 19 0 -3
BITMAP
0000
0000
0000
3F80
7C80
7C80
7C80
3C80
1C80
0480
0480
0480
0480
0480
0480
0480
0480
0480
0000
ENDCHAR

STARTCHAR section
ENCODING 21
SWIDTH 586 0
DWIDTH 11 0
BBX 11 19 0 -3
BITMAP
0000
0000
0000
1F80
38C0
3000
3800
1E00
1780
31C0
30C0
38C0
1E80
0780
01C0
00C0
31C0
1F80
0000
ENDCHAR

STARTCHAR vga22
ENCODING 22
SWIDTH 586 0
DWIDTH 11 0
BBX 11 19 0 -3
BITMAP
0000
0000
0000
0000
0000
0000
0000
0000
0000
0000
3F80
3F80
3F80
3F80
0000
0000
0000
0000
0000
ENDCHAR

STARTCHAR vga23
ENCODING 23
SWIDTH 586 0
DWIDTH 11 0
BBX 11 19 0 -3
BITMAP
0000
0000
0000
0000
0600
0F00
1F80
0600
0600
0600
1F80
0F00
0600
1F80
0000
0000
0000
0000
0000
ENDCHAR

STARTCHAR uparrow
ENCODING 24
SWIDTH 586 0
DWIDTH 11 0
BBX 11 19 0 -3
BITMAP
0000
0000
0000
0400
0E00
1500
2480
0400
0400
0400
0400
0400
0400
0400
0400
0400
0000
0000
0000
ENDCHAR

STARTCHAR downarrow
ENCODING 25
SWIDTH 586 0
DWIDTH 11 0
BBX 11 19 0 -3
BITMAP
0000
0000
0000
0400
0400
0400
0400
0400
0400
0400
0400
0400
2480
1500
0E00
0400
0000
0000
0000
ENDCHAR

STARTCHAR vga26
ENCODING 26
SWIDTH 586 0
DWIDTH 11 0
BBX 11 19 0 -3
BITMAP
0000
0000
0000
0000
0000
0000
0000
0600
0300
3F80
0300
0600
0000
0000
0000
0000
0000
0000
0000
ENDCHAR

STARTCHAR vga27
ENCODING 27
SWIDTH 586 0
DWIDTH 11 0
BBX 11 19 0 -3
BITMAP
0000
0000
0000
0000
0000
0000
0000
0C00
1800
3F80
1800
0C00
0000
0000
0000
0000
0000
0000
0000
ENDCHAR

STARTCHAR vga28
ENCODING 28
SWIDTH 586 0
DWIDTH 11 0
BBX 11 19 0 -3
BITMAP
0000
0000
0000
0000
0000
0000
0000
0000
3000
3000
3000
3F80
0000
0000
0000
0000
0000
0000
0000
ENDCHAR

STARTCHAR vga29
ENCODING 29
SWIDTH 586 0
DWIDTH 11 0
BBX 11 19 0 -3
BITMAP
0000
0000
0000
0000
0000
0000
0000
0A00
1B00
3F80
1B00
0A00
0000
0000
0000
0000
0000
0000
0000
ENDCHAR

STARTCHAR vga30
ENCODING 30
SWIDTH 586 0
DWIDTH 11 0
BBX 11 19 0 -3
BITMAP
0000
0000
0000
0000
0000
0000
0400
0E00
0E00
1F00
1F00
3F80
3F80
0000
0000
0000
0000
0000
0000
ENDCHAR

STARTCHAR vga31
ENCODING 31
SWIDTH 586 0
DWIDTH 11 0
BBX 11 19 0 -3
BITMAP
0000
0000
0000
0000
0000
0000
3F80
3F80
1F00
1F00
0E00
0E00
0400
0000
0000
0000
0000
0000
0000
ENDCHAR

STARTCHAR space
ENCODING 32
SWIDTH 586 0
DWIDTH 11 0
BBX 11 19 0 -3
BITMAP
0000
0000
0000
0000
0000
0000
0000
0000
0000
0000
0000
0000
0000
0000
0000
0000
0000
0000
0000
ENDCHAR

STARTCHAR exclam
ENCODING 33
SWIDTH 586 0
DWIDTH 11 0
BBX 11 19 0 -3
BITMAP
0000
0000
0000
0600
0600
0600
0600
0600
0600
0600
0600
0200
0000
0000
0600
0600
0000
0000
0000
ENDCHAR

STARTCHAR quotedbl
ENCODING 34
SWIDTH 586 0
DWIDTH 11 0
BBX 11 19 0 -3
BITMAP
0000
0000
1980
1980
1980
1100
0000
0000
0000
0000
0000
0000
0000
0000
0000
0000
0000
0000
0000
ENDCHAR

STARTCHAR numbersign
ENCODING 35
SWIDTH 586 0
DWIDTH 11 0
BBX 11 19 0 -3
BITMAP
0000
0000
0000
0CC0
0CC0
0CC0
0880
7FE0
1100
3300
3300
FFC0
2200
6600
6600
6600
0000
0000
0000
ENDCHAR

STARTCHAR dollar
ENCODING 36
SWIDTH 586 0
DWIDTH 11 0
BBX 11 19 0 -3
BITMAP
0000
0000
0200
0F80
12C0
3200
3200
3A00
1E00
0F00
0780
05C0
04C0
04C0
3480
1F00
0400
0000
0000
ENDCHAR

STARTCHAR percent
ENCODING 37
SWIDTH 586 0
DWIDTH 11 0
BBX 11 19 0 -3
BITMAP
0000
0000
0000
7000
D840
8840
8880
8900
DA00
75C0
0B60
1220
2220
4220
4360
01C0
0000
0000
0000
ENDCHAR

STARTCHAR ampersand
ENCODING 38
SWIDTH 586 0
DWIDTH 11 0
BBX 11 19 0 -3
BITMAP
0000
0000
0000
3C00
6600
6600
6600
3400
3800
6CC0
CCC0
C680
C300
C380
6EC0
3860
0000
0000
0000
ENDCHAR

STARTCHAR apostrophe
ENCODING 39
SWIDTH 586 0
DWIDTH 11 0
BBX 11 19 0 -3
BITMAP
0000
0000
0E00
0E00
0E00
0600
0C00
0000
0000
0000
0000
0000
0000
0000
0000
0000
0000
0000
0000
ENDCHAR

STARTCHAR parenleft
ENCODING 40
SWIDTH 586 0
DWIDTH 11 0
BBX 11 19 0 -3
BITMAP
0000
0000
00C0
0300
0600
0C00
0C00
1800
1800
1800
1800
1800
1800
0C00
0C00
0600
0300
00C0
0000
ENDCHAR

STARTCHAR parenright
ENCODING 41
SWIDTH 586 0
DWIDTH 11 0
BBX 11 19 0 -3
BITMAP
0000
0000
6000
1800
0C00
0600
0600
0300
0300
0300
0300
0300
0300
0600
0600
0C00
1800
6000
0000
ENDCHAR

STARTCHAR asterisk
ENCODING 42
SWIDTH 586 0
DWIDTH 11 0
BBX 11 19 0 -3
BITMAP
0000
0000
0400
0400
2480
3B80
0400
1B00
1100
0000
0000
0000
0000
0000
0000
0000
0000
0000
0000
ENDCHAR

STARTCHAR plus
ENCODING 43
SWIDTH 586 0
DWIDTH 11 0
BBX 11 19 0 -3
BITMAP
0000
0000
0000
0000
0000
0000
0400
0400
0400
0400
7FC0
0400
0400
0400
0400
0000
0000
0000
0000
ENDCHAR

STARTCHAR comma
ENCODING 44
SWIDTH 586 0
DWIDTH 11 0
BBX 11 19 0 -3
BITMAP
0000
0000
0000
0000
0000
0000
0000
0000
0000
0000
0000
0000
0000
0E00
0E00
0E00
0600
0C00
0000
ENDCHAR

STARTCHAR minus
ENCODING 45
SWIDTH 586 0
DWIDTH 11 0
BBX 11 19 0 -3
BITMAP
0000
0000
0000
0000
0000
0000
0000
0000
0000
0000
7FC0
0000
0000
0000
0000
0000
0000
0000
0000
ENDCHAR

STARTCHAR period
ENCODING 46
SWIDTH 586 0
DWIDTH 11 0
BBX 11 19 0 -3
BITMAP
0000
0000
0000
0000
0000
0000
0000
0000
0000
0000
0000
0000
0000
0E00
0E00
0E00
0000
0000
0000
ENDCHAR

STARTCHAR slash
ENCODING 47
SWIDTH 586 0
DWIDTH 11 0
BBX 11 19 0 -3
BITMAP
0000
0000
0040
00C0
0080
0180
0100
0300
0200
0600
0C00
0800
1800
1000
3000
2000
6000
4000
0000
ENDCHAR

STARTCHAR 0
ENCODING 48
SWIDTH 586 0
DWIDTH 11 0
BBX 11 19 0 -3
BITMAP
0000
0000
0000
1F00
3180
2080
60C0
60C0
60C0
60C0
60C0
60C0
60C0
2080
3180
1F00
0000
0000
0000
ENDCHAR

STARTCHAR 1
ENCODING 49
SWIDTH 586 0
DWIDTH 11 0
BBX 11 19 0 -3
BITMAP
0000
0000
0000
0600
3E00
0600
0600
0600
0600
0600
0600
0600
0600
0600
0600
0600
0000
0000
0000
ENDCHAR

STARTCHAR 2
ENCODING 50
SWIDTH 586 0
DWIDTH 11 0
BBX 11 19 0 -3
BITMAP
0000
0000
0000
3F00
6380
0180
0180
0180
0300
0600
0C00
1800
3000
6000
7F80
7F80
0000
0000
0000
ENDCHAR

STARTCHAR 3
ENCODING 51
SWIDTH 586 0
DWIDTH 11 0
BBX 11 19 0 -3
BITMAP
0000
0000
0000
3F00
6380
0180
0180
0300
1E00
0300
0180
0180
0180
0180
6380
3F00
0000
0000
0000
ENDCHAR

STARTCHAR 4
ENCODING 52
SWIDTH 586 0
DWIDTH 11 0
BBX 11 19 0 -3
BITMAP
0000
0000
0000
0180
0380
0780
0D80
0980
1980
3180
6180
7FE0
7FE0
0180
0180
0180
0000
0000
0000
ENDCHAR

STARTCHAR 5
ENCODING 53
SWIDTH 586 0
DWIDTH 11 0
BBX 11 19 0 -3
BITMAP
0000
0000
0000
3FC0
3FC0
2000
2000
2000
3E00
0780
01C0
00C0
00C0
00C0
31C0
1F80
0000
0000
0000
ENDCHAR

STARTCHAR 6
ENCODING 54
SWIDTH 586 0
DWIDTH 11 0
BBX 11 19 0 -3
BITMAP
0000
0000
0000
0F00
3980
3000
6000
6000
6F00
7180
60C0
60C0
60C0
70C0
3980
1F00
0000
0000
0000
ENDCHAR

STARTCHAR 7
ENCODING 55
SWIDTH 586 0
DWIDTH 11 0
BBX 11 19 0 -3
BITMAP
0000
0000
0000
7FC0
7FC0
0180
0300
0600
0600
0C00
0C00
1800
1800
3000
3000
3000
0000
0000
0000
ENDCHAR

STARTCHAR 8
ENCODING 56
SWIDTH 586 0
DWIDTH 11 0
BBX 11 19 0 -3
BITMAP
0000
0000
0000
1F00
3180
60C0
60C0
7080
3D00
1F00
3380
61C0
60C0
60C0
3180
1F00
0000
0000
0000
ENDCHAR

STARTCHAR 9
ENCODING 57
SWIDTH 586 0
DWIDTH 11 0
BBX 11 19 0 -3
BITMAP
0000
0000
0000
1F00
3380
61C0
60C0
60C0
60C0
31C0
1EC0
00C0
0080
0180
6300
3E00
0000
0000
0000
ENDCHAR

STARTCHAR colon
ENCODING 58
SWIDTH 586 0
DWIDTH 11 0
BBX 11 19 0 -3
BITMAP
0000
0000
0000
0000
0000
0000
0E00
0E00
0000
0000
0000
0000
0000
0000
0E00
0E00
0000
0000
0000
ENDCHAR

STARTCHAR semicolon
ENCODING 59
SWIDTH 586 0
DWIDTH 11 0
BBX 11 19 0 -3
BITMAP
0000
0000
0000
0000
0000
0000
0E00
0E00
0000
0000
0000
0000
0000
0000
0E00
0E00
0600
0C00
0000
ENDCHAR

STARTCHAR less
ENCODING 60
SWIDTH 586 0
DWIDTH 11 0
BBX 11 19 0 -3
BITMAP
0000
0000
0000
0000
0000
0000
00C0
0380
0E00
3800
E000
3800
0E00
0380
00C0
0000
0000
0000
0000
ENDCHAR

STARTCHAR equal
ENCODING 61
SWIDTH 586 0
DWIDTH 11 0
BBX 11 19 0 -3
BITMAP
0000
0000
0000
0000
0000
0000
0000
0000
0000
7FC0
0000
0000
7FC0
0000
0000
0000
0000
0000
0000
ENDCHAR

STARTCHAR greater
ENCODING 62
SWIDTH 586 0
DWIDTH 11 0
BBX 11 19 0 -3
BITMAP
0000
0000
0000
0000
0000
0000
6000
3800
0E00
0380
00E0
0380
0E00
3800
6000
0000
0000
0000
0000
ENDCHAR

STARTCHAR question
ENCODING 63
SWIDTH 586 0
DWIDTH 11 0
BBX 11 19 0 -3
BITMAP
0000
0000
0000
3F00
6380
0180
0180
0300
0C00
1800
1800
1800
0000
0000
1800
1800
0000
0000
0000
ENDCHAR

STARTCHAR at
ENCODING 64
SWIDTH 586 0
DWIDTH 11 0
BBX 11 19 0 -3
BITMAP
0000
0000
0000
0780
18C0
30C0
27C0
4CC0
4CC0
4CC0
4CC0
4FC0
26E0
3000
1800
07C0
0000
0000
0000
ENDCHAR

STARTCHAR A
ENCODING 65
SWIDTH 586 0
DWIDTH 11 0
BBX 11 19 0 -3
BITMAP
0000
0000
0000
0600
0600
0F00
0B00
0980
1980
1180
10C0
3FC0
20C0
6060
6060
6060
0000
0000
0000
ENDCHAR

STARTCHAR B
ENCODING 66
SWIDTH 586 0
DWIDTH 11 0
BBX 11 19 0 -3
BITMAP
0000
0000
0000
3F80
31C0
30C0
30C0
30C0
3180
3F00
3180
30C0
30C0
30C0
31C0
3F80
0000
0000
0000
ENDCHAR

STARTCHAR C
ENCODING 67
SWIDTH 586 0
DWIDTH 11 0
BBX 11 19 0 -3
BITMAP
0000
0000
0000
0F80
18C0
3000
3000
6000
6000
6000
6000
6000
3000
3000
18C0
0F80
0000
0000
0000
ENDCHAR

STARTCHAR D
ENCODING 68
SWIDTH 586 0
DWIDTH 11 0
BBX 11 19 0 -3
BITMAP
0000
0000
0000
7E00
6380
6180
60C0
60C0
60C0
60C0
60C0
60C0
6180
6180
6700
7C00
0000
0000
0000
ENDCHAR

STARTCHAR E
ENCODING 69
SWIDTH 586 0
DWIDTH 11 0
BBX 11 19 0 -3
BITMAP
0000
0000
0000
3FC0
3000
3000
3000
3000
3000
3F80
3000
3000
3000
3000
3000
3FC0
0000
0000
0000
ENDCHAR

STARTCHAR F
ENCODING 70
SWIDTH 586 0
DWIDTH 11 0
BBX 11 19 0 -3
BITMAP
0000
0000
0000
3FC0
3000
3000
3000
3000
3000
3F80
3000
3000
3000
3000
3000
3000
0000
0000
0000
ENDCHAR

STARTCHAR G
ENCODING 71
SWIDTH 586 0
DWIDTH 11 0
BBX 11 19 0 -3
BITMAP
0000
0000
0000
0F80
18C0
3000
3000
6000
6000
6000
60C0
60C0
30C0
30C0
18C0
0FC0
0000
0000
0000
ENDCHAR

STARTCHAR H
ENCODING 72
SWIDTH 586 0
DWIDTH 11 0
BBX 11 19 0 -3
BITMAP
0000
0000
0000
60C0
60C0
60C0
60C0
60C0
60C0
7FC0
60C0
60C0
60C0
60C0
60C0
60C0
0000
0000
0000
ENDCHAR

STARTCHAR I
ENCODING 73
SWIDTH 586 0
DWIDTH 11 0
BBX 11 19 0 -3
BITMAP
0000
0000
0000
3FC0
0600
0600
0600
0600
0600
0600
0600
0600
0600
0600
0600
3FC0
0000
0000
0000
ENDCHAR

STARTCHAR J
ENCODING 74
SWIDTH 586 0
DWIDTH 11 0
BBX 11 19 0 -3
BITMAP
0000
0000
0000
1F80
0180
0180
0180
0180
0180
0180
0180
0180
0180
2180
2300
3C00
0000
0000
0000
ENDCHAR

STARTCHAR K
ENCODING 75
SWIDTH 586 0
DWIDTH 11 0
BBX 11 19 0 -3
BITMAP
0000
0000
0000
60C0
6180
6300
6600
6C00
7800
7800
6C00
6600
6300
6180
60C0
6060
0000
0000
0000
ENDCHAR

STARTCHAR L
ENCODING 76
SWIDTH 586 0
DWIDTH 11 0
BBX 11 19 0 -3
BITMAP
0000
0000
0000
3000
3000
3000
3000
3000
3000
3000
3000
3000
3000
3000
3000
3FC0
0000
0000
0000
ENDCHAR

STARTCHAR M
ENCODING 77
SWIDTH 586 0
DWIDTH 11 0
BBX 11 19 0 -3
BITMAP
0000
0000
0000
7060
70E0
70E0
70E0
5960
5960
5960
5960
4E60
4E60
4460
4460
4060
0000
0000
0000
ENDCHAR

STARTCHAR N
ENCODING 78
SWIDTH 586 0
DWIDTH 11 0
BBX 11 19 0 -3
BITMAP
0000
0000
0000
6040
7040
7040
5840
4C40
4C40
4640
4340
4340
41C0
41C0
40C0
4040
0000
0000
0000
ENDCHAR

STARTCHAR O
ENCODING 79
SWIDTH 586 0
DWIDTH 11 0
BBX 11 19 0 -3
BITMAP
0000
0000
0000
0F00
1980
30C0
30C0
6060
6060
6060
6060
6060
30C0
30C0
1980
0F00
0000
0000
0000
ENDCHAR

STARTCHAR P
ENCODING 80
SWIDTH 586 0
DWIDTH 11 0
BBX 11 19 0 -3
BITMAP
0000
0000
0000
3F80
31C0
30C0
30C0
30C0
30C0
3180
3E00
3000
3000
3000
3000
3000
0000
0000
0000
ENDCHAR

STARTCHAR Q
ENCODING 81
SWIDTH 586 0
DWIDTH 11 0
BBX 11 19 0 -3
BITMAP
0000
0000
0000
0F00
1980
30C0
30C0
6060
6060
6060
6060
6060
30C0
30C0
1980
0F00
0300
01C0
00E0
ENDCHAR

STARTCHAR R
ENCODING 82
SWIDTH 586 0
DWIDTH 11 0
BBX 11 19 0 -3
BITMAP
0000
0000
0000
3F00
3380
3180
3180
3180
3300
3C00
3600
3300
3300
3180
30C0
30C0
0000
0000
0000
ENDCHAR

STARTCHAR S
ENCODING 83
SWIDTH 586 0
DWIDTH 11 0
BBX 11 19 0 -3
BITMAP
0000
0000
0000
0F80
18C0
3000
3000
3800
1E00
0780
01C0
00C0
00C0
00C0
3180
1F00
0000
0000
0000
ENDCHAR

STARTCHAR T
ENCODING 84
SWIDTH 586 0
DWIDTH 11 0
BBX 11 19 0 -3
BITMAP
0000
0000
0000
7FE0
0600
0600
0600
0600
0600
0600
0600
0600
0600
0600
0600
0600
0000
0000
0000
ENDCHAR

STARTCHAR U
ENCODING 85
SWIDTH 586 0
DWIDTH 11 0
BBX 11 19 0 -3
BITMAP
0000
0000
0000
60C0
60C0
60C0
60C0
60C0
60C0
60C0
60C0
60C0
60C0
3180
3B80
0E00
0000
0000
0000
ENDCHAR

STARTCHAR V
ENCODING 86
SWIDTH 586 0
DWIDTH 11 0
BBX 11 19 0 -3
BITMAP
0000
0000
0000
6060
6060
6060
3040
3040
30C0
1880
1880
1880
0D00
0D00
0600
0600
0000
0000
0000
ENDCHAR

STARTCHAR W
ENCODING 87
SWIDTH 586 0
DWIDTH 11 0
BBX 11 19 0 -3
BITMAP
0000
0000
0000
C020
C020
C620
C660
6640
6740
6F40
6B40
7BC0
3B80
3180
3180
3180
0000
0000
0000
ENDCHAR

STARTCHAR X
ENCODING 88
SWIDTH 586 0
DWIDTH 11 0
BBX 11 19 0 -3
BITMAP
0000
0000
0000
60C0
60C0
30C0
3180
1900
0E00
0E00
0E00
1300
3180
6180
60C0
60C0
0000
0000
0000
ENDCHAR

STARTCHAR Y
ENCODING 89
SWIDTH 586 0
DWIDTH 11 0
BBX 11 19 0 -3
BITMAP
0000
0000
0000
6060
6060
30C0
1880
1980
0D00
0600
0600
0600
0600
0600
0600
0600
0000
0000
0000
ENDCHAR

STARTCHAR Z
ENCODING 90
SWIDTH 586 0
DWIDTH 11 0
BBX 11 19 0 -3
BITMAP
0000
0000
0000
7FC0
7FC0
00C0
0180
0300
0600
0C00
1800
3000
6000
6000
7FC0
7FC0
0000
0000
0000
ENDCHAR

STARTCHAR bracketleft
ENCODING 91
SWIDTH 586 0
DWIDTH 11 0
BBX 11 19 0 -3
BITMAP
0000
0000
1F80
1800
1800
1800
1800
1800
1800
1800
1800
1800
1800
1800
1800
1800
1800
1F80
0000
ENDCHAR

STARTCHAR backslash
ENCODING 92
SWIDTH 586 0
DWIDTH 11 0
BBX 11 19 0 -3
BITMAP
0000
0000
4000
6000
2000
3000
1000
1800
0800
0C00
0600
0200
0300
0100
0180
0080
00C0
0040
0000
ENDCHAR

STARTCHAR bracketright
ENCODING 93
SWIDTH 586 0
DWIDTH 11 0
BBX 11 19 0 -3
BITMAP
0000
0000
3F00
0300
0300
0300
0300
0300
0300
0300
0300
0300
0300
0300
0300
0300
0300
3F00
0000
ENDCHAR

STARTCHAR asciicircum
ENCODING 94
SWIDTH 586 0
DWIDTH 11 0
BBX 11 19 0 -3
BITMAP
0000
0000
0000
0000
0400
0E00
0A00
1B00
1100
3180
3180
60C0
60C0
60C0
0000
0000
0000
0000
0000
ENDCHAR

STARTCHAR underscore
ENCODING 95
SWIDTH 586 0
DWIDTH 11 0
BBX 11 19 0 -3
BITMAP
0000
0000
0000
0000
0000
0000
0000
0000
0000
0000
0000
0000
0000
0000
0000
0000
FFE0
0000
0000
ENDCHAR

STARTCHAR grave
ENCODING 96
SWIDTH 586 0
DWIDTH 11 0
BBX 11 19 0 -3
BITMAP
0000
0000
0600
0C00
0E00
0E00
0E00
0000
0000
0000
0000
0000
0000
0000
0000
0000
0000
0000
0000
ENDCHAR

STARTCHAR a
ENCODING 97
SWIDTH 586 0
DWIDTH 11 0
BBX 11 19 0 -3
BITMAP
0000
0000
0000
0000
0000
0000
1F00
3380
0180
0180
1F80
3180
6180
6180
7380
3CC0
0000
0000
0000
ENDCHAR

STARTCHAR b
ENCODING 98
SWIDTH 586 0
DWIDTH 11 0
BBX 11 19 0 -3
BITMAP
0000
0000
6000
6000
6000
6000
6E00
7380
6180
60C0
60C0
60C0
60C0
6180
7380
6E00
0000
0000
0000
ENDCHAR

STARTCHAR c
ENCODING 99
SWIDTH 586 0
DWIDTH 11 0
BBX 11 19 0 -3
BITMAP
0000
0000
0000
0000
0000
0000
0F80
38C0
3000
6000
6000
6000
6000
3000
38C0
0F80
0000
0000
0000
ENDCHAR

STARTCHAR d
ENCODING 100
SWIDTH 586 0
DWIDTH 11 0
BBX 11 19 0 -3
BITMAP
0000
0000
00C0
00C0
00C0
00C0
0EC0
39C0
30C0
60C0
60C0
60C0
60C0
30C0
39C0
0EC0
0000
0000
0000
ENDCHAR

STARTCHAR e
ENCODING 101
SWIDTH 586 0
DWIDTH 11 0
BBX 11 19 0 -3
BITMAP
0000
0000
0000
0000
0000
0000
1F00
3180
60C0
60C0
7FC0
6000
6000
7000
38C0
1F80
0000
0000
0000
ENDCHAR

STARTCHAR f
ENCODING 102
SWIDTH 586 0
DWIDTH 11 0
BBX 11 19 0 -3
BITMAP
0000
0000
03C0
0600
0C00
0C00
0C00
7FC0
0C00
0C00
0C00
0C00
0C00
0C00
0C00
0C00
0000
0000
0000
ENDCHAR

STARTCHAR g
ENCODING 103
SWIDTH 586 0
DWIDTH 11 0
BBX 11 19 0 -3
BITMAP
0000
0000
0000
0000
0000
0000
0EC0
39C0
30C0
60C0
60C0
60C0
60C0
31C0
1EC0
00C0
00C0
3180
1F00
ENDCHAR

STARTCHAR h
ENCODING 104
SWIDTH 586 0
DWIDTH 11 0
BBX 11 19 0 -3
BITMAP
0000
0000
3000
3000
3000
3000
3780
39C0
30C0
30C0
30C0
30C0
30C0
30C0
30C0
30C0
0000
0000
0000
ENDCHAR

STARTCHAR i
ENCODING 105
SWIDTH 586 0
DWIDTH 11 0
BBX 11 19 0 -3
BITMAP
0000
0000
0600
0600
0000
0000
3E00
0600
0600
0600
0600
0600
0600
0600
0600
0600
0000
0000
0000
ENDCHAR

STARTCHAR j
ENCODING 106
SWIDTH 586 0
DWIDTH 11 0
BBX 11 19 0 -3
BITMAP
0000
0000
0300
0300
0000
0000
1F00
0300
0300
0300
0300
0300
0300
0300
0300
0300
0300
0600
7C00
ENDCHAR

STARTCHAR k
ENCODING 107
SWIDTH 586 0
DWIDTH 11 0
BBX 11 19 0 -3
BITMAP
0000
0000
3000
3000
3000
3000
30C0
3180
3300
3600
3C00
3600
3300
3180
30C0
3060
0000
0000
0000
ENDCHAR

STARTCHAR l
ENCODING 108
SWIDTH 586 0
DWIDTH 11 0
BBX 11 19 0 -3
BITMAP
0000
0000
3E00
0600
0600
0600
0600
0600
0600
0600
0600
0600
0600
0600
0600
0600
0000
0000
0000
ENDCHAR

STARTCHAR m
ENCODING 109
SWIDTH 586 0
DWIDTH 11 0
BBX 11 19 0 -3
BITMAP
0000
0000
0000
0000
0000
0000
6EC0
7760
6660
6660
6660
6660
6660
6660
6660
6660
0000
0000
0000
ENDCHAR

STARTCHAR n
ENCODING 110
SWIDTH 586 0
DWIDTH 11 0
BBX 11 19 0 -3
BITMAP
0000
0000
0000
0000
0000
0000
3780
39C0
30C0
30C0
30C0
30C0
30C0
30C0
30C0
30C0
0000
0000
0000
ENDCHAR

STARTCHAR o
ENCODING 111
SWIDTH 586 0
DWIDTH 11 0
BBX 11 19 0 -3
BITMAP
0000
0000
0000
0000
0000
0000
0E00
3B80
3180
60C0
60C0
60C0
60C0
3180
3B80
0E00
0000
0000
0000
ENDCHAR

STARTCHAR p
ENCODING 112
SWIDTH 586 0
DWIDTH 11 0
BBX 11 19 0 -3
BITMAP
0000
0000
0000
0000
0000
0000
6E00
7380
6180
60C0
60C0
60C0
60C0
6180
7380
6E00
6000
6000
6000
ENDCHAR

STARTCHAR q
ENCODING 113
SWIDTH 586 0
DWIDTH 11 0
BBX 11 19 0 -3
BITMAP
0000
0000
0000
0000
0000
0000
0EC0
39C0
30C0
60C0
60C0
60C0
60C0
30C0
39C0
0EC0
00C0
00C0
00C0
ENDCHAR

STARTCHAR r
ENCODING 114
SWIDTH 586 0
DWIDTH 11 0
BBX 11 19 0 -3
BITMAP
0000
0000
0000
0000
0000
0000
19C0
1BC0
1C40
1840
1800
1800
1800
1800
1800
1800
0000
0000
0000
ENDCHAR

STARTCHAR s
ENCODING 115
SWIDTH 586 0
DWIDTH 11 0
BBX 11 19 0 -3
BITMAP
0000
0000
0000
0000
0000
0000
1F00
3180
3000
3800
1E00
0F00
0380
0180
3180
1F00
0000
0000
0000
ENDCHAR

STARTCHAR t
ENCODING 116
SWIDTH 586 0
DWIDTH 11 0
BBX 11 19 0 -3
BITMAP
0000
0000
0000
0000
0C00
0C00
0C00
7FC0
0C00
0C00
0C00
0C00
0C00
0C00
0C00
07C0
0000
0000
0000
ENDCHAR

STARTCHAR u
ENCODING 117
SWIDTH 586 0
DWIDTH 11 0
BBX 11 19 0 -3
BITMAP
0000
0000
0000
0000
0000
0000
6180
6180
6180
6180
6180
6180
6180
6180
7380
3D80
0000
0000
0000
ENDCHAR

STARTCHAR v
ENCODING 118
SWIDTH 586 0
DWIDTH 11 0
BBX 11 19 0 -3
BITMAP
0000
0000
0000
0000
0000
0000
30C0
30C0
30C0
1880
1980
1980
0D00
0D00
0600
0600
0000
0000
0000
ENDCHAR

STARTCHAR w
ENCODING 119
SWIDTH 586 0
DWIDTH 11 0
BBX 11 19 0 -3
BITMAP
0000
0000
0000
0000
0000
0000
6060
6660
6660
6640
3740
3740
3BC0
1B80
1980
1980
0000
0000
0000
ENDCHAR

STARTCHAR x
ENCODING 120
SWIDTH 586 0
DWIDTH 11 0
BBX 11 19 0 -3
BITMAP
0000
0000
0000
0000
0000
0000
30C0
30C0
1980
0D00
0E00
0700
0B00
1980
30C0
30C0
0000
0000
0000
ENDCHAR

STARTCHAR y
ENCODING 121
SWIDTH 586 0
DWIDTH 11 0
BBX 11 19 0 -3
BITMAP
0000
0000
0000
0000
0000
0000
30C0
30C0
30C0
1880
1980
1980
0D00
0F00
0600
0600
0400
0C00
0C00
ENDCHAR

STARTCHAR z
ENCODING 122
SWIDTH 586 0
DWIDTH 11 0
BBX 11 19 0 -3
BITMAP
0000
0000
0000
0000
0000
0000
3FC0
00C0
01C0
0380
0700
0E00
1C00
3800
3000
3FC0
0000
0000
0000
ENDCHAR

STARTCHAR braceleft
ENCODING 123
SWIDTH 586 0
DWIDTH 11 0
BBX 11 19 0 -3
BITMAP
0000
0000
07C0
0C00
0C00
0400
0600
0200
0200
3C00
0200
0200
0600
0400
0C00
0C00
0C00
07C0
0000
ENDCHAR

STARTCHAR bar
ENCODING 124
SWIDTH 586 0
DWIDTH 11 0
BBX 11 19 0 -3
BITMAP
0000
0000
0600
0600
0600
0600
0600
0600
0600
0600
0600
0600
0600
0600
0600
0600
0600
0600
0000
ENDCHAR

STARTCHAR braceright
ENCODING 125
SWIDTH 586 0
DWIDTH 11 0
BBX 11 19 0 -3
BITMAP
0000
0000
7C00
0600
0600
0400
0C00
0800
0800
0780
0800
0800
0C00
0400
0600
0600
0600
7C00
0000
ENDCHAR

STARTCHAR asciitilde
ENCODING 126
SWIDTH 586 0
DWIDTH 11 0
BBX 11 19 0 -3
BITMAP
0000
0000
0000
0000
0000
0000
0000
0000
0000
3840
4E40
4380
0000
0000
0000
0000
0000
0000
0000
ENDCHAR

STARTCHAR vga127
ENCODING 127
SWIDTH 586 0
DWIDTH 11 0
BBX 11 19 0 -3
BITMAP
0000
0000
0000
0000
0000
0000
0400
0E00
1B00
3180
3180
3180
3F80
0000
0000
0000
0000
0000
0000
ENDCHAR

STARTCHAR Ccedilla
ENCODING 128
SWIDTH 586 0
DWIDTH 11 0
BBX 11 19 0 -3
BITMAP
0000
0000
0000
0F80
18C0
3000
3000
6000
6000
6000
6000
6000
3000
3000
18C0
0F80
0600
0300
0E00
ENDCHAR

STARTCHAR udiaeresis
ENCODING 129
SWIDTH 586 0
DWIDTH 11 0
BBX 11 19 0 -3
BITMAP
0000
0000
0000
1200
1200
0000
6180
6180
6180
6180
6180
6180
6180
6180
7380
3D80
0000
0000
0000
ENDCHAR

STARTCHAR eacute
ENCODING 130
SWIDTH 586 0
DWIDTH 11 0
BBX 11 19 0 -3
BITMAP
0000
0000
0000
0700
0C00
0000
1F00
3180
60C0
60C0
7FC0
6000
6000
7000
38C0
1F80
0000
0000
0000
ENDCHAR

STARTCHAR acircumflex
ENCODING 131
SWIDTH 586 0
DWIDTH 11 0
BBX 11 19 0 -3
BITMAP
0000
0000
0000
0600
0B00
0000
1F00
3380
0180
0180
1F80
3180
6180
6180
7380
3CC0
0000
0000
0000
ENDCHAR

STARTCHAR adiaeresis
ENCODING 132
SWIDTH 586 0
DWIDTH 11 0
BBX 11 19 0 -3
BITMAP
0000
0000
0000
0A00
0A00
0000
1F00
3380
0180
0180
1F80
3180
6180
6180
7380
3CC0
0000
0000
0000
ENDCHAR

STARTCHAR agrave
ENCODING 133
SWIDTH 586 0
DWIDTH 11 0
BBX 11 19 0 -3
BITMAP
0000
0000
0000
1C00
0600
0000
1F00
3380
0180
0180
1F80
3180
6180
6180
7380
3CC0
0000
0000
0000
ENDCHAR

STARTCHAR aring
ENCODING 134
SWIDTH 586 0
DWIDTH 11 0
BBX 11 19 0 -3
BITMAP
0000
0000
0000
0600
0900
0600
1F00
3380
0180
0180
1F80
3180
6180
6180
7380
3CC0
0000
0000
0000
ENDCHAR

STARTCHAR ccedilla
ENCODING 135
SWIDTH 586 0
DWIDTH 11 0
BBX 11 19 0 -3
BITMAP
0000
0000
0000
0000
0000
0000
0F80
38C0
3000
6000
6000
6000
6000
3000
38C0
0F80
0600
0300
0E00
ENDCHAR

STARTCHAR ecircumflex
ENCODING 136
SWIDTH 586 0
DWIDTH 11 0
BBX 11 19 0 -3
BITMAP
0000
0000
0000
0600
0B00
0000
1F00
3180
60C0
60C0
7FC0
6000
6000
7000
38C0
1F80
0000
0000
0000
ENDCHAR

STARTCHAR ediaeresis
ENCODING 137
SWIDTH 586 0
DWIDTH 11 0
BBX 11 19 0 -3
BITMAP
0000
0000
0000
0A00
0A00
0000
1F00
3180
60C0
60C0
7FC0
6000
6000
7000
38C0
1F80
0000
0000
0000
ENDCHAR

STARTCHAR egrave
ENCODING 138
SWIDTH 586 0
DWIDTH 11 0
BBX 11 19 0 -3
BITMAP
0000
0000
0000
1C00
0600
0000
1F00
3180
60C0
60C0
7FC0
6000
6000
7000
38C0
1F80
0000
0000
0000
ENDCHAR

STARTCHAR idiaeresis
ENCODING 139
SWIDTH 586 0
DWIDTH 11 0
BBX 11 19 0 -3
BITMAP
0000
0000
0000
1200
1200
0000
7E00
0600
0600
0600
0600
0600
0600
0600
0600
0600
0000
0000
0000
ENDCHAR

STARTCHAR icircumflex
ENCODING 140
SWIDTH 586 0
DWIDTH 11 0
BBX 11 19 0 -3
BITMAP
0000
0000
0000
0600
0B00
0000
3E00
0600
0600
0600
0600
0600
0600
0600
0600
0600
0000
0000
0000
ENDCHAR

STARTCHAR igrave
ENCODING 141
SWIDTH 586 0
DWIDTH 11 0
BBX 11 19 0 -3
BITMAP
0000
0000
0000
1C00
0600
0000
3E00
0600
0600
0600
0600
0600
0600
0600
0600
0600
0000
0000
0000
ENDCHAR

STARTCHAR Adiaeresis
ENCODING 142
SWIDTH 586 0
DWIDTH 11 0
BBX 11 19 0 -3
BITMAP
0900
0900
0000
0600
0600
0F00
0B00
0980
1980
1180
10C0
3FC0
20C0
6060
6060
6060
0000
0000
0000
ENDCHAR

STARTCHAR Aring
ENCODING 143
SWIDTH 586 0
DWIDTH 11 0
BBX 11 19 0 -3
BITMAP
0000
0600
0900
0600
0600
0F00
0B00
0980
1980
1180
10C0
3FC0
20C0
6060
6060
6060
0000
0000
0000
ENDCHAR

STARTCHAR Eacute
ENCODING 144
SWIDTH 586 0
DWIDTH 11 0
BBX 11 19 0 -3
BITMAP
0700
0C00
0000
3FC0
3000
3000
3000
3000
3000
3F80
3000
3000
3000
3000
3000
3FC0
0000
0000
0000
ENDCHAR

STARTCHAR ae
ENCODING 145
SWIDTH 586 0
DWIDTH 11 0
BBX 11 19 0 -3
BITMAP
0000
0000
0000
0000
0000
0000
3DC0
6660
0660
0660
3FE0
6600
6600
6600
6F60
31C0
0000
0000
0000
ENDCHAR

STARTCHAR AE
ENCODING 146
SWIDTH 586 0
DWIDTH 11 0
BBX 11 19 0 -3
BITMAP
0000
0000
0000
03E0
0700
0700
0B00
0B00
1300
13E0
3300
3F00
2300
6300
6300
63E0
0000
0000
0000
ENDCHAR

STARTCHAR ocircumflex
ENCODING 147
SWIDTH 586 0
DWIDTH 11 0
BBX 11 19 0 -3
BITMAP
0000
0000
0000
0600
0B00
0000
0E00
3B80
3180
60C0
60C0
60C0
60C0
3180
3B80
0E00
0000
0000
0000
ENDCHAR

STARTCHAR odiaeresis
ENCODING 148
SWIDTH 586 0
DWIDTH 11 0
BBX 11 19 0 -3
BITMAP
0000
0000
0000
0A00
0A00
0000
0E00
3B80
3180
60C0
60C0
60C0
60C0
3180
3B80
0E00
0000
0000
0000
ENDCHAR

STARTCHAR ograve
ENCODING 149
SWIDTH 586 0
DWIDTH 11 0
BBX 11 19 0 -3
BITMAP
0000
0000
0000
1C00
0600
0000
0E00
3B80
3180
60C0
60C0
60C0
60C0
3180
3B80
0E00
0000
0000
0000
ENDCHAR

STARTCHAR ucircumflex
ENCODING 150
SWIDTH 586 0
DWIDTH 11 0
BBX 11 19 0 -3
BITMAP
0000
0000
0000
0C00
1600
0000
6180
6180
6180
6180
6180
6180
6180
6180
7380
3D80
0000
0000
0000
ENDCHAR

STARTCHAR ugrave
ENCODING 151
SWIDTH 586 0
DWIDTH 11 0
BBX 11 19 0 -3
BITMAP
0000
0000
0000
1C00
0600
0000
6180
6180
6180
6180
6180
6180
6180
6180
7380
3D80
0000
0000
0000
ENDCHAR

STARTCHAR ydiaeresis
ENCODING 152
SWIDTH 586 0
DWIDTH 11 0
BBX 11 19 0 -3
BITMAP
0000
0000
0000
0900
0900
0000
30C0
30C0
30C0
1880
1980
1980
0D00
0F00
0600
0600
0400
0C00
0C00
ENDCHAR

STARTCHAR Odiaeresis
ENCODING 153
SWIDTH 586 0
DWIDTH 11 0
BBX 11 19 0 -3
BITMAP
0900
0900
0000
0F00
1980
30C0
30C0
6060
6060
6060
6060
6060
30C0
30C0
1980
0F00
0000
0000
0000
ENDCHAR

STARTCHAR Udiaeresis
ENCODING 154
SWIDTH 586 0
DWIDTH 11 0
BBX 11 19 0 -3
BITMAP
1100
1100
0000
60C0
60C0
60C0
60C0
60C0
60C0
60C0
60C0
60C0
60C0
3180
3B80
0E00
0000
0000
0000
ENDCHAR

STARTCHAR cent
ENCODING 155
SWIDTH 586 0
DWIDTH 11 0
BBX 11 19 0 -3
BITMAP
0000
0000
0000
0200
0200
0780
1AC0
1A00
3200
3200
3200
3200
3200
1AC0
0F80
0200
0200
0000
0000
ENDCHAR

STARTCHAR sterling
ENCODING 156
SWIDTH 586 0
DWIDTH 11 0
BBX 11 19 0 -3
BITMAP
0000
0000
0000
0380
04C0
0C00
0C00
0C00
0C00
3F00
0C00
0C00
0800
1000
3FC0
3FC0
0000
0000
0000
ENDCHAR

STARTCHAR yen
ENCODING 157
SWIDTH 586 0
DWIDTH 11 0
BBX 11 19 0 -3
BITMAP
0000
0000
0000
6060
6060
30C0
1880
1980
0D00
0600
1F80
0600
1F80
0600
0600
0600
0000
0000
0000
ENDCHAR

STARTCHAR vga158
ENCODING 158
SWIDTH 586 0
DWIDTH 11 0
BBX 11 19 0 -3
BITMAP
0000
0000
0000
3E00
3300
3300
3E00
3100
3300
3780
3300
3300
3300
3180
0000
0000
0000
0000
0000
ENDCHAR

STARTCHAR vga159
ENCODING 159
SWIDTH 586 0
DWIDTH 11 0
BBX 11 19 0 -3
BITMAP
0000
0000
0000
0380
06C0
0600
0600
0600
1F80
0600
0600
0600
0600
0600
3600
1C00
0000
0000
0000
ENDCHAR

STARTCHAR aacute
ENCODING 160
SWIDTH 586 0
DWIDTH 11 0
BBX 11 19 0 -3
BITMAP
0000
0000
0000
0700
0C00
0000
1F00
3380
0180
0180
1F80
3180
6180
6180
7380
3CC0
0000
0000
0000
ENDCHAR

STARTCHAR iacute
ENCODING 161
SWIDTH 586 0
DWIDTH 11 0
BBX 11 19 0 -3
BITMAP
0000
0000
0000
0700
0C00
0000
3E00
0600
0600
0600
0600
0600
0600
0600
0600
0600
0000
0000
0000
ENDCHAR

STARTCHAR oacute
ENCODING 162
SWIDTH 586 0
DWIDTH 11 0
BBX 11 19 0 -3
BITMAP
0000
0000
0000
0700
0C00
0000
0E00
3B80
3180
60C0
60C0
60C0
60C0
3180
3B80
0E00
0000
0000
0000
ENDCHAR

STARTCHAR uacute
ENCODING 163
SWIDTH 586 0
DWIDTH 11 0
BBX 11 19 0 -3
BITMAP
0000
0000
0000
0700
0C00
0000
6180
6180
6180
6180
6180
6180
6180
6180
7380
3D80
0000
0000
0000
ENDCHAR

STARTCHAR vga164
ENCODING 164
SWIDTH 586 0
DWIDTH 11 0
BBX 11 19 0 -3
BITMAP
0000
0000
0000
0000
1D80
3700
0000
3700
1980
1980
1980
1980
1980
1980
0000
0000
0000
0000
0000
ENDCHAR

STARTCHAR vga165
ENCODING 165
SWIDTH 586 0
DWIDTH 11 0
BBX 11 19 0 -3
BITMAP
0000
0000
1D80
3700
0000
3180
3980
3D80
3F80
3780
3380
3180
3180
3180
0000
0000
0000
0000
0000
ENDCHAR

STARTCHAR vga166
ENCODING 166
SWIDTH 586 0
DWIDTH 11 0
BBX 11 19 0 -3
BITMAP
0000
0000
0000
0F00
1B00
1B00
0F80
0000
1F80
0000
0000
0000
0000
0000
0000
0000
0000
0000
0000
ENDCHAR

STARTCHAR vga167
ENCODING 167
SWIDTH 586 0
DWIDTH 11 0
BBX 11 19 0 -3
BITMAP
0000
0000
0000
0E00
1B00
1B00
0E00
0000
1F00
0000
0000
0000
0000
0000
0000
0000
0000
0000
0000
ENDCHAR

STARTCHAR questiondown
ENCODING 168
SWIDTH 586 0
DWIDTH 11 0
BBX 11 19 0 -3
BITMAP
0000
0000
0000
0000
0000
0000
0300
0300
0000
0000
0300
0300
0300
0600
1800
3000
3000
38C0
1F80
ENDCHAR

STARTCHAR hook
ENCODING 169
SWIDTH 586 0
DWIDTH 11 0
BBX 11 19 0 -3
BITMAP
0000
0000
0000
0000
0000
0000
0000
0000
0000
7FC0
4000
4000
4000
0000
0000
0000
0000
0000
0000
ENDCHAR

STARTCHAR notsign
ENCODING 170
SWIDTH 586 0
DWIDTH 11 0
BBX 11 19 0 -3
BITMAP
0000
0000
0000
0000
0000
0000
0000
0000
0000
7FC0
0040
0040
0040
0000
0000
0000
0000
0000
0000
ENDCHAR

STARTCHAR onehalf
ENCODING 171
SWIDTH 586 0
DWIDTH 11 0
BBX 11 19 0 -3
BITMAP
0000
0000
0000
E100
6100
6200
6200
6400
6400
69C0
0A60
0860
10C0
1100
23E0
23E0
0000
0000
0000
ENDCHAR

STARTCHAR onequarter
ENCODING 172
SWIDTH 586 0
DWIDTH 11 0
BBX 11 19 0 -3
BITMAP
0000
0000
0000
E100
6100
6200
6200
6400
6400
68C0
11C0
12C0
24C0
27E0
40C0
40C0
0000
0000
0000
ENDCHAR

STARTCHAR exclamdown
ENCODING 173
SWIDTH 586 0
DWIDTH 11 0
BBX 11 19 0 -3
BITMAP
0000
0000
0000
0000
0000
0000
0600
0600
0000
0000
0400
0600
0600
0600
0600
0600
0600
0600
0600
ENDCHAR

STARTCHAR guillemotleft
ENCODING 174
SWIDTH 586 0
DWIDTH 11 0
BBX 11 19 0 -3
BITMAP
0000
0000
0000
0000
0000
0000
0000
0CC0
1980
3300
6600
6600
3300
1980
0CC0
0000
0000
0000
0000
ENDCHAR

STARTCHAR guillemotright
ENCODING 175
SWIDTH 586 0
DWIDTH 11 0
BBX 11 19 0 -3
BITMAP
0000
0000
0000
0000
0000
0000
0000
6600
3300
1980
0CC0
0CC0
1980
3300
6600
0000
0000
0000
0000
ENDCHAR

STARTCHAR raster1
ENCODING 176
SWIDTH 586 0
DWIDTH 11 0
BBX 11 19 0 -3
BITMAP
8880
0000
2220
0000
8880
0000
2220
0000
8880
0000
2220
0000
8880
0000
2220
0000
8880
0000
2220
ENDCHAR

STARTCHAR raster2
ENCODING 177
SWIDTH 586 0
DWIDTH 11 0
BBX 11 19 0 -3
BITMAP
AAA0
5540
AAA0
5540
AAA0
5540
AAA0
5540
AAA0
5540
AAA0
5540
AAA0
5540
AAA0
5540
AAA0
5540
AAA0
ENDCHAR

STARTCHAR raster3
ENCODING 178
SWIDTH 586 0
DWIDTH 11 0
BBX 11 19 0 -3
BITMAP
7760
FFE0
DDC0
FFE0
7760
FFE0
DDC0
FFE0
7760
FFE0
DDC0
FFE0
7760
FFE0
DDC0
FFE0
7760
FFE0
DDC0
ENDCHAR

STARTCHAR udline
ENCODING 179
SWIDTH 586 0
DWIDTH 11 0
BBX 11 19 0 -3
BITMAP
0400
0400
0400
0400
0400
0400
0400
0400
0400
0400
0400
0400
0400
0400
0400
0400
0400
0400
0400
ENDCHAR

STARTCHAR udlline
ENCODING 180
SWIDTH 586 0
DWIDTH 11 0
BBX 11 19 0 -3
BITMAP
0400
0400
0400
0400
0400
0400
0400
0400
0400
0400
FC00
0400
0400
0400
0400
0400
0400
0400
0400
ENDCHAR

STARTCHAR udLline
ENCODING 181
SWIDTH 586 0
DWIDTH 11 0
BBX 11 19 0 -3
BITMAP
0400
0400
0400
0400
0400
0400
0400
0400
0400
FC00
0400
FC00
0400
0400
0400
0400
0400
0400
0400
ENDCHAR

STARTCHAR UDlline
ENCODING 182
SWIDTH 586 0
DWIDTH 11 0
BBX 11 19 0 -3
BITMAP
0A00
0A00
0A00
0A00
0A00
0A00
0A00
0A00
0A00
0A00
FA00
0A00
0A00
0A00
0A00
0A00
0A00
0A00
0A00
ENDCHAR

STARTCHAR Dlline
ENCODING 183
SWIDTH 586 0
DWIDTH 11 0
BBX 11 19 0 -3
BITMAP
0000
0000
0000
0000
0000
0000
0000
0000
0000
0000
FE00
0A00
0A00
0A00
0A00
0A00
0A00
0A00
0A00
ENDCHAR

STARTCHAR dLline
ENCODING 184
SWIDTH 586 0
DWIDTH 11 0
BBX 11 19 0 -3
BITMAP
0000
0000
0000
0000
0000
0000
0000
0000
0000
FC00
0400
FC00
0400
0400
0400
0400
0400
0400
0400
ENDCHAR

STARTCHAR UDLline
ENCODING 185
SWIDTH 586 0
DWIDTH 11 0
BBX 11 19 0 -3
BITMAP
0A00
0A00
0A00
0A00
0A00
0A00
0A00
0A00
0A00
FA00
0A00
FA00
0A00
0A00
0A00
0A00
0A00
0A00
0A00
ENDCHAR

STARTCHAR UDline
ENCODING 186
SWIDTH 586 0
DWIDTH 11 0
BBX 11 19 0 -3
BITMAP
0A00
0A00
0A00
0A00
0A00
0A00
0A00
0A00
0A00
0A00
0A00
0A00
0A00
0A00
0A00
0A00
0A00
0A00
0A00
ENDCHAR

STARTCHAR DLline
ENCODING 187
SWIDTH 586 0
DWIDTH 11 0
BBX 11 19 0 -3
BITMAP
0000
0000
0000
0000
0000
0000
0000
0000
0000
FE00
0200
FA00
0A00
0A00
0A00
0A00
0A00
0A00
0A00
ENDCHAR

STARTCHAR ULline
ENCODING 188
SWIDTH 586 0
DWIDTH 11 0
BBX 11 19 0 -3
BITMAP
0A00
0A00
0A00
0A00
0A00
0A00
0A00
0A00
0A00
FA00
0200
FE00
0000
0000
0000
0000
0000
0000
0000
ENDCHAR

STARTCHAR Ulline
ENCODING 189
SWIDTH 586 0
DWIDTH 11 0
BBX 11 19 0 -3
BITMAP
0A00
0A00
0A00
0A00
0A00
0A00
0A00
0A00
0A00
0A00
FE00
0000
0000
0000
0000
0000
0000
0000
0000
ENDCHAR

STARTCHAR uLline
ENCODING 190
SWIDTH 586 0
DWIDTH 11 0
BBX 11 19 0 -3
BITMAP
0400
0400
0400
0400
0400
0400
0400
0400
0400
FC00
0400
FC00
0000
0000
0000
0000
0000
0000
0000
ENDCHAR

STARTCHAR dlline
ENCODING 191
SWIDTH 586 0
DWIDTH 11 0
BBX 11 19 0 -3
BITMAP
0000
0000
0000
0000
0000
0000
0000
0000
0000
0000
FC00
0400
0400
0400
0400
0400
0400
0400
0400
ENDCHAR

STARTCHAR urline
ENCODING 192
SWIDTH 586 0
DWIDTH 11 0
BBX 11 19 0 -3
BITMAP
0400
0400
0400
0400
0400
0400
0400
0400
0400
0400
07E0
0000
0000
0000
0000
0000
0000
0000
0000
ENDCHAR

STARTCHAR urlline
ENCODING 193
SWIDTH 586 0
DWIDTH 11 0
BBX 11 19 0 -3
BITMAP
0400
0400
0400
0400
0400
0400
0400
0400
0400
0400
FFE0
0000
0000
0000
0000
0000
0000
0000
0000
ENDCHAR

STARTCHAR rdlline
ENCODING 194
SWIDTH 586 0
DWIDTH 11 0
BBX 11 19 0 -3
BITMAP
0000
0000
0000
0000
0000
0000
0000
0000
0000
0000
FFE0
0400
0400
0400
0400
0400
0400
0400
0400
ENDCHAR

STARTCHAR urdline
ENCODING 195
SWIDTH 586 0
DWIDTH 11 0
BBX 11 19 0 -3
BITMAP
0400
0400
0400
0400
0400
0400
0400
0400
0400
0400
07E0
0400
0400
0400
0400
0400
0400
0400
0400
ENDCHAR

STARTCHAR rlline
ENCODING 196
SWIDTH 586 0
DWIDTH 11 0
BBX 11 19 0 -3
BITMAP
0000
0000
0000
0000
0000
0000
0000
0000
0000
0000
FFE0
0000
0000
0000
0000
0000
0000
0000
0000
ENDCHAR

STARTCHAR urdlline
ENCODING 197
SWIDTH 586 0
DWIDTH 11 0
BBX 11 19 0 -3
BITMAP
0400
0400
0400
0400
0400
0400
0400
0400
0400
0400
FFE0
0400
0400
0400
0400
0400
0400
0400
0400
ENDCHAR

STARTCHAR uRdline
ENCODING 198
SWIDTH 586 0
DWIDTH 11 0
BBX 11 19 0 -3
BITMAP
0400
0400
0400
0400
0400
0400
0400
0400
0400
07E0
0400
07E0
0400
0400
0400
0400
0400
0400
0400
ENDCHAR

STARTCHAR UrDline
ENCODING 199
SWIDTH 586 0
DWIDTH 11 0
BBX 11 19 0 -3
BITMAP
0A00
0A00
0A00
0A00
0A00
0A00
0A00
0A00
0A00
0A00
0BE0
0A00
0A00
0A00
0A00
0A00
0A00
0A00
0A00
ENDCHAR

STARTCHAR URline
ENCODING 200
SWIDTH 586 0
DWIDTH 11 0
BBX 11 19 0 -3
BITMAP
0A00
0A00
0A00
0A00
0A00
0A00
0A00
0A00
0A00
0BE0
0800
0FE0
0000
0000
0000
0000
0000
0000
0000
ENDCHAR

STARTCHAR RDline
ENCODING 201
SWIDTH 586 0
DWIDTH 11 0
BBX 11 19 0 -3
BITMAP
0000
0000
0000
0000
0000
0000
0000
0000
0000
0FE0
0800
0BE0
0A00
0A00
0A00
0A00
0A00
0A00
0A00
ENDCHAR

STARTCHAR URLline
ENCODING 202
SWIDTH 586 0
DWIDTH 11 0
BBX 11 19 0 -3
BITMAP
0A00
0A00
0A00
0A00
0A00
0A00
0A00
0A00
0A00
FBE0
0000
FFE0
0000
0000
0000
0000
0000
0000
0000
ENDCHAR

STARTCHAR RDLline
ENCODING 203
SWIDTH 586 0
DWIDTH 11 0
BBX 11 19 0 -3
BITMAP
0000
0000
0000
0000
0000
0000
0000
0000
0000
FFE0
0000
FBE0
0A00
0A00
0A00
0A00
0A00
0A00
0A00
ENDCHAR

STARTCHAR URDline
ENCODING 204
SWIDTH 586 0
DWIDTH 11 0
BBX 11 19 0 -3
BITMAP
0A00
0A00
0A00
0A00
0A00
0A00
0A00
0A00
0A00
0BE0
0800
0BE0
0A00
0A00
0A00
0A00
0A00
0A00
0A00
ENDCHAR

STARTCHAR RLline
ENCODING 205
SWIDTH 586 0
DWIDTH 11 0
BBX 11 19 0 -3
BITMAP
0000
0000
0000
0000
0000
0000
0000
0000
0000
FFE0
0000
FFE0
0000
0000
0000
0000
0000
0000
0000
ENDCHAR

STARTCHAR URDLline
ENCODING 206
SWIDTH 586 0
DWIDTH 11 0
BBX 11 19 0 -3
BITMAP
0A00
0A00
0A00
0A00
0A00
0A00
0A00
0A00
0A00
FBE0
0000
FBE0
0A00
0A00
0A00
0A00
0A00
0A00
0A00
ENDCHAR

STARTCHAR uRLline
ENCODING 207
SWIDTH 586 0
DWIDTH 11 0
BBX 11 19 0 -3
BITMAP
0400
0400
0400
0400
0400
0400
0400
0400
0400
FFE0
0000
FFE0
0000
0000
0000
0000
0000
0000
0000
ENDCHAR

STARTCHAR Urlline
ENCODING 208
SWIDTH 586 0
DWIDTH 11 0
BBX 11 19 0 -3
BITMAP
0A00
0A00
0A00
0A00
0A00
0A00
0A00
0A00
0A00
0A00
FFE0
0000
0000
0000
0000
0000
0000
0000
0000
ENDCHAR

STARTCHAR RdLline
ENCODING 209
SWIDTH 586 0
DWIDTH 11 0
BBX 11 19 0 -3
BITMAP
0000
0000
0000
0000
0000
0000
0000
0000
0000
FFE0
0000
FFE0
0400
0400
0400
0400
0400
0400
0400
ENDCHAR

STARTCHAR rDlline
ENCODING 210
SWIDTH 586 0
DWIDTH 11 0
BBX 11 19 0 -3
BITMAP
0000
0000
0000
0000
0000
0000
0000
0000
0000
0000
FFE0
0A00
0A00
0A00
0A00
0A00
0A00
0A00
0A00
ENDCHAR

STARTCHAR Urline
ENCODING 211
SWIDTH 586 0
DWIDTH 11 0
BBX 11 19 0 -3
BITMAP
0A00
0A00
0A00
0A00
0A00
0A00
0A00
0A00
0A00
0A00
0FE0
0000
0000
0000
0000
0000
0000
0000
0000
ENDCHAR

STARTCHAR uRline
ENCODING 212
SWIDTH 586 0
DWIDTH 11 0
BBX 11 19 0 -3
BITMAP
0400
0400
0400
0400
0400
0400
0400
0400
0400
07E0
0400
07E0
0000
0000
0000
0000
0000
0000
0000
ENDCHAR

STARTCHAR Rdline
ENCODING 213
SWIDTH 586 0
DWIDTH 11 0
BBX 11 19 0 -3
BITMAP
0000
0000
0000
0000
0000
0000
0000
0000
0000
07E0
0400
07E0
0400
0400
0400
0400
0400
0400
0400
ENDCHAR

STARTCHAR rDline
ENCODING 214
SWIDTH 586 0
DWIDTH 11 0
BBX 11 19 0 -3
BITMAP
0000
0000
0000
0000
0000
0000
0000
0000
0000
0000
0FE0
0A00
0A00
0A00
0A00
0A00
0A00
0A00
0A00
ENDCHAR

STARTCHAR UrDlline
ENCODING 215
SWIDTH 586 0
DWIDTH 11 0
BBX 11 19 0 -3
BITMAP
0A00
0A00
0A00
0A00
0A00
0A00
0A00
0A00
0A00
0A00
FFE0
0A00
0A00
0A00
0A00
0A00
0A00
0A00
0A00
ENDCHAR

STARTCHAR uRdLline
ENCODING 216
SWIDTH 586 0
DWIDTH 11 0
BBX 11 19 0 -3
BITMAP
0400
0400
0400
0400
0400
0400
0400
0400
0400
FFE0
0400
FFE0
0400
0400
0400
0400
0400
0400
0400
ENDCHAR

STARTCHAR urline
ENCODING 217
SWIDTH 586 0
DWIDTH 11 0
BBX 11 19 0 -3
BITMAP
0400
0400
0400
0400
0400
0400
0400
0400
0400
0400
FC00
0000
0000
0000
0000
0000
0000
0000
0000
ENDCHAR

STARTCHAR rdline
ENCODING 218
SWIDTH 586 0
DWIDTH 11 0
BBX 11 19 0 -3
BITMAP
0000
0000
0000
0000
0000
0000
0000
0000
0000
0000
07E0
0400
0400
0400
0400
0400
0400
0400
0400
ENDCHAR

STARTCHAR fullblock
ENCODING 219
SWIDTH 586 0
DWIDTH 11 0
BBX 11 19 0 -3
BITMAP
FFE0
FFE0
FFE0
FFE0
FFE0
FFE0
FFE0
FFE0
FFE0
FFE0
FFE0
FFE0
FFE0
FFE0
FFE0
FFE0
FFE0
FFE0
FFE0
ENDCHAR

STARTCHAR bottomblock
ENCODING 220
SWIDTH 586 0
DWIDTH 11 0
BBX 11 19 0 -3
BITMAP
0000
0000
0000
0000
0000
0000
0000
0000
0000
FFE0
FFE0
FFE0
FFE0
FFE0
FFE0
FFE0
FFE0
FFE0
FFE0
ENDCHAR

STARTCHAR leftblock
ENCODING 221
SWIDTH 586 0
DWIDTH 11 0
BBX 11 19 0 -3
BITMAP
FC00
FC00
FC00
FC00
FC00
FC00
FC00
FC00
FC00
FC00
FC00
FC00
FC00
FC00
FC00
FC00
FC00
FC00
FC00
ENDCHAR

STARTCHAR rightblock
ENCODING 222
SWIDTH 586 0
DWIDTH 11 0
BBX 11 19 0 -3
BITMAP
03E0
03E0
03E0
03E0
03E0
03E0
03E0
03E0
03E0
03E0
03E0
03E0
03E0
03E0
03E0
03E0
03E0
03E0
03E0
ENDCHAR

STARTCHAR topblock
ENCODING 223
SWIDTH 586 0
DWIDTH 11 0
BBX 11 19 0 -3
BITMAP
FFE0
FFE0
FFE0
FFE0
FFE0
FFE0
FFE0
FFE0
FFE0
FFE0
0000
0000
0000
0000
0000
0000
0000
0000
0000
ENDCHAR

STARTCHAR vga224
ENCODING 224
SWIDTH 586 0
DWIDTH 11 0
BBX 11 19 0 -3
BITMAP
0000
0000
0000
0000
0000
0000
0000
1D80
3700
3600
3600
3600
3700
1D80
0000
0000
0000
0000
0000
ENDCHAR

STARTCHAR vga225
ENCODING 225
SWIDTH 586 0
DWIDTH 11 0
BBX 11 19 0 -3
BITMAP
0000
0000
0000
0000
1E00
3300
3300
3300
3600
3300
3180
3180
3180
3300
0000
0000
0000
0000
0000
ENDCHAR

STARTCHAR vga226
ENCODING 226
SWIDTH 586 0
DWIDTH 11 0
BBX 11 19 0 -3
BITMAP
0000
0000
0000
0000
3F80
3180
3180
3000
3000
3000
3000
3000
3000
3000
0000
0000
0000
0000
0000
ENDCHAR

STARTCHAR vga227
ENCODING 227
SWIDTH 586 0
DWIDTH 11 0
BBX 11 19 0 -3
BITMAP
0000
0000
0000
0000
0000
0000
3F80
1B00
1B00
1B00
1B00
1B00
1B00
1B00
0000
0000
0000
0000
0000
ENDCHAR

STARTCHAR vga228
ENCODING 228
SWIDTH 586 0
DWIDTH 11 0
BBX 11 19 0 -3
BITMAP
0000
0000
0000
0000
0000
3F80
3180
1800
0C00
0600
0C00
1800
3180
3F80
0000
0000
0000
0000
0000
ENDCHAR

STARTCHAR vga229
ENCODING 229
SWIDTH 586 0
DWIDTH 11 0
BBX 11 19 0 -3
BITMAP
0000
0000
0000
0000
0000
0000
0000
1F80
3600
3600
3600
3600
3600
1C00
0000
0000
0000
0000
0000
ENDCHAR

STARTCHAR vga230
ENCODING 230
SWIDTH 586 0
DWIDTH 11 0
BBX 11 19 0 -3
BITMAP
0000
0000
0000
0000
0000
0000
1980
1980
1980
1980
1980
1F00
1800
1800
3000
0000
0000
0000
0000
ENDCHAR

STARTCHAR vga231
ENCODING 231
SWIDTH 586 0
DWIDTH 11 0
BBX 11 19 0 -3
BITMAP
0000
0000
0000
0000
0000
0000
1D80
3700
0600
0600
0600
0600
0600
0600
0000
0000
0000
0000
0000
ENDCHAR

STARTCHAR vga232
ENCODING 232
SWIDTH 586 0
DWIDTH 11 0
BBX 11 19 0 -3
BITMAP
0000
0000
0000
0000
0000
1F80
0600
0F00
1980
1980
1980
0F00
0600
1F80
0000
0000
0000
0000
0000
ENDCHAR

STARTCHAR vga233
ENCODING 233
SWIDTH 586 0
DWIDTH 11 0
BBX 11 19 0 -3
BITMAP
0000
0000
0000
0000
0000
0E00
1B00
3180
3180
3F80
3180
3180
1B00
0E00
0000
0000
0000
0000
0000
ENDCHAR

STARTCHAR vga234
ENCODING 234
SWIDTH 586 0
DWIDTH 11 0
BBX 11 19 0 -3
BITMAP
0000
0000
0000
0000
0E00
1B00
3180
3180
3180
1B00
1B00
1B00
1B00
3B80
0000
0000
0000
0000
0000
ENDCHAR

STARTCHAR vga235
ENCODING 235
SWIDTH 586 0
DWIDTH 11 0
BBX 11 19 0 -3
BITMAP
0000
0000
0000
0000
0780
0C00
0600
0300
0F80
1980
1980
1980
1980
0F00
0000
0000
0000
0000
0000
ENDCHAR

STARTCHAR vga236
ENCODING 236
SWIDTH 586 0
DWIDTH 11 0
BBX 11 19 0 -3
BITMAP
0000
0000
0000
0000
0000
0000
0000
1F80
36C0
36C0
36C0
1F80
0000
0000
0000
0000
0000
0000
0000
ENDCHAR

STARTCHAR vga237
ENCODING 237
SWIDTH 586 0
DWIDTH 11 0
BBX 11 19 0 -3
BITMAP
0000
0000
0000
0000
0000
00C0
0180
1F80
36C0
36C0
3CC0
1F80
1800
3000
0000
0000
0000
0000
0000
ENDCHAR

STARTCHAR vga238
ENCODING 238
SWIDTH 586 0
DWIDTH 11 0
BBX 11 19 0 -3
BITMAP
0000
0000
0000
0000
0700
0C00
1800
1800
1F00
1800
1800
1800
0C00
0700
0000
0000
0000
0000
0000
ENDCHAR

STARTCHAR vga239
ENCODING 239
SWIDTH 586 0
DWIDTH 11 0
BBX 11 19 0 -3
BITMAP
0000
0000
0000
0000
0000
1F00
3180
3180
3180
3180
3180
3180
3180
3180
0000
0000
0000
0000
0000
ENDCHAR

STARTCHAR isequal
ENCODING 240
SWIDTH 586 0
DWIDTH 11 0
BBX 11 19 0 -3
BITMAP
0000
0000
0000
0000
0000
0000
7FC0
0000
0000
7FC0
0000
0000
7FC0
0000
0000
0000
0000
0000
0000
ENDCHAR

STARTCHAR plusminus
ENCODING 241
SWIDTH 586 0
DWIDTH 11 0
BBX 11 19 0 -3
BITMAP
0000
0000
0000
0000
0000
0000
0400
0400
0400
7FC0
0400
0400
0000
7FC0
0000
0000
0000
0000
0000
ENDCHAR

STARTCHAR vga242
ENCODING 242
SWIDTH 586 0
DWIDTH 11 0
BBX 11 19 0 -3
BITMAP
0000
0000
0000
0000
0000
0C00
0600
0300
0180
0300
0600
0C00
0000
1F80
0000
0000
0000
0000
0000
ENDCHAR

STARTCHAR vga243
ENCODING 243
SWIDTH 586 0
DWIDTH 11 0
BBX 11 19 0 -3
BITMAP
0000
0000
0000
0000
0000
0300
0600
0C00
1800
0C00
0600
0300
0000
1F80
0000
0000
0000
0000
0000
ENDCHAR

STARTCHAR vga244
ENCODING 244
SWIDTH 586 0
DWIDTH 11 0
BBX 11 19 0 -3
BITMAP
0000
0000
0000
0000
0380
06C0
06C0
0600
0600
0600
0600
0600
0600
0600
0600
0600
0600
0600
0000
ENDCHAR

STARTCHAR vga245
ENCODING 245
SWIDTH 586 0
DWIDTH 11 0
BBX 11 19 0 -3
BITMAP
0000
0000
0600
0600
0600
0600
0600
0600
0600
0600
3600
3600
3600
1C00
0000
0000
0000
0000
0000
ENDCHAR

STARTCHAR division
ENCODING 246
SWIDTH 586 0
DWIDTH 11 0
BBX 11 19 0 -3
BITMAP
0000
0000
0000
0000
0000
0000
0400
0400
0000
0000
7FC0
0000
0000
0400
0400
0000
0000
0000
0000
ENDCHAR

STARTCHAR vga247
ENCODING 247
SWIDTH 586 0
DWIDTH 11 0
BBX 11 19 0 -3
BITMAP
0000
0000
0000
0000
0000
0000
0000
1D80
3700
0000
1D80
3700
0000
0000
0000
0000
0000
0000
0000
ENDCHAR

STARTCHAR degree
ENCODING 248
SWIDTH 586 0
DWIDTH 11 0
BBX 11 19 0 -3
BITMAP
0000
0000
0E00
1100
1100
1100
0E00
0000
0000
0000
0000
0000
0000
0000
0000
0000
0000
0000
0000
ENDCHAR

STARTCHAR smalldot
ENCODING 249
SWIDTH 586 0
DWIDTH 11 0
BBX 11 19 0 -3
BITMAP
0000
0000
0000
0000
0000
0000
0000
0000
0E00
0E00
0E00
0000
0000
0000
0000
0000
0000
0000
0000
ENDCHAR

STARTCHAR smallerdot
ENCODING 250
SWIDTH 586 0
DWIDTH 11 0
BBX 11 19 0 -3
BITMAP
0000
0000
0000
0000
0000
0000
0000
0000
0000
0800
0000
0000
0000
0000
0000
0000
0000
0000
0000
ENDCHAR

STARTCHAR vga251
ENCODING 251
SWIDTH 586 0
DWIDTH 11 0
BBX 11 19 0 -3
BITMAP
0000
0000
0000
03C0
0300
0300
0300
0300
0300
3B00
1B00
1B00
0F00
0700
0000
0000
0000
0000
0000
ENDCHAR

STARTCHAR vga252
ENCODING 252
SWIDTH 586 0
DWIDTH 11 0
BBX 11 19 0 -3
BITMAP
0000
0000
0000
3600
1B00
1B00
1B00
1B00
1B00
0000
0000
0000
0000
0000
0000
0000
0000
0000
0000
ENDCHAR

STARTCHAR twosuperior
ENCODING 253
SWIDTH 586 0
DWIDTH 11 0
BBX 11 19 0 -3
BITMAP
0000
0000
0000
1F00
3180
0180
0700
1C00
3000
3F80
3F80
0000
0000
0000
0000
0000
0000
0000
0000
ENDCHAR

STARTCHAR bullet
ENCODING 254
SWIDTH 586 0
DWIDTH 11 0
BBX 11 19 0 -3
BITMAP
0000
0000
0000
0000
0000
0000
3F80
3F80
3F80
3F80
3F80
3F80
3F80
0000
0000
0000
0000
0000
0000
ENDCHAR

STARTCHAR space255
ENCODING 255
SWIDTH 586 0
DWIDTH 11 0
BBX 11 19 0 -3
BITMAP
0000
0000
0000
0000
0000
0000
0000
0000
0000
0000
0000
0000
0000
0000
0000
0000
0000
0000
0000
ENDCHAR

ENDFONT
